M48
;DRILL file {KiCad (5.0.0-3-g5ebb6b6)} date 2019 September 08, Sunday 11:12:54
;FORMAT={-:-/ absolute / metric / decimal}
FMAT,2
METRIC,TZ
T1C0.400
T2C0.600
T3C0.800
T4C0.900
T5C1.000
T6C1.016
T7C1.100
T8C3.200
%
G90
G05
M71
T1
X77.601Y-110.582
X81.997Y-114.768
X90.325Y-99.525
X97.025Y-124.4
X97.739Y-114.635
X116.75Y-93.8
X121.025Y-83.045
X124.54Y-104.312
X126.708Y-111.479
X129.599Y-114.361
X129.818Y-101.305
X130.175Y-127.35
X130.355Y-123.011
X132.874Y-80.865
X136.453Y-92.022
X136.864Y-111.668
X137.702Y-122.304
X141.605Y-121.391
X151.05Y-90.2
T2
X85.725Y-98.33
X85.725Y-100.33
T3
X133.706Y-77.165
X133.706Y-79.705
X133.706Y-82.245
X133.706Y-84.785
X133.706Y-87.325
X133.706Y-89.865
X133.706Y-92.405
X141.326Y-77.165
X141.326Y-79.705
X141.326Y-82.245
X141.326Y-84.785
X141.326Y-87.325
X141.326Y-89.865
X141.326Y-92.405
X80.935Y-89.535
X91.095Y-89.535
X134.62Y-120.055
X134.62Y-122.555
X100.751Y-77.724
X103.251Y-77.724
X80.935Y-81.915
X91.095Y-81.915
X100.751Y-99.949
X103.251Y-99.949
X119.532Y-103.698
X122.032Y-103.698
X80.884Y-74.508
X91.044Y-74.508
X75.425Y-78.664
X75.425Y-83.544
X152.222Y-97.175
X154.722Y-97.175
X69.355Y-83.149
X69.355Y-85.649
X146.761Y-100.223
X146.761Y-102.763
X146.761Y-105.303
X146.761Y-107.843
X146.761Y-110.383
X146.761Y-112.923
X146.761Y-115.463
X154.381Y-100.223
X154.381Y-102.763
X154.381Y-105.303
X154.381Y-107.843
X154.381Y-110.383
X154.381Y-112.923
X154.381Y-115.463
X107.95Y-78.74
X107.95Y-81.28
X107.95Y-83.82
X107.95Y-86.36
X107.95Y-88.9
X107.95Y-91.44
X107.95Y-93.98
X107.95Y-96.52
X107.95Y-99.06
X152.389Y-74.188
X154.889Y-74.188
X146.761Y-77.325
X146.761Y-79.865
X146.761Y-82.405
X146.761Y-84.945
X146.761Y-87.485
X146.761Y-90.025
X146.761Y-92.565
X154.381Y-77.325
X154.381Y-79.865
X154.381Y-82.405
X154.381Y-84.945
X154.381Y-87.485
X154.381Y-90.025
X154.381Y-92.565
X84.455Y-108.585
X86.955Y-108.585
X80.935Y-78.105
X91.095Y-78.105
X139.486Y-97.028
X141.986Y-97.028
X112.756Y-74.742
X112.756Y-77.282
X112.756Y-79.822
X112.756Y-82.362
X112.756Y-84.902
X112.756Y-87.442
X112.756Y-89.982
X112.756Y-92.522
X112.756Y-95.062
X112.756Y-97.602
X112.756Y-100.142
X112.756Y-102.682
X112.756Y-105.222
X112.756Y-107.762
X112.756Y-110.302
X112.756Y-112.842
X112.756Y-115.382
X112.756Y-117.922
X112.756Y-120.462
X112.756Y-123.002
X127.996Y-74.742
X127.996Y-77.282
X127.996Y-79.822
X127.996Y-82.362
X127.996Y-84.902
X127.996Y-87.442
X127.996Y-89.982
X127.996Y-92.522
X127.996Y-95.062
X127.996Y-97.602
X127.996Y-100.142
X127.996Y-102.682
X127.996Y-105.222
X127.996Y-107.762
X127.996Y-110.302
X127.996Y-112.842
X127.996Y-115.382
X127.996Y-117.922
X127.996Y-120.462
X127.996Y-123.002
X80.935Y-85.725
X91.095Y-85.725
X69.355Y-76.746
X69.355Y-79.246
X95.123Y-74.549
X105.283Y-74.549
X137.795Y-120.65
X137.795Y-128.27
X140.335Y-120.65
X140.335Y-128.27
X142.875Y-120.65
X142.875Y-128.27
X145.415Y-120.65
X145.415Y-128.27
X147.955Y-120.65
X147.955Y-128.27
X150.495Y-120.65
X150.495Y-128.27
X153.035Y-120.65
X153.035Y-128.27
X95.237Y-80.861
X95.237Y-83.401
X95.237Y-85.941
X95.237Y-88.481
X95.237Y-91.021
X95.237Y-93.561
X95.237Y-96.101
X102.857Y-80.861
X102.857Y-83.401
X102.857Y-85.941
X102.857Y-88.481
X102.857Y-91.021
X102.857Y-93.561
X102.857Y-96.101
X107.95Y-103.505
X107.95Y-106.045
X107.95Y-108.585
X107.95Y-111.125
X107.95Y-113.665
X107.95Y-116.205
X107.95Y-118.745
X107.95Y-121.285
X107.95Y-123.825
X139.359Y-73.914
X141.859Y-73.914
X95.428Y-103.327
X95.428Y-105.867
X95.428Y-108.407
X95.428Y-110.947
X95.428Y-113.487
X95.428Y-116.027
X95.428Y-118.567
X103.048Y-103.327
X103.048Y-105.867
X103.048Y-108.407
X103.048Y-110.947
X103.048Y-113.487
X103.048Y-116.027
X103.048Y-118.567
X133.794Y-100.317
X133.794Y-102.857
X133.794Y-105.397
X133.794Y-107.937
X133.794Y-110.477
X133.794Y-113.017
X133.794Y-115.557
X141.414Y-100.317
X141.414Y-102.857
X141.414Y-105.397
X141.414Y-107.937
X141.414Y-110.477
X141.414Y-113.017
X141.414Y-115.557
T4
X80.935Y-93.345
X91.095Y-93.345
X71.056Y-71.399
X73.596Y-71.399
T5
X70.485Y-99.06
X73.025Y-99.06
X75.565Y-99.06
X91.44Y-67.31
X91.44Y-69.85
X93.98Y-67.31
X93.98Y-69.85
X96.52Y-67.31
X96.52Y-69.85
X99.06Y-67.31
X99.06Y-69.85
X101.6Y-67.31
X101.6Y-69.85
X104.14Y-67.31
X104.14Y-69.85
X106.68Y-67.31
X106.68Y-69.85
X109.22Y-67.31
X109.22Y-69.85
X111.76Y-67.31
X111.76Y-69.85
X114.3Y-67.31
X114.3Y-69.85
X116.84Y-67.31
X116.84Y-69.85
X119.38Y-67.31
X119.38Y-69.85
X121.92Y-67.31
X121.92Y-69.85
X124.46Y-67.31
X124.46Y-69.85
X127.Y-67.31
X127.Y-69.85
X129.54Y-67.31
X129.54Y-69.85
X132.08Y-67.31
X132.08Y-69.85
X134.62Y-67.31
X134.62Y-69.85
X137.16Y-67.31
X137.16Y-69.85
X139.7Y-67.31
X139.7Y-69.85
X72.39Y-106.045
X72.39Y-108.585
X72.39Y-111.125
X72.39Y-113.665
X72.39Y-116.205
X72.39Y-118.745
X72.39Y-121.285
X74.93Y-106.045
X74.93Y-108.585
X74.93Y-111.125
X74.93Y-113.665
X74.93Y-116.205
X74.93Y-118.745
X74.93Y-121.285
T7
X69.85Y-90.17
X69.85Y-94.67
X76.35Y-90.17
X76.35Y-94.67
T8
X158.825Y-61.7
X69.775Y-61.7
X69.8Y-127.575
X158.85Y-127.55
T6
X84.066Y-117.978G85X86.55Y-117.978
G05
X84.316Y-124.074G85X86.3Y-124.074
G05
X90.388Y-122.78G85X90.388Y-120.796
G05
T0
M30
