G04 #@! TF.GenerationSoftware,KiCad,Pcbnew,(5.0.0-3-g5ebb6b6)*
G04 #@! TF.CreationDate,2019-03-17T21:37:14+09:00*
G04 #@! TF.ProjectId,Z80-CPUB,5A38302D435055422E6B696361645F70,rev?*
G04 #@! TF.SameCoordinates,Original*
G04 #@! TF.FileFunction,Copper,L2,Bot,Signal*
G04 #@! TF.FilePolarity,Positive*
%FSLAX46Y46*%
G04 Gerber Fmt 4.6, Leading zero omitted, Abs format (unit mm)*
G04 Created by KiCad (PCBNEW (5.0.0-3-g5ebb6b6)) date *
%MOMM*%
%LPD*%
G01*
G04 APERTURE LIST*
G04 #@! TA.AperFunction,ComponentPad*
%ADD10R,1.700000X1.700000*%
G04 #@! TD*
G04 #@! TA.AperFunction,ComponentPad*
%ADD11O,1.700000X1.700000*%
G04 #@! TD*
G04 #@! TA.AperFunction,ComponentPad*
%ADD12R,1.800000X1.800000*%
G04 #@! TD*
G04 #@! TA.AperFunction,ComponentPad*
%ADD13O,1.800000X1.800000*%
G04 #@! TD*
G04 #@! TA.AperFunction,ComponentPad*
%ADD14C,2.000000*%
G04 #@! TD*
G04 #@! TA.AperFunction,ComponentPad*
%ADD15C,1.600000*%
G04 #@! TD*
G04 #@! TA.AperFunction,ComponentPad*
%ADD16C,1.500000*%
G04 #@! TD*
G04 #@! TA.AperFunction,ComponentPad*
%ADD17C,1.800000*%
G04 #@! TD*
G04 #@! TA.AperFunction,ComponentPad*
%ADD18R,1.600000X1.600000*%
G04 #@! TD*
G04 #@! TA.AperFunction,ComponentPad*
%ADD19O,1.600000X1.600000*%
G04 #@! TD*
G04 #@! TA.AperFunction,ComponentPad*
%ADD20C,4.800600*%
G04 #@! TD*
G04 #@! TA.AperFunction,ComponentPad*
%ADD21R,4.800600X4.800600*%
G04 #@! TD*
G04 #@! TA.AperFunction,ComponentPad*
%ADD22R,1.200000X1.200000*%
G04 #@! TD*
G04 #@! TA.AperFunction,ComponentPad*
%ADD23C,1.200000*%
G04 #@! TD*
G04 #@! TA.AperFunction,ViaPad*
%ADD24C,0.889000*%
G04 #@! TD*
G04 #@! TA.AperFunction,Conductor*
%ADD25C,0.609600*%
G04 #@! TD*
G04 #@! TA.AperFunction,Conductor*
%ADD26C,0.203200*%
G04 #@! TD*
G04 #@! TA.AperFunction,Conductor*
%ADD27C,0.254000*%
G04 #@! TD*
G04 APERTURE END LIST*
D10*
G04 #@! TO.P,S1,1*
G04 #@! TO.N,Net-(S1-Pad1)*
X84023200Y-109664000D03*
D11*
G04 #@! TO.P,S1,2*
G04 #@! TO.N,VCC*
X86563200Y-109664000D03*
G04 #@! TO.P,S1,3*
G04 #@! TO.N,Net-(J2-Pad1)*
X89103200Y-109664000D03*
G04 #@! TD*
D12*
G04 #@! TO.P,D1,1*
G04 #@! TO.N,VCC*
X81280000Y-103505000D03*
D13*
G04 #@! TO.P,D1,2*
G04 #@! TO.N,~RESIN*
X91440000Y-103505000D03*
G04 #@! TD*
D14*
G04 #@! TO.P,SW1,2*
G04 #@! TO.N,~RESIN*
X71132700Y-111802000D03*
G04 #@! TO.P,SW1,1*
G04 #@! TO.N,GND*
X71132700Y-107302000D03*
G04 #@! TO.P,SW1,2*
G04 #@! TO.N,~RESIN*
X77632700Y-111802000D03*
G04 #@! TO.P,SW1,1*
G04 #@! TO.N,GND*
X77632700Y-107302000D03*
G04 #@! TD*
D15*
G04 #@! TO.P,C1,2*
G04 #@! TO.N,GND*
X123569000Y-106858000D03*
G04 #@! TO.P,C1,1*
G04 #@! TO.N,VCC*
X121069000Y-106858000D03*
G04 #@! TD*
G04 #@! TO.P,C3,1*
G04 #@! TO.N,VCC*
X104140000Y-85344000D03*
G04 #@! TO.P,C3,2*
G04 #@! TO.N,GND*
X101640000Y-85344000D03*
G04 #@! TD*
G04 #@! TO.P,C4,2*
G04 #@! TO.N,GND*
X141264000Y-108458000D03*
G04 #@! TO.P,C4,1*
G04 #@! TO.N,VCC*
X143764000Y-108458000D03*
G04 #@! TD*
G04 #@! TO.P,C5,1*
G04 #@! TO.N,VCC*
X104140000Y-107569000D03*
G04 #@! TO.P,C5,2*
G04 #@! TO.N,GND*
X101640000Y-107569000D03*
G04 #@! TD*
G04 #@! TO.P,C6,2*
G04 #@! TO.N,GND*
X70497700Y-89279100D03*
G04 #@! TO.P,C6,1*
G04 #@! TO.N,Net-(C6-Pad1)*
X70497700Y-86779100D03*
G04 #@! TD*
G04 #@! TO.P,C7,1*
G04 #@! TO.N,Net-(C7-Pad1)*
X70497700Y-95681800D03*
G04 #@! TO.P,C7,2*
G04 #@! TO.N,GND*
X70497700Y-93181800D03*
G04 #@! TD*
G04 #@! TO.P,C9,2*
G04 #@! TO.N,GND*
X141137000Y-85344000D03*
G04 #@! TO.P,C9,1*
G04 #@! TO.N,VCC*
X143637000Y-85344000D03*
G04 #@! TD*
G04 #@! TO.P,C10,1*
G04 #@! TO.N,VCC*
X156591000Y-85471000D03*
G04 #@! TO.P,C10,2*
G04 #@! TO.N,GND*
X154091000Y-85471000D03*
G04 #@! TD*
D10*
G04 #@! TO.P,J1,1*
G04 #@! TO.N,VCC*
X91440000Y-69850000D03*
D11*
G04 #@! TO.P,J1,2*
G04 #@! TO.N,GND*
X91440000Y-67310000D03*
G04 #@! TO.P,J1,3*
G04 #@! TO.N,VCC*
X93980000Y-69850000D03*
G04 #@! TO.P,J1,4*
G04 #@! TO.N,GND*
X93980000Y-67310000D03*
G04 #@! TO.P,J1,5*
G04 #@! TO.N,~INTA*
X96520000Y-69850000D03*
G04 #@! TO.P,J1,6*
G04 #@! TO.N,~RESIN*
X96520000Y-67310000D03*
G04 #@! TO.P,J1,7*
G04 #@! TO.N,RDYIN*
X99060000Y-69850000D03*
G04 #@! TO.P,J1,8*
G04 #@! TO.N,CLK*
X99060000Y-67310000D03*
G04 #@! TO.P,J1,9*
G04 #@! TO.N,D0*
X101600000Y-69850000D03*
G04 #@! TO.P,J1,10*
G04 #@! TO.N,D1*
X101600000Y-67310000D03*
G04 #@! TO.P,J1,11*
G04 #@! TO.N,D2*
X104140000Y-69850000D03*
G04 #@! TO.P,J1,12*
G04 #@! TO.N,D3*
X104140000Y-67310000D03*
G04 #@! TO.P,J1,13*
G04 #@! TO.N,D4*
X106680000Y-69850000D03*
G04 #@! TO.P,J1,14*
G04 #@! TO.N,D5*
X106680000Y-67310000D03*
G04 #@! TO.P,J1,15*
G04 #@! TO.N,D6*
X109220000Y-69850000D03*
G04 #@! TO.P,J1,16*
G04 #@! TO.N,D7*
X109220000Y-67310000D03*
G04 #@! TO.P,J1,17*
G04 #@! TO.N,~IORD*
X111760000Y-69850000D03*
G04 #@! TO.P,J1,18*
G04 #@! TO.N,~MEMRD*
X111760000Y-67310000D03*
G04 #@! TO.P,J1,19*
G04 #@! TO.N,~IOWR*
X114300000Y-69850000D03*
G04 #@! TO.P,J1,20*
G04 #@! TO.N,~MEMWR*
X114300000Y-67310000D03*
G04 #@! TO.P,J1,21*
G04 #@! TO.N,RES*
X116840000Y-69850000D03*
G04 #@! TO.P,J1,22*
G04 #@! TO.N,HLDA*
X116840000Y-67310000D03*
G04 #@! TO.P,J1,23*
G04 #@! TO.N,INT*
X119380000Y-69850000D03*
G04 #@! TO.P,J1,24*
G04 #@! TO.N,HOLD*
X119380000Y-67310000D03*
G04 #@! TO.P,J1,25*
G04 #@! TO.N,A0*
X121920000Y-69850000D03*
G04 #@! TO.P,J1,26*
G04 #@! TO.N,A1*
X121920000Y-67310000D03*
G04 #@! TO.P,J1,27*
G04 #@! TO.N,A2*
X124460000Y-69850000D03*
G04 #@! TO.P,J1,28*
G04 #@! TO.N,A3*
X124460000Y-67310000D03*
G04 #@! TO.P,J1,29*
G04 #@! TO.N,A4*
X127000000Y-69850000D03*
G04 #@! TO.P,J1,30*
G04 #@! TO.N,A5*
X127000000Y-67310000D03*
G04 #@! TO.P,J1,31*
G04 #@! TO.N,A6*
X129540000Y-69850000D03*
G04 #@! TO.P,J1,32*
G04 #@! TO.N,A7*
X129540000Y-67310000D03*
G04 #@! TO.P,J1,33*
G04 #@! TO.N,A8*
X132080000Y-69850000D03*
G04 #@! TO.P,J1,34*
G04 #@! TO.N,A9*
X132080000Y-67310000D03*
G04 #@! TO.P,J1,35*
G04 #@! TO.N,A10*
X134620000Y-69850000D03*
G04 #@! TO.P,J1,36*
G04 #@! TO.N,A11*
X134620000Y-67310000D03*
G04 #@! TO.P,J1,37*
G04 #@! TO.N,A12*
X137160000Y-69850000D03*
G04 #@! TO.P,J1,38*
G04 #@! TO.N,A13*
X137160000Y-67310000D03*
G04 #@! TO.P,J1,39*
G04 #@! TO.N,A14*
X139700000Y-69850000D03*
G04 #@! TO.P,J1,40*
G04 #@! TO.N,A15*
X139700000Y-67310000D03*
G04 #@! TD*
D16*
G04 #@! TO.P,Y1,1*
G04 #@! TO.N,Net-(C6-Pad1)*
X76568300Y-88696800D03*
G04 #@! TO.P,Y1,2*
G04 #@! TO.N,Net-(C7-Pad1)*
X76568300Y-93576800D03*
G04 #@! TD*
D12*
G04 #@! TO.P,D2,1*
G04 #@! TO.N,Net-(D2-Pad1)*
X72834500Y-79527400D03*
D17*
G04 #@! TO.P,D2,2*
G04 #@! TO.N,VCC*
X75374500Y-79527400D03*
G04 #@! TD*
D18*
G04 #@! TO.P,U2,1*
G04 #@! TO.N,RES*
X96316800Y-110947000D03*
D19*
G04 #@! TO.P,U2,8*
G04 #@! TO.N,Net-(U2-Pad8)*
X103936800Y-126187000D03*
G04 #@! TO.P,U2,2*
G04 #@! TO.N,Net-(U1-Pad26)*
X96316800Y-113487000D03*
G04 #@! TO.P,U2,9*
G04 #@! TO.N,GND*
X103936800Y-123647000D03*
G04 #@! TO.P,U2,3*
G04 #@! TO.N,~RESIN*
X96316800Y-116027000D03*
G04 #@! TO.P,U2,10*
G04 #@! TO.N,Net-(U2-Pad10)*
X103936800Y-121107000D03*
G04 #@! TO.P,U2,4*
G04 #@! TO.N,RES*
X96316800Y-118567000D03*
G04 #@! TO.P,U2,11*
G04 #@! TO.N,GND*
X103936800Y-118567000D03*
G04 #@! TO.P,U2,5*
X96316800Y-121107000D03*
G04 #@! TO.P,U2,12*
G04 #@! TO.N,Net-(U2-Pad12)*
X103936800Y-116027000D03*
G04 #@! TO.P,U2,6*
G04 #@! TO.N,Net-(U2-Pad6)*
X96316800Y-123647000D03*
G04 #@! TO.P,U2,13*
G04 #@! TO.N,GND*
X103936800Y-113487000D03*
G04 #@! TO.P,U2,7*
X96316800Y-126187000D03*
G04 #@! TO.P,U2,14*
G04 #@! TO.N,VCC*
X103936800Y-110947000D03*
G04 #@! TD*
G04 #@! TO.P,U3,14*
G04 #@! TO.N,VCC*
X103746300Y-88480900D03*
G04 #@! TO.P,U3,7*
G04 #@! TO.N,GND*
X96126300Y-103720900D03*
G04 #@! TO.P,U3,13*
X103746300Y-91020900D03*
G04 #@! TO.P,U3,6*
G04 #@! TO.N,Net-(R3-Pad1)*
X96126300Y-101180900D03*
G04 #@! TO.P,U3,12*
G04 #@! TO.N,Net-(U3-Pad12)*
X103746300Y-93560900D03*
G04 #@! TO.P,U3,5*
G04 #@! TO.N,Net-(C7-Pad1)*
X96126300Y-98640900D03*
G04 #@! TO.P,U3,11*
G04 #@! TO.N,Net-(U1-Pad23)*
X103746300Y-96100900D03*
G04 #@! TO.P,U3,4*
G04 #@! TO.N,CLK*
X96126300Y-96100900D03*
G04 #@! TO.P,U3,10*
G04 #@! TO.N,HLDA*
X103746300Y-98640900D03*
G04 #@! TO.P,U3,3*
G04 #@! TO.N,Net-(R3-Pad1)*
X96126300Y-93560900D03*
G04 #@! TO.P,U3,9*
G04 #@! TO.N,HOLD*
X103746300Y-101180900D03*
G04 #@! TO.P,U3,2*
G04 #@! TO.N,/~INT*
X96126300Y-91020900D03*
G04 #@! TO.P,U3,8*
G04 #@! TO.N,Net-(U1-Pad25)*
X103746300Y-103720900D03*
D18*
G04 #@! TO.P,U3,1*
G04 #@! TO.N,INT*
X96126300Y-88480900D03*
G04 #@! TD*
G04 #@! TO.P,U4,1*
G04 #@! TO.N,/~RD*
X135572000Y-111747000D03*
D19*
G04 #@! TO.P,U4,8*
G04 #@! TO.N,Net-(U4-Pad8)*
X143192000Y-126987000D03*
G04 #@! TO.P,U4,2*
G04 #@! TO.N,/~MREQ*
X135572000Y-114287000D03*
G04 #@! TO.P,U4,9*
G04 #@! TO.N,/~RD*
X143192000Y-124447000D03*
G04 #@! TO.P,U4,3*
G04 #@! TO.N,Net-(U4-Pad3)*
X135572000Y-116827000D03*
G04 #@! TO.P,U4,10*
G04 #@! TO.N,/~IOREQ*
X143192000Y-121907000D03*
G04 #@! TO.P,U4,4*
G04 #@! TO.N,/~MREQ*
X135572000Y-119367000D03*
G04 #@! TO.P,U4,11*
G04 #@! TO.N,Net-(U4-Pad11)*
X143192000Y-119367000D03*
G04 #@! TO.P,U4,5*
G04 #@! TO.N,/~WR*
X135572000Y-121907000D03*
G04 #@! TO.P,U4,12*
G04 #@! TO.N,/~IOREQ*
X143192000Y-116827000D03*
G04 #@! TO.P,U4,6*
G04 #@! TO.N,Net-(U4-Pad6)*
X135572000Y-124447000D03*
G04 #@! TO.P,U4,13*
G04 #@! TO.N,/~WR*
X143192000Y-114287000D03*
G04 #@! TO.P,U4,7*
G04 #@! TO.N,GND*
X135572000Y-126987000D03*
G04 #@! TO.P,U4,14*
G04 #@! TO.N,VCC*
X143192000Y-111747000D03*
G04 #@! TD*
G04 #@! TO.P,U5,14*
G04 #@! TO.N,VCC*
X143104000Y-88595200D03*
G04 #@! TO.P,U5,7*
G04 #@! TO.N,GND*
X135484000Y-103835200D03*
G04 #@! TO.P,U5,13*
X143104000Y-91135200D03*
G04 #@! TO.P,U5,6*
G04 #@! TO.N,Net-(U5-Pad6)*
X135484000Y-101295200D03*
G04 #@! TO.P,U5,12*
G04 #@! TO.N,GND*
X143104000Y-93675200D03*
G04 #@! TO.P,U5,5*
X135484000Y-98755200D03*
G04 #@! TO.P,U5,11*
G04 #@! TO.N,Net-(U5-Pad11)*
X143104000Y-96215200D03*
G04 #@! TO.P,U5,4*
G04 #@! TO.N,GND*
X135484000Y-96215200D03*
G04 #@! TO.P,U5,10*
X143104000Y-98755200D03*
G04 #@! TO.P,U5,3*
G04 #@! TO.N,~INTA*
X135484000Y-93675200D03*
G04 #@! TO.P,U5,9*
G04 #@! TO.N,GND*
X143104000Y-101295200D03*
G04 #@! TO.P,U5,2*
G04 #@! TO.N,/~IOREQ*
X135484000Y-91135200D03*
G04 #@! TO.P,U5,8*
G04 #@! TO.N,Net-(U5-Pad8)*
X143104000Y-103835200D03*
D18*
G04 #@! TO.P,U5,1*
G04 #@! TO.N,Net-(U1-Pad27)*
X135484000Y-88595200D03*
G04 #@! TD*
G04 #@! TO.P,U6,1*
G04 #@! TO.N,HLDA*
X148463000Y-88607900D03*
D19*
G04 #@! TO.P,U6,8*
G04 #@! TO.N,~IORD*
X156083000Y-103847900D03*
G04 #@! TO.P,U6,2*
G04 #@! TO.N,Net-(U4-Pad3)*
X148463000Y-91147900D03*
G04 #@! TO.P,U6,9*
G04 #@! TO.N,Net-(U4-Pad8)*
X156083000Y-101307900D03*
G04 #@! TO.P,U6,3*
G04 #@! TO.N,~MEMRD*
X148463000Y-93687900D03*
G04 #@! TO.P,U6,10*
G04 #@! TO.N,HLDA*
X156083000Y-98767900D03*
G04 #@! TO.P,U6,4*
X148463000Y-96227900D03*
G04 #@! TO.P,U6,11*
G04 #@! TO.N,~IOWR*
X156083000Y-96227900D03*
G04 #@! TO.P,U6,5*
G04 #@! TO.N,Net-(U4-Pad6)*
X148463000Y-98767900D03*
G04 #@! TO.P,U6,12*
G04 #@! TO.N,Net-(U4-Pad11)*
X156083000Y-93687900D03*
G04 #@! TO.P,U6,6*
G04 #@! TO.N,~MEMWR*
X148463000Y-101307900D03*
G04 #@! TO.P,U6,13*
G04 #@! TO.N,HLDA*
X156083000Y-91147900D03*
G04 #@! TO.P,U6,7*
G04 #@! TO.N,GND*
X148463000Y-103847900D03*
G04 #@! TO.P,U6,14*
G04 #@! TO.N,VCC*
X156083000Y-88607900D03*
G04 #@! TD*
D18*
G04 #@! TO.P,U1,1*
G04 #@! TO.N,A11*
X114402000Y-79248000D03*
D19*
G04 #@! TO.P,U1,21*
G04 #@! TO.N,/~RD*
X129642000Y-127508000D03*
G04 #@! TO.P,U1,2*
G04 #@! TO.N,A12*
X114402000Y-81788000D03*
G04 #@! TO.P,U1,22*
G04 #@! TO.N,/~WR*
X129642000Y-124968000D03*
G04 #@! TO.P,U1,3*
G04 #@! TO.N,A13*
X114402000Y-84328000D03*
G04 #@! TO.P,U1,23*
G04 #@! TO.N,Net-(U1-Pad23)*
X129642000Y-122428000D03*
G04 #@! TO.P,U1,4*
G04 #@! TO.N,A14*
X114402000Y-86868000D03*
G04 #@! TO.P,U1,24*
G04 #@! TO.N,RDYIN*
X129642000Y-119888000D03*
G04 #@! TO.P,U1,5*
G04 #@! TO.N,A15*
X114402000Y-89408000D03*
G04 #@! TO.P,U1,25*
G04 #@! TO.N,Net-(U1-Pad25)*
X129642000Y-117348000D03*
G04 #@! TO.P,U1,6*
G04 #@! TO.N,CLK*
X114402000Y-91948000D03*
G04 #@! TO.P,U1,26*
G04 #@! TO.N,Net-(U1-Pad26)*
X129642000Y-114808000D03*
G04 #@! TO.P,U1,7*
G04 #@! TO.N,D4*
X114402000Y-94488000D03*
G04 #@! TO.P,U1,27*
G04 #@! TO.N,Net-(U1-Pad27)*
X129642000Y-112268000D03*
G04 #@! TO.P,U1,8*
G04 #@! TO.N,D3*
X114402000Y-97028000D03*
G04 #@! TO.P,U1,28*
G04 #@! TO.N,Net-(U1-Pad28)*
X129642000Y-109728000D03*
G04 #@! TO.P,U1,9*
G04 #@! TO.N,D5*
X114402000Y-99568000D03*
G04 #@! TO.P,U1,29*
G04 #@! TO.N,GND*
X129642000Y-107188000D03*
G04 #@! TO.P,U1,10*
G04 #@! TO.N,D6*
X114402000Y-102108000D03*
G04 #@! TO.P,U1,30*
G04 #@! TO.N,A0*
X129642000Y-104648000D03*
G04 #@! TO.P,U1,11*
G04 #@! TO.N,VCC*
X114402000Y-104648000D03*
G04 #@! TO.P,U1,31*
G04 #@! TO.N,A1*
X129642000Y-102108000D03*
G04 #@! TO.P,U1,12*
G04 #@! TO.N,D2*
X114402000Y-107188000D03*
G04 #@! TO.P,U1,32*
G04 #@! TO.N,A2*
X129642000Y-99568000D03*
G04 #@! TO.P,U1,13*
G04 #@! TO.N,D7*
X114402000Y-109728000D03*
G04 #@! TO.P,U1,33*
G04 #@! TO.N,A3*
X129642000Y-97028000D03*
G04 #@! TO.P,U1,14*
G04 #@! TO.N,D0*
X114402000Y-112268000D03*
G04 #@! TO.P,U1,34*
G04 #@! TO.N,A4*
X129642000Y-94488000D03*
G04 #@! TO.P,U1,15*
G04 #@! TO.N,D1*
X114402000Y-114808000D03*
G04 #@! TO.P,U1,35*
G04 #@! TO.N,A5*
X129642000Y-91948000D03*
G04 #@! TO.P,U1,16*
G04 #@! TO.N,/~INT*
X114402000Y-117348000D03*
G04 #@! TO.P,U1,36*
G04 #@! TO.N,A6*
X129642000Y-89408000D03*
G04 #@! TO.P,U1,17*
G04 #@! TO.N,VCC*
X114402000Y-119888000D03*
G04 #@! TO.P,U1,37*
G04 #@! TO.N,A7*
X129642000Y-86868000D03*
G04 #@! TO.P,U1,18*
G04 #@! TO.N,Net-(U1-Pad18)*
X114402000Y-122428000D03*
G04 #@! TO.P,U1,38*
G04 #@! TO.N,A8*
X129642000Y-84328000D03*
G04 #@! TO.P,U1,19*
G04 #@! TO.N,/~MREQ*
X114402000Y-124968000D03*
G04 #@! TO.P,U1,39*
G04 #@! TO.N,A9*
X129642000Y-81788000D03*
G04 #@! TO.P,U1,20*
G04 #@! TO.N,/~IOREQ*
X114402000Y-127508000D03*
G04 #@! TO.P,U1,40*
G04 #@! TO.N,A10*
X129642000Y-79248000D03*
G04 #@! TD*
D15*
G04 #@! TO.P,R2,1*
G04 #@! TO.N,VCC*
X81280000Y-99060000D03*
D19*
G04 #@! TO.P,R2,2*
G04 #@! TO.N,~RESIN*
X91440000Y-99060000D03*
G04 #@! TD*
G04 #@! TO.P,R1,2*
G04 #@! TO.N,GND*
X91440000Y-84455000D03*
D15*
G04 #@! TO.P,R1,1*
G04 #@! TO.N,INT*
X81280000Y-84455000D03*
G04 #@! TD*
G04 #@! TO.P,R3,1*
G04 #@! TO.N,Net-(R3-Pad1)*
X91440000Y-88900000D03*
D19*
G04 #@! TO.P,R3,2*
G04 #@! TO.N,Net-(C6-Pad1)*
X81280000Y-88900000D03*
G04 #@! TD*
G04 #@! TO.P,R4,2*
G04 #@! TO.N,Net-(C7-Pad1)*
X81280000Y-93980000D03*
D15*
G04 #@! TO.P,R4,1*
G04 #@! TO.N,Net-(R3-Pad1)*
X91440000Y-93980000D03*
G04 #@! TD*
G04 #@! TO.P,R5,1*
G04 #@! TO.N,Net-(D2-Pad1)*
X81229200Y-80010000D03*
D19*
G04 #@! TO.P,R5,2*
G04 #@! TO.N,GND*
X91389200Y-80010000D03*
G04 #@! TD*
G04 #@! TO.P,R6,2*
G04 #@! TO.N,RDYIN*
X135052000Y-79057500D03*
D15*
G04 #@! TO.P,R6,1*
G04 #@! TO.N,VCC*
X145212000Y-79057500D03*
G04 #@! TD*
G04 #@! TO.P,R7,1*
G04 #@! TO.N,HOLD*
X106007000Y-79959200D03*
D19*
G04 #@! TO.P,R7,2*
G04 #@! TO.N,GND*
X95847000Y-79959200D03*
G04 #@! TD*
D20*
G04 #@! TO.P,J2,2*
G04 #@! TO.N,GND*
X86360000Y-124460000D03*
D21*
G04 #@! TO.P,J2,1*
G04 #@! TO.N,Net-(J2-Pad1)*
X86360000Y-118364000D03*
D20*
G04 #@! TO.P,J2,3*
G04 #@! TO.N,Net-(J2-Pad3)*
X91440000Y-122174000D03*
G04 #@! TD*
D22*
G04 #@! TO.P,C2,1*
G04 #@! TO.N,~RESIN*
X72859900Y-101308000D03*
D23*
G04 #@! TO.P,C2,2*
G04 #@! TO.N,GND*
X72859900Y-99308000D03*
G04 #@! TD*
D18*
G04 #@! TO.P,C8,1*
G04 #@! TO.N,VCC*
X73660000Y-121412000D03*
D15*
G04 #@! TO.P,C8,2*
G04 #@! TO.N,GND*
X76160000Y-121412000D03*
G04 #@! TD*
D18*
G04 #@! TO.P,RN1,1*
G04 #@! TO.N,VCC*
X109245000Y-92176600D03*
D19*
G04 #@! TO.P,RN1,2*
G04 #@! TO.N,D0*
X109245000Y-94716600D03*
G04 #@! TO.P,RN1,3*
G04 #@! TO.N,D1*
X109245000Y-97256600D03*
G04 #@! TO.P,RN1,4*
G04 #@! TO.N,D2*
X109245000Y-99796600D03*
G04 #@! TO.P,RN1,5*
G04 #@! TO.N,D3*
X109245000Y-102336600D03*
G04 #@! TO.P,RN1,6*
G04 #@! TO.N,D4*
X109245000Y-104876600D03*
G04 #@! TO.P,RN1,7*
G04 #@! TO.N,D5*
X109245000Y-107416600D03*
G04 #@! TO.P,RN1,8*
G04 #@! TO.N,D6*
X109245000Y-109956600D03*
G04 #@! TO.P,RN1,9*
G04 #@! TO.N,D7*
X109245000Y-112496600D03*
G04 #@! TD*
D24*
G04 #@! TO.N,GND*
X102235000Y-76200000D03*
X120015000Y-87630000D03*
X100965000Y-98425000D03*
X125730000Y-121285000D03*
X117475000Y-113030000D03*
X139700000Y-120015000D03*
X152400000Y-107315000D03*
X120015000Y-93980000D03*
X107950000Y-88265000D03*
X106680000Y-109220000D03*
X95885000Y-84455000D03*
X107950000Y-82550000D03*
X117729000Y-83312000D03*
X119888000Y-125095000D03*
X117792500Y-117411500D03*
X138289500Y-124269500D03*
X134175500Y-84391500D03*
X150558500Y-94742000D03*
X151638000Y-90106500D03*
X145859500Y-94996000D03*
G04 #@! TO.N,~IORD*
X121898000Y-85481600D03*
G04 #@! TO.N,~IOWR*
X122003600Y-83207000D03*
G04 #@! TO.N,~MEMWR*
X123311200Y-98441900D03*
G04 #@! TO.N,/~IOREQ*
X128016000Y-126365000D03*
G04 #@! TO.N,HLDA*
X122022000Y-95922800D03*
G04 #@! TD*
D25*
G04 #@! TO.N,VCC*
X86563200Y-109664000D02*
X78651300Y-117575900D01*
X78651300Y-117575900D02*
X77496100Y-117575900D01*
X77496100Y-117575900D02*
X73660000Y-121412000D01*
X81280000Y-99060000D02*
X79920800Y-97700800D01*
X79920800Y-97700800D02*
X79920800Y-84073700D01*
X79920800Y-84073700D02*
X75374500Y-79527400D01*
X81280000Y-103505000D02*
X81280000Y-99060000D01*
X103936800Y-110947000D02*
X105245100Y-110947000D01*
X105245100Y-110947000D02*
X105245100Y-112039400D01*
X105245100Y-112039400D02*
X113093700Y-119888000D01*
X104140000Y-107569000D02*
X103936800Y-107772200D01*
X103936800Y-107772200D02*
X103936800Y-110947000D01*
X114402000Y-119888000D02*
X113093700Y-119888000D01*
X109245000Y-92176600D02*
X106679700Y-94741900D01*
X106679700Y-94741900D02*
X106679700Y-105029300D01*
X106679700Y-105029300D02*
X104140000Y-107569000D01*
X156083000Y-88607900D02*
X156083000Y-87299600D01*
X156083000Y-87299600D02*
X156591000Y-86791600D01*
X156591000Y-86791600D02*
X156591000Y-85471000D01*
X143764000Y-108458000D02*
X145715400Y-108458000D01*
X145715400Y-108458000D02*
X152279000Y-101894400D01*
X152279000Y-101894400D02*
X152279000Y-92411900D01*
X152279000Y-92411900D02*
X156083000Y-88607900D01*
X143764000Y-108458000D02*
X143764000Y-109866700D01*
X143764000Y-109866700D02*
X143192000Y-110438700D01*
X120804200Y-119888000D02*
X120804200Y-120568300D01*
X120804200Y-120568300D02*
X129070300Y-128834400D01*
X129070300Y-128834400D02*
X143199400Y-128834400D01*
X143199400Y-128834400D02*
X144502400Y-127531400D01*
X144502400Y-127531400D02*
X144502400Y-113057400D01*
X144502400Y-113057400D02*
X143192000Y-111747000D01*
X121069000Y-106858000D02*
X121069000Y-119623200D01*
X121069000Y-119623200D02*
X120804200Y-119888000D01*
X115710300Y-119888000D02*
X120804200Y-119888000D01*
X114402000Y-119888000D02*
X115710300Y-119888000D01*
X143192000Y-111747000D02*
X143192000Y-110438700D01*
X103746300Y-88480900D02*
X103746300Y-87172600D01*
X103746300Y-87172600D02*
X104140000Y-86778900D01*
X104140000Y-86778900D02*
X104140000Y-85344000D01*
X143104000Y-88595200D02*
X143104000Y-87286900D01*
X143104000Y-87286900D02*
X143637000Y-86753900D01*
X143637000Y-86753900D02*
X143637000Y-85344000D01*
G04 #@! TO.N,GND*
X135572000Y-126987000D02*
X138289500Y-124269500D01*
X141264000Y-121295000D02*
X141264000Y-108458000D01*
X70497700Y-89279100D02*
X70497700Y-93181800D01*
X70497700Y-93181800D02*
X72859900Y-95544000D01*
X72859900Y-95544000D02*
X72859900Y-99308000D01*
X148463000Y-103847900D02*
X147154700Y-103847900D01*
X143104000Y-101295200D02*
X144602000Y-101295200D01*
X144602000Y-101295200D02*
X147154700Y-103847900D01*
X143104000Y-98755200D02*
X143104000Y-101295200D01*
X102628500Y-121107000D02*
X102628500Y-118567000D01*
X103936800Y-123647000D02*
X102628500Y-122338700D01*
X102628500Y-122338700D02*
X102628500Y-121107000D01*
X102628500Y-121107000D02*
X97625100Y-121107000D01*
X96316800Y-121107000D02*
X97625100Y-121107000D01*
X102628500Y-118567000D02*
X102628500Y-113487000D01*
X103936800Y-118567000D02*
X102628500Y-118567000D01*
X95847000Y-79959200D02*
X97155300Y-79959200D01*
X101640000Y-85344000D02*
X97155300Y-80859300D01*
X97155300Y-80859300D02*
X97155300Y-79959200D01*
X101640000Y-85344000D02*
X101640000Y-90418600D01*
X101640000Y-90418600D02*
X102242300Y-91020900D01*
X72859900Y-99308000D02*
X71132700Y-101035200D01*
X71132700Y-101035200D02*
X71132700Y-107302000D01*
X102242300Y-91020900D02*
X102242300Y-106966700D01*
X102242300Y-106966700D02*
X101640000Y-107569000D01*
X102438000Y-91020900D02*
X102242300Y-91020900D01*
X103746300Y-91020900D02*
X102438000Y-91020900D01*
X101640000Y-107569000D02*
X101640000Y-112498500D01*
X101640000Y-112498500D02*
X102628500Y-113487000D01*
X103936800Y-113487000D02*
X102628500Y-113487000D01*
X91389200Y-80010000D02*
X91389200Y-78701700D01*
X91440000Y-67310000D02*
X90081700Y-68668300D01*
X90081700Y-68668300D02*
X90081700Y-77394200D01*
X90081700Y-77394200D02*
X91389200Y-78701700D01*
X143104000Y-91135200D02*
X141137000Y-89168200D01*
X141137000Y-89168200D02*
X141137000Y-85344000D01*
X143104000Y-93675200D02*
X143104000Y-91135200D01*
X135484000Y-96215200D02*
X135484000Y-98755200D01*
X91440000Y-84455000D02*
X91440000Y-83146700D01*
X91440000Y-83146700D02*
X91389200Y-83095900D01*
X91389200Y-83095900D02*
X91389200Y-80010000D01*
X138289500Y-124269500D02*
X141264000Y-121295000D01*
D26*
G04 #@! TO.N,CLK*
X99060000Y-67310000D02*
X99060000Y-68465100D01*
X96126300Y-96100900D02*
X94320000Y-94294600D01*
X94320000Y-94294600D02*
X94320000Y-75148500D01*
X94320000Y-75148500D02*
X97790000Y-71678500D01*
X97790000Y-71678500D02*
X97790000Y-69465800D01*
X97790000Y-69465800D02*
X98790700Y-68465100D01*
X98790700Y-68465100D02*
X99060000Y-68465100D01*
G04 #@! TO.N,D0*
X114402000Y-112268000D02*
X114402000Y-113373100D01*
X114402000Y-113373100D02*
X114540100Y-113373100D01*
X114540100Y-113373100D02*
X115549500Y-114382500D01*
X115549500Y-114382500D02*
X115549500Y-115224100D01*
X115549500Y-115224100D02*
X114823300Y-115950300D01*
X114823300Y-115950300D02*
X111068500Y-115950300D01*
X111068500Y-115950300D02*
X107698200Y-112580000D01*
X107698200Y-112580000D02*
X107698200Y-96263400D01*
X107698200Y-96263400D02*
X109245000Y-94716600D01*
X109245000Y-94716600D02*
X109245000Y-93611500D01*
X109245000Y-93611500D02*
X109849400Y-93611500D01*
X109849400Y-93611500D02*
X110350200Y-93110700D01*
X110350200Y-93110700D02*
X110350200Y-81589800D01*
X110350200Y-81589800D02*
X101600000Y-72839600D01*
X101600000Y-72839600D02*
X101600000Y-69850000D01*
G04 #@! TO.N,D1*
X101600000Y-67310000D02*
X101600000Y-68465100D01*
X109245000Y-97256600D02*
X109245000Y-96151500D01*
X109245000Y-96151500D02*
X109383100Y-96151500D01*
X109383100Y-96151500D02*
X110799600Y-94735000D01*
X110799600Y-94735000D02*
X110799600Y-80007100D01*
X110799600Y-80007100D02*
X102870000Y-72077500D01*
X102870000Y-72077500D02*
X102870000Y-69465900D01*
X102870000Y-69465900D02*
X101869200Y-68465100D01*
X101869200Y-68465100D02*
X101600000Y-68465100D01*
X113296900Y-114808000D02*
X109584000Y-111095100D01*
X109584000Y-111095100D02*
X108817300Y-111095100D01*
X108817300Y-111095100D02*
X108110000Y-110387800D01*
X108110000Y-110387800D02*
X108110000Y-98391600D01*
X108110000Y-98391600D02*
X109245000Y-97256600D01*
X114402000Y-114808000D02*
X113296900Y-114808000D01*
G04 #@! TO.N,D2*
X109245000Y-98691500D02*
X109374100Y-98691500D01*
X109374100Y-98691500D02*
X111206400Y-96859200D01*
X111206400Y-96859200D02*
X111206400Y-78071500D01*
X111206400Y-78071500D02*
X104140000Y-71005100D01*
X109245000Y-99796600D02*
X109245000Y-98691500D01*
X104140000Y-69850000D02*
X104140000Y-71005100D01*
G04 #@! TO.N,D3*
X109245000Y-101231500D02*
X109383100Y-101231500D01*
X109383100Y-101231500D02*
X111613100Y-99001500D01*
X111613100Y-99001500D02*
X111613100Y-77363200D01*
X111613100Y-77363200D02*
X105410000Y-71160100D01*
X105410000Y-71160100D02*
X105410000Y-69465900D01*
X105410000Y-69465900D02*
X104409200Y-68465100D01*
X104409200Y-68465100D02*
X104140000Y-68465100D01*
X104140000Y-67310000D02*
X104140000Y-68465100D01*
X109245000Y-102336600D02*
X109245000Y-101231500D01*
G04 #@! TO.N,D4*
X114402000Y-94488000D02*
X114402000Y-95593100D01*
X109245000Y-104876600D02*
X109245000Y-103771500D01*
X109245000Y-103771500D02*
X109383100Y-103771500D01*
X109383100Y-103771500D02*
X112967200Y-100187400D01*
X112967200Y-100187400D02*
X112967200Y-96798900D01*
X112967200Y-96798900D02*
X114173000Y-95593100D01*
X114173000Y-95593100D02*
X114402000Y-95593100D01*
X114402000Y-93382900D02*
X114231600Y-93382900D01*
X114231600Y-93382900D02*
X112019800Y-91171100D01*
X112019800Y-91171100D02*
X112019800Y-76344900D01*
X112019800Y-76344900D02*
X106680000Y-71005100D01*
X106680000Y-69850000D02*
X106680000Y-71005100D01*
X114402000Y-94488000D02*
X114402000Y-93382900D01*
G04 #@! TO.N,D5*
X109245000Y-107416600D02*
X109245000Y-106311500D01*
X109245000Y-106311500D02*
X109383300Y-106311500D01*
X109383300Y-106311500D02*
X110350100Y-105344700D01*
X110350100Y-105344700D02*
X110350100Y-103619900D01*
X110350100Y-103619900D02*
X114402000Y-99568000D01*
X106680000Y-67310000D02*
X106680000Y-68465100D01*
X114402000Y-99568000D02*
X114402000Y-98462900D01*
X114402000Y-98462900D02*
X114540100Y-98462900D01*
X114540100Y-98462900D02*
X115507200Y-97495800D01*
X115507200Y-97495800D02*
X115507200Y-78282100D01*
X115507200Y-78282100D02*
X107950000Y-70724900D01*
X107950000Y-70724900D02*
X107950000Y-69465900D01*
X107950000Y-69465900D02*
X106949200Y-68465100D01*
X106949200Y-68465100D02*
X106680000Y-68465100D01*
G04 #@! TO.N,D6*
X109245000Y-108851500D02*
X109381400Y-108851500D01*
X109381400Y-108851500D02*
X110925200Y-107307700D01*
X110925200Y-107307700D02*
X110925200Y-106460900D01*
X110925200Y-106460900D02*
X114173000Y-103213100D01*
X114173000Y-103213100D02*
X114402000Y-103213100D01*
X114402000Y-102108000D02*
X114402000Y-103213100D01*
X109245000Y-109956600D02*
X109245000Y-108851500D01*
X114402000Y-102108000D02*
X114402000Y-101002900D01*
X114402000Y-101002900D02*
X114540100Y-101002900D01*
X114540100Y-101002900D02*
X115915900Y-99627100D01*
X115915900Y-99627100D02*
X115915900Y-77975600D01*
X115915900Y-77975600D02*
X109220000Y-71279700D01*
X109220000Y-71279700D02*
X109220000Y-69850000D01*
G04 #@! TO.N,D7*
X109220000Y-67310000D02*
X109220000Y-68465100D01*
X114402000Y-109728000D02*
X114402000Y-108622900D01*
X114402000Y-108622900D02*
X114540100Y-108622900D01*
X114540100Y-108622900D02*
X116350900Y-106812100D01*
X116350900Y-106812100D02*
X116350900Y-77835300D01*
X116350900Y-77835300D02*
X110604800Y-72089200D01*
X110604800Y-72089200D02*
X110604800Y-69580700D01*
X110604800Y-69580700D02*
X109489200Y-68465100D01*
X109489200Y-68465100D02*
X109220000Y-68465100D01*
G04 #@! TO.N,~IORD*
X111760000Y-71005100D02*
X117818000Y-77063100D01*
X117818000Y-77063100D02*
X117818000Y-81401600D01*
X117818000Y-81401600D02*
X121898000Y-85481600D01*
X111760000Y-69850000D02*
X111760000Y-71005100D01*
G04 #@! TO.N,~MEMRD*
X111760000Y-67310000D02*
X112915100Y-67310000D01*
X148463000Y-93687900D02*
X148463000Y-92582800D01*
X148463000Y-92582800D02*
X148601100Y-92582800D01*
X148601100Y-92582800D02*
X149619200Y-91564700D01*
X149619200Y-91564700D02*
X149619200Y-87732200D01*
X149619200Y-87732200D02*
X135775200Y-73888200D01*
X135775200Y-73888200D02*
X135775200Y-69349300D01*
X135775200Y-69349300D02*
X135075800Y-68649900D01*
X135075800Y-68649900D02*
X134307000Y-68649900D01*
X134307000Y-68649900D02*
X133350000Y-67692900D01*
X133350000Y-67692900D02*
X133350000Y-66923800D01*
X133350000Y-66923800D02*
X132143700Y-65717500D01*
X132143700Y-65717500D02*
X114238300Y-65717500D01*
X114238300Y-65717500D02*
X112915100Y-67040700D01*
X112915100Y-67040700D02*
X112915100Y-67310000D01*
G04 #@! TO.N,~IOWR*
X114300000Y-69850000D02*
X114300000Y-71005100D01*
X122003600Y-83207000D02*
X119117200Y-80320600D01*
X119117200Y-80320600D02*
X119117200Y-75822300D01*
X119117200Y-75822300D02*
X114300000Y-71005100D01*
G04 #@! TO.N,~MEMWR*
X123311200Y-98441900D02*
X123311200Y-82707900D01*
X123311200Y-82707900D02*
X120535800Y-79932500D01*
X120535800Y-79932500D02*
X120535800Y-69349500D01*
X120535800Y-69349500D02*
X119836200Y-68649900D01*
X119836200Y-68649900D02*
X119053500Y-68649900D01*
X119053500Y-68649900D02*
X118110000Y-67706400D01*
X118110000Y-67706400D02*
X118110000Y-66931300D01*
X118110000Y-66931300D02*
X117306900Y-66128200D01*
X117306900Y-66128200D02*
X116348100Y-66128200D01*
X116348100Y-66128200D02*
X115455100Y-67021200D01*
X115455100Y-67021200D02*
X115455100Y-67310000D01*
X114300000Y-67310000D02*
X115455100Y-67310000D01*
G04 #@! TO.N,RES*
X96316800Y-110947000D02*
X96316800Y-112052100D01*
X96316800Y-118567000D02*
X96316800Y-117461900D01*
X96316800Y-117461900D02*
X96454900Y-117461900D01*
X96454900Y-117461900D02*
X97421900Y-116494900D01*
X97421900Y-116494900D02*
X97421900Y-113018900D01*
X97421900Y-113018900D02*
X96455100Y-112052100D01*
X96455100Y-112052100D02*
X96316800Y-112052100D01*
X116840000Y-69850000D02*
X115684900Y-69850000D01*
X96316800Y-110947000D02*
X96316800Y-109841900D01*
X96316800Y-109841900D02*
X97651600Y-108507100D01*
X97651600Y-108507100D02*
X97651600Y-84451100D01*
X97651600Y-84451100D02*
X94740600Y-81540100D01*
X94740600Y-81540100D02*
X94740600Y-77706500D01*
X94740600Y-77706500D02*
X100330000Y-72117100D01*
X100330000Y-72117100D02*
X100330000Y-66900100D01*
X100330000Y-66900100D02*
X101122900Y-66107200D01*
X101122900Y-66107200D02*
X109717100Y-66107200D01*
X109717100Y-66107200D02*
X110604800Y-66994900D01*
X110604800Y-66994900D02*
X110604800Y-67886600D01*
X110604800Y-67886600D02*
X111183400Y-68465200D01*
X111183400Y-68465200D02*
X114569300Y-68465200D01*
X114569300Y-68465200D02*
X115684900Y-69580800D01*
X115684900Y-69580800D02*
X115684900Y-69850000D01*
G04 #@! TO.N,A0*
X129642000Y-103542900D02*
X129503900Y-103542900D01*
X129503900Y-103542900D02*
X123781600Y-97820600D01*
X123781600Y-97820600D02*
X123781600Y-82603100D01*
X123781600Y-82603100D02*
X121920000Y-80741500D01*
X121920000Y-80741500D02*
X121920000Y-71005100D01*
X121920000Y-69850000D02*
X121920000Y-71005100D01*
X129642000Y-104648000D02*
X129642000Y-103542900D01*
G04 #@! TO.N,A1*
X129642000Y-101002900D02*
X129503900Y-101002900D01*
X129503900Y-101002900D02*
X124188300Y-95687300D01*
X124188300Y-95687300D02*
X124188300Y-82434600D01*
X124188300Y-82434600D02*
X123190000Y-81436300D01*
X123190000Y-81436300D02*
X123190000Y-69465900D01*
X123190000Y-69465900D02*
X122189200Y-68465100D01*
X122189200Y-68465100D02*
X121920000Y-68465100D01*
X121920000Y-67310000D02*
X121920000Y-68465100D01*
X129642000Y-102108000D02*
X129642000Y-101002900D01*
G04 #@! TO.N,A2*
X129642000Y-98462900D02*
X129503900Y-98462900D01*
X129503900Y-98462900D02*
X124938000Y-93897000D01*
X124938000Y-93897000D02*
X124938000Y-71483100D01*
X124938000Y-71483100D02*
X124460000Y-71005100D01*
X124460000Y-69850000D02*
X124460000Y-71005100D01*
X129642000Y-99568000D02*
X129642000Y-98462900D01*
G04 #@! TO.N,A3*
X129642000Y-95922900D02*
X129503900Y-95922900D01*
X129503900Y-95922900D02*
X125660000Y-92079000D01*
X125660000Y-92079000D02*
X125660000Y-69395900D01*
X125660000Y-69395900D02*
X124729200Y-68465100D01*
X124729200Y-68465100D02*
X124460000Y-68465100D01*
X124460000Y-67310000D02*
X124460000Y-68465100D01*
X129642000Y-97028000D02*
X129642000Y-95922900D01*
G04 #@! TO.N,A4*
X127000000Y-71005100D02*
X126473400Y-71531700D01*
X126473400Y-71531700D02*
X126473400Y-90352400D01*
X126473400Y-90352400D02*
X129503900Y-93382900D01*
X129503900Y-93382900D02*
X129642000Y-93382900D01*
X127000000Y-69850000D02*
X127000000Y-71005100D01*
X129642000Y-94488000D02*
X129642000Y-93382900D01*
G04 #@! TO.N,A5*
X127000000Y-67310000D02*
X127000000Y-68465100D01*
X129642000Y-91948000D02*
X129642000Y-90842900D01*
X129642000Y-90842900D02*
X129503900Y-90842900D01*
X129503900Y-90842900D02*
X126880100Y-88219100D01*
X126880100Y-88219100D02*
X126880100Y-73249200D01*
X126880100Y-73249200D02*
X128190600Y-71938700D01*
X128190600Y-71938700D02*
X128190600Y-69386500D01*
X128190600Y-69386500D02*
X127269200Y-68465100D01*
X127269200Y-68465100D02*
X127000000Y-68465100D01*
G04 #@! TO.N,A6*
X129540000Y-71005100D02*
X129540000Y-75456000D01*
X129540000Y-75456000D02*
X127286800Y-77709200D01*
X127286800Y-77709200D02*
X127286800Y-86085800D01*
X127286800Y-86085800D02*
X129503900Y-88302900D01*
X129503900Y-88302900D02*
X129642000Y-88302900D01*
X129540000Y-69850000D02*
X129540000Y-71005100D01*
X129642000Y-89408000D02*
X129642000Y-88302900D01*
G04 #@! TO.N,A7*
X129540000Y-68465100D02*
X129828800Y-68465100D01*
X129828800Y-68465100D02*
X130698100Y-69334400D01*
X130698100Y-69334400D02*
X130698100Y-74873100D01*
X130698100Y-74873100D02*
X127693500Y-77877700D01*
X127693500Y-77877700D02*
X127693500Y-84043400D01*
X127693500Y-84043400D02*
X129413000Y-85762900D01*
X129413000Y-85762900D02*
X129642000Y-85762900D01*
X129642000Y-86868000D02*
X129642000Y-85762900D01*
X129540000Y-67310000D02*
X129540000Y-68465100D01*
G04 #@! TO.N,A8*
X132080000Y-71005100D02*
X132080000Y-74066400D01*
X132080000Y-74066400D02*
X128100200Y-78046200D01*
X128100200Y-78046200D02*
X128100200Y-81910100D01*
X128100200Y-81910100D02*
X129413000Y-83222900D01*
X129413000Y-83222900D02*
X129642000Y-83222900D01*
X129642000Y-84328000D02*
X129642000Y-83222900D01*
X132080000Y-69850000D02*
X132080000Y-71005100D01*
G04 #@! TO.N,A9*
X132080000Y-67310000D02*
X132080000Y-68465100D01*
X129642000Y-81788000D02*
X129642000Y-80682900D01*
X129642000Y-80682900D02*
X129483900Y-80682900D01*
X129483900Y-80682900D02*
X128506900Y-79705900D01*
X128506900Y-79705900D02*
X128506900Y-78418200D01*
X128506900Y-78418200D02*
X133261400Y-73663700D01*
X133261400Y-73663700D02*
X133261400Y-69377300D01*
X133261400Y-69377300D02*
X132349200Y-68465100D01*
X132349200Y-68465100D02*
X132080000Y-68465100D01*
G04 #@! TO.N,A10*
X129642000Y-79248000D02*
X129642000Y-78142900D01*
X134620000Y-69850000D02*
X134620000Y-73164900D01*
X134620000Y-73164900D02*
X129642000Y-78142900D01*
D25*
G04 #@! TO.N,Net-(J2-Pad1)*
X86360000Y-118364000D02*
X86360000Y-115455400D01*
X86360000Y-115455400D02*
X89103200Y-112712200D01*
X89103200Y-112712200D02*
X89103200Y-109664000D01*
D26*
G04 #@! TO.N,Net-(R3-Pad1)*
X91440000Y-93980000D02*
X91440000Y-88900000D01*
X96126300Y-101180900D02*
X96126300Y-100075800D01*
X96126300Y-93560900D02*
X96126300Y-94666000D01*
X96126300Y-94666000D02*
X96254300Y-94666000D01*
X96254300Y-94666000D02*
X97231400Y-95643100D01*
X97231400Y-95643100D02*
X97231400Y-99199700D01*
X97231400Y-99199700D02*
X96355300Y-100075800D01*
X96355300Y-100075800D02*
X96126300Y-100075800D01*
G04 #@! TO.N,/~IOREQ*
X143192000Y-117932100D02*
X143053900Y-117932100D01*
X143053900Y-117932100D02*
X142050100Y-118935900D01*
X142050100Y-118935900D02*
X142050100Y-119889000D01*
X142050100Y-119889000D02*
X142963000Y-120801900D01*
X142963000Y-120801900D02*
X143192000Y-120801900D01*
X143192000Y-116827000D02*
X143192000Y-117932100D01*
X143192000Y-121907000D02*
X143192000Y-120801900D01*
X135484000Y-92240300D02*
X135484000Y-91135200D01*
X135345700Y-92240300D02*
X135484000Y-92240300D01*
X134378900Y-93207100D02*
X135345700Y-92240300D01*
X134378900Y-109840500D02*
X134378900Y-93207100D01*
X131153900Y-113065500D02*
X134378900Y-109840500D01*
X131153900Y-122513000D02*
X131153900Y-113065500D01*
X130112800Y-123554100D02*
X131153900Y-122513000D01*
X128503700Y-124516200D02*
X129465800Y-123554100D01*
X129465800Y-123554100D02*
X130112800Y-123554100D01*
X128016000Y-124968000D02*
X128503700Y-124516200D01*
X128016000Y-126365000D02*
X128016000Y-124968000D01*
G04 #@! TO.N,/~RD*
X135572000Y-111747000D02*
X135572000Y-112852100D01*
X129642000Y-127508000D02*
X129642000Y-126402900D01*
X129642000Y-126402900D02*
X129780100Y-126402900D01*
X129780100Y-126402900D02*
X133374100Y-122808900D01*
X133374100Y-122808900D02*
X133374100Y-114911900D01*
X133374100Y-114911900D02*
X135433900Y-112852100D01*
X135433900Y-112852100D02*
X135572000Y-112852100D01*
G04 #@! TO.N,Net-(U1-Pad27)*
X135484000Y-88595200D02*
X135484000Y-89700300D01*
X129642000Y-112268000D02*
X129642000Y-111162900D01*
X129642000Y-111162900D02*
X129780100Y-111162900D01*
X129780100Y-111162900D02*
X133652700Y-107290300D01*
X133652700Y-107290300D02*
X133652700Y-91393500D01*
X133652700Y-91393500D02*
X135345900Y-89700300D01*
X135345900Y-89700300D02*
X135484000Y-89700300D01*
G04 #@! TO.N,HOLD*
X103746300Y-101180900D02*
X103746300Y-100075800D01*
X106007000Y-79959200D02*
X106007000Y-98044100D01*
X106007000Y-98044100D02*
X103975300Y-100075800D01*
X103975300Y-100075800D02*
X103746300Y-100075800D01*
G04 #@! TO.N,RDYIN*
X129642000Y-119888000D02*
X129642000Y-118782900D01*
X135052000Y-79057500D02*
X135052000Y-80162600D01*
X135052000Y-80162600D02*
X131991500Y-83223100D01*
X131991500Y-83223100D02*
X131991500Y-103862700D01*
X131991500Y-103862700D02*
X129936200Y-105918000D01*
X129936200Y-105918000D02*
X129348900Y-105918000D01*
X129348900Y-105918000D02*
X128492600Y-106774300D01*
X128492600Y-106774300D02*
X128492600Y-117862500D01*
X128492600Y-117862500D02*
X129413000Y-118782900D01*
X129413000Y-118782900D02*
X129642000Y-118782900D01*
G04 #@! TO.N,~RESIN*
X72859900Y-110074800D02*
X71132700Y-111802000D01*
X72859900Y-101308000D02*
X72859900Y-110074800D01*
X72859900Y-110074800D02*
X75905500Y-110074800D01*
X75905500Y-110074800D02*
X77632700Y-111802000D01*
X91440000Y-103505000D02*
X91440000Y-104710100D01*
X90747500Y-108442200D02*
X90747500Y-109581600D01*
X90747500Y-109581600D02*
X96087800Y-114921900D01*
X96087800Y-114921900D02*
X96316800Y-114921900D01*
X91440000Y-104710100D02*
X90747500Y-105402600D01*
X90747500Y-105402600D02*
X90747500Y-108442200D01*
X77632700Y-111802000D02*
X80992500Y-108442200D01*
X80992500Y-108442200D02*
X90747500Y-108442200D01*
X96316800Y-116027000D02*
X96316800Y-114921900D01*
X96520000Y-67310000D02*
X96520000Y-68465100D01*
X91440000Y-99060000D02*
X91440000Y-97954900D01*
X91440000Y-97954900D02*
X92545100Y-96849800D01*
X92545100Y-96849800D02*
X92545100Y-74797400D01*
X92545100Y-74797400D02*
X95250000Y-72092500D01*
X95250000Y-72092500D02*
X95250000Y-69465800D01*
X95250000Y-69465800D02*
X96250700Y-68465100D01*
X96250700Y-68465100D02*
X96520000Y-68465100D01*
X91440000Y-103505000D02*
X91440000Y-99060000D01*
G04 #@! TO.N,HLDA*
X116840000Y-67310000D02*
X116840000Y-68465100D01*
X116840000Y-68465100D02*
X117128900Y-68465100D01*
X117128900Y-68465100D02*
X117995100Y-69331300D01*
X117995100Y-69331300D02*
X117995100Y-71616200D01*
X117995100Y-71616200D02*
X119970300Y-73591400D01*
X119970300Y-73591400D02*
X119970300Y-79942300D01*
X119970300Y-79942300D02*
X122753800Y-82725800D01*
X122753800Y-82725800D02*
X122753800Y-95191000D01*
X122753800Y-95191000D02*
X122022000Y-95922800D01*
X156083000Y-91147900D02*
X156083000Y-92253000D01*
X156083000Y-98767900D02*
X156083000Y-97662800D01*
X156083000Y-97662800D02*
X155944900Y-97662800D01*
X155944900Y-97662800D02*
X154975700Y-96693600D01*
X154975700Y-96693600D02*
X154975700Y-93131300D01*
X154975700Y-93131300D02*
X155854000Y-92253000D01*
X155854000Y-92253000D02*
X156083000Y-92253000D01*
G04 #@! TO.N,Net-(U4-Pad3)*
X135572000Y-116827000D02*
X135572000Y-115721900D01*
X148463000Y-91147900D02*
X147357900Y-91147900D01*
X135572000Y-115721900D02*
X135710300Y-115721900D01*
X135710300Y-115721900D02*
X136677100Y-114755100D01*
X136677100Y-114755100D02*
X136677100Y-101076000D01*
X136677100Y-101076000D02*
X142807900Y-94945200D01*
X142807900Y-94945200D02*
X143560600Y-94945200D01*
X143560600Y-94945200D02*
X147357900Y-91147900D01*
G04 #@! TO.N,Net-(U4-Pad6)*
X135572000Y-123341900D02*
X135710300Y-123341900D01*
X135710300Y-123341900D02*
X137083800Y-121968400D01*
X137083800Y-121968400D02*
X137083800Y-103175700D01*
X137083800Y-103175700D02*
X142622700Y-97636800D01*
X142622700Y-97636800D02*
X146226800Y-97636800D01*
X146226800Y-97636800D02*
X147357900Y-98767900D01*
X148463000Y-98767900D02*
X147357900Y-98767900D01*
X135572000Y-124447000D02*
X135572000Y-123341900D01*
G04 #@! TD*
D27*
G04 #@! TO.N,GND*
G36*
X163068000Y-131318000D02*
X65532000Y-131318000D01*
X65532000Y-127130431D01*
X67565000Y-127130431D01*
X67565000Y-128019569D01*
X67905259Y-128841026D01*
X68533974Y-129469741D01*
X69355431Y-129810000D01*
X70244569Y-129810000D01*
X71066026Y-129469741D01*
X71694741Y-128841026D01*
X72035000Y-128019569D01*
X72035000Y-127130431D01*
X71825203Y-126623936D01*
X84375670Y-126623936D01*
X84645221Y-127036257D01*
X85761642Y-127496369D01*
X86969157Y-127494221D01*
X88074779Y-127036257D01*
X88344330Y-126623936D01*
X88256434Y-126536039D01*
X94924896Y-126536039D01*
X95085759Y-126924423D01*
X95461666Y-127339389D01*
X95967759Y-127578914D01*
X96189800Y-127457629D01*
X96189800Y-126314000D01*
X96443800Y-126314000D01*
X96443800Y-127457629D01*
X96665841Y-127578914D01*
X97171934Y-127339389D01*
X97547841Y-126924423D01*
X97708704Y-126536039D01*
X97586715Y-126314000D01*
X96443800Y-126314000D01*
X96189800Y-126314000D01*
X95046885Y-126314000D01*
X94924896Y-126536039D01*
X88256434Y-126536039D01*
X86360000Y-124639605D01*
X84375670Y-126623936D01*
X71825203Y-126623936D01*
X71694741Y-126308974D01*
X71066026Y-125680259D01*
X70244569Y-125340000D01*
X69355431Y-125340000D01*
X68533974Y-125680259D01*
X67905259Y-126308974D01*
X67565000Y-127130431D01*
X65532000Y-127130431D01*
X65532000Y-123861642D01*
X83323631Y-123861642D01*
X83325779Y-125069157D01*
X83783743Y-126174779D01*
X84196064Y-126444330D01*
X86180395Y-124460000D01*
X84196064Y-122475670D01*
X83783743Y-122745221D01*
X83323631Y-123861642D01*
X65532000Y-123861642D01*
X65532000Y-111476778D01*
X69497700Y-111476778D01*
X69497700Y-112127222D01*
X69746614Y-112728153D01*
X70206547Y-113188086D01*
X70807478Y-113437000D01*
X71457922Y-113437000D01*
X72058853Y-113188086D01*
X72518786Y-112728153D01*
X72767700Y-112127222D01*
X72767700Y-111476778D01*
X72689185Y-111287225D01*
X73165010Y-110811400D01*
X75600391Y-110811400D01*
X76076216Y-111287225D01*
X75997700Y-111476778D01*
X75997700Y-112127222D01*
X76246614Y-112728153D01*
X76706547Y-113188086D01*
X77307478Y-113437000D01*
X77957922Y-113437000D01*
X78558853Y-113188086D01*
X79018786Y-112728153D01*
X79267700Y-112127222D01*
X79267700Y-111476778D01*
X79189184Y-111287225D01*
X81297610Y-109178800D01*
X82525760Y-109178800D01*
X82525760Y-110514000D01*
X82575043Y-110761765D01*
X82715391Y-110971809D01*
X82925435Y-111112157D01*
X83173200Y-111161440D01*
X83736682Y-111161440D01*
X78262023Y-116636100D01*
X77588654Y-116636100D01*
X77496100Y-116617690D01*
X77403546Y-116636100D01*
X77403541Y-116636100D01*
X77129409Y-116690628D01*
X77077519Y-116725300D01*
X76897010Y-116845912D01*
X76897008Y-116845914D01*
X76818543Y-116898343D01*
X76766114Y-116976808D01*
X73778363Y-119964560D01*
X72860000Y-119964560D01*
X72612235Y-120013843D01*
X72402191Y-120154191D01*
X72261843Y-120364235D01*
X72212560Y-120612000D01*
X72212560Y-122212000D01*
X72261843Y-122459765D01*
X72402191Y-122669809D01*
X72612235Y-122810157D01*
X72860000Y-122859440D01*
X74460000Y-122859440D01*
X74707765Y-122810157D01*
X74917809Y-122669809D01*
X75058157Y-122459765D01*
X75066117Y-122419745D01*
X75331861Y-122419745D01*
X75405995Y-122665864D01*
X75943223Y-122858965D01*
X76513454Y-122831778D01*
X76914005Y-122665864D01*
X76988139Y-122419745D01*
X76160000Y-121591605D01*
X75331861Y-122419745D01*
X75066117Y-122419745D01*
X75104693Y-122225813D01*
X75152255Y-122240139D01*
X75980395Y-121412000D01*
X76339605Y-121412000D01*
X77167745Y-122240139D01*
X77413864Y-122166005D01*
X77606965Y-121628777D01*
X77579778Y-121058546D01*
X77413864Y-120657995D01*
X77167745Y-120583861D01*
X76339605Y-121412000D01*
X75980395Y-121412000D01*
X75966253Y-121397858D01*
X76145858Y-121218253D01*
X76160000Y-121232395D01*
X76988139Y-120404255D01*
X76914005Y-120158136D01*
X76420373Y-119980705D01*
X77885378Y-118515700D01*
X78558746Y-118515700D01*
X78651300Y-118534110D01*
X78743854Y-118515700D01*
X78743859Y-118515700D01*
X79017991Y-118461172D01*
X79328857Y-118253457D01*
X79381288Y-118174989D01*
X86408882Y-111147396D01*
X86416944Y-111149000D01*
X86709456Y-111149000D01*
X87142618Y-111062839D01*
X87633825Y-110734625D01*
X87833200Y-110436239D01*
X88032575Y-110734625D01*
X88163401Y-110822040D01*
X88163400Y-112322922D01*
X85760909Y-114725414D01*
X85682444Y-114777843D01*
X85630015Y-114856308D01*
X85630012Y-114856311D01*
X85474729Y-115088708D01*
X85429466Y-115316260D01*
X83959700Y-115316260D01*
X83711935Y-115365543D01*
X83501891Y-115505891D01*
X83361543Y-115715935D01*
X83312260Y-115963700D01*
X83312260Y-120764300D01*
X83361543Y-121012065D01*
X83501891Y-121222109D01*
X83711935Y-121362457D01*
X83959700Y-121411740D01*
X88470353Y-121411740D01*
X88404700Y-121570241D01*
X88404700Y-122235692D01*
X88344329Y-122296063D01*
X88074779Y-121883743D01*
X86958358Y-121423631D01*
X85750843Y-121425779D01*
X84645221Y-121883743D01*
X84375670Y-122296064D01*
X86360000Y-124280395D01*
X86374142Y-124266252D01*
X86553748Y-124445858D01*
X86539605Y-124460000D01*
X88523936Y-126444330D01*
X88917563Y-126187000D01*
X102473687Y-126187000D01*
X102585060Y-126746909D01*
X102902223Y-127221577D01*
X103376891Y-127538740D01*
X103795467Y-127622000D01*
X104078133Y-127622000D01*
X104496709Y-127538740D01*
X104971377Y-127221577D01*
X105288540Y-126746909D01*
X105399913Y-126187000D01*
X105288540Y-125627091D01*
X104971377Y-125152423D01*
X104587692Y-124896053D01*
X104791934Y-124799389D01*
X105167841Y-124384423D01*
X105328704Y-123996039D01*
X105206715Y-123774000D01*
X104063800Y-123774000D01*
X104063800Y-123794000D01*
X103809800Y-123794000D01*
X103809800Y-123774000D01*
X102666885Y-123774000D01*
X102544896Y-123996039D01*
X102705759Y-124384423D01*
X103081666Y-124799389D01*
X103285908Y-124896053D01*
X102902223Y-125152423D01*
X102585060Y-125627091D01*
X102473687Y-126187000D01*
X88917563Y-126187000D01*
X88936257Y-126174779D01*
X89396369Y-125058358D01*
X89395237Y-124421799D01*
X89720641Y-124747203D01*
X90836241Y-125209300D01*
X92043759Y-125209300D01*
X93159359Y-124747203D01*
X94013203Y-123893359D01*
X94115248Y-123647000D01*
X94853687Y-123647000D01*
X94965060Y-124206909D01*
X95282223Y-124681577D01*
X95665908Y-124937947D01*
X95461666Y-125034611D01*
X95085759Y-125449577D01*
X94924896Y-125837961D01*
X95046885Y-126060000D01*
X96189800Y-126060000D01*
X96189800Y-126040000D01*
X96443800Y-126040000D01*
X96443800Y-126060000D01*
X97586715Y-126060000D01*
X97708704Y-125837961D01*
X97547841Y-125449577D01*
X97171934Y-125034611D01*
X96967692Y-124937947D01*
X97351377Y-124681577D01*
X97668540Y-124206909D01*
X97779913Y-123647000D01*
X97668540Y-123087091D01*
X97351377Y-122612423D01*
X96967692Y-122356053D01*
X97171934Y-122259389D01*
X97547841Y-121844423D01*
X97708704Y-121456039D01*
X97586715Y-121234000D01*
X96443800Y-121234000D01*
X96443800Y-121254000D01*
X96189800Y-121254000D01*
X96189800Y-121234000D01*
X95046885Y-121234000D01*
X94924896Y-121456039D01*
X95085759Y-121844423D01*
X95461666Y-122259389D01*
X95665908Y-122356053D01*
X95282223Y-122612423D01*
X94965060Y-123087091D01*
X94853687Y-123647000D01*
X94115248Y-123647000D01*
X94475300Y-122777759D01*
X94475300Y-121570241D01*
X94283420Y-121107000D01*
X102473687Y-121107000D01*
X102585060Y-121666909D01*
X102902223Y-122141577D01*
X103285908Y-122397947D01*
X103081666Y-122494611D01*
X102705759Y-122909577D01*
X102544896Y-123297961D01*
X102666885Y-123520000D01*
X103809800Y-123520000D01*
X103809800Y-123500000D01*
X104063800Y-123500000D01*
X104063800Y-123520000D01*
X105206715Y-123520000D01*
X105328704Y-123297961D01*
X105167841Y-122909577D01*
X104791934Y-122494611D01*
X104587692Y-122397947D01*
X104971377Y-122141577D01*
X105288540Y-121666909D01*
X105399913Y-121107000D01*
X105288540Y-120547091D01*
X104971377Y-120072423D01*
X104587692Y-119816053D01*
X104791934Y-119719389D01*
X105167841Y-119304423D01*
X105328704Y-118916039D01*
X105206715Y-118694000D01*
X104063800Y-118694000D01*
X104063800Y-118714000D01*
X103809800Y-118714000D01*
X103809800Y-118694000D01*
X102666885Y-118694000D01*
X102544896Y-118916039D01*
X102705759Y-119304423D01*
X103081666Y-119719389D01*
X103285908Y-119816053D01*
X102902223Y-120072423D01*
X102585060Y-120547091D01*
X102473687Y-121107000D01*
X94283420Y-121107000D01*
X94013203Y-120454641D01*
X93159359Y-119600797D01*
X92043759Y-119138700D01*
X90836241Y-119138700D01*
X89720641Y-119600797D01*
X89407740Y-119913698D01*
X89407740Y-115963700D01*
X89358457Y-115715935D01*
X89218109Y-115505891D01*
X89008065Y-115365543D01*
X88760300Y-115316260D01*
X87828217Y-115316260D01*
X89702293Y-113442185D01*
X89780757Y-113389757D01*
X89833186Y-113311292D01*
X89833188Y-113311290D01*
X89947969Y-113139507D01*
X89988472Y-113078891D01*
X90043000Y-112804759D01*
X90043000Y-112804754D01*
X90061410Y-112712200D01*
X90043000Y-112619646D01*
X90043000Y-110822039D01*
X90173825Y-110734625D01*
X90448194Y-110324003D01*
X95215889Y-115091699D01*
X94965060Y-115467091D01*
X94853687Y-116027000D01*
X94965060Y-116586909D01*
X95282223Y-117061577D01*
X95602793Y-117275775D01*
X95593054Y-117324732D01*
X95282223Y-117532423D01*
X94965060Y-118007091D01*
X94853687Y-118567000D01*
X94965060Y-119126909D01*
X95282223Y-119601577D01*
X95665908Y-119857947D01*
X95461666Y-119954611D01*
X95085759Y-120369577D01*
X94924896Y-120757961D01*
X95046885Y-120980000D01*
X96189800Y-120980000D01*
X96189800Y-120960000D01*
X96443800Y-120960000D01*
X96443800Y-120980000D01*
X97586715Y-120980000D01*
X97708704Y-120757961D01*
X97547841Y-120369577D01*
X97171934Y-119954611D01*
X96967692Y-119857947D01*
X97351377Y-119601577D01*
X97668540Y-119126909D01*
X97779913Y-118567000D01*
X97668540Y-118007091D01*
X97381301Y-117577208D01*
X97891461Y-117067049D01*
X97952958Y-117025958D01*
X97994049Y-116964461D01*
X97994051Y-116964459D01*
X98115761Y-116782307D01*
X98129971Y-116710870D01*
X98158500Y-116567444D01*
X98158500Y-116567441D01*
X98172929Y-116494900D01*
X98158500Y-116422360D01*
X98158500Y-113091440D01*
X98172929Y-113018900D01*
X98158500Y-112946359D01*
X98158500Y-112946356D01*
X98115761Y-112731493D01*
X98063008Y-112652543D01*
X97994051Y-112549341D01*
X97994049Y-112549339D01*
X97952958Y-112487842D01*
X97891460Y-112446750D01*
X97604614Y-112159904D01*
X97714957Y-111994765D01*
X97764240Y-111747000D01*
X97764240Y-110147000D01*
X97714957Y-109899235D01*
X97574609Y-109689191D01*
X97536609Y-109663800D01*
X98121161Y-109079249D01*
X98182658Y-109038158D01*
X98223749Y-108976661D01*
X98223751Y-108976659D01*
X98345461Y-108794507D01*
X98358370Y-108729607D01*
X98388200Y-108579644D01*
X98388200Y-108579641D01*
X98388776Y-108576745D01*
X100811861Y-108576745D01*
X100885995Y-108822864D01*
X101423223Y-109015965D01*
X101993454Y-108988778D01*
X102394005Y-108822864D01*
X102468139Y-108576745D01*
X101640000Y-107748605D01*
X100811861Y-108576745D01*
X98388776Y-108576745D01*
X98402629Y-108507101D01*
X98388200Y-108434560D01*
X98388200Y-107352223D01*
X100193035Y-107352223D01*
X100220222Y-107922454D01*
X100386136Y-108323005D01*
X100632255Y-108397139D01*
X101460395Y-107569000D01*
X100632255Y-106740861D01*
X100386136Y-106814995D01*
X100193035Y-107352223D01*
X98388200Y-107352223D01*
X98388200Y-106561255D01*
X100811861Y-106561255D01*
X101640000Y-107389395D01*
X102468139Y-106561255D01*
X102394005Y-106315136D01*
X101856777Y-106122035D01*
X101286546Y-106149222D01*
X100885995Y-106315136D01*
X100811861Y-106561255D01*
X98388200Y-106561255D01*
X98388200Y-86351745D01*
X100811861Y-86351745D01*
X100885995Y-86597864D01*
X101423223Y-86790965D01*
X101993454Y-86763778D01*
X102394005Y-86597864D01*
X102468139Y-86351745D01*
X101640000Y-85523605D01*
X100811861Y-86351745D01*
X98388200Y-86351745D01*
X98388200Y-85127223D01*
X100193035Y-85127223D01*
X100220222Y-85697454D01*
X100386136Y-86098005D01*
X100632255Y-86172139D01*
X101460395Y-85344000D01*
X100632255Y-84515861D01*
X100386136Y-84589995D01*
X100193035Y-85127223D01*
X98388200Y-85127223D01*
X98388200Y-84523640D01*
X98402629Y-84451100D01*
X98388200Y-84378559D01*
X98388200Y-84378556D01*
X98379786Y-84336255D01*
X100811861Y-84336255D01*
X101640000Y-85164395D01*
X102468139Y-84336255D01*
X102394005Y-84090136D01*
X101856777Y-83897035D01*
X101286546Y-83924222D01*
X100885995Y-84090136D01*
X100811861Y-84336255D01*
X98379786Y-84336255D01*
X98345461Y-84163693D01*
X98270310Y-84051222D01*
X98223751Y-83981541D01*
X98223749Y-83981539D01*
X98182658Y-83920042D01*
X98121160Y-83878951D01*
X95559634Y-81317425D01*
X95720000Y-81229829D01*
X95720000Y-80086200D01*
X95974000Y-80086200D01*
X95974000Y-81229829D01*
X96196041Y-81351114D01*
X96702134Y-81111589D01*
X97078041Y-80696623D01*
X97238904Y-80308239D01*
X97116915Y-80086200D01*
X95974000Y-80086200D01*
X95720000Y-80086200D01*
X95700000Y-80086200D01*
X95700000Y-79832200D01*
X95720000Y-79832200D01*
X95720000Y-78688571D01*
X95974000Y-78688571D01*
X95974000Y-79832200D01*
X97116915Y-79832200D01*
X97238904Y-79610161D01*
X97078041Y-79221777D01*
X96702134Y-78806811D01*
X96196041Y-78567286D01*
X95974000Y-78688571D01*
X95720000Y-78688571D01*
X95497959Y-78567286D01*
X95477200Y-78577111D01*
X95477200Y-78011609D01*
X100799561Y-72689249D01*
X100861058Y-72648158D01*
X100863400Y-72644653D01*
X100863400Y-72767060D01*
X100848971Y-72839600D01*
X100863400Y-72912140D01*
X100863400Y-72912143D01*
X100906139Y-73127006D01*
X101068942Y-73370658D01*
X101130442Y-73411751D01*
X106242890Y-78524200D01*
X105721561Y-78524200D01*
X105194138Y-78742666D01*
X104790466Y-79146338D01*
X104572000Y-79673761D01*
X104572000Y-80244639D01*
X104790466Y-80772062D01*
X105194138Y-81175734D01*
X105270400Y-81207323D01*
X105270400Y-84445004D01*
X104952862Y-84127466D01*
X104425439Y-83909000D01*
X103854561Y-83909000D01*
X103327138Y-84127466D01*
X102923466Y-84531138D01*
X102896475Y-84596299D01*
X102893864Y-84589995D01*
X102647745Y-84515861D01*
X101819605Y-85344000D01*
X102647745Y-86172139D01*
X102893864Y-86098005D01*
X102896290Y-86091254D01*
X102923466Y-86156862D01*
X103178214Y-86411610D01*
X103147209Y-86442614D01*
X103068744Y-86495043D01*
X103016315Y-86573508D01*
X103016312Y-86573511D01*
X102861029Y-86805908D01*
X102788090Y-87172600D01*
X102806501Y-87265158D01*
X102806501Y-87382995D01*
X102711723Y-87446323D01*
X102394560Y-87920991D01*
X102283187Y-88480900D01*
X102394560Y-89040809D01*
X102711723Y-89515477D01*
X103095408Y-89771847D01*
X102891166Y-89868511D01*
X102515259Y-90283477D01*
X102354396Y-90671861D01*
X102476385Y-90893900D01*
X103619300Y-90893900D01*
X103619300Y-90873900D01*
X103873300Y-90873900D01*
X103873300Y-90893900D01*
X105016215Y-90893900D01*
X105138204Y-90671861D01*
X104977341Y-90283477D01*
X104601434Y-89868511D01*
X104397192Y-89771847D01*
X104780877Y-89515477D01*
X105098040Y-89040809D01*
X105209413Y-88480900D01*
X105098040Y-87920991D01*
X104796880Y-87470273D01*
X104817557Y-87456457D01*
X104869988Y-87377989D01*
X105025271Y-87145593D01*
X105025271Y-87145592D01*
X105025272Y-87145591D01*
X105079800Y-86871459D01*
X105079800Y-86871454D01*
X105098210Y-86778900D01*
X105079800Y-86686346D01*
X105079800Y-86433596D01*
X105270400Y-86242996D01*
X105270401Y-97738989D01*
X105030091Y-97979299D01*
X104780877Y-97606323D01*
X104428542Y-97370900D01*
X104780877Y-97135477D01*
X105098040Y-96660809D01*
X105209413Y-96100900D01*
X105098040Y-95540991D01*
X104780877Y-95066323D01*
X104428542Y-94830900D01*
X104780877Y-94595477D01*
X105098040Y-94120809D01*
X105209413Y-93560900D01*
X105098040Y-93000991D01*
X104780877Y-92526323D01*
X104397192Y-92269953D01*
X104601434Y-92173289D01*
X104977341Y-91758323D01*
X105138204Y-91369939D01*
X105016215Y-91147900D01*
X103873300Y-91147900D01*
X103873300Y-91167900D01*
X103619300Y-91167900D01*
X103619300Y-91147900D01*
X102476385Y-91147900D01*
X102354396Y-91369939D01*
X102515259Y-91758323D01*
X102891166Y-92173289D01*
X103095408Y-92269953D01*
X102711723Y-92526323D01*
X102394560Y-93000991D01*
X102283187Y-93560900D01*
X102394560Y-94120809D01*
X102711723Y-94595477D01*
X103064058Y-94830900D01*
X102711723Y-95066323D01*
X102394560Y-95540991D01*
X102283187Y-96100900D01*
X102394560Y-96660809D01*
X102711723Y-97135477D01*
X103064058Y-97370900D01*
X102711723Y-97606323D01*
X102394560Y-98080991D01*
X102283187Y-98640900D01*
X102394560Y-99200809D01*
X102711723Y-99675477D01*
X103032293Y-99889675D01*
X103022554Y-99938632D01*
X102711723Y-100146323D01*
X102394560Y-100620991D01*
X102283187Y-101180900D01*
X102394560Y-101740809D01*
X102711723Y-102215477D01*
X103064058Y-102450900D01*
X102711723Y-102686323D01*
X102394560Y-103160991D01*
X102283187Y-103720900D01*
X102394560Y-104280809D01*
X102711723Y-104755477D01*
X103186391Y-105072640D01*
X103604967Y-105155900D01*
X103887633Y-105155900D01*
X104306209Y-105072640D01*
X104780877Y-104755477D01*
X105098040Y-104280809D01*
X105209413Y-103720900D01*
X105098040Y-103160991D01*
X104780877Y-102686323D01*
X104428542Y-102450900D01*
X104780877Y-102215477D01*
X105098040Y-101740809D01*
X105209413Y-101180900D01*
X105098040Y-100620991D01*
X104847211Y-100245598D01*
X105739900Y-99352909D01*
X105739901Y-104640022D01*
X104245923Y-106134000D01*
X103854561Y-106134000D01*
X103327138Y-106352466D01*
X102923466Y-106756138D01*
X102896475Y-106821299D01*
X102893864Y-106814995D01*
X102647745Y-106740861D01*
X101819605Y-107569000D01*
X102647745Y-108397139D01*
X102893864Y-108323005D01*
X102896290Y-108316254D01*
X102923466Y-108381862D01*
X102997000Y-108455396D01*
X102997001Y-109849095D01*
X102902223Y-109912423D01*
X102585060Y-110387091D01*
X102473687Y-110947000D01*
X102585060Y-111506909D01*
X102902223Y-111981577D01*
X103285908Y-112237947D01*
X103081666Y-112334611D01*
X102705759Y-112749577D01*
X102544896Y-113137961D01*
X102666885Y-113360000D01*
X103809800Y-113360000D01*
X103809800Y-113340000D01*
X104063800Y-113340000D01*
X104063800Y-113360000D01*
X104083800Y-113360000D01*
X104083800Y-113614000D01*
X104063800Y-113614000D01*
X104063800Y-113634000D01*
X103809800Y-113634000D01*
X103809800Y-113614000D01*
X102666885Y-113614000D01*
X102544896Y-113836039D01*
X102705759Y-114224423D01*
X103081666Y-114639389D01*
X103285908Y-114736053D01*
X102902223Y-114992423D01*
X102585060Y-115467091D01*
X102473687Y-116027000D01*
X102585060Y-116586909D01*
X102902223Y-117061577D01*
X103285908Y-117317947D01*
X103081666Y-117414611D01*
X102705759Y-117829577D01*
X102544896Y-118217961D01*
X102666885Y-118440000D01*
X103809800Y-118440000D01*
X103809800Y-118420000D01*
X104063800Y-118420000D01*
X104063800Y-118440000D01*
X105206715Y-118440000D01*
X105328704Y-118217961D01*
X105167841Y-117829577D01*
X104791934Y-117414611D01*
X104587692Y-117317947D01*
X104971377Y-117061577D01*
X105288540Y-116586909D01*
X105399913Y-116027000D01*
X105288540Y-115467091D01*
X104971377Y-114992423D01*
X104587692Y-114736053D01*
X104791934Y-114639389D01*
X105167841Y-114224423D01*
X105328704Y-113836039D01*
X105206716Y-113614002D01*
X105371800Y-113614002D01*
X105371800Y-113495177D01*
X112363714Y-120487092D01*
X112416143Y-120565557D01*
X112494608Y-120617986D01*
X112494610Y-120617988D01*
X112645396Y-120718740D01*
X112727009Y-120773272D01*
X113001141Y-120827800D01*
X113001146Y-120827800D01*
X113093700Y-120846210D01*
X113186254Y-120827800D01*
X113304095Y-120827800D01*
X113367423Y-120922577D01*
X113719758Y-121158000D01*
X113367423Y-121393423D01*
X113050260Y-121868091D01*
X112938887Y-122428000D01*
X113050260Y-122987909D01*
X113367423Y-123462577D01*
X113719758Y-123698000D01*
X113367423Y-123933423D01*
X113050260Y-124408091D01*
X112938887Y-124968000D01*
X113050260Y-125527909D01*
X113367423Y-126002577D01*
X113719758Y-126238000D01*
X113367423Y-126473423D01*
X113050260Y-126948091D01*
X112938887Y-127508000D01*
X113050260Y-128067909D01*
X113367423Y-128542577D01*
X113842091Y-128859740D01*
X114260667Y-128943000D01*
X114543333Y-128943000D01*
X114961909Y-128859740D01*
X115436577Y-128542577D01*
X115753740Y-128067909D01*
X115865113Y-127508000D01*
X115753740Y-126948091D01*
X115436577Y-126473423D01*
X115084242Y-126238000D01*
X115436577Y-126002577D01*
X115753740Y-125527909D01*
X115865113Y-124968000D01*
X115753740Y-124408091D01*
X115436577Y-123933423D01*
X115084242Y-123698000D01*
X115436577Y-123462577D01*
X115753740Y-122987909D01*
X115865113Y-122428000D01*
X115753740Y-121868091D01*
X115436577Y-121393423D01*
X115084242Y-121158000D01*
X115436577Y-120922577D01*
X115499905Y-120827800D01*
X119897607Y-120827800D01*
X119918929Y-120934992D01*
X120074212Y-121167389D01*
X120074215Y-121167392D01*
X120126644Y-121245857D01*
X120205109Y-121298286D01*
X128340314Y-129433492D01*
X128392743Y-129511957D01*
X128471208Y-129564386D01*
X128471210Y-129564388D01*
X128634223Y-129673309D01*
X128703609Y-129719672D01*
X128977741Y-129774200D01*
X128977746Y-129774200D01*
X129070300Y-129792610D01*
X129162854Y-129774200D01*
X143106846Y-129774200D01*
X143199400Y-129792610D01*
X143291954Y-129774200D01*
X143291959Y-129774200D01*
X143566091Y-129719672D01*
X143876957Y-129511957D01*
X143929387Y-129433490D01*
X145101493Y-128261385D01*
X145179957Y-128208957D01*
X145293481Y-128039058D01*
X145387671Y-127898093D01*
X145387671Y-127898092D01*
X145387672Y-127898091D01*
X145442200Y-127623959D01*
X145442200Y-127623955D01*
X145460610Y-127531401D01*
X145442200Y-127438847D01*
X145442200Y-127105431D01*
X156615000Y-127105431D01*
X156615000Y-127994569D01*
X156955259Y-128816026D01*
X157583974Y-129444741D01*
X158405431Y-129785000D01*
X159294569Y-129785000D01*
X160116026Y-129444741D01*
X160744741Y-128816026D01*
X161085000Y-127994569D01*
X161085000Y-127105431D01*
X160744741Y-126283974D01*
X160116026Y-125655259D01*
X159294569Y-125315000D01*
X158405431Y-125315000D01*
X157583974Y-125655259D01*
X156955259Y-126283974D01*
X156615000Y-127105431D01*
X145442200Y-127105431D01*
X145442200Y-113149949D01*
X145460609Y-113057399D01*
X145442200Y-112964849D01*
X145442200Y-112964841D01*
X145387672Y-112690709D01*
X145362171Y-112652544D01*
X145232387Y-112458309D01*
X145232386Y-112458308D01*
X145179957Y-112379843D01*
X145101492Y-112327414D01*
X144632875Y-111858797D01*
X144655113Y-111747000D01*
X144543740Y-111187091D01*
X144234899Y-110724878D01*
X144363087Y-110596689D01*
X144441557Y-110544257D01*
X144642179Y-110244007D01*
X144649271Y-110233393D01*
X144649271Y-110233392D01*
X144649272Y-110233391D01*
X144703800Y-109959259D01*
X144703800Y-109959255D01*
X144722210Y-109866701D01*
X144703800Y-109774147D01*
X144703800Y-109547596D01*
X144853596Y-109397800D01*
X145622846Y-109397800D01*
X145715400Y-109416210D01*
X145807954Y-109397800D01*
X145807959Y-109397800D01*
X146082091Y-109343272D01*
X146278545Y-109212005D01*
X146314489Y-109187988D01*
X146392957Y-109135557D01*
X146445388Y-109057089D01*
X152878090Y-102624387D01*
X152956557Y-102571957D01*
X153072573Y-102398327D01*
X153164271Y-102261093D01*
X153164271Y-102261092D01*
X153164272Y-102261091D01*
X153218800Y-101986959D01*
X153218800Y-101986955D01*
X153237210Y-101894401D01*
X153218800Y-101801847D01*
X153218800Y-92801177D01*
X154661728Y-91358249D01*
X154731260Y-91707809D01*
X154982089Y-92083201D01*
X154506140Y-92559151D01*
X154444643Y-92600242D01*
X154403552Y-92661739D01*
X154403549Y-92661742D01*
X154281839Y-92843894D01*
X154224671Y-93131300D01*
X154239101Y-93203845D01*
X154239100Y-96621060D01*
X154224671Y-96693600D01*
X154239100Y-96766140D01*
X154239100Y-96766143D01*
X154281839Y-96981006D01*
X154444642Y-97224658D01*
X154506142Y-97265751D01*
X155018499Y-97778108D01*
X154731260Y-98207991D01*
X154619887Y-98767900D01*
X154731260Y-99327809D01*
X155048423Y-99802477D01*
X155400758Y-100037900D01*
X155048423Y-100273323D01*
X154731260Y-100747991D01*
X154619887Y-101307900D01*
X154731260Y-101867809D01*
X155048423Y-102342477D01*
X155400758Y-102577900D01*
X155048423Y-102813323D01*
X154731260Y-103287991D01*
X154619887Y-103847900D01*
X154731260Y-104407809D01*
X155048423Y-104882477D01*
X155523091Y-105199640D01*
X155941667Y-105282900D01*
X156224333Y-105282900D01*
X156642909Y-105199640D01*
X157117577Y-104882477D01*
X157434740Y-104407809D01*
X157546113Y-103847900D01*
X157434740Y-103287991D01*
X157117577Y-102813323D01*
X156765242Y-102577900D01*
X157117577Y-102342477D01*
X157434740Y-101867809D01*
X157546113Y-101307900D01*
X157434740Y-100747991D01*
X157117577Y-100273323D01*
X156765242Y-100037900D01*
X157117577Y-99802477D01*
X157434740Y-99327809D01*
X157546113Y-98767900D01*
X157434740Y-98207991D01*
X157117577Y-97733323D01*
X156806746Y-97525632D01*
X156797007Y-97476675D01*
X157117577Y-97262477D01*
X157434740Y-96787809D01*
X157546113Y-96227900D01*
X157434740Y-95667991D01*
X157117577Y-95193323D01*
X156765242Y-94957900D01*
X157117577Y-94722477D01*
X157434740Y-94247809D01*
X157546113Y-93687900D01*
X157434740Y-93127991D01*
X157117577Y-92653323D01*
X156797007Y-92439125D01*
X156806746Y-92390168D01*
X157117577Y-92182477D01*
X157434740Y-91707809D01*
X157546113Y-91147900D01*
X157434740Y-90587991D01*
X157117577Y-90113323D01*
X156765242Y-89877900D01*
X157117577Y-89642477D01*
X157434740Y-89167809D01*
X157546113Y-88607900D01*
X157434740Y-88047991D01*
X157125899Y-87585778D01*
X157190090Y-87521587D01*
X157268557Y-87469157D01*
X157474823Y-87160460D01*
X157476271Y-87158293D01*
X157476271Y-87158292D01*
X157476272Y-87158291D01*
X157530800Y-86884159D01*
X157530800Y-86884151D01*
X157549209Y-86791601D01*
X157530800Y-86699051D01*
X157530800Y-86560596D01*
X157807534Y-86283862D01*
X158026000Y-85756439D01*
X158026000Y-85185561D01*
X157807534Y-84658138D01*
X157403862Y-84254466D01*
X156876439Y-84036000D01*
X156305561Y-84036000D01*
X155778138Y-84254466D01*
X155374466Y-84658138D01*
X155347475Y-84723299D01*
X155344864Y-84716995D01*
X155098745Y-84642861D01*
X154270605Y-85471000D01*
X155098745Y-86299139D01*
X155344864Y-86225005D01*
X155347290Y-86218254D01*
X155374466Y-86283862D01*
X155572064Y-86481460D01*
X155483909Y-86569614D01*
X155405444Y-86622043D01*
X155353015Y-86700508D01*
X155353012Y-86700511D01*
X155197729Y-86932908D01*
X155124790Y-87299600D01*
X155143201Y-87392158D01*
X155143201Y-87509995D01*
X155048423Y-87573323D01*
X154731260Y-88047991D01*
X154619887Y-88607900D01*
X154642125Y-88719697D01*
X151679909Y-91681914D01*
X151601444Y-91734343D01*
X151549015Y-91812808D01*
X151549012Y-91812811D01*
X151393729Y-92045208D01*
X151320790Y-92411900D01*
X151339201Y-92504459D01*
X151339200Y-101505123D01*
X149705699Y-103138624D01*
X149694041Y-103110477D01*
X149318134Y-102695511D01*
X149113892Y-102598847D01*
X149497577Y-102342477D01*
X149814740Y-101867809D01*
X149926113Y-101307900D01*
X149814740Y-100747991D01*
X149497577Y-100273323D01*
X149145242Y-100037900D01*
X149497577Y-99802477D01*
X149814740Y-99327809D01*
X149926113Y-98767900D01*
X149814740Y-98207991D01*
X149497577Y-97733323D01*
X149145242Y-97497900D01*
X149497577Y-97262477D01*
X149814740Y-96787809D01*
X149926113Y-96227900D01*
X149814740Y-95667991D01*
X149497577Y-95193323D01*
X149145242Y-94957900D01*
X149497577Y-94722477D01*
X149814740Y-94247809D01*
X149926113Y-93687900D01*
X149814740Y-93127991D01*
X149527501Y-92698108D01*
X150088761Y-92136849D01*
X150150258Y-92095758D01*
X150191349Y-92034261D01*
X150191351Y-92034259D01*
X150313061Y-91852107D01*
X150336388Y-91734835D01*
X150355800Y-91637244D01*
X150355800Y-91637241D01*
X150370229Y-91564700D01*
X150355800Y-91492160D01*
X150355800Y-87804740D01*
X150370229Y-87732200D01*
X150355800Y-87659659D01*
X150355800Y-87659656D01*
X150313061Y-87444793D01*
X150282502Y-87399058D01*
X150191351Y-87262641D01*
X150191349Y-87262639D01*
X150150258Y-87201142D01*
X150088761Y-87160051D01*
X149407455Y-86478745D01*
X153262861Y-86478745D01*
X153336995Y-86724864D01*
X153874223Y-86917965D01*
X154444454Y-86890778D01*
X154845005Y-86724864D01*
X154919139Y-86478745D01*
X154091000Y-85650605D01*
X153262861Y-86478745D01*
X149407455Y-86478745D01*
X148182933Y-85254223D01*
X152644035Y-85254223D01*
X152671222Y-85824454D01*
X152837136Y-86225005D01*
X153083255Y-86299139D01*
X153911395Y-85471000D01*
X153083255Y-84642861D01*
X152837136Y-84716995D01*
X152644035Y-85254223D01*
X148182933Y-85254223D01*
X147391965Y-84463255D01*
X153262861Y-84463255D01*
X154091000Y-85291395D01*
X154919139Y-84463255D01*
X154845005Y-84217136D01*
X154307777Y-84024035D01*
X153737546Y-84051222D01*
X153336995Y-84217136D01*
X153262861Y-84463255D01*
X147391965Y-84463255D01*
X141700771Y-78772061D01*
X143777000Y-78772061D01*
X143777000Y-79342939D01*
X143995466Y-79870362D01*
X144399138Y-80274034D01*
X144926561Y-80492500D01*
X145497439Y-80492500D01*
X146024862Y-80274034D01*
X146428534Y-79870362D01*
X146647000Y-79342939D01*
X146647000Y-78772061D01*
X146428534Y-78244638D01*
X146024862Y-77840966D01*
X145497439Y-77622500D01*
X144926561Y-77622500D01*
X144399138Y-77840966D01*
X143995466Y-78244638D01*
X143777000Y-78772061D01*
X141700771Y-78772061D01*
X136511800Y-73583091D01*
X136511800Y-71202880D01*
X136580582Y-71248839D01*
X137013744Y-71335000D01*
X137306256Y-71335000D01*
X137739418Y-71248839D01*
X138230625Y-70920625D01*
X138430000Y-70622239D01*
X138629375Y-70920625D01*
X139120582Y-71248839D01*
X139553744Y-71335000D01*
X139846256Y-71335000D01*
X140279418Y-71248839D01*
X140770625Y-70920625D01*
X141098839Y-70429418D01*
X141214092Y-69850000D01*
X141098839Y-69270582D01*
X140770625Y-68779375D01*
X140472239Y-68580000D01*
X140770625Y-68380625D01*
X141098839Y-67889418D01*
X141214092Y-67310000D01*
X141098839Y-66730582D01*
X140770625Y-66239375D01*
X140279418Y-65911161D01*
X139846256Y-65825000D01*
X139553744Y-65825000D01*
X139120582Y-65911161D01*
X138629375Y-66239375D01*
X138430000Y-66537761D01*
X138230625Y-66239375D01*
X137739418Y-65911161D01*
X137306256Y-65825000D01*
X137013744Y-65825000D01*
X136580582Y-65911161D01*
X136089375Y-66239375D01*
X135890000Y-66537761D01*
X135690625Y-66239375D01*
X135199418Y-65911161D01*
X134766256Y-65825000D01*
X134473744Y-65825000D01*
X134040582Y-65911161D01*
X133644035Y-66176125D01*
X132715851Y-65247942D01*
X132674758Y-65186442D01*
X132431107Y-65023639D01*
X132216244Y-64980900D01*
X132216240Y-64980900D01*
X132143700Y-64966471D01*
X132071160Y-64980900D01*
X114310838Y-64980900D01*
X114238299Y-64966471D01*
X114165760Y-64980900D01*
X114165756Y-64980900D01*
X113950893Y-65023639D01*
X113707242Y-65186442D01*
X113666149Y-65247942D01*
X112737164Y-66176927D01*
X112339418Y-65911161D01*
X111906256Y-65825000D01*
X111613744Y-65825000D01*
X111180582Y-65911161D01*
X110810231Y-66158622D01*
X110289251Y-65637642D01*
X110248158Y-65576142D01*
X110004507Y-65413339D01*
X109789644Y-65370600D01*
X109789640Y-65370600D01*
X109717100Y-65356171D01*
X109644560Y-65370600D01*
X101195440Y-65370600D01*
X101122900Y-65356171D01*
X101050359Y-65370600D01*
X101050356Y-65370600D01*
X100835493Y-65413339D01*
X100653341Y-65535049D01*
X100653339Y-65535051D01*
X100591842Y-65576142D01*
X100550750Y-65637640D01*
X100021758Y-66166633D01*
X99639418Y-65911161D01*
X99206256Y-65825000D01*
X98913744Y-65825000D01*
X98480582Y-65911161D01*
X97989375Y-66239375D01*
X97790000Y-66537761D01*
X97590625Y-66239375D01*
X97099418Y-65911161D01*
X96666256Y-65825000D01*
X96373744Y-65825000D01*
X95940582Y-65911161D01*
X95449375Y-66239375D01*
X95236157Y-66558478D01*
X95175183Y-66428642D01*
X94746924Y-66038355D01*
X94336890Y-65868524D01*
X94107000Y-65989845D01*
X94107000Y-67183000D01*
X94127000Y-67183000D01*
X94127000Y-67437000D01*
X94107000Y-67437000D01*
X94107000Y-67457000D01*
X93853000Y-67457000D01*
X93853000Y-67437000D01*
X91567000Y-67437000D01*
X91567000Y-67457000D01*
X91313000Y-67457000D01*
X91313000Y-67437000D01*
X90119181Y-67437000D01*
X89998514Y-67666892D01*
X90244817Y-68191358D01*
X90451855Y-68380039D01*
X90342235Y-68401843D01*
X90132191Y-68542191D01*
X89991843Y-68752235D01*
X89942560Y-69000000D01*
X89942560Y-70700000D01*
X89991843Y-70947765D01*
X90132191Y-71157809D01*
X90342235Y-71298157D01*
X90590000Y-71347440D01*
X92290000Y-71347440D01*
X92537765Y-71298157D01*
X92747809Y-71157809D01*
X92888157Y-70947765D01*
X92897184Y-70902381D01*
X92909375Y-70920625D01*
X93400582Y-71248839D01*
X93833744Y-71335000D01*
X94126256Y-71335000D01*
X94513400Y-71257992D01*
X94513400Y-71787390D01*
X92075540Y-74225251D01*
X92014043Y-74266342D01*
X91972952Y-74327839D01*
X91972949Y-74327842D01*
X91851239Y-74509994D01*
X91794071Y-74797400D01*
X91808501Y-74869945D01*
X91808501Y-78651339D01*
X91738241Y-78618086D01*
X91516200Y-78739371D01*
X91516200Y-79883000D01*
X91536200Y-79883000D01*
X91536200Y-80137000D01*
X91516200Y-80137000D01*
X91516200Y-81280629D01*
X91738241Y-81401914D01*
X91808501Y-81368661D01*
X91808501Y-83072296D01*
X91789041Y-83063086D01*
X91567000Y-83184371D01*
X91567000Y-84328000D01*
X91587000Y-84328000D01*
X91587000Y-84582000D01*
X91567000Y-84582000D01*
X91567000Y-85725629D01*
X91789041Y-85846914D01*
X91808500Y-85837704D01*
X91808500Y-87499405D01*
X91725439Y-87465000D01*
X91154561Y-87465000D01*
X90627138Y-87683466D01*
X90223466Y-88087138D01*
X90005000Y-88614561D01*
X90005000Y-89185439D01*
X90223466Y-89712862D01*
X90627138Y-90116534D01*
X90703401Y-90148123D01*
X90703400Y-92731877D01*
X90627138Y-92763466D01*
X90223466Y-93167138D01*
X90005000Y-93694561D01*
X90005000Y-94265439D01*
X90223466Y-94792862D01*
X90627138Y-95196534D01*
X91154561Y-95415000D01*
X91725439Y-95415000D01*
X91808500Y-95380595D01*
X91808500Y-96544691D01*
X90970440Y-97382751D01*
X90908943Y-97423842D01*
X90867852Y-97485339D01*
X90867849Y-97485342D01*
X90746139Y-97667494D01*
X90716255Y-97817732D01*
X90405423Y-98025423D01*
X90088260Y-98500091D01*
X89976887Y-99060000D01*
X90088260Y-99619909D01*
X90405423Y-100094577D01*
X90703401Y-100293679D01*
X90703400Y-102151052D01*
X90333327Y-102398327D01*
X89994062Y-102906073D01*
X89874928Y-103505000D01*
X89994062Y-104103927D01*
X90333327Y-104611673D01*
X90431273Y-104677118D01*
X90277942Y-104830449D01*
X90216442Y-104871542D01*
X90053639Y-105115194D01*
X90010900Y-105330057D01*
X90010900Y-105330060D01*
X89996471Y-105402600D01*
X90010900Y-105475140D01*
X90010901Y-107705600D01*
X81065040Y-107705600D01*
X80992500Y-107691171D01*
X80919959Y-107705600D01*
X80919956Y-107705600D01*
X80707255Y-107747909D01*
X80705093Y-107748339D01*
X80522941Y-107870049D01*
X80522939Y-107870051D01*
X80461442Y-107911142D01*
X80420351Y-107972639D01*
X78147475Y-110245516D01*
X77957922Y-110167000D01*
X77307478Y-110167000D01*
X77117925Y-110245516D01*
X76477651Y-109605242D01*
X76436558Y-109543742D01*
X76192907Y-109380939D01*
X75978044Y-109338200D01*
X75978040Y-109338200D01*
X75905500Y-109323771D01*
X75832960Y-109338200D01*
X73596500Y-109338200D01*
X73596500Y-108454532D01*
X76659773Y-108454532D01*
X76758436Y-108721387D01*
X77368161Y-108947908D01*
X78018160Y-108923856D01*
X78506964Y-108721387D01*
X78605627Y-108454532D01*
X77632700Y-107481605D01*
X76659773Y-108454532D01*
X73596500Y-108454532D01*
X73596500Y-107037461D01*
X75986792Y-107037461D01*
X76010844Y-107687460D01*
X76213313Y-108176264D01*
X76480168Y-108274927D01*
X77453095Y-107302000D01*
X77812305Y-107302000D01*
X78785232Y-108274927D01*
X79052087Y-108176264D01*
X79278608Y-107566539D01*
X79254556Y-106916540D01*
X79052087Y-106427736D01*
X78785232Y-106329073D01*
X77812305Y-107302000D01*
X77453095Y-107302000D01*
X76480168Y-106329073D01*
X76213313Y-106427736D01*
X75986792Y-107037461D01*
X73596500Y-107037461D01*
X73596500Y-106149468D01*
X76659773Y-106149468D01*
X77632700Y-107122395D01*
X78605627Y-106149468D01*
X78506964Y-105882613D01*
X77897239Y-105656092D01*
X77247240Y-105680144D01*
X76758436Y-105882613D01*
X76659773Y-106149468D01*
X73596500Y-106149468D01*
X73596500Y-102528269D01*
X73707665Y-102506157D01*
X73917709Y-102365809D01*
X74058057Y-102155765D01*
X74107340Y-101908000D01*
X74107340Y-100708000D01*
X74058057Y-100460235D01*
X73917709Y-100250191D01*
X73784182Y-100160970D01*
X73838330Y-100106822D01*
X73722637Y-99991129D01*
X73948064Y-99941617D01*
X74107707Y-99476964D01*
X74077382Y-98986587D01*
X73948064Y-98674383D01*
X73722635Y-98624870D01*
X73039505Y-99308000D01*
X73053648Y-99322143D01*
X72874043Y-99501748D01*
X72859900Y-99487605D01*
X72845758Y-99501748D01*
X72666153Y-99322143D01*
X72680295Y-99308000D01*
X71997165Y-98624870D01*
X71771736Y-98674383D01*
X71612093Y-99139036D01*
X71642418Y-99629413D01*
X71771736Y-99941617D01*
X71997163Y-99991129D01*
X71881470Y-100106822D01*
X71935618Y-100160970D01*
X71802091Y-100250191D01*
X71661743Y-100460235D01*
X71612460Y-100708000D01*
X71612460Y-101908000D01*
X71661743Y-102155765D01*
X71802091Y-102365809D01*
X72012135Y-102506157D01*
X72123300Y-102528269D01*
X72123301Y-106131791D01*
X72105626Y-106149466D01*
X72006964Y-105882613D01*
X71397239Y-105656092D01*
X70747240Y-105680144D01*
X70258436Y-105882613D01*
X70159773Y-106149468D01*
X71132700Y-107122395D01*
X71146843Y-107108253D01*
X71326448Y-107287858D01*
X71312305Y-107302000D01*
X71326448Y-107316143D01*
X71146843Y-107495748D01*
X71132700Y-107481605D01*
X70159773Y-108454532D01*
X70258436Y-108721387D01*
X70868161Y-108947908D01*
X71518160Y-108923856D01*
X72006964Y-108721387D01*
X72105626Y-108454534D01*
X72123301Y-108472209D01*
X72123301Y-109769689D01*
X71647475Y-110245515D01*
X71457922Y-110167000D01*
X70807478Y-110167000D01*
X70206547Y-110415914D01*
X69746614Y-110875847D01*
X69497700Y-111476778D01*
X65532000Y-111476778D01*
X65532000Y-107037461D01*
X69486792Y-107037461D01*
X69510844Y-107687460D01*
X69713313Y-108176264D01*
X69980168Y-108274927D01*
X70953095Y-107302000D01*
X69980168Y-106329073D01*
X69713313Y-106427736D01*
X69486792Y-107037461D01*
X65532000Y-107037461D01*
X65532000Y-98445265D01*
X72176770Y-98445265D01*
X72859900Y-99128395D01*
X73543030Y-98445265D01*
X73493517Y-98219836D01*
X73028864Y-98060193D01*
X72538487Y-98090518D01*
X72226283Y-98219836D01*
X72176770Y-98445265D01*
X65532000Y-98445265D01*
X65532000Y-95396361D01*
X69062700Y-95396361D01*
X69062700Y-95967239D01*
X69281166Y-96494662D01*
X69684838Y-96898334D01*
X70212261Y-97116800D01*
X70783139Y-97116800D01*
X71310562Y-96898334D01*
X71714234Y-96494662D01*
X71932700Y-95967239D01*
X71932700Y-95396361D01*
X71714234Y-94868938D01*
X71310562Y-94465266D01*
X71245401Y-94438275D01*
X71251705Y-94435664D01*
X71325839Y-94189545D01*
X70497700Y-93361405D01*
X69669561Y-94189545D01*
X69743695Y-94435664D01*
X69750446Y-94438090D01*
X69684838Y-94465266D01*
X69281166Y-94868938D01*
X69062700Y-95396361D01*
X65532000Y-95396361D01*
X65532000Y-92965023D01*
X69050735Y-92965023D01*
X69077922Y-93535254D01*
X69243836Y-93935805D01*
X69489955Y-94009939D01*
X70318095Y-93181800D01*
X70677305Y-93181800D01*
X71505445Y-94009939D01*
X71751564Y-93935805D01*
X71944665Y-93398577D01*
X71940028Y-93301306D01*
X75183300Y-93301306D01*
X75183300Y-93852294D01*
X75394153Y-94361340D01*
X75783760Y-94750947D01*
X76292806Y-94961800D01*
X76843794Y-94961800D01*
X77352840Y-94750947D01*
X77742447Y-94361340D01*
X77953300Y-93852294D01*
X77953300Y-93301306D01*
X77742447Y-92792260D01*
X77352840Y-92402653D01*
X76843794Y-92191800D01*
X76292806Y-92191800D01*
X75783760Y-92402653D01*
X75394153Y-92792260D01*
X75183300Y-93301306D01*
X71940028Y-93301306D01*
X71917478Y-92828346D01*
X71751564Y-92427795D01*
X71505445Y-92353661D01*
X70677305Y-93181800D01*
X70318095Y-93181800D01*
X69489955Y-92353661D01*
X69243836Y-92427795D01*
X69050735Y-92965023D01*
X65532000Y-92965023D01*
X65532000Y-92174055D01*
X69669561Y-92174055D01*
X70497700Y-93002195D01*
X71325839Y-92174055D01*
X71251705Y-91927936D01*
X70714477Y-91734835D01*
X70144246Y-91762022D01*
X69743695Y-91927936D01*
X69669561Y-92174055D01*
X65532000Y-92174055D01*
X65532000Y-90286845D01*
X69669561Y-90286845D01*
X69743695Y-90532964D01*
X70280923Y-90726065D01*
X70851154Y-90698878D01*
X71251705Y-90532964D01*
X71325839Y-90286845D01*
X70497700Y-89458705D01*
X69669561Y-90286845D01*
X65532000Y-90286845D01*
X65532000Y-89062323D01*
X69050735Y-89062323D01*
X69077922Y-89632554D01*
X69243836Y-90033105D01*
X69489955Y-90107239D01*
X70318095Y-89279100D01*
X70677305Y-89279100D01*
X71505445Y-90107239D01*
X71751564Y-90033105D01*
X71944665Y-89495877D01*
X71917478Y-88925646D01*
X71751564Y-88525095D01*
X71505445Y-88450961D01*
X70677305Y-89279100D01*
X70318095Y-89279100D01*
X69489955Y-88450961D01*
X69243836Y-88525095D01*
X69050735Y-89062323D01*
X65532000Y-89062323D01*
X65532000Y-86493661D01*
X69062700Y-86493661D01*
X69062700Y-87064539D01*
X69281166Y-87591962D01*
X69684838Y-87995634D01*
X69749999Y-88022625D01*
X69743695Y-88025236D01*
X69669561Y-88271355D01*
X70497700Y-89099495D01*
X71175888Y-88421306D01*
X75183300Y-88421306D01*
X75183300Y-88972294D01*
X75394153Y-89481340D01*
X75783760Y-89870947D01*
X76292806Y-90081800D01*
X76843794Y-90081800D01*
X77352840Y-89870947D01*
X77742447Y-89481340D01*
X77953300Y-88972294D01*
X77953300Y-88421306D01*
X77742447Y-87912260D01*
X77352840Y-87522653D01*
X76843794Y-87311800D01*
X76292806Y-87311800D01*
X75783760Y-87522653D01*
X75394153Y-87912260D01*
X75183300Y-88421306D01*
X71175888Y-88421306D01*
X71325839Y-88271355D01*
X71251705Y-88025236D01*
X71244954Y-88022810D01*
X71310562Y-87995634D01*
X71714234Y-87591962D01*
X71932700Y-87064539D01*
X71932700Y-86493661D01*
X71714234Y-85966238D01*
X71310562Y-85562566D01*
X70783139Y-85344100D01*
X70212261Y-85344100D01*
X69684838Y-85562566D01*
X69281166Y-85966238D01*
X69062700Y-86493661D01*
X65532000Y-86493661D01*
X65532000Y-78627400D01*
X71287060Y-78627400D01*
X71287060Y-80427400D01*
X71336343Y-80675165D01*
X71476691Y-80885209D01*
X71686735Y-81025557D01*
X71934500Y-81074840D01*
X73734500Y-81074840D01*
X73982265Y-81025557D01*
X74192309Y-80885209D01*
X74332657Y-80675165D01*
X74335775Y-80659492D01*
X74504993Y-80828710D01*
X75069170Y-81062400D01*
X75580423Y-81062400D01*
X78981001Y-84462978D01*
X78981000Y-97608246D01*
X78962590Y-97700800D01*
X78981000Y-97793354D01*
X78981000Y-97793358D01*
X79035528Y-98067490D01*
X79035529Y-98067491D01*
X79035529Y-98067492D01*
X79152336Y-98242306D01*
X79243243Y-98378357D01*
X79321711Y-98430788D01*
X79845000Y-98954077D01*
X79845000Y-99345439D01*
X80063466Y-99872862D01*
X80340201Y-100149597D01*
X80340200Y-101965477D01*
X80132235Y-102006843D01*
X79922191Y-102147191D01*
X79781843Y-102357235D01*
X79732560Y-102605000D01*
X79732560Y-104405000D01*
X79781843Y-104652765D01*
X79922191Y-104862809D01*
X80132235Y-105003157D01*
X80380000Y-105052440D01*
X82180000Y-105052440D01*
X82427765Y-105003157D01*
X82637809Y-104862809D01*
X82778157Y-104652765D01*
X82827440Y-104405000D01*
X82827440Y-102605000D01*
X82778157Y-102357235D01*
X82637809Y-102147191D01*
X82427765Y-102006843D01*
X82219800Y-101965477D01*
X82219800Y-100149596D01*
X82496534Y-99872862D01*
X82715000Y-99345439D01*
X82715000Y-98774561D01*
X82496534Y-98247138D01*
X82092862Y-97843466D01*
X81565439Y-97625000D01*
X81174077Y-97625000D01*
X80860600Y-97311523D01*
X80860600Y-95359689D01*
X81138667Y-95415000D01*
X81421333Y-95415000D01*
X81839909Y-95331740D01*
X82314577Y-95014577D01*
X82631740Y-94539909D01*
X82743113Y-93980000D01*
X82631740Y-93420091D01*
X82314577Y-92945423D01*
X81839909Y-92628260D01*
X81421333Y-92545000D01*
X81138667Y-92545000D01*
X80860600Y-92600311D01*
X80860600Y-90279689D01*
X81138667Y-90335000D01*
X81421333Y-90335000D01*
X81839909Y-90251740D01*
X82314577Y-89934577D01*
X82631740Y-89459909D01*
X82743113Y-88900000D01*
X82631740Y-88340091D01*
X82314577Y-87865423D01*
X81839909Y-87548260D01*
X81421333Y-87465000D01*
X81138667Y-87465000D01*
X80860600Y-87520311D01*
X80860600Y-85834511D01*
X80994561Y-85890000D01*
X81565439Y-85890000D01*
X82092862Y-85671534D01*
X82496534Y-85267862D01*
X82688655Y-84804039D01*
X90048096Y-84804039D01*
X90208959Y-85192423D01*
X90584866Y-85607389D01*
X91090959Y-85846914D01*
X91313000Y-85725629D01*
X91313000Y-84582000D01*
X90170085Y-84582000D01*
X90048096Y-84804039D01*
X82688655Y-84804039D01*
X82715000Y-84740439D01*
X82715000Y-84169561D01*
X82688656Y-84105961D01*
X90048096Y-84105961D01*
X90170085Y-84328000D01*
X91313000Y-84328000D01*
X91313000Y-83184371D01*
X91090959Y-83063086D01*
X90584866Y-83302611D01*
X90208959Y-83717577D01*
X90048096Y-84105961D01*
X82688656Y-84105961D01*
X82496534Y-83642138D01*
X82092862Y-83238466D01*
X81565439Y-83020000D01*
X80994561Y-83020000D01*
X80467138Y-83238466D01*
X80440891Y-83264714D01*
X76909500Y-79733323D01*
X76909500Y-79724561D01*
X79794200Y-79724561D01*
X79794200Y-80295439D01*
X80012666Y-80822862D01*
X80416338Y-81226534D01*
X80943761Y-81445000D01*
X81514639Y-81445000D01*
X82042062Y-81226534D01*
X82445734Y-80822862D01*
X82637855Y-80359039D01*
X89997296Y-80359039D01*
X90158159Y-80747423D01*
X90534066Y-81162389D01*
X91040159Y-81401914D01*
X91262200Y-81280629D01*
X91262200Y-80137000D01*
X90119285Y-80137000D01*
X89997296Y-80359039D01*
X82637855Y-80359039D01*
X82664200Y-80295439D01*
X82664200Y-79724561D01*
X82637856Y-79660961D01*
X89997296Y-79660961D01*
X90119285Y-79883000D01*
X91262200Y-79883000D01*
X91262200Y-78739371D01*
X91040159Y-78618086D01*
X90534066Y-78857611D01*
X90158159Y-79272577D01*
X89997296Y-79660961D01*
X82637856Y-79660961D01*
X82445734Y-79197138D01*
X82042062Y-78793466D01*
X81514639Y-78575000D01*
X80943761Y-78575000D01*
X80416338Y-78793466D01*
X80012666Y-79197138D01*
X79794200Y-79724561D01*
X76909500Y-79724561D01*
X76909500Y-79222070D01*
X76675810Y-78657893D01*
X76244007Y-78226090D01*
X75679830Y-77992400D01*
X75069170Y-77992400D01*
X74504993Y-78226090D01*
X74335775Y-78395308D01*
X74332657Y-78379635D01*
X74192309Y-78169591D01*
X73982265Y-78029243D01*
X73734500Y-77979960D01*
X71934500Y-77979960D01*
X71686735Y-78029243D01*
X71476691Y-78169591D01*
X71336343Y-78379635D01*
X71287060Y-78627400D01*
X65532000Y-78627400D01*
X65532000Y-66953108D01*
X89998514Y-66953108D01*
X90119181Y-67183000D01*
X91313000Y-67183000D01*
X91313000Y-65989845D01*
X91567000Y-65989845D01*
X91567000Y-67183000D01*
X93853000Y-67183000D01*
X93853000Y-65989845D01*
X93623110Y-65868524D01*
X93213076Y-66038355D01*
X92784817Y-66428642D01*
X92710000Y-66587954D01*
X92635183Y-66428642D01*
X92206924Y-66038355D01*
X91796890Y-65868524D01*
X91567000Y-65989845D01*
X91313000Y-65989845D01*
X91083110Y-65868524D01*
X90673076Y-66038355D01*
X90244817Y-66428642D01*
X89998514Y-66953108D01*
X65532000Y-66953108D01*
X65532000Y-61255431D01*
X67540000Y-61255431D01*
X67540000Y-62144569D01*
X67880259Y-62966026D01*
X68508974Y-63594741D01*
X69330431Y-63935000D01*
X70219569Y-63935000D01*
X71041026Y-63594741D01*
X71669741Y-62966026D01*
X72010000Y-62144569D01*
X72010000Y-61255431D01*
X156590000Y-61255431D01*
X156590000Y-62144569D01*
X156930259Y-62966026D01*
X157558974Y-63594741D01*
X158380431Y-63935000D01*
X159269569Y-63935000D01*
X160091026Y-63594741D01*
X160719741Y-62966026D01*
X161060000Y-62144569D01*
X161060000Y-61255431D01*
X160719741Y-60433974D01*
X160091026Y-59805259D01*
X159269569Y-59465000D01*
X158380431Y-59465000D01*
X157558974Y-59805259D01*
X156930259Y-60433974D01*
X156590000Y-61255431D01*
X72010000Y-61255431D01*
X71669741Y-60433974D01*
X71041026Y-59805259D01*
X70219569Y-59465000D01*
X69330431Y-59465000D01*
X68508974Y-59805259D01*
X67880259Y-60433974D01*
X67540000Y-61255431D01*
X65532000Y-61255431D01*
X65532000Y-57912000D01*
X163068000Y-57912000D01*
X163068000Y-131318000D01*
X163068000Y-131318000D01*
G37*
X163068000Y-131318000D02*
X65532000Y-131318000D01*
X65532000Y-127130431D01*
X67565000Y-127130431D01*
X67565000Y-128019569D01*
X67905259Y-128841026D01*
X68533974Y-129469741D01*
X69355431Y-129810000D01*
X70244569Y-129810000D01*
X71066026Y-129469741D01*
X71694741Y-128841026D01*
X72035000Y-128019569D01*
X72035000Y-127130431D01*
X71825203Y-126623936D01*
X84375670Y-126623936D01*
X84645221Y-127036257D01*
X85761642Y-127496369D01*
X86969157Y-127494221D01*
X88074779Y-127036257D01*
X88344330Y-126623936D01*
X88256434Y-126536039D01*
X94924896Y-126536039D01*
X95085759Y-126924423D01*
X95461666Y-127339389D01*
X95967759Y-127578914D01*
X96189800Y-127457629D01*
X96189800Y-126314000D01*
X96443800Y-126314000D01*
X96443800Y-127457629D01*
X96665841Y-127578914D01*
X97171934Y-127339389D01*
X97547841Y-126924423D01*
X97708704Y-126536039D01*
X97586715Y-126314000D01*
X96443800Y-126314000D01*
X96189800Y-126314000D01*
X95046885Y-126314000D01*
X94924896Y-126536039D01*
X88256434Y-126536039D01*
X86360000Y-124639605D01*
X84375670Y-126623936D01*
X71825203Y-126623936D01*
X71694741Y-126308974D01*
X71066026Y-125680259D01*
X70244569Y-125340000D01*
X69355431Y-125340000D01*
X68533974Y-125680259D01*
X67905259Y-126308974D01*
X67565000Y-127130431D01*
X65532000Y-127130431D01*
X65532000Y-123861642D01*
X83323631Y-123861642D01*
X83325779Y-125069157D01*
X83783743Y-126174779D01*
X84196064Y-126444330D01*
X86180395Y-124460000D01*
X84196064Y-122475670D01*
X83783743Y-122745221D01*
X83323631Y-123861642D01*
X65532000Y-123861642D01*
X65532000Y-111476778D01*
X69497700Y-111476778D01*
X69497700Y-112127222D01*
X69746614Y-112728153D01*
X70206547Y-113188086D01*
X70807478Y-113437000D01*
X71457922Y-113437000D01*
X72058853Y-113188086D01*
X72518786Y-112728153D01*
X72767700Y-112127222D01*
X72767700Y-111476778D01*
X72689185Y-111287225D01*
X73165010Y-110811400D01*
X75600391Y-110811400D01*
X76076216Y-111287225D01*
X75997700Y-111476778D01*
X75997700Y-112127222D01*
X76246614Y-112728153D01*
X76706547Y-113188086D01*
X77307478Y-113437000D01*
X77957922Y-113437000D01*
X78558853Y-113188086D01*
X79018786Y-112728153D01*
X79267700Y-112127222D01*
X79267700Y-111476778D01*
X79189184Y-111287225D01*
X81297610Y-109178800D01*
X82525760Y-109178800D01*
X82525760Y-110514000D01*
X82575043Y-110761765D01*
X82715391Y-110971809D01*
X82925435Y-111112157D01*
X83173200Y-111161440D01*
X83736682Y-111161440D01*
X78262023Y-116636100D01*
X77588654Y-116636100D01*
X77496100Y-116617690D01*
X77403546Y-116636100D01*
X77403541Y-116636100D01*
X77129409Y-116690628D01*
X77077519Y-116725300D01*
X76897010Y-116845912D01*
X76897008Y-116845914D01*
X76818543Y-116898343D01*
X76766114Y-116976808D01*
X73778363Y-119964560D01*
X72860000Y-119964560D01*
X72612235Y-120013843D01*
X72402191Y-120154191D01*
X72261843Y-120364235D01*
X72212560Y-120612000D01*
X72212560Y-122212000D01*
X72261843Y-122459765D01*
X72402191Y-122669809D01*
X72612235Y-122810157D01*
X72860000Y-122859440D01*
X74460000Y-122859440D01*
X74707765Y-122810157D01*
X74917809Y-122669809D01*
X75058157Y-122459765D01*
X75066117Y-122419745D01*
X75331861Y-122419745D01*
X75405995Y-122665864D01*
X75943223Y-122858965D01*
X76513454Y-122831778D01*
X76914005Y-122665864D01*
X76988139Y-122419745D01*
X76160000Y-121591605D01*
X75331861Y-122419745D01*
X75066117Y-122419745D01*
X75104693Y-122225813D01*
X75152255Y-122240139D01*
X75980395Y-121412000D01*
X76339605Y-121412000D01*
X77167745Y-122240139D01*
X77413864Y-122166005D01*
X77606965Y-121628777D01*
X77579778Y-121058546D01*
X77413864Y-120657995D01*
X77167745Y-120583861D01*
X76339605Y-121412000D01*
X75980395Y-121412000D01*
X75966253Y-121397858D01*
X76145858Y-121218253D01*
X76160000Y-121232395D01*
X76988139Y-120404255D01*
X76914005Y-120158136D01*
X76420373Y-119980705D01*
X77885378Y-118515700D01*
X78558746Y-118515700D01*
X78651300Y-118534110D01*
X78743854Y-118515700D01*
X78743859Y-118515700D01*
X79017991Y-118461172D01*
X79328857Y-118253457D01*
X79381288Y-118174989D01*
X86408882Y-111147396D01*
X86416944Y-111149000D01*
X86709456Y-111149000D01*
X87142618Y-111062839D01*
X87633825Y-110734625D01*
X87833200Y-110436239D01*
X88032575Y-110734625D01*
X88163401Y-110822040D01*
X88163400Y-112322922D01*
X85760909Y-114725414D01*
X85682444Y-114777843D01*
X85630015Y-114856308D01*
X85630012Y-114856311D01*
X85474729Y-115088708D01*
X85429466Y-115316260D01*
X83959700Y-115316260D01*
X83711935Y-115365543D01*
X83501891Y-115505891D01*
X83361543Y-115715935D01*
X83312260Y-115963700D01*
X83312260Y-120764300D01*
X83361543Y-121012065D01*
X83501891Y-121222109D01*
X83711935Y-121362457D01*
X83959700Y-121411740D01*
X88470353Y-121411740D01*
X88404700Y-121570241D01*
X88404700Y-122235692D01*
X88344329Y-122296063D01*
X88074779Y-121883743D01*
X86958358Y-121423631D01*
X85750843Y-121425779D01*
X84645221Y-121883743D01*
X84375670Y-122296064D01*
X86360000Y-124280395D01*
X86374142Y-124266252D01*
X86553748Y-124445858D01*
X86539605Y-124460000D01*
X88523936Y-126444330D01*
X88917563Y-126187000D01*
X102473687Y-126187000D01*
X102585060Y-126746909D01*
X102902223Y-127221577D01*
X103376891Y-127538740D01*
X103795467Y-127622000D01*
X104078133Y-127622000D01*
X104496709Y-127538740D01*
X104971377Y-127221577D01*
X105288540Y-126746909D01*
X105399913Y-126187000D01*
X105288540Y-125627091D01*
X104971377Y-125152423D01*
X104587692Y-124896053D01*
X104791934Y-124799389D01*
X105167841Y-124384423D01*
X105328704Y-123996039D01*
X105206715Y-123774000D01*
X104063800Y-123774000D01*
X104063800Y-123794000D01*
X103809800Y-123794000D01*
X103809800Y-123774000D01*
X102666885Y-123774000D01*
X102544896Y-123996039D01*
X102705759Y-124384423D01*
X103081666Y-124799389D01*
X103285908Y-124896053D01*
X102902223Y-125152423D01*
X102585060Y-125627091D01*
X102473687Y-126187000D01*
X88917563Y-126187000D01*
X88936257Y-126174779D01*
X89396369Y-125058358D01*
X89395237Y-124421799D01*
X89720641Y-124747203D01*
X90836241Y-125209300D01*
X92043759Y-125209300D01*
X93159359Y-124747203D01*
X94013203Y-123893359D01*
X94115248Y-123647000D01*
X94853687Y-123647000D01*
X94965060Y-124206909D01*
X95282223Y-124681577D01*
X95665908Y-124937947D01*
X95461666Y-125034611D01*
X95085759Y-125449577D01*
X94924896Y-125837961D01*
X95046885Y-126060000D01*
X96189800Y-126060000D01*
X96189800Y-126040000D01*
X96443800Y-126040000D01*
X96443800Y-126060000D01*
X97586715Y-126060000D01*
X97708704Y-125837961D01*
X97547841Y-125449577D01*
X97171934Y-125034611D01*
X96967692Y-124937947D01*
X97351377Y-124681577D01*
X97668540Y-124206909D01*
X97779913Y-123647000D01*
X97668540Y-123087091D01*
X97351377Y-122612423D01*
X96967692Y-122356053D01*
X97171934Y-122259389D01*
X97547841Y-121844423D01*
X97708704Y-121456039D01*
X97586715Y-121234000D01*
X96443800Y-121234000D01*
X96443800Y-121254000D01*
X96189800Y-121254000D01*
X96189800Y-121234000D01*
X95046885Y-121234000D01*
X94924896Y-121456039D01*
X95085759Y-121844423D01*
X95461666Y-122259389D01*
X95665908Y-122356053D01*
X95282223Y-122612423D01*
X94965060Y-123087091D01*
X94853687Y-123647000D01*
X94115248Y-123647000D01*
X94475300Y-122777759D01*
X94475300Y-121570241D01*
X94283420Y-121107000D01*
X102473687Y-121107000D01*
X102585060Y-121666909D01*
X102902223Y-122141577D01*
X103285908Y-122397947D01*
X103081666Y-122494611D01*
X102705759Y-122909577D01*
X102544896Y-123297961D01*
X102666885Y-123520000D01*
X103809800Y-123520000D01*
X103809800Y-123500000D01*
X104063800Y-123500000D01*
X104063800Y-123520000D01*
X105206715Y-123520000D01*
X105328704Y-123297961D01*
X105167841Y-122909577D01*
X104791934Y-122494611D01*
X104587692Y-122397947D01*
X104971377Y-122141577D01*
X105288540Y-121666909D01*
X105399913Y-121107000D01*
X105288540Y-120547091D01*
X104971377Y-120072423D01*
X104587692Y-119816053D01*
X104791934Y-119719389D01*
X105167841Y-119304423D01*
X105328704Y-118916039D01*
X105206715Y-118694000D01*
X104063800Y-118694000D01*
X104063800Y-118714000D01*
X103809800Y-118714000D01*
X103809800Y-118694000D01*
X102666885Y-118694000D01*
X102544896Y-118916039D01*
X102705759Y-119304423D01*
X103081666Y-119719389D01*
X103285908Y-119816053D01*
X102902223Y-120072423D01*
X102585060Y-120547091D01*
X102473687Y-121107000D01*
X94283420Y-121107000D01*
X94013203Y-120454641D01*
X93159359Y-119600797D01*
X92043759Y-119138700D01*
X90836241Y-119138700D01*
X89720641Y-119600797D01*
X89407740Y-119913698D01*
X89407740Y-115963700D01*
X89358457Y-115715935D01*
X89218109Y-115505891D01*
X89008065Y-115365543D01*
X88760300Y-115316260D01*
X87828217Y-115316260D01*
X89702293Y-113442185D01*
X89780757Y-113389757D01*
X89833186Y-113311292D01*
X89833188Y-113311290D01*
X89947969Y-113139507D01*
X89988472Y-113078891D01*
X90043000Y-112804759D01*
X90043000Y-112804754D01*
X90061410Y-112712200D01*
X90043000Y-112619646D01*
X90043000Y-110822039D01*
X90173825Y-110734625D01*
X90448194Y-110324003D01*
X95215889Y-115091699D01*
X94965060Y-115467091D01*
X94853687Y-116027000D01*
X94965060Y-116586909D01*
X95282223Y-117061577D01*
X95602793Y-117275775D01*
X95593054Y-117324732D01*
X95282223Y-117532423D01*
X94965060Y-118007091D01*
X94853687Y-118567000D01*
X94965060Y-119126909D01*
X95282223Y-119601577D01*
X95665908Y-119857947D01*
X95461666Y-119954611D01*
X95085759Y-120369577D01*
X94924896Y-120757961D01*
X95046885Y-120980000D01*
X96189800Y-120980000D01*
X96189800Y-120960000D01*
X96443800Y-120960000D01*
X96443800Y-120980000D01*
X97586715Y-120980000D01*
X97708704Y-120757961D01*
X97547841Y-120369577D01*
X97171934Y-119954611D01*
X96967692Y-119857947D01*
X97351377Y-119601577D01*
X97668540Y-119126909D01*
X97779913Y-118567000D01*
X97668540Y-118007091D01*
X97381301Y-117577208D01*
X97891461Y-117067049D01*
X97952958Y-117025958D01*
X97994049Y-116964461D01*
X97994051Y-116964459D01*
X98115761Y-116782307D01*
X98129971Y-116710870D01*
X98158500Y-116567444D01*
X98158500Y-116567441D01*
X98172929Y-116494900D01*
X98158500Y-116422360D01*
X98158500Y-113091440D01*
X98172929Y-113018900D01*
X98158500Y-112946359D01*
X98158500Y-112946356D01*
X98115761Y-112731493D01*
X98063008Y-112652543D01*
X97994051Y-112549341D01*
X97994049Y-112549339D01*
X97952958Y-112487842D01*
X97891460Y-112446750D01*
X97604614Y-112159904D01*
X97714957Y-111994765D01*
X97764240Y-111747000D01*
X97764240Y-110147000D01*
X97714957Y-109899235D01*
X97574609Y-109689191D01*
X97536609Y-109663800D01*
X98121161Y-109079249D01*
X98182658Y-109038158D01*
X98223749Y-108976661D01*
X98223751Y-108976659D01*
X98345461Y-108794507D01*
X98358370Y-108729607D01*
X98388200Y-108579644D01*
X98388200Y-108579641D01*
X98388776Y-108576745D01*
X100811861Y-108576745D01*
X100885995Y-108822864D01*
X101423223Y-109015965D01*
X101993454Y-108988778D01*
X102394005Y-108822864D01*
X102468139Y-108576745D01*
X101640000Y-107748605D01*
X100811861Y-108576745D01*
X98388776Y-108576745D01*
X98402629Y-108507101D01*
X98388200Y-108434560D01*
X98388200Y-107352223D01*
X100193035Y-107352223D01*
X100220222Y-107922454D01*
X100386136Y-108323005D01*
X100632255Y-108397139D01*
X101460395Y-107569000D01*
X100632255Y-106740861D01*
X100386136Y-106814995D01*
X100193035Y-107352223D01*
X98388200Y-107352223D01*
X98388200Y-106561255D01*
X100811861Y-106561255D01*
X101640000Y-107389395D01*
X102468139Y-106561255D01*
X102394005Y-106315136D01*
X101856777Y-106122035D01*
X101286546Y-106149222D01*
X100885995Y-106315136D01*
X100811861Y-106561255D01*
X98388200Y-106561255D01*
X98388200Y-86351745D01*
X100811861Y-86351745D01*
X100885995Y-86597864D01*
X101423223Y-86790965D01*
X101993454Y-86763778D01*
X102394005Y-86597864D01*
X102468139Y-86351745D01*
X101640000Y-85523605D01*
X100811861Y-86351745D01*
X98388200Y-86351745D01*
X98388200Y-85127223D01*
X100193035Y-85127223D01*
X100220222Y-85697454D01*
X100386136Y-86098005D01*
X100632255Y-86172139D01*
X101460395Y-85344000D01*
X100632255Y-84515861D01*
X100386136Y-84589995D01*
X100193035Y-85127223D01*
X98388200Y-85127223D01*
X98388200Y-84523640D01*
X98402629Y-84451100D01*
X98388200Y-84378559D01*
X98388200Y-84378556D01*
X98379786Y-84336255D01*
X100811861Y-84336255D01*
X101640000Y-85164395D01*
X102468139Y-84336255D01*
X102394005Y-84090136D01*
X101856777Y-83897035D01*
X101286546Y-83924222D01*
X100885995Y-84090136D01*
X100811861Y-84336255D01*
X98379786Y-84336255D01*
X98345461Y-84163693D01*
X98270310Y-84051222D01*
X98223751Y-83981541D01*
X98223749Y-83981539D01*
X98182658Y-83920042D01*
X98121160Y-83878951D01*
X95559634Y-81317425D01*
X95720000Y-81229829D01*
X95720000Y-80086200D01*
X95974000Y-80086200D01*
X95974000Y-81229829D01*
X96196041Y-81351114D01*
X96702134Y-81111589D01*
X97078041Y-80696623D01*
X97238904Y-80308239D01*
X97116915Y-80086200D01*
X95974000Y-80086200D01*
X95720000Y-80086200D01*
X95700000Y-80086200D01*
X95700000Y-79832200D01*
X95720000Y-79832200D01*
X95720000Y-78688571D01*
X95974000Y-78688571D01*
X95974000Y-79832200D01*
X97116915Y-79832200D01*
X97238904Y-79610161D01*
X97078041Y-79221777D01*
X96702134Y-78806811D01*
X96196041Y-78567286D01*
X95974000Y-78688571D01*
X95720000Y-78688571D01*
X95497959Y-78567286D01*
X95477200Y-78577111D01*
X95477200Y-78011609D01*
X100799561Y-72689249D01*
X100861058Y-72648158D01*
X100863400Y-72644653D01*
X100863400Y-72767060D01*
X100848971Y-72839600D01*
X100863400Y-72912140D01*
X100863400Y-72912143D01*
X100906139Y-73127006D01*
X101068942Y-73370658D01*
X101130442Y-73411751D01*
X106242890Y-78524200D01*
X105721561Y-78524200D01*
X105194138Y-78742666D01*
X104790466Y-79146338D01*
X104572000Y-79673761D01*
X104572000Y-80244639D01*
X104790466Y-80772062D01*
X105194138Y-81175734D01*
X105270400Y-81207323D01*
X105270400Y-84445004D01*
X104952862Y-84127466D01*
X104425439Y-83909000D01*
X103854561Y-83909000D01*
X103327138Y-84127466D01*
X102923466Y-84531138D01*
X102896475Y-84596299D01*
X102893864Y-84589995D01*
X102647745Y-84515861D01*
X101819605Y-85344000D01*
X102647745Y-86172139D01*
X102893864Y-86098005D01*
X102896290Y-86091254D01*
X102923466Y-86156862D01*
X103178214Y-86411610D01*
X103147209Y-86442614D01*
X103068744Y-86495043D01*
X103016315Y-86573508D01*
X103016312Y-86573511D01*
X102861029Y-86805908D01*
X102788090Y-87172600D01*
X102806501Y-87265158D01*
X102806501Y-87382995D01*
X102711723Y-87446323D01*
X102394560Y-87920991D01*
X102283187Y-88480900D01*
X102394560Y-89040809D01*
X102711723Y-89515477D01*
X103095408Y-89771847D01*
X102891166Y-89868511D01*
X102515259Y-90283477D01*
X102354396Y-90671861D01*
X102476385Y-90893900D01*
X103619300Y-90893900D01*
X103619300Y-90873900D01*
X103873300Y-90873900D01*
X103873300Y-90893900D01*
X105016215Y-90893900D01*
X105138204Y-90671861D01*
X104977341Y-90283477D01*
X104601434Y-89868511D01*
X104397192Y-89771847D01*
X104780877Y-89515477D01*
X105098040Y-89040809D01*
X105209413Y-88480900D01*
X105098040Y-87920991D01*
X104796880Y-87470273D01*
X104817557Y-87456457D01*
X104869988Y-87377989D01*
X105025271Y-87145593D01*
X105025271Y-87145592D01*
X105025272Y-87145591D01*
X105079800Y-86871459D01*
X105079800Y-86871454D01*
X105098210Y-86778900D01*
X105079800Y-86686346D01*
X105079800Y-86433596D01*
X105270400Y-86242996D01*
X105270401Y-97738989D01*
X105030091Y-97979299D01*
X104780877Y-97606323D01*
X104428542Y-97370900D01*
X104780877Y-97135477D01*
X105098040Y-96660809D01*
X105209413Y-96100900D01*
X105098040Y-95540991D01*
X104780877Y-95066323D01*
X104428542Y-94830900D01*
X104780877Y-94595477D01*
X105098040Y-94120809D01*
X105209413Y-93560900D01*
X105098040Y-93000991D01*
X104780877Y-92526323D01*
X104397192Y-92269953D01*
X104601434Y-92173289D01*
X104977341Y-91758323D01*
X105138204Y-91369939D01*
X105016215Y-91147900D01*
X103873300Y-91147900D01*
X103873300Y-91167900D01*
X103619300Y-91167900D01*
X103619300Y-91147900D01*
X102476385Y-91147900D01*
X102354396Y-91369939D01*
X102515259Y-91758323D01*
X102891166Y-92173289D01*
X103095408Y-92269953D01*
X102711723Y-92526323D01*
X102394560Y-93000991D01*
X102283187Y-93560900D01*
X102394560Y-94120809D01*
X102711723Y-94595477D01*
X103064058Y-94830900D01*
X102711723Y-95066323D01*
X102394560Y-95540991D01*
X102283187Y-96100900D01*
X102394560Y-96660809D01*
X102711723Y-97135477D01*
X103064058Y-97370900D01*
X102711723Y-97606323D01*
X102394560Y-98080991D01*
X102283187Y-98640900D01*
X102394560Y-99200809D01*
X102711723Y-99675477D01*
X103032293Y-99889675D01*
X103022554Y-99938632D01*
X102711723Y-100146323D01*
X102394560Y-100620991D01*
X102283187Y-101180900D01*
X102394560Y-101740809D01*
X102711723Y-102215477D01*
X103064058Y-102450900D01*
X102711723Y-102686323D01*
X102394560Y-103160991D01*
X102283187Y-103720900D01*
X102394560Y-104280809D01*
X102711723Y-104755477D01*
X103186391Y-105072640D01*
X103604967Y-105155900D01*
X103887633Y-105155900D01*
X104306209Y-105072640D01*
X104780877Y-104755477D01*
X105098040Y-104280809D01*
X105209413Y-103720900D01*
X105098040Y-103160991D01*
X104780877Y-102686323D01*
X104428542Y-102450900D01*
X104780877Y-102215477D01*
X105098040Y-101740809D01*
X105209413Y-101180900D01*
X105098040Y-100620991D01*
X104847211Y-100245598D01*
X105739900Y-99352909D01*
X105739901Y-104640022D01*
X104245923Y-106134000D01*
X103854561Y-106134000D01*
X103327138Y-106352466D01*
X102923466Y-106756138D01*
X102896475Y-106821299D01*
X102893864Y-106814995D01*
X102647745Y-106740861D01*
X101819605Y-107569000D01*
X102647745Y-108397139D01*
X102893864Y-108323005D01*
X102896290Y-108316254D01*
X102923466Y-108381862D01*
X102997000Y-108455396D01*
X102997001Y-109849095D01*
X102902223Y-109912423D01*
X102585060Y-110387091D01*
X102473687Y-110947000D01*
X102585060Y-111506909D01*
X102902223Y-111981577D01*
X103285908Y-112237947D01*
X103081666Y-112334611D01*
X102705759Y-112749577D01*
X102544896Y-113137961D01*
X102666885Y-113360000D01*
X103809800Y-113360000D01*
X103809800Y-113340000D01*
X104063800Y-113340000D01*
X104063800Y-113360000D01*
X104083800Y-113360000D01*
X104083800Y-113614000D01*
X104063800Y-113614000D01*
X104063800Y-113634000D01*
X103809800Y-113634000D01*
X103809800Y-113614000D01*
X102666885Y-113614000D01*
X102544896Y-113836039D01*
X102705759Y-114224423D01*
X103081666Y-114639389D01*
X103285908Y-114736053D01*
X102902223Y-114992423D01*
X102585060Y-115467091D01*
X102473687Y-116027000D01*
X102585060Y-116586909D01*
X102902223Y-117061577D01*
X103285908Y-117317947D01*
X103081666Y-117414611D01*
X102705759Y-117829577D01*
X102544896Y-118217961D01*
X102666885Y-118440000D01*
X103809800Y-118440000D01*
X103809800Y-118420000D01*
X104063800Y-118420000D01*
X104063800Y-118440000D01*
X105206715Y-118440000D01*
X105328704Y-118217961D01*
X105167841Y-117829577D01*
X104791934Y-117414611D01*
X104587692Y-117317947D01*
X104971377Y-117061577D01*
X105288540Y-116586909D01*
X105399913Y-116027000D01*
X105288540Y-115467091D01*
X104971377Y-114992423D01*
X104587692Y-114736053D01*
X104791934Y-114639389D01*
X105167841Y-114224423D01*
X105328704Y-113836039D01*
X105206716Y-113614002D01*
X105371800Y-113614002D01*
X105371800Y-113495177D01*
X112363714Y-120487092D01*
X112416143Y-120565557D01*
X112494608Y-120617986D01*
X112494610Y-120617988D01*
X112645396Y-120718740D01*
X112727009Y-120773272D01*
X113001141Y-120827800D01*
X113001146Y-120827800D01*
X113093700Y-120846210D01*
X113186254Y-120827800D01*
X113304095Y-120827800D01*
X113367423Y-120922577D01*
X113719758Y-121158000D01*
X113367423Y-121393423D01*
X113050260Y-121868091D01*
X112938887Y-122428000D01*
X113050260Y-122987909D01*
X113367423Y-123462577D01*
X113719758Y-123698000D01*
X113367423Y-123933423D01*
X113050260Y-124408091D01*
X112938887Y-124968000D01*
X113050260Y-125527909D01*
X113367423Y-126002577D01*
X113719758Y-126238000D01*
X113367423Y-126473423D01*
X113050260Y-126948091D01*
X112938887Y-127508000D01*
X113050260Y-128067909D01*
X113367423Y-128542577D01*
X113842091Y-128859740D01*
X114260667Y-128943000D01*
X114543333Y-128943000D01*
X114961909Y-128859740D01*
X115436577Y-128542577D01*
X115753740Y-128067909D01*
X115865113Y-127508000D01*
X115753740Y-126948091D01*
X115436577Y-126473423D01*
X115084242Y-126238000D01*
X115436577Y-126002577D01*
X115753740Y-125527909D01*
X115865113Y-124968000D01*
X115753740Y-124408091D01*
X115436577Y-123933423D01*
X115084242Y-123698000D01*
X115436577Y-123462577D01*
X115753740Y-122987909D01*
X115865113Y-122428000D01*
X115753740Y-121868091D01*
X115436577Y-121393423D01*
X115084242Y-121158000D01*
X115436577Y-120922577D01*
X115499905Y-120827800D01*
X119897607Y-120827800D01*
X119918929Y-120934992D01*
X120074212Y-121167389D01*
X120074215Y-121167392D01*
X120126644Y-121245857D01*
X120205109Y-121298286D01*
X128340314Y-129433492D01*
X128392743Y-129511957D01*
X128471208Y-129564386D01*
X128471210Y-129564388D01*
X128634223Y-129673309D01*
X128703609Y-129719672D01*
X128977741Y-129774200D01*
X128977746Y-129774200D01*
X129070300Y-129792610D01*
X129162854Y-129774200D01*
X143106846Y-129774200D01*
X143199400Y-129792610D01*
X143291954Y-129774200D01*
X143291959Y-129774200D01*
X143566091Y-129719672D01*
X143876957Y-129511957D01*
X143929387Y-129433490D01*
X145101493Y-128261385D01*
X145179957Y-128208957D01*
X145293481Y-128039058D01*
X145387671Y-127898093D01*
X145387671Y-127898092D01*
X145387672Y-127898091D01*
X145442200Y-127623959D01*
X145442200Y-127623955D01*
X145460610Y-127531401D01*
X145442200Y-127438847D01*
X145442200Y-127105431D01*
X156615000Y-127105431D01*
X156615000Y-127994569D01*
X156955259Y-128816026D01*
X157583974Y-129444741D01*
X158405431Y-129785000D01*
X159294569Y-129785000D01*
X160116026Y-129444741D01*
X160744741Y-128816026D01*
X161085000Y-127994569D01*
X161085000Y-127105431D01*
X160744741Y-126283974D01*
X160116026Y-125655259D01*
X159294569Y-125315000D01*
X158405431Y-125315000D01*
X157583974Y-125655259D01*
X156955259Y-126283974D01*
X156615000Y-127105431D01*
X145442200Y-127105431D01*
X145442200Y-113149949D01*
X145460609Y-113057399D01*
X145442200Y-112964849D01*
X145442200Y-112964841D01*
X145387672Y-112690709D01*
X145362171Y-112652544D01*
X145232387Y-112458309D01*
X145232386Y-112458308D01*
X145179957Y-112379843D01*
X145101492Y-112327414D01*
X144632875Y-111858797D01*
X144655113Y-111747000D01*
X144543740Y-111187091D01*
X144234899Y-110724878D01*
X144363087Y-110596689D01*
X144441557Y-110544257D01*
X144642179Y-110244007D01*
X144649271Y-110233393D01*
X144649271Y-110233392D01*
X144649272Y-110233391D01*
X144703800Y-109959259D01*
X144703800Y-109959255D01*
X144722210Y-109866701D01*
X144703800Y-109774147D01*
X144703800Y-109547596D01*
X144853596Y-109397800D01*
X145622846Y-109397800D01*
X145715400Y-109416210D01*
X145807954Y-109397800D01*
X145807959Y-109397800D01*
X146082091Y-109343272D01*
X146278545Y-109212005D01*
X146314489Y-109187988D01*
X146392957Y-109135557D01*
X146445388Y-109057089D01*
X152878090Y-102624387D01*
X152956557Y-102571957D01*
X153072573Y-102398327D01*
X153164271Y-102261093D01*
X153164271Y-102261092D01*
X153164272Y-102261091D01*
X153218800Y-101986959D01*
X153218800Y-101986955D01*
X153237210Y-101894401D01*
X153218800Y-101801847D01*
X153218800Y-92801177D01*
X154661728Y-91358249D01*
X154731260Y-91707809D01*
X154982089Y-92083201D01*
X154506140Y-92559151D01*
X154444643Y-92600242D01*
X154403552Y-92661739D01*
X154403549Y-92661742D01*
X154281839Y-92843894D01*
X154224671Y-93131300D01*
X154239101Y-93203845D01*
X154239100Y-96621060D01*
X154224671Y-96693600D01*
X154239100Y-96766140D01*
X154239100Y-96766143D01*
X154281839Y-96981006D01*
X154444642Y-97224658D01*
X154506142Y-97265751D01*
X155018499Y-97778108D01*
X154731260Y-98207991D01*
X154619887Y-98767900D01*
X154731260Y-99327809D01*
X155048423Y-99802477D01*
X155400758Y-100037900D01*
X155048423Y-100273323D01*
X154731260Y-100747991D01*
X154619887Y-101307900D01*
X154731260Y-101867809D01*
X155048423Y-102342477D01*
X155400758Y-102577900D01*
X155048423Y-102813323D01*
X154731260Y-103287991D01*
X154619887Y-103847900D01*
X154731260Y-104407809D01*
X155048423Y-104882477D01*
X155523091Y-105199640D01*
X155941667Y-105282900D01*
X156224333Y-105282900D01*
X156642909Y-105199640D01*
X157117577Y-104882477D01*
X157434740Y-104407809D01*
X157546113Y-103847900D01*
X157434740Y-103287991D01*
X157117577Y-102813323D01*
X156765242Y-102577900D01*
X157117577Y-102342477D01*
X157434740Y-101867809D01*
X157546113Y-101307900D01*
X157434740Y-100747991D01*
X157117577Y-100273323D01*
X156765242Y-100037900D01*
X157117577Y-99802477D01*
X157434740Y-99327809D01*
X157546113Y-98767900D01*
X157434740Y-98207991D01*
X157117577Y-97733323D01*
X156806746Y-97525632D01*
X156797007Y-97476675D01*
X157117577Y-97262477D01*
X157434740Y-96787809D01*
X157546113Y-96227900D01*
X157434740Y-95667991D01*
X157117577Y-95193323D01*
X156765242Y-94957900D01*
X157117577Y-94722477D01*
X157434740Y-94247809D01*
X157546113Y-93687900D01*
X157434740Y-93127991D01*
X157117577Y-92653323D01*
X156797007Y-92439125D01*
X156806746Y-92390168D01*
X157117577Y-92182477D01*
X157434740Y-91707809D01*
X157546113Y-91147900D01*
X157434740Y-90587991D01*
X157117577Y-90113323D01*
X156765242Y-89877900D01*
X157117577Y-89642477D01*
X157434740Y-89167809D01*
X157546113Y-88607900D01*
X157434740Y-88047991D01*
X157125899Y-87585778D01*
X157190090Y-87521587D01*
X157268557Y-87469157D01*
X157474823Y-87160460D01*
X157476271Y-87158293D01*
X157476271Y-87158292D01*
X157476272Y-87158291D01*
X157530800Y-86884159D01*
X157530800Y-86884151D01*
X157549209Y-86791601D01*
X157530800Y-86699051D01*
X157530800Y-86560596D01*
X157807534Y-86283862D01*
X158026000Y-85756439D01*
X158026000Y-85185561D01*
X157807534Y-84658138D01*
X157403862Y-84254466D01*
X156876439Y-84036000D01*
X156305561Y-84036000D01*
X155778138Y-84254466D01*
X155374466Y-84658138D01*
X155347475Y-84723299D01*
X155344864Y-84716995D01*
X155098745Y-84642861D01*
X154270605Y-85471000D01*
X155098745Y-86299139D01*
X155344864Y-86225005D01*
X155347290Y-86218254D01*
X155374466Y-86283862D01*
X155572064Y-86481460D01*
X155483909Y-86569614D01*
X155405444Y-86622043D01*
X155353015Y-86700508D01*
X155353012Y-86700511D01*
X155197729Y-86932908D01*
X155124790Y-87299600D01*
X155143201Y-87392158D01*
X155143201Y-87509995D01*
X155048423Y-87573323D01*
X154731260Y-88047991D01*
X154619887Y-88607900D01*
X154642125Y-88719697D01*
X151679909Y-91681914D01*
X151601444Y-91734343D01*
X151549015Y-91812808D01*
X151549012Y-91812811D01*
X151393729Y-92045208D01*
X151320790Y-92411900D01*
X151339201Y-92504459D01*
X151339200Y-101505123D01*
X149705699Y-103138624D01*
X149694041Y-103110477D01*
X149318134Y-102695511D01*
X149113892Y-102598847D01*
X149497577Y-102342477D01*
X149814740Y-101867809D01*
X149926113Y-101307900D01*
X149814740Y-100747991D01*
X149497577Y-100273323D01*
X149145242Y-100037900D01*
X149497577Y-99802477D01*
X149814740Y-99327809D01*
X149926113Y-98767900D01*
X149814740Y-98207991D01*
X149497577Y-97733323D01*
X149145242Y-97497900D01*
X149497577Y-97262477D01*
X149814740Y-96787809D01*
X149926113Y-96227900D01*
X149814740Y-95667991D01*
X149497577Y-95193323D01*
X149145242Y-94957900D01*
X149497577Y-94722477D01*
X149814740Y-94247809D01*
X149926113Y-93687900D01*
X149814740Y-93127991D01*
X149527501Y-92698108D01*
X150088761Y-92136849D01*
X150150258Y-92095758D01*
X150191349Y-92034261D01*
X150191351Y-92034259D01*
X150313061Y-91852107D01*
X150336388Y-91734835D01*
X150355800Y-91637244D01*
X150355800Y-91637241D01*
X150370229Y-91564700D01*
X150355800Y-91492160D01*
X150355800Y-87804740D01*
X150370229Y-87732200D01*
X150355800Y-87659659D01*
X150355800Y-87659656D01*
X150313061Y-87444793D01*
X150282502Y-87399058D01*
X150191351Y-87262641D01*
X150191349Y-87262639D01*
X150150258Y-87201142D01*
X150088761Y-87160051D01*
X149407455Y-86478745D01*
X153262861Y-86478745D01*
X153336995Y-86724864D01*
X153874223Y-86917965D01*
X154444454Y-86890778D01*
X154845005Y-86724864D01*
X154919139Y-86478745D01*
X154091000Y-85650605D01*
X153262861Y-86478745D01*
X149407455Y-86478745D01*
X148182933Y-85254223D01*
X152644035Y-85254223D01*
X152671222Y-85824454D01*
X152837136Y-86225005D01*
X153083255Y-86299139D01*
X153911395Y-85471000D01*
X153083255Y-84642861D01*
X152837136Y-84716995D01*
X152644035Y-85254223D01*
X148182933Y-85254223D01*
X147391965Y-84463255D01*
X153262861Y-84463255D01*
X154091000Y-85291395D01*
X154919139Y-84463255D01*
X154845005Y-84217136D01*
X154307777Y-84024035D01*
X153737546Y-84051222D01*
X153336995Y-84217136D01*
X153262861Y-84463255D01*
X147391965Y-84463255D01*
X141700771Y-78772061D01*
X143777000Y-78772061D01*
X143777000Y-79342939D01*
X143995466Y-79870362D01*
X144399138Y-80274034D01*
X144926561Y-80492500D01*
X145497439Y-80492500D01*
X146024862Y-80274034D01*
X146428534Y-79870362D01*
X146647000Y-79342939D01*
X146647000Y-78772061D01*
X146428534Y-78244638D01*
X146024862Y-77840966D01*
X145497439Y-77622500D01*
X144926561Y-77622500D01*
X144399138Y-77840966D01*
X143995466Y-78244638D01*
X143777000Y-78772061D01*
X141700771Y-78772061D01*
X136511800Y-73583091D01*
X136511800Y-71202880D01*
X136580582Y-71248839D01*
X137013744Y-71335000D01*
X137306256Y-71335000D01*
X137739418Y-71248839D01*
X138230625Y-70920625D01*
X138430000Y-70622239D01*
X138629375Y-70920625D01*
X139120582Y-71248839D01*
X139553744Y-71335000D01*
X139846256Y-71335000D01*
X140279418Y-71248839D01*
X140770625Y-70920625D01*
X141098839Y-70429418D01*
X141214092Y-69850000D01*
X141098839Y-69270582D01*
X140770625Y-68779375D01*
X140472239Y-68580000D01*
X140770625Y-68380625D01*
X141098839Y-67889418D01*
X141214092Y-67310000D01*
X141098839Y-66730582D01*
X140770625Y-66239375D01*
X140279418Y-65911161D01*
X139846256Y-65825000D01*
X139553744Y-65825000D01*
X139120582Y-65911161D01*
X138629375Y-66239375D01*
X138430000Y-66537761D01*
X138230625Y-66239375D01*
X137739418Y-65911161D01*
X137306256Y-65825000D01*
X137013744Y-65825000D01*
X136580582Y-65911161D01*
X136089375Y-66239375D01*
X135890000Y-66537761D01*
X135690625Y-66239375D01*
X135199418Y-65911161D01*
X134766256Y-65825000D01*
X134473744Y-65825000D01*
X134040582Y-65911161D01*
X133644035Y-66176125D01*
X132715851Y-65247942D01*
X132674758Y-65186442D01*
X132431107Y-65023639D01*
X132216244Y-64980900D01*
X132216240Y-64980900D01*
X132143700Y-64966471D01*
X132071160Y-64980900D01*
X114310838Y-64980900D01*
X114238299Y-64966471D01*
X114165760Y-64980900D01*
X114165756Y-64980900D01*
X113950893Y-65023639D01*
X113707242Y-65186442D01*
X113666149Y-65247942D01*
X112737164Y-66176927D01*
X112339418Y-65911161D01*
X111906256Y-65825000D01*
X111613744Y-65825000D01*
X111180582Y-65911161D01*
X110810231Y-66158622D01*
X110289251Y-65637642D01*
X110248158Y-65576142D01*
X110004507Y-65413339D01*
X109789644Y-65370600D01*
X109789640Y-65370600D01*
X109717100Y-65356171D01*
X109644560Y-65370600D01*
X101195440Y-65370600D01*
X101122900Y-65356171D01*
X101050359Y-65370600D01*
X101050356Y-65370600D01*
X100835493Y-65413339D01*
X100653341Y-65535049D01*
X100653339Y-65535051D01*
X100591842Y-65576142D01*
X100550750Y-65637640D01*
X100021758Y-66166633D01*
X99639418Y-65911161D01*
X99206256Y-65825000D01*
X98913744Y-65825000D01*
X98480582Y-65911161D01*
X97989375Y-66239375D01*
X97790000Y-66537761D01*
X97590625Y-66239375D01*
X97099418Y-65911161D01*
X96666256Y-65825000D01*
X96373744Y-65825000D01*
X95940582Y-65911161D01*
X95449375Y-66239375D01*
X95236157Y-66558478D01*
X95175183Y-66428642D01*
X94746924Y-66038355D01*
X94336890Y-65868524D01*
X94107000Y-65989845D01*
X94107000Y-67183000D01*
X94127000Y-67183000D01*
X94127000Y-67437000D01*
X94107000Y-67437000D01*
X94107000Y-67457000D01*
X93853000Y-67457000D01*
X93853000Y-67437000D01*
X91567000Y-67437000D01*
X91567000Y-67457000D01*
X91313000Y-67457000D01*
X91313000Y-67437000D01*
X90119181Y-67437000D01*
X89998514Y-67666892D01*
X90244817Y-68191358D01*
X90451855Y-68380039D01*
X90342235Y-68401843D01*
X90132191Y-68542191D01*
X89991843Y-68752235D01*
X89942560Y-69000000D01*
X89942560Y-70700000D01*
X89991843Y-70947765D01*
X90132191Y-71157809D01*
X90342235Y-71298157D01*
X90590000Y-71347440D01*
X92290000Y-71347440D01*
X92537765Y-71298157D01*
X92747809Y-71157809D01*
X92888157Y-70947765D01*
X92897184Y-70902381D01*
X92909375Y-70920625D01*
X93400582Y-71248839D01*
X93833744Y-71335000D01*
X94126256Y-71335000D01*
X94513400Y-71257992D01*
X94513400Y-71787390D01*
X92075540Y-74225251D01*
X92014043Y-74266342D01*
X91972952Y-74327839D01*
X91972949Y-74327842D01*
X91851239Y-74509994D01*
X91794071Y-74797400D01*
X91808501Y-74869945D01*
X91808501Y-78651339D01*
X91738241Y-78618086D01*
X91516200Y-78739371D01*
X91516200Y-79883000D01*
X91536200Y-79883000D01*
X91536200Y-80137000D01*
X91516200Y-80137000D01*
X91516200Y-81280629D01*
X91738241Y-81401914D01*
X91808501Y-81368661D01*
X91808501Y-83072296D01*
X91789041Y-83063086D01*
X91567000Y-83184371D01*
X91567000Y-84328000D01*
X91587000Y-84328000D01*
X91587000Y-84582000D01*
X91567000Y-84582000D01*
X91567000Y-85725629D01*
X91789041Y-85846914D01*
X91808500Y-85837704D01*
X91808500Y-87499405D01*
X91725439Y-87465000D01*
X91154561Y-87465000D01*
X90627138Y-87683466D01*
X90223466Y-88087138D01*
X90005000Y-88614561D01*
X90005000Y-89185439D01*
X90223466Y-89712862D01*
X90627138Y-90116534D01*
X90703401Y-90148123D01*
X90703400Y-92731877D01*
X90627138Y-92763466D01*
X90223466Y-93167138D01*
X90005000Y-93694561D01*
X90005000Y-94265439D01*
X90223466Y-94792862D01*
X90627138Y-95196534D01*
X91154561Y-95415000D01*
X91725439Y-95415000D01*
X91808500Y-95380595D01*
X91808500Y-96544691D01*
X90970440Y-97382751D01*
X90908943Y-97423842D01*
X90867852Y-97485339D01*
X90867849Y-97485342D01*
X90746139Y-97667494D01*
X90716255Y-97817732D01*
X90405423Y-98025423D01*
X90088260Y-98500091D01*
X89976887Y-99060000D01*
X90088260Y-99619909D01*
X90405423Y-100094577D01*
X90703401Y-100293679D01*
X90703400Y-102151052D01*
X90333327Y-102398327D01*
X89994062Y-102906073D01*
X89874928Y-103505000D01*
X89994062Y-104103927D01*
X90333327Y-104611673D01*
X90431273Y-104677118D01*
X90277942Y-104830449D01*
X90216442Y-104871542D01*
X90053639Y-105115194D01*
X90010900Y-105330057D01*
X90010900Y-105330060D01*
X89996471Y-105402600D01*
X90010900Y-105475140D01*
X90010901Y-107705600D01*
X81065040Y-107705600D01*
X80992500Y-107691171D01*
X80919959Y-107705600D01*
X80919956Y-107705600D01*
X80707255Y-107747909D01*
X80705093Y-107748339D01*
X80522941Y-107870049D01*
X80522939Y-107870051D01*
X80461442Y-107911142D01*
X80420351Y-107972639D01*
X78147475Y-110245516D01*
X77957922Y-110167000D01*
X77307478Y-110167000D01*
X77117925Y-110245516D01*
X76477651Y-109605242D01*
X76436558Y-109543742D01*
X76192907Y-109380939D01*
X75978044Y-109338200D01*
X75978040Y-109338200D01*
X75905500Y-109323771D01*
X75832960Y-109338200D01*
X73596500Y-109338200D01*
X73596500Y-108454532D01*
X76659773Y-108454532D01*
X76758436Y-108721387D01*
X77368161Y-108947908D01*
X78018160Y-108923856D01*
X78506964Y-108721387D01*
X78605627Y-108454532D01*
X77632700Y-107481605D01*
X76659773Y-108454532D01*
X73596500Y-108454532D01*
X73596500Y-107037461D01*
X75986792Y-107037461D01*
X76010844Y-107687460D01*
X76213313Y-108176264D01*
X76480168Y-108274927D01*
X77453095Y-107302000D01*
X77812305Y-107302000D01*
X78785232Y-108274927D01*
X79052087Y-108176264D01*
X79278608Y-107566539D01*
X79254556Y-106916540D01*
X79052087Y-106427736D01*
X78785232Y-106329073D01*
X77812305Y-107302000D01*
X77453095Y-107302000D01*
X76480168Y-106329073D01*
X76213313Y-106427736D01*
X75986792Y-107037461D01*
X73596500Y-107037461D01*
X73596500Y-106149468D01*
X76659773Y-106149468D01*
X77632700Y-107122395D01*
X78605627Y-106149468D01*
X78506964Y-105882613D01*
X77897239Y-105656092D01*
X77247240Y-105680144D01*
X76758436Y-105882613D01*
X76659773Y-106149468D01*
X73596500Y-106149468D01*
X73596500Y-102528269D01*
X73707665Y-102506157D01*
X73917709Y-102365809D01*
X74058057Y-102155765D01*
X74107340Y-101908000D01*
X74107340Y-100708000D01*
X74058057Y-100460235D01*
X73917709Y-100250191D01*
X73784182Y-100160970D01*
X73838330Y-100106822D01*
X73722637Y-99991129D01*
X73948064Y-99941617D01*
X74107707Y-99476964D01*
X74077382Y-98986587D01*
X73948064Y-98674383D01*
X73722635Y-98624870D01*
X73039505Y-99308000D01*
X73053648Y-99322143D01*
X72874043Y-99501748D01*
X72859900Y-99487605D01*
X72845758Y-99501748D01*
X72666153Y-99322143D01*
X72680295Y-99308000D01*
X71997165Y-98624870D01*
X71771736Y-98674383D01*
X71612093Y-99139036D01*
X71642418Y-99629413D01*
X71771736Y-99941617D01*
X71997163Y-99991129D01*
X71881470Y-100106822D01*
X71935618Y-100160970D01*
X71802091Y-100250191D01*
X71661743Y-100460235D01*
X71612460Y-100708000D01*
X71612460Y-101908000D01*
X71661743Y-102155765D01*
X71802091Y-102365809D01*
X72012135Y-102506157D01*
X72123300Y-102528269D01*
X72123301Y-106131791D01*
X72105626Y-106149466D01*
X72006964Y-105882613D01*
X71397239Y-105656092D01*
X70747240Y-105680144D01*
X70258436Y-105882613D01*
X70159773Y-106149468D01*
X71132700Y-107122395D01*
X71146843Y-107108253D01*
X71326448Y-107287858D01*
X71312305Y-107302000D01*
X71326448Y-107316143D01*
X71146843Y-107495748D01*
X71132700Y-107481605D01*
X70159773Y-108454532D01*
X70258436Y-108721387D01*
X70868161Y-108947908D01*
X71518160Y-108923856D01*
X72006964Y-108721387D01*
X72105626Y-108454534D01*
X72123301Y-108472209D01*
X72123301Y-109769689D01*
X71647475Y-110245515D01*
X71457922Y-110167000D01*
X70807478Y-110167000D01*
X70206547Y-110415914D01*
X69746614Y-110875847D01*
X69497700Y-111476778D01*
X65532000Y-111476778D01*
X65532000Y-107037461D01*
X69486792Y-107037461D01*
X69510844Y-107687460D01*
X69713313Y-108176264D01*
X69980168Y-108274927D01*
X70953095Y-107302000D01*
X69980168Y-106329073D01*
X69713313Y-106427736D01*
X69486792Y-107037461D01*
X65532000Y-107037461D01*
X65532000Y-98445265D01*
X72176770Y-98445265D01*
X72859900Y-99128395D01*
X73543030Y-98445265D01*
X73493517Y-98219836D01*
X73028864Y-98060193D01*
X72538487Y-98090518D01*
X72226283Y-98219836D01*
X72176770Y-98445265D01*
X65532000Y-98445265D01*
X65532000Y-95396361D01*
X69062700Y-95396361D01*
X69062700Y-95967239D01*
X69281166Y-96494662D01*
X69684838Y-96898334D01*
X70212261Y-97116800D01*
X70783139Y-97116800D01*
X71310562Y-96898334D01*
X71714234Y-96494662D01*
X71932700Y-95967239D01*
X71932700Y-95396361D01*
X71714234Y-94868938D01*
X71310562Y-94465266D01*
X71245401Y-94438275D01*
X71251705Y-94435664D01*
X71325839Y-94189545D01*
X70497700Y-93361405D01*
X69669561Y-94189545D01*
X69743695Y-94435664D01*
X69750446Y-94438090D01*
X69684838Y-94465266D01*
X69281166Y-94868938D01*
X69062700Y-95396361D01*
X65532000Y-95396361D01*
X65532000Y-92965023D01*
X69050735Y-92965023D01*
X69077922Y-93535254D01*
X69243836Y-93935805D01*
X69489955Y-94009939D01*
X70318095Y-93181800D01*
X70677305Y-93181800D01*
X71505445Y-94009939D01*
X71751564Y-93935805D01*
X71944665Y-93398577D01*
X71940028Y-93301306D01*
X75183300Y-93301306D01*
X75183300Y-93852294D01*
X75394153Y-94361340D01*
X75783760Y-94750947D01*
X76292806Y-94961800D01*
X76843794Y-94961800D01*
X77352840Y-94750947D01*
X77742447Y-94361340D01*
X77953300Y-93852294D01*
X77953300Y-93301306D01*
X77742447Y-92792260D01*
X77352840Y-92402653D01*
X76843794Y-92191800D01*
X76292806Y-92191800D01*
X75783760Y-92402653D01*
X75394153Y-92792260D01*
X75183300Y-93301306D01*
X71940028Y-93301306D01*
X71917478Y-92828346D01*
X71751564Y-92427795D01*
X71505445Y-92353661D01*
X70677305Y-93181800D01*
X70318095Y-93181800D01*
X69489955Y-92353661D01*
X69243836Y-92427795D01*
X69050735Y-92965023D01*
X65532000Y-92965023D01*
X65532000Y-92174055D01*
X69669561Y-92174055D01*
X70497700Y-93002195D01*
X71325839Y-92174055D01*
X71251705Y-91927936D01*
X70714477Y-91734835D01*
X70144246Y-91762022D01*
X69743695Y-91927936D01*
X69669561Y-92174055D01*
X65532000Y-92174055D01*
X65532000Y-90286845D01*
X69669561Y-90286845D01*
X69743695Y-90532964D01*
X70280923Y-90726065D01*
X70851154Y-90698878D01*
X71251705Y-90532964D01*
X71325839Y-90286845D01*
X70497700Y-89458705D01*
X69669561Y-90286845D01*
X65532000Y-90286845D01*
X65532000Y-89062323D01*
X69050735Y-89062323D01*
X69077922Y-89632554D01*
X69243836Y-90033105D01*
X69489955Y-90107239D01*
X70318095Y-89279100D01*
X70677305Y-89279100D01*
X71505445Y-90107239D01*
X71751564Y-90033105D01*
X71944665Y-89495877D01*
X71917478Y-88925646D01*
X71751564Y-88525095D01*
X71505445Y-88450961D01*
X70677305Y-89279100D01*
X70318095Y-89279100D01*
X69489955Y-88450961D01*
X69243836Y-88525095D01*
X69050735Y-89062323D01*
X65532000Y-89062323D01*
X65532000Y-86493661D01*
X69062700Y-86493661D01*
X69062700Y-87064539D01*
X69281166Y-87591962D01*
X69684838Y-87995634D01*
X69749999Y-88022625D01*
X69743695Y-88025236D01*
X69669561Y-88271355D01*
X70497700Y-89099495D01*
X71175888Y-88421306D01*
X75183300Y-88421306D01*
X75183300Y-88972294D01*
X75394153Y-89481340D01*
X75783760Y-89870947D01*
X76292806Y-90081800D01*
X76843794Y-90081800D01*
X77352840Y-89870947D01*
X77742447Y-89481340D01*
X77953300Y-88972294D01*
X77953300Y-88421306D01*
X77742447Y-87912260D01*
X77352840Y-87522653D01*
X76843794Y-87311800D01*
X76292806Y-87311800D01*
X75783760Y-87522653D01*
X75394153Y-87912260D01*
X75183300Y-88421306D01*
X71175888Y-88421306D01*
X71325839Y-88271355D01*
X71251705Y-88025236D01*
X71244954Y-88022810D01*
X71310562Y-87995634D01*
X71714234Y-87591962D01*
X71932700Y-87064539D01*
X71932700Y-86493661D01*
X71714234Y-85966238D01*
X71310562Y-85562566D01*
X70783139Y-85344100D01*
X70212261Y-85344100D01*
X69684838Y-85562566D01*
X69281166Y-85966238D01*
X69062700Y-86493661D01*
X65532000Y-86493661D01*
X65532000Y-78627400D01*
X71287060Y-78627400D01*
X71287060Y-80427400D01*
X71336343Y-80675165D01*
X71476691Y-80885209D01*
X71686735Y-81025557D01*
X71934500Y-81074840D01*
X73734500Y-81074840D01*
X73982265Y-81025557D01*
X74192309Y-80885209D01*
X74332657Y-80675165D01*
X74335775Y-80659492D01*
X74504993Y-80828710D01*
X75069170Y-81062400D01*
X75580423Y-81062400D01*
X78981001Y-84462978D01*
X78981000Y-97608246D01*
X78962590Y-97700800D01*
X78981000Y-97793354D01*
X78981000Y-97793358D01*
X79035528Y-98067490D01*
X79035529Y-98067491D01*
X79035529Y-98067492D01*
X79152336Y-98242306D01*
X79243243Y-98378357D01*
X79321711Y-98430788D01*
X79845000Y-98954077D01*
X79845000Y-99345439D01*
X80063466Y-99872862D01*
X80340201Y-100149597D01*
X80340200Y-101965477D01*
X80132235Y-102006843D01*
X79922191Y-102147191D01*
X79781843Y-102357235D01*
X79732560Y-102605000D01*
X79732560Y-104405000D01*
X79781843Y-104652765D01*
X79922191Y-104862809D01*
X80132235Y-105003157D01*
X80380000Y-105052440D01*
X82180000Y-105052440D01*
X82427765Y-105003157D01*
X82637809Y-104862809D01*
X82778157Y-104652765D01*
X82827440Y-104405000D01*
X82827440Y-102605000D01*
X82778157Y-102357235D01*
X82637809Y-102147191D01*
X82427765Y-102006843D01*
X82219800Y-101965477D01*
X82219800Y-100149596D01*
X82496534Y-99872862D01*
X82715000Y-99345439D01*
X82715000Y-98774561D01*
X82496534Y-98247138D01*
X82092862Y-97843466D01*
X81565439Y-97625000D01*
X81174077Y-97625000D01*
X80860600Y-97311523D01*
X80860600Y-95359689D01*
X81138667Y-95415000D01*
X81421333Y-95415000D01*
X81839909Y-95331740D01*
X82314577Y-95014577D01*
X82631740Y-94539909D01*
X82743113Y-93980000D01*
X82631740Y-93420091D01*
X82314577Y-92945423D01*
X81839909Y-92628260D01*
X81421333Y-92545000D01*
X81138667Y-92545000D01*
X80860600Y-92600311D01*
X80860600Y-90279689D01*
X81138667Y-90335000D01*
X81421333Y-90335000D01*
X81839909Y-90251740D01*
X82314577Y-89934577D01*
X82631740Y-89459909D01*
X82743113Y-88900000D01*
X82631740Y-88340091D01*
X82314577Y-87865423D01*
X81839909Y-87548260D01*
X81421333Y-87465000D01*
X81138667Y-87465000D01*
X80860600Y-87520311D01*
X80860600Y-85834511D01*
X80994561Y-85890000D01*
X81565439Y-85890000D01*
X82092862Y-85671534D01*
X82496534Y-85267862D01*
X82688655Y-84804039D01*
X90048096Y-84804039D01*
X90208959Y-85192423D01*
X90584866Y-85607389D01*
X91090959Y-85846914D01*
X91313000Y-85725629D01*
X91313000Y-84582000D01*
X90170085Y-84582000D01*
X90048096Y-84804039D01*
X82688655Y-84804039D01*
X82715000Y-84740439D01*
X82715000Y-84169561D01*
X82688656Y-84105961D01*
X90048096Y-84105961D01*
X90170085Y-84328000D01*
X91313000Y-84328000D01*
X91313000Y-83184371D01*
X91090959Y-83063086D01*
X90584866Y-83302611D01*
X90208959Y-83717577D01*
X90048096Y-84105961D01*
X82688656Y-84105961D01*
X82496534Y-83642138D01*
X82092862Y-83238466D01*
X81565439Y-83020000D01*
X80994561Y-83020000D01*
X80467138Y-83238466D01*
X80440891Y-83264714D01*
X76909500Y-79733323D01*
X76909500Y-79724561D01*
X79794200Y-79724561D01*
X79794200Y-80295439D01*
X80012666Y-80822862D01*
X80416338Y-81226534D01*
X80943761Y-81445000D01*
X81514639Y-81445000D01*
X82042062Y-81226534D01*
X82445734Y-80822862D01*
X82637855Y-80359039D01*
X89997296Y-80359039D01*
X90158159Y-80747423D01*
X90534066Y-81162389D01*
X91040159Y-81401914D01*
X91262200Y-81280629D01*
X91262200Y-80137000D01*
X90119285Y-80137000D01*
X89997296Y-80359039D01*
X82637855Y-80359039D01*
X82664200Y-80295439D01*
X82664200Y-79724561D01*
X82637856Y-79660961D01*
X89997296Y-79660961D01*
X90119285Y-79883000D01*
X91262200Y-79883000D01*
X91262200Y-78739371D01*
X91040159Y-78618086D01*
X90534066Y-78857611D01*
X90158159Y-79272577D01*
X89997296Y-79660961D01*
X82637856Y-79660961D01*
X82445734Y-79197138D01*
X82042062Y-78793466D01*
X81514639Y-78575000D01*
X80943761Y-78575000D01*
X80416338Y-78793466D01*
X80012666Y-79197138D01*
X79794200Y-79724561D01*
X76909500Y-79724561D01*
X76909500Y-79222070D01*
X76675810Y-78657893D01*
X76244007Y-78226090D01*
X75679830Y-77992400D01*
X75069170Y-77992400D01*
X74504993Y-78226090D01*
X74335775Y-78395308D01*
X74332657Y-78379635D01*
X74192309Y-78169591D01*
X73982265Y-78029243D01*
X73734500Y-77979960D01*
X71934500Y-77979960D01*
X71686735Y-78029243D01*
X71476691Y-78169591D01*
X71336343Y-78379635D01*
X71287060Y-78627400D01*
X65532000Y-78627400D01*
X65532000Y-66953108D01*
X89998514Y-66953108D01*
X90119181Y-67183000D01*
X91313000Y-67183000D01*
X91313000Y-65989845D01*
X91567000Y-65989845D01*
X91567000Y-67183000D01*
X93853000Y-67183000D01*
X93853000Y-65989845D01*
X93623110Y-65868524D01*
X93213076Y-66038355D01*
X92784817Y-66428642D01*
X92710000Y-66587954D01*
X92635183Y-66428642D01*
X92206924Y-66038355D01*
X91796890Y-65868524D01*
X91567000Y-65989845D01*
X91313000Y-65989845D01*
X91083110Y-65868524D01*
X90673076Y-66038355D01*
X90244817Y-66428642D01*
X89998514Y-66953108D01*
X65532000Y-66953108D01*
X65532000Y-61255431D01*
X67540000Y-61255431D01*
X67540000Y-62144569D01*
X67880259Y-62966026D01*
X68508974Y-63594741D01*
X69330431Y-63935000D01*
X70219569Y-63935000D01*
X71041026Y-63594741D01*
X71669741Y-62966026D01*
X72010000Y-62144569D01*
X72010000Y-61255431D01*
X156590000Y-61255431D01*
X156590000Y-62144569D01*
X156930259Y-62966026D01*
X157558974Y-63594741D01*
X158380431Y-63935000D01*
X159269569Y-63935000D01*
X160091026Y-63594741D01*
X160719741Y-62966026D01*
X161060000Y-62144569D01*
X161060000Y-61255431D01*
X160719741Y-60433974D01*
X160091026Y-59805259D01*
X159269569Y-59465000D01*
X158380431Y-59465000D01*
X157558974Y-59805259D01*
X156930259Y-60433974D01*
X156590000Y-61255431D01*
X72010000Y-61255431D01*
X71669741Y-60433974D01*
X71041026Y-59805259D01*
X70219569Y-59465000D01*
X69330431Y-59465000D01*
X68508974Y-59805259D01*
X67880259Y-60433974D01*
X67540000Y-61255431D01*
X65532000Y-61255431D01*
X65532000Y-57912000D01*
X163068000Y-57912000D01*
X163068000Y-131318000D01*
G36*
X146785750Y-99237460D02*
X146826842Y-99298958D01*
X146888339Y-99340049D01*
X146888341Y-99340051D01*
X147018009Y-99426692D01*
X147070493Y-99461761D01*
X147220732Y-99491645D01*
X147428423Y-99802477D01*
X147780758Y-100037900D01*
X147428423Y-100273323D01*
X147111260Y-100747991D01*
X146999887Y-101307900D01*
X147111260Y-101867809D01*
X147428423Y-102342477D01*
X147812108Y-102598847D01*
X147607866Y-102695511D01*
X147231959Y-103110477D01*
X147071096Y-103498861D01*
X147193085Y-103720900D01*
X148336000Y-103720900D01*
X148336000Y-103700900D01*
X148590000Y-103700900D01*
X148590000Y-103720900D01*
X148610000Y-103720900D01*
X148610000Y-103974900D01*
X148590000Y-103974900D01*
X148590000Y-103994900D01*
X148336000Y-103994900D01*
X148336000Y-103974900D01*
X147193085Y-103974900D01*
X147071096Y-104196939D01*
X147231959Y-104585323D01*
X147607866Y-105000289D01*
X147768167Y-105076156D01*
X145326123Y-107518200D01*
X144853596Y-107518200D01*
X144576862Y-107241466D01*
X144049439Y-107023000D01*
X143478561Y-107023000D01*
X142951138Y-107241466D01*
X142547466Y-107645138D01*
X142520475Y-107710299D01*
X142517864Y-107703995D01*
X142271745Y-107629861D01*
X141443605Y-108458000D01*
X142271745Y-109286139D01*
X142517864Y-109212005D01*
X142520290Y-109205254D01*
X142547466Y-109270862D01*
X142789114Y-109512510D01*
X142592909Y-109708714D01*
X142514444Y-109761143D01*
X142462015Y-109839608D01*
X142462012Y-109839611D01*
X142306729Y-110072008D01*
X142233790Y-110438700D01*
X142252201Y-110531258D01*
X142252201Y-110649095D01*
X142157423Y-110712423D01*
X141840260Y-111187091D01*
X141728887Y-111747000D01*
X141840260Y-112306909D01*
X142157423Y-112781577D01*
X142509758Y-113017000D01*
X142157423Y-113252423D01*
X141840260Y-113727091D01*
X141728887Y-114287000D01*
X141840260Y-114846909D01*
X142157423Y-115321577D01*
X142509758Y-115557000D01*
X142157423Y-115792423D01*
X141840260Y-116267091D01*
X141728887Y-116827000D01*
X141840260Y-117386909D01*
X142127499Y-117816792D01*
X141580542Y-118363749D01*
X141519042Y-118404842D01*
X141356239Y-118648494D01*
X141313500Y-118863357D01*
X141313500Y-118863360D01*
X141299071Y-118935900D01*
X141313500Y-119008441D01*
X141313501Y-119816455D01*
X141299071Y-119889000D01*
X141356239Y-120176406D01*
X141477949Y-120358558D01*
X141477952Y-120358561D01*
X141519043Y-120420058D01*
X141580540Y-120461149D01*
X142091089Y-120971699D01*
X141840260Y-121347091D01*
X141728887Y-121907000D01*
X141840260Y-122466909D01*
X142157423Y-122941577D01*
X142509758Y-123177000D01*
X142157423Y-123412423D01*
X141840260Y-123887091D01*
X141728887Y-124447000D01*
X141840260Y-125006909D01*
X142157423Y-125481577D01*
X142509758Y-125717000D01*
X142157423Y-125952423D01*
X141840260Y-126427091D01*
X141728887Y-126987000D01*
X141840260Y-127546909D01*
X142072580Y-127894600D01*
X136648882Y-127894600D01*
X136803041Y-127724423D01*
X136963904Y-127336039D01*
X136841915Y-127114000D01*
X135699000Y-127114000D01*
X135699000Y-127134000D01*
X135445000Y-127134000D01*
X135445000Y-127114000D01*
X134302085Y-127114000D01*
X134180096Y-127336039D01*
X134340959Y-127724423D01*
X134495118Y-127894600D01*
X131028213Y-127894600D01*
X131105113Y-127508000D01*
X130993740Y-126948091D01*
X130706501Y-126518208D01*
X133843661Y-123381049D01*
X133905158Y-123339958D01*
X133946249Y-123278461D01*
X133946251Y-123278459D01*
X134067961Y-123096307D01*
X134082534Y-123023042D01*
X134110700Y-122881444D01*
X134110700Y-122881441D01*
X134125129Y-122808900D01*
X134110700Y-122736360D01*
X134110700Y-121916115D01*
X134220260Y-122466909D01*
X134537423Y-122941577D01*
X134857993Y-123155775D01*
X134848254Y-123204732D01*
X134537423Y-123412423D01*
X134220260Y-123887091D01*
X134108887Y-124447000D01*
X134220260Y-125006909D01*
X134537423Y-125481577D01*
X134921108Y-125737947D01*
X134716866Y-125834611D01*
X134340959Y-126249577D01*
X134180096Y-126637961D01*
X134302085Y-126860000D01*
X135445000Y-126860000D01*
X135445000Y-126840000D01*
X135699000Y-126840000D01*
X135699000Y-126860000D01*
X136841915Y-126860000D01*
X136963904Y-126637961D01*
X136803041Y-126249577D01*
X136427134Y-125834611D01*
X136222892Y-125737947D01*
X136606577Y-125481577D01*
X136923740Y-125006909D01*
X137035113Y-124447000D01*
X136923740Y-123887091D01*
X136636581Y-123457328D01*
X137553358Y-122540551D01*
X137614858Y-122499458D01*
X137777661Y-122255807D01*
X137820400Y-122040944D01*
X137820400Y-122040941D01*
X137834829Y-121968401D01*
X137820400Y-121895860D01*
X137820400Y-109465745D01*
X140435861Y-109465745D01*
X140509995Y-109711864D01*
X141047223Y-109904965D01*
X141617454Y-109877778D01*
X142018005Y-109711864D01*
X142092139Y-109465745D01*
X141264000Y-108637605D01*
X140435861Y-109465745D01*
X137820400Y-109465745D01*
X137820400Y-108241223D01*
X139817035Y-108241223D01*
X139844222Y-108811454D01*
X140010136Y-109212005D01*
X140256255Y-109286139D01*
X141084395Y-108458000D01*
X140256255Y-107629861D01*
X140010136Y-107703995D01*
X139817035Y-108241223D01*
X137820400Y-108241223D01*
X137820400Y-107450255D01*
X140435861Y-107450255D01*
X141264000Y-108278395D01*
X142092139Y-107450255D01*
X142018005Y-107204136D01*
X141480777Y-107011035D01*
X140910546Y-107038222D01*
X140509995Y-107204136D01*
X140435861Y-107450255D01*
X137820400Y-107450255D01*
X137820400Y-103835200D01*
X141640887Y-103835200D01*
X141752260Y-104395109D01*
X142069423Y-104869777D01*
X142544091Y-105186940D01*
X142962667Y-105270200D01*
X143245333Y-105270200D01*
X143663909Y-105186940D01*
X144138577Y-104869777D01*
X144455740Y-104395109D01*
X144567113Y-103835200D01*
X144455740Y-103275291D01*
X144138577Y-102800623D01*
X143754892Y-102544253D01*
X143959134Y-102447589D01*
X144335041Y-102032623D01*
X144495904Y-101644239D01*
X144373915Y-101422200D01*
X143231000Y-101422200D01*
X143231000Y-101442200D01*
X142977000Y-101442200D01*
X142977000Y-101422200D01*
X141834085Y-101422200D01*
X141712096Y-101644239D01*
X141872959Y-102032623D01*
X142248866Y-102447589D01*
X142453108Y-102544253D01*
X142069423Y-102800623D01*
X141752260Y-103275291D01*
X141640887Y-103835200D01*
X137820400Y-103835200D01*
X137820400Y-103480809D01*
X141854106Y-99447104D01*
X141872959Y-99492623D01*
X142248866Y-99907589D01*
X142497367Y-100025200D01*
X142248866Y-100142811D01*
X141872959Y-100557777D01*
X141712096Y-100946161D01*
X141834085Y-101168200D01*
X142977000Y-101168200D01*
X142977000Y-98882200D01*
X143231000Y-98882200D01*
X143231000Y-101168200D01*
X144373915Y-101168200D01*
X144495904Y-100946161D01*
X144335041Y-100557777D01*
X143959134Y-100142811D01*
X143710633Y-100025200D01*
X143959134Y-99907589D01*
X144335041Y-99492623D01*
X144495904Y-99104239D01*
X144373915Y-98882200D01*
X143231000Y-98882200D01*
X142977000Y-98882200D01*
X142957000Y-98882200D01*
X142957000Y-98628200D01*
X142977000Y-98628200D01*
X142977000Y-98608200D01*
X143231000Y-98608200D01*
X143231000Y-98628200D01*
X144373915Y-98628200D01*
X144495904Y-98406161D01*
X144482335Y-98373400D01*
X145921691Y-98373400D01*
X146785750Y-99237460D01*
X146785750Y-99237460D01*
G37*
X146785750Y-99237460D02*
X146826842Y-99298958D01*
X146888339Y-99340049D01*
X146888341Y-99340051D01*
X147018009Y-99426692D01*
X147070493Y-99461761D01*
X147220732Y-99491645D01*
X147428423Y-99802477D01*
X147780758Y-100037900D01*
X147428423Y-100273323D01*
X147111260Y-100747991D01*
X146999887Y-101307900D01*
X147111260Y-101867809D01*
X147428423Y-102342477D01*
X147812108Y-102598847D01*
X147607866Y-102695511D01*
X147231959Y-103110477D01*
X147071096Y-103498861D01*
X147193085Y-103720900D01*
X148336000Y-103720900D01*
X148336000Y-103700900D01*
X148590000Y-103700900D01*
X148590000Y-103720900D01*
X148610000Y-103720900D01*
X148610000Y-103974900D01*
X148590000Y-103974900D01*
X148590000Y-103994900D01*
X148336000Y-103994900D01*
X148336000Y-103974900D01*
X147193085Y-103974900D01*
X147071096Y-104196939D01*
X147231959Y-104585323D01*
X147607866Y-105000289D01*
X147768167Y-105076156D01*
X145326123Y-107518200D01*
X144853596Y-107518200D01*
X144576862Y-107241466D01*
X144049439Y-107023000D01*
X143478561Y-107023000D01*
X142951138Y-107241466D01*
X142547466Y-107645138D01*
X142520475Y-107710299D01*
X142517864Y-107703995D01*
X142271745Y-107629861D01*
X141443605Y-108458000D01*
X142271745Y-109286139D01*
X142517864Y-109212005D01*
X142520290Y-109205254D01*
X142547466Y-109270862D01*
X142789114Y-109512510D01*
X142592909Y-109708714D01*
X142514444Y-109761143D01*
X142462015Y-109839608D01*
X142462012Y-109839611D01*
X142306729Y-110072008D01*
X142233790Y-110438700D01*
X142252201Y-110531258D01*
X142252201Y-110649095D01*
X142157423Y-110712423D01*
X141840260Y-111187091D01*
X141728887Y-111747000D01*
X141840260Y-112306909D01*
X142157423Y-112781577D01*
X142509758Y-113017000D01*
X142157423Y-113252423D01*
X141840260Y-113727091D01*
X141728887Y-114287000D01*
X141840260Y-114846909D01*
X142157423Y-115321577D01*
X142509758Y-115557000D01*
X142157423Y-115792423D01*
X141840260Y-116267091D01*
X141728887Y-116827000D01*
X141840260Y-117386909D01*
X142127499Y-117816792D01*
X141580542Y-118363749D01*
X141519042Y-118404842D01*
X141356239Y-118648494D01*
X141313500Y-118863357D01*
X141313500Y-118863360D01*
X141299071Y-118935900D01*
X141313500Y-119008441D01*
X141313501Y-119816455D01*
X141299071Y-119889000D01*
X141356239Y-120176406D01*
X141477949Y-120358558D01*
X141477952Y-120358561D01*
X141519043Y-120420058D01*
X141580540Y-120461149D01*
X142091089Y-120971699D01*
X141840260Y-121347091D01*
X141728887Y-121907000D01*
X141840260Y-122466909D01*
X142157423Y-122941577D01*
X142509758Y-123177000D01*
X142157423Y-123412423D01*
X141840260Y-123887091D01*
X141728887Y-124447000D01*
X141840260Y-125006909D01*
X142157423Y-125481577D01*
X142509758Y-125717000D01*
X142157423Y-125952423D01*
X141840260Y-126427091D01*
X141728887Y-126987000D01*
X141840260Y-127546909D01*
X142072580Y-127894600D01*
X136648882Y-127894600D01*
X136803041Y-127724423D01*
X136963904Y-127336039D01*
X136841915Y-127114000D01*
X135699000Y-127114000D01*
X135699000Y-127134000D01*
X135445000Y-127134000D01*
X135445000Y-127114000D01*
X134302085Y-127114000D01*
X134180096Y-127336039D01*
X134340959Y-127724423D01*
X134495118Y-127894600D01*
X131028213Y-127894600D01*
X131105113Y-127508000D01*
X130993740Y-126948091D01*
X130706501Y-126518208D01*
X133843661Y-123381049D01*
X133905158Y-123339958D01*
X133946249Y-123278461D01*
X133946251Y-123278459D01*
X134067961Y-123096307D01*
X134082534Y-123023042D01*
X134110700Y-122881444D01*
X134110700Y-122881441D01*
X134125129Y-122808900D01*
X134110700Y-122736360D01*
X134110700Y-121916115D01*
X134220260Y-122466909D01*
X134537423Y-122941577D01*
X134857993Y-123155775D01*
X134848254Y-123204732D01*
X134537423Y-123412423D01*
X134220260Y-123887091D01*
X134108887Y-124447000D01*
X134220260Y-125006909D01*
X134537423Y-125481577D01*
X134921108Y-125737947D01*
X134716866Y-125834611D01*
X134340959Y-126249577D01*
X134180096Y-126637961D01*
X134302085Y-126860000D01*
X135445000Y-126860000D01*
X135445000Y-126840000D01*
X135699000Y-126840000D01*
X135699000Y-126860000D01*
X136841915Y-126860000D01*
X136963904Y-126637961D01*
X136803041Y-126249577D01*
X136427134Y-125834611D01*
X136222892Y-125737947D01*
X136606577Y-125481577D01*
X136923740Y-125006909D01*
X137035113Y-124447000D01*
X136923740Y-123887091D01*
X136636581Y-123457328D01*
X137553358Y-122540551D01*
X137614858Y-122499458D01*
X137777661Y-122255807D01*
X137820400Y-122040944D01*
X137820400Y-122040941D01*
X137834829Y-121968401D01*
X137820400Y-121895860D01*
X137820400Y-109465745D01*
X140435861Y-109465745D01*
X140509995Y-109711864D01*
X141047223Y-109904965D01*
X141617454Y-109877778D01*
X142018005Y-109711864D01*
X142092139Y-109465745D01*
X141264000Y-108637605D01*
X140435861Y-109465745D01*
X137820400Y-109465745D01*
X137820400Y-108241223D01*
X139817035Y-108241223D01*
X139844222Y-108811454D01*
X140010136Y-109212005D01*
X140256255Y-109286139D01*
X141084395Y-108458000D01*
X140256255Y-107629861D01*
X140010136Y-107703995D01*
X139817035Y-108241223D01*
X137820400Y-108241223D01*
X137820400Y-107450255D01*
X140435861Y-107450255D01*
X141264000Y-108278395D01*
X142092139Y-107450255D01*
X142018005Y-107204136D01*
X141480777Y-107011035D01*
X140910546Y-107038222D01*
X140509995Y-107204136D01*
X140435861Y-107450255D01*
X137820400Y-107450255D01*
X137820400Y-103835200D01*
X141640887Y-103835200D01*
X141752260Y-104395109D01*
X142069423Y-104869777D01*
X142544091Y-105186940D01*
X142962667Y-105270200D01*
X143245333Y-105270200D01*
X143663909Y-105186940D01*
X144138577Y-104869777D01*
X144455740Y-104395109D01*
X144567113Y-103835200D01*
X144455740Y-103275291D01*
X144138577Y-102800623D01*
X143754892Y-102544253D01*
X143959134Y-102447589D01*
X144335041Y-102032623D01*
X144495904Y-101644239D01*
X144373915Y-101422200D01*
X143231000Y-101422200D01*
X143231000Y-101442200D01*
X142977000Y-101442200D01*
X142977000Y-101422200D01*
X141834085Y-101422200D01*
X141712096Y-101644239D01*
X141872959Y-102032623D01*
X142248866Y-102447589D01*
X142453108Y-102544253D01*
X142069423Y-102800623D01*
X141752260Y-103275291D01*
X141640887Y-103835200D01*
X137820400Y-103835200D01*
X137820400Y-103480809D01*
X141854106Y-99447104D01*
X141872959Y-99492623D01*
X142248866Y-99907589D01*
X142497367Y-100025200D01*
X142248866Y-100142811D01*
X141872959Y-100557777D01*
X141712096Y-100946161D01*
X141834085Y-101168200D01*
X142977000Y-101168200D01*
X142977000Y-98882200D01*
X143231000Y-98882200D01*
X143231000Y-101168200D01*
X144373915Y-101168200D01*
X144495904Y-100946161D01*
X144335041Y-100557777D01*
X143959134Y-100142811D01*
X143710633Y-100025200D01*
X143959134Y-99907589D01*
X144335041Y-99492623D01*
X144495904Y-99104239D01*
X144373915Y-98882200D01*
X143231000Y-98882200D01*
X142977000Y-98882200D01*
X142957000Y-98882200D01*
X142957000Y-98628200D01*
X142977000Y-98628200D01*
X142977000Y-98608200D01*
X143231000Y-98608200D01*
X143231000Y-98628200D01*
X144373915Y-98628200D01*
X144495904Y-98406161D01*
X144482335Y-98373400D01*
X145921691Y-98373400D01*
X146785750Y-99237460D01*
G36*
X117124139Y-81689006D02*
X117245849Y-81871158D01*
X117245852Y-81871161D01*
X117286943Y-81932658D01*
X117348440Y-81973749D01*
X120818500Y-85443809D01*
X120818500Y-85696326D01*
X120982844Y-86093088D01*
X121286512Y-86396756D01*
X121683274Y-86561100D01*
X122017200Y-86561100D01*
X122017201Y-94843300D01*
X121807274Y-94843300D01*
X121410512Y-95007644D01*
X121106844Y-95311312D01*
X120942500Y-95708074D01*
X120942500Y-96137526D01*
X121106844Y-96534288D01*
X121410512Y-96837956D01*
X121807274Y-97002300D01*
X122236726Y-97002300D01*
X122574600Y-96862348D01*
X122574600Y-97651856D01*
X122396044Y-97830412D01*
X122231700Y-98227174D01*
X122231700Y-98656626D01*
X122396044Y-99053388D01*
X122699712Y-99357056D01*
X123096474Y-99521400D01*
X123525926Y-99521400D01*
X123922688Y-99357056D01*
X124099517Y-99180227D01*
X128577498Y-103658208D01*
X128290260Y-104088091D01*
X128178887Y-104648000D01*
X128290260Y-105207909D01*
X128581464Y-105643726D01*
X128023042Y-106202149D01*
X127961542Y-106243242D01*
X127798739Y-106486894D01*
X127756000Y-106701757D01*
X127756000Y-106701760D01*
X127741571Y-106774300D01*
X127756000Y-106846840D01*
X127756001Y-117789955D01*
X127741571Y-117862500D01*
X127798739Y-118149906D01*
X127920449Y-118332058D01*
X127920452Y-118332061D01*
X127961543Y-118393558D01*
X128023040Y-118434649D01*
X128541089Y-118952699D01*
X128290260Y-119328091D01*
X128178887Y-119888000D01*
X128290260Y-120447909D01*
X128607423Y-120922577D01*
X128959758Y-121158000D01*
X128607423Y-121393423D01*
X128290260Y-121868091D01*
X128178887Y-122428000D01*
X128290260Y-122987909D01*
X128570649Y-123407541D01*
X127992794Y-123985397D01*
X127558227Y-124387975D01*
X127484943Y-124436942D01*
X127411364Y-124547060D01*
X127333620Y-124654309D01*
X127330234Y-124668479D01*
X127322140Y-124680593D01*
X127296300Y-124810501D01*
X127265519Y-124939323D01*
X127279401Y-125026364D01*
X127279401Y-125574955D01*
X127209667Y-125644689D01*
X121794293Y-120229316D01*
X121954272Y-119989891D01*
X122008800Y-119715759D01*
X122008800Y-119715754D01*
X122027210Y-119623200D01*
X122008800Y-119530646D01*
X122008800Y-107947596D01*
X122090651Y-107865745D01*
X122740861Y-107865745D01*
X122814995Y-108111864D01*
X123352223Y-108304965D01*
X123922454Y-108277778D01*
X124323005Y-108111864D01*
X124397139Y-107865745D01*
X123569000Y-107037605D01*
X122740861Y-107865745D01*
X122090651Y-107865745D01*
X122285534Y-107670862D01*
X122312525Y-107605701D01*
X122315136Y-107612005D01*
X122561255Y-107686139D01*
X123389395Y-106858000D01*
X123748605Y-106858000D01*
X124576745Y-107686139D01*
X124822864Y-107612005D01*
X125015965Y-107074777D01*
X124988778Y-106504546D01*
X124822864Y-106103995D01*
X124576745Y-106029861D01*
X123748605Y-106858000D01*
X123389395Y-106858000D01*
X122561255Y-106029861D01*
X122315136Y-106103995D01*
X122312710Y-106110746D01*
X122285534Y-106045138D01*
X122090651Y-105850255D01*
X122740861Y-105850255D01*
X123569000Y-106678395D01*
X124397139Y-105850255D01*
X124323005Y-105604136D01*
X123785777Y-105411035D01*
X123215546Y-105438222D01*
X122814995Y-105604136D01*
X122740861Y-105850255D01*
X122090651Y-105850255D01*
X121881862Y-105641466D01*
X121354439Y-105423000D01*
X120783561Y-105423000D01*
X120256138Y-105641466D01*
X119852466Y-106045138D01*
X119634000Y-106572561D01*
X119634000Y-107143439D01*
X119852466Y-107670862D01*
X120129200Y-107947596D01*
X120129201Y-118948200D01*
X115499905Y-118948200D01*
X115436577Y-118853423D01*
X115084242Y-118618000D01*
X115436577Y-118382577D01*
X115753740Y-117907909D01*
X115865113Y-117348000D01*
X115753740Y-116788091D01*
X115462736Y-116352573D01*
X116019060Y-115796250D01*
X116080558Y-115755158D01*
X116121649Y-115693661D01*
X116121651Y-115693659D01*
X116243361Y-115511507D01*
X116248822Y-115484051D01*
X116286100Y-115296644D01*
X116286100Y-115296641D01*
X116300529Y-115224100D01*
X116286100Y-115151560D01*
X116286100Y-114455040D01*
X116300529Y-114382499D01*
X116286100Y-114309957D01*
X116286100Y-114309956D01*
X116243361Y-114095093D01*
X116220740Y-114061239D01*
X116121651Y-113912941D01*
X116121649Y-113912939D01*
X116080558Y-113851442D01*
X116019061Y-113810351D01*
X115466501Y-113257792D01*
X115753740Y-112827909D01*
X115865113Y-112268000D01*
X115753740Y-111708091D01*
X115436577Y-111233423D01*
X115084242Y-110998000D01*
X115436577Y-110762577D01*
X115753740Y-110287909D01*
X115865113Y-109728000D01*
X115753740Y-109168091D01*
X115466501Y-108738208D01*
X116820461Y-107384249D01*
X116881958Y-107343158D01*
X116923049Y-107281661D01*
X116923051Y-107281659D01*
X117044761Y-107099507D01*
X117044761Y-107099506D01*
X117087500Y-106884644D01*
X117087500Y-106884641D01*
X117101929Y-106812100D01*
X117087500Y-106739560D01*
X117087500Y-81504807D01*
X117124139Y-81689006D01*
X117124139Y-81689006D01*
G37*
X117124139Y-81689006D02*
X117245849Y-81871158D01*
X117245852Y-81871161D01*
X117286943Y-81932658D01*
X117348440Y-81973749D01*
X120818500Y-85443809D01*
X120818500Y-85696326D01*
X120982844Y-86093088D01*
X121286512Y-86396756D01*
X121683274Y-86561100D01*
X122017200Y-86561100D01*
X122017201Y-94843300D01*
X121807274Y-94843300D01*
X121410512Y-95007644D01*
X121106844Y-95311312D01*
X120942500Y-95708074D01*
X120942500Y-96137526D01*
X121106844Y-96534288D01*
X121410512Y-96837956D01*
X121807274Y-97002300D01*
X122236726Y-97002300D01*
X122574600Y-96862348D01*
X122574600Y-97651856D01*
X122396044Y-97830412D01*
X122231700Y-98227174D01*
X122231700Y-98656626D01*
X122396044Y-99053388D01*
X122699712Y-99357056D01*
X123096474Y-99521400D01*
X123525926Y-99521400D01*
X123922688Y-99357056D01*
X124099517Y-99180227D01*
X128577498Y-103658208D01*
X128290260Y-104088091D01*
X128178887Y-104648000D01*
X128290260Y-105207909D01*
X128581464Y-105643726D01*
X128023042Y-106202149D01*
X127961542Y-106243242D01*
X127798739Y-106486894D01*
X127756000Y-106701757D01*
X127756000Y-106701760D01*
X127741571Y-106774300D01*
X127756000Y-106846840D01*
X127756001Y-117789955D01*
X127741571Y-117862500D01*
X127798739Y-118149906D01*
X127920449Y-118332058D01*
X127920452Y-118332061D01*
X127961543Y-118393558D01*
X128023040Y-118434649D01*
X128541089Y-118952699D01*
X128290260Y-119328091D01*
X128178887Y-119888000D01*
X128290260Y-120447909D01*
X128607423Y-120922577D01*
X128959758Y-121158000D01*
X128607423Y-121393423D01*
X128290260Y-121868091D01*
X128178887Y-122428000D01*
X128290260Y-122987909D01*
X128570649Y-123407541D01*
X127992794Y-123985397D01*
X127558227Y-124387975D01*
X127484943Y-124436942D01*
X127411364Y-124547060D01*
X127333620Y-124654309D01*
X127330234Y-124668479D01*
X127322140Y-124680593D01*
X127296300Y-124810501D01*
X127265519Y-124939323D01*
X127279401Y-125026364D01*
X127279401Y-125574955D01*
X127209667Y-125644689D01*
X121794293Y-120229316D01*
X121954272Y-119989891D01*
X122008800Y-119715759D01*
X122008800Y-119715754D01*
X122027210Y-119623200D01*
X122008800Y-119530646D01*
X122008800Y-107947596D01*
X122090651Y-107865745D01*
X122740861Y-107865745D01*
X122814995Y-108111864D01*
X123352223Y-108304965D01*
X123922454Y-108277778D01*
X124323005Y-108111864D01*
X124397139Y-107865745D01*
X123569000Y-107037605D01*
X122740861Y-107865745D01*
X122090651Y-107865745D01*
X122285534Y-107670862D01*
X122312525Y-107605701D01*
X122315136Y-107612005D01*
X122561255Y-107686139D01*
X123389395Y-106858000D01*
X123748605Y-106858000D01*
X124576745Y-107686139D01*
X124822864Y-107612005D01*
X125015965Y-107074777D01*
X124988778Y-106504546D01*
X124822864Y-106103995D01*
X124576745Y-106029861D01*
X123748605Y-106858000D01*
X123389395Y-106858000D01*
X122561255Y-106029861D01*
X122315136Y-106103995D01*
X122312710Y-106110746D01*
X122285534Y-106045138D01*
X122090651Y-105850255D01*
X122740861Y-105850255D01*
X123569000Y-106678395D01*
X124397139Y-105850255D01*
X124323005Y-105604136D01*
X123785777Y-105411035D01*
X123215546Y-105438222D01*
X122814995Y-105604136D01*
X122740861Y-105850255D01*
X122090651Y-105850255D01*
X121881862Y-105641466D01*
X121354439Y-105423000D01*
X120783561Y-105423000D01*
X120256138Y-105641466D01*
X119852466Y-106045138D01*
X119634000Y-106572561D01*
X119634000Y-107143439D01*
X119852466Y-107670862D01*
X120129200Y-107947596D01*
X120129201Y-118948200D01*
X115499905Y-118948200D01*
X115436577Y-118853423D01*
X115084242Y-118618000D01*
X115436577Y-118382577D01*
X115753740Y-117907909D01*
X115865113Y-117348000D01*
X115753740Y-116788091D01*
X115462736Y-116352573D01*
X116019060Y-115796250D01*
X116080558Y-115755158D01*
X116121649Y-115693661D01*
X116121651Y-115693659D01*
X116243361Y-115511507D01*
X116248822Y-115484051D01*
X116286100Y-115296644D01*
X116286100Y-115296641D01*
X116300529Y-115224100D01*
X116286100Y-115151560D01*
X116286100Y-114455040D01*
X116300529Y-114382499D01*
X116286100Y-114309957D01*
X116286100Y-114309956D01*
X116243361Y-114095093D01*
X116220740Y-114061239D01*
X116121651Y-113912941D01*
X116121649Y-113912939D01*
X116080558Y-113851442D01*
X116019061Y-113810351D01*
X115466501Y-113257792D01*
X115753740Y-112827909D01*
X115865113Y-112268000D01*
X115753740Y-111708091D01*
X115436577Y-111233423D01*
X115084242Y-110998000D01*
X115436577Y-110762577D01*
X115753740Y-110287909D01*
X115865113Y-109728000D01*
X115753740Y-109168091D01*
X115466501Y-108738208D01*
X116820461Y-107384249D01*
X116881958Y-107343158D01*
X116923049Y-107281661D01*
X116923051Y-107281659D01*
X117044761Y-107099507D01*
X117044761Y-107099506D01*
X117087500Y-106884644D01*
X117087500Y-106884641D01*
X117101929Y-106812100D01*
X117087500Y-106739560D01*
X117087500Y-81504807D01*
X117124139Y-81689006D01*
G36*
X97053400Y-71373390D02*
X93850440Y-74576351D01*
X93788943Y-74617442D01*
X93747852Y-74678939D01*
X93747849Y-74678942D01*
X93626139Y-74861094D01*
X93568971Y-75148500D01*
X93583401Y-75221045D01*
X93583400Y-94222060D01*
X93568971Y-94294600D01*
X93583400Y-94367140D01*
X93583400Y-94367143D01*
X93626139Y-94582006D01*
X93788942Y-94825658D01*
X93850442Y-94866751D01*
X94733102Y-95749412D01*
X94663187Y-96100900D01*
X94774560Y-96660809D01*
X95091723Y-97135477D01*
X95444058Y-97370900D01*
X95091723Y-97606323D01*
X94774560Y-98080991D01*
X94663187Y-98640900D01*
X94774560Y-99200809D01*
X95091723Y-99675477D01*
X95412293Y-99889675D01*
X95402554Y-99938632D01*
X95091723Y-100146323D01*
X94774560Y-100620991D01*
X94663187Y-101180900D01*
X94774560Y-101740809D01*
X95091723Y-102215477D01*
X95475408Y-102471847D01*
X95271166Y-102568511D01*
X94895259Y-102983477D01*
X94734396Y-103371861D01*
X94856385Y-103593900D01*
X95999300Y-103593900D01*
X95999300Y-103573900D01*
X96253300Y-103573900D01*
X96253300Y-103593900D01*
X96273300Y-103593900D01*
X96273300Y-103847900D01*
X96253300Y-103847900D01*
X96253300Y-104991529D01*
X96475341Y-105112814D01*
X96915000Y-104904731D01*
X96915000Y-108201990D01*
X95847240Y-109269751D01*
X95785743Y-109310842D01*
X95744652Y-109372339D01*
X95744649Y-109372342D01*
X95659645Y-109499560D01*
X95516800Y-109499560D01*
X95269035Y-109548843D01*
X95058991Y-109689191D01*
X94918643Y-109899235D01*
X94869360Y-110147000D01*
X94869360Y-111747000D01*
X94918643Y-111994765D01*
X95058991Y-112204809D01*
X95269035Y-112345157D01*
X95402906Y-112371785D01*
X95282223Y-112452423D01*
X95033009Y-112825399D01*
X91484100Y-109276491D01*
X91484100Y-108514744D01*
X91498530Y-108442200D01*
X91484100Y-108369656D01*
X91484100Y-105707709D01*
X91909560Y-105282250D01*
X91971058Y-105241158D01*
X92012149Y-105179661D01*
X92012151Y-105179659D01*
X92133861Y-104997507D01*
X92146213Y-104935407D01*
X92159096Y-104870644D01*
X92546673Y-104611673D01*
X92885938Y-104103927D01*
X92892698Y-104069939D01*
X94734396Y-104069939D01*
X94895259Y-104458323D01*
X95271166Y-104873289D01*
X95777259Y-105112814D01*
X95999300Y-104991529D01*
X95999300Y-103847900D01*
X94856385Y-103847900D01*
X94734396Y-104069939D01*
X92892698Y-104069939D01*
X93005072Y-103505000D01*
X92885938Y-102906073D01*
X92546673Y-102398327D01*
X92176600Y-102151052D01*
X92176600Y-100293679D01*
X92474577Y-100094577D01*
X92791740Y-99619909D01*
X92903113Y-99060000D01*
X92791740Y-98500091D01*
X92474577Y-98025423D01*
X92436577Y-98000032D01*
X93014658Y-97421951D01*
X93076158Y-97380858D01*
X93238961Y-97137207D01*
X93281700Y-96922344D01*
X93281700Y-96922340D01*
X93296129Y-96849801D01*
X93281700Y-96777262D01*
X93281700Y-75102509D01*
X95719561Y-72664649D01*
X95781058Y-72623558D01*
X95822149Y-72562061D01*
X95822151Y-72562059D01*
X95943861Y-72379907D01*
X95972858Y-72234129D01*
X95986600Y-72165044D01*
X95986600Y-72165041D01*
X96001029Y-72092501D01*
X95986600Y-72019960D01*
X95986600Y-71257993D01*
X96373744Y-71335000D01*
X96666256Y-71335000D01*
X97053400Y-71257992D01*
X97053400Y-71373390D01*
X97053400Y-71373390D01*
G37*
X97053400Y-71373390D02*
X93850440Y-74576351D01*
X93788943Y-74617442D01*
X93747852Y-74678939D01*
X93747849Y-74678942D01*
X93626139Y-74861094D01*
X93568971Y-75148500D01*
X93583401Y-75221045D01*
X93583400Y-94222060D01*
X93568971Y-94294600D01*
X93583400Y-94367140D01*
X93583400Y-94367143D01*
X93626139Y-94582006D01*
X93788942Y-94825658D01*
X93850442Y-94866751D01*
X94733102Y-95749412D01*
X94663187Y-96100900D01*
X94774560Y-96660809D01*
X95091723Y-97135477D01*
X95444058Y-97370900D01*
X95091723Y-97606323D01*
X94774560Y-98080991D01*
X94663187Y-98640900D01*
X94774560Y-99200809D01*
X95091723Y-99675477D01*
X95412293Y-99889675D01*
X95402554Y-99938632D01*
X95091723Y-100146323D01*
X94774560Y-100620991D01*
X94663187Y-101180900D01*
X94774560Y-101740809D01*
X95091723Y-102215477D01*
X95475408Y-102471847D01*
X95271166Y-102568511D01*
X94895259Y-102983477D01*
X94734396Y-103371861D01*
X94856385Y-103593900D01*
X95999300Y-103593900D01*
X95999300Y-103573900D01*
X96253300Y-103573900D01*
X96253300Y-103593900D01*
X96273300Y-103593900D01*
X96273300Y-103847900D01*
X96253300Y-103847900D01*
X96253300Y-104991529D01*
X96475341Y-105112814D01*
X96915000Y-104904731D01*
X96915000Y-108201990D01*
X95847240Y-109269751D01*
X95785743Y-109310842D01*
X95744652Y-109372339D01*
X95744649Y-109372342D01*
X95659645Y-109499560D01*
X95516800Y-109499560D01*
X95269035Y-109548843D01*
X95058991Y-109689191D01*
X94918643Y-109899235D01*
X94869360Y-110147000D01*
X94869360Y-111747000D01*
X94918643Y-111994765D01*
X95058991Y-112204809D01*
X95269035Y-112345157D01*
X95402906Y-112371785D01*
X95282223Y-112452423D01*
X95033009Y-112825399D01*
X91484100Y-109276491D01*
X91484100Y-108514744D01*
X91498530Y-108442200D01*
X91484100Y-108369656D01*
X91484100Y-105707709D01*
X91909560Y-105282250D01*
X91971058Y-105241158D01*
X92012149Y-105179661D01*
X92012151Y-105179659D01*
X92133861Y-104997507D01*
X92146213Y-104935407D01*
X92159096Y-104870644D01*
X92546673Y-104611673D01*
X92885938Y-104103927D01*
X92892698Y-104069939D01*
X94734396Y-104069939D01*
X94895259Y-104458323D01*
X95271166Y-104873289D01*
X95777259Y-105112814D01*
X95999300Y-104991529D01*
X95999300Y-103847900D01*
X94856385Y-103847900D01*
X94734396Y-104069939D01*
X92892698Y-104069939D01*
X93005072Y-103505000D01*
X92885938Y-102906073D01*
X92546673Y-102398327D01*
X92176600Y-102151052D01*
X92176600Y-100293679D01*
X92474577Y-100094577D01*
X92791740Y-99619909D01*
X92903113Y-99060000D01*
X92791740Y-98500091D01*
X92474577Y-98025423D01*
X92436577Y-98000032D01*
X93014658Y-97421951D01*
X93076158Y-97380858D01*
X93238961Y-97137207D01*
X93281700Y-96922344D01*
X93281700Y-96922340D01*
X93296129Y-96849801D01*
X93281700Y-96777262D01*
X93281700Y-75102509D01*
X95719561Y-72664649D01*
X95781058Y-72623558D01*
X95822149Y-72562061D01*
X95822151Y-72562059D01*
X95943861Y-72379907D01*
X95972858Y-72234129D01*
X95986600Y-72165044D01*
X95986600Y-72165041D01*
X96001029Y-72092501D01*
X95986600Y-72019960D01*
X95986600Y-71257993D01*
X96373744Y-71335000D01*
X96666256Y-71335000D01*
X97053400Y-71257992D01*
X97053400Y-71373390D01*
G36*
X106961600Y-112426823D02*
X106184900Y-111650123D01*
X106184900Y-111039559D01*
X106203311Y-110947000D01*
X106140623Y-110631842D01*
X106130372Y-110580309D01*
X105922657Y-110269443D01*
X105898256Y-110253139D01*
X105611791Y-110061728D01*
X105337659Y-110007200D01*
X105245100Y-109988789D01*
X105152541Y-110007200D01*
X105034705Y-110007200D01*
X104971377Y-109912423D01*
X104876600Y-109849095D01*
X104876600Y-108817123D01*
X104952862Y-108785534D01*
X105356534Y-108381862D01*
X105575000Y-107854439D01*
X105575000Y-107463077D01*
X106961600Y-106076477D01*
X106961600Y-112426823D01*
X106961600Y-112426823D01*
G37*
X106961600Y-112426823D02*
X106184900Y-111650123D01*
X106184900Y-111039559D01*
X106203311Y-110947000D01*
X106140623Y-110631842D01*
X106130372Y-110580309D01*
X105922657Y-110269443D01*
X105898256Y-110253139D01*
X105611791Y-110061728D01*
X105337659Y-110007200D01*
X105245100Y-109988789D01*
X105152541Y-110007200D01*
X105034705Y-110007200D01*
X104971377Y-109912423D01*
X104876600Y-109849095D01*
X104876600Y-108817123D01*
X104952862Y-108785534D01*
X105356534Y-108381862D01*
X105575000Y-107854439D01*
X105575000Y-107463077D01*
X106961600Y-106076477D01*
X106961600Y-112426823D01*
G36*
X135611000Y-103708200D02*
X135631000Y-103708200D01*
X135631000Y-103962200D01*
X135611000Y-103962200D01*
X135611000Y-105105829D01*
X135833041Y-105227114D01*
X135940501Y-105176255D01*
X135940500Y-110299560D01*
X134958066Y-110299560D01*
X135072761Y-110127907D01*
X135078234Y-110100394D01*
X135115500Y-109913044D01*
X135115500Y-109913041D01*
X135129929Y-109840500D01*
X135115500Y-109767960D01*
X135115500Y-105217904D01*
X135134959Y-105227114D01*
X135357000Y-105105829D01*
X135357000Y-103962200D01*
X135337000Y-103962200D01*
X135337000Y-103708200D01*
X135357000Y-103708200D01*
X135357000Y-103688200D01*
X135611000Y-103688200D01*
X135611000Y-103708200D01*
X135611000Y-103708200D01*
G37*
X135611000Y-103708200D02*
X135631000Y-103708200D01*
X135631000Y-103962200D01*
X135611000Y-103962200D01*
X135611000Y-105105829D01*
X135833041Y-105227114D01*
X135940501Y-105176255D01*
X135940500Y-110299560D01*
X134958066Y-110299560D01*
X135072761Y-110127907D01*
X135078234Y-110100394D01*
X135115500Y-109913044D01*
X135115500Y-109913041D01*
X135129929Y-109840500D01*
X135115500Y-109767960D01*
X135115500Y-105217904D01*
X135134959Y-105227114D01*
X135357000Y-105105829D01*
X135357000Y-103962200D01*
X135337000Y-103962200D01*
X135337000Y-103708200D01*
X135357000Y-103708200D01*
X135357000Y-103688200D01*
X135611000Y-103688200D01*
X135611000Y-103708200D01*
G36*
X135038600Y-73815660D02*
X135024171Y-73888200D01*
X135038600Y-73960740D01*
X135038600Y-73960743D01*
X135078941Y-74163551D01*
X135081339Y-74175606D01*
X135192807Y-74342429D01*
X135244142Y-74419258D01*
X135305642Y-74460351D01*
X148005750Y-87160460D01*
X147663000Y-87160460D01*
X147415235Y-87209743D01*
X147205191Y-87350091D01*
X147064843Y-87560135D01*
X147015560Y-87807900D01*
X147015560Y-89407900D01*
X147064843Y-89655665D01*
X147205191Y-89865709D01*
X147415235Y-90006057D01*
X147549106Y-90032685D01*
X147428423Y-90113323D01*
X147220732Y-90424155D01*
X147084112Y-90451330D01*
X147070493Y-90454039D01*
X146888341Y-90575749D01*
X146888339Y-90575751D01*
X146826842Y-90616842D01*
X146785751Y-90678339D01*
X144391061Y-93073030D01*
X144335041Y-92937777D01*
X143959134Y-92522811D01*
X143710633Y-92405200D01*
X143959134Y-92287589D01*
X144335041Y-91872623D01*
X144495904Y-91484239D01*
X144373915Y-91262200D01*
X143231000Y-91262200D01*
X143231000Y-93548200D01*
X143251000Y-93548200D01*
X143251000Y-93802200D01*
X143231000Y-93802200D01*
X143231000Y-93822200D01*
X142977000Y-93822200D01*
X142977000Y-93802200D01*
X141834085Y-93802200D01*
X141712096Y-94024239D01*
X141872959Y-94412623D01*
X142075348Y-94636042D01*
X136477928Y-100233463D01*
X136134892Y-100004253D01*
X136339134Y-99907589D01*
X136715041Y-99492623D01*
X136875904Y-99104239D01*
X136753915Y-98882200D01*
X135611000Y-98882200D01*
X135611000Y-98902200D01*
X135357000Y-98902200D01*
X135357000Y-98882200D01*
X135337000Y-98882200D01*
X135337000Y-98628200D01*
X135357000Y-98628200D01*
X135357000Y-96342200D01*
X135611000Y-96342200D01*
X135611000Y-98628200D01*
X136753915Y-98628200D01*
X136875904Y-98406161D01*
X136715041Y-98017777D01*
X136339134Y-97602811D01*
X136090633Y-97485200D01*
X136339134Y-97367589D01*
X136715041Y-96952623D01*
X136875904Y-96564239D01*
X136753915Y-96342200D01*
X135611000Y-96342200D01*
X135357000Y-96342200D01*
X135337000Y-96342200D01*
X135337000Y-96088200D01*
X135357000Y-96088200D01*
X135357000Y-96068200D01*
X135611000Y-96068200D01*
X135611000Y-96088200D01*
X136753915Y-96088200D01*
X136875904Y-95866161D01*
X136715041Y-95477777D01*
X136339134Y-95062811D01*
X136134892Y-94966147D01*
X136518577Y-94709777D01*
X136835740Y-94235109D01*
X136947113Y-93675200D01*
X136835740Y-93115291D01*
X136518577Y-92640623D01*
X136198007Y-92426425D01*
X136207746Y-92377468D01*
X136518577Y-92169777D01*
X136835740Y-91695109D01*
X136877684Y-91484239D01*
X141712096Y-91484239D01*
X141872959Y-91872623D01*
X142248866Y-92287589D01*
X142497367Y-92405200D01*
X142248866Y-92522811D01*
X141872959Y-92937777D01*
X141712096Y-93326161D01*
X141834085Y-93548200D01*
X142977000Y-93548200D01*
X142977000Y-91262200D01*
X141834085Y-91262200D01*
X141712096Y-91484239D01*
X136877684Y-91484239D01*
X136947113Y-91135200D01*
X136835740Y-90575291D01*
X136518577Y-90100623D01*
X136397894Y-90019985D01*
X136531765Y-89993357D01*
X136741809Y-89853009D01*
X136882157Y-89642965D01*
X136931440Y-89395200D01*
X136931440Y-87795200D01*
X136882157Y-87547435D01*
X136741809Y-87337391D01*
X136531765Y-87197043D01*
X136284000Y-87147760D01*
X134684000Y-87147760D01*
X134436235Y-87197043D01*
X134226191Y-87337391D01*
X134085843Y-87547435D01*
X134036560Y-87795200D01*
X134036560Y-89395200D01*
X134085843Y-89642965D01*
X134196267Y-89808224D01*
X133183140Y-90821351D01*
X133121643Y-90862442D01*
X133080552Y-90923939D01*
X133080549Y-90923942D01*
X132958839Y-91106094D01*
X132901671Y-91393500D01*
X132916101Y-91466045D01*
X132916100Y-106985191D01*
X130889382Y-109011909D01*
X130676577Y-108693423D01*
X130292892Y-108437053D01*
X130497134Y-108340389D01*
X130873041Y-107925423D01*
X131033904Y-107537039D01*
X130911915Y-107315000D01*
X129769000Y-107315000D01*
X129769000Y-107335000D01*
X129515000Y-107335000D01*
X129515000Y-107315000D01*
X129495000Y-107315000D01*
X129495000Y-107061000D01*
X129515000Y-107061000D01*
X129515000Y-107041000D01*
X129769000Y-107041000D01*
X129769000Y-107061000D01*
X130911915Y-107061000D01*
X131033904Y-106838961D01*
X130873041Y-106450577D01*
X130669748Y-106226161D01*
X132461060Y-104434850D01*
X132522558Y-104393758D01*
X132563649Y-104332261D01*
X132563651Y-104332259D01*
X132685361Y-104150107D01*
X132711989Y-104016239D01*
X132728100Y-103935244D01*
X132728100Y-103935241D01*
X132742529Y-103862701D01*
X132728100Y-103790160D01*
X132728100Y-86351745D01*
X140308861Y-86351745D01*
X140382995Y-86597864D01*
X140920223Y-86790965D01*
X141490454Y-86763778D01*
X141891005Y-86597864D01*
X141965139Y-86351745D01*
X141137000Y-85523605D01*
X140308861Y-86351745D01*
X132728100Y-86351745D01*
X132728100Y-85127223D01*
X139690035Y-85127223D01*
X139717222Y-85697454D01*
X139883136Y-86098005D01*
X140129255Y-86172139D01*
X140957395Y-85344000D01*
X141316605Y-85344000D01*
X142144745Y-86172139D01*
X142390864Y-86098005D01*
X142393290Y-86091254D01*
X142420466Y-86156862D01*
X142662714Y-86399110D01*
X142504909Y-86556914D01*
X142426444Y-86609343D01*
X142374015Y-86687808D01*
X142374012Y-86687811D01*
X142218729Y-86920208D01*
X142145790Y-87286900D01*
X142164201Y-87379458D01*
X142164201Y-87497295D01*
X142069423Y-87560623D01*
X141752260Y-88035291D01*
X141640887Y-88595200D01*
X141752260Y-89155109D01*
X142069423Y-89629777D01*
X142453108Y-89886147D01*
X142248866Y-89982811D01*
X141872959Y-90397777D01*
X141712096Y-90786161D01*
X141834085Y-91008200D01*
X142977000Y-91008200D01*
X142977000Y-90988200D01*
X143231000Y-90988200D01*
X143231000Y-91008200D01*
X144373915Y-91008200D01*
X144495904Y-90786161D01*
X144335041Y-90397777D01*
X143959134Y-89982811D01*
X143754892Y-89886147D01*
X144138577Y-89629777D01*
X144455740Y-89155109D01*
X144567113Y-88595200D01*
X144455740Y-88035291D01*
X144146899Y-87573078D01*
X144236090Y-87483887D01*
X144314557Y-87431457D01*
X144394510Y-87311800D01*
X144522271Y-87120593D01*
X144522271Y-87120592D01*
X144522272Y-87120591D01*
X144576800Y-86846459D01*
X144576800Y-86846454D01*
X144595210Y-86753900D01*
X144576800Y-86661346D01*
X144576800Y-86433596D01*
X144853534Y-86156862D01*
X145072000Y-85629439D01*
X145072000Y-85058561D01*
X144853534Y-84531138D01*
X144449862Y-84127466D01*
X143922439Y-83909000D01*
X143351561Y-83909000D01*
X142824138Y-84127466D01*
X142420466Y-84531138D01*
X142393475Y-84596299D01*
X142390864Y-84589995D01*
X142144745Y-84515861D01*
X141316605Y-85344000D01*
X140957395Y-85344000D01*
X140129255Y-84515861D01*
X139883136Y-84589995D01*
X139690035Y-85127223D01*
X132728100Y-85127223D01*
X132728100Y-84336255D01*
X140308861Y-84336255D01*
X141137000Y-85164395D01*
X141965139Y-84336255D01*
X141891005Y-84090136D01*
X141353777Y-83897035D01*
X140783546Y-83924222D01*
X140382995Y-84090136D01*
X140308861Y-84336255D01*
X132728100Y-84336255D01*
X132728100Y-83528209D01*
X135521560Y-80734749D01*
X135583058Y-80693658D01*
X135624149Y-80632161D01*
X135624151Y-80632159D01*
X135745861Y-80450007D01*
X135755399Y-80402058D01*
X135775745Y-80299768D01*
X136086577Y-80092077D01*
X136403740Y-79617409D01*
X136515113Y-79057500D01*
X136403740Y-78497591D01*
X136086577Y-78022923D01*
X135611909Y-77705760D01*
X135193333Y-77622500D01*
X134910667Y-77622500D01*
X134492091Y-77705760D01*
X134017423Y-78022923D01*
X133700260Y-78497591D01*
X133588887Y-79057500D01*
X133700260Y-79617409D01*
X134017423Y-80092077D01*
X134055423Y-80117468D01*
X131521942Y-82650949D01*
X131460442Y-82692042D01*
X131297639Y-82935694D01*
X131254900Y-83150557D01*
X131254900Y-83150560D01*
X131240471Y-83223100D01*
X131254900Y-83295640D01*
X131254901Y-103557589D01*
X130885857Y-103926633D01*
X130676577Y-103613423D01*
X130365746Y-103405732D01*
X130356007Y-103356775D01*
X130676577Y-103142577D01*
X130993740Y-102667909D01*
X131105113Y-102108000D01*
X130993740Y-101548091D01*
X130676577Y-101073423D01*
X130365746Y-100865732D01*
X130356007Y-100816775D01*
X130676577Y-100602577D01*
X130993740Y-100127909D01*
X131105113Y-99568000D01*
X130993740Y-99008091D01*
X130676577Y-98533423D01*
X130365746Y-98325732D01*
X130356007Y-98276775D01*
X130676577Y-98062577D01*
X130993740Y-97587909D01*
X131105113Y-97028000D01*
X130993740Y-96468091D01*
X130676577Y-95993423D01*
X130365746Y-95785732D01*
X130356007Y-95736775D01*
X130676577Y-95522577D01*
X130993740Y-95047909D01*
X131105113Y-94488000D01*
X130993740Y-93928091D01*
X130676577Y-93453423D01*
X130365746Y-93245732D01*
X130356007Y-93196775D01*
X130676577Y-92982577D01*
X130993740Y-92507909D01*
X131105113Y-91948000D01*
X130993740Y-91388091D01*
X130676577Y-90913423D01*
X130365746Y-90705732D01*
X130356007Y-90656775D01*
X130676577Y-90442577D01*
X130993740Y-89967909D01*
X131105113Y-89408000D01*
X130993740Y-88848091D01*
X130676577Y-88373423D01*
X130365746Y-88165732D01*
X130356007Y-88116775D01*
X130676577Y-87902577D01*
X130993740Y-87427909D01*
X131105113Y-86868000D01*
X130993740Y-86308091D01*
X130676577Y-85833423D01*
X130365746Y-85625732D01*
X130356007Y-85576775D01*
X130676577Y-85362577D01*
X130993740Y-84887909D01*
X131105113Y-84328000D01*
X130993740Y-83768091D01*
X130676577Y-83293423D01*
X130365746Y-83085732D01*
X130356007Y-83036775D01*
X130676577Y-82822577D01*
X130993740Y-82347909D01*
X131105113Y-81788000D01*
X130993740Y-81228091D01*
X130676577Y-80753423D01*
X130365746Y-80545732D01*
X130356007Y-80496775D01*
X130676577Y-80282577D01*
X130993740Y-79807909D01*
X131105113Y-79248000D01*
X130993740Y-78688091D01*
X130676577Y-78213423D01*
X130638577Y-78188032D01*
X135038600Y-73788010D01*
X135038600Y-73815660D01*
X135038600Y-73815660D01*
G37*
X135038600Y-73815660D02*
X135024171Y-73888200D01*
X135038600Y-73960740D01*
X135038600Y-73960743D01*
X135078941Y-74163551D01*
X135081339Y-74175606D01*
X135192807Y-74342429D01*
X135244142Y-74419258D01*
X135305642Y-74460351D01*
X148005750Y-87160460D01*
X147663000Y-87160460D01*
X147415235Y-87209743D01*
X147205191Y-87350091D01*
X147064843Y-87560135D01*
X147015560Y-87807900D01*
X147015560Y-89407900D01*
X147064843Y-89655665D01*
X147205191Y-89865709D01*
X147415235Y-90006057D01*
X147549106Y-90032685D01*
X147428423Y-90113323D01*
X147220732Y-90424155D01*
X147084112Y-90451330D01*
X147070493Y-90454039D01*
X146888341Y-90575749D01*
X146888339Y-90575751D01*
X146826842Y-90616842D01*
X146785751Y-90678339D01*
X144391061Y-93073030D01*
X144335041Y-92937777D01*
X143959134Y-92522811D01*
X143710633Y-92405200D01*
X143959134Y-92287589D01*
X144335041Y-91872623D01*
X144495904Y-91484239D01*
X144373915Y-91262200D01*
X143231000Y-91262200D01*
X143231000Y-93548200D01*
X143251000Y-93548200D01*
X143251000Y-93802200D01*
X143231000Y-93802200D01*
X143231000Y-93822200D01*
X142977000Y-93822200D01*
X142977000Y-93802200D01*
X141834085Y-93802200D01*
X141712096Y-94024239D01*
X141872959Y-94412623D01*
X142075348Y-94636042D01*
X136477928Y-100233463D01*
X136134892Y-100004253D01*
X136339134Y-99907589D01*
X136715041Y-99492623D01*
X136875904Y-99104239D01*
X136753915Y-98882200D01*
X135611000Y-98882200D01*
X135611000Y-98902200D01*
X135357000Y-98902200D01*
X135357000Y-98882200D01*
X135337000Y-98882200D01*
X135337000Y-98628200D01*
X135357000Y-98628200D01*
X135357000Y-96342200D01*
X135611000Y-96342200D01*
X135611000Y-98628200D01*
X136753915Y-98628200D01*
X136875904Y-98406161D01*
X136715041Y-98017777D01*
X136339134Y-97602811D01*
X136090633Y-97485200D01*
X136339134Y-97367589D01*
X136715041Y-96952623D01*
X136875904Y-96564239D01*
X136753915Y-96342200D01*
X135611000Y-96342200D01*
X135357000Y-96342200D01*
X135337000Y-96342200D01*
X135337000Y-96088200D01*
X135357000Y-96088200D01*
X135357000Y-96068200D01*
X135611000Y-96068200D01*
X135611000Y-96088200D01*
X136753915Y-96088200D01*
X136875904Y-95866161D01*
X136715041Y-95477777D01*
X136339134Y-95062811D01*
X136134892Y-94966147D01*
X136518577Y-94709777D01*
X136835740Y-94235109D01*
X136947113Y-93675200D01*
X136835740Y-93115291D01*
X136518577Y-92640623D01*
X136198007Y-92426425D01*
X136207746Y-92377468D01*
X136518577Y-92169777D01*
X136835740Y-91695109D01*
X136877684Y-91484239D01*
X141712096Y-91484239D01*
X141872959Y-91872623D01*
X142248866Y-92287589D01*
X142497367Y-92405200D01*
X142248866Y-92522811D01*
X141872959Y-92937777D01*
X141712096Y-93326161D01*
X141834085Y-93548200D01*
X142977000Y-93548200D01*
X142977000Y-91262200D01*
X141834085Y-91262200D01*
X141712096Y-91484239D01*
X136877684Y-91484239D01*
X136947113Y-91135200D01*
X136835740Y-90575291D01*
X136518577Y-90100623D01*
X136397894Y-90019985D01*
X136531765Y-89993357D01*
X136741809Y-89853009D01*
X136882157Y-89642965D01*
X136931440Y-89395200D01*
X136931440Y-87795200D01*
X136882157Y-87547435D01*
X136741809Y-87337391D01*
X136531765Y-87197043D01*
X136284000Y-87147760D01*
X134684000Y-87147760D01*
X134436235Y-87197043D01*
X134226191Y-87337391D01*
X134085843Y-87547435D01*
X134036560Y-87795200D01*
X134036560Y-89395200D01*
X134085843Y-89642965D01*
X134196267Y-89808224D01*
X133183140Y-90821351D01*
X133121643Y-90862442D01*
X133080552Y-90923939D01*
X133080549Y-90923942D01*
X132958839Y-91106094D01*
X132901671Y-91393500D01*
X132916101Y-91466045D01*
X132916100Y-106985191D01*
X130889382Y-109011909D01*
X130676577Y-108693423D01*
X130292892Y-108437053D01*
X130497134Y-108340389D01*
X130873041Y-107925423D01*
X131033904Y-107537039D01*
X130911915Y-107315000D01*
X129769000Y-107315000D01*
X129769000Y-107335000D01*
X129515000Y-107335000D01*
X129515000Y-107315000D01*
X129495000Y-107315000D01*
X129495000Y-107061000D01*
X129515000Y-107061000D01*
X129515000Y-107041000D01*
X129769000Y-107041000D01*
X129769000Y-107061000D01*
X130911915Y-107061000D01*
X131033904Y-106838961D01*
X130873041Y-106450577D01*
X130669748Y-106226161D01*
X132461060Y-104434850D01*
X132522558Y-104393758D01*
X132563649Y-104332261D01*
X132563651Y-104332259D01*
X132685361Y-104150107D01*
X132711989Y-104016239D01*
X132728100Y-103935244D01*
X132728100Y-103935241D01*
X132742529Y-103862701D01*
X132728100Y-103790160D01*
X132728100Y-86351745D01*
X140308861Y-86351745D01*
X140382995Y-86597864D01*
X140920223Y-86790965D01*
X141490454Y-86763778D01*
X141891005Y-86597864D01*
X141965139Y-86351745D01*
X141137000Y-85523605D01*
X140308861Y-86351745D01*
X132728100Y-86351745D01*
X132728100Y-85127223D01*
X139690035Y-85127223D01*
X139717222Y-85697454D01*
X139883136Y-86098005D01*
X140129255Y-86172139D01*
X140957395Y-85344000D01*
X141316605Y-85344000D01*
X142144745Y-86172139D01*
X142390864Y-86098005D01*
X142393290Y-86091254D01*
X142420466Y-86156862D01*
X142662714Y-86399110D01*
X142504909Y-86556914D01*
X142426444Y-86609343D01*
X142374015Y-86687808D01*
X142374012Y-86687811D01*
X142218729Y-86920208D01*
X142145790Y-87286900D01*
X142164201Y-87379458D01*
X142164201Y-87497295D01*
X142069423Y-87560623D01*
X141752260Y-88035291D01*
X141640887Y-88595200D01*
X141752260Y-89155109D01*
X142069423Y-89629777D01*
X142453108Y-89886147D01*
X142248866Y-89982811D01*
X141872959Y-90397777D01*
X141712096Y-90786161D01*
X141834085Y-91008200D01*
X142977000Y-91008200D01*
X142977000Y-90988200D01*
X143231000Y-90988200D01*
X143231000Y-91008200D01*
X144373915Y-91008200D01*
X144495904Y-90786161D01*
X144335041Y-90397777D01*
X143959134Y-89982811D01*
X143754892Y-89886147D01*
X144138577Y-89629777D01*
X144455740Y-89155109D01*
X144567113Y-88595200D01*
X144455740Y-88035291D01*
X144146899Y-87573078D01*
X144236090Y-87483887D01*
X144314557Y-87431457D01*
X144394510Y-87311800D01*
X144522271Y-87120593D01*
X144522271Y-87120592D01*
X144522272Y-87120591D01*
X144576800Y-86846459D01*
X144576800Y-86846454D01*
X144595210Y-86753900D01*
X144576800Y-86661346D01*
X144576800Y-86433596D01*
X144853534Y-86156862D01*
X145072000Y-85629439D01*
X145072000Y-85058561D01*
X144853534Y-84531138D01*
X144449862Y-84127466D01*
X143922439Y-83909000D01*
X143351561Y-83909000D01*
X142824138Y-84127466D01*
X142420466Y-84531138D01*
X142393475Y-84596299D01*
X142390864Y-84589995D01*
X142144745Y-84515861D01*
X141316605Y-85344000D01*
X140957395Y-85344000D01*
X140129255Y-84515861D01*
X139883136Y-84589995D01*
X139690035Y-85127223D01*
X132728100Y-85127223D01*
X132728100Y-84336255D01*
X140308861Y-84336255D01*
X141137000Y-85164395D01*
X141965139Y-84336255D01*
X141891005Y-84090136D01*
X141353777Y-83897035D01*
X140783546Y-83924222D01*
X140382995Y-84090136D01*
X140308861Y-84336255D01*
X132728100Y-84336255D01*
X132728100Y-83528209D01*
X135521560Y-80734749D01*
X135583058Y-80693658D01*
X135624149Y-80632161D01*
X135624151Y-80632159D01*
X135745861Y-80450007D01*
X135755399Y-80402058D01*
X135775745Y-80299768D01*
X136086577Y-80092077D01*
X136403740Y-79617409D01*
X136515113Y-79057500D01*
X136403740Y-78497591D01*
X136086577Y-78022923D01*
X135611909Y-77705760D01*
X135193333Y-77622500D01*
X134910667Y-77622500D01*
X134492091Y-77705760D01*
X134017423Y-78022923D01*
X133700260Y-78497591D01*
X133588887Y-79057500D01*
X133700260Y-79617409D01*
X134017423Y-80092077D01*
X134055423Y-80117468D01*
X131521942Y-82650949D01*
X131460442Y-82692042D01*
X131297639Y-82935694D01*
X131254900Y-83150557D01*
X131254900Y-83150560D01*
X131240471Y-83223100D01*
X131254900Y-83295640D01*
X131254901Y-103557589D01*
X130885857Y-103926633D01*
X130676577Y-103613423D01*
X130365746Y-103405732D01*
X130356007Y-103356775D01*
X130676577Y-103142577D01*
X130993740Y-102667909D01*
X131105113Y-102108000D01*
X130993740Y-101548091D01*
X130676577Y-101073423D01*
X130365746Y-100865732D01*
X130356007Y-100816775D01*
X130676577Y-100602577D01*
X130993740Y-100127909D01*
X131105113Y-99568000D01*
X130993740Y-99008091D01*
X130676577Y-98533423D01*
X130365746Y-98325732D01*
X130356007Y-98276775D01*
X130676577Y-98062577D01*
X130993740Y-97587909D01*
X131105113Y-97028000D01*
X130993740Y-96468091D01*
X130676577Y-95993423D01*
X130365746Y-95785732D01*
X130356007Y-95736775D01*
X130676577Y-95522577D01*
X130993740Y-95047909D01*
X131105113Y-94488000D01*
X130993740Y-93928091D01*
X130676577Y-93453423D01*
X130365746Y-93245732D01*
X130356007Y-93196775D01*
X130676577Y-92982577D01*
X130993740Y-92507909D01*
X131105113Y-91948000D01*
X130993740Y-91388091D01*
X130676577Y-90913423D01*
X130365746Y-90705732D01*
X130356007Y-90656775D01*
X130676577Y-90442577D01*
X130993740Y-89967909D01*
X131105113Y-89408000D01*
X130993740Y-88848091D01*
X130676577Y-88373423D01*
X130365746Y-88165732D01*
X130356007Y-88116775D01*
X130676577Y-87902577D01*
X130993740Y-87427909D01*
X131105113Y-86868000D01*
X130993740Y-86308091D01*
X130676577Y-85833423D01*
X130365746Y-85625732D01*
X130356007Y-85576775D01*
X130676577Y-85362577D01*
X130993740Y-84887909D01*
X131105113Y-84328000D01*
X130993740Y-83768091D01*
X130676577Y-83293423D01*
X130365746Y-83085732D01*
X130356007Y-83036775D01*
X130676577Y-82822577D01*
X130993740Y-82347909D01*
X131105113Y-81788000D01*
X130993740Y-81228091D01*
X130676577Y-80753423D01*
X130365746Y-80545732D01*
X130356007Y-80496775D01*
X130676577Y-80282577D01*
X130993740Y-79807909D01*
X131105113Y-79248000D01*
X130993740Y-78688091D01*
X130676577Y-78213423D01*
X130638577Y-78188032D01*
X135038600Y-73788010D01*
X135038600Y-73815660D01*
G36*
X147428423Y-92182477D02*
X147748993Y-92396675D01*
X147739254Y-92445632D01*
X147428423Y-92653323D01*
X147111260Y-93127991D01*
X146999887Y-93687900D01*
X147111260Y-94247809D01*
X147428423Y-94722477D01*
X147780758Y-94957900D01*
X147428423Y-95193323D01*
X147111260Y-95667991D01*
X146999887Y-96227900D01*
X147111260Y-96787809D01*
X147428423Y-97262477D01*
X147780758Y-97497900D01*
X147428423Y-97733323D01*
X147403032Y-97771323D01*
X146798951Y-97167242D01*
X146757858Y-97105742D01*
X146514207Y-96942939D01*
X146299344Y-96900200D01*
X146299340Y-96900200D01*
X146226800Y-96885771D01*
X146154260Y-96900200D01*
X144372157Y-96900200D01*
X144455740Y-96775109D01*
X144567113Y-96215200D01*
X144455740Y-95655291D01*
X144230025Y-95317484D01*
X147403032Y-92144477D01*
X147428423Y-92182477D01*
X147428423Y-92182477D01*
G37*
X147428423Y-92182477D02*
X147748993Y-92396675D01*
X147739254Y-92445632D01*
X147428423Y-92653323D01*
X147111260Y-93127991D01*
X146999887Y-93687900D01*
X147111260Y-94247809D01*
X147428423Y-94722477D01*
X147780758Y-94957900D01*
X147428423Y-95193323D01*
X147111260Y-95667991D01*
X146999887Y-96227900D01*
X147111260Y-96787809D01*
X147428423Y-97262477D01*
X147780758Y-97497900D01*
X147428423Y-97733323D01*
X147403032Y-97771323D01*
X146798951Y-97167242D01*
X146757858Y-97105742D01*
X146514207Y-96942939D01*
X146299344Y-96900200D01*
X146299340Y-96900200D01*
X146226800Y-96885771D01*
X146154260Y-96900200D01*
X144372157Y-96900200D01*
X144455740Y-96775109D01*
X144567113Y-96215200D01*
X144455740Y-95655291D01*
X144230025Y-95317484D01*
X147403032Y-92144477D01*
X147428423Y-92182477D01*
G36*
X109613601Y-81894911D02*
X109613600Y-90729160D01*
X108445000Y-90729160D01*
X108197235Y-90778443D01*
X107987191Y-90918791D01*
X107846843Y-91128835D01*
X107797560Y-91376600D01*
X107797560Y-92294962D01*
X106743600Y-93348923D01*
X106743600Y-81207323D01*
X106819862Y-81175734D01*
X107223534Y-80772062D01*
X107442000Y-80244639D01*
X107442000Y-79723310D01*
X109613601Y-81894911D01*
X109613601Y-81894911D01*
G37*
X109613601Y-81894911D02*
X109613600Y-90729160D01*
X108445000Y-90729160D01*
X108197235Y-90778443D01*
X107987191Y-90918791D01*
X107846843Y-91128835D01*
X107797560Y-91376600D01*
X107797560Y-92294962D01*
X106743600Y-93348923D01*
X106743600Y-81207323D01*
X106819862Y-81175734D01*
X107223534Y-80772062D01*
X107442000Y-80244639D01*
X107442000Y-79723310D01*
X109613601Y-81894911D01*
G36*
X96915001Y-84756211D02*
X96915001Y-87033460D01*
X95326300Y-87033460D01*
X95078535Y-87082743D01*
X95056600Y-87097400D01*
X95056600Y-82897809D01*
X96915001Y-84756211D01*
X96915001Y-84756211D01*
G37*
X96915001Y-84756211D02*
X96915001Y-87033460D01*
X95326300Y-87033460D01*
X95078535Y-87082743D01*
X95056600Y-87097400D01*
X95056600Y-82897809D01*
X96915001Y-84756211D01*
G04 #@! TD*
M02*
