M48
;DRILL file {KiCad (5.0.0-3-g5ebb6b6)} date 
;FORMAT={-:-/ absolute / metric / decimal}
FMAT,2
METRIC,TZ
T1C0.600
T2C0.635
T3C0.800
T4C0.900
T5C1.000
T6C1.016
T7C1.100
T8C3.200
%
G90
G05
M71
T1
X72.86Y-99.308
X72.86Y-101.308
T2
X95.885Y-84.455
X100.965Y-98.425
X102.235Y-76.2
X106.68Y-109.22
X107.95Y-82.55
X107.95Y-88.265
X117.475Y-113.03
X117.729Y-83.312
X117.792Y-117.411
X119.888Y-125.095
X120.015Y-87.63
X120.015Y-93.98
X121.898Y-85.482
X122.004Y-83.207
X122.022Y-95.923
X123.311Y-98.442
X125.73Y-121.285
X128.016Y-126.365
X134.175Y-84.391
X138.29Y-124.269
X139.7Y-120.015
X145.859Y-94.996
X150.558Y-94.742
X151.638Y-90.106
X152.4Y-107.315
T3
X81.229Y-80.01
X91.389Y-80.01
X148.463Y-88.608
X148.463Y-91.148
X148.463Y-93.688
X148.463Y-96.228
X148.463Y-98.768
X148.463Y-101.308
X148.463Y-103.848
X156.083Y-88.608
X156.083Y-91.148
X156.083Y-93.688
X156.083Y-96.228
X156.083Y-98.768
X156.083Y-101.308
X156.083Y-103.848
X101.64Y-85.344
X104.14Y-85.344
X76.568Y-88.697
X76.568Y-93.577
X95.847Y-79.959
X106.007Y-79.959
X114.402Y-79.248
X114.402Y-81.788
X114.402Y-84.328
X114.402Y-86.868
X114.402Y-89.408
X114.402Y-91.948
X114.402Y-94.488
X114.402Y-97.028
X114.402Y-99.568
X114.402Y-102.108
X114.402Y-104.648
X114.402Y-107.188
X114.402Y-109.728
X114.402Y-112.268
X114.402Y-114.808
X114.402Y-117.348
X114.402Y-119.888
X114.402Y-122.428
X114.402Y-124.968
X114.402Y-127.508
X129.642Y-79.248
X129.642Y-81.788
X129.642Y-84.328
X129.642Y-86.868
X129.642Y-89.408
X129.642Y-91.948
X129.642Y-94.488
X129.642Y-97.028
X129.642Y-99.568
X129.642Y-102.108
X129.642Y-104.648
X129.642Y-107.188
X129.642Y-109.728
X129.642Y-112.268
X129.642Y-114.808
X129.642Y-117.348
X129.642Y-119.888
X129.642Y-122.428
X129.642Y-124.968
X129.642Y-127.508
X135.572Y-111.747
X135.572Y-114.287
X135.572Y-116.827
X135.572Y-119.367
X135.572Y-121.907
X135.572Y-124.447
X135.572Y-126.987
X143.192Y-111.747
X143.192Y-114.287
X143.192Y-116.827
X143.192Y-119.367
X143.192Y-121.907
X143.192Y-124.447
X143.192Y-126.987
X101.64Y-107.569
X104.14Y-107.569
X73.66Y-121.412
X76.16Y-121.412
X70.498Y-93.182
X70.498Y-95.682
X81.28Y-84.455
X91.44Y-84.455
X96.317Y-110.947
X96.317Y-113.487
X96.317Y-116.027
X96.317Y-118.567
X96.317Y-121.107
X96.317Y-123.647
X96.317Y-126.187
X103.937Y-110.947
X103.937Y-113.487
X103.937Y-116.027
X103.937Y-118.567
X103.937Y-121.107
X103.937Y-123.647
X103.937Y-126.187
X81.28Y-93.98
X91.44Y-93.98
X121.069Y-106.858
X123.569Y-106.858
X109.245Y-92.177
X109.245Y-94.717
X109.245Y-97.257
X109.245Y-99.797
X109.245Y-102.337
X109.245Y-104.877
X109.245Y-107.417
X109.245Y-109.957
X109.245Y-112.497
X154.091Y-85.471
X156.591Y-85.471
X96.126Y-88.481
X96.126Y-91.021
X96.126Y-93.561
X96.126Y-96.101
X96.126Y-98.641
X96.126Y-101.181
X96.126Y-103.721
X103.746Y-88.481
X103.746Y-91.021
X103.746Y-93.561
X103.746Y-96.101
X103.746Y-98.641
X103.746Y-101.181
X103.746Y-103.721
X135.052Y-79.057
X145.212Y-79.057
X141.264Y-108.458
X143.764Y-108.458
X70.498Y-86.779
X70.498Y-89.279
X81.28Y-99.06
X91.44Y-99.06
X135.484Y-88.595
X135.484Y-91.135
X135.484Y-93.675
X135.484Y-96.215
X135.484Y-98.755
X135.484Y-101.295
X135.484Y-103.835
X143.104Y-88.595
X143.104Y-91.135
X143.104Y-93.675
X143.104Y-96.215
X143.104Y-98.755
X143.104Y-101.295
X143.104Y-103.835
X141.137Y-85.344
X143.637Y-85.344
X81.28Y-88.9
X91.44Y-88.9
T4
X72.834Y-79.527
X75.374Y-79.527
X81.28Y-103.505
X91.44Y-103.505
T5
X84.023Y-109.664
X86.563Y-109.664
X89.103Y-109.664
X91.44Y-67.31
X91.44Y-69.85
X93.98Y-67.31
X93.98Y-69.85
X96.52Y-67.31
X96.52Y-69.85
X99.06Y-67.31
X99.06Y-69.85
X101.6Y-67.31
X101.6Y-69.85
X104.14Y-67.31
X104.14Y-69.85
X106.68Y-67.31
X106.68Y-69.85
X109.22Y-67.31
X109.22Y-69.85
X111.76Y-67.31
X111.76Y-69.85
X114.3Y-67.31
X114.3Y-69.85
X116.84Y-67.31
X116.84Y-69.85
X119.38Y-67.31
X119.38Y-69.85
X121.92Y-67.31
X121.92Y-69.85
X124.46Y-67.31
X124.46Y-69.85
X127.Y-67.31
X127.Y-69.85
X129.54Y-67.31
X129.54Y-69.85
X132.08Y-67.31
X132.08Y-69.85
X134.62Y-67.31
X134.62Y-69.85
X137.16Y-67.31
X137.16Y-69.85
X139.7Y-67.31
X139.7Y-69.85
T7
X71.133Y-107.302
X71.133Y-111.802
X77.633Y-107.302
X77.633Y-111.802
T8
X69.775Y-61.7
X158.825Y-61.7
X69.8Y-127.575
X158.85Y-127.55
T6
X85.118Y-118.364G85X87.602Y-118.364
G05
X85.368Y-124.46G85X87.352Y-124.46
G05
X91.44Y-123.166G85X91.44Y-121.182
G05
T0
M30
