G04 #@! TF.GenerationSoftware,KiCad,Pcbnew,(5.0.0-3-g5ebb6b6)*
G04 #@! TF.CreationDate,2019-09-07T17:46:32+09:00*
G04 #@! TF.ProjectId,Z80-CPUB,5A38302D435055422E6B696361645F70,rev?*
G04 #@! TF.SameCoordinates,Original*
G04 #@! TF.FileFunction,Copper,L1,Top,Signal*
G04 #@! TF.FilePolarity,Positive*
%FSLAX46Y46*%
G04 Gerber Fmt 4.6, Leading zero omitted, Abs format (unit mm)*
G04 Created by KiCad (PCBNEW (5.0.0-3-g5ebb6b6)) date *
%MOMM*%
%LPD*%
G01*
G04 APERTURE LIST*
G04 #@! TA.AperFunction,ComponentPad*
%ADD10R,1.700000X1.700000*%
G04 #@! TD*
G04 #@! TA.AperFunction,ComponentPad*
%ADD11O,1.700000X1.700000*%
G04 #@! TD*
G04 #@! TA.AperFunction,ComponentPad*
%ADD12O,1.600000X1.600000*%
G04 #@! TD*
G04 #@! TA.AperFunction,ComponentPad*
%ADD13R,1.600000X1.600000*%
G04 #@! TD*
G04 #@! TA.AperFunction,ComponentPad*
%ADD14C,1.600000*%
G04 #@! TD*
G04 #@! TA.AperFunction,ComponentPad*
%ADD15R,1.800000X1.800000*%
G04 #@! TD*
G04 #@! TA.AperFunction,ComponentPad*
%ADD16O,1.800000X1.800000*%
G04 #@! TD*
G04 #@! TA.AperFunction,ComponentPad*
%ADD17C,2.000000*%
G04 #@! TD*
G04 #@! TA.AperFunction,ComponentPad*
%ADD18C,1.500000*%
G04 #@! TD*
G04 #@! TA.AperFunction,ComponentPad*
%ADD19C,1.800000*%
G04 #@! TD*
G04 #@! TA.AperFunction,ComponentPad*
%ADD20C,4.800600*%
G04 #@! TD*
G04 #@! TA.AperFunction,ComponentPad*
%ADD21R,4.800600X4.800600*%
G04 #@! TD*
G04 #@! TA.AperFunction,ComponentPad*
%ADD22R,1.200000X1.200000*%
G04 #@! TD*
G04 #@! TA.AperFunction,ComponentPad*
%ADD23C,1.200000*%
G04 #@! TD*
G04 #@! TA.AperFunction,ViaPad*
%ADD24C,0.800000*%
G04 #@! TD*
G04 #@! TA.AperFunction,Conductor*
%ADD25C,0.600000*%
G04 #@! TD*
G04 #@! TA.AperFunction,Conductor*
%ADD26C,0.250000*%
G04 #@! TD*
G04 #@! TA.AperFunction,Conductor*
%ADD27C,0.254000*%
G04 #@! TD*
G04 APERTURE END LIST*
D10*
G04 #@! TO.P,J3,1*
G04 #@! TO.N,~RD*
X74930000Y-121285000D03*
D11*
G04 #@! TO.P,J3,2*
G04 #@! TO.N,~WR*
X72390000Y-121285000D03*
G04 #@! TO.P,J3,3*
G04 #@! TO.N,~IOREQ*
X74930000Y-118745000D03*
G04 #@! TO.P,J3,4*
G04 #@! TO.N,~MREQ*
X72390000Y-118745000D03*
G04 #@! TO.P,J3,5*
G04 #@! TO.N,~M1*
X74930000Y-116205000D03*
G04 #@! TO.P,J3,6*
G04 #@! TO.N,~RESET*
X72390000Y-116205000D03*
G04 #@! TO.P,J3,7*
G04 #@! TO.N,RN24*
X74930000Y-113665000D03*
G04 #@! TO.P,J3,8*
G04 #@! TO.N,~BUSACK*
X72390000Y-113665000D03*
G04 #@! TO.P,J3,9*
G04 #@! TO.N,RN22*
X74930000Y-111125000D03*
G04 #@! TO.P,J3,10*
G04 #@! TO.N,RN23*
X72390000Y-111125000D03*
G04 #@! TO.P,J3,11*
G04 #@! TO.N,~RFSH*
X74930000Y-108585000D03*
G04 #@! TO.P,J3,12*
G04 #@! TO.N,RDYIN*
X72390000Y-108585000D03*
G04 #@! TO.P,J3,13*
G04 #@! TO.N,~HALT*
X74930000Y-106045000D03*
G04 #@! TO.P,J3,14*
G04 #@! TO.N,Net-(J3-Pad14)*
X72390000Y-106045000D03*
G04 #@! TD*
D12*
G04 #@! TO.P,RN1,9*
G04 #@! TO.N,D7*
X107950000Y-99060000D03*
G04 #@! TO.P,RN1,8*
G04 #@! TO.N,D6*
X107950000Y-96520000D03*
G04 #@! TO.P,RN1,7*
G04 #@! TO.N,D5*
X107950000Y-93980000D03*
G04 #@! TO.P,RN1,6*
G04 #@! TO.N,D4*
X107950000Y-91440000D03*
G04 #@! TO.P,RN1,5*
G04 #@! TO.N,D3*
X107950000Y-88900000D03*
G04 #@! TO.P,RN1,4*
G04 #@! TO.N,D2*
X107950000Y-86360000D03*
G04 #@! TO.P,RN1,3*
G04 #@! TO.N,D1*
X107950000Y-83820000D03*
G04 #@! TO.P,RN1,2*
G04 #@! TO.N,D0*
X107950000Y-81280000D03*
D13*
G04 #@! TO.P,RN1,1*
G04 #@! TO.N,VCC*
X107950000Y-78740000D03*
G04 #@! TD*
G04 #@! TO.P,RN2,1*
G04 #@! TO.N,VCC*
X107950000Y-103505000D03*
D12*
G04 #@! TO.P,RN2,2*
G04 #@! TO.N,RDYIN*
X107950000Y-106045000D03*
G04 #@! TO.P,RN2,3*
G04 #@! TO.N,RN22*
X107950000Y-108585000D03*
G04 #@! TO.P,RN2,4*
G04 #@! TO.N,RN23*
X107950000Y-111125000D03*
G04 #@! TO.P,RN2,5*
G04 #@! TO.N,RN24*
X107950000Y-113665000D03*
G04 #@! TO.P,RN2,6*
G04 #@! TO.N,Net-(RN2-Pad6)*
X107950000Y-116205000D03*
G04 #@! TO.P,RN2,7*
G04 #@! TO.N,Net-(RN2-Pad7)*
X107950000Y-118745000D03*
G04 #@! TO.P,RN2,8*
G04 #@! TO.N,Net-(RN2-Pad8)*
X107950000Y-121285000D03*
G04 #@! TO.P,RN2,9*
G04 #@! TO.N,Net-(RN2-Pad9)*
X107950000Y-123825000D03*
G04 #@! TD*
D14*
G04 #@! TO.P,C11,2*
G04 #@! TO.N,GND*
X154722000Y-97175300D03*
G04 #@! TO.P,C11,1*
G04 #@! TO.N,VCC*
X152222000Y-97175300D03*
G04 #@! TD*
G04 #@! TO.P,C12,1*
G04 #@! TO.N,VCC*
X134620000Y-120055000D03*
G04 #@! TO.P,C12,2*
G04 #@! TO.N,GND*
X134620000Y-122555000D03*
G04 #@! TD*
D12*
G04 #@! TO.P,U7,14*
G04 #@! TO.N,VCC*
X154381000Y-100223000D03*
G04 #@! TO.P,U7,7*
G04 #@! TO.N,GND*
X146761000Y-115463000D03*
G04 #@! TO.P,U7,13*
X154381000Y-102763000D03*
G04 #@! TO.P,U7,6*
G04 #@! TO.N,Net-(U5-Pad5)*
X146761000Y-112923000D03*
G04 #@! TO.P,U7,12*
G04 #@! TO.N,GND*
X154381000Y-105303000D03*
G04 #@! TO.P,U7,5*
G04 #@! TO.N,Net-(U5-Pad9)*
X146761000Y-110383000D03*
G04 #@! TO.P,U7,11*
G04 #@! TO.N,GND*
X154381000Y-107843000D03*
G04 #@! TO.P,U7,4*
G04 #@! TO.N,Net-(U5-Pad3)*
X146761000Y-107843000D03*
G04 #@! TO.P,U7,10*
G04 #@! TO.N,GND*
X154381000Y-110383000D03*
G04 #@! TO.P,U7,3*
X146761000Y-105303000D03*
G04 #@! TO.P,U7,9*
G04 #@! TO.N,Net-(U7-Pad9)*
X154381000Y-112923000D03*
G04 #@! TO.P,U7,2*
G04 #@! TO.N,GND*
X146761000Y-102763000D03*
G04 #@! TO.P,U7,8*
G04 #@! TO.N,Net-(U7-Pad8)*
X154381000Y-115463000D03*
D13*
G04 #@! TO.P,U7,1*
G04 #@! TO.N,Net-(U7-Pad1)*
X146761000Y-100223000D03*
G04 #@! TD*
G04 #@! TO.P,U8,1*
G04 #@! TO.N,Net-(U5-Pad3)*
X137795000Y-128270000D03*
D12*
G04 #@! TO.P,U8,8*
G04 #@! TO.N,~BUSREQ*
X153035000Y-120650000D03*
G04 #@! TO.P,U8,2*
G04 #@! TO.N,Net-(U5-Pad6)*
X140335000Y-128270000D03*
G04 #@! TO.P,U8,9*
G04 #@! TO.N,RN24*
X150495000Y-120650000D03*
G04 #@! TO.P,U8,3*
G04 #@! TO.N,~INTA*
X142875000Y-128270000D03*
G04 #@! TO.P,U8,10*
G04 #@! TO.N,Net-(U3-Pad8)*
X147955000Y-120650000D03*
G04 #@! TO.P,U8,4*
G04 #@! TO.N,~RESET*
X145415000Y-128270000D03*
G04 #@! TO.P,U8,11*
G04 #@! TO.N,~INT*
X145415000Y-120650000D03*
G04 #@! TO.P,U8,5*
G04 #@! TO.N,~WR*
X147955000Y-128270000D03*
G04 #@! TO.P,U8,12*
G04 #@! TO.N,RN23*
X142875000Y-120650000D03*
G04 #@! TO.P,U8,6*
G04 #@! TO.N,Net-(U7-Pad1)*
X150495000Y-128270000D03*
G04 #@! TO.P,U8,13*
G04 #@! TO.N,Net-(U3-Pad2)*
X140335000Y-120650000D03*
G04 #@! TO.P,U8,7*
G04 #@! TO.N,GND*
X153035000Y-128270000D03*
G04 #@! TO.P,U8,14*
G04 #@! TO.N,VCC*
X137795000Y-120650000D03*
G04 #@! TD*
D10*
G04 #@! TO.P,S1,1*
G04 #@! TO.N,Net-(S1-Pad1)*
X70485000Y-99060000D03*
D11*
G04 #@! TO.P,S1,2*
G04 #@! TO.N,VCC*
X73025000Y-99060000D03*
G04 #@! TO.P,S1,3*
G04 #@! TO.N,Net-(J2-Pad1)*
X75565000Y-99060000D03*
G04 #@! TD*
D15*
G04 #@! TO.P,D1,1*
G04 #@! TO.N,VCC*
X80934600Y-93345000D03*
D16*
G04 #@! TO.P,D1,2*
G04 #@! TO.N,~RESIN*
X91094600Y-93345000D03*
G04 #@! TD*
D17*
G04 #@! TO.P,SW1,2*
G04 #@! TO.N,~RESIN*
X69850000Y-94670000D03*
G04 #@! TO.P,SW1,1*
G04 #@! TO.N,GND*
X69850000Y-90170000D03*
G04 #@! TO.P,SW1,2*
G04 #@! TO.N,~RESIN*
X76350000Y-94670000D03*
G04 #@! TO.P,SW1,1*
G04 #@! TO.N,GND*
X76350000Y-90170000D03*
G04 #@! TD*
D14*
G04 #@! TO.P,C1,2*
G04 #@! TO.N,GND*
X122032000Y-103698000D03*
G04 #@! TO.P,C1,1*
G04 #@! TO.N,VCC*
X119532000Y-103698000D03*
G04 #@! TD*
G04 #@! TO.P,C3,1*
G04 #@! TO.N,VCC*
X103251000Y-77724000D03*
G04 #@! TO.P,C3,2*
G04 #@! TO.N,GND*
X100751000Y-77724000D03*
G04 #@! TD*
G04 #@! TO.P,C4,2*
G04 #@! TO.N,GND*
X139486000Y-97028000D03*
G04 #@! TO.P,C4,1*
G04 #@! TO.N,VCC*
X141986000Y-97028000D03*
G04 #@! TD*
G04 #@! TO.P,C5,1*
G04 #@! TO.N,VCC*
X103251000Y-99949000D03*
G04 #@! TO.P,C5,2*
G04 #@! TO.N,GND*
X100751000Y-99949000D03*
G04 #@! TD*
G04 #@! TO.P,C6,2*
G04 #@! TO.N,GND*
X69354700Y-79246100D03*
G04 #@! TO.P,C6,1*
G04 #@! TO.N,Net-(C6-Pad1)*
X69354700Y-76746100D03*
G04 #@! TD*
G04 #@! TO.P,C7,1*
G04 #@! TO.N,Net-(C7-Pad1)*
X69354700Y-85648800D03*
G04 #@! TO.P,C7,2*
G04 #@! TO.N,GND*
X69354700Y-83148800D03*
G04 #@! TD*
G04 #@! TO.P,C9,2*
G04 #@! TO.N,GND*
X139359000Y-73914000D03*
G04 #@! TO.P,C9,1*
G04 #@! TO.N,VCC*
X141859000Y-73914000D03*
G04 #@! TD*
G04 #@! TO.P,C10,1*
G04 #@! TO.N,VCC*
X154889000Y-74188300D03*
G04 #@! TO.P,C10,2*
G04 #@! TO.N,GND*
X152389000Y-74188300D03*
G04 #@! TD*
D10*
G04 #@! TO.P,J1,1*
G04 #@! TO.N,VCC*
X91440000Y-69850000D03*
D11*
G04 #@! TO.P,J1,2*
G04 #@! TO.N,GND*
X91440000Y-67310000D03*
G04 #@! TO.P,J1,3*
G04 #@! TO.N,VCC*
X93980000Y-69850000D03*
G04 #@! TO.P,J1,4*
G04 #@! TO.N,GND*
X93980000Y-67310000D03*
G04 #@! TO.P,J1,5*
G04 #@! TO.N,~INTA*
X96520000Y-69850000D03*
G04 #@! TO.P,J1,6*
G04 #@! TO.N,~RESIN*
X96520000Y-67310000D03*
G04 #@! TO.P,J1,7*
G04 #@! TO.N,RDYIN*
X99060000Y-69850000D03*
G04 #@! TO.P,J1,8*
G04 #@! TO.N,CLK*
X99060000Y-67310000D03*
G04 #@! TO.P,J1,9*
G04 #@! TO.N,D0*
X101600000Y-69850000D03*
G04 #@! TO.P,J1,10*
G04 #@! TO.N,D1*
X101600000Y-67310000D03*
G04 #@! TO.P,J1,11*
G04 #@! TO.N,D2*
X104140000Y-69850000D03*
G04 #@! TO.P,J1,12*
G04 #@! TO.N,D3*
X104140000Y-67310000D03*
G04 #@! TO.P,J1,13*
G04 #@! TO.N,D4*
X106680000Y-69850000D03*
G04 #@! TO.P,J1,14*
G04 #@! TO.N,D5*
X106680000Y-67310000D03*
G04 #@! TO.P,J1,15*
G04 #@! TO.N,D6*
X109220000Y-69850000D03*
G04 #@! TO.P,J1,16*
G04 #@! TO.N,D7*
X109220000Y-67310000D03*
G04 #@! TO.P,J1,17*
G04 #@! TO.N,~IORD*
X111760000Y-69850000D03*
G04 #@! TO.P,J1,18*
G04 #@! TO.N,~MEMRD*
X111760000Y-67310000D03*
G04 #@! TO.P,J1,19*
G04 #@! TO.N,~IOWR*
X114300000Y-69850000D03*
G04 #@! TO.P,J1,20*
G04 #@! TO.N,~MEMWR*
X114300000Y-67310000D03*
G04 #@! TO.P,J1,21*
G04 #@! TO.N,RES*
X116840000Y-69850000D03*
G04 #@! TO.P,J1,22*
G04 #@! TO.N,HLDA*
X116840000Y-67310000D03*
G04 #@! TO.P,J1,23*
G04 #@! TO.N,INT*
X119380000Y-69850000D03*
G04 #@! TO.P,J1,24*
G04 #@! TO.N,HOLD*
X119380000Y-67310000D03*
G04 #@! TO.P,J1,25*
G04 #@! TO.N,A0*
X121920000Y-69850000D03*
G04 #@! TO.P,J1,26*
G04 #@! TO.N,A1*
X121920000Y-67310000D03*
G04 #@! TO.P,J1,27*
G04 #@! TO.N,A2*
X124460000Y-69850000D03*
G04 #@! TO.P,J1,28*
G04 #@! TO.N,A3*
X124460000Y-67310000D03*
G04 #@! TO.P,J1,29*
G04 #@! TO.N,A4*
X127000000Y-69850000D03*
G04 #@! TO.P,J1,30*
G04 #@! TO.N,A5*
X127000000Y-67310000D03*
G04 #@! TO.P,J1,31*
G04 #@! TO.N,A6*
X129540000Y-69850000D03*
G04 #@! TO.P,J1,32*
G04 #@! TO.N,A7*
X129540000Y-67310000D03*
G04 #@! TO.P,J1,33*
G04 #@! TO.N,A8*
X132080000Y-69850000D03*
G04 #@! TO.P,J1,34*
G04 #@! TO.N,A9*
X132080000Y-67310000D03*
G04 #@! TO.P,J1,35*
G04 #@! TO.N,A10*
X134620000Y-69850000D03*
G04 #@! TO.P,J1,36*
G04 #@! TO.N,A11*
X134620000Y-67310000D03*
G04 #@! TO.P,J1,37*
G04 #@! TO.N,A12*
X137160000Y-69850000D03*
G04 #@! TO.P,J1,38*
G04 #@! TO.N,A13*
X137160000Y-67310000D03*
G04 #@! TO.P,J1,39*
G04 #@! TO.N,A14*
X139700000Y-69850000D03*
G04 #@! TO.P,J1,40*
G04 #@! TO.N,A15*
X139700000Y-67310000D03*
G04 #@! TD*
D18*
G04 #@! TO.P,Y1,1*
G04 #@! TO.N,Net-(C6-Pad1)*
X75425300Y-78663800D03*
G04 #@! TO.P,Y1,2*
G04 #@! TO.N,Net-(C7-Pad1)*
X75425300Y-83543800D03*
G04 #@! TD*
D15*
G04 #@! TO.P,D2,1*
G04 #@! TO.N,Net-(D2-Pad1)*
X71056500Y-71399400D03*
D19*
G04 #@! TO.P,D2,2*
G04 #@! TO.N,VCC*
X73596500Y-71399400D03*
G04 #@! TD*
D13*
G04 #@! TO.P,U2,1*
G04 #@! TO.N,RES*
X95427800Y-103327000D03*
D12*
G04 #@! TO.P,U2,8*
G04 #@! TO.N,Net-(U2-Pad8)*
X103047800Y-118567000D03*
G04 #@! TO.P,U2,2*
G04 #@! TO.N,~RESET*
X95427800Y-105867000D03*
G04 #@! TO.P,U2,9*
G04 #@! TO.N,GND*
X103047800Y-116027000D03*
G04 #@! TO.P,U2,3*
G04 #@! TO.N,~RESIN*
X95427800Y-108407000D03*
G04 #@! TO.P,U2,10*
G04 #@! TO.N,Net-(U2-Pad10)*
X103047800Y-113487000D03*
G04 #@! TO.P,U2,4*
G04 #@! TO.N,RES*
X95427800Y-110947000D03*
G04 #@! TO.P,U2,11*
G04 #@! TO.N,GND*
X103047800Y-110947000D03*
G04 #@! TO.P,U2,5*
X95427800Y-113487000D03*
G04 #@! TO.P,U2,12*
G04 #@! TO.N,Net-(U2-Pad12)*
X103047800Y-108407000D03*
G04 #@! TO.P,U2,6*
G04 #@! TO.N,Net-(U2-Pad6)*
X95427800Y-116027000D03*
G04 #@! TO.P,U2,13*
G04 #@! TO.N,GND*
X103047800Y-105867000D03*
G04 #@! TO.P,U2,7*
X95427800Y-118567000D03*
G04 #@! TO.P,U2,14*
G04 #@! TO.N,VCC*
X103047800Y-103327000D03*
G04 #@! TD*
G04 #@! TO.P,U3,14*
G04 #@! TO.N,VCC*
X102857300Y-80860900D03*
G04 #@! TO.P,U3,7*
G04 #@! TO.N,GND*
X95237300Y-96100900D03*
G04 #@! TO.P,U3,13*
X102857300Y-83400900D03*
G04 #@! TO.P,U3,6*
G04 #@! TO.N,Net-(R3-Pad1)*
X95237300Y-93560900D03*
G04 #@! TO.P,U3,12*
G04 #@! TO.N,Net-(U3-Pad12)*
X102857300Y-85940900D03*
G04 #@! TO.P,U3,5*
G04 #@! TO.N,Net-(C7-Pad1)*
X95237300Y-91020900D03*
G04 #@! TO.P,U3,11*
G04 #@! TO.N,~BUSACK*
X102857300Y-88480900D03*
G04 #@! TO.P,U3,4*
G04 #@! TO.N,CLK*
X95237300Y-88480900D03*
G04 #@! TO.P,U3,10*
G04 #@! TO.N,HLDA*
X102857300Y-91020900D03*
G04 #@! TO.P,U3,3*
G04 #@! TO.N,Net-(R3-Pad1)*
X95237300Y-85940900D03*
G04 #@! TO.P,U3,9*
G04 #@! TO.N,HOLD*
X102857300Y-93560900D03*
G04 #@! TO.P,U3,2*
G04 #@! TO.N,Net-(U3-Pad2)*
X95237300Y-83400900D03*
G04 #@! TO.P,U3,8*
G04 #@! TO.N,Net-(U3-Pad8)*
X102857300Y-96100900D03*
D13*
G04 #@! TO.P,U3,1*
G04 #@! TO.N,INT*
X95237300Y-80860900D03*
G04 #@! TD*
G04 #@! TO.P,U4,1*
G04 #@! TO.N,~RD*
X133794000Y-100317000D03*
D12*
G04 #@! TO.P,U4,8*
G04 #@! TO.N,Net-(U4-Pad8)*
X141414000Y-115557000D03*
G04 #@! TO.P,U4,2*
G04 #@! TO.N,~MREQ*
X133794000Y-102857000D03*
G04 #@! TO.P,U4,9*
G04 #@! TO.N,~RD*
X141414000Y-113017000D03*
G04 #@! TO.P,U4,3*
G04 #@! TO.N,Net-(U4-Pad3)*
X133794000Y-105397000D03*
G04 #@! TO.P,U4,10*
G04 #@! TO.N,~IOREQ*
X141414000Y-110477000D03*
G04 #@! TO.P,U4,4*
G04 #@! TO.N,~MREQ*
X133794000Y-107937000D03*
G04 #@! TO.P,U4,11*
G04 #@! TO.N,Net-(U4-Pad11)*
X141414000Y-107937000D03*
G04 #@! TO.P,U4,5*
G04 #@! TO.N,~WR*
X133794000Y-110477000D03*
G04 #@! TO.P,U4,12*
G04 #@! TO.N,~IOREQ*
X141414000Y-105397000D03*
G04 #@! TO.P,U4,6*
G04 #@! TO.N,Net-(U4-Pad6)*
X133794000Y-113017000D03*
G04 #@! TO.P,U4,13*
G04 #@! TO.N,~WR*
X141414000Y-102857000D03*
G04 #@! TO.P,U4,7*
G04 #@! TO.N,GND*
X133794000Y-115557000D03*
G04 #@! TO.P,U4,14*
G04 #@! TO.N,VCC*
X141414000Y-100317000D03*
G04 #@! TD*
G04 #@! TO.P,U5,14*
G04 #@! TO.N,VCC*
X141326000Y-77165200D03*
G04 #@! TO.P,U5,7*
G04 #@! TO.N,GND*
X133706000Y-92405200D03*
G04 #@! TO.P,U5,13*
X141326000Y-79705200D03*
G04 #@! TO.P,U5,6*
G04 #@! TO.N,Net-(U5-Pad6)*
X133706000Y-89865200D03*
G04 #@! TO.P,U5,12*
G04 #@! TO.N,GND*
X141326000Y-82245200D03*
G04 #@! TO.P,U5,5*
G04 #@! TO.N,Net-(U5-Pad5)*
X133706000Y-87325200D03*
G04 #@! TO.P,U5,11*
G04 #@! TO.N,Net-(U5-Pad11)*
X141326000Y-84785200D03*
G04 #@! TO.P,U5,4*
G04 #@! TO.N,~RD*
X133706000Y-84785200D03*
G04 #@! TO.P,U5,10*
G04 #@! TO.N,HLDA*
X141326000Y-87325200D03*
G04 #@! TO.P,U5,3*
G04 #@! TO.N,Net-(U5-Pad3)*
X133706000Y-82245200D03*
G04 #@! TO.P,U5,9*
G04 #@! TO.N,Net-(U5-Pad9)*
X141326000Y-89865200D03*
G04 #@! TO.P,U5,2*
G04 #@! TO.N,~IOREQ*
X133706000Y-79705200D03*
G04 #@! TO.P,U5,8*
G04 #@! TO.N,Net-(U5-Pad8)*
X141326000Y-92405200D03*
D13*
G04 #@! TO.P,U5,1*
G04 #@! TO.N,~M1*
X133706000Y-77165200D03*
G04 #@! TD*
G04 #@! TO.P,U6,1*
G04 #@! TO.N,Net-(U5-Pad8)*
X146761000Y-77325200D03*
D12*
G04 #@! TO.P,U6,8*
G04 #@! TO.N,~IORD*
X154381000Y-92565200D03*
G04 #@! TO.P,U6,2*
G04 #@! TO.N,Net-(U4-Pad3)*
X146761000Y-79865200D03*
G04 #@! TO.P,U6,9*
G04 #@! TO.N,Net-(U4-Pad8)*
X154381000Y-90025200D03*
G04 #@! TO.P,U6,3*
G04 #@! TO.N,~MEMRD*
X146761000Y-82405200D03*
G04 #@! TO.P,U6,10*
G04 #@! TO.N,Net-(U5-Pad8)*
X154381000Y-87485200D03*
G04 #@! TO.P,U6,4*
X146761000Y-84945200D03*
G04 #@! TO.P,U6,11*
G04 #@! TO.N,~IOWR*
X154381000Y-84945200D03*
G04 #@! TO.P,U6,5*
G04 #@! TO.N,Net-(U4-Pad6)*
X146761000Y-87485200D03*
G04 #@! TO.P,U6,12*
G04 #@! TO.N,Net-(U4-Pad11)*
X154381000Y-82405200D03*
G04 #@! TO.P,U6,6*
G04 #@! TO.N,~MEMWR*
X146761000Y-90025200D03*
G04 #@! TO.P,U6,13*
G04 #@! TO.N,Net-(U5-Pad8)*
X154381000Y-79865200D03*
G04 #@! TO.P,U6,7*
G04 #@! TO.N,GND*
X146761000Y-92565200D03*
G04 #@! TO.P,U6,14*
G04 #@! TO.N,VCC*
X154381000Y-77325200D03*
G04 #@! TD*
D13*
G04 #@! TO.P,U1,1*
G04 #@! TO.N,A11*
X112756000Y-74742000D03*
D12*
G04 #@! TO.P,U1,21*
G04 #@! TO.N,~RD*
X127996000Y-123002000D03*
G04 #@! TO.P,U1,2*
G04 #@! TO.N,A12*
X112756000Y-77282000D03*
G04 #@! TO.P,U1,22*
G04 #@! TO.N,~WR*
X127996000Y-120462000D03*
G04 #@! TO.P,U1,3*
G04 #@! TO.N,A13*
X112756000Y-79822000D03*
G04 #@! TO.P,U1,23*
G04 #@! TO.N,~BUSACK*
X127996000Y-117922000D03*
G04 #@! TO.P,U1,4*
G04 #@! TO.N,A14*
X112756000Y-82362000D03*
G04 #@! TO.P,U1,24*
G04 #@! TO.N,RDYIN*
X127996000Y-115382000D03*
G04 #@! TO.P,U1,5*
G04 #@! TO.N,A15*
X112756000Y-84902000D03*
G04 #@! TO.P,U1,25*
G04 #@! TO.N,~BUSREQ*
X127996000Y-112842000D03*
G04 #@! TO.P,U1,6*
G04 #@! TO.N,CLK*
X112756000Y-87442000D03*
G04 #@! TO.P,U1,26*
G04 #@! TO.N,~RESET*
X127996000Y-110302000D03*
G04 #@! TO.P,U1,7*
G04 #@! TO.N,D4*
X112756000Y-89982000D03*
G04 #@! TO.P,U1,27*
G04 #@! TO.N,~M1*
X127996000Y-107762000D03*
G04 #@! TO.P,U1,8*
G04 #@! TO.N,D3*
X112756000Y-92522000D03*
G04 #@! TO.P,U1,28*
G04 #@! TO.N,~RFSH*
X127996000Y-105222000D03*
G04 #@! TO.P,U1,9*
G04 #@! TO.N,D5*
X112756000Y-95062000D03*
G04 #@! TO.P,U1,29*
G04 #@! TO.N,GND*
X127996000Y-102682000D03*
G04 #@! TO.P,U1,10*
G04 #@! TO.N,D6*
X112756000Y-97602000D03*
G04 #@! TO.P,U1,30*
G04 #@! TO.N,A0*
X127996000Y-100142000D03*
G04 #@! TO.P,U1,11*
G04 #@! TO.N,VCC*
X112756000Y-100142000D03*
G04 #@! TO.P,U1,31*
G04 #@! TO.N,A1*
X127996000Y-97602000D03*
G04 #@! TO.P,U1,12*
G04 #@! TO.N,D2*
X112756000Y-102682000D03*
G04 #@! TO.P,U1,32*
G04 #@! TO.N,A2*
X127996000Y-95062000D03*
G04 #@! TO.P,U1,13*
G04 #@! TO.N,D7*
X112756000Y-105222000D03*
G04 #@! TO.P,U1,33*
G04 #@! TO.N,A3*
X127996000Y-92522000D03*
G04 #@! TO.P,U1,14*
G04 #@! TO.N,D0*
X112756000Y-107762000D03*
G04 #@! TO.P,U1,34*
G04 #@! TO.N,A4*
X127996000Y-89982000D03*
G04 #@! TO.P,U1,15*
G04 #@! TO.N,D1*
X112756000Y-110302000D03*
G04 #@! TO.P,U1,35*
G04 #@! TO.N,A5*
X127996000Y-87442000D03*
G04 #@! TO.P,U1,16*
G04 #@! TO.N,~INT*
X112756000Y-112842000D03*
G04 #@! TO.P,U1,36*
G04 #@! TO.N,A6*
X127996000Y-84902000D03*
G04 #@! TO.P,U1,17*
G04 #@! TO.N,RN22*
X112756000Y-115382000D03*
G04 #@! TO.P,U1,37*
G04 #@! TO.N,A7*
X127996000Y-82362000D03*
G04 #@! TO.P,U1,18*
G04 #@! TO.N,~HALT*
X112756000Y-117922000D03*
G04 #@! TO.P,U1,38*
G04 #@! TO.N,A8*
X127996000Y-79822000D03*
G04 #@! TO.P,U1,19*
G04 #@! TO.N,~MREQ*
X112756000Y-120462000D03*
G04 #@! TO.P,U1,39*
G04 #@! TO.N,A9*
X127996000Y-77282000D03*
G04 #@! TO.P,U1,20*
G04 #@! TO.N,~IOREQ*
X112756000Y-123002000D03*
G04 #@! TO.P,U1,40*
G04 #@! TO.N,A10*
X127996000Y-74742000D03*
G04 #@! TD*
D14*
G04 #@! TO.P,R2,1*
G04 #@! TO.N,VCC*
X80934600Y-89535000D03*
D12*
G04 #@! TO.P,R2,2*
G04 #@! TO.N,~RESIN*
X91094600Y-89535000D03*
G04 #@! TD*
G04 #@! TO.P,R1,2*
G04 #@! TO.N,GND*
X91094600Y-78105000D03*
D14*
G04 #@! TO.P,R1,1*
G04 #@! TO.N,INT*
X80934600Y-78105000D03*
G04 #@! TD*
G04 #@! TO.P,R3,1*
G04 #@! TO.N,Net-(R3-Pad1)*
X91094600Y-81915000D03*
D12*
G04 #@! TO.P,R3,2*
G04 #@! TO.N,Net-(C6-Pad1)*
X80934600Y-81915000D03*
G04 #@! TD*
G04 #@! TO.P,R4,2*
G04 #@! TO.N,Net-(C7-Pad1)*
X80934600Y-85725000D03*
D14*
G04 #@! TO.P,R4,1*
G04 #@! TO.N,Net-(R3-Pad1)*
X91094600Y-85725000D03*
G04 #@! TD*
G04 #@! TO.P,R5,1*
G04 #@! TO.N,Net-(D2-Pad1)*
X80883800Y-74508400D03*
D12*
G04 #@! TO.P,R5,2*
G04 #@! TO.N,GND*
X91043800Y-74508400D03*
G04 #@! TD*
D14*
G04 #@! TO.P,R7,1*
G04 #@! TO.N,HOLD*
X105283000Y-74549000D03*
D12*
G04 #@! TO.P,R7,2*
G04 #@! TO.N,GND*
X95123000Y-74549000D03*
G04 #@! TD*
D20*
G04 #@! TO.P,J2,2*
G04 #@! TO.N,GND*
X85308400Y-124074000D03*
D21*
G04 #@! TO.P,J2,1*
G04 #@! TO.N,Net-(J2-Pad1)*
X85308400Y-117978000D03*
D20*
G04 #@! TO.P,J2,3*
G04 #@! TO.N,Net-(J2-Pad3)*
X90388400Y-121788000D03*
G04 #@! TD*
D22*
G04 #@! TO.P,C2,1*
G04 #@! TO.N,~RESIN*
X85725000Y-100330000D03*
D23*
G04 #@! TO.P,C2,2*
G04 #@! TO.N,GND*
X85725000Y-98330000D03*
G04 #@! TD*
D13*
G04 #@! TO.P,C8,1*
G04 #@! TO.N,VCC*
X84455000Y-108585000D03*
D14*
G04 #@! TO.P,C8,2*
G04 #@! TO.N,GND*
X86955000Y-108585000D03*
G04 #@! TD*
D24*
G04 #@! TO.N,GND*
X116750000Y-93800000D03*
X97025000Y-124400000D03*
X130175000Y-127350000D03*
X90325000Y-99525000D03*
X151050000Y-90200000D03*
G04 #@! TO.N,~IOWR*
X121025300Y-83045000D03*
G04 #@! TO.N,Net-(U4-Pad3)*
X132873900Y-80864800D03*
G04 #@! TO.N,Net-(U4-Pad6)*
X136864100Y-111667700D03*
X136453100Y-92022400D03*
G04 #@! TO.N,~WR*
X129598800Y-114361300D03*
G04 #@! TO.N,~RESET*
X130354600Y-123010900D03*
X77601400Y-110582000D03*
G04 #@! TO.N,Net-(U5-Pad3)*
X141605000Y-121391400D03*
G04 #@! TO.N,~BUSREQ*
X137702200Y-122304000D03*
G04 #@! TO.N,~HALT*
X81997300Y-114767600D03*
G04 #@! TO.N,~MREQ*
X124540000Y-104311700D03*
G04 #@! TO.N,RN24*
X97738600Y-114635500D03*
G04 #@! TO.N,Net-(U3-Pad8)*
X129817600Y-101304700D03*
G04 #@! TO.N,RN23*
X126707900Y-111478900D03*
G04 #@! TD*
D25*
G04 #@! TO.N,VCC*
X93980000Y-69850000D02*
X97658900Y-73528900D01*
X97658900Y-73528900D02*
X99055900Y-73528900D01*
X99055900Y-73528900D02*
X103251000Y-77724000D01*
X91440000Y-69850000D02*
X93980000Y-69850000D01*
X91440000Y-69850000D02*
X90089700Y-69850000D01*
X73596500Y-71399400D02*
X88540300Y-71399400D01*
X88540300Y-71399400D02*
X90089700Y-69850000D01*
X141986000Y-97028000D02*
X152074700Y-97028000D01*
X152074700Y-97028000D02*
X152222000Y-97175300D01*
X137795000Y-120650000D02*
X136494700Y-120650000D01*
X134620000Y-120055000D02*
X135899700Y-120055000D01*
X135899700Y-120055000D02*
X136494700Y-120650000D01*
X103972500Y-78445400D02*
X104209000Y-78682000D01*
X104209000Y-78682000D02*
X104209100Y-78682000D01*
X104209100Y-78682000D02*
X104267100Y-78740000D01*
X104267100Y-78740000D02*
X107950000Y-78740000D01*
X103251000Y-77724000D02*
X103972500Y-78445400D01*
X103972500Y-78445400D02*
X102857300Y-79560600D01*
X102857300Y-80860900D02*
X102857300Y-79560600D01*
X107950000Y-103505000D02*
X106649700Y-103505000D01*
X103047800Y-103327000D02*
X106471700Y-103327000D01*
X106471700Y-103327000D02*
X106649700Y-103505000D01*
X154381000Y-77325200D02*
X154381000Y-76024900D01*
X154381000Y-76024900D02*
X154889000Y-75516900D01*
X154889000Y-75516900D02*
X154889000Y-74188300D01*
X141414000Y-100317000D02*
X143168100Y-102071100D01*
X143168100Y-102071100D02*
X143168100Y-115671100D01*
X143168100Y-115671100D02*
X138189200Y-120650000D01*
X138189200Y-120650000D02*
X137795000Y-120650000D01*
X107950000Y-103505000D02*
X109250300Y-103505000D01*
X112756000Y-100142000D02*
X111455700Y-100142000D01*
X111455700Y-100142000D02*
X109250300Y-102347400D01*
X109250300Y-102347400D02*
X109250300Y-103505000D01*
X112756000Y-100142000D02*
X115976000Y-100142000D01*
X115976000Y-100142000D02*
X119532000Y-103698000D01*
G04 #@! TO.N,GND*
X133794000Y-115557000D02*
X133794000Y-116857300D01*
X150825300Y-124760000D02*
X149769000Y-123703700D01*
X149769000Y-123703700D02*
X135768700Y-123703700D01*
X135768700Y-123703700D02*
X134620000Y-122555000D01*
X134620000Y-122555000D02*
X133311000Y-121246000D01*
X133311000Y-121246000D02*
X133311000Y-117340300D01*
X133311000Y-117340300D02*
X133794000Y-116857300D01*
X153078200Y-102763000D02*
X154381000Y-102763000D01*
X146761000Y-102763000D02*
X153078200Y-102763000D01*
X153078200Y-102763000D02*
X153078200Y-98819100D01*
X153078200Y-98819100D02*
X154722000Y-97175300D01*
X154722000Y-97175300D02*
X150111900Y-92565200D01*
X150111900Y-92565200D02*
X146761000Y-92565200D01*
X148909600Y-114614700D02*
X154340500Y-120045600D01*
X154340500Y-120045600D02*
X154340500Y-121244800D01*
X154340500Y-121244800D02*
X150825300Y-124760000D01*
X153080700Y-110383000D02*
X148909600Y-114554100D01*
X148909600Y-114554100D02*
X148909600Y-114614700D01*
X148909600Y-114614700D02*
X148061300Y-115463000D01*
X153035000Y-126969700D02*
X150825300Y-124760000D01*
X146761000Y-115463000D02*
X148061300Y-115463000D01*
X154381000Y-110383000D02*
X153080700Y-110383000D01*
X126695700Y-102682000D02*
X123048000Y-102682000D01*
X123048000Y-102682000D02*
X122032000Y-103698000D01*
X129296300Y-102682000D02*
X129713600Y-102682000D01*
X129713600Y-102682000D02*
X130934700Y-101460900D01*
X130934700Y-101460900D02*
X130934700Y-99799300D01*
X130934700Y-99799300D02*
X133706000Y-97028000D01*
X95123000Y-74549000D02*
X93822700Y-74549000D01*
X91043800Y-74508400D02*
X93782100Y-74508400D01*
X93782100Y-74508400D02*
X93822700Y-74549000D01*
X91094600Y-78105000D02*
X86668400Y-78105000D01*
X86668400Y-78105000D02*
X76350000Y-88423400D01*
X76350000Y-88423400D02*
X76350000Y-90170000D01*
X153035000Y-128270000D02*
X153035000Y-126969700D01*
X133706000Y-97028000D02*
X139486000Y-97028000D01*
X133706000Y-97028000D02*
X133706000Y-92405200D01*
X127996000Y-102682000D02*
X126695700Y-102682000D01*
X100751000Y-99949000D02*
X96902900Y-96100900D01*
X96902900Y-96100900D02*
X95237300Y-96100900D01*
X95237300Y-96100900D02*
X93937000Y-96100900D01*
X85725000Y-98330000D02*
X91707900Y-98330000D01*
X91707900Y-98330000D02*
X93937000Y-96100900D01*
X127996000Y-102682000D02*
X129296300Y-102682000D01*
X93980000Y-67310000D02*
X91440000Y-67310000D01*
X95123000Y-74549000D02*
X97576000Y-74549000D01*
X97576000Y-74549000D02*
X100751000Y-77724000D01*
D26*
G04 #@! TO.N,Net-(C6-Pad1)*
X75425300Y-78663800D02*
X73507600Y-76746100D01*
X73507600Y-76746100D02*
X69354700Y-76746100D01*
X79809300Y-81915000D02*
X76558100Y-78663800D01*
X76558100Y-78663800D02*
X75425300Y-78663800D01*
X80934600Y-81915000D02*
X79809300Y-81915000D01*
G04 #@! TO.N,Net-(C7-Pad1)*
X75425300Y-83543800D02*
X73320300Y-85648800D01*
X73320300Y-85648800D02*
X69354700Y-85648800D01*
X80934600Y-85725000D02*
X82059900Y-85725000D01*
X95237300Y-91020900D02*
X87355800Y-91020900D01*
X87355800Y-91020900D02*
X82059900Y-85725000D01*
G04 #@! TO.N,CLK*
X95237300Y-88480900D02*
X96362600Y-88480900D01*
X112756000Y-87442000D02*
X111630700Y-87442000D01*
X111630700Y-87442000D02*
X111572100Y-87500600D01*
X111572100Y-87500600D02*
X106496700Y-87500600D01*
X106496700Y-87500600D02*
X106351700Y-87355600D01*
X106351700Y-87355600D02*
X97487900Y-87355600D01*
X97487900Y-87355600D02*
X96362600Y-88480900D01*
G04 #@! TO.N,D0*
X101600000Y-69850000D02*
X101600000Y-73098000D01*
X101600000Y-73098000D02*
X105737400Y-77235400D01*
X105737400Y-77235400D02*
X108563500Y-77235400D01*
X108563500Y-77235400D02*
X109075400Y-77747300D01*
X109075400Y-77747300D02*
X109075400Y-79732600D01*
X109075400Y-79732600D02*
X108653300Y-80154700D01*
X108653300Y-80154700D02*
X107950000Y-80154700D01*
X107950000Y-81280000D02*
X107950000Y-80154700D01*
G04 #@! TO.N,D1*
X101600000Y-67310000D02*
X101600000Y-68485300D01*
X107950000Y-83820000D02*
X107950000Y-82694700D01*
X107950000Y-82694700D02*
X108231300Y-82694700D01*
X108231300Y-82694700D02*
X109573400Y-81352600D01*
X109573400Y-81352600D02*
X109573400Y-77608400D01*
X109573400Y-77608400D02*
X108128800Y-76163800D01*
X108128800Y-76163800D02*
X105302700Y-76163800D01*
X105302700Y-76163800D02*
X102775300Y-73636400D01*
X102775300Y-73636400D02*
X102775300Y-69293200D01*
X102775300Y-69293200D02*
X101967400Y-68485300D01*
X101967400Y-68485300D02*
X101600000Y-68485300D01*
G04 #@! TO.N,D3*
X107950000Y-88900000D02*
X109075300Y-88900000D01*
X112756000Y-92522000D02*
X112756000Y-91396700D01*
X112756000Y-91396700D02*
X113037300Y-91396700D01*
X113037300Y-91396700D02*
X113891500Y-90542500D01*
X113891500Y-90542500D02*
X113891500Y-89495000D01*
X113891500Y-89495000D02*
X113239400Y-88842900D01*
X113239400Y-88842900D02*
X109132400Y-88842900D01*
X109132400Y-88842900D02*
X109075300Y-88900000D01*
G04 #@! TO.N,D4*
X112756000Y-89982000D02*
X111630700Y-89982000D01*
X111630700Y-89982000D02*
X110172700Y-91440000D01*
X110172700Y-91440000D02*
X107950000Y-91440000D01*
G04 #@! TO.N,D5*
X112756000Y-95062000D02*
X110157300Y-95062000D01*
X110157300Y-95062000D02*
X109075300Y-93980000D01*
X107950000Y-93980000D02*
X109075300Y-93980000D01*
G04 #@! TO.N,D6*
X107950000Y-96520000D02*
X109075300Y-96520000D01*
X112756000Y-97602000D02*
X111630700Y-97602000D01*
X111630700Y-97602000D02*
X110157300Y-97602000D01*
X110157300Y-97602000D02*
X109075300Y-96520000D01*
G04 #@! TO.N,~IORD*
X154381000Y-92565200D02*
X154381000Y-91439900D01*
X111760000Y-69850000D02*
X111760000Y-68674700D01*
X111760000Y-68674700D02*
X111392700Y-68674700D01*
X111392700Y-68674700D02*
X110577300Y-67859300D01*
X110577300Y-67859300D02*
X110577300Y-66746100D01*
X110577300Y-66746100D02*
X112152900Y-65170500D01*
X112152900Y-65170500D02*
X139881200Y-65170500D01*
X139881200Y-65170500D02*
X153349900Y-78639200D01*
X153349900Y-78639200D02*
X154753800Y-78639200D01*
X154753800Y-78639200D02*
X155978200Y-79863600D01*
X155978200Y-79863600D02*
X155978200Y-90124000D01*
X155978200Y-90124000D02*
X154662300Y-91439900D01*
X154662300Y-91439900D02*
X154381000Y-91439900D01*
G04 #@! TO.N,~MEMRD*
X146761000Y-82405200D02*
X146761000Y-81279900D01*
X111760000Y-67310000D02*
X112935300Y-67310000D01*
X112935300Y-67310000D02*
X112935300Y-66942700D01*
X112935300Y-66942700D02*
X114250000Y-65628000D01*
X114250000Y-65628000D02*
X139690900Y-65628000D01*
X139690900Y-65628000D02*
X147886300Y-73823400D01*
X147886300Y-73823400D02*
X147886300Y-80436000D01*
X147886300Y-80436000D02*
X147042400Y-81279900D01*
X147042400Y-81279900D02*
X146761000Y-81279900D01*
G04 #@! TO.N,~IOWR*
X154381000Y-84945200D02*
X153255700Y-84945200D01*
X121025300Y-83045000D02*
X121510900Y-83530600D01*
X121510900Y-83530600D02*
X151841100Y-83530600D01*
X151841100Y-83530600D02*
X153255700Y-84945200D01*
G04 #@! TO.N,INT*
X96362600Y-80860900D02*
X97487900Y-81986200D01*
X97487900Y-81986200D02*
X103242800Y-81986200D01*
X103242800Y-81986200D02*
X106235400Y-84978800D01*
X106235400Y-84978800D02*
X108420700Y-84978800D01*
X108420700Y-84978800D02*
X110089300Y-83310200D01*
X110089300Y-83310200D02*
X110089300Y-74525700D01*
X110089300Y-74525700D02*
X112499500Y-72115500D01*
X112499500Y-72115500D02*
X116306500Y-72115500D01*
X116306500Y-72115500D02*
X118204700Y-70217300D01*
X118204700Y-70217300D02*
X118204700Y-69850000D01*
X95237300Y-80860900D02*
X96362600Y-80860900D01*
X119380000Y-69850000D02*
X118204700Y-69850000D01*
X95237300Y-80860900D02*
X95237300Y-79735600D01*
X80934600Y-78105000D02*
X82115700Y-76923900D01*
X82115700Y-76923900D02*
X92425600Y-76923900D01*
X92425600Y-76923900D02*
X95237300Y-79735600D01*
G04 #@! TO.N,A10*
X127996000Y-74742000D02*
X129728000Y-74742000D01*
X129728000Y-74742000D02*
X134620000Y-69850000D01*
G04 #@! TO.N,A11*
X113881300Y-74742000D02*
X121237600Y-74742000D01*
X121237600Y-74742000D02*
X125824600Y-70155000D01*
X125824600Y-70155000D02*
X125824600Y-69269000D01*
X125824600Y-69269000D02*
X126608300Y-68485300D01*
X126608300Y-68485300D02*
X132636800Y-68485300D01*
X132636800Y-68485300D02*
X133444700Y-67677400D01*
X133444700Y-67677400D02*
X133444700Y-67310000D01*
X134620000Y-67310000D02*
X133444700Y-67310000D01*
X112756000Y-74742000D02*
X113881300Y-74742000D01*
G04 #@! TO.N,A12*
X137160000Y-69850000D02*
X135984700Y-69850000D01*
X112756000Y-77282000D02*
X123910500Y-77282000D01*
X123910500Y-77282000D02*
X125180500Y-76012000D01*
X125180500Y-76012000D02*
X130190000Y-76012000D01*
X130190000Y-76012000D02*
X135984700Y-70217300D01*
X135984700Y-70217300D02*
X135984700Y-69850000D01*
G04 #@! TO.N,A13*
X137160000Y-67310000D02*
X135984700Y-67310000D01*
X112756000Y-79822000D02*
X112756000Y-78696700D01*
X112756000Y-78696700D02*
X112474700Y-78696700D01*
X112474700Y-78696700D02*
X111625300Y-77847300D01*
X111625300Y-77847300D02*
X111625300Y-76755200D01*
X111625300Y-76755200D02*
X112404900Y-75975600D01*
X112404900Y-75975600D02*
X122536700Y-75975600D01*
X122536700Y-75975600D02*
X126307300Y-72205000D01*
X126307300Y-72205000D02*
X131391400Y-72205000D01*
X131391400Y-72205000D02*
X133383400Y-70213000D01*
X133383400Y-70213000D02*
X133383400Y-69402400D01*
X133383400Y-69402400D02*
X134300500Y-68485300D01*
X134300500Y-68485300D02*
X135176800Y-68485300D01*
X135176800Y-68485300D02*
X135984700Y-67677400D01*
X135984700Y-67677400D02*
X135984700Y-67310000D01*
G04 #@! TO.N,A14*
X138524700Y-69850000D02*
X138524700Y-70147600D01*
X138524700Y-70147600D02*
X133407300Y-75265000D01*
X133407300Y-75265000D02*
X132770500Y-75265000D01*
X132770500Y-75265000D02*
X129559300Y-78476200D01*
X129559300Y-78476200D02*
X117767100Y-78476200D01*
X117767100Y-78476200D02*
X113881300Y-82362000D01*
X139700000Y-69850000D02*
X138524700Y-69850000D01*
X112756000Y-82362000D02*
X113881300Y-82362000D01*
G04 #@! TO.N,A15*
X139700000Y-67310000D02*
X139700000Y-68485300D01*
X112756000Y-84902000D02*
X113881300Y-84902000D01*
X113881300Y-84902000D02*
X117546700Y-81236600D01*
X117546700Y-81236600D02*
X128186600Y-81236600D01*
X128186600Y-81236600D02*
X132580700Y-76842500D01*
X132580700Y-76842500D02*
X132580700Y-76230400D01*
X132580700Y-76230400D02*
X132774200Y-76036900D01*
X132774200Y-76036900D02*
X135188900Y-76036900D01*
X135188900Y-76036900D02*
X140875300Y-70350500D01*
X140875300Y-70350500D02*
X140875300Y-69293200D01*
X140875300Y-69293200D02*
X140067400Y-68485300D01*
X140067400Y-68485300D02*
X139700000Y-68485300D01*
G04 #@! TO.N,Net-(R3-Pad1)*
X95237300Y-85940900D02*
X94112000Y-85940900D01*
X91094600Y-85725000D02*
X93896100Y-85725000D01*
X93896100Y-85725000D02*
X94112000Y-85940900D01*
G04 #@! TO.N,Net-(D2-Pad1)*
X71056500Y-71399400D02*
X72281800Y-71399400D01*
X80883800Y-74508400D02*
X74931300Y-74508400D01*
X74931300Y-74508400D02*
X72281800Y-71858900D01*
X72281800Y-71858900D02*
X72281800Y-71399400D01*
G04 #@! TO.N,HOLD*
X119380000Y-67310000D02*
X118204700Y-67310000D01*
X105283000Y-74549000D02*
X108261500Y-71570500D01*
X108261500Y-71570500D02*
X114298800Y-71570500D01*
X114298800Y-71570500D02*
X115664600Y-70204700D01*
X115664600Y-70204700D02*
X115664600Y-69324400D01*
X115664600Y-69324400D02*
X116503700Y-68485300D01*
X116503700Y-68485300D02*
X117396800Y-68485300D01*
X117396800Y-68485300D02*
X118204700Y-67677400D01*
X118204700Y-67677400D02*
X118204700Y-67310000D01*
G04 #@! TO.N,RDYIN*
X107950000Y-106045000D02*
X109075300Y-106045000D01*
X127996000Y-115382000D02*
X127996000Y-114256700D01*
X127996000Y-114256700D02*
X128182000Y-114256700D01*
X128182000Y-114256700D02*
X129609100Y-112829600D01*
X129609100Y-112829600D02*
X129609100Y-107770700D01*
X129609100Y-107770700D02*
X128330400Y-106492000D01*
X128330400Y-106492000D02*
X109522300Y-106492000D01*
X109522300Y-106492000D02*
X109075300Y-106045000D01*
X107950000Y-106045000D02*
X106824700Y-106045000D01*
X106824700Y-106045000D02*
X105515500Y-104735800D01*
X105515500Y-104735800D02*
X82421800Y-104735800D01*
X82421800Y-104735800D02*
X77397300Y-109760300D01*
X77397300Y-109760300D02*
X74373200Y-109760300D01*
X74373200Y-109760300D02*
X73565300Y-108952400D01*
X73565300Y-108952400D02*
X73565300Y-108585000D01*
X72390000Y-108585000D02*
X73565300Y-108585000D01*
G04 #@! TO.N,~RESIN*
X69850000Y-94670000D02*
X76350000Y-94670000D01*
X91094600Y-93345000D02*
X89869300Y-93345000D01*
X76350000Y-94670000D02*
X88544300Y-94670000D01*
X88544300Y-94670000D02*
X89869300Y-93345000D01*
G04 #@! TO.N,HLDA*
X117026300Y-88625300D02*
X114499100Y-86098100D01*
X114499100Y-86098100D02*
X112316100Y-86098100D01*
X112316100Y-86098100D02*
X111159800Y-84941800D01*
X111159800Y-84941800D02*
X111159800Y-74208400D01*
X111159800Y-74208400D02*
X112352200Y-73016000D01*
X112352200Y-73016000D02*
X117964300Y-73016000D01*
X117964300Y-73016000D02*
X120593700Y-70386600D01*
X120593700Y-70386600D02*
X120593700Y-66827400D01*
X120593700Y-66827400D02*
X119854200Y-66087900D01*
X119854200Y-66087900D02*
X118062100Y-66087900D01*
X118062100Y-66087900D02*
X116840000Y-67310000D01*
X102857300Y-91020900D02*
X103982600Y-91020900D01*
X117026300Y-88625300D02*
X117026300Y-89875900D01*
X117026300Y-89875900D02*
X113230500Y-93671700D01*
X113230500Y-93671700D02*
X110929700Y-93671700D01*
X110929700Y-93671700D02*
X109968000Y-92710000D01*
X109968000Y-92710000D02*
X105671700Y-92710000D01*
X105671700Y-92710000D02*
X103982600Y-91020900D01*
X140200700Y-87325200D02*
X138900600Y-88625300D01*
X138900600Y-88625300D02*
X117026300Y-88625300D01*
X141326000Y-87325200D02*
X140200700Y-87325200D01*
G04 #@! TO.N,Net-(U4-Pad3)*
X146761000Y-79865200D02*
X145635700Y-79865200D01*
X145635700Y-79865200D02*
X144636100Y-80864800D01*
X144636100Y-80864800D02*
X132873900Y-80864800D01*
G04 #@! TO.N,Net-(U4-Pad6)*
X145635700Y-87485200D02*
X144670300Y-88450600D01*
X144670300Y-88450600D02*
X140024900Y-88450600D01*
X140024900Y-88450600D02*
X136453100Y-92022400D01*
X134919300Y-113017000D02*
X136268600Y-111667700D01*
X136268600Y-111667700D02*
X136864100Y-111667700D01*
X146761000Y-87485200D02*
X145635700Y-87485200D01*
X133794000Y-113017000D02*
X134919300Y-113017000D01*
G04 #@! TO.N,Net-(U5-Pad8)*
X154381000Y-79865200D02*
X154381000Y-80990500D01*
X154381000Y-80990500D02*
X154662300Y-80990500D01*
X154662300Y-80990500D02*
X155527800Y-81856000D01*
X155527800Y-81856000D02*
X155527800Y-85431500D01*
X155527800Y-85431500D02*
X154472400Y-86486900D01*
X154472400Y-86486900D02*
X154381000Y-86486900D01*
X149428000Y-86486900D02*
X147886300Y-84945200D01*
X154381000Y-86486900D02*
X149428000Y-86486900D01*
X149428000Y-86486900D02*
X147159700Y-88755200D01*
X147159700Y-88755200D02*
X146435800Y-88755200D01*
X146435800Y-88755200D02*
X142785800Y-92405200D01*
X142785800Y-92405200D02*
X141326000Y-92405200D01*
X146761000Y-84945200D02*
X147886300Y-84945200D01*
X154381000Y-87485200D02*
X154381000Y-86486900D01*
G04 #@! TO.N,~RD*
X126870700Y-123002000D02*
X126870700Y-119924000D01*
X126870700Y-119924000D02*
X127458100Y-119336600D01*
X127458100Y-119336600D02*
X128196100Y-119336600D01*
X128196100Y-119336600D02*
X133390400Y-114142300D01*
X133390400Y-114142300D02*
X139163400Y-114142300D01*
X139163400Y-114142300D02*
X140288700Y-113017000D01*
X76105300Y-121285000D02*
X82532600Y-127712300D01*
X82532600Y-127712300D02*
X122160400Y-127712300D01*
X122160400Y-127712300D02*
X126870700Y-123002000D01*
X141414000Y-113017000D02*
X140288700Y-113017000D01*
X74930000Y-121285000D02*
X76105300Y-121285000D01*
X127996000Y-123002000D02*
X126870700Y-123002000D01*
X141414000Y-113017000D02*
X141414000Y-111891700D01*
X133794000Y-100317000D02*
X134919300Y-100317000D01*
X134919300Y-100317000D02*
X136044600Y-101442300D01*
X136044600Y-101442300D02*
X141654900Y-101442300D01*
X141654900Y-101442300D02*
X142539300Y-102326700D01*
X142539300Y-102326700D02*
X142539300Y-111047800D01*
X142539300Y-111047800D02*
X141695400Y-111891700D01*
X141695400Y-111891700D02*
X141414000Y-111891700D01*
G04 #@! TO.N,~WR*
X146829700Y-128270000D02*
X146829700Y-127988700D01*
X146829700Y-127988700D02*
X143356900Y-124515900D01*
X143356900Y-124515900D02*
X134002000Y-124515900D01*
X134002000Y-124515900D02*
X131770300Y-122284200D01*
X131770300Y-122284200D02*
X129339500Y-122284200D01*
X129339500Y-122284200D02*
X129156600Y-122467100D01*
X127996000Y-121587300D02*
X128276800Y-121587300D01*
X128276800Y-121587300D02*
X129156600Y-122467100D01*
X129156600Y-122467100D02*
X129156600Y-123447700D01*
X129156600Y-123447700D02*
X124385400Y-128218900D01*
X124385400Y-128218900D02*
X79691200Y-128218900D01*
X79691200Y-128218900D02*
X73565300Y-122093000D01*
X73565300Y-122093000D02*
X73565300Y-121285000D01*
X129598800Y-114361300D02*
X132668700Y-111291400D01*
X132668700Y-111291400D02*
X132668700Y-110477000D01*
X127996000Y-120462000D02*
X127996000Y-121587300D01*
X72390000Y-121285000D02*
X73565300Y-121285000D01*
X147955000Y-128270000D02*
X146829700Y-128270000D01*
X133794000Y-110477000D02*
X132668700Y-110477000D01*
X133794000Y-110477000D02*
X134919300Y-110477000D01*
X141414000Y-102857000D02*
X141414000Y-103982300D01*
X134919300Y-110477000D02*
X134919300Y-110195700D01*
X134919300Y-110195700D02*
X141132700Y-103982300D01*
X141132700Y-103982300D02*
X141414000Y-103982300D01*
G04 #@! TO.N,~RESET*
X145415000Y-128270000D02*
X144289700Y-128270000D01*
X130354600Y-123010900D02*
X134488400Y-127144700D01*
X134488400Y-127144700D02*
X143445800Y-127144700D01*
X143445800Y-127144700D02*
X144289700Y-127988600D01*
X144289700Y-127988600D02*
X144289700Y-128270000D01*
X95427800Y-105867000D02*
X96553100Y-105867000D01*
X127996000Y-110302000D02*
X126870700Y-110302000D01*
X126870700Y-110302000D02*
X125745400Y-109176700D01*
X125745400Y-109176700D02*
X111806500Y-109176700D01*
X111806500Y-109176700D02*
X109911400Y-107281600D01*
X109911400Y-107281600D02*
X97967700Y-107281600D01*
X97967700Y-107281600D02*
X96553100Y-105867000D01*
X77601400Y-110582000D02*
X82316400Y-105867000D01*
X82316400Y-105867000D02*
X95427800Y-105867000D01*
G04 #@! TO.N,Net-(U5-Pad3)*
X141605000Y-121391400D02*
X141605000Y-120267400D01*
X141605000Y-120267400D02*
X145635700Y-116236700D01*
X145635700Y-116236700D02*
X145635700Y-109812200D01*
X145635700Y-109812200D02*
X146479600Y-108968300D01*
X146479600Y-108968300D02*
X146761000Y-108968300D01*
X146761000Y-107843000D02*
X146761000Y-108968300D01*
G04 #@! TO.N,Net-(U5-Pad9)*
X141326000Y-89865200D02*
X141326000Y-90990500D01*
X141326000Y-90990500D02*
X141044700Y-90990500D01*
X141044700Y-90990500D02*
X140199300Y-91835900D01*
X140199300Y-91835900D02*
X140199300Y-93118500D01*
X140199300Y-93118500D02*
X140842000Y-93761200D01*
X140842000Y-93761200D02*
X140842000Y-97509300D01*
X140842000Y-97509300D02*
X145122800Y-101790100D01*
X145122800Y-101790100D02*
X145122800Y-102744100D01*
X145122800Y-102744100D02*
X146411700Y-104033000D01*
X146411700Y-104033000D02*
X147149100Y-104033000D01*
X147149100Y-104033000D02*
X147895600Y-104779500D01*
X147895600Y-104779500D02*
X147895600Y-109248400D01*
X147895600Y-109248400D02*
X146761000Y-110383000D01*
G04 #@! TO.N,~BUSACK*
X72390000Y-113665000D02*
X72390000Y-112489700D01*
X102857300Y-88480900D02*
X101732000Y-88480900D01*
X101732000Y-88480900D02*
X101732000Y-88762200D01*
X101732000Y-88762200D02*
X95807900Y-94686300D01*
X95807900Y-94686300D02*
X92865600Y-94686300D01*
X92865600Y-94686300D02*
X90646600Y-96905300D01*
X90646600Y-96905300D02*
X85820600Y-96905300D01*
X85820600Y-96905300D02*
X75410900Y-107315000D01*
X75410900Y-107315000D02*
X71920600Y-107315000D01*
X71920600Y-107315000D02*
X71214700Y-108020900D01*
X71214700Y-108020900D02*
X71214700Y-111681800D01*
X71214700Y-111681800D02*
X72022600Y-112489700D01*
X72022600Y-112489700D02*
X72390000Y-112489700D01*
X72390000Y-113665000D02*
X72390000Y-114840300D01*
X127996000Y-117922000D02*
X126870700Y-117922000D01*
X126870700Y-117922000D02*
X117530800Y-127261900D01*
X117530800Y-127261900D02*
X83790600Y-127261900D01*
X83790600Y-127261900D02*
X76543700Y-120015000D01*
X76543700Y-120015000D02*
X71920600Y-120015000D01*
X71920600Y-120015000D02*
X71214700Y-119309100D01*
X71214700Y-119309100D02*
X71214700Y-115648200D01*
X71214700Y-115648200D02*
X72022600Y-114840300D01*
X72022600Y-114840300D02*
X72390000Y-114840300D01*
G04 #@! TO.N,~BUSREQ*
X153035000Y-120650000D02*
X151909700Y-120650000D01*
X137702200Y-122304000D02*
X150537000Y-122304000D01*
X150537000Y-122304000D02*
X151909700Y-120931300D01*
X151909700Y-120931300D02*
X151909700Y-120650000D01*
G04 #@! TO.N,~M1*
X74930000Y-116205000D02*
X76105300Y-116205000D01*
X127996000Y-107762000D02*
X127996000Y-108887300D01*
X127996000Y-108887300D02*
X128277300Y-108887300D01*
X128277300Y-108887300D02*
X129149200Y-109759200D01*
X129149200Y-109759200D02*
X129149200Y-110774000D01*
X129149200Y-110774000D02*
X128495800Y-111427400D01*
X128495800Y-111427400D02*
X127802100Y-111427400D01*
X127802100Y-111427400D02*
X125262100Y-113967400D01*
X125262100Y-113967400D02*
X110967900Y-113967400D01*
X110967900Y-113967400D02*
X109907600Y-115027700D01*
X109907600Y-115027700D02*
X107534600Y-115027700D01*
X107534600Y-115027700D02*
X105390600Y-117171700D01*
X105390600Y-117171700D02*
X92635900Y-117171700D01*
X92635900Y-117171700D02*
X89486700Y-114022500D01*
X89486700Y-114022500D02*
X78287800Y-114022500D01*
X78287800Y-114022500D02*
X76105300Y-116205000D01*
G04 #@! TO.N,~RFSH*
X127996000Y-105222000D02*
X126870700Y-105222000D01*
X76105300Y-108585000D02*
X82545100Y-102145200D01*
X82545100Y-102145200D02*
X107910500Y-102145200D01*
X107910500Y-102145200D02*
X111071200Y-98984500D01*
X111071200Y-98984500D02*
X116429300Y-98984500D01*
X116429300Y-98984500D02*
X120782000Y-103337200D01*
X120782000Y-103337200D02*
X120782000Y-104057100D01*
X120782000Y-104057100D02*
X121946900Y-105222000D01*
X121946900Y-105222000D02*
X126870700Y-105222000D01*
X74930000Y-108585000D02*
X76105300Y-108585000D01*
G04 #@! TO.N,RN22*
X74930000Y-111125000D02*
X76105300Y-111125000D01*
X76105300Y-111125000D02*
X76287600Y-111307300D01*
X76287600Y-111307300D02*
X93205800Y-111307300D01*
X93205800Y-111307300D02*
X94802800Y-109710300D01*
X94802800Y-109710300D02*
X105699400Y-109710300D01*
X105699400Y-109710300D02*
X106824700Y-108585000D01*
X107950000Y-108585000D02*
X106824700Y-108585000D01*
G04 #@! TO.N,~HALT*
X111630700Y-117922000D02*
X109650900Y-119901800D01*
X109650900Y-119901800D02*
X94003900Y-119901800D01*
X94003900Y-119901800D02*
X88869700Y-114767600D01*
X88869700Y-114767600D02*
X81997300Y-114767600D01*
X112756000Y-117922000D02*
X111630700Y-117922000D01*
G04 #@! TO.N,~MREQ*
X72390000Y-118745000D02*
X73565300Y-118745000D01*
X112756000Y-120462000D02*
X111630700Y-120462000D01*
X111630700Y-120462000D02*
X109668500Y-122424200D01*
X109668500Y-122424200D02*
X95252500Y-122424200D01*
X95252500Y-122424200D02*
X88080600Y-115252300D01*
X88080600Y-115252300D02*
X82773300Y-115252300D01*
X82773300Y-115252300D02*
X80455900Y-117569700D01*
X80455900Y-117569700D02*
X74373200Y-117569700D01*
X74373200Y-117569700D02*
X73565300Y-118377600D01*
X73565300Y-118377600D02*
X73565300Y-118745000D01*
X131718300Y-104059500D02*
X131718300Y-104955000D01*
X131718300Y-104955000D02*
X133575000Y-106811700D01*
X133575000Y-106811700D02*
X133794000Y-106811700D01*
X132668700Y-102857000D02*
X131718300Y-103807400D01*
X131718300Y-103807400D02*
X131718300Y-104059500D01*
X124540000Y-104311700D02*
X124792200Y-104059500D01*
X124792200Y-104059500D02*
X131718300Y-104059500D01*
X133794000Y-107937000D02*
X133794000Y-106811700D01*
X133794000Y-102857000D02*
X132668700Y-102857000D01*
G04 #@! TO.N,~IOREQ*
X111630700Y-123002000D02*
X107833100Y-126799600D01*
X107833100Y-126799600D02*
X84179400Y-126799600D01*
X84179400Y-126799600D02*
X76124800Y-118745000D01*
X76124800Y-118745000D02*
X74930000Y-118745000D01*
X112756000Y-123002000D02*
X113881300Y-123002000D01*
X113881300Y-123002000D02*
X120223100Y-116660200D01*
X120223100Y-116660200D02*
X128325700Y-116660200D01*
X128325700Y-116660200D02*
X133312800Y-111673100D01*
X133312800Y-111673100D02*
X135201200Y-111673100D01*
X135201200Y-111673100D02*
X136397300Y-110477000D01*
X136397300Y-110477000D02*
X140288700Y-110477000D01*
X112193400Y-123002000D02*
X112756000Y-123002000D01*
X141414000Y-106522300D02*
X141132700Y-106522300D01*
X141132700Y-106522300D02*
X140288700Y-107366300D01*
X140288700Y-107366300D02*
X140288700Y-110477000D01*
X141414000Y-105397000D02*
X141414000Y-106522300D01*
X141414000Y-110477000D02*
X140288700Y-110477000D01*
X112193400Y-123002000D02*
X111630700Y-123002000D01*
G04 #@! TO.N,RN24*
X97738600Y-114635500D02*
X91648100Y-114635500D01*
X91648100Y-114635500D02*
X90565000Y-113552400D01*
X90565000Y-113552400D02*
X76217900Y-113552400D01*
X76217900Y-113552400D02*
X76105300Y-113665000D01*
X106824700Y-113665000D02*
X105854200Y-114635500D01*
X105854200Y-114635500D02*
X97738600Y-114635500D01*
X74930000Y-113665000D02*
X76105300Y-113665000D01*
X107950000Y-113665000D02*
X106824700Y-113665000D01*
G04 #@! TO.N,Net-(U3-Pad8)*
X129817600Y-101304700D02*
X120188500Y-101304700D01*
X120188500Y-101304700D02*
X115103600Y-96219800D01*
X115103600Y-96219800D02*
X110248200Y-96219800D01*
X110248200Y-96219800D02*
X109384900Y-95356500D01*
X109384900Y-95356500D02*
X104727000Y-95356500D01*
X104727000Y-95356500D02*
X103982600Y-96100900D01*
X102857300Y-96100900D02*
X103982600Y-96100900D01*
G04 #@! TO.N,RN23*
X109075300Y-111125000D02*
X109429200Y-111478900D01*
X109429200Y-111478900D02*
X126707900Y-111478900D01*
X107950000Y-111125000D02*
X109075300Y-111125000D01*
X106824700Y-111125000D02*
X105630700Y-112319000D01*
X105630700Y-112319000D02*
X74392000Y-112319000D01*
X74392000Y-112319000D02*
X73565300Y-111492300D01*
X73565300Y-111492300D02*
X73565300Y-111125000D01*
X107950000Y-111125000D02*
X106824700Y-111125000D01*
X72390000Y-111125000D02*
X73565300Y-111125000D01*
G04 #@! TD*
D27*
G04 #@! TO.N,GND*
G36*
X163120001Y-131370000D02*
X65480000Y-131370000D01*
X65480000Y-127130431D01*
X67565000Y-127130431D01*
X67565000Y-128019569D01*
X67905259Y-128841026D01*
X68533974Y-129469741D01*
X69355431Y-129810000D01*
X70244569Y-129810000D01*
X71066026Y-129469741D01*
X71694741Y-128841026D01*
X72035000Y-128019569D01*
X72035000Y-127130431D01*
X71694741Y-126308974D01*
X71066026Y-125680259D01*
X70244569Y-125340000D01*
X69355431Y-125340000D01*
X68533974Y-125680259D01*
X67905259Y-126308974D01*
X67565000Y-127130431D01*
X65480000Y-127130431D01*
X65480000Y-98210000D01*
X68987560Y-98210000D01*
X68987560Y-99910000D01*
X69036843Y-100157765D01*
X69177191Y-100367809D01*
X69387235Y-100508157D01*
X69635000Y-100557440D01*
X71335000Y-100557440D01*
X71582765Y-100508157D01*
X71792809Y-100367809D01*
X71933157Y-100157765D01*
X71942184Y-100112381D01*
X71954375Y-100130625D01*
X72445582Y-100458839D01*
X72878744Y-100545000D01*
X73171256Y-100545000D01*
X73604418Y-100458839D01*
X74095625Y-100130625D01*
X74295000Y-99832239D01*
X74494375Y-100130625D01*
X74985582Y-100458839D01*
X75418744Y-100545000D01*
X75711256Y-100545000D01*
X76144418Y-100458839D01*
X76635625Y-100130625D01*
X76963839Y-99639418D01*
X77079092Y-99060000D01*
X76963839Y-98480582D01*
X76635625Y-97989375D01*
X76144418Y-97661161D01*
X75711256Y-97575000D01*
X75418744Y-97575000D01*
X74985582Y-97661161D01*
X74494375Y-97989375D01*
X74295000Y-98287761D01*
X74095625Y-97989375D01*
X73604418Y-97661161D01*
X73171256Y-97575000D01*
X72878744Y-97575000D01*
X72445582Y-97661161D01*
X71954375Y-97989375D01*
X71942184Y-98007619D01*
X71933157Y-97962235D01*
X71792809Y-97752191D01*
X71582765Y-97611843D01*
X71335000Y-97562560D01*
X69635000Y-97562560D01*
X69387235Y-97611843D01*
X69177191Y-97752191D01*
X69036843Y-97962235D01*
X68987560Y-98210000D01*
X65480000Y-98210000D01*
X65480000Y-94344778D01*
X68215000Y-94344778D01*
X68215000Y-94995222D01*
X68463914Y-95596153D01*
X68923847Y-96056086D01*
X69524778Y-96305000D01*
X70175222Y-96305000D01*
X70776153Y-96056086D01*
X71236086Y-95596153D01*
X71304909Y-95430000D01*
X74895091Y-95430000D01*
X74963914Y-95596153D01*
X75423847Y-96056086D01*
X76024778Y-96305000D01*
X76675222Y-96305000D01*
X77276153Y-96056086D01*
X77736086Y-95596153D01*
X77804909Y-95430000D01*
X88469453Y-95430000D01*
X88544300Y-95444888D01*
X88619147Y-95430000D01*
X88619152Y-95430000D01*
X88840837Y-95385904D01*
X89092229Y-95217929D01*
X89134631Y-95154470D01*
X89927646Y-94361456D01*
X89987927Y-94451673D01*
X90495673Y-94790938D01*
X90943418Y-94880000D01*
X91245782Y-94880000D01*
X91684331Y-94792767D01*
X90331799Y-96145300D01*
X85895447Y-96145300D01*
X85820600Y-96130412D01*
X85745753Y-96145300D01*
X85745748Y-96145300D01*
X85524063Y-96189396D01*
X85272671Y-96357371D01*
X85230271Y-96420827D01*
X76271432Y-105379667D01*
X76000625Y-104974375D01*
X75509418Y-104646161D01*
X75076256Y-104560000D01*
X74783744Y-104560000D01*
X74350582Y-104646161D01*
X73859375Y-104974375D01*
X73660000Y-105272761D01*
X73460625Y-104974375D01*
X72969418Y-104646161D01*
X72536256Y-104560000D01*
X72243744Y-104560000D01*
X71810582Y-104646161D01*
X71319375Y-104974375D01*
X70991161Y-105465582D01*
X70875908Y-106045000D01*
X70991161Y-106624418D01*
X71209545Y-106951253D01*
X70730229Y-107430570D01*
X70666771Y-107472971D01*
X70498796Y-107724364D01*
X70454700Y-107946049D01*
X70454700Y-107946053D01*
X70439812Y-108020900D01*
X70454700Y-108095747D01*
X70454701Y-111606948D01*
X70439812Y-111681800D01*
X70498797Y-111978337D01*
X70618560Y-112157574D01*
X70666772Y-112229729D01*
X70730228Y-112272129D01*
X71212469Y-112754371D01*
X70991161Y-113085582D01*
X70875908Y-113665000D01*
X70991161Y-114244418D01*
X71212469Y-114575629D01*
X70730228Y-115057871D01*
X70666772Y-115100271D01*
X70624372Y-115163727D01*
X70624371Y-115163728D01*
X70529120Y-115306282D01*
X70498797Y-115351663D01*
X70466870Y-115512173D01*
X70439812Y-115648200D01*
X70454701Y-115723052D01*
X70454700Y-119234253D01*
X70439812Y-119309100D01*
X70454700Y-119383947D01*
X70454700Y-119383951D01*
X70498796Y-119605636D01*
X70666771Y-119857029D01*
X70730229Y-119899430D01*
X71209545Y-120378747D01*
X70991161Y-120705582D01*
X70875908Y-121285000D01*
X70991161Y-121864418D01*
X71319375Y-122355625D01*
X71810582Y-122683839D01*
X72243744Y-122770000D01*
X72536256Y-122770000D01*
X72969418Y-122683839D01*
X73025504Y-122646363D01*
X73080830Y-122683331D01*
X79100871Y-128703373D01*
X79143271Y-128766829D01*
X79394663Y-128934804D01*
X79616348Y-128978900D01*
X79616353Y-128978900D01*
X79691200Y-128993788D01*
X79766047Y-128978900D01*
X124310553Y-128978900D01*
X124385400Y-128993788D01*
X124460247Y-128978900D01*
X124460252Y-128978900D01*
X124681937Y-128934804D01*
X124933329Y-128766829D01*
X124975731Y-128703370D01*
X129641073Y-124038029D01*
X129704529Y-123995629D01*
X129751340Y-123925571D01*
X129774510Y-123890895D01*
X130148726Y-124045900D01*
X130314799Y-124045900D01*
X133898070Y-127629172D01*
X133940471Y-127692629D01*
X134191863Y-127860604D01*
X134413548Y-127904700D01*
X134413552Y-127904700D01*
X134488399Y-127919588D01*
X134563246Y-127904700D01*
X136347560Y-127904700D01*
X136347560Y-129070000D01*
X136396843Y-129317765D01*
X136537191Y-129527809D01*
X136747235Y-129668157D01*
X136995000Y-129717440D01*
X138595000Y-129717440D01*
X138842765Y-129668157D01*
X139052809Y-129527809D01*
X139193157Y-129317765D01*
X139219785Y-129183894D01*
X139300423Y-129304577D01*
X139775091Y-129621740D01*
X140193667Y-129705000D01*
X140476333Y-129705000D01*
X140894909Y-129621740D01*
X141369577Y-129304577D01*
X141605000Y-128952242D01*
X141840423Y-129304577D01*
X142315091Y-129621740D01*
X142733667Y-129705000D01*
X143016333Y-129705000D01*
X143434909Y-129621740D01*
X143909577Y-129304577D01*
X144107333Y-129008614D01*
X144194214Y-129025896D01*
X144380423Y-129304577D01*
X144855091Y-129621740D01*
X145273667Y-129705000D01*
X145556333Y-129705000D01*
X145974909Y-129621740D01*
X146449577Y-129304577D01*
X146647333Y-129008614D01*
X146734214Y-129025896D01*
X146920423Y-129304577D01*
X147395091Y-129621740D01*
X147813667Y-129705000D01*
X148096333Y-129705000D01*
X148514909Y-129621740D01*
X148989577Y-129304577D01*
X149225000Y-128952242D01*
X149460423Y-129304577D01*
X149935091Y-129621740D01*
X150353667Y-129705000D01*
X150636333Y-129705000D01*
X151054909Y-129621740D01*
X151529577Y-129304577D01*
X151785947Y-128920892D01*
X151882611Y-129125134D01*
X152297577Y-129501041D01*
X152685961Y-129661904D01*
X152908000Y-129539915D01*
X152908000Y-128397000D01*
X153162000Y-128397000D01*
X153162000Y-129539915D01*
X153384039Y-129661904D01*
X153772423Y-129501041D01*
X154187389Y-129125134D01*
X154426914Y-128619041D01*
X154305629Y-128397000D01*
X153162000Y-128397000D01*
X152908000Y-128397000D01*
X152888000Y-128397000D01*
X152888000Y-128143000D01*
X152908000Y-128143000D01*
X152908000Y-127000085D01*
X153162000Y-127000085D01*
X153162000Y-128143000D01*
X154305629Y-128143000D01*
X154426914Y-127920959D01*
X154187389Y-127414866D01*
X153845802Y-127105431D01*
X156615000Y-127105431D01*
X156615000Y-127994569D01*
X156955259Y-128816026D01*
X157583974Y-129444741D01*
X158405431Y-129785000D01*
X159294569Y-129785000D01*
X160116026Y-129444741D01*
X160744741Y-128816026D01*
X161085000Y-127994569D01*
X161085000Y-127105431D01*
X160744741Y-126283974D01*
X160116026Y-125655259D01*
X159294569Y-125315000D01*
X158405431Y-125315000D01*
X157583974Y-125655259D01*
X156955259Y-126283974D01*
X156615000Y-127105431D01*
X153845802Y-127105431D01*
X153772423Y-127038959D01*
X153384039Y-126878096D01*
X153162000Y-127000085D01*
X152908000Y-127000085D01*
X152685961Y-126878096D01*
X152297577Y-127038959D01*
X151882611Y-127414866D01*
X151785947Y-127619108D01*
X151529577Y-127235423D01*
X151054909Y-126918260D01*
X150636333Y-126835000D01*
X150353667Y-126835000D01*
X149935091Y-126918260D01*
X149460423Y-127235423D01*
X149225000Y-127587758D01*
X148989577Y-127235423D01*
X148514909Y-126918260D01*
X148096333Y-126835000D01*
X147813667Y-126835000D01*
X147395091Y-126918260D01*
X147058779Y-127142977D01*
X143947231Y-124031430D01*
X143904829Y-123967971D01*
X143653437Y-123799996D01*
X143431752Y-123755900D01*
X143431747Y-123755900D01*
X143356900Y-123741012D01*
X143282053Y-123755900D01*
X135389958Y-123755900D01*
X135448139Y-123562745D01*
X134620000Y-122734605D01*
X134605858Y-122748748D01*
X134426252Y-122569142D01*
X134440395Y-122555000D01*
X134799605Y-122555000D01*
X135627745Y-123383139D01*
X135873864Y-123309005D01*
X136066965Y-122771777D01*
X136039778Y-122201546D01*
X135873864Y-121800995D01*
X135627745Y-121726861D01*
X134799605Y-122555000D01*
X134440395Y-122555000D01*
X133612255Y-121726861D01*
X133366136Y-121800995D01*
X133173035Y-122338223D01*
X133186748Y-122625846D01*
X132360631Y-121799730D01*
X132318229Y-121736271D01*
X132066837Y-121568296D01*
X131845152Y-121524200D01*
X131845147Y-121524200D01*
X131770300Y-121509312D01*
X131695453Y-121524200D01*
X129414348Y-121524200D01*
X129339500Y-121509312D01*
X129284545Y-121520243D01*
X129122823Y-121358521D01*
X129347740Y-121021909D01*
X129459113Y-120462000D01*
X129347740Y-119902091D01*
X129090459Y-119517042D01*
X132489774Y-116117727D01*
X132562959Y-116294423D01*
X132938866Y-116709389D01*
X133444959Y-116948914D01*
X133667000Y-116827629D01*
X133667000Y-115684000D01*
X133921000Y-115684000D01*
X133921000Y-116827629D01*
X134143041Y-116948914D01*
X134649134Y-116709389D01*
X135025041Y-116294423D01*
X135185904Y-115906039D01*
X135063915Y-115684000D01*
X133921000Y-115684000D01*
X133667000Y-115684000D01*
X133647000Y-115684000D01*
X133647000Y-115430000D01*
X133667000Y-115430000D01*
X133667000Y-115410000D01*
X133921000Y-115410000D01*
X133921000Y-115430000D01*
X135063915Y-115430000D01*
X135185904Y-115207961D01*
X135059304Y-114902300D01*
X139088553Y-114902300D01*
X139163400Y-114917188D01*
X139238247Y-114902300D01*
X139238252Y-114902300D01*
X139459937Y-114858204D01*
X139711329Y-114690229D01*
X139753731Y-114626770D01*
X140359196Y-114021305D01*
X140379423Y-114051577D01*
X140731758Y-114287000D01*
X140379423Y-114522423D01*
X140062260Y-114997091D01*
X139950887Y-115557000D01*
X140062260Y-116116909D01*
X140379423Y-116591577D01*
X140706672Y-116810238D01*
X138241258Y-119275653D01*
X137936333Y-119215000D01*
X137653667Y-119215000D01*
X137235091Y-119298260D01*
X136773604Y-119606615D01*
X136625961Y-119458972D01*
X136573797Y-119380903D01*
X136264519Y-119174250D01*
X135991786Y-119120000D01*
X135899700Y-119101683D01*
X135807614Y-119120000D01*
X135714396Y-119120000D01*
X135432862Y-118838466D01*
X134905439Y-118620000D01*
X134334561Y-118620000D01*
X133807138Y-118838466D01*
X133403466Y-119242138D01*
X133185000Y-119769561D01*
X133185000Y-120340439D01*
X133403466Y-120867862D01*
X133807138Y-121271534D01*
X133872299Y-121298525D01*
X133865995Y-121301136D01*
X133791861Y-121547255D01*
X134620000Y-122375395D01*
X135448139Y-121547255D01*
X135374005Y-121301136D01*
X135367254Y-121298710D01*
X135432862Y-121271534D01*
X135613404Y-121090993D01*
X135768439Y-121246028D01*
X135820603Y-121324097D01*
X136078738Y-121496577D01*
X136129881Y-121530750D01*
X136494699Y-121603317D01*
X136586785Y-121585000D01*
X136693888Y-121585000D01*
X136760423Y-121684577D01*
X136821573Y-121725436D01*
X136667200Y-122098126D01*
X136667200Y-122509874D01*
X136824769Y-122890280D01*
X137115920Y-123181431D01*
X137496326Y-123339000D01*
X137908074Y-123339000D01*
X138288480Y-123181431D01*
X138405911Y-123064000D01*
X150462153Y-123064000D01*
X150537000Y-123078888D01*
X150611847Y-123064000D01*
X150611852Y-123064000D01*
X150833537Y-123019904D01*
X151084929Y-122851929D01*
X151127331Y-122788470D01*
X152138779Y-121777023D01*
X152475091Y-122001740D01*
X152893667Y-122085000D01*
X153176333Y-122085000D01*
X153594909Y-122001740D01*
X154069577Y-121684577D01*
X154386740Y-121209909D01*
X154498113Y-120650000D01*
X154386740Y-120090091D01*
X154069577Y-119615423D01*
X153594909Y-119298260D01*
X153176333Y-119215000D01*
X152893667Y-119215000D01*
X152475091Y-119298260D01*
X152000423Y-119615423D01*
X151814214Y-119894104D01*
X151727333Y-119911386D01*
X151529577Y-119615423D01*
X151054909Y-119298260D01*
X150636333Y-119215000D01*
X150353667Y-119215000D01*
X149935091Y-119298260D01*
X149460423Y-119615423D01*
X149225000Y-119967758D01*
X148989577Y-119615423D01*
X148514909Y-119298260D01*
X148096333Y-119215000D01*
X147813667Y-119215000D01*
X147395091Y-119298260D01*
X146920423Y-119615423D01*
X146685000Y-119967758D01*
X146449577Y-119615423D01*
X145974909Y-119298260D01*
X145556333Y-119215000D01*
X145273667Y-119215000D01*
X144855091Y-119298260D01*
X144380423Y-119615423D01*
X144145000Y-119967758D01*
X143909577Y-119615423D01*
X143563212Y-119383989D01*
X146120173Y-116827029D01*
X146183629Y-116784629D01*
X146202808Y-116755926D01*
X146411959Y-116854914D01*
X146634000Y-116733629D01*
X146634000Y-115590000D01*
X146888000Y-115590000D01*
X146888000Y-116733629D01*
X147110041Y-116854914D01*
X147616134Y-116615389D01*
X147992041Y-116200423D01*
X148152904Y-115812039D01*
X148030915Y-115590000D01*
X146888000Y-115590000D01*
X146634000Y-115590000D01*
X146614000Y-115590000D01*
X146614000Y-115336000D01*
X146634000Y-115336000D01*
X146634000Y-115316000D01*
X146888000Y-115316000D01*
X146888000Y-115336000D01*
X148030915Y-115336000D01*
X148152904Y-115113961D01*
X147992041Y-114725577D01*
X147616134Y-114310611D01*
X147411892Y-114213947D01*
X147795577Y-113957577D01*
X148112740Y-113482909D01*
X148224113Y-112923000D01*
X152917887Y-112923000D01*
X153029260Y-113482909D01*
X153346423Y-113957577D01*
X153698758Y-114193000D01*
X153346423Y-114428423D01*
X153029260Y-114903091D01*
X152917887Y-115463000D01*
X153029260Y-116022909D01*
X153346423Y-116497577D01*
X153821091Y-116814740D01*
X154239667Y-116898000D01*
X154522333Y-116898000D01*
X154940909Y-116814740D01*
X155415577Y-116497577D01*
X155732740Y-116022909D01*
X155844113Y-115463000D01*
X155732740Y-114903091D01*
X155415577Y-114428423D01*
X155063242Y-114193000D01*
X155415577Y-113957577D01*
X155732740Y-113482909D01*
X155844113Y-112923000D01*
X155732740Y-112363091D01*
X155415577Y-111888423D01*
X155031892Y-111632053D01*
X155236134Y-111535389D01*
X155612041Y-111120423D01*
X155772904Y-110732039D01*
X155650915Y-110510000D01*
X154508000Y-110510000D01*
X154508000Y-110530000D01*
X154254000Y-110530000D01*
X154254000Y-110510000D01*
X153111085Y-110510000D01*
X152989096Y-110732039D01*
X153149959Y-111120423D01*
X153525866Y-111535389D01*
X153730108Y-111632053D01*
X153346423Y-111888423D01*
X153029260Y-112363091D01*
X152917887Y-112923000D01*
X148224113Y-112923000D01*
X148112740Y-112363091D01*
X147795577Y-111888423D01*
X147443242Y-111653000D01*
X147795577Y-111417577D01*
X148112740Y-110942909D01*
X148224113Y-110383000D01*
X148159688Y-110059114D01*
X148380073Y-109838729D01*
X148443529Y-109796329D01*
X148490414Y-109726161D01*
X148611504Y-109544938D01*
X148625766Y-109473237D01*
X148655600Y-109323252D01*
X148655600Y-109323248D01*
X148670488Y-109248400D01*
X148655600Y-109173552D01*
X148655600Y-108192039D01*
X152989096Y-108192039D01*
X153149959Y-108580423D01*
X153525866Y-108995389D01*
X153774367Y-109113000D01*
X153525866Y-109230611D01*
X153149959Y-109645577D01*
X152989096Y-110033961D01*
X153111085Y-110256000D01*
X154254000Y-110256000D01*
X154254000Y-107970000D01*
X154508000Y-107970000D01*
X154508000Y-110256000D01*
X155650915Y-110256000D01*
X155772904Y-110033961D01*
X155612041Y-109645577D01*
X155236134Y-109230611D01*
X154987633Y-109113000D01*
X155236134Y-108995389D01*
X155612041Y-108580423D01*
X155772904Y-108192039D01*
X155650915Y-107970000D01*
X154508000Y-107970000D01*
X154254000Y-107970000D01*
X153111085Y-107970000D01*
X152989096Y-108192039D01*
X148655600Y-108192039D01*
X148655600Y-105652039D01*
X152989096Y-105652039D01*
X153149959Y-106040423D01*
X153525866Y-106455389D01*
X153774367Y-106573000D01*
X153525866Y-106690611D01*
X153149959Y-107105577D01*
X152989096Y-107493961D01*
X153111085Y-107716000D01*
X154254000Y-107716000D01*
X154254000Y-105430000D01*
X154508000Y-105430000D01*
X154508000Y-107716000D01*
X155650915Y-107716000D01*
X155772904Y-107493961D01*
X155612041Y-107105577D01*
X155236134Y-106690611D01*
X154987633Y-106573000D01*
X155236134Y-106455389D01*
X155612041Y-106040423D01*
X155772904Y-105652039D01*
X155650915Y-105430000D01*
X154508000Y-105430000D01*
X154254000Y-105430000D01*
X153111085Y-105430000D01*
X152989096Y-105652039D01*
X148655600Y-105652039D01*
X148655600Y-104854346D01*
X148670488Y-104779499D01*
X148655600Y-104704652D01*
X148655600Y-104704648D01*
X148611504Y-104482963D01*
X148560795Y-104407071D01*
X148485929Y-104295026D01*
X148485927Y-104295024D01*
X148443529Y-104231571D01*
X148380076Y-104189173D01*
X147849109Y-103658207D01*
X147992041Y-103500423D01*
X148152904Y-103112039D01*
X152989096Y-103112039D01*
X153149959Y-103500423D01*
X153525866Y-103915389D01*
X153774367Y-104033000D01*
X153525866Y-104150611D01*
X153149959Y-104565577D01*
X152989096Y-104953961D01*
X153111085Y-105176000D01*
X154254000Y-105176000D01*
X154254000Y-102890000D01*
X154508000Y-102890000D01*
X154508000Y-105176000D01*
X155650915Y-105176000D01*
X155772904Y-104953961D01*
X155612041Y-104565577D01*
X155236134Y-104150611D01*
X154987633Y-104033000D01*
X155236134Y-103915389D01*
X155612041Y-103500423D01*
X155772904Y-103112039D01*
X155650915Y-102890000D01*
X154508000Y-102890000D01*
X154254000Y-102890000D01*
X153111085Y-102890000D01*
X152989096Y-103112039D01*
X148152904Y-103112039D01*
X148030915Y-102890000D01*
X146888000Y-102890000D01*
X146888000Y-102910000D01*
X146634000Y-102910000D01*
X146634000Y-102890000D01*
X146614000Y-102890000D01*
X146614000Y-102636000D01*
X146634000Y-102636000D01*
X146634000Y-102616000D01*
X146888000Y-102616000D01*
X146888000Y-102636000D01*
X148030915Y-102636000D01*
X148152904Y-102413961D01*
X147992041Y-102025577D01*
X147653639Y-101652013D01*
X147808765Y-101621157D01*
X148018809Y-101480809D01*
X148159157Y-101270765D01*
X148208440Y-101023000D01*
X148208440Y-100223000D01*
X152917887Y-100223000D01*
X153029260Y-100782909D01*
X153346423Y-101257577D01*
X153730108Y-101513947D01*
X153525866Y-101610611D01*
X153149959Y-102025577D01*
X152989096Y-102413961D01*
X153111085Y-102636000D01*
X154254000Y-102636000D01*
X154254000Y-102616000D01*
X154508000Y-102616000D01*
X154508000Y-102636000D01*
X155650915Y-102636000D01*
X155772904Y-102413961D01*
X155612041Y-102025577D01*
X155236134Y-101610611D01*
X155031892Y-101513947D01*
X155415577Y-101257577D01*
X155732740Y-100782909D01*
X155844113Y-100223000D01*
X155732740Y-99663091D01*
X155415577Y-99188423D01*
X154940909Y-98871260D01*
X154522333Y-98788000D01*
X154239667Y-98788000D01*
X153821091Y-98871260D01*
X153346423Y-99188423D01*
X153029260Y-99663091D01*
X152917887Y-100223000D01*
X148208440Y-100223000D01*
X148208440Y-99423000D01*
X148159157Y-99175235D01*
X148018809Y-98965191D01*
X147808765Y-98824843D01*
X147561000Y-98775560D01*
X145961000Y-98775560D01*
X145713235Y-98824843D01*
X145503191Y-98965191D01*
X145362843Y-99175235D01*
X145313560Y-99423000D01*
X145313560Y-100906057D01*
X142695040Y-98287538D01*
X142798862Y-98244534D01*
X143080396Y-97963000D01*
X150995044Y-97963000D01*
X151005466Y-97988162D01*
X151409138Y-98391834D01*
X151936561Y-98610300D01*
X152507439Y-98610300D01*
X153034862Y-98391834D01*
X153243651Y-98183045D01*
X153893861Y-98183045D01*
X153967995Y-98429164D01*
X154505223Y-98622265D01*
X155075454Y-98595078D01*
X155476005Y-98429164D01*
X155550139Y-98183045D01*
X154722000Y-97354905D01*
X153893861Y-98183045D01*
X153243651Y-98183045D01*
X153438534Y-97988162D01*
X153465525Y-97923001D01*
X153468136Y-97929305D01*
X153714255Y-98003439D01*
X154542395Y-97175300D01*
X154901605Y-97175300D01*
X155729745Y-98003439D01*
X155975864Y-97929305D01*
X156168965Y-97392077D01*
X156141778Y-96821846D01*
X155975864Y-96421295D01*
X155729745Y-96347161D01*
X154901605Y-97175300D01*
X154542395Y-97175300D01*
X153714255Y-96347161D01*
X153468136Y-96421295D01*
X153465710Y-96428046D01*
X153438534Y-96362438D01*
X153243651Y-96167555D01*
X153893861Y-96167555D01*
X154722000Y-96995695D01*
X155550139Y-96167555D01*
X155476005Y-95921436D01*
X154938777Y-95728335D01*
X154368546Y-95755522D01*
X153967995Y-95921436D01*
X153893861Y-96167555D01*
X153243651Y-96167555D01*
X153034862Y-95958766D01*
X152507439Y-95740300D01*
X151936561Y-95740300D01*
X151409138Y-95958766D01*
X151274904Y-96093000D01*
X143080396Y-96093000D01*
X142798862Y-95811466D01*
X142271439Y-95593000D01*
X141700561Y-95593000D01*
X141602000Y-95633825D01*
X141602000Y-93836046D01*
X141606687Y-93812481D01*
X141885909Y-93756940D01*
X142360577Y-93439777D01*
X142544043Y-93165200D01*
X142710953Y-93165200D01*
X142785800Y-93180088D01*
X142860647Y-93165200D01*
X142860652Y-93165200D01*
X143082337Y-93121104D01*
X143333729Y-92953129D01*
X143359714Y-92914239D01*
X145369096Y-92914239D01*
X145529959Y-93302623D01*
X145905866Y-93717589D01*
X146411959Y-93957114D01*
X146634000Y-93835829D01*
X146634000Y-92692200D01*
X146888000Y-92692200D01*
X146888000Y-93835829D01*
X147110041Y-93957114D01*
X147616134Y-93717589D01*
X147992041Y-93302623D01*
X148152904Y-92914239D01*
X148030915Y-92692200D01*
X146888000Y-92692200D01*
X146634000Y-92692200D01*
X145491085Y-92692200D01*
X145369096Y-92914239D01*
X143359714Y-92914239D01*
X143376131Y-92889670D01*
X145517981Y-90747821D01*
X145726423Y-91059777D01*
X146110108Y-91316147D01*
X145905866Y-91412811D01*
X145529959Y-91827777D01*
X145369096Y-92216161D01*
X145491085Y-92438200D01*
X146634000Y-92438200D01*
X146634000Y-92418200D01*
X146888000Y-92418200D01*
X146888000Y-92438200D01*
X148030915Y-92438200D01*
X148152904Y-92216161D01*
X147992041Y-91827777D01*
X147616134Y-91412811D01*
X147411892Y-91316147D01*
X147795577Y-91059777D01*
X148112740Y-90585109D01*
X148224113Y-90025200D01*
X148112740Y-89465291D01*
X147877088Y-89112613D01*
X149742802Y-87246900D01*
X152965288Y-87246900D01*
X152917887Y-87485200D01*
X153029260Y-88045109D01*
X153346423Y-88519777D01*
X153698758Y-88755200D01*
X153346423Y-88990623D01*
X153029260Y-89465291D01*
X152917887Y-90025200D01*
X153029260Y-90585109D01*
X153346423Y-91059777D01*
X153642386Y-91257533D01*
X153625104Y-91344414D01*
X153346423Y-91530623D01*
X153029260Y-92005291D01*
X152917887Y-92565200D01*
X153029260Y-93125109D01*
X153346423Y-93599777D01*
X153821091Y-93916940D01*
X154239667Y-94000200D01*
X154522333Y-94000200D01*
X154940909Y-93916940D01*
X155415577Y-93599777D01*
X155732740Y-93125109D01*
X155844113Y-92565200D01*
X155732740Y-92005291D01*
X155508023Y-91668978D01*
X156462673Y-90714329D01*
X156526129Y-90671929D01*
X156694104Y-90420537D01*
X156738200Y-90198852D01*
X156738200Y-90198848D01*
X156753088Y-90124000D01*
X156738200Y-90049152D01*
X156738200Y-79938446D01*
X156753088Y-79863599D01*
X156738200Y-79788752D01*
X156738200Y-79788748D01*
X156694104Y-79567063D01*
X156526129Y-79315671D01*
X156462673Y-79273271D01*
X155469090Y-78279689D01*
X155732740Y-77885109D01*
X155844113Y-77325200D01*
X155732740Y-76765291D01*
X155424385Y-76303804D01*
X155485028Y-76243161D01*
X155563097Y-76190997D01*
X155769750Y-75881719D01*
X155824000Y-75608986D01*
X155824000Y-75608982D01*
X155842316Y-75516901D01*
X155824000Y-75424820D01*
X155824000Y-75282696D01*
X156105534Y-75001162D01*
X156324000Y-74473739D01*
X156324000Y-73902861D01*
X156105534Y-73375438D01*
X155701862Y-72971766D01*
X155174439Y-72753300D01*
X154603561Y-72753300D01*
X154076138Y-72971766D01*
X153672466Y-73375438D01*
X153645475Y-73440599D01*
X153642864Y-73434295D01*
X153396745Y-73360161D01*
X152568605Y-74188300D01*
X153396745Y-75016439D01*
X153642864Y-74942305D01*
X153645290Y-74935554D01*
X153672466Y-75001162D01*
X153877458Y-75206154D01*
X153784970Y-75298641D01*
X153706904Y-75350803D01*
X153654742Y-75428869D01*
X153654741Y-75428870D01*
X153500250Y-75660082D01*
X153427683Y-76024900D01*
X153446001Y-76116990D01*
X153446001Y-76224087D01*
X153346423Y-76290623D01*
X153029260Y-76765291D01*
X152949877Y-77164375D01*
X150981547Y-75196045D01*
X151560861Y-75196045D01*
X151634995Y-75442164D01*
X152172223Y-75635265D01*
X152742454Y-75608078D01*
X153143005Y-75442164D01*
X153217139Y-75196045D01*
X152389000Y-74367905D01*
X151560861Y-75196045D01*
X150981547Y-75196045D01*
X149757025Y-73971523D01*
X150942035Y-73971523D01*
X150969222Y-74541754D01*
X151135136Y-74942305D01*
X151381255Y-75016439D01*
X152209395Y-74188300D01*
X151381255Y-73360161D01*
X151135136Y-73434295D01*
X150942035Y-73971523D01*
X149757025Y-73971523D01*
X148966057Y-73180555D01*
X151560861Y-73180555D01*
X152389000Y-74008695D01*
X153217139Y-73180555D01*
X153143005Y-72934436D01*
X152605777Y-72741335D01*
X152035546Y-72768522D01*
X151634995Y-72934436D01*
X151560861Y-73180555D01*
X148966057Y-73180555D01*
X140471531Y-64686030D01*
X140429129Y-64622571D01*
X140177737Y-64454596D01*
X139956052Y-64410500D01*
X139956047Y-64410500D01*
X139881200Y-64395612D01*
X139806353Y-64410500D01*
X112227747Y-64410500D01*
X112152900Y-64395612D01*
X112078053Y-64410500D01*
X112078048Y-64410500D01*
X111856363Y-64454596D01*
X111604971Y-64622571D01*
X111562571Y-64686027D01*
X110121937Y-66126662D01*
X109799418Y-65911161D01*
X109366256Y-65825000D01*
X109073744Y-65825000D01*
X108640582Y-65911161D01*
X108149375Y-66239375D01*
X107950000Y-66537761D01*
X107750625Y-66239375D01*
X107259418Y-65911161D01*
X106826256Y-65825000D01*
X106533744Y-65825000D01*
X106100582Y-65911161D01*
X105609375Y-66239375D01*
X105410000Y-66537761D01*
X105210625Y-66239375D01*
X104719418Y-65911161D01*
X104286256Y-65825000D01*
X103993744Y-65825000D01*
X103560582Y-65911161D01*
X103069375Y-66239375D01*
X102870000Y-66537761D01*
X102670625Y-66239375D01*
X102179418Y-65911161D01*
X101746256Y-65825000D01*
X101453744Y-65825000D01*
X101020582Y-65911161D01*
X100529375Y-66239375D01*
X100330000Y-66537761D01*
X100130625Y-66239375D01*
X99639418Y-65911161D01*
X99206256Y-65825000D01*
X98913744Y-65825000D01*
X98480582Y-65911161D01*
X97989375Y-66239375D01*
X97790000Y-66537761D01*
X97590625Y-66239375D01*
X97099418Y-65911161D01*
X96666256Y-65825000D01*
X96373744Y-65825000D01*
X95940582Y-65911161D01*
X95449375Y-66239375D01*
X95236157Y-66558478D01*
X95175183Y-66428642D01*
X94746924Y-66038355D01*
X94336890Y-65868524D01*
X94107000Y-65989845D01*
X94107000Y-67183000D01*
X94127000Y-67183000D01*
X94127000Y-67437000D01*
X94107000Y-67437000D01*
X94107000Y-67457000D01*
X93853000Y-67457000D01*
X93853000Y-67437000D01*
X91567000Y-67437000D01*
X91567000Y-67457000D01*
X91313000Y-67457000D01*
X91313000Y-67437000D01*
X90119181Y-67437000D01*
X89998514Y-67666892D01*
X90244817Y-68191358D01*
X90451855Y-68380039D01*
X90342235Y-68401843D01*
X90132191Y-68542191D01*
X89991843Y-68752235D01*
X89957896Y-68922900D01*
X89724881Y-68969250D01*
X89415603Y-69175903D01*
X89363441Y-69253969D01*
X88153011Y-70464400D01*
X74832317Y-70464400D01*
X74466007Y-70098090D01*
X73901830Y-69864400D01*
X73291170Y-69864400D01*
X72726993Y-70098090D01*
X72557775Y-70267308D01*
X72554657Y-70251635D01*
X72414309Y-70041591D01*
X72204265Y-69901243D01*
X71956500Y-69851960D01*
X70156500Y-69851960D01*
X69908735Y-69901243D01*
X69698691Y-70041591D01*
X69558343Y-70251635D01*
X69509060Y-70499400D01*
X69509060Y-72299400D01*
X69558343Y-72547165D01*
X69698691Y-72757209D01*
X69908735Y-72897557D01*
X70156500Y-72946840D01*
X71956500Y-72946840D01*
X72204265Y-72897557D01*
X72229077Y-72880978D01*
X74340971Y-74992873D01*
X74383371Y-75056329D01*
X74446827Y-75098729D01*
X74634762Y-75224304D01*
X74682905Y-75233880D01*
X74856448Y-75268400D01*
X74856452Y-75268400D01*
X74931300Y-75283288D01*
X75006148Y-75268400D01*
X79645370Y-75268400D01*
X79667266Y-75321262D01*
X80070938Y-75724934D01*
X80598361Y-75943400D01*
X81169239Y-75943400D01*
X81696662Y-75724934D01*
X82100334Y-75321262D01*
X82292455Y-74857439D01*
X89651896Y-74857439D01*
X89812759Y-75245823D01*
X90188666Y-75660789D01*
X90694759Y-75900314D01*
X90916800Y-75779029D01*
X90916800Y-74635400D01*
X91170800Y-74635400D01*
X91170800Y-75779029D01*
X91392841Y-75900314D01*
X91898934Y-75660789D01*
X92274841Y-75245823D01*
X92418888Y-74898039D01*
X93731096Y-74898039D01*
X93891959Y-75286423D01*
X94267866Y-75701389D01*
X94773959Y-75940914D01*
X94996000Y-75819629D01*
X94996000Y-74676000D01*
X95250000Y-74676000D01*
X95250000Y-75819629D01*
X95472041Y-75940914D01*
X95978134Y-75701389D01*
X96354041Y-75286423D01*
X96514904Y-74898039D01*
X96392915Y-74676000D01*
X95250000Y-74676000D01*
X94996000Y-74676000D01*
X93853085Y-74676000D01*
X93731096Y-74898039D01*
X92418888Y-74898039D01*
X92435704Y-74857439D01*
X92313715Y-74635400D01*
X91170800Y-74635400D01*
X90916800Y-74635400D01*
X89773885Y-74635400D01*
X89651896Y-74857439D01*
X82292455Y-74857439D01*
X82318800Y-74793839D01*
X82318800Y-74222961D01*
X82292456Y-74159361D01*
X89651896Y-74159361D01*
X89773885Y-74381400D01*
X90916800Y-74381400D01*
X90916800Y-73237771D01*
X91170800Y-73237771D01*
X91170800Y-74381400D01*
X92313715Y-74381400D01*
X92413398Y-74199961D01*
X93731096Y-74199961D01*
X93853085Y-74422000D01*
X94996000Y-74422000D01*
X94996000Y-73278371D01*
X95250000Y-73278371D01*
X95250000Y-74422000D01*
X96392915Y-74422000D01*
X96514904Y-74199961D01*
X96354041Y-73811577D01*
X95978134Y-73396611D01*
X95472041Y-73157086D01*
X95250000Y-73278371D01*
X94996000Y-73278371D01*
X94773959Y-73157086D01*
X94267866Y-73396611D01*
X93891959Y-73811577D01*
X93731096Y-74199961D01*
X92413398Y-74199961D01*
X92435704Y-74159361D01*
X92274841Y-73770977D01*
X91898934Y-73356011D01*
X91392841Y-73116486D01*
X91170800Y-73237771D01*
X90916800Y-73237771D01*
X90694759Y-73116486D01*
X90188666Y-73356011D01*
X89812759Y-73770977D01*
X89651896Y-74159361D01*
X82292456Y-74159361D01*
X82100334Y-73695538D01*
X81696662Y-73291866D01*
X81169239Y-73073400D01*
X80598361Y-73073400D01*
X80070938Y-73291866D01*
X79667266Y-73695538D01*
X79645370Y-73748400D01*
X75246102Y-73748400D01*
X74276788Y-72779087D01*
X74466007Y-72700710D01*
X74832317Y-72334400D01*
X88448214Y-72334400D01*
X88540300Y-72352717D01*
X88632386Y-72334400D01*
X88905119Y-72280150D01*
X89214397Y-72073497D01*
X89266561Y-71995428D01*
X90120972Y-71141018D01*
X90132191Y-71157809D01*
X90342235Y-71298157D01*
X90590000Y-71347440D01*
X92290000Y-71347440D01*
X92537765Y-71298157D01*
X92747809Y-71157809D01*
X92888157Y-70947765D01*
X92897184Y-70902381D01*
X92909375Y-70920625D01*
X93400582Y-71248839D01*
X93833744Y-71335000D01*
X94126256Y-71335000D01*
X94139981Y-71332270D01*
X96932640Y-74124930D01*
X96984803Y-74202997D01*
X97294081Y-74409650D01*
X97566814Y-74463900D01*
X97566817Y-74463900D01*
X97658899Y-74482216D01*
X97750981Y-74463900D01*
X98668611Y-74463900D01*
X100503864Y-76299153D01*
X100397546Y-76304222D01*
X99996995Y-76470136D01*
X99922861Y-76716255D01*
X100751000Y-77544395D01*
X100765142Y-77530252D01*
X100944748Y-77709858D01*
X100930605Y-77724000D01*
X101758745Y-78552139D01*
X102004864Y-78478005D01*
X102007290Y-78471254D01*
X102034466Y-78536862D01*
X102296607Y-78799003D01*
X102261270Y-78834341D01*
X102183204Y-78886503D01*
X102131042Y-78964569D01*
X102131041Y-78964570D01*
X101976550Y-79195782D01*
X101903983Y-79560600D01*
X101922301Y-79652690D01*
X101922301Y-79759787D01*
X101822723Y-79826323D01*
X101505560Y-80300991D01*
X101394187Y-80860900D01*
X101466850Y-81226200D01*
X97802702Y-81226200D01*
X96952931Y-80376430D01*
X96910529Y-80312971D01*
X96684740Y-80162103D01*
X96684740Y-80060900D01*
X96635457Y-79813135D01*
X96495109Y-79603091D01*
X96285065Y-79462743D01*
X96037300Y-79413460D01*
X95936097Y-79413460D01*
X95785229Y-79187671D01*
X95721773Y-79145271D01*
X95308247Y-78731745D01*
X99922861Y-78731745D01*
X99996995Y-78977864D01*
X100534223Y-79170965D01*
X101104454Y-79143778D01*
X101505005Y-78977864D01*
X101579139Y-78731745D01*
X100751000Y-77903605D01*
X99922861Y-78731745D01*
X95308247Y-78731745D01*
X94083725Y-77507223D01*
X99304035Y-77507223D01*
X99331222Y-78077454D01*
X99497136Y-78478005D01*
X99743255Y-78552139D01*
X100571395Y-77724000D01*
X99743255Y-76895861D01*
X99497136Y-76969995D01*
X99304035Y-77507223D01*
X94083725Y-77507223D01*
X93015931Y-76439430D01*
X92973529Y-76375971D01*
X92722137Y-76207996D01*
X92500452Y-76163900D01*
X92500447Y-76163900D01*
X92425600Y-76149012D01*
X92350753Y-76163900D01*
X82190548Y-76163900D01*
X82115700Y-76149012D01*
X82040852Y-76163900D01*
X82040848Y-76163900D01*
X81819163Y-76207996D01*
X81567771Y-76375971D01*
X81525371Y-76439427D01*
X81272902Y-76691897D01*
X81220039Y-76670000D01*
X80649161Y-76670000D01*
X80121738Y-76888466D01*
X79718066Y-77292138D01*
X79499600Y-77819561D01*
X79499600Y-78390439D01*
X79718066Y-78917862D01*
X80121738Y-79321534D01*
X80649161Y-79540000D01*
X81220039Y-79540000D01*
X81747462Y-79321534D01*
X82151134Y-78917862D01*
X82343255Y-78454039D01*
X89702696Y-78454039D01*
X89863559Y-78842423D01*
X90239466Y-79257389D01*
X90745559Y-79496914D01*
X90967600Y-79375629D01*
X90967600Y-78232000D01*
X91221600Y-78232000D01*
X91221600Y-79375629D01*
X91443641Y-79496914D01*
X91949734Y-79257389D01*
X92325641Y-78842423D01*
X92486504Y-78454039D01*
X92364515Y-78232000D01*
X91221600Y-78232000D01*
X90967600Y-78232000D01*
X89824685Y-78232000D01*
X89702696Y-78454039D01*
X82343255Y-78454039D01*
X82369600Y-78390439D01*
X82369600Y-77819561D01*
X82347703Y-77766698D01*
X82430502Y-77683900D01*
X89732543Y-77683900D01*
X89702696Y-77755961D01*
X89824685Y-77978000D01*
X90967600Y-77978000D01*
X90967600Y-77958000D01*
X91221600Y-77958000D01*
X91221600Y-77978000D01*
X92364515Y-77978000D01*
X92378835Y-77951936D01*
X94009762Y-79582864D01*
X93979491Y-79603091D01*
X93839143Y-79813135D01*
X93789860Y-80060900D01*
X93789860Y-81660900D01*
X93839143Y-81908665D01*
X93979491Y-82118709D01*
X94189535Y-82259057D01*
X94323406Y-82285685D01*
X94202723Y-82366323D01*
X93885560Y-82840991D01*
X93774187Y-83400900D01*
X93885560Y-83960809D01*
X94202723Y-84435477D01*
X94555058Y-84670900D01*
X94202723Y-84906323D01*
X94140925Y-84998810D01*
X93970952Y-84965000D01*
X93970947Y-84965000D01*
X93896100Y-84950112D01*
X93821253Y-84965000D01*
X92333030Y-84965000D01*
X92311134Y-84912138D01*
X91907462Y-84508466D01*
X91380039Y-84290000D01*
X90809161Y-84290000D01*
X90281738Y-84508466D01*
X89878066Y-84912138D01*
X89659600Y-85439561D01*
X89659600Y-86010439D01*
X89878066Y-86537862D01*
X90281738Y-86941534D01*
X90809161Y-87160000D01*
X91380039Y-87160000D01*
X91907462Y-86941534D01*
X92311134Y-86537862D01*
X92333030Y-86485000D01*
X93561513Y-86485000D01*
X93564071Y-86488829D01*
X93815463Y-86656804D01*
X94016514Y-86696796D01*
X94202723Y-86975477D01*
X94555058Y-87210900D01*
X94202723Y-87446323D01*
X93885560Y-87920991D01*
X93774187Y-88480900D01*
X93885560Y-89040809D01*
X94202723Y-89515477D01*
X94555058Y-89750900D01*
X94202723Y-89986323D01*
X94019257Y-90260900D01*
X92335428Y-90260900D01*
X92446340Y-90094909D01*
X92557713Y-89535000D01*
X92446340Y-88975091D01*
X92129177Y-88500423D01*
X91654509Y-88183260D01*
X91235933Y-88100000D01*
X90953267Y-88100000D01*
X90534691Y-88183260D01*
X90060023Y-88500423D01*
X89742860Y-88975091D01*
X89631487Y-89535000D01*
X89742860Y-90094909D01*
X89853772Y-90260900D01*
X87670602Y-90260900D01*
X82650231Y-85240530D01*
X82607829Y-85177071D01*
X82356437Y-85009096D01*
X82155386Y-84969104D01*
X81969177Y-84690423D01*
X81494509Y-84373260D01*
X81075933Y-84290000D01*
X80793267Y-84290000D01*
X80374691Y-84373260D01*
X79900023Y-84690423D01*
X79582860Y-85165091D01*
X79471487Y-85725000D01*
X79582860Y-86284909D01*
X79900023Y-86759577D01*
X80374691Y-87076740D01*
X80793267Y-87160000D01*
X81075933Y-87160000D01*
X81494509Y-87076740D01*
X81969177Y-86759577D01*
X81989404Y-86729305D01*
X86765470Y-91505372D01*
X86807871Y-91568829D01*
X87059263Y-91736804D01*
X87280948Y-91780900D01*
X87280952Y-91780900D01*
X87355800Y-91795788D01*
X87430648Y-91780900D01*
X94019257Y-91780900D01*
X94202723Y-92055477D01*
X94555058Y-92290900D01*
X94202723Y-92526323D01*
X93885560Y-93000991D01*
X93774187Y-93560900D01*
X93846870Y-93926300D01*
X92940447Y-93926300D01*
X92865600Y-93911412D01*
X92790753Y-93926300D01*
X92790748Y-93926300D01*
X92569063Y-93970396D01*
X92485580Y-94026178D01*
X92540538Y-93943927D01*
X92659672Y-93345000D01*
X92540538Y-92746073D01*
X92201273Y-92238327D01*
X91693527Y-91899062D01*
X91245782Y-91810000D01*
X90943418Y-91810000D01*
X90495673Y-91899062D01*
X89987927Y-92238327D01*
X89750438Y-92593754D01*
X89572763Y-92629096D01*
X89321371Y-92797071D01*
X89278971Y-92860527D01*
X88229499Y-93910000D01*
X82482040Y-93910000D01*
X82482040Y-92445000D01*
X82432757Y-92197235D01*
X82292409Y-91987191D01*
X82082365Y-91846843D01*
X81834600Y-91797560D01*
X80034600Y-91797560D01*
X79786835Y-91846843D01*
X79576791Y-91987191D01*
X79436443Y-92197235D01*
X79387160Y-92445000D01*
X79387160Y-93910000D01*
X77804909Y-93910000D01*
X77736086Y-93743847D01*
X77276153Y-93283914D01*
X76675222Y-93035000D01*
X76024778Y-93035000D01*
X75423847Y-93283914D01*
X74963914Y-93743847D01*
X74895091Y-93910000D01*
X71304909Y-93910000D01*
X71236086Y-93743847D01*
X70776153Y-93283914D01*
X70175222Y-93035000D01*
X69524778Y-93035000D01*
X68923847Y-93283914D01*
X68463914Y-93743847D01*
X68215000Y-94344778D01*
X65480000Y-94344778D01*
X65480000Y-91322532D01*
X68877073Y-91322532D01*
X68975736Y-91589387D01*
X69585461Y-91815908D01*
X70235460Y-91791856D01*
X70724264Y-91589387D01*
X70822927Y-91322532D01*
X75377073Y-91322532D01*
X75475736Y-91589387D01*
X76085461Y-91815908D01*
X76735460Y-91791856D01*
X77224264Y-91589387D01*
X77322927Y-91322532D01*
X76350000Y-90349605D01*
X75377073Y-91322532D01*
X70822927Y-91322532D01*
X69850000Y-90349605D01*
X68877073Y-91322532D01*
X65480000Y-91322532D01*
X65480000Y-89905461D01*
X68204092Y-89905461D01*
X68228144Y-90555460D01*
X68430613Y-91044264D01*
X68697468Y-91142927D01*
X69670395Y-90170000D01*
X70029605Y-90170000D01*
X71002532Y-91142927D01*
X71269387Y-91044264D01*
X71495908Y-90434539D01*
X71476331Y-89905461D01*
X74704092Y-89905461D01*
X74728144Y-90555460D01*
X74930613Y-91044264D01*
X75197468Y-91142927D01*
X76170395Y-90170000D01*
X76529605Y-90170000D01*
X77502532Y-91142927D01*
X77769387Y-91044264D01*
X77995908Y-90434539D01*
X77971856Y-89784540D01*
X77769387Y-89295736D01*
X77644497Y-89249561D01*
X79499600Y-89249561D01*
X79499600Y-89820439D01*
X79718066Y-90347862D01*
X80121738Y-90751534D01*
X80649161Y-90970000D01*
X81220039Y-90970000D01*
X81747462Y-90751534D01*
X82151134Y-90347862D01*
X82369600Y-89820439D01*
X82369600Y-89249561D01*
X82151134Y-88722138D01*
X81747462Y-88318466D01*
X81220039Y-88100000D01*
X80649161Y-88100000D01*
X80121738Y-88318466D01*
X79718066Y-88722138D01*
X79499600Y-89249561D01*
X77644497Y-89249561D01*
X77502532Y-89197073D01*
X76529605Y-90170000D01*
X76170395Y-90170000D01*
X75197468Y-89197073D01*
X74930613Y-89295736D01*
X74704092Y-89905461D01*
X71476331Y-89905461D01*
X71471856Y-89784540D01*
X71269387Y-89295736D01*
X71002532Y-89197073D01*
X70029605Y-90170000D01*
X69670395Y-90170000D01*
X68697468Y-89197073D01*
X68430613Y-89295736D01*
X68204092Y-89905461D01*
X65480000Y-89905461D01*
X65480000Y-89017468D01*
X68877073Y-89017468D01*
X69850000Y-89990395D01*
X70822927Y-89017468D01*
X75377073Y-89017468D01*
X76350000Y-89990395D01*
X77322927Y-89017468D01*
X77224264Y-88750613D01*
X76614539Y-88524092D01*
X75964540Y-88548144D01*
X75475736Y-88750613D01*
X75377073Y-89017468D01*
X70822927Y-89017468D01*
X70724264Y-88750613D01*
X70114539Y-88524092D01*
X69464540Y-88548144D01*
X68975736Y-88750613D01*
X68877073Y-89017468D01*
X65480000Y-89017468D01*
X65480000Y-85363361D01*
X67919700Y-85363361D01*
X67919700Y-85934239D01*
X68138166Y-86461662D01*
X68541838Y-86865334D01*
X69069261Y-87083800D01*
X69640139Y-87083800D01*
X70167562Y-86865334D01*
X70571234Y-86461662D01*
X70593130Y-86408800D01*
X73245453Y-86408800D01*
X73320300Y-86423688D01*
X73395147Y-86408800D01*
X73395152Y-86408800D01*
X73616837Y-86364704D01*
X73868229Y-86196729D01*
X73910631Y-86133270D01*
X75125266Y-84918635D01*
X75149806Y-84928800D01*
X75700794Y-84928800D01*
X76209840Y-84717947D01*
X76599447Y-84328340D01*
X76810300Y-83819294D01*
X76810300Y-83268306D01*
X76599447Y-82759260D01*
X76209840Y-82369653D01*
X75700794Y-82158800D01*
X75149806Y-82158800D01*
X74640760Y-82369653D01*
X74251153Y-82759260D01*
X74040300Y-83268306D01*
X74040300Y-83819294D01*
X74050465Y-83843834D01*
X73005499Y-84888800D01*
X70593130Y-84888800D01*
X70571234Y-84835938D01*
X70167562Y-84432266D01*
X70102401Y-84405275D01*
X70108705Y-84402664D01*
X70182839Y-84156545D01*
X69354700Y-83328405D01*
X68526561Y-84156545D01*
X68600695Y-84402664D01*
X68607446Y-84405090D01*
X68541838Y-84432266D01*
X68138166Y-84835938D01*
X67919700Y-85363361D01*
X65480000Y-85363361D01*
X65480000Y-82932023D01*
X67907735Y-82932023D01*
X67934922Y-83502254D01*
X68100836Y-83902805D01*
X68346955Y-83976939D01*
X69175095Y-83148800D01*
X69534305Y-83148800D01*
X70362445Y-83976939D01*
X70608564Y-83902805D01*
X70801665Y-83365577D01*
X70774478Y-82795346D01*
X70608564Y-82394795D01*
X70362445Y-82320661D01*
X69534305Y-83148800D01*
X69175095Y-83148800D01*
X68346955Y-82320661D01*
X68100836Y-82394795D01*
X67907735Y-82932023D01*
X65480000Y-82932023D01*
X65480000Y-82141055D01*
X68526561Y-82141055D01*
X69354700Y-82969195D01*
X70182839Y-82141055D01*
X70108705Y-81894936D01*
X69571477Y-81701835D01*
X69001246Y-81729022D01*
X68600695Y-81894936D01*
X68526561Y-82141055D01*
X65480000Y-82141055D01*
X65480000Y-80253845D01*
X68526561Y-80253845D01*
X68600695Y-80499964D01*
X69137923Y-80693065D01*
X69708154Y-80665878D01*
X70108705Y-80499964D01*
X70182839Y-80253845D01*
X69354700Y-79425705D01*
X68526561Y-80253845D01*
X65480000Y-80253845D01*
X65480000Y-79029323D01*
X67907735Y-79029323D01*
X67934922Y-79599554D01*
X68100836Y-80000105D01*
X68346955Y-80074239D01*
X69175095Y-79246100D01*
X69534305Y-79246100D01*
X70362445Y-80074239D01*
X70608564Y-80000105D01*
X70801665Y-79462877D01*
X70774478Y-78892646D01*
X70608564Y-78492095D01*
X70362445Y-78417961D01*
X69534305Y-79246100D01*
X69175095Y-79246100D01*
X68346955Y-78417961D01*
X68100836Y-78492095D01*
X67907735Y-79029323D01*
X65480000Y-79029323D01*
X65480000Y-76460661D01*
X67919700Y-76460661D01*
X67919700Y-77031539D01*
X68138166Y-77558962D01*
X68541838Y-77962634D01*
X68606999Y-77989625D01*
X68600695Y-77992236D01*
X68526561Y-78238355D01*
X69354700Y-79066495D01*
X70182839Y-78238355D01*
X70108705Y-77992236D01*
X70101954Y-77989810D01*
X70167562Y-77962634D01*
X70571234Y-77558962D01*
X70593130Y-77506100D01*
X73192799Y-77506100D01*
X74050465Y-78363767D01*
X74040300Y-78388306D01*
X74040300Y-78939294D01*
X74251153Y-79448340D01*
X74640760Y-79837947D01*
X75149806Y-80048800D01*
X75700794Y-80048800D01*
X76209840Y-79837947D01*
X76433643Y-79614144D01*
X79218971Y-82399473D01*
X79261371Y-82462929D01*
X79512763Y-82630904D01*
X79713814Y-82670896D01*
X79900023Y-82949577D01*
X80374691Y-83266740D01*
X80793267Y-83350000D01*
X81075933Y-83350000D01*
X81494509Y-83266740D01*
X81969177Y-82949577D01*
X82286340Y-82474909D01*
X82397713Y-81915000D01*
X82340936Y-81629561D01*
X89659600Y-81629561D01*
X89659600Y-82200439D01*
X89878066Y-82727862D01*
X90281738Y-83131534D01*
X90809161Y-83350000D01*
X91380039Y-83350000D01*
X91907462Y-83131534D01*
X92311134Y-82727862D01*
X92529600Y-82200439D01*
X92529600Y-81629561D01*
X92311134Y-81102138D01*
X91907462Y-80698466D01*
X91380039Y-80480000D01*
X90809161Y-80480000D01*
X90281738Y-80698466D01*
X89878066Y-81102138D01*
X89659600Y-81629561D01*
X82340936Y-81629561D01*
X82286340Y-81355091D01*
X81969177Y-80880423D01*
X81494509Y-80563260D01*
X81075933Y-80480000D01*
X80793267Y-80480000D01*
X80374691Y-80563260D01*
X79900023Y-80880423D01*
X79879796Y-80910694D01*
X77148431Y-78179330D01*
X77106029Y-78115871D01*
X76854637Y-77947896D01*
X76632952Y-77903800D01*
X76632947Y-77903800D01*
X76607517Y-77898742D01*
X76599447Y-77879260D01*
X76209840Y-77489653D01*
X75700794Y-77278800D01*
X75149806Y-77278800D01*
X75125267Y-77288965D01*
X74097931Y-76261630D01*
X74055529Y-76198171D01*
X73804137Y-76030196D01*
X73582452Y-75986100D01*
X73582447Y-75986100D01*
X73507600Y-75971212D01*
X73432753Y-75986100D01*
X70593130Y-75986100D01*
X70571234Y-75933238D01*
X70167562Y-75529566D01*
X69640139Y-75311100D01*
X69069261Y-75311100D01*
X68541838Y-75529566D01*
X68138166Y-75933238D01*
X67919700Y-76460661D01*
X65480000Y-76460661D01*
X65480000Y-66953108D01*
X89998514Y-66953108D01*
X90119181Y-67183000D01*
X91313000Y-67183000D01*
X91313000Y-65989845D01*
X91567000Y-65989845D01*
X91567000Y-67183000D01*
X93853000Y-67183000D01*
X93853000Y-65989845D01*
X93623110Y-65868524D01*
X93213076Y-66038355D01*
X92784817Y-66428642D01*
X92710000Y-66587954D01*
X92635183Y-66428642D01*
X92206924Y-66038355D01*
X91796890Y-65868524D01*
X91567000Y-65989845D01*
X91313000Y-65989845D01*
X91083110Y-65868524D01*
X90673076Y-66038355D01*
X90244817Y-66428642D01*
X89998514Y-66953108D01*
X65480000Y-66953108D01*
X65480000Y-61255431D01*
X67540000Y-61255431D01*
X67540000Y-62144569D01*
X67880259Y-62966026D01*
X68508974Y-63594741D01*
X69330431Y-63935000D01*
X70219569Y-63935000D01*
X71041026Y-63594741D01*
X71669741Y-62966026D01*
X72010000Y-62144569D01*
X72010000Y-61255431D01*
X156590000Y-61255431D01*
X156590000Y-62144569D01*
X156930259Y-62966026D01*
X157558974Y-63594741D01*
X158380431Y-63935000D01*
X159269569Y-63935000D01*
X160091026Y-63594741D01*
X160719741Y-62966026D01*
X161060000Y-62144569D01*
X161060000Y-61255431D01*
X160719741Y-60433974D01*
X160091026Y-59805259D01*
X159269569Y-59465000D01*
X158380431Y-59465000D01*
X157558974Y-59805259D01*
X156930259Y-60433974D01*
X156590000Y-61255431D01*
X72010000Y-61255431D01*
X71669741Y-60433974D01*
X71041026Y-59805259D01*
X70219569Y-59465000D01*
X69330431Y-59465000D01*
X68508974Y-59805259D01*
X67880259Y-60433974D01*
X67540000Y-61255431D01*
X65480000Y-61255431D01*
X65480000Y-57877000D01*
X163120000Y-57877000D01*
X163120001Y-131370000D01*
X163120001Y-131370000D01*
G37*
X163120001Y-131370000D02*
X65480000Y-131370000D01*
X65480000Y-127130431D01*
X67565000Y-127130431D01*
X67565000Y-128019569D01*
X67905259Y-128841026D01*
X68533974Y-129469741D01*
X69355431Y-129810000D01*
X70244569Y-129810000D01*
X71066026Y-129469741D01*
X71694741Y-128841026D01*
X72035000Y-128019569D01*
X72035000Y-127130431D01*
X71694741Y-126308974D01*
X71066026Y-125680259D01*
X70244569Y-125340000D01*
X69355431Y-125340000D01*
X68533974Y-125680259D01*
X67905259Y-126308974D01*
X67565000Y-127130431D01*
X65480000Y-127130431D01*
X65480000Y-98210000D01*
X68987560Y-98210000D01*
X68987560Y-99910000D01*
X69036843Y-100157765D01*
X69177191Y-100367809D01*
X69387235Y-100508157D01*
X69635000Y-100557440D01*
X71335000Y-100557440D01*
X71582765Y-100508157D01*
X71792809Y-100367809D01*
X71933157Y-100157765D01*
X71942184Y-100112381D01*
X71954375Y-100130625D01*
X72445582Y-100458839D01*
X72878744Y-100545000D01*
X73171256Y-100545000D01*
X73604418Y-100458839D01*
X74095625Y-100130625D01*
X74295000Y-99832239D01*
X74494375Y-100130625D01*
X74985582Y-100458839D01*
X75418744Y-100545000D01*
X75711256Y-100545000D01*
X76144418Y-100458839D01*
X76635625Y-100130625D01*
X76963839Y-99639418D01*
X77079092Y-99060000D01*
X76963839Y-98480582D01*
X76635625Y-97989375D01*
X76144418Y-97661161D01*
X75711256Y-97575000D01*
X75418744Y-97575000D01*
X74985582Y-97661161D01*
X74494375Y-97989375D01*
X74295000Y-98287761D01*
X74095625Y-97989375D01*
X73604418Y-97661161D01*
X73171256Y-97575000D01*
X72878744Y-97575000D01*
X72445582Y-97661161D01*
X71954375Y-97989375D01*
X71942184Y-98007619D01*
X71933157Y-97962235D01*
X71792809Y-97752191D01*
X71582765Y-97611843D01*
X71335000Y-97562560D01*
X69635000Y-97562560D01*
X69387235Y-97611843D01*
X69177191Y-97752191D01*
X69036843Y-97962235D01*
X68987560Y-98210000D01*
X65480000Y-98210000D01*
X65480000Y-94344778D01*
X68215000Y-94344778D01*
X68215000Y-94995222D01*
X68463914Y-95596153D01*
X68923847Y-96056086D01*
X69524778Y-96305000D01*
X70175222Y-96305000D01*
X70776153Y-96056086D01*
X71236086Y-95596153D01*
X71304909Y-95430000D01*
X74895091Y-95430000D01*
X74963914Y-95596153D01*
X75423847Y-96056086D01*
X76024778Y-96305000D01*
X76675222Y-96305000D01*
X77276153Y-96056086D01*
X77736086Y-95596153D01*
X77804909Y-95430000D01*
X88469453Y-95430000D01*
X88544300Y-95444888D01*
X88619147Y-95430000D01*
X88619152Y-95430000D01*
X88840837Y-95385904D01*
X89092229Y-95217929D01*
X89134631Y-95154470D01*
X89927646Y-94361456D01*
X89987927Y-94451673D01*
X90495673Y-94790938D01*
X90943418Y-94880000D01*
X91245782Y-94880000D01*
X91684331Y-94792767D01*
X90331799Y-96145300D01*
X85895447Y-96145300D01*
X85820600Y-96130412D01*
X85745753Y-96145300D01*
X85745748Y-96145300D01*
X85524063Y-96189396D01*
X85272671Y-96357371D01*
X85230271Y-96420827D01*
X76271432Y-105379667D01*
X76000625Y-104974375D01*
X75509418Y-104646161D01*
X75076256Y-104560000D01*
X74783744Y-104560000D01*
X74350582Y-104646161D01*
X73859375Y-104974375D01*
X73660000Y-105272761D01*
X73460625Y-104974375D01*
X72969418Y-104646161D01*
X72536256Y-104560000D01*
X72243744Y-104560000D01*
X71810582Y-104646161D01*
X71319375Y-104974375D01*
X70991161Y-105465582D01*
X70875908Y-106045000D01*
X70991161Y-106624418D01*
X71209545Y-106951253D01*
X70730229Y-107430570D01*
X70666771Y-107472971D01*
X70498796Y-107724364D01*
X70454700Y-107946049D01*
X70454700Y-107946053D01*
X70439812Y-108020900D01*
X70454700Y-108095747D01*
X70454701Y-111606948D01*
X70439812Y-111681800D01*
X70498797Y-111978337D01*
X70618560Y-112157574D01*
X70666772Y-112229729D01*
X70730228Y-112272129D01*
X71212469Y-112754371D01*
X70991161Y-113085582D01*
X70875908Y-113665000D01*
X70991161Y-114244418D01*
X71212469Y-114575629D01*
X70730228Y-115057871D01*
X70666772Y-115100271D01*
X70624372Y-115163727D01*
X70624371Y-115163728D01*
X70529120Y-115306282D01*
X70498797Y-115351663D01*
X70466870Y-115512173D01*
X70439812Y-115648200D01*
X70454701Y-115723052D01*
X70454700Y-119234253D01*
X70439812Y-119309100D01*
X70454700Y-119383947D01*
X70454700Y-119383951D01*
X70498796Y-119605636D01*
X70666771Y-119857029D01*
X70730229Y-119899430D01*
X71209545Y-120378747D01*
X70991161Y-120705582D01*
X70875908Y-121285000D01*
X70991161Y-121864418D01*
X71319375Y-122355625D01*
X71810582Y-122683839D01*
X72243744Y-122770000D01*
X72536256Y-122770000D01*
X72969418Y-122683839D01*
X73025504Y-122646363D01*
X73080830Y-122683331D01*
X79100871Y-128703373D01*
X79143271Y-128766829D01*
X79394663Y-128934804D01*
X79616348Y-128978900D01*
X79616353Y-128978900D01*
X79691200Y-128993788D01*
X79766047Y-128978900D01*
X124310553Y-128978900D01*
X124385400Y-128993788D01*
X124460247Y-128978900D01*
X124460252Y-128978900D01*
X124681937Y-128934804D01*
X124933329Y-128766829D01*
X124975731Y-128703370D01*
X129641073Y-124038029D01*
X129704529Y-123995629D01*
X129751340Y-123925571D01*
X129774510Y-123890895D01*
X130148726Y-124045900D01*
X130314799Y-124045900D01*
X133898070Y-127629172D01*
X133940471Y-127692629D01*
X134191863Y-127860604D01*
X134413548Y-127904700D01*
X134413552Y-127904700D01*
X134488399Y-127919588D01*
X134563246Y-127904700D01*
X136347560Y-127904700D01*
X136347560Y-129070000D01*
X136396843Y-129317765D01*
X136537191Y-129527809D01*
X136747235Y-129668157D01*
X136995000Y-129717440D01*
X138595000Y-129717440D01*
X138842765Y-129668157D01*
X139052809Y-129527809D01*
X139193157Y-129317765D01*
X139219785Y-129183894D01*
X139300423Y-129304577D01*
X139775091Y-129621740D01*
X140193667Y-129705000D01*
X140476333Y-129705000D01*
X140894909Y-129621740D01*
X141369577Y-129304577D01*
X141605000Y-128952242D01*
X141840423Y-129304577D01*
X142315091Y-129621740D01*
X142733667Y-129705000D01*
X143016333Y-129705000D01*
X143434909Y-129621740D01*
X143909577Y-129304577D01*
X144107333Y-129008614D01*
X144194214Y-129025896D01*
X144380423Y-129304577D01*
X144855091Y-129621740D01*
X145273667Y-129705000D01*
X145556333Y-129705000D01*
X145974909Y-129621740D01*
X146449577Y-129304577D01*
X146647333Y-129008614D01*
X146734214Y-129025896D01*
X146920423Y-129304577D01*
X147395091Y-129621740D01*
X147813667Y-129705000D01*
X148096333Y-129705000D01*
X148514909Y-129621740D01*
X148989577Y-129304577D01*
X149225000Y-128952242D01*
X149460423Y-129304577D01*
X149935091Y-129621740D01*
X150353667Y-129705000D01*
X150636333Y-129705000D01*
X151054909Y-129621740D01*
X151529577Y-129304577D01*
X151785947Y-128920892D01*
X151882611Y-129125134D01*
X152297577Y-129501041D01*
X152685961Y-129661904D01*
X152908000Y-129539915D01*
X152908000Y-128397000D01*
X153162000Y-128397000D01*
X153162000Y-129539915D01*
X153384039Y-129661904D01*
X153772423Y-129501041D01*
X154187389Y-129125134D01*
X154426914Y-128619041D01*
X154305629Y-128397000D01*
X153162000Y-128397000D01*
X152908000Y-128397000D01*
X152888000Y-128397000D01*
X152888000Y-128143000D01*
X152908000Y-128143000D01*
X152908000Y-127000085D01*
X153162000Y-127000085D01*
X153162000Y-128143000D01*
X154305629Y-128143000D01*
X154426914Y-127920959D01*
X154187389Y-127414866D01*
X153845802Y-127105431D01*
X156615000Y-127105431D01*
X156615000Y-127994569D01*
X156955259Y-128816026D01*
X157583974Y-129444741D01*
X158405431Y-129785000D01*
X159294569Y-129785000D01*
X160116026Y-129444741D01*
X160744741Y-128816026D01*
X161085000Y-127994569D01*
X161085000Y-127105431D01*
X160744741Y-126283974D01*
X160116026Y-125655259D01*
X159294569Y-125315000D01*
X158405431Y-125315000D01*
X157583974Y-125655259D01*
X156955259Y-126283974D01*
X156615000Y-127105431D01*
X153845802Y-127105431D01*
X153772423Y-127038959D01*
X153384039Y-126878096D01*
X153162000Y-127000085D01*
X152908000Y-127000085D01*
X152685961Y-126878096D01*
X152297577Y-127038959D01*
X151882611Y-127414866D01*
X151785947Y-127619108D01*
X151529577Y-127235423D01*
X151054909Y-126918260D01*
X150636333Y-126835000D01*
X150353667Y-126835000D01*
X149935091Y-126918260D01*
X149460423Y-127235423D01*
X149225000Y-127587758D01*
X148989577Y-127235423D01*
X148514909Y-126918260D01*
X148096333Y-126835000D01*
X147813667Y-126835000D01*
X147395091Y-126918260D01*
X147058779Y-127142977D01*
X143947231Y-124031430D01*
X143904829Y-123967971D01*
X143653437Y-123799996D01*
X143431752Y-123755900D01*
X143431747Y-123755900D01*
X143356900Y-123741012D01*
X143282053Y-123755900D01*
X135389958Y-123755900D01*
X135448139Y-123562745D01*
X134620000Y-122734605D01*
X134605858Y-122748748D01*
X134426252Y-122569142D01*
X134440395Y-122555000D01*
X134799605Y-122555000D01*
X135627745Y-123383139D01*
X135873864Y-123309005D01*
X136066965Y-122771777D01*
X136039778Y-122201546D01*
X135873864Y-121800995D01*
X135627745Y-121726861D01*
X134799605Y-122555000D01*
X134440395Y-122555000D01*
X133612255Y-121726861D01*
X133366136Y-121800995D01*
X133173035Y-122338223D01*
X133186748Y-122625846D01*
X132360631Y-121799730D01*
X132318229Y-121736271D01*
X132066837Y-121568296D01*
X131845152Y-121524200D01*
X131845147Y-121524200D01*
X131770300Y-121509312D01*
X131695453Y-121524200D01*
X129414348Y-121524200D01*
X129339500Y-121509312D01*
X129284545Y-121520243D01*
X129122823Y-121358521D01*
X129347740Y-121021909D01*
X129459113Y-120462000D01*
X129347740Y-119902091D01*
X129090459Y-119517042D01*
X132489774Y-116117727D01*
X132562959Y-116294423D01*
X132938866Y-116709389D01*
X133444959Y-116948914D01*
X133667000Y-116827629D01*
X133667000Y-115684000D01*
X133921000Y-115684000D01*
X133921000Y-116827629D01*
X134143041Y-116948914D01*
X134649134Y-116709389D01*
X135025041Y-116294423D01*
X135185904Y-115906039D01*
X135063915Y-115684000D01*
X133921000Y-115684000D01*
X133667000Y-115684000D01*
X133647000Y-115684000D01*
X133647000Y-115430000D01*
X133667000Y-115430000D01*
X133667000Y-115410000D01*
X133921000Y-115410000D01*
X133921000Y-115430000D01*
X135063915Y-115430000D01*
X135185904Y-115207961D01*
X135059304Y-114902300D01*
X139088553Y-114902300D01*
X139163400Y-114917188D01*
X139238247Y-114902300D01*
X139238252Y-114902300D01*
X139459937Y-114858204D01*
X139711329Y-114690229D01*
X139753731Y-114626770D01*
X140359196Y-114021305D01*
X140379423Y-114051577D01*
X140731758Y-114287000D01*
X140379423Y-114522423D01*
X140062260Y-114997091D01*
X139950887Y-115557000D01*
X140062260Y-116116909D01*
X140379423Y-116591577D01*
X140706672Y-116810238D01*
X138241258Y-119275653D01*
X137936333Y-119215000D01*
X137653667Y-119215000D01*
X137235091Y-119298260D01*
X136773604Y-119606615D01*
X136625961Y-119458972D01*
X136573797Y-119380903D01*
X136264519Y-119174250D01*
X135991786Y-119120000D01*
X135899700Y-119101683D01*
X135807614Y-119120000D01*
X135714396Y-119120000D01*
X135432862Y-118838466D01*
X134905439Y-118620000D01*
X134334561Y-118620000D01*
X133807138Y-118838466D01*
X133403466Y-119242138D01*
X133185000Y-119769561D01*
X133185000Y-120340439D01*
X133403466Y-120867862D01*
X133807138Y-121271534D01*
X133872299Y-121298525D01*
X133865995Y-121301136D01*
X133791861Y-121547255D01*
X134620000Y-122375395D01*
X135448139Y-121547255D01*
X135374005Y-121301136D01*
X135367254Y-121298710D01*
X135432862Y-121271534D01*
X135613404Y-121090993D01*
X135768439Y-121246028D01*
X135820603Y-121324097D01*
X136078738Y-121496577D01*
X136129881Y-121530750D01*
X136494699Y-121603317D01*
X136586785Y-121585000D01*
X136693888Y-121585000D01*
X136760423Y-121684577D01*
X136821573Y-121725436D01*
X136667200Y-122098126D01*
X136667200Y-122509874D01*
X136824769Y-122890280D01*
X137115920Y-123181431D01*
X137496326Y-123339000D01*
X137908074Y-123339000D01*
X138288480Y-123181431D01*
X138405911Y-123064000D01*
X150462153Y-123064000D01*
X150537000Y-123078888D01*
X150611847Y-123064000D01*
X150611852Y-123064000D01*
X150833537Y-123019904D01*
X151084929Y-122851929D01*
X151127331Y-122788470D01*
X152138779Y-121777023D01*
X152475091Y-122001740D01*
X152893667Y-122085000D01*
X153176333Y-122085000D01*
X153594909Y-122001740D01*
X154069577Y-121684577D01*
X154386740Y-121209909D01*
X154498113Y-120650000D01*
X154386740Y-120090091D01*
X154069577Y-119615423D01*
X153594909Y-119298260D01*
X153176333Y-119215000D01*
X152893667Y-119215000D01*
X152475091Y-119298260D01*
X152000423Y-119615423D01*
X151814214Y-119894104D01*
X151727333Y-119911386D01*
X151529577Y-119615423D01*
X151054909Y-119298260D01*
X150636333Y-119215000D01*
X150353667Y-119215000D01*
X149935091Y-119298260D01*
X149460423Y-119615423D01*
X149225000Y-119967758D01*
X148989577Y-119615423D01*
X148514909Y-119298260D01*
X148096333Y-119215000D01*
X147813667Y-119215000D01*
X147395091Y-119298260D01*
X146920423Y-119615423D01*
X146685000Y-119967758D01*
X146449577Y-119615423D01*
X145974909Y-119298260D01*
X145556333Y-119215000D01*
X145273667Y-119215000D01*
X144855091Y-119298260D01*
X144380423Y-119615423D01*
X144145000Y-119967758D01*
X143909577Y-119615423D01*
X143563212Y-119383989D01*
X146120173Y-116827029D01*
X146183629Y-116784629D01*
X146202808Y-116755926D01*
X146411959Y-116854914D01*
X146634000Y-116733629D01*
X146634000Y-115590000D01*
X146888000Y-115590000D01*
X146888000Y-116733629D01*
X147110041Y-116854914D01*
X147616134Y-116615389D01*
X147992041Y-116200423D01*
X148152904Y-115812039D01*
X148030915Y-115590000D01*
X146888000Y-115590000D01*
X146634000Y-115590000D01*
X146614000Y-115590000D01*
X146614000Y-115336000D01*
X146634000Y-115336000D01*
X146634000Y-115316000D01*
X146888000Y-115316000D01*
X146888000Y-115336000D01*
X148030915Y-115336000D01*
X148152904Y-115113961D01*
X147992041Y-114725577D01*
X147616134Y-114310611D01*
X147411892Y-114213947D01*
X147795577Y-113957577D01*
X148112740Y-113482909D01*
X148224113Y-112923000D01*
X152917887Y-112923000D01*
X153029260Y-113482909D01*
X153346423Y-113957577D01*
X153698758Y-114193000D01*
X153346423Y-114428423D01*
X153029260Y-114903091D01*
X152917887Y-115463000D01*
X153029260Y-116022909D01*
X153346423Y-116497577D01*
X153821091Y-116814740D01*
X154239667Y-116898000D01*
X154522333Y-116898000D01*
X154940909Y-116814740D01*
X155415577Y-116497577D01*
X155732740Y-116022909D01*
X155844113Y-115463000D01*
X155732740Y-114903091D01*
X155415577Y-114428423D01*
X155063242Y-114193000D01*
X155415577Y-113957577D01*
X155732740Y-113482909D01*
X155844113Y-112923000D01*
X155732740Y-112363091D01*
X155415577Y-111888423D01*
X155031892Y-111632053D01*
X155236134Y-111535389D01*
X155612041Y-111120423D01*
X155772904Y-110732039D01*
X155650915Y-110510000D01*
X154508000Y-110510000D01*
X154508000Y-110530000D01*
X154254000Y-110530000D01*
X154254000Y-110510000D01*
X153111085Y-110510000D01*
X152989096Y-110732039D01*
X153149959Y-111120423D01*
X153525866Y-111535389D01*
X153730108Y-111632053D01*
X153346423Y-111888423D01*
X153029260Y-112363091D01*
X152917887Y-112923000D01*
X148224113Y-112923000D01*
X148112740Y-112363091D01*
X147795577Y-111888423D01*
X147443242Y-111653000D01*
X147795577Y-111417577D01*
X148112740Y-110942909D01*
X148224113Y-110383000D01*
X148159688Y-110059114D01*
X148380073Y-109838729D01*
X148443529Y-109796329D01*
X148490414Y-109726161D01*
X148611504Y-109544938D01*
X148625766Y-109473237D01*
X148655600Y-109323252D01*
X148655600Y-109323248D01*
X148670488Y-109248400D01*
X148655600Y-109173552D01*
X148655600Y-108192039D01*
X152989096Y-108192039D01*
X153149959Y-108580423D01*
X153525866Y-108995389D01*
X153774367Y-109113000D01*
X153525866Y-109230611D01*
X153149959Y-109645577D01*
X152989096Y-110033961D01*
X153111085Y-110256000D01*
X154254000Y-110256000D01*
X154254000Y-107970000D01*
X154508000Y-107970000D01*
X154508000Y-110256000D01*
X155650915Y-110256000D01*
X155772904Y-110033961D01*
X155612041Y-109645577D01*
X155236134Y-109230611D01*
X154987633Y-109113000D01*
X155236134Y-108995389D01*
X155612041Y-108580423D01*
X155772904Y-108192039D01*
X155650915Y-107970000D01*
X154508000Y-107970000D01*
X154254000Y-107970000D01*
X153111085Y-107970000D01*
X152989096Y-108192039D01*
X148655600Y-108192039D01*
X148655600Y-105652039D01*
X152989096Y-105652039D01*
X153149959Y-106040423D01*
X153525866Y-106455389D01*
X153774367Y-106573000D01*
X153525866Y-106690611D01*
X153149959Y-107105577D01*
X152989096Y-107493961D01*
X153111085Y-107716000D01*
X154254000Y-107716000D01*
X154254000Y-105430000D01*
X154508000Y-105430000D01*
X154508000Y-107716000D01*
X155650915Y-107716000D01*
X155772904Y-107493961D01*
X155612041Y-107105577D01*
X155236134Y-106690611D01*
X154987633Y-106573000D01*
X155236134Y-106455389D01*
X155612041Y-106040423D01*
X155772904Y-105652039D01*
X155650915Y-105430000D01*
X154508000Y-105430000D01*
X154254000Y-105430000D01*
X153111085Y-105430000D01*
X152989096Y-105652039D01*
X148655600Y-105652039D01*
X148655600Y-104854346D01*
X148670488Y-104779499D01*
X148655600Y-104704652D01*
X148655600Y-104704648D01*
X148611504Y-104482963D01*
X148560795Y-104407071D01*
X148485929Y-104295026D01*
X148485927Y-104295024D01*
X148443529Y-104231571D01*
X148380076Y-104189173D01*
X147849109Y-103658207D01*
X147992041Y-103500423D01*
X148152904Y-103112039D01*
X152989096Y-103112039D01*
X153149959Y-103500423D01*
X153525866Y-103915389D01*
X153774367Y-104033000D01*
X153525866Y-104150611D01*
X153149959Y-104565577D01*
X152989096Y-104953961D01*
X153111085Y-105176000D01*
X154254000Y-105176000D01*
X154254000Y-102890000D01*
X154508000Y-102890000D01*
X154508000Y-105176000D01*
X155650915Y-105176000D01*
X155772904Y-104953961D01*
X155612041Y-104565577D01*
X155236134Y-104150611D01*
X154987633Y-104033000D01*
X155236134Y-103915389D01*
X155612041Y-103500423D01*
X155772904Y-103112039D01*
X155650915Y-102890000D01*
X154508000Y-102890000D01*
X154254000Y-102890000D01*
X153111085Y-102890000D01*
X152989096Y-103112039D01*
X148152904Y-103112039D01*
X148030915Y-102890000D01*
X146888000Y-102890000D01*
X146888000Y-102910000D01*
X146634000Y-102910000D01*
X146634000Y-102890000D01*
X146614000Y-102890000D01*
X146614000Y-102636000D01*
X146634000Y-102636000D01*
X146634000Y-102616000D01*
X146888000Y-102616000D01*
X146888000Y-102636000D01*
X148030915Y-102636000D01*
X148152904Y-102413961D01*
X147992041Y-102025577D01*
X147653639Y-101652013D01*
X147808765Y-101621157D01*
X148018809Y-101480809D01*
X148159157Y-101270765D01*
X148208440Y-101023000D01*
X148208440Y-100223000D01*
X152917887Y-100223000D01*
X153029260Y-100782909D01*
X153346423Y-101257577D01*
X153730108Y-101513947D01*
X153525866Y-101610611D01*
X153149959Y-102025577D01*
X152989096Y-102413961D01*
X153111085Y-102636000D01*
X154254000Y-102636000D01*
X154254000Y-102616000D01*
X154508000Y-102616000D01*
X154508000Y-102636000D01*
X155650915Y-102636000D01*
X155772904Y-102413961D01*
X155612041Y-102025577D01*
X155236134Y-101610611D01*
X155031892Y-101513947D01*
X155415577Y-101257577D01*
X155732740Y-100782909D01*
X155844113Y-100223000D01*
X155732740Y-99663091D01*
X155415577Y-99188423D01*
X154940909Y-98871260D01*
X154522333Y-98788000D01*
X154239667Y-98788000D01*
X153821091Y-98871260D01*
X153346423Y-99188423D01*
X153029260Y-99663091D01*
X152917887Y-100223000D01*
X148208440Y-100223000D01*
X148208440Y-99423000D01*
X148159157Y-99175235D01*
X148018809Y-98965191D01*
X147808765Y-98824843D01*
X147561000Y-98775560D01*
X145961000Y-98775560D01*
X145713235Y-98824843D01*
X145503191Y-98965191D01*
X145362843Y-99175235D01*
X145313560Y-99423000D01*
X145313560Y-100906057D01*
X142695040Y-98287538D01*
X142798862Y-98244534D01*
X143080396Y-97963000D01*
X150995044Y-97963000D01*
X151005466Y-97988162D01*
X151409138Y-98391834D01*
X151936561Y-98610300D01*
X152507439Y-98610300D01*
X153034862Y-98391834D01*
X153243651Y-98183045D01*
X153893861Y-98183045D01*
X153967995Y-98429164D01*
X154505223Y-98622265D01*
X155075454Y-98595078D01*
X155476005Y-98429164D01*
X155550139Y-98183045D01*
X154722000Y-97354905D01*
X153893861Y-98183045D01*
X153243651Y-98183045D01*
X153438534Y-97988162D01*
X153465525Y-97923001D01*
X153468136Y-97929305D01*
X153714255Y-98003439D01*
X154542395Y-97175300D01*
X154901605Y-97175300D01*
X155729745Y-98003439D01*
X155975864Y-97929305D01*
X156168965Y-97392077D01*
X156141778Y-96821846D01*
X155975864Y-96421295D01*
X155729745Y-96347161D01*
X154901605Y-97175300D01*
X154542395Y-97175300D01*
X153714255Y-96347161D01*
X153468136Y-96421295D01*
X153465710Y-96428046D01*
X153438534Y-96362438D01*
X153243651Y-96167555D01*
X153893861Y-96167555D01*
X154722000Y-96995695D01*
X155550139Y-96167555D01*
X155476005Y-95921436D01*
X154938777Y-95728335D01*
X154368546Y-95755522D01*
X153967995Y-95921436D01*
X153893861Y-96167555D01*
X153243651Y-96167555D01*
X153034862Y-95958766D01*
X152507439Y-95740300D01*
X151936561Y-95740300D01*
X151409138Y-95958766D01*
X151274904Y-96093000D01*
X143080396Y-96093000D01*
X142798862Y-95811466D01*
X142271439Y-95593000D01*
X141700561Y-95593000D01*
X141602000Y-95633825D01*
X141602000Y-93836046D01*
X141606687Y-93812481D01*
X141885909Y-93756940D01*
X142360577Y-93439777D01*
X142544043Y-93165200D01*
X142710953Y-93165200D01*
X142785800Y-93180088D01*
X142860647Y-93165200D01*
X142860652Y-93165200D01*
X143082337Y-93121104D01*
X143333729Y-92953129D01*
X143359714Y-92914239D01*
X145369096Y-92914239D01*
X145529959Y-93302623D01*
X145905866Y-93717589D01*
X146411959Y-93957114D01*
X146634000Y-93835829D01*
X146634000Y-92692200D01*
X146888000Y-92692200D01*
X146888000Y-93835829D01*
X147110041Y-93957114D01*
X147616134Y-93717589D01*
X147992041Y-93302623D01*
X148152904Y-92914239D01*
X148030915Y-92692200D01*
X146888000Y-92692200D01*
X146634000Y-92692200D01*
X145491085Y-92692200D01*
X145369096Y-92914239D01*
X143359714Y-92914239D01*
X143376131Y-92889670D01*
X145517981Y-90747821D01*
X145726423Y-91059777D01*
X146110108Y-91316147D01*
X145905866Y-91412811D01*
X145529959Y-91827777D01*
X145369096Y-92216161D01*
X145491085Y-92438200D01*
X146634000Y-92438200D01*
X146634000Y-92418200D01*
X146888000Y-92418200D01*
X146888000Y-92438200D01*
X148030915Y-92438200D01*
X148152904Y-92216161D01*
X147992041Y-91827777D01*
X147616134Y-91412811D01*
X147411892Y-91316147D01*
X147795577Y-91059777D01*
X148112740Y-90585109D01*
X148224113Y-90025200D01*
X148112740Y-89465291D01*
X147877088Y-89112613D01*
X149742802Y-87246900D01*
X152965288Y-87246900D01*
X152917887Y-87485200D01*
X153029260Y-88045109D01*
X153346423Y-88519777D01*
X153698758Y-88755200D01*
X153346423Y-88990623D01*
X153029260Y-89465291D01*
X152917887Y-90025200D01*
X153029260Y-90585109D01*
X153346423Y-91059777D01*
X153642386Y-91257533D01*
X153625104Y-91344414D01*
X153346423Y-91530623D01*
X153029260Y-92005291D01*
X152917887Y-92565200D01*
X153029260Y-93125109D01*
X153346423Y-93599777D01*
X153821091Y-93916940D01*
X154239667Y-94000200D01*
X154522333Y-94000200D01*
X154940909Y-93916940D01*
X155415577Y-93599777D01*
X155732740Y-93125109D01*
X155844113Y-92565200D01*
X155732740Y-92005291D01*
X155508023Y-91668978D01*
X156462673Y-90714329D01*
X156526129Y-90671929D01*
X156694104Y-90420537D01*
X156738200Y-90198852D01*
X156738200Y-90198848D01*
X156753088Y-90124000D01*
X156738200Y-90049152D01*
X156738200Y-79938446D01*
X156753088Y-79863599D01*
X156738200Y-79788752D01*
X156738200Y-79788748D01*
X156694104Y-79567063D01*
X156526129Y-79315671D01*
X156462673Y-79273271D01*
X155469090Y-78279689D01*
X155732740Y-77885109D01*
X155844113Y-77325200D01*
X155732740Y-76765291D01*
X155424385Y-76303804D01*
X155485028Y-76243161D01*
X155563097Y-76190997D01*
X155769750Y-75881719D01*
X155824000Y-75608986D01*
X155824000Y-75608982D01*
X155842316Y-75516901D01*
X155824000Y-75424820D01*
X155824000Y-75282696D01*
X156105534Y-75001162D01*
X156324000Y-74473739D01*
X156324000Y-73902861D01*
X156105534Y-73375438D01*
X155701862Y-72971766D01*
X155174439Y-72753300D01*
X154603561Y-72753300D01*
X154076138Y-72971766D01*
X153672466Y-73375438D01*
X153645475Y-73440599D01*
X153642864Y-73434295D01*
X153396745Y-73360161D01*
X152568605Y-74188300D01*
X153396745Y-75016439D01*
X153642864Y-74942305D01*
X153645290Y-74935554D01*
X153672466Y-75001162D01*
X153877458Y-75206154D01*
X153784970Y-75298641D01*
X153706904Y-75350803D01*
X153654742Y-75428869D01*
X153654741Y-75428870D01*
X153500250Y-75660082D01*
X153427683Y-76024900D01*
X153446001Y-76116990D01*
X153446001Y-76224087D01*
X153346423Y-76290623D01*
X153029260Y-76765291D01*
X152949877Y-77164375D01*
X150981547Y-75196045D01*
X151560861Y-75196045D01*
X151634995Y-75442164D01*
X152172223Y-75635265D01*
X152742454Y-75608078D01*
X153143005Y-75442164D01*
X153217139Y-75196045D01*
X152389000Y-74367905D01*
X151560861Y-75196045D01*
X150981547Y-75196045D01*
X149757025Y-73971523D01*
X150942035Y-73971523D01*
X150969222Y-74541754D01*
X151135136Y-74942305D01*
X151381255Y-75016439D01*
X152209395Y-74188300D01*
X151381255Y-73360161D01*
X151135136Y-73434295D01*
X150942035Y-73971523D01*
X149757025Y-73971523D01*
X148966057Y-73180555D01*
X151560861Y-73180555D01*
X152389000Y-74008695D01*
X153217139Y-73180555D01*
X153143005Y-72934436D01*
X152605777Y-72741335D01*
X152035546Y-72768522D01*
X151634995Y-72934436D01*
X151560861Y-73180555D01*
X148966057Y-73180555D01*
X140471531Y-64686030D01*
X140429129Y-64622571D01*
X140177737Y-64454596D01*
X139956052Y-64410500D01*
X139956047Y-64410500D01*
X139881200Y-64395612D01*
X139806353Y-64410500D01*
X112227747Y-64410500D01*
X112152900Y-64395612D01*
X112078053Y-64410500D01*
X112078048Y-64410500D01*
X111856363Y-64454596D01*
X111604971Y-64622571D01*
X111562571Y-64686027D01*
X110121937Y-66126662D01*
X109799418Y-65911161D01*
X109366256Y-65825000D01*
X109073744Y-65825000D01*
X108640582Y-65911161D01*
X108149375Y-66239375D01*
X107950000Y-66537761D01*
X107750625Y-66239375D01*
X107259418Y-65911161D01*
X106826256Y-65825000D01*
X106533744Y-65825000D01*
X106100582Y-65911161D01*
X105609375Y-66239375D01*
X105410000Y-66537761D01*
X105210625Y-66239375D01*
X104719418Y-65911161D01*
X104286256Y-65825000D01*
X103993744Y-65825000D01*
X103560582Y-65911161D01*
X103069375Y-66239375D01*
X102870000Y-66537761D01*
X102670625Y-66239375D01*
X102179418Y-65911161D01*
X101746256Y-65825000D01*
X101453744Y-65825000D01*
X101020582Y-65911161D01*
X100529375Y-66239375D01*
X100330000Y-66537761D01*
X100130625Y-66239375D01*
X99639418Y-65911161D01*
X99206256Y-65825000D01*
X98913744Y-65825000D01*
X98480582Y-65911161D01*
X97989375Y-66239375D01*
X97790000Y-66537761D01*
X97590625Y-66239375D01*
X97099418Y-65911161D01*
X96666256Y-65825000D01*
X96373744Y-65825000D01*
X95940582Y-65911161D01*
X95449375Y-66239375D01*
X95236157Y-66558478D01*
X95175183Y-66428642D01*
X94746924Y-66038355D01*
X94336890Y-65868524D01*
X94107000Y-65989845D01*
X94107000Y-67183000D01*
X94127000Y-67183000D01*
X94127000Y-67437000D01*
X94107000Y-67437000D01*
X94107000Y-67457000D01*
X93853000Y-67457000D01*
X93853000Y-67437000D01*
X91567000Y-67437000D01*
X91567000Y-67457000D01*
X91313000Y-67457000D01*
X91313000Y-67437000D01*
X90119181Y-67437000D01*
X89998514Y-67666892D01*
X90244817Y-68191358D01*
X90451855Y-68380039D01*
X90342235Y-68401843D01*
X90132191Y-68542191D01*
X89991843Y-68752235D01*
X89957896Y-68922900D01*
X89724881Y-68969250D01*
X89415603Y-69175903D01*
X89363441Y-69253969D01*
X88153011Y-70464400D01*
X74832317Y-70464400D01*
X74466007Y-70098090D01*
X73901830Y-69864400D01*
X73291170Y-69864400D01*
X72726993Y-70098090D01*
X72557775Y-70267308D01*
X72554657Y-70251635D01*
X72414309Y-70041591D01*
X72204265Y-69901243D01*
X71956500Y-69851960D01*
X70156500Y-69851960D01*
X69908735Y-69901243D01*
X69698691Y-70041591D01*
X69558343Y-70251635D01*
X69509060Y-70499400D01*
X69509060Y-72299400D01*
X69558343Y-72547165D01*
X69698691Y-72757209D01*
X69908735Y-72897557D01*
X70156500Y-72946840D01*
X71956500Y-72946840D01*
X72204265Y-72897557D01*
X72229077Y-72880978D01*
X74340971Y-74992873D01*
X74383371Y-75056329D01*
X74446827Y-75098729D01*
X74634762Y-75224304D01*
X74682905Y-75233880D01*
X74856448Y-75268400D01*
X74856452Y-75268400D01*
X74931300Y-75283288D01*
X75006148Y-75268400D01*
X79645370Y-75268400D01*
X79667266Y-75321262D01*
X80070938Y-75724934D01*
X80598361Y-75943400D01*
X81169239Y-75943400D01*
X81696662Y-75724934D01*
X82100334Y-75321262D01*
X82292455Y-74857439D01*
X89651896Y-74857439D01*
X89812759Y-75245823D01*
X90188666Y-75660789D01*
X90694759Y-75900314D01*
X90916800Y-75779029D01*
X90916800Y-74635400D01*
X91170800Y-74635400D01*
X91170800Y-75779029D01*
X91392841Y-75900314D01*
X91898934Y-75660789D01*
X92274841Y-75245823D01*
X92418888Y-74898039D01*
X93731096Y-74898039D01*
X93891959Y-75286423D01*
X94267866Y-75701389D01*
X94773959Y-75940914D01*
X94996000Y-75819629D01*
X94996000Y-74676000D01*
X95250000Y-74676000D01*
X95250000Y-75819629D01*
X95472041Y-75940914D01*
X95978134Y-75701389D01*
X96354041Y-75286423D01*
X96514904Y-74898039D01*
X96392915Y-74676000D01*
X95250000Y-74676000D01*
X94996000Y-74676000D01*
X93853085Y-74676000D01*
X93731096Y-74898039D01*
X92418888Y-74898039D01*
X92435704Y-74857439D01*
X92313715Y-74635400D01*
X91170800Y-74635400D01*
X90916800Y-74635400D01*
X89773885Y-74635400D01*
X89651896Y-74857439D01*
X82292455Y-74857439D01*
X82318800Y-74793839D01*
X82318800Y-74222961D01*
X82292456Y-74159361D01*
X89651896Y-74159361D01*
X89773885Y-74381400D01*
X90916800Y-74381400D01*
X90916800Y-73237771D01*
X91170800Y-73237771D01*
X91170800Y-74381400D01*
X92313715Y-74381400D01*
X92413398Y-74199961D01*
X93731096Y-74199961D01*
X93853085Y-74422000D01*
X94996000Y-74422000D01*
X94996000Y-73278371D01*
X95250000Y-73278371D01*
X95250000Y-74422000D01*
X96392915Y-74422000D01*
X96514904Y-74199961D01*
X96354041Y-73811577D01*
X95978134Y-73396611D01*
X95472041Y-73157086D01*
X95250000Y-73278371D01*
X94996000Y-73278371D01*
X94773959Y-73157086D01*
X94267866Y-73396611D01*
X93891959Y-73811577D01*
X93731096Y-74199961D01*
X92413398Y-74199961D01*
X92435704Y-74159361D01*
X92274841Y-73770977D01*
X91898934Y-73356011D01*
X91392841Y-73116486D01*
X91170800Y-73237771D01*
X90916800Y-73237771D01*
X90694759Y-73116486D01*
X90188666Y-73356011D01*
X89812759Y-73770977D01*
X89651896Y-74159361D01*
X82292456Y-74159361D01*
X82100334Y-73695538D01*
X81696662Y-73291866D01*
X81169239Y-73073400D01*
X80598361Y-73073400D01*
X80070938Y-73291866D01*
X79667266Y-73695538D01*
X79645370Y-73748400D01*
X75246102Y-73748400D01*
X74276788Y-72779087D01*
X74466007Y-72700710D01*
X74832317Y-72334400D01*
X88448214Y-72334400D01*
X88540300Y-72352717D01*
X88632386Y-72334400D01*
X88905119Y-72280150D01*
X89214397Y-72073497D01*
X89266561Y-71995428D01*
X90120972Y-71141018D01*
X90132191Y-71157809D01*
X90342235Y-71298157D01*
X90590000Y-71347440D01*
X92290000Y-71347440D01*
X92537765Y-71298157D01*
X92747809Y-71157809D01*
X92888157Y-70947765D01*
X92897184Y-70902381D01*
X92909375Y-70920625D01*
X93400582Y-71248839D01*
X93833744Y-71335000D01*
X94126256Y-71335000D01*
X94139981Y-71332270D01*
X96932640Y-74124930D01*
X96984803Y-74202997D01*
X97294081Y-74409650D01*
X97566814Y-74463900D01*
X97566817Y-74463900D01*
X97658899Y-74482216D01*
X97750981Y-74463900D01*
X98668611Y-74463900D01*
X100503864Y-76299153D01*
X100397546Y-76304222D01*
X99996995Y-76470136D01*
X99922861Y-76716255D01*
X100751000Y-77544395D01*
X100765142Y-77530252D01*
X100944748Y-77709858D01*
X100930605Y-77724000D01*
X101758745Y-78552139D01*
X102004864Y-78478005D01*
X102007290Y-78471254D01*
X102034466Y-78536862D01*
X102296607Y-78799003D01*
X102261270Y-78834341D01*
X102183204Y-78886503D01*
X102131042Y-78964569D01*
X102131041Y-78964570D01*
X101976550Y-79195782D01*
X101903983Y-79560600D01*
X101922301Y-79652690D01*
X101922301Y-79759787D01*
X101822723Y-79826323D01*
X101505560Y-80300991D01*
X101394187Y-80860900D01*
X101466850Y-81226200D01*
X97802702Y-81226200D01*
X96952931Y-80376430D01*
X96910529Y-80312971D01*
X96684740Y-80162103D01*
X96684740Y-80060900D01*
X96635457Y-79813135D01*
X96495109Y-79603091D01*
X96285065Y-79462743D01*
X96037300Y-79413460D01*
X95936097Y-79413460D01*
X95785229Y-79187671D01*
X95721773Y-79145271D01*
X95308247Y-78731745D01*
X99922861Y-78731745D01*
X99996995Y-78977864D01*
X100534223Y-79170965D01*
X101104454Y-79143778D01*
X101505005Y-78977864D01*
X101579139Y-78731745D01*
X100751000Y-77903605D01*
X99922861Y-78731745D01*
X95308247Y-78731745D01*
X94083725Y-77507223D01*
X99304035Y-77507223D01*
X99331222Y-78077454D01*
X99497136Y-78478005D01*
X99743255Y-78552139D01*
X100571395Y-77724000D01*
X99743255Y-76895861D01*
X99497136Y-76969995D01*
X99304035Y-77507223D01*
X94083725Y-77507223D01*
X93015931Y-76439430D01*
X92973529Y-76375971D01*
X92722137Y-76207996D01*
X92500452Y-76163900D01*
X92500447Y-76163900D01*
X92425600Y-76149012D01*
X92350753Y-76163900D01*
X82190548Y-76163900D01*
X82115700Y-76149012D01*
X82040852Y-76163900D01*
X82040848Y-76163900D01*
X81819163Y-76207996D01*
X81567771Y-76375971D01*
X81525371Y-76439427D01*
X81272902Y-76691897D01*
X81220039Y-76670000D01*
X80649161Y-76670000D01*
X80121738Y-76888466D01*
X79718066Y-77292138D01*
X79499600Y-77819561D01*
X79499600Y-78390439D01*
X79718066Y-78917862D01*
X80121738Y-79321534D01*
X80649161Y-79540000D01*
X81220039Y-79540000D01*
X81747462Y-79321534D01*
X82151134Y-78917862D01*
X82343255Y-78454039D01*
X89702696Y-78454039D01*
X89863559Y-78842423D01*
X90239466Y-79257389D01*
X90745559Y-79496914D01*
X90967600Y-79375629D01*
X90967600Y-78232000D01*
X91221600Y-78232000D01*
X91221600Y-79375629D01*
X91443641Y-79496914D01*
X91949734Y-79257389D01*
X92325641Y-78842423D01*
X92486504Y-78454039D01*
X92364515Y-78232000D01*
X91221600Y-78232000D01*
X90967600Y-78232000D01*
X89824685Y-78232000D01*
X89702696Y-78454039D01*
X82343255Y-78454039D01*
X82369600Y-78390439D01*
X82369600Y-77819561D01*
X82347703Y-77766698D01*
X82430502Y-77683900D01*
X89732543Y-77683900D01*
X89702696Y-77755961D01*
X89824685Y-77978000D01*
X90967600Y-77978000D01*
X90967600Y-77958000D01*
X91221600Y-77958000D01*
X91221600Y-77978000D01*
X92364515Y-77978000D01*
X92378835Y-77951936D01*
X94009762Y-79582864D01*
X93979491Y-79603091D01*
X93839143Y-79813135D01*
X93789860Y-80060900D01*
X93789860Y-81660900D01*
X93839143Y-81908665D01*
X93979491Y-82118709D01*
X94189535Y-82259057D01*
X94323406Y-82285685D01*
X94202723Y-82366323D01*
X93885560Y-82840991D01*
X93774187Y-83400900D01*
X93885560Y-83960809D01*
X94202723Y-84435477D01*
X94555058Y-84670900D01*
X94202723Y-84906323D01*
X94140925Y-84998810D01*
X93970952Y-84965000D01*
X93970947Y-84965000D01*
X93896100Y-84950112D01*
X93821253Y-84965000D01*
X92333030Y-84965000D01*
X92311134Y-84912138D01*
X91907462Y-84508466D01*
X91380039Y-84290000D01*
X90809161Y-84290000D01*
X90281738Y-84508466D01*
X89878066Y-84912138D01*
X89659600Y-85439561D01*
X89659600Y-86010439D01*
X89878066Y-86537862D01*
X90281738Y-86941534D01*
X90809161Y-87160000D01*
X91380039Y-87160000D01*
X91907462Y-86941534D01*
X92311134Y-86537862D01*
X92333030Y-86485000D01*
X93561513Y-86485000D01*
X93564071Y-86488829D01*
X93815463Y-86656804D01*
X94016514Y-86696796D01*
X94202723Y-86975477D01*
X94555058Y-87210900D01*
X94202723Y-87446323D01*
X93885560Y-87920991D01*
X93774187Y-88480900D01*
X93885560Y-89040809D01*
X94202723Y-89515477D01*
X94555058Y-89750900D01*
X94202723Y-89986323D01*
X94019257Y-90260900D01*
X92335428Y-90260900D01*
X92446340Y-90094909D01*
X92557713Y-89535000D01*
X92446340Y-88975091D01*
X92129177Y-88500423D01*
X91654509Y-88183260D01*
X91235933Y-88100000D01*
X90953267Y-88100000D01*
X90534691Y-88183260D01*
X90060023Y-88500423D01*
X89742860Y-88975091D01*
X89631487Y-89535000D01*
X89742860Y-90094909D01*
X89853772Y-90260900D01*
X87670602Y-90260900D01*
X82650231Y-85240530D01*
X82607829Y-85177071D01*
X82356437Y-85009096D01*
X82155386Y-84969104D01*
X81969177Y-84690423D01*
X81494509Y-84373260D01*
X81075933Y-84290000D01*
X80793267Y-84290000D01*
X80374691Y-84373260D01*
X79900023Y-84690423D01*
X79582860Y-85165091D01*
X79471487Y-85725000D01*
X79582860Y-86284909D01*
X79900023Y-86759577D01*
X80374691Y-87076740D01*
X80793267Y-87160000D01*
X81075933Y-87160000D01*
X81494509Y-87076740D01*
X81969177Y-86759577D01*
X81989404Y-86729305D01*
X86765470Y-91505372D01*
X86807871Y-91568829D01*
X87059263Y-91736804D01*
X87280948Y-91780900D01*
X87280952Y-91780900D01*
X87355800Y-91795788D01*
X87430648Y-91780900D01*
X94019257Y-91780900D01*
X94202723Y-92055477D01*
X94555058Y-92290900D01*
X94202723Y-92526323D01*
X93885560Y-93000991D01*
X93774187Y-93560900D01*
X93846870Y-93926300D01*
X92940447Y-93926300D01*
X92865600Y-93911412D01*
X92790753Y-93926300D01*
X92790748Y-93926300D01*
X92569063Y-93970396D01*
X92485580Y-94026178D01*
X92540538Y-93943927D01*
X92659672Y-93345000D01*
X92540538Y-92746073D01*
X92201273Y-92238327D01*
X91693527Y-91899062D01*
X91245782Y-91810000D01*
X90943418Y-91810000D01*
X90495673Y-91899062D01*
X89987927Y-92238327D01*
X89750438Y-92593754D01*
X89572763Y-92629096D01*
X89321371Y-92797071D01*
X89278971Y-92860527D01*
X88229499Y-93910000D01*
X82482040Y-93910000D01*
X82482040Y-92445000D01*
X82432757Y-92197235D01*
X82292409Y-91987191D01*
X82082365Y-91846843D01*
X81834600Y-91797560D01*
X80034600Y-91797560D01*
X79786835Y-91846843D01*
X79576791Y-91987191D01*
X79436443Y-92197235D01*
X79387160Y-92445000D01*
X79387160Y-93910000D01*
X77804909Y-93910000D01*
X77736086Y-93743847D01*
X77276153Y-93283914D01*
X76675222Y-93035000D01*
X76024778Y-93035000D01*
X75423847Y-93283914D01*
X74963914Y-93743847D01*
X74895091Y-93910000D01*
X71304909Y-93910000D01*
X71236086Y-93743847D01*
X70776153Y-93283914D01*
X70175222Y-93035000D01*
X69524778Y-93035000D01*
X68923847Y-93283914D01*
X68463914Y-93743847D01*
X68215000Y-94344778D01*
X65480000Y-94344778D01*
X65480000Y-91322532D01*
X68877073Y-91322532D01*
X68975736Y-91589387D01*
X69585461Y-91815908D01*
X70235460Y-91791856D01*
X70724264Y-91589387D01*
X70822927Y-91322532D01*
X75377073Y-91322532D01*
X75475736Y-91589387D01*
X76085461Y-91815908D01*
X76735460Y-91791856D01*
X77224264Y-91589387D01*
X77322927Y-91322532D01*
X76350000Y-90349605D01*
X75377073Y-91322532D01*
X70822927Y-91322532D01*
X69850000Y-90349605D01*
X68877073Y-91322532D01*
X65480000Y-91322532D01*
X65480000Y-89905461D01*
X68204092Y-89905461D01*
X68228144Y-90555460D01*
X68430613Y-91044264D01*
X68697468Y-91142927D01*
X69670395Y-90170000D01*
X70029605Y-90170000D01*
X71002532Y-91142927D01*
X71269387Y-91044264D01*
X71495908Y-90434539D01*
X71476331Y-89905461D01*
X74704092Y-89905461D01*
X74728144Y-90555460D01*
X74930613Y-91044264D01*
X75197468Y-91142927D01*
X76170395Y-90170000D01*
X76529605Y-90170000D01*
X77502532Y-91142927D01*
X77769387Y-91044264D01*
X77995908Y-90434539D01*
X77971856Y-89784540D01*
X77769387Y-89295736D01*
X77644497Y-89249561D01*
X79499600Y-89249561D01*
X79499600Y-89820439D01*
X79718066Y-90347862D01*
X80121738Y-90751534D01*
X80649161Y-90970000D01*
X81220039Y-90970000D01*
X81747462Y-90751534D01*
X82151134Y-90347862D01*
X82369600Y-89820439D01*
X82369600Y-89249561D01*
X82151134Y-88722138D01*
X81747462Y-88318466D01*
X81220039Y-88100000D01*
X80649161Y-88100000D01*
X80121738Y-88318466D01*
X79718066Y-88722138D01*
X79499600Y-89249561D01*
X77644497Y-89249561D01*
X77502532Y-89197073D01*
X76529605Y-90170000D01*
X76170395Y-90170000D01*
X75197468Y-89197073D01*
X74930613Y-89295736D01*
X74704092Y-89905461D01*
X71476331Y-89905461D01*
X71471856Y-89784540D01*
X71269387Y-89295736D01*
X71002532Y-89197073D01*
X70029605Y-90170000D01*
X69670395Y-90170000D01*
X68697468Y-89197073D01*
X68430613Y-89295736D01*
X68204092Y-89905461D01*
X65480000Y-89905461D01*
X65480000Y-89017468D01*
X68877073Y-89017468D01*
X69850000Y-89990395D01*
X70822927Y-89017468D01*
X75377073Y-89017468D01*
X76350000Y-89990395D01*
X77322927Y-89017468D01*
X77224264Y-88750613D01*
X76614539Y-88524092D01*
X75964540Y-88548144D01*
X75475736Y-88750613D01*
X75377073Y-89017468D01*
X70822927Y-89017468D01*
X70724264Y-88750613D01*
X70114539Y-88524092D01*
X69464540Y-88548144D01*
X68975736Y-88750613D01*
X68877073Y-89017468D01*
X65480000Y-89017468D01*
X65480000Y-85363361D01*
X67919700Y-85363361D01*
X67919700Y-85934239D01*
X68138166Y-86461662D01*
X68541838Y-86865334D01*
X69069261Y-87083800D01*
X69640139Y-87083800D01*
X70167562Y-86865334D01*
X70571234Y-86461662D01*
X70593130Y-86408800D01*
X73245453Y-86408800D01*
X73320300Y-86423688D01*
X73395147Y-86408800D01*
X73395152Y-86408800D01*
X73616837Y-86364704D01*
X73868229Y-86196729D01*
X73910631Y-86133270D01*
X75125266Y-84918635D01*
X75149806Y-84928800D01*
X75700794Y-84928800D01*
X76209840Y-84717947D01*
X76599447Y-84328340D01*
X76810300Y-83819294D01*
X76810300Y-83268306D01*
X76599447Y-82759260D01*
X76209840Y-82369653D01*
X75700794Y-82158800D01*
X75149806Y-82158800D01*
X74640760Y-82369653D01*
X74251153Y-82759260D01*
X74040300Y-83268306D01*
X74040300Y-83819294D01*
X74050465Y-83843834D01*
X73005499Y-84888800D01*
X70593130Y-84888800D01*
X70571234Y-84835938D01*
X70167562Y-84432266D01*
X70102401Y-84405275D01*
X70108705Y-84402664D01*
X70182839Y-84156545D01*
X69354700Y-83328405D01*
X68526561Y-84156545D01*
X68600695Y-84402664D01*
X68607446Y-84405090D01*
X68541838Y-84432266D01*
X68138166Y-84835938D01*
X67919700Y-85363361D01*
X65480000Y-85363361D01*
X65480000Y-82932023D01*
X67907735Y-82932023D01*
X67934922Y-83502254D01*
X68100836Y-83902805D01*
X68346955Y-83976939D01*
X69175095Y-83148800D01*
X69534305Y-83148800D01*
X70362445Y-83976939D01*
X70608564Y-83902805D01*
X70801665Y-83365577D01*
X70774478Y-82795346D01*
X70608564Y-82394795D01*
X70362445Y-82320661D01*
X69534305Y-83148800D01*
X69175095Y-83148800D01*
X68346955Y-82320661D01*
X68100836Y-82394795D01*
X67907735Y-82932023D01*
X65480000Y-82932023D01*
X65480000Y-82141055D01*
X68526561Y-82141055D01*
X69354700Y-82969195D01*
X70182839Y-82141055D01*
X70108705Y-81894936D01*
X69571477Y-81701835D01*
X69001246Y-81729022D01*
X68600695Y-81894936D01*
X68526561Y-82141055D01*
X65480000Y-82141055D01*
X65480000Y-80253845D01*
X68526561Y-80253845D01*
X68600695Y-80499964D01*
X69137923Y-80693065D01*
X69708154Y-80665878D01*
X70108705Y-80499964D01*
X70182839Y-80253845D01*
X69354700Y-79425705D01*
X68526561Y-80253845D01*
X65480000Y-80253845D01*
X65480000Y-79029323D01*
X67907735Y-79029323D01*
X67934922Y-79599554D01*
X68100836Y-80000105D01*
X68346955Y-80074239D01*
X69175095Y-79246100D01*
X69534305Y-79246100D01*
X70362445Y-80074239D01*
X70608564Y-80000105D01*
X70801665Y-79462877D01*
X70774478Y-78892646D01*
X70608564Y-78492095D01*
X70362445Y-78417961D01*
X69534305Y-79246100D01*
X69175095Y-79246100D01*
X68346955Y-78417961D01*
X68100836Y-78492095D01*
X67907735Y-79029323D01*
X65480000Y-79029323D01*
X65480000Y-76460661D01*
X67919700Y-76460661D01*
X67919700Y-77031539D01*
X68138166Y-77558962D01*
X68541838Y-77962634D01*
X68606999Y-77989625D01*
X68600695Y-77992236D01*
X68526561Y-78238355D01*
X69354700Y-79066495D01*
X70182839Y-78238355D01*
X70108705Y-77992236D01*
X70101954Y-77989810D01*
X70167562Y-77962634D01*
X70571234Y-77558962D01*
X70593130Y-77506100D01*
X73192799Y-77506100D01*
X74050465Y-78363767D01*
X74040300Y-78388306D01*
X74040300Y-78939294D01*
X74251153Y-79448340D01*
X74640760Y-79837947D01*
X75149806Y-80048800D01*
X75700794Y-80048800D01*
X76209840Y-79837947D01*
X76433643Y-79614144D01*
X79218971Y-82399473D01*
X79261371Y-82462929D01*
X79512763Y-82630904D01*
X79713814Y-82670896D01*
X79900023Y-82949577D01*
X80374691Y-83266740D01*
X80793267Y-83350000D01*
X81075933Y-83350000D01*
X81494509Y-83266740D01*
X81969177Y-82949577D01*
X82286340Y-82474909D01*
X82397713Y-81915000D01*
X82340936Y-81629561D01*
X89659600Y-81629561D01*
X89659600Y-82200439D01*
X89878066Y-82727862D01*
X90281738Y-83131534D01*
X90809161Y-83350000D01*
X91380039Y-83350000D01*
X91907462Y-83131534D01*
X92311134Y-82727862D01*
X92529600Y-82200439D01*
X92529600Y-81629561D01*
X92311134Y-81102138D01*
X91907462Y-80698466D01*
X91380039Y-80480000D01*
X90809161Y-80480000D01*
X90281738Y-80698466D01*
X89878066Y-81102138D01*
X89659600Y-81629561D01*
X82340936Y-81629561D01*
X82286340Y-81355091D01*
X81969177Y-80880423D01*
X81494509Y-80563260D01*
X81075933Y-80480000D01*
X80793267Y-80480000D01*
X80374691Y-80563260D01*
X79900023Y-80880423D01*
X79879796Y-80910694D01*
X77148431Y-78179330D01*
X77106029Y-78115871D01*
X76854637Y-77947896D01*
X76632952Y-77903800D01*
X76632947Y-77903800D01*
X76607517Y-77898742D01*
X76599447Y-77879260D01*
X76209840Y-77489653D01*
X75700794Y-77278800D01*
X75149806Y-77278800D01*
X75125267Y-77288965D01*
X74097931Y-76261630D01*
X74055529Y-76198171D01*
X73804137Y-76030196D01*
X73582452Y-75986100D01*
X73582447Y-75986100D01*
X73507600Y-75971212D01*
X73432753Y-75986100D01*
X70593130Y-75986100D01*
X70571234Y-75933238D01*
X70167562Y-75529566D01*
X69640139Y-75311100D01*
X69069261Y-75311100D01*
X68541838Y-75529566D01*
X68138166Y-75933238D01*
X67919700Y-76460661D01*
X65480000Y-76460661D01*
X65480000Y-66953108D01*
X89998514Y-66953108D01*
X90119181Y-67183000D01*
X91313000Y-67183000D01*
X91313000Y-65989845D01*
X91567000Y-65989845D01*
X91567000Y-67183000D01*
X93853000Y-67183000D01*
X93853000Y-65989845D01*
X93623110Y-65868524D01*
X93213076Y-66038355D01*
X92784817Y-66428642D01*
X92710000Y-66587954D01*
X92635183Y-66428642D01*
X92206924Y-66038355D01*
X91796890Y-65868524D01*
X91567000Y-65989845D01*
X91313000Y-65989845D01*
X91083110Y-65868524D01*
X90673076Y-66038355D01*
X90244817Y-66428642D01*
X89998514Y-66953108D01*
X65480000Y-66953108D01*
X65480000Y-61255431D01*
X67540000Y-61255431D01*
X67540000Y-62144569D01*
X67880259Y-62966026D01*
X68508974Y-63594741D01*
X69330431Y-63935000D01*
X70219569Y-63935000D01*
X71041026Y-63594741D01*
X71669741Y-62966026D01*
X72010000Y-62144569D01*
X72010000Y-61255431D01*
X156590000Y-61255431D01*
X156590000Y-62144569D01*
X156930259Y-62966026D01*
X157558974Y-63594741D01*
X158380431Y-63935000D01*
X159269569Y-63935000D01*
X160091026Y-63594741D01*
X160719741Y-62966026D01*
X161060000Y-62144569D01*
X161060000Y-61255431D01*
X160719741Y-60433974D01*
X160091026Y-59805259D01*
X159269569Y-59465000D01*
X158380431Y-59465000D01*
X157558974Y-59805259D01*
X156930259Y-60433974D01*
X156590000Y-61255431D01*
X72010000Y-61255431D01*
X71669741Y-60433974D01*
X71041026Y-59805259D01*
X70219569Y-59465000D01*
X69330431Y-59465000D01*
X68508974Y-59805259D01*
X67880259Y-60433974D01*
X67540000Y-61255431D01*
X65480000Y-61255431D01*
X65480000Y-57877000D01*
X163120000Y-57877000D01*
X163120001Y-131370000D01*
G36*
X94662171Y-122908673D02*
X94704571Y-122972129D01*
X94955963Y-123140104D01*
X95177648Y-123184200D01*
X95177652Y-123184200D01*
X95252499Y-123199088D01*
X95327346Y-123184200D01*
X106652310Y-123184200D01*
X106598260Y-123265091D01*
X106486887Y-123825000D01*
X106598260Y-124384909D01*
X106915423Y-124859577D01*
X107390091Y-125176740D01*
X107808667Y-125260000D01*
X108091333Y-125260000D01*
X108349189Y-125208709D01*
X107518299Y-126039600D01*
X87500987Y-126039600D01*
X87884657Y-125788779D01*
X88344769Y-124672358D01*
X88343637Y-124035799D01*
X88669041Y-124361203D01*
X89784641Y-124823300D01*
X90992159Y-124823300D01*
X92107759Y-124361203D01*
X92961603Y-123507359D01*
X93423700Y-122391759D01*
X93423700Y-121670202D01*
X94662171Y-122908673D01*
X94662171Y-122908673D01*
G37*
X94662171Y-122908673D02*
X94704571Y-122972129D01*
X94955963Y-123140104D01*
X95177648Y-123184200D01*
X95177652Y-123184200D01*
X95252499Y-123199088D01*
X95327346Y-123184200D01*
X106652310Y-123184200D01*
X106598260Y-123265091D01*
X106486887Y-123825000D01*
X106598260Y-124384909D01*
X106915423Y-124859577D01*
X107390091Y-125176740D01*
X107808667Y-125260000D01*
X108091333Y-125260000D01*
X108349189Y-125208709D01*
X107518299Y-126039600D01*
X87500987Y-126039600D01*
X87884657Y-125788779D01*
X88344769Y-124672358D01*
X88343637Y-124035799D01*
X88669041Y-124361203D01*
X89784641Y-124823300D01*
X90992159Y-124823300D01*
X92107759Y-124361203D01*
X92961603Y-123507359D01*
X93423700Y-122391759D01*
X93423700Y-121670202D01*
X94662171Y-122908673D01*
G36*
X82260660Y-120378300D02*
X82309943Y-120626065D01*
X82450291Y-120836109D01*
X82660335Y-120976457D01*
X82908100Y-121025740D01*
X87418753Y-121025740D01*
X87353100Y-121184241D01*
X87353100Y-121849692D01*
X87292729Y-121910063D01*
X87023179Y-121497743D01*
X85906758Y-121037631D01*
X84699243Y-121039779D01*
X83593621Y-121497743D01*
X83324070Y-121910064D01*
X85308400Y-123894395D01*
X85322542Y-123880252D01*
X85502148Y-124059858D01*
X85488005Y-124074000D01*
X85502148Y-124088142D01*
X85322542Y-124267748D01*
X85308400Y-124253605D01*
X85294258Y-124267748D01*
X85114652Y-124088142D01*
X85128795Y-124074000D01*
X83144464Y-122089670D01*
X82732143Y-122359221D01*
X82272031Y-123475642D01*
X82272640Y-123818038D01*
X76784301Y-118329700D01*
X80381053Y-118329700D01*
X80455900Y-118344588D01*
X80530747Y-118329700D01*
X80530752Y-118329700D01*
X80752437Y-118285604D01*
X81003829Y-118117629D01*
X81046231Y-118054170D01*
X82260660Y-116839742D01*
X82260660Y-120378300D01*
X82260660Y-120378300D01*
G37*
X82260660Y-120378300D02*
X82309943Y-120626065D01*
X82450291Y-120836109D01*
X82660335Y-120976457D01*
X82908100Y-121025740D01*
X87418753Y-121025740D01*
X87353100Y-121184241D01*
X87353100Y-121849692D01*
X87292729Y-121910063D01*
X87023179Y-121497743D01*
X85906758Y-121037631D01*
X84699243Y-121039779D01*
X83593621Y-121497743D01*
X83324070Y-121910064D01*
X85308400Y-123894395D01*
X85322542Y-123880252D01*
X85502148Y-124059858D01*
X85488005Y-124074000D01*
X85502148Y-124088142D01*
X85322542Y-124267748D01*
X85308400Y-124253605D01*
X85294258Y-124267748D01*
X85114652Y-124088142D01*
X85128795Y-124074000D01*
X83144464Y-122089670D01*
X82732143Y-122359221D01*
X82272031Y-123475642D01*
X82272640Y-123818038D01*
X76784301Y-118329700D01*
X80381053Y-118329700D01*
X80455900Y-118344588D01*
X80530747Y-118329700D01*
X80530752Y-118329700D01*
X80752437Y-118285604D01*
X81003829Y-118117629D01*
X81046231Y-118054170D01*
X82260660Y-116839742D01*
X82260660Y-120378300D01*
G36*
X144362800Y-102104903D02*
X144362801Y-102669249D01*
X144347912Y-102744100D01*
X144406897Y-103040637D01*
X144528281Y-103222300D01*
X144574872Y-103292029D01*
X144638328Y-103334429D01*
X145691333Y-104387435D01*
X145529959Y-104565577D01*
X145369096Y-104953961D01*
X145491085Y-105176000D01*
X146634000Y-105176000D01*
X146634000Y-105156000D01*
X146888000Y-105156000D01*
X146888000Y-105176000D01*
X146908000Y-105176000D01*
X146908000Y-105430000D01*
X146888000Y-105430000D01*
X146888000Y-105450000D01*
X146634000Y-105450000D01*
X146634000Y-105430000D01*
X145491085Y-105430000D01*
X145369096Y-105652039D01*
X145529959Y-106040423D01*
X145905866Y-106455389D01*
X146110108Y-106552053D01*
X145726423Y-106808423D01*
X145409260Y-107283091D01*
X145297887Y-107843000D01*
X145409260Y-108402909D01*
X145633937Y-108739162D01*
X145151228Y-109221871D01*
X145087772Y-109264271D01*
X145045372Y-109327727D01*
X145045371Y-109327728D01*
X144919797Y-109515663D01*
X144860812Y-109812200D01*
X144875701Y-109887052D01*
X144875700Y-115921898D01*
X141257238Y-119540361D01*
X140894909Y-119298260D01*
X140868485Y-119293004D01*
X143764131Y-116397359D01*
X143842197Y-116345197D01*
X144048850Y-116035919D01*
X144103100Y-115763186D01*
X144121417Y-115671100D01*
X144103100Y-115579014D01*
X144103100Y-102163185D01*
X144121417Y-102071099D01*
X144069874Y-101811977D01*
X144362800Y-102104903D01*
X144362800Y-102104903D01*
G37*
X144362800Y-102104903D02*
X144362801Y-102669249D01*
X144347912Y-102744100D01*
X144406897Y-103040637D01*
X144528281Y-103222300D01*
X144574872Y-103292029D01*
X144638328Y-103334429D01*
X145691333Y-104387435D01*
X145529959Y-104565577D01*
X145369096Y-104953961D01*
X145491085Y-105176000D01*
X146634000Y-105176000D01*
X146634000Y-105156000D01*
X146888000Y-105156000D01*
X146888000Y-105176000D01*
X146908000Y-105176000D01*
X146908000Y-105430000D01*
X146888000Y-105430000D01*
X146888000Y-105450000D01*
X146634000Y-105450000D01*
X146634000Y-105430000D01*
X145491085Y-105430000D01*
X145369096Y-105652039D01*
X145529959Y-106040423D01*
X145905866Y-106455389D01*
X146110108Y-106552053D01*
X145726423Y-106808423D01*
X145409260Y-107283091D01*
X145297887Y-107843000D01*
X145409260Y-108402909D01*
X145633937Y-108739162D01*
X145151228Y-109221871D01*
X145087772Y-109264271D01*
X145045372Y-109327727D01*
X145045371Y-109327728D01*
X144919797Y-109515663D01*
X144860812Y-109812200D01*
X144875701Y-109887052D01*
X144875700Y-115921898D01*
X141257238Y-119540361D01*
X140894909Y-119298260D01*
X140868485Y-119293004D01*
X143764131Y-116397359D01*
X143842197Y-116345197D01*
X144048850Y-116035919D01*
X144103100Y-115763186D01*
X144121417Y-115671100D01*
X144103100Y-115579014D01*
X144103100Y-102163185D01*
X144121417Y-102071099D01*
X144069874Y-101811977D01*
X144362800Y-102104903D01*
G36*
X94035896Y-118217961D02*
X94157885Y-118440000D01*
X95300800Y-118440000D01*
X95300800Y-118420000D01*
X95554800Y-118420000D01*
X95554800Y-118440000D01*
X96697715Y-118440000D01*
X96819704Y-118217961D01*
X96701139Y-117931700D01*
X101746435Y-117931700D01*
X101696060Y-118007091D01*
X101584687Y-118567000D01*
X101696060Y-119126909D01*
X101706010Y-119141800D01*
X96726197Y-119141800D01*
X96819704Y-118916039D01*
X96697715Y-118694000D01*
X95554800Y-118694000D01*
X95554800Y-118714000D01*
X95300800Y-118714000D01*
X95300800Y-118694000D01*
X94157885Y-118694000D01*
X94056124Y-118879222D01*
X93108602Y-117931700D01*
X94154461Y-117931700D01*
X94035896Y-118217961D01*
X94035896Y-118217961D01*
G37*
X94035896Y-118217961D02*
X94157885Y-118440000D01*
X95300800Y-118440000D01*
X95300800Y-118420000D01*
X95554800Y-118420000D01*
X95554800Y-118440000D01*
X96697715Y-118440000D01*
X96819704Y-118217961D01*
X96701139Y-117931700D01*
X101746435Y-117931700D01*
X101696060Y-118007091D01*
X101584687Y-118567000D01*
X101696060Y-119126909D01*
X101706010Y-119141800D01*
X96726197Y-119141800D01*
X96819704Y-118916039D01*
X96697715Y-118694000D01*
X95554800Y-118694000D01*
X95554800Y-118714000D01*
X95300800Y-118714000D01*
X95300800Y-118694000D01*
X94157885Y-118694000D01*
X94056124Y-118879222D01*
X93108602Y-117931700D01*
X94154461Y-117931700D01*
X94035896Y-118217961D01*
G36*
X105075799Y-116411700D02*
X104424934Y-116411700D01*
X104439704Y-116376039D01*
X104317715Y-116154000D01*
X103174800Y-116154000D01*
X103174800Y-116174000D01*
X102920800Y-116174000D01*
X102920800Y-116154000D01*
X101777885Y-116154000D01*
X101655896Y-116376039D01*
X101670666Y-116411700D01*
X96814391Y-116411700D01*
X96890913Y-116027000D01*
X96779540Y-115467091D01*
X96731704Y-115395500D01*
X97034889Y-115395500D01*
X97152320Y-115512931D01*
X97532726Y-115670500D01*
X97944474Y-115670500D01*
X98324880Y-115512931D01*
X98442311Y-115395500D01*
X101772887Y-115395500D01*
X101655896Y-115677961D01*
X101777885Y-115900000D01*
X102920800Y-115900000D01*
X102920800Y-115880000D01*
X103174800Y-115880000D01*
X103174800Y-115900000D01*
X104317715Y-115900000D01*
X104439704Y-115677961D01*
X104322713Y-115395500D01*
X105779353Y-115395500D01*
X105854200Y-115410388D01*
X105929047Y-115395500D01*
X105929052Y-115395500D01*
X106132459Y-115355040D01*
X105075799Y-116411700D01*
X105075799Y-116411700D01*
G37*
X105075799Y-116411700D02*
X104424934Y-116411700D01*
X104439704Y-116376039D01*
X104317715Y-116154000D01*
X103174800Y-116154000D01*
X103174800Y-116174000D01*
X102920800Y-116174000D01*
X102920800Y-116154000D01*
X101777885Y-116154000D01*
X101655896Y-116376039D01*
X101670666Y-116411700D01*
X96814391Y-116411700D01*
X96890913Y-116027000D01*
X96779540Y-115467091D01*
X96731704Y-115395500D01*
X97034889Y-115395500D01*
X97152320Y-115512931D01*
X97532726Y-115670500D01*
X97944474Y-115670500D01*
X98324880Y-115512931D01*
X98442311Y-115395500D01*
X101772887Y-115395500D01*
X101655896Y-115677961D01*
X101777885Y-115900000D01*
X102920800Y-115900000D01*
X102920800Y-115880000D01*
X103174800Y-115880000D01*
X103174800Y-115900000D01*
X104317715Y-115900000D01*
X104439704Y-115677961D01*
X104322713Y-115395500D01*
X105779353Y-115395500D01*
X105854200Y-115410388D01*
X105929047Y-115395500D01*
X105929052Y-115395500D01*
X106132459Y-115355040D01*
X105075799Y-116411700D01*
G36*
X94035896Y-113137961D02*
X94157885Y-113360000D01*
X95300800Y-113360000D01*
X95300800Y-113340000D01*
X95554800Y-113340000D01*
X95554800Y-113360000D01*
X96697715Y-113360000D01*
X96819704Y-113137961D01*
X96795283Y-113079000D01*
X101665843Y-113079000D01*
X101584687Y-113487000D01*
X101661965Y-113875500D01*
X98442311Y-113875500D01*
X98324880Y-113758069D01*
X97944474Y-113600500D01*
X97532726Y-113600500D01*
X97152320Y-113758069D01*
X97034889Y-113875500D01*
X96803360Y-113875500D01*
X96819704Y-113836039D01*
X96697715Y-113614000D01*
X95554800Y-113614000D01*
X95554800Y-113634000D01*
X95300800Y-113634000D01*
X95300800Y-113614000D01*
X94157885Y-113614000D01*
X94035896Y-113836039D01*
X94052240Y-113875500D01*
X91962902Y-113875500D01*
X91166401Y-113079000D01*
X94060317Y-113079000D01*
X94035896Y-113137961D01*
X94035896Y-113137961D01*
G37*
X94035896Y-113137961D02*
X94157885Y-113360000D01*
X95300800Y-113360000D01*
X95300800Y-113340000D01*
X95554800Y-113340000D01*
X95554800Y-113360000D01*
X96697715Y-113360000D01*
X96819704Y-113137961D01*
X96795283Y-113079000D01*
X101665843Y-113079000D01*
X101584687Y-113487000D01*
X101661965Y-113875500D01*
X98442311Y-113875500D01*
X98324880Y-113758069D01*
X97944474Y-113600500D01*
X97532726Y-113600500D01*
X97152320Y-113758069D01*
X97034889Y-113875500D01*
X96803360Y-113875500D01*
X96819704Y-113836039D01*
X96697715Y-113614000D01*
X95554800Y-113614000D01*
X95554800Y-113634000D01*
X95300800Y-113634000D01*
X95300800Y-113614000D01*
X94157885Y-113614000D01*
X94035896Y-113836039D01*
X94052240Y-113875500D01*
X91962902Y-113875500D01*
X91166401Y-113079000D01*
X94060317Y-113079000D01*
X94035896Y-113137961D01*
G36*
X106915423Y-109619577D02*
X107267758Y-109855000D01*
X106915423Y-110090423D01*
X106729214Y-110369104D01*
X106528163Y-110409096D01*
X106276771Y-110577071D01*
X106234371Y-110640527D01*
X105315899Y-111559000D01*
X104330789Y-111559000D01*
X104439704Y-111296039D01*
X104317715Y-111074000D01*
X103174800Y-111074000D01*
X103174800Y-111094000D01*
X102920800Y-111094000D01*
X102920800Y-111074000D01*
X101777885Y-111074000D01*
X101655896Y-111296039D01*
X101764811Y-111559000D01*
X96744734Y-111559000D01*
X96779540Y-111506909D01*
X96890913Y-110947000D01*
X96796091Y-110470300D01*
X101708771Y-110470300D01*
X101655896Y-110597961D01*
X101777885Y-110820000D01*
X102920800Y-110820000D01*
X102920800Y-110800000D01*
X103174800Y-110800000D01*
X103174800Y-110820000D01*
X104317715Y-110820000D01*
X104439704Y-110597961D01*
X104386829Y-110470300D01*
X105624553Y-110470300D01*
X105699400Y-110485188D01*
X105774247Y-110470300D01*
X105774252Y-110470300D01*
X105995937Y-110426204D01*
X106247329Y-110258229D01*
X106289731Y-110194770D01*
X106895196Y-109589305D01*
X106915423Y-109619577D01*
X106915423Y-109619577D01*
G37*
X106915423Y-109619577D02*
X107267758Y-109855000D01*
X106915423Y-110090423D01*
X106729214Y-110369104D01*
X106528163Y-110409096D01*
X106276771Y-110577071D01*
X106234371Y-110640527D01*
X105315899Y-111559000D01*
X104330789Y-111559000D01*
X104439704Y-111296039D01*
X104317715Y-111074000D01*
X103174800Y-111074000D01*
X103174800Y-111094000D01*
X102920800Y-111094000D01*
X102920800Y-111074000D01*
X101777885Y-111074000D01*
X101655896Y-111296039D01*
X101764811Y-111559000D01*
X96744734Y-111559000D01*
X96779540Y-111506909D01*
X96890913Y-110947000D01*
X96796091Y-110470300D01*
X101708771Y-110470300D01*
X101655896Y-110597961D01*
X101777885Y-110820000D01*
X102920800Y-110820000D01*
X102920800Y-110800000D01*
X103174800Y-110800000D01*
X103174800Y-110820000D01*
X104317715Y-110820000D01*
X104439704Y-110597961D01*
X104386829Y-110470300D01*
X105624553Y-110470300D01*
X105699400Y-110485188D01*
X105774247Y-110470300D01*
X105774252Y-110470300D01*
X105995937Y-110426204D01*
X106247329Y-110258229D01*
X106289731Y-110194770D01*
X106895196Y-109589305D01*
X106915423Y-109619577D01*
G36*
X94393223Y-106901577D02*
X94745558Y-107137000D01*
X94393223Y-107372423D01*
X94076060Y-107847091D01*
X93964687Y-108407000D01*
X94076060Y-108966909D01*
X94230767Y-109198445D01*
X94212471Y-109225827D01*
X92890999Y-110547300D01*
X78710901Y-110547300D01*
X81473201Y-107785000D01*
X83007560Y-107785000D01*
X83007560Y-109385000D01*
X83056843Y-109632765D01*
X83197191Y-109842809D01*
X83407235Y-109983157D01*
X83655000Y-110032440D01*
X85255000Y-110032440D01*
X85502765Y-109983157D01*
X85712809Y-109842809D01*
X85853157Y-109632765D01*
X85861117Y-109592745D01*
X86126861Y-109592745D01*
X86200995Y-109838864D01*
X86738223Y-110031965D01*
X87308454Y-110004778D01*
X87709005Y-109838864D01*
X87783139Y-109592745D01*
X86955000Y-108764605D01*
X86126861Y-109592745D01*
X85861117Y-109592745D01*
X85899693Y-109398813D01*
X85947255Y-109413139D01*
X86775395Y-108585000D01*
X87134605Y-108585000D01*
X87962745Y-109413139D01*
X88208864Y-109339005D01*
X88401965Y-108801777D01*
X88374778Y-108231546D01*
X88208864Y-107830995D01*
X87962745Y-107756861D01*
X87134605Y-108585000D01*
X86775395Y-108585000D01*
X85947255Y-107756861D01*
X85899693Y-107771187D01*
X85861118Y-107577255D01*
X86126861Y-107577255D01*
X86955000Y-108405395D01*
X87783139Y-107577255D01*
X87709005Y-107331136D01*
X87171777Y-107138035D01*
X86601546Y-107165222D01*
X86200995Y-107331136D01*
X86126861Y-107577255D01*
X85861118Y-107577255D01*
X85853157Y-107537235D01*
X85712809Y-107327191D01*
X85502765Y-107186843D01*
X85255000Y-107137560D01*
X83655000Y-107137560D01*
X83407235Y-107186843D01*
X83197191Y-107327191D01*
X83056843Y-107537235D01*
X83007560Y-107785000D01*
X81473201Y-107785000D01*
X82631202Y-106627000D01*
X94209757Y-106627000D01*
X94393223Y-106901577D01*
X94393223Y-106901577D01*
G37*
X94393223Y-106901577D02*
X94745558Y-107137000D01*
X94393223Y-107372423D01*
X94076060Y-107847091D01*
X93964687Y-108407000D01*
X94076060Y-108966909D01*
X94230767Y-109198445D01*
X94212471Y-109225827D01*
X92890999Y-110547300D01*
X78710901Y-110547300D01*
X81473201Y-107785000D01*
X83007560Y-107785000D01*
X83007560Y-109385000D01*
X83056843Y-109632765D01*
X83197191Y-109842809D01*
X83407235Y-109983157D01*
X83655000Y-110032440D01*
X85255000Y-110032440D01*
X85502765Y-109983157D01*
X85712809Y-109842809D01*
X85853157Y-109632765D01*
X85861117Y-109592745D01*
X86126861Y-109592745D01*
X86200995Y-109838864D01*
X86738223Y-110031965D01*
X87308454Y-110004778D01*
X87709005Y-109838864D01*
X87783139Y-109592745D01*
X86955000Y-108764605D01*
X86126861Y-109592745D01*
X85861117Y-109592745D01*
X85899693Y-109398813D01*
X85947255Y-109413139D01*
X86775395Y-108585000D01*
X87134605Y-108585000D01*
X87962745Y-109413139D01*
X88208864Y-109339005D01*
X88401965Y-108801777D01*
X88374778Y-108231546D01*
X88208864Y-107830995D01*
X87962745Y-107756861D01*
X87134605Y-108585000D01*
X86775395Y-108585000D01*
X85947255Y-107756861D01*
X85899693Y-107771187D01*
X85861118Y-107577255D01*
X86126861Y-107577255D01*
X86955000Y-108405395D01*
X87783139Y-107577255D01*
X87709005Y-107331136D01*
X87171777Y-107138035D01*
X86601546Y-107165222D01*
X86200995Y-107331136D01*
X86126861Y-107577255D01*
X85861118Y-107577255D01*
X85853157Y-107537235D01*
X85712809Y-107327191D01*
X85502765Y-107186843D01*
X85255000Y-107137560D01*
X83655000Y-107137560D01*
X83407235Y-107186843D01*
X83197191Y-107327191D01*
X83056843Y-107537235D01*
X83007560Y-107785000D01*
X81473201Y-107785000D01*
X82631202Y-106627000D01*
X94209757Y-106627000D01*
X94393223Y-106901577D01*
G36*
X101655896Y-105517961D02*
X101777885Y-105740000D01*
X102920800Y-105740000D01*
X102920800Y-105720000D01*
X103174800Y-105720000D01*
X103174800Y-105740000D01*
X104317715Y-105740000D01*
X104439704Y-105517961D01*
X104430525Y-105495800D01*
X105200699Y-105495800D01*
X106226497Y-106521600D01*
X104313145Y-106521600D01*
X104439704Y-106216039D01*
X104317715Y-105994000D01*
X103174800Y-105994000D01*
X103174800Y-106014000D01*
X102920800Y-106014000D01*
X102920800Y-105994000D01*
X101777885Y-105994000D01*
X101655896Y-106216039D01*
X101782455Y-106521600D01*
X98282502Y-106521600D01*
X97256701Y-105495800D01*
X101665075Y-105495800D01*
X101655896Y-105517961D01*
X101655896Y-105517961D01*
G37*
X101655896Y-105517961D02*
X101777885Y-105740000D01*
X102920800Y-105740000D01*
X102920800Y-105720000D01*
X103174800Y-105720000D01*
X103174800Y-105740000D01*
X104317715Y-105740000D01*
X104439704Y-105517961D01*
X104430525Y-105495800D01*
X105200699Y-105495800D01*
X106226497Y-106521600D01*
X104313145Y-106521600D01*
X104439704Y-106216039D01*
X104317715Y-105994000D01*
X103174800Y-105994000D01*
X103174800Y-106014000D01*
X102920800Y-106014000D01*
X102920800Y-105994000D01*
X101777885Y-105994000D01*
X101655896Y-106216039D01*
X101782455Y-106521600D01*
X98282502Y-106521600D01*
X97256701Y-105495800D01*
X101665075Y-105495800D01*
X101655896Y-105517961D01*
G36*
X132242887Y-89865200D02*
X132354260Y-90425109D01*
X132671423Y-90899777D01*
X133055108Y-91156147D01*
X132850866Y-91252811D01*
X132474959Y-91667777D01*
X132314096Y-92056161D01*
X132436085Y-92278200D01*
X133579000Y-92278200D01*
X133579000Y-92258200D01*
X133833000Y-92258200D01*
X133833000Y-92278200D01*
X134975915Y-92278200D01*
X135097904Y-92056161D01*
X134937041Y-91667777D01*
X134561134Y-91252811D01*
X134356892Y-91156147D01*
X134740577Y-90899777D01*
X135057740Y-90425109D01*
X135169113Y-89865200D01*
X135073655Y-89385300D01*
X138015398Y-89385300D01*
X136413299Y-90987400D01*
X136247226Y-90987400D01*
X135866820Y-91144969D01*
X135575669Y-91436120D01*
X135418100Y-91816526D01*
X135418100Y-92228274D01*
X135575669Y-92608680D01*
X135866820Y-92899831D01*
X136247226Y-93057400D01*
X136658974Y-93057400D01*
X137039380Y-92899831D01*
X137330531Y-92608680D01*
X137488100Y-92228274D01*
X137488100Y-92062201D01*
X139907032Y-89643270D01*
X139862887Y-89865200D01*
X139974260Y-90425109D01*
X140198977Y-90761422D01*
X139714830Y-91245569D01*
X139651371Y-91287971D01*
X139483396Y-91539364D01*
X139439300Y-91761049D01*
X139439300Y-91761053D01*
X139424412Y-91835900D01*
X139439300Y-91910747D01*
X139439301Y-93043649D01*
X139424412Y-93118500D01*
X139483397Y-93415037D01*
X139580860Y-93560900D01*
X139651372Y-93666429D01*
X139714828Y-93708829D01*
X140082000Y-94076002D01*
X140082001Y-95717343D01*
X139702777Y-95581035D01*
X139132546Y-95608222D01*
X138731995Y-95774136D01*
X138657861Y-96020255D01*
X139486000Y-96848395D01*
X139500143Y-96834253D01*
X139679748Y-97013858D01*
X139665605Y-97028000D01*
X139679748Y-97042142D01*
X139500142Y-97221748D01*
X139486000Y-97207605D01*
X138657861Y-98035745D01*
X138731995Y-98281864D01*
X139269223Y-98474965D01*
X139839454Y-98447778D01*
X140240005Y-98281864D01*
X140305390Y-98064791D01*
X140357528Y-98099629D01*
X141161926Y-98904028D01*
X140854091Y-98965260D01*
X140379423Y-99282423D01*
X140062260Y-99757091D01*
X139950887Y-100317000D01*
X140023550Y-100682300D01*
X136359402Y-100682300D01*
X135509631Y-99832530D01*
X135467229Y-99769071D01*
X135241440Y-99618203D01*
X135241440Y-99517000D01*
X135192157Y-99269235D01*
X135051809Y-99059191D01*
X134841765Y-98918843D01*
X134594000Y-98869560D01*
X132994000Y-98869560D01*
X132746235Y-98918843D01*
X132536191Y-99059191D01*
X132395843Y-99269235D01*
X132346560Y-99517000D01*
X132346560Y-101117000D01*
X132395843Y-101364765D01*
X132536191Y-101574809D01*
X132746235Y-101715157D01*
X132880106Y-101741785D01*
X132759423Y-101822423D01*
X132573214Y-102101104D01*
X132372163Y-102141096D01*
X132120771Y-102309071D01*
X132078371Y-102372527D01*
X131233830Y-103217069D01*
X131170371Y-103259471D01*
X131143625Y-103299500D01*
X129276711Y-103299500D01*
X129387904Y-103031039D01*
X129265915Y-102809000D01*
X128123000Y-102809000D01*
X128123000Y-102829000D01*
X127869000Y-102829000D01*
X127869000Y-102809000D01*
X126726085Y-102809000D01*
X126604096Y-103031039D01*
X126715289Y-103299500D01*
X124867048Y-103299500D01*
X124792200Y-103284612D01*
X124773808Y-103288270D01*
X124745874Y-103276700D01*
X124334126Y-103276700D01*
X123953720Y-103434269D01*
X123662569Y-103725420D01*
X123505000Y-104105826D01*
X123505000Y-104462000D01*
X123252681Y-104462000D01*
X123285864Y-104452005D01*
X123478965Y-103914777D01*
X123451778Y-103344546D01*
X123285864Y-102943995D01*
X123039745Y-102869861D01*
X122211605Y-103698000D01*
X122225748Y-103712142D01*
X122046142Y-103891748D01*
X122032000Y-103877605D01*
X122017858Y-103891748D01*
X121838253Y-103712143D01*
X121852395Y-103698000D01*
X121838253Y-103683858D01*
X122017858Y-103504252D01*
X122032000Y-103518395D01*
X122860139Y-102690255D01*
X122786005Y-102444136D01*
X122248777Y-102251035D01*
X121678546Y-102278222D01*
X121277995Y-102444136D01*
X121205249Y-102685646D01*
X120584303Y-102064700D01*
X126715206Y-102064700D01*
X126604096Y-102332961D01*
X126726085Y-102555000D01*
X127869000Y-102555000D01*
X127869000Y-102535000D01*
X128123000Y-102535000D01*
X128123000Y-102555000D01*
X129265915Y-102555000D01*
X129387904Y-102332961D01*
X129344922Y-102229186D01*
X129611726Y-102339700D01*
X130023474Y-102339700D01*
X130403880Y-102182131D01*
X130695031Y-101890980D01*
X130852600Y-101510574D01*
X130852600Y-101098826D01*
X130695031Y-100718420D01*
X130403880Y-100427269D01*
X130023474Y-100269700D01*
X129611726Y-100269700D01*
X129417728Y-100350056D01*
X129459113Y-100142000D01*
X129347740Y-99582091D01*
X129030577Y-99107423D01*
X128678242Y-98872000D01*
X129030577Y-98636577D01*
X129347740Y-98161909D01*
X129459113Y-97602000D01*
X129347740Y-97042091D01*
X129193479Y-96811223D01*
X138039035Y-96811223D01*
X138066222Y-97381454D01*
X138232136Y-97782005D01*
X138478255Y-97856139D01*
X139306395Y-97028000D01*
X138478255Y-96199861D01*
X138232136Y-96273995D01*
X138039035Y-96811223D01*
X129193479Y-96811223D01*
X129030577Y-96567423D01*
X128678242Y-96332000D01*
X129030577Y-96096577D01*
X129347740Y-95621909D01*
X129459113Y-95062000D01*
X129347740Y-94502091D01*
X129030577Y-94027423D01*
X128678242Y-93792000D01*
X129030577Y-93556577D01*
X129347740Y-93081909D01*
X129412917Y-92754239D01*
X132314096Y-92754239D01*
X132474959Y-93142623D01*
X132850866Y-93557589D01*
X133356959Y-93797114D01*
X133579000Y-93675829D01*
X133579000Y-92532200D01*
X133833000Y-92532200D01*
X133833000Y-93675829D01*
X134055041Y-93797114D01*
X134561134Y-93557589D01*
X134937041Y-93142623D01*
X135097904Y-92754239D01*
X134975915Y-92532200D01*
X133833000Y-92532200D01*
X133579000Y-92532200D01*
X132436085Y-92532200D01*
X132314096Y-92754239D01*
X129412917Y-92754239D01*
X129459113Y-92522000D01*
X129347740Y-91962091D01*
X129030577Y-91487423D01*
X128678242Y-91252000D01*
X129030577Y-91016577D01*
X129347740Y-90541909D01*
X129459113Y-89982000D01*
X129347740Y-89422091D01*
X129323157Y-89385300D01*
X132338345Y-89385300D01*
X132242887Y-89865200D01*
X132242887Y-89865200D01*
G37*
X132242887Y-89865200D02*
X132354260Y-90425109D01*
X132671423Y-90899777D01*
X133055108Y-91156147D01*
X132850866Y-91252811D01*
X132474959Y-91667777D01*
X132314096Y-92056161D01*
X132436085Y-92278200D01*
X133579000Y-92278200D01*
X133579000Y-92258200D01*
X133833000Y-92258200D01*
X133833000Y-92278200D01*
X134975915Y-92278200D01*
X135097904Y-92056161D01*
X134937041Y-91667777D01*
X134561134Y-91252811D01*
X134356892Y-91156147D01*
X134740577Y-90899777D01*
X135057740Y-90425109D01*
X135169113Y-89865200D01*
X135073655Y-89385300D01*
X138015398Y-89385300D01*
X136413299Y-90987400D01*
X136247226Y-90987400D01*
X135866820Y-91144969D01*
X135575669Y-91436120D01*
X135418100Y-91816526D01*
X135418100Y-92228274D01*
X135575669Y-92608680D01*
X135866820Y-92899831D01*
X136247226Y-93057400D01*
X136658974Y-93057400D01*
X137039380Y-92899831D01*
X137330531Y-92608680D01*
X137488100Y-92228274D01*
X137488100Y-92062201D01*
X139907032Y-89643270D01*
X139862887Y-89865200D01*
X139974260Y-90425109D01*
X140198977Y-90761422D01*
X139714830Y-91245569D01*
X139651371Y-91287971D01*
X139483396Y-91539364D01*
X139439300Y-91761049D01*
X139439300Y-91761053D01*
X139424412Y-91835900D01*
X139439300Y-91910747D01*
X139439301Y-93043649D01*
X139424412Y-93118500D01*
X139483397Y-93415037D01*
X139580860Y-93560900D01*
X139651372Y-93666429D01*
X139714828Y-93708829D01*
X140082000Y-94076002D01*
X140082001Y-95717343D01*
X139702777Y-95581035D01*
X139132546Y-95608222D01*
X138731995Y-95774136D01*
X138657861Y-96020255D01*
X139486000Y-96848395D01*
X139500143Y-96834253D01*
X139679748Y-97013858D01*
X139665605Y-97028000D01*
X139679748Y-97042142D01*
X139500142Y-97221748D01*
X139486000Y-97207605D01*
X138657861Y-98035745D01*
X138731995Y-98281864D01*
X139269223Y-98474965D01*
X139839454Y-98447778D01*
X140240005Y-98281864D01*
X140305390Y-98064791D01*
X140357528Y-98099629D01*
X141161926Y-98904028D01*
X140854091Y-98965260D01*
X140379423Y-99282423D01*
X140062260Y-99757091D01*
X139950887Y-100317000D01*
X140023550Y-100682300D01*
X136359402Y-100682300D01*
X135509631Y-99832530D01*
X135467229Y-99769071D01*
X135241440Y-99618203D01*
X135241440Y-99517000D01*
X135192157Y-99269235D01*
X135051809Y-99059191D01*
X134841765Y-98918843D01*
X134594000Y-98869560D01*
X132994000Y-98869560D01*
X132746235Y-98918843D01*
X132536191Y-99059191D01*
X132395843Y-99269235D01*
X132346560Y-99517000D01*
X132346560Y-101117000D01*
X132395843Y-101364765D01*
X132536191Y-101574809D01*
X132746235Y-101715157D01*
X132880106Y-101741785D01*
X132759423Y-101822423D01*
X132573214Y-102101104D01*
X132372163Y-102141096D01*
X132120771Y-102309071D01*
X132078371Y-102372527D01*
X131233830Y-103217069D01*
X131170371Y-103259471D01*
X131143625Y-103299500D01*
X129276711Y-103299500D01*
X129387904Y-103031039D01*
X129265915Y-102809000D01*
X128123000Y-102809000D01*
X128123000Y-102829000D01*
X127869000Y-102829000D01*
X127869000Y-102809000D01*
X126726085Y-102809000D01*
X126604096Y-103031039D01*
X126715289Y-103299500D01*
X124867048Y-103299500D01*
X124792200Y-103284612D01*
X124773808Y-103288270D01*
X124745874Y-103276700D01*
X124334126Y-103276700D01*
X123953720Y-103434269D01*
X123662569Y-103725420D01*
X123505000Y-104105826D01*
X123505000Y-104462000D01*
X123252681Y-104462000D01*
X123285864Y-104452005D01*
X123478965Y-103914777D01*
X123451778Y-103344546D01*
X123285864Y-102943995D01*
X123039745Y-102869861D01*
X122211605Y-103698000D01*
X122225748Y-103712142D01*
X122046142Y-103891748D01*
X122032000Y-103877605D01*
X122017858Y-103891748D01*
X121838253Y-103712143D01*
X121852395Y-103698000D01*
X121838253Y-103683858D01*
X122017858Y-103504252D01*
X122032000Y-103518395D01*
X122860139Y-102690255D01*
X122786005Y-102444136D01*
X122248777Y-102251035D01*
X121678546Y-102278222D01*
X121277995Y-102444136D01*
X121205249Y-102685646D01*
X120584303Y-102064700D01*
X126715206Y-102064700D01*
X126604096Y-102332961D01*
X126726085Y-102555000D01*
X127869000Y-102555000D01*
X127869000Y-102535000D01*
X128123000Y-102535000D01*
X128123000Y-102555000D01*
X129265915Y-102555000D01*
X129387904Y-102332961D01*
X129344922Y-102229186D01*
X129611726Y-102339700D01*
X130023474Y-102339700D01*
X130403880Y-102182131D01*
X130695031Y-101890980D01*
X130852600Y-101510574D01*
X130852600Y-101098826D01*
X130695031Y-100718420D01*
X130403880Y-100427269D01*
X130023474Y-100269700D01*
X129611726Y-100269700D01*
X129417728Y-100350056D01*
X129459113Y-100142000D01*
X129347740Y-99582091D01*
X129030577Y-99107423D01*
X128678242Y-98872000D01*
X129030577Y-98636577D01*
X129347740Y-98161909D01*
X129459113Y-97602000D01*
X129347740Y-97042091D01*
X129193479Y-96811223D01*
X138039035Y-96811223D01*
X138066222Y-97381454D01*
X138232136Y-97782005D01*
X138478255Y-97856139D01*
X139306395Y-97028000D01*
X138478255Y-96199861D01*
X138232136Y-96273995D01*
X138039035Y-96811223D01*
X129193479Y-96811223D01*
X129030577Y-96567423D01*
X128678242Y-96332000D01*
X129030577Y-96096577D01*
X129347740Y-95621909D01*
X129459113Y-95062000D01*
X129347740Y-94502091D01*
X129030577Y-94027423D01*
X128678242Y-93792000D01*
X129030577Y-93556577D01*
X129347740Y-93081909D01*
X129412917Y-92754239D01*
X132314096Y-92754239D01*
X132474959Y-93142623D01*
X132850866Y-93557589D01*
X133356959Y-93797114D01*
X133579000Y-93675829D01*
X133579000Y-92532200D01*
X133833000Y-92532200D01*
X133833000Y-93675829D01*
X134055041Y-93797114D01*
X134561134Y-93557589D01*
X134937041Y-93142623D01*
X135097904Y-92754239D01*
X134975915Y-92532200D01*
X133833000Y-92532200D01*
X133579000Y-92532200D01*
X132436085Y-92532200D01*
X132314096Y-92754239D01*
X129412917Y-92754239D01*
X129459113Y-92522000D01*
X129347740Y-91962091D01*
X129030577Y-91487423D01*
X128678242Y-91252000D01*
X129030577Y-91016577D01*
X129347740Y-90541909D01*
X129459113Y-89982000D01*
X129347740Y-89422091D01*
X129323157Y-89385300D01*
X132338345Y-89385300D01*
X132242887Y-89865200D01*
G36*
X102175058Y-89750900D02*
X101822723Y-89986323D01*
X101505560Y-90460991D01*
X101394187Y-91020900D01*
X101505560Y-91580809D01*
X101822723Y-92055477D01*
X102175058Y-92290900D01*
X101822723Y-92526323D01*
X101505560Y-93000991D01*
X101394187Y-93560900D01*
X101505560Y-94120809D01*
X101822723Y-94595477D01*
X102175058Y-94830900D01*
X101822723Y-95066323D01*
X101505560Y-95540991D01*
X101394187Y-96100900D01*
X101505560Y-96660809D01*
X101822723Y-97135477D01*
X102297391Y-97452640D01*
X102715967Y-97535900D01*
X102998633Y-97535900D01*
X103417209Y-97452640D01*
X103891877Y-97135477D01*
X104078086Y-96856796D01*
X104279137Y-96816804D01*
X104530529Y-96648829D01*
X104572931Y-96585370D01*
X105041802Y-96116500D01*
X106567148Y-96116500D01*
X106486887Y-96520000D01*
X106598260Y-97079909D01*
X106915423Y-97554577D01*
X107267758Y-97790000D01*
X106915423Y-98025423D01*
X106598260Y-98500091D01*
X106486887Y-99060000D01*
X106598260Y-99619909D01*
X106915423Y-100094577D01*
X107390091Y-100411740D01*
X107808667Y-100495000D01*
X108091333Y-100495000D01*
X108509909Y-100411740D01*
X108688468Y-100292431D01*
X107595699Y-101385200D01*
X100760012Y-101385200D01*
X101104454Y-101368778D01*
X101505005Y-101202864D01*
X101579139Y-100956745D01*
X100751000Y-100128605D01*
X99922861Y-100956745D01*
X99996995Y-101202864D01*
X100504274Y-101385200D01*
X86784552Y-101385200D01*
X86923157Y-101177765D01*
X86972440Y-100930000D01*
X86972440Y-99732223D01*
X99304035Y-99732223D01*
X99331222Y-100302454D01*
X99497136Y-100703005D01*
X99743255Y-100777139D01*
X100571395Y-99949000D01*
X100930605Y-99949000D01*
X101758745Y-100777139D01*
X102004864Y-100703005D01*
X102007290Y-100696254D01*
X102034466Y-100761862D01*
X102438138Y-101165534D01*
X102965561Y-101384000D01*
X103536439Y-101384000D01*
X104063862Y-101165534D01*
X104467534Y-100761862D01*
X104686000Y-100234439D01*
X104686000Y-99663561D01*
X104467534Y-99136138D01*
X104063862Y-98732466D01*
X103536439Y-98514000D01*
X102965561Y-98514000D01*
X102438138Y-98732466D01*
X102034466Y-99136138D01*
X102007475Y-99201299D01*
X102004864Y-99194995D01*
X101758745Y-99120861D01*
X100930605Y-99949000D01*
X100571395Y-99949000D01*
X99743255Y-99120861D01*
X99497136Y-99194995D01*
X99304035Y-99732223D01*
X86972440Y-99732223D01*
X86972440Y-99730000D01*
X86923157Y-99482235D01*
X86782809Y-99272191D01*
X86649282Y-99182970D01*
X86703430Y-99128822D01*
X86587737Y-99013129D01*
X86813164Y-98963617D01*
X86820847Y-98941255D01*
X99922861Y-98941255D01*
X100751000Y-99769395D01*
X101579139Y-98941255D01*
X101505005Y-98695136D01*
X100967777Y-98502035D01*
X100397546Y-98529222D01*
X99996995Y-98695136D01*
X99922861Y-98941255D01*
X86820847Y-98941255D01*
X86972807Y-98498964D01*
X86942482Y-98008587D01*
X86813164Y-97696383D01*
X86671645Y-97665300D01*
X90571753Y-97665300D01*
X90646600Y-97680188D01*
X90721447Y-97665300D01*
X90721452Y-97665300D01*
X90943137Y-97621204D01*
X91194529Y-97453229D01*
X91236931Y-97389770D01*
X92176762Y-96449939D01*
X93845396Y-96449939D01*
X94006259Y-96838323D01*
X94382166Y-97253289D01*
X94888259Y-97492814D01*
X95110300Y-97371529D01*
X95110300Y-96227900D01*
X95364300Y-96227900D01*
X95364300Y-97371529D01*
X95586341Y-97492814D01*
X96092434Y-97253289D01*
X96468341Y-96838323D01*
X96629204Y-96449939D01*
X96507215Y-96227900D01*
X95364300Y-96227900D01*
X95110300Y-96227900D01*
X93967385Y-96227900D01*
X93845396Y-96449939D01*
X92176762Y-96449939D01*
X93180402Y-95446300D01*
X93971955Y-95446300D01*
X93845396Y-95751861D01*
X93967385Y-95973900D01*
X95110300Y-95973900D01*
X95110300Y-95953900D01*
X95364300Y-95953900D01*
X95364300Y-95973900D01*
X96507215Y-95973900D01*
X96629204Y-95751861D01*
X96468341Y-95363477D01*
X96352982Y-95236131D01*
X96355829Y-95234229D01*
X96398231Y-95170770D01*
X101961079Y-89607923D01*
X102175058Y-89750900D01*
X102175058Y-89750900D01*
G37*
X102175058Y-89750900D02*
X101822723Y-89986323D01*
X101505560Y-90460991D01*
X101394187Y-91020900D01*
X101505560Y-91580809D01*
X101822723Y-92055477D01*
X102175058Y-92290900D01*
X101822723Y-92526323D01*
X101505560Y-93000991D01*
X101394187Y-93560900D01*
X101505560Y-94120809D01*
X101822723Y-94595477D01*
X102175058Y-94830900D01*
X101822723Y-95066323D01*
X101505560Y-95540991D01*
X101394187Y-96100900D01*
X101505560Y-96660809D01*
X101822723Y-97135477D01*
X102297391Y-97452640D01*
X102715967Y-97535900D01*
X102998633Y-97535900D01*
X103417209Y-97452640D01*
X103891877Y-97135477D01*
X104078086Y-96856796D01*
X104279137Y-96816804D01*
X104530529Y-96648829D01*
X104572931Y-96585370D01*
X105041802Y-96116500D01*
X106567148Y-96116500D01*
X106486887Y-96520000D01*
X106598260Y-97079909D01*
X106915423Y-97554577D01*
X107267758Y-97790000D01*
X106915423Y-98025423D01*
X106598260Y-98500091D01*
X106486887Y-99060000D01*
X106598260Y-99619909D01*
X106915423Y-100094577D01*
X107390091Y-100411740D01*
X107808667Y-100495000D01*
X108091333Y-100495000D01*
X108509909Y-100411740D01*
X108688468Y-100292431D01*
X107595699Y-101385200D01*
X100760012Y-101385200D01*
X101104454Y-101368778D01*
X101505005Y-101202864D01*
X101579139Y-100956745D01*
X100751000Y-100128605D01*
X99922861Y-100956745D01*
X99996995Y-101202864D01*
X100504274Y-101385200D01*
X86784552Y-101385200D01*
X86923157Y-101177765D01*
X86972440Y-100930000D01*
X86972440Y-99732223D01*
X99304035Y-99732223D01*
X99331222Y-100302454D01*
X99497136Y-100703005D01*
X99743255Y-100777139D01*
X100571395Y-99949000D01*
X100930605Y-99949000D01*
X101758745Y-100777139D01*
X102004864Y-100703005D01*
X102007290Y-100696254D01*
X102034466Y-100761862D01*
X102438138Y-101165534D01*
X102965561Y-101384000D01*
X103536439Y-101384000D01*
X104063862Y-101165534D01*
X104467534Y-100761862D01*
X104686000Y-100234439D01*
X104686000Y-99663561D01*
X104467534Y-99136138D01*
X104063862Y-98732466D01*
X103536439Y-98514000D01*
X102965561Y-98514000D01*
X102438138Y-98732466D01*
X102034466Y-99136138D01*
X102007475Y-99201299D01*
X102004864Y-99194995D01*
X101758745Y-99120861D01*
X100930605Y-99949000D01*
X100571395Y-99949000D01*
X99743255Y-99120861D01*
X99497136Y-99194995D01*
X99304035Y-99732223D01*
X86972440Y-99732223D01*
X86972440Y-99730000D01*
X86923157Y-99482235D01*
X86782809Y-99272191D01*
X86649282Y-99182970D01*
X86703430Y-99128822D01*
X86587737Y-99013129D01*
X86813164Y-98963617D01*
X86820847Y-98941255D01*
X99922861Y-98941255D01*
X100751000Y-99769395D01*
X101579139Y-98941255D01*
X101505005Y-98695136D01*
X100967777Y-98502035D01*
X100397546Y-98529222D01*
X99996995Y-98695136D01*
X99922861Y-98941255D01*
X86820847Y-98941255D01*
X86972807Y-98498964D01*
X86942482Y-98008587D01*
X86813164Y-97696383D01*
X86671645Y-97665300D01*
X90571753Y-97665300D01*
X90646600Y-97680188D01*
X90721447Y-97665300D01*
X90721452Y-97665300D01*
X90943137Y-97621204D01*
X91194529Y-97453229D01*
X91236931Y-97389770D01*
X92176762Y-96449939D01*
X93845396Y-96449939D01*
X94006259Y-96838323D01*
X94382166Y-97253289D01*
X94888259Y-97492814D01*
X95110300Y-97371529D01*
X95110300Y-96227900D01*
X95364300Y-96227900D01*
X95364300Y-97371529D01*
X95586341Y-97492814D01*
X96092434Y-97253289D01*
X96468341Y-96838323D01*
X96629204Y-96449939D01*
X96507215Y-96227900D01*
X95364300Y-96227900D01*
X95110300Y-96227900D01*
X93967385Y-96227900D01*
X93845396Y-96449939D01*
X92176762Y-96449939D01*
X93180402Y-95446300D01*
X93971955Y-95446300D01*
X93845396Y-95751861D01*
X93967385Y-95973900D01*
X95110300Y-95973900D01*
X95110300Y-95953900D01*
X95364300Y-95953900D01*
X95364300Y-95973900D01*
X96507215Y-95973900D01*
X96629204Y-95751861D01*
X96468341Y-95363477D01*
X96352982Y-95236131D01*
X96355829Y-95234229D01*
X96398231Y-95170770D01*
X101961079Y-89607923D01*
X102175058Y-89750900D01*
G36*
X126644260Y-89422091D02*
X126532887Y-89982000D01*
X126644260Y-90541909D01*
X126961423Y-91016577D01*
X127313758Y-91252000D01*
X126961423Y-91487423D01*
X126644260Y-91962091D01*
X126532887Y-92522000D01*
X126644260Y-93081909D01*
X126961423Y-93556577D01*
X127313758Y-93792000D01*
X126961423Y-94027423D01*
X126644260Y-94502091D01*
X126532887Y-95062000D01*
X126644260Y-95621909D01*
X126961423Y-96096577D01*
X127313758Y-96332000D01*
X126961423Y-96567423D01*
X126644260Y-97042091D01*
X126532887Y-97602000D01*
X126644260Y-98161909D01*
X126961423Y-98636577D01*
X127313758Y-98872000D01*
X126961423Y-99107423D01*
X126644260Y-99582091D01*
X126532887Y-100142000D01*
X126612989Y-100544700D01*
X120503302Y-100544700D01*
X115693931Y-95735330D01*
X115651529Y-95671871D01*
X115400137Y-95503896D01*
X115178452Y-95459800D01*
X115178447Y-95459800D01*
X115103600Y-95444912D01*
X115028753Y-95459800D01*
X114139986Y-95459800D01*
X114219113Y-95062000D01*
X114107740Y-94502091D01*
X113854264Y-94122737D01*
X117510773Y-90466229D01*
X117574229Y-90423829D01*
X117653631Y-90304996D01*
X117742204Y-90172438D01*
X117759531Y-90085329D01*
X117786300Y-89950752D01*
X117786300Y-89950748D01*
X117801188Y-89875900D01*
X117786300Y-89801052D01*
X117786300Y-89385300D01*
X126668843Y-89385300D01*
X126644260Y-89422091D01*
X126644260Y-89422091D01*
G37*
X126644260Y-89422091D02*
X126532887Y-89982000D01*
X126644260Y-90541909D01*
X126961423Y-91016577D01*
X127313758Y-91252000D01*
X126961423Y-91487423D01*
X126644260Y-91962091D01*
X126532887Y-92522000D01*
X126644260Y-93081909D01*
X126961423Y-93556577D01*
X127313758Y-93792000D01*
X126961423Y-94027423D01*
X126644260Y-94502091D01*
X126532887Y-95062000D01*
X126644260Y-95621909D01*
X126961423Y-96096577D01*
X127313758Y-96332000D01*
X126961423Y-96567423D01*
X126644260Y-97042091D01*
X126532887Y-97602000D01*
X126644260Y-98161909D01*
X126961423Y-98636577D01*
X127313758Y-98872000D01*
X126961423Y-99107423D01*
X126644260Y-99582091D01*
X126532887Y-100142000D01*
X126612989Y-100544700D01*
X120503302Y-100544700D01*
X115693931Y-95735330D01*
X115651529Y-95671871D01*
X115400137Y-95503896D01*
X115178452Y-95459800D01*
X115178447Y-95459800D01*
X115103600Y-95444912D01*
X115028753Y-95459800D01*
X114139986Y-95459800D01*
X114219113Y-95062000D01*
X114107740Y-94502091D01*
X113854264Y-94122737D01*
X117510773Y-90466229D01*
X117574229Y-90423829D01*
X117653631Y-90304996D01*
X117742204Y-90172438D01*
X117759531Y-90085329D01*
X117786300Y-89950752D01*
X117786300Y-89950748D01*
X117801188Y-89875900D01*
X117786300Y-89801052D01*
X117786300Y-89385300D01*
X126668843Y-89385300D01*
X126644260Y-89422091D01*
G36*
X85918748Y-98315858D02*
X85904605Y-98330000D01*
X85918748Y-98344143D01*
X85739143Y-98523748D01*
X85725000Y-98509605D01*
X85710858Y-98523748D01*
X85531253Y-98344143D01*
X85545395Y-98330000D01*
X85531253Y-98315858D01*
X85710858Y-98136253D01*
X85725000Y-98150395D01*
X85739143Y-98136253D01*
X85918748Y-98315858D01*
X85918748Y-98315858D01*
G37*
X85918748Y-98315858D02*
X85904605Y-98330000D01*
X85918748Y-98344143D01*
X85739143Y-98523748D01*
X85725000Y-98509605D01*
X85710858Y-98523748D01*
X85531253Y-98344143D01*
X85545395Y-98330000D01*
X85531253Y-98315858D01*
X85710858Y-98136253D01*
X85725000Y-98150395D01*
X85739143Y-98136253D01*
X85918748Y-98315858D01*
G36*
X96897570Y-82470672D02*
X96939971Y-82534129D01*
X97191363Y-82702104D01*
X97413048Y-82746200D01*
X97413052Y-82746200D01*
X97487900Y-82761088D01*
X97562748Y-82746200D01*
X101591996Y-82746200D01*
X101465396Y-83051861D01*
X101587385Y-83273900D01*
X102730300Y-83273900D01*
X102730300Y-83253900D01*
X102984300Y-83253900D01*
X102984300Y-83273900D01*
X103004300Y-83273900D01*
X103004300Y-83527900D01*
X102984300Y-83527900D01*
X102984300Y-83547900D01*
X102730300Y-83547900D01*
X102730300Y-83527900D01*
X101587385Y-83527900D01*
X101465396Y-83749939D01*
X101626259Y-84138323D01*
X102002166Y-84553289D01*
X102206408Y-84649953D01*
X101822723Y-84906323D01*
X101505560Y-85380991D01*
X101394187Y-85940900D01*
X101505560Y-86500809D01*
X101568897Y-86595600D01*
X97562748Y-86595600D01*
X97487900Y-86580712D01*
X97413052Y-86595600D01*
X97413048Y-86595600D01*
X97191363Y-86639696D01*
X96939971Y-86807671D01*
X96897571Y-86871127D01*
X96292104Y-87476595D01*
X96271877Y-87446323D01*
X95919542Y-87210900D01*
X96271877Y-86975477D01*
X96589040Y-86500809D01*
X96700413Y-85940900D01*
X96589040Y-85380991D01*
X96271877Y-84906323D01*
X95919542Y-84670900D01*
X96271877Y-84435477D01*
X96589040Y-83960809D01*
X96700413Y-83400900D01*
X96589040Y-82840991D01*
X96271877Y-82366323D01*
X96151194Y-82285685D01*
X96285065Y-82259057D01*
X96495109Y-82118709D01*
X96515336Y-82088438D01*
X96897570Y-82470672D01*
X96897570Y-82470672D01*
G37*
X96897570Y-82470672D02*
X96939971Y-82534129D01*
X97191363Y-82702104D01*
X97413048Y-82746200D01*
X97413052Y-82746200D01*
X97487900Y-82761088D01*
X97562748Y-82746200D01*
X101591996Y-82746200D01*
X101465396Y-83051861D01*
X101587385Y-83273900D01*
X102730300Y-83273900D01*
X102730300Y-83253900D01*
X102984300Y-83253900D01*
X102984300Y-83273900D01*
X103004300Y-83273900D01*
X103004300Y-83527900D01*
X102984300Y-83527900D01*
X102984300Y-83547900D01*
X102730300Y-83547900D01*
X102730300Y-83527900D01*
X101587385Y-83527900D01*
X101465396Y-83749939D01*
X101626259Y-84138323D01*
X102002166Y-84553289D01*
X102206408Y-84649953D01*
X101822723Y-84906323D01*
X101505560Y-85380991D01*
X101394187Y-85940900D01*
X101505560Y-86500809D01*
X101568897Y-86595600D01*
X97562748Y-86595600D01*
X97487900Y-86580712D01*
X97413052Y-86595600D01*
X97413048Y-86595600D01*
X97191363Y-86639696D01*
X96939971Y-86807671D01*
X96897571Y-86871127D01*
X96292104Y-87476595D01*
X96271877Y-87446323D01*
X95919542Y-87210900D01*
X96271877Y-86975477D01*
X96589040Y-86500809D01*
X96700413Y-85940900D01*
X96589040Y-85380991D01*
X96271877Y-84906323D01*
X95919542Y-84670900D01*
X96271877Y-84435477D01*
X96589040Y-83960809D01*
X96700413Y-83400900D01*
X96589040Y-82840991D01*
X96271877Y-82366323D01*
X96151194Y-82285685D01*
X96285065Y-82259057D01*
X96495109Y-82118709D01*
X96515336Y-82088438D01*
X96897570Y-82470672D01*
G36*
X145726423Y-80899777D02*
X146022386Y-81097533D01*
X146005104Y-81184414D01*
X145726423Y-81370623D01*
X145409260Y-81845291D01*
X145297887Y-82405200D01*
X145370570Y-82770600D01*
X142644858Y-82770600D01*
X142717904Y-82594239D01*
X142595915Y-82372200D01*
X141453000Y-82372200D01*
X141453000Y-82392200D01*
X141199000Y-82392200D01*
X141199000Y-82372200D01*
X140056085Y-82372200D01*
X139934096Y-82594239D01*
X140007142Y-82770600D01*
X135064604Y-82770600D01*
X135169113Y-82245200D01*
X135057740Y-81685291D01*
X135017321Y-81624800D01*
X140046490Y-81624800D01*
X139934096Y-81896161D01*
X140056085Y-82118200D01*
X141199000Y-82118200D01*
X141199000Y-82098200D01*
X141453000Y-82098200D01*
X141453000Y-82118200D01*
X142595915Y-82118200D01*
X142717904Y-81896161D01*
X142605510Y-81624800D01*
X144561253Y-81624800D01*
X144636100Y-81639688D01*
X144710947Y-81624800D01*
X144710952Y-81624800D01*
X144932637Y-81580704D01*
X145184029Y-81412729D01*
X145226431Y-81349270D01*
X145706196Y-80869505D01*
X145726423Y-80899777D01*
X145726423Y-80899777D01*
G37*
X145726423Y-80899777D02*
X146022386Y-81097533D01*
X146005104Y-81184414D01*
X145726423Y-81370623D01*
X145409260Y-81845291D01*
X145297887Y-82405200D01*
X145370570Y-82770600D01*
X142644858Y-82770600D01*
X142717904Y-82594239D01*
X142595915Y-82372200D01*
X141453000Y-82372200D01*
X141453000Y-82392200D01*
X141199000Y-82392200D01*
X141199000Y-82372200D01*
X140056085Y-82372200D01*
X139934096Y-82594239D01*
X140007142Y-82770600D01*
X135064604Y-82770600D01*
X135169113Y-82245200D01*
X135057740Y-81685291D01*
X135017321Y-81624800D01*
X140046490Y-81624800D01*
X139934096Y-81896161D01*
X140056085Y-82118200D01*
X141199000Y-82118200D01*
X141199000Y-82098200D01*
X141453000Y-82098200D01*
X141453000Y-82118200D01*
X142595915Y-82118200D01*
X142717904Y-81896161D01*
X142605510Y-81624800D01*
X144561253Y-81624800D01*
X144636100Y-81639688D01*
X144710947Y-81624800D01*
X144710952Y-81624800D01*
X144932637Y-81580704D01*
X145184029Y-81412729D01*
X145226431Y-81349270D01*
X145706196Y-80869505D01*
X145726423Y-80899777D01*
G36*
X147126300Y-74138202D02*
X147126300Y-75877760D01*
X145961000Y-75877760D01*
X145713235Y-75927043D01*
X145503191Y-76067391D01*
X145362843Y-76277435D01*
X145313560Y-76525200D01*
X145313560Y-78125200D01*
X145362843Y-78372965D01*
X145503191Y-78583009D01*
X145713235Y-78723357D01*
X145847106Y-78749985D01*
X145726423Y-78830623D01*
X145540214Y-79109304D01*
X145339163Y-79149296D01*
X145087771Y-79317271D01*
X145045371Y-79380727D01*
X144321299Y-80104800D01*
X142696962Y-80104800D01*
X142717904Y-80054239D01*
X142595915Y-79832200D01*
X141453000Y-79832200D01*
X141453000Y-79852200D01*
X141199000Y-79852200D01*
X141199000Y-79832200D01*
X140056085Y-79832200D01*
X139934096Y-80054239D01*
X139955038Y-80104800D01*
X135089627Y-80104800D01*
X135169113Y-79705200D01*
X135057740Y-79145291D01*
X134740577Y-78670623D01*
X134619894Y-78589985D01*
X134753765Y-78563357D01*
X134963809Y-78423009D01*
X135104157Y-78212965D01*
X135153440Y-77965200D01*
X135153440Y-77165200D01*
X139862887Y-77165200D01*
X139974260Y-77725109D01*
X140291423Y-78199777D01*
X140675108Y-78456147D01*
X140470866Y-78552811D01*
X140094959Y-78967777D01*
X139934096Y-79356161D01*
X140056085Y-79578200D01*
X141199000Y-79578200D01*
X141199000Y-79558200D01*
X141453000Y-79558200D01*
X141453000Y-79578200D01*
X142595915Y-79578200D01*
X142717904Y-79356161D01*
X142557041Y-78967777D01*
X142181134Y-78552811D01*
X141976892Y-78456147D01*
X142360577Y-78199777D01*
X142677740Y-77725109D01*
X142789113Y-77165200D01*
X142677740Y-76605291D01*
X142360577Y-76130623D01*
X141885909Y-75813460D01*
X141467333Y-75730200D01*
X141184667Y-75730200D01*
X140766091Y-75813460D01*
X140291423Y-76130623D01*
X139974260Y-76605291D01*
X139862887Y-77165200D01*
X135153440Y-77165200D01*
X135153440Y-76804735D01*
X135188900Y-76811788D01*
X135263747Y-76796900D01*
X135263752Y-76796900D01*
X135485437Y-76752804D01*
X135736829Y-76584829D01*
X135779231Y-76521370D01*
X137378856Y-74921745D01*
X138530861Y-74921745D01*
X138604995Y-75167864D01*
X139142223Y-75360965D01*
X139712454Y-75333778D01*
X140113005Y-75167864D01*
X140187139Y-74921745D01*
X139359000Y-74093605D01*
X138530861Y-74921745D01*
X137378856Y-74921745D01*
X137966732Y-74333869D01*
X138105136Y-74668005D01*
X138351255Y-74742139D01*
X139179395Y-73914000D01*
X139538605Y-73914000D01*
X140366745Y-74742139D01*
X140612864Y-74668005D01*
X140615290Y-74661254D01*
X140642466Y-74726862D01*
X141046138Y-75130534D01*
X141573561Y-75349000D01*
X142144439Y-75349000D01*
X142671862Y-75130534D01*
X143075534Y-74726862D01*
X143294000Y-74199439D01*
X143294000Y-73628561D01*
X143075534Y-73101138D01*
X142671862Y-72697466D01*
X142144439Y-72479000D01*
X141573561Y-72479000D01*
X141046138Y-72697466D01*
X140642466Y-73101138D01*
X140615475Y-73166299D01*
X140612864Y-73159995D01*
X140366745Y-73085861D01*
X139538605Y-73914000D01*
X139179395Y-73914000D01*
X139165252Y-73899858D01*
X139344858Y-73720252D01*
X139359000Y-73734395D01*
X140187139Y-72906255D01*
X140113005Y-72660136D01*
X139765406Y-72535195D01*
X141359773Y-70940829D01*
X141423229Y-70898429D01*
X141591204Y-70647037D01*
X141635300Y-70425352D01*
X141635300Y-70425348D01*
X141650188Y-70350501D01*
X141635300Y-70275654D01*
X141635300Y-69368046D01*
X141650188Y-69293199D01*
X141635300Y-69218352D01*
X141635300Y-69218348D01*
X141591204Y-68996663D01*
X141423229Y-68745271D01*
X141359773Y-68702871D01*
X140877531Y-68220629D01*
X141010190Y-68022091D01*
X147126300Y-74138202D01*
X147126300Y-74138202D01*
G37*
X147126300Y-74138202D02*
X147126300Y-75877760D01*
X145961000Y-75877760D01*
X145713235Y-75927043D01*
X145503191Y-76067391D01*
X145362843Y-76277435D01*
X145313560Y-76525200D01*
X145313560Y-78125200D01*
X145362843Y-78372965D01*
X145503191Y-78583009D01*
X145713235Y-78723357D01*
X145847106Y-78749985D01*
X145726423Y-78830623D01*
X145540214Y-79109304D01*
X145339163Y-79149296D01*
X145087771Y-79317271D01*
X145045371Y-79380727D01*
X144321299Y-80104800D01*
X142696962Y-80104800D01*
X142717904Y-80054239D01*
X142595915Y-79832200D01*
X141453000Y-79832200D01*
X141453000Y-79852200D01*
X141199000Y-79852200D01*
X141199000Y-79832200D01*
X140056085Y-79832200D01*
X139934096Y-80054239D01*
X139955038Y-80104800D01*
X135089627Y-80104800D01*
X135169113Y-79705200D01*
X135057740Y-79145291D01*
X134740577Y-78670623D01*
X134619894Y-78589985D01*
X134753765Y-78563357D01*
X134963809Y-78423009D01*
X135104157Y-78212965D01*
X135153440Y-77965200D01*
X135153440Y-77165200D01*
X139862887Y-77165200D01*
X139974260Y-77725109D01*
X140291423Y-78199777D01*
X140675108Y-78456147D01*
X140470866Y-78552811D01*
X140094959Y-78967777D01*
X139934096Y-79356161D01*
X140056085Y-79578200D01*
X141199000Y-79578200D01*
X141199000Y-79558200D01*
X141453000Y-79558200D01*
X141453000Y-79578200D01*
X142595915Y-79578200D01*
X142717904Y-79356161D01*
X142557041Y-78967777D01*
X142181134Y-78552811D01*
X141976892Y-78456147D01*
X142360577Y-78199777D01*
X142677740Y-77725109D01*
X142789113Y-77165200D01*
X142677740Y-76605291D01*
X142360577Y-76130623D01*
X141885909Y-75813460D01*
X141467333Y-75730200D01*
X141184667Y-75730200D01*
X140766091Y-75813460D01*
X140291423Y-76130623D01*
X139974260Y-76605291D01*
X139862887Y-77165200D01*
X135153440Y-77165200D01*
X135153440Y-76804735D01*
X135188900Y-76811788D01*
X135263747Y-76796900D01*
X135263752Y-76796900D01*
X135485437Y-76752804D01*
X135736829Y-76584829D01*
X135779231Y-76521370D01*
X137378856Y-74921745D01*
X138530861Y-74921745D01*
X138604995Y-75167864D01*
X139142223Y-75360965D01*
X139712454Y-75333778D01*
X140113005Y-75167864D01*
X140187139Y-74921745D01*
X139359000Y-74093605D01*
X138530861Y-74921745D01*
X137378856Y-74921745D01*
X137966732Y-74333869D01*
X138105136Y-74668005D01*
X138351255Y-74742139D01*
X139179395Y-73914000D01*
X139538605Y-73914000D01*
X140366745Y-74742139D01*
X140612864Y-74668005D01*
X140615290Y-74661254D01*
X140642466Y-74726862D01*
X141046138Y-75130534D01*
X141573561Y-75349000D01*
X142144439Y-75349000D01*
X142671862Y-75130534D01*
X143075534Y-74726862D01*
X143294000Y-74199439D01*
X143294000Y-73628561D01*
X143075534Y-73101138D01*
X142671862Y-72697466D01*
X142144439Y-72479000D01*
X141573561Y-72479000D01*
X141046138Y-72697466D01*
X140642466Y-73101138D01*
X140615475Y-73166299D01*
X140612864Y-73159995D01*
X140366745Y-73085861D01*
X139538605Y-73914000D01*
X139179395Y-73914000D01*
X139165252Y-73899858D01*
X139344858Y-73720252D01*
X139359000Y-73734395D01*
X140187139Y-72906255D01*
X140113005Y-72660136D01*
X139765406Y-72535195D01*
X141359773Y-70940829D01*
X141423229Y-70898429D01*
X141591204Y-70647037D01*
X141635300Y-70425352D01*
X141635300Y-70425348D01*
X141650188Y-70350501D01*
X141635300Y-70275654D01*
X141635300Y-69368046D01*
X141650188Y-69293199D01*
X141635300Y-69218352D01*
X141635300Y-69218348D01*
X141591204Y-68996663D01*
X141423229Y-68745271D01*
X141359773Y-68702871D01*
X140877531Y-68220629D01*
X141010190Y-68022091D01*
X147126300Y-74138202D01*
G04 #@! TD*
M02*
