G04 #@! TF.GenerationSoftware,KiCad,Pcbnew,(5.0.0-3-g5ebb6b6)*
G04 #@! TF.CreationDate,2018-10-07T14:31:37+09:00*
G04 #@! TF.ProjectId,Z80-CPUB,5A38302D435055422E6B696361645F70,rev?*
G04 #@! TF.SameCoordinates,Original*
G04 #@! TF.FileFunction,Legend,Top*
G04 #@! TF.FilePolarity,Positive*
%FSLAX46Y46*%
G04 Gerber Fmt 4.6, Leading zero omitted, Abs format (unit mm)*
G04 Created by KiCad (PCBNEW (5.0.0-3-g5ebb6b6)) date *
%MOMM*%
%LPD*%
G01*
G04 APERTURE LIST*
%ADD10C,0.200000*%
%ADD11C,0.150000*%
%ADD12C,0.300000*%
%ADD13C,0.120000*%
%ADD14C,0.100000*%
%ADD15C,5.200600*%
%ADD16R,5.200600X5.200600*%
%ADD17C,2.000000*%
%ADD18R,1.600000X1.600000*%
%ADD19C,1.600000*%
%ADD20R,2.000000X2.000000*%
%ADD21R,2.600000X2.600000*%
%ADD22O,2.600000X2.600000*%
%ADD23R,2.127200X2.127200*%
%ADD24O,2.127200X2.127200*%
%ADD25O,2.000000X2.000000*%
%ADD26R,2.300000X2.300000*%
%ADD27C,2.300000*%
%ADD28C,2.400000*%
%ADD29C,1.900000*%
%ADD30C,3.600000*%
%ADD31R,2.200000X2.200000*%
%ADD32C,2.200000*%
G04 APERTURE END LIST*
D10*
X126702420Y-78994000D02*
G75*
G03X126702420Y-78994000I-718420J0D01*
G01*
D11*
X71643904Y-76366666D02*
X72120095Y-76366666D01*
X71548666Y-76652380D02*
X71882000Y-75652380D01*
X72215333Y-76652380D01*
X78478095Y-76652380D02*
X78478095Y-75652380D01*
X79049523Y-76652380D02*
X78620952Y-76080952D01*
X79049523Y-75652380D02*
X78478095Y-76223809D01*
D10*
X132080000Y-76962000D02*
G75*
G02X129540000Y-76962000I-1270000J0D01*
G01*
D12*
X158534571Y-109100285D02*
X157034571Y-109100285D01*
X158534571Y-108243142D02*
X157677428Y-108886000D01*
X157034571Y-108243142D02*
X157891714Y-109100285D01*
X157034571Y-107743142D02*
X157034571Y-106743142D01*
X158534571Y-107743142D01*
X158534571Y-106743142D01*
X157677428Y-105957428D02*
X157606000Y-106100285D01*
X157534571Y-106171714D01*
X157391714Y-106243142D01*
X157320285Y-106243142D01*
X157177428Y-106171714D01*
X157106000Y-106100285D01*
X157034571Y-105957428D01*
X157034571Y-105671714D01*
X157106000Y-105528857D01*
X157177428Y-105457428D01*
X157320285Y-105386000D01*
X157391714Y-105386000D01*
X157534571Y-105457428D01*
X157606000Y-105528857D01*
X157677428Y-105671714D01*
X157677428Y-105957428D01*
X157748857Y-106100285D01*
X157820285Y-106171714D01*
X157963142Y-106243142D01*
X158248857Y-106243142D01*
X158391714Y-106171714D01*
X158463142Y-106100285D01*
X158534571Y-105957428D01*
X158534571Y-105671714D01*
X158463142Y-105528857D01*
X158391714Y-105457428D01*
X158248857Y-105386000D01*
X157963142Y-105386000D01*
X157820285Y-105457428D01*
X157748857Y-105528857D01*
X157677428Y-105671714D01*
X157034571Y-104457428D02*
X157034571Y-104314571D01*
X157106000Y-104171714D01*
X157177428Y-104100285D01*
X157320285Y-104028857D01*
X157606000Y-103957428D01*
X157963142Y-103957428D01*
X158248857Y-104028857D01*
X158391714Y-104100285D01*
X158463142Y-104171714D01*
X158534571Y-104314571D01*
X158534571Y-104457428D01*
X158463142Y-104600285D01*
X158391714Y-104671714D01*
X158248857Y-104743142D01*
X157963142Y-104814571D01*
X157606000Y-104814571D01*
X157320285Y-104743142D01*
X157177428Y-104671714D01*
X157106000Y-104600285D01*
X157034571Y-104457428D01*
X157963142Y-103314571D02*
X157963142Y-102171714D01*
X158391714Y-100600285D02*
X158463142Y-100671714D01*
X158534571Y-100886000D01*
X158534571Y-101028857D01*
X158463142Y-101243142D01*
X158320285Y-101386000D01*
X158177428Y-101457428D01*
X157891714Y-101528857D01*
X157677428Y-101528857D01*
X157391714Y-101457428D01*
X157248857Y-101386000D01*
X157106000Y-101243142D01*
X157034571Y-101028857D01*
X157034571Y-100886000D01*
X157106000Y-100671714D01*
X157177428Y-100600285D01*
X158534571Y-99957428D02*
X157034571Y-99957428D01*
X157034571Y-99386000D01*
X157106000Y-99243142D01*
X157177428Y-99171714D01*
X157320285Y-99100285D01*
X157534571Y-99100285D01*
X157677428Y-99171714D01*
X157748857Y-99243142D01*
X157820285Y-99386000D01*
X157820285Y-99957428D01*
X157034571Y-98457428D02*
X158248857Y-98457428D01*
X158391714Y-98386000D01*
X158463142Y-98314571D01*
X158534571Y-98171714D01*
X158534571Y-97886000D01*
X158463142Y-97743142D01*
X158391714Y-97671714D01*
X158248857Y-97600285D01*
X157034571Y-97600285D01*
X157748857Y-96386000D02*
X157820285Y-96171714D01*
X157891714Y-96100285D01*
X158034571Y-96028857D01*
X158248857Y-96028857D01*
X158391714Y-96100285D01*
X158463142Y-96171714D01*
X158534571Y-96314571D01*
X158534571Y-96886000D01*
X157034571Y-96886000D01*
X157034571Y-96386000D01*
X157106000Y-96243142D01*
X157177428Y-96171714D01*
X157320285Y-96100285D01*
X157463142Y-96100285D01*
X157606000Y-96171714D01*
X157677428Y-96243142D01*
X157748857Y-96386000D01*
X157748857Y-96886000D01*
X158391714Y-94243142D02*
X158463142Y-94171714D01*
X158534571Y-94243142D01*
X158463142Y-94314571D01*
X158391714Y-94243142D01*
X158534571Y-94243142D01*
X157606000Y-94243142D02*
X157677428Y-94171714D01*
X157748857Y-94243142D01*
X157677428Y-94314571D01*
X157606000Y-94243142D01*
X157748857Y-94243142D01*
X157034571Y-92528857D02*
X157034571Y-91528857D01*
X158534571Y-92528857D01*
X158534571Y-91528857D01*
X157677428Y-90743142D02*
X157606000Y-90886000D01*
X157534571Y-90957428D01*
X157391714Y-91028857D01*
X157320285Y-91028857D01*
X157177428Y-90957428D01*
X157106000Y-90886000D01*
X157034571Y-90743142D01*
X157034571Y-90457428D01*
X157106000Y-90314571D01*
X157177428Y-90243142D01*
X157320285Y-90171714D01*
X157391714Y-90171714D01*
X157534571Y-90243142D01*
X157606000Y-90314571D01*
X157677428Y-90457428D01*
X157677428Y-90743142D01*
X157748857Y-90886000D01*
X157820285Y-90957428D01*
X157963142Y-91028857D01*
X158248857Y-91028857D01*
X158391714Y-90957428D01*
X158463142Y-90886000D01*
X158534571Y-90743142D01*
X158534571Y-90457428D01*
X158463142Y-90314571D01*
X158391714Y-90243142D01*
X158248857Y-90171714D01*
X157963142Y-90171714D01*
X157820285Y-90243142D01*
X157748857Y-90314571D01*
X157677428Y-90457428D01*
X157034571Y-89243142D02*
X157034571Y-89100285D01*
X157106000Y-88957428D01*
X157177428Y-88886000D01*
X157320285Y-88814571D01*
X157606000Y-88743142D01*
X157963142Y-88743142D01*
X158248857Y-88814571D01*
X158391714Y-88886000D01*
X158463142Y-88957428D01*
X158534571Y-89100285D01*
X158534571Y-89243142D01*
X158463142Y-89386000D01*
X158391714Y-89457428D01*
X158248857Y-89528857D01*
X157963142Y-89600285D01*
X157606000Y-89600285D01*
X157320285Y-89528857D01*
X157177428Y-89457428D01*
X157106000Y-89386000D01*
X157034571Y-89243142D01*
X158391714Y-86100285D02*
X158463142Y-86171714D01*
X158534571Y-86386000D01*
X158534571Y-86528857D01*
X158463142Y-86743142D01*
X158320285Y-86886000D01*
X158177428Y-86957428D01*
X157891714Y-87028857D01*
X157677428Y-87028857D01*
X157391714Y-86957428D01*
X157248857Y-86886000D01*
X157106000Y-86743142D01*
X157034571Y-86528857D01*
X157034571Y-86386000D01*
X157106000Y-86171714D01*
X157177428Y-86100285D01*
X158534571Y-85457428D02*
X157034571Y-85457428D01*
X157034571Y-84886000D01*
X157106000Y-84743142D01*
X157177428Y-84671714D01*
X157320285Y-84600285D01*
X157534571Y-84600285D01*
X157677428Y-84671714D01*
X157748857Y-84743142D01*
X157820285Y-84886000D01*
X157820285Y-85457428D01*
X157034571Y-83957428D02*
X158248857Y-83957428D01*
X158391714Y-83886000D01*
X158463142Y-83814571D01*
X158534571Y-83671714D01*
X158534571Y-83386000D01*
X158463142Y-83243142D01*
X158391714Y-83171714D01*
X158248857Y-83100285D01*
X157034571Y-83100285D01*
X157748857Y-80743142D02*
X157820285Y-80528857D01*
X157891714Y-80457428D01*
X158034571Y-80386000D01*
X158248857Y-80386000D01*
X158391714Y-80457428D01*
X158463142Y-80528857D01*
X158534571Y-80671714D01*
X158534571Y-81243142D01*
X157034571Y-81243142D01*
X157034571Y-80743142D01*
X157106000Y-80600285D01*
X157177428Y-80528857D01*
X157320285Y-80457428D01*
X157463142Y-80457428D01*
X157606000Y-80528857D01*
X157677428Y-80600285D01*
X157748857Y-80743142D01*
X157748857Y-81243142D01*
X158534571Y-79528857D02*
X158463142Y-79671714D01*
X158391714Y-79743142D01*
X158248857Y-79814571D01*
X157820285Y-79814571D01*
X157677428Y-79743142D01*
X157606000Y-79671714D01*
X157534571Y-79528857D01*
X157534571Y-79314571D01*
X157606000Y-79171714D01*
X157677428Y-79100285D01*
X157820285Y-79028857D01*
X158248857Y-79028857D01*
X158391714Y-79100285D01*
X158463142Y-79171714D01*
X158534571Y-79314571D01*
X158534571Y-79528857D01*
X158534571Y-77743142D02*
X157748857Y-77743142D01*
X157606000Y-77814571D01*
X157534571Y-77957428D01*
X157534571Y-78243142D01*
X157606000Y-78386000D01*
X158463142Y-77743142D02*
X158534571Y-77886000D01*
X158534571Y-78243142D01*
X158463142Y-78386000D01*
X158320285Y-78457428D01*
X158177428Y-78457428D01*
X158034571Y-78386000D01*
X157963142Y-78243142D01*
X157963142Y-77886000D01*
X157891714Y-77743142D01*
X158534571Y-77028857D02*
X157534571Y-77028857D01*
X157820285Y-77028857D02*
X157677428Y-76957428D01*
X157606000Y-76886000D01*
X157534571Y-76743142D01*
X157534571Y-76600285D01*
X158534571Y-75457428D02*
X157034571Y-75457428D01*
X158463142Y-75457428D02*
X158534571Y-75600285D01*
X158534571Y-75886000D01*
X158463142Y-76028857D01*
X158391714Y-76100285D01*
X158248857Y-76171714D01*
X157820285Y-76171714D01*
X157677428Y-76100285D01*
X157606000Y-76028857D01*
X157534571Y-75886000D01*
X157534571Y-75600285D01*
X157606000Y-75457428D01*
X158534571Y-72743142D02*
X157820285Y-73243142D01*
X158534571Y-73600285D02*
X157034571Y-73600285D01*
X157034571Y-73028857D01*
X157106000Y-72886000D01*
X157177428Y-72814571D01*
X157320285Y-72743142D01*
X157534571Y-72743142D01*
X157677428Y-72814571D01*
X157748857Y-72886000D01*
X157820285Y-73028857D01*
X157820285Y-73600285D01*
X158463142Y-71528857D02*
X158534571Y-71671714D01*
X158534571Y-71957428D01*
X158463142Y-72100285D01*
X158320285Y-72171714D01*
X157748857Y-72171714D01*
X157606000Y-72100285D01*
X157534571Y-71957428D01*
X157534571Y-71671714D01*
X157606000Y-71528857D01*
X157748857Y-71457428D01*
X157891714Y-71457428D01*
X158034571Y-72171714D01*
X157534571Y-70957428D02*
X158534571Y-70600285D01*
X157534571Y-70243142D01*
X158391714Y-69671714D02*
X158463142Y-69600285D01*
X158534571Y-69671714D01*
X158463142Y-69743142D01*
X158391714Y-69671714D01*
X158534571Y-69671714D01*
X158534571Y-68171714D02*
X158534571Y-69028857D01*
X158534571Y-68600285D02*
X157034571Y-68600285D01*
X157248857Y-68743142D01*
X157391714Y-68886000D01*
X157463142Y-69028857D01*
X161084571Y-78814571D02*
X159584571Y-78814571D01*
X161084571Y-77957428D02*
X160227428Y-78600285D01*
X159584571Y-77957428D02*
X160441714Y-78814571D01*
X159584571Y-77314571D02*
X160798857Y-77314571D01*
X160941714Y-77243142D01*
X161013142Y-77171714D01*
X161084571Y-77028857D01*
X161084571Y-76743142D01*
X161013142Y-76600285D01*
X160941714Y-76528857D01*
X160798857Y-76457428D01*
X159584571Y-76457428D01*
X161084571Y-75743142D02*
X159584571Y-75743142D01*
X161084571Y-74885999D01*
X159584571Y-74885999D01*
X161084571Y-74171714D02*
X159584571Y-74171714D01*
X160513142Y-73457428D02*
X160513142Y-72314571D01*
X161084571Y-71600285D02*
X159584571Y-71600285D01*
X161084571Y-70743142D01*
X159584571Y-70743142D01*
X160298857Y-70028857D02*
X160298857Y-69528857D01*
X161084571Y-69314571D02*
X161084571Y-70028857D01*
X159584571Y-70028857D01*
X159584571Y-69314571D01*
X159584571Y-68885999D02*
X159584571Y-68028857D01*
X161084571Y-68457428D02*
X159584571Y-68457428D01*
X103318571Y-100698571D02*
X103318571Y-99698571D01*
X104818571Y-100341428D01*
X103818571Y-98484285D02*
X104818571Y-98484285D01*
X103247142Y-98841428D02*
X104318571Y-99198571D01*
X104318571Y-98270000D01*
X104818571Y-97698571D02*
X103318571Y-97698571D01*
X104032857Y-97698571D02*
X104032857Y-96841428D01*
X104818571Y-96841428D02*
X103318571Y-96841428D01*
X104675714Y-95270000D02*
X104747142Y-95341428D01*
X104818571Y-95555714D01*
X104818571Y-95698571D01*
X104747142Y-95912857D01*
X104604285Y-96055714D01*
X104461428Y-96127142D01*
X104175714Y-96198571D01*
X103961428Y-96198571D01*
X103675714Y-96127142D01*
X103532857Y-96055714D01*
X103390000Y-95912857D01*
X103318571Y-95698571D01*
X103318571Y-95555714D01*
X103390000Y-95341428D01*
X103461428Y-95270000D01*
X103318571Y-94341428D02*
X103318571Y-94198571D01*
X103390000Y-94055714D01*
X103461428Y-93984285D01*
X103604285Y-93912857D01*
X103890000Y-93841428D01*
X104247142Y-93841428D01*
X104532857Y-93912857D01*
X104675714Y-93984285D01*
X104747142Y-94055714D01*
X104818571Y-94198571D01*
X104818571Y-94341428D01*
X104747142Y-94484285D01*
X104675714Y-94555714D01*
X104532857Y-94627142D01*
X104247142Y-94698571D01*
X103890000Y-94698571D01*
X103604285Y-94627142D01*
X103461428Y-94555714D01*
X103390000Y-94484285D01*
X103318571Y-94341428D01*
X103818571Y-92555714D02*
X104818571Y-92555714D01*
X103247142Y-92912857D02*
X104318571Y-93270000D01*
X104318571Y-92341428D01*
X149038571Y-123558571D02*
X149038571Y-122558571D01*
X150538571Y-123201428D01*
X149538571Y-121344285D02*
X150538571Y-121344285D01*
X148967142Y-121701428D02*
X150038571Y-122058571D01*
X150038571Y-121130000D01*
X150538571Y-120558571D02*
X149038571Y-120558571D01*
X149752857Y-120558571D02*
X149752857Y-119701428D01*
X150538571Y-119701428D02*
X149038571Y-119701428D01*
X150395714Y-118130000D02*
X150467142Y-118201428D01*
X150538571Y-118415714D01*
X150538571Y-118558571D01*
X150467142Y-118772857D01*
X150324285Y-118915714D01*
X150181428Y-118987142D01*
X149895714Y-119058571D01*
X149681428Y-119058571D01*
X149395714Y-118987142D01*
X149252857Y-118915714D01*
X149110000Y-118772857D01*
X149038571Y-118558571D01*
X149038571Y-118415714D01*
X149110000Y-118201428D01*
X149181428Y-118130000D01*
X149038571Y-117630000D02*
X149038571Y-116701428D01*
X149610000Y-117201428D01*
X149610000Y-116987142D01*
X149681428Y-116844285D01*
X149752857Y-116772857D01*
X149895714Y-116701428D01*
X150252857Y-116701428D01*
X150395714Y-116772857D01*
X150467142Y-116844285D01*
X150538571Y-116987142D01*
X150538571Y-117415714D01*
X150467142Y-117558571D01*
X150395714Y-117630000D01*
X149181428Y-116130000D02*
X149110000Y-116058571D01*
X149038571Y-115915714D01*
X149038571Y-115558571D01*
X149110000Y-115415714D01*
X149181428Y-115344285D01*
X149324285Y-115272857D01*
X149467142Y-115272857D01*
X149681428Y-115344285D01*
X150538571Y-116201428D01*
X150538571Y-115272857D01*
X130623571Y-119720714D02*
X130623571Y-118720714D01*
X132123571Y-119720714D01*
X132123571Y-118720714D01*
X131266428Y-117935000D02*
X131195000Y-118077857D01*
X131123571Y-118149285D01*
X130980714Y-118220714D01*
X130909285Y-118220714D01*
X130766428Y-118149285D01*
X130695000Y-118077857D01*
X130623571Y-117935000D01*
X130623571Y-117649285D01*
X130695000Y-117506428D01*
X130766428Y-117435000D01*
X130909285Y-117363571D01*
X130980714Y-117363571D01*
X131123571Y-117435000D01*
X131195000Y-117506428D01*
X131266428Y-117649285D01*
X131266428Y-117935000D01*
X131337857Y-118077857D01*
X131409285Y-118149285D01*
X131552142Y-118220714D01*
X131837857Y-118220714D01*
X131980714Y-118149285D01*
X132052142Y-118077857D01*
X132123571Y-117935000D01*
X132123571Y-117649285D01*
X132052142Y-117506428D01*
X131980714Y-117435000D01*
X131837857Y-117363571D01*
X131552142Y-117363571D01*
X131409285Y-117435000D01*
X131337857Y-117506428D01*
X131266428Y-117649285D01*
X130623571Y-116435000D02*
X130623571Y-116292142D01*
X130695000Y-116149285D01*
X130766428Y-116077857D01*
X130909285Y-116006428D01*
X131195000Y-115935000D01*
X131552142Y-115935000D01*
X131837857Y-116006428D01*
X131980714Y-116077857D01*
X132052142Y-116149285D01*
X132123571Y-116292142D01*
X132123571Y-116435000D01*
X132052142Y-116577857D01*
X131980714Y-116649285D01*
X131837857Y-116720714D01*
X131552142Y-116792142D01*
X131195000Y-116792142D01*
X130909285Y-116720714D01*
X130766428Y-116649285D01*
X130695000Y-116577857D01*
X130623571Y-116435000D01*
X131980714Y-113292142D02*
X132052142Y-113363571D01*
X132123571Y-113577857D01*
X132123571Y-113720714D01*
X132052142Y-113935000D01*
X131909285Y-114077857D01*
X131766428Y-114149285D01*
X131480714Y-114220714D01*
X131266428Y-114220714D01*
X130980714Y-114149285D01*
X130837857Y-114077857D01*
X130695000Y-113935000D01*
X130623571Y-113720714D01*
X130623571Y-113577857D01*
X130695000Y-113363571D01*
X130766428Y-113292142D01*
X132123571Y-112649285D02*
X130623571Y-112649285D01*
X130623571Y-112077857D01*
X130695000Y-111935000D01*
X130766428Y-111863571D01*
X130909285Y-111792142D01*
X131123571Y-111792142D01*
X131266428Y-111863571D01*
X131337857Y-111935000D01*
X131409285Y-112077857D01*
X131409285Y-112649285D01*
X130623571Y-111149285D02*
X131837857Y-111149285D01*
X131980714Y-111077857D01*
X132052142Y-111006428D01*
X132123571Y-110863571D01*
X132123571Y-110577857D01*
X132052142Y-110435000D01*
X131980714Y-110363571D01*
X131837857Y-110292142D01*
X130623571Y-110292142D01*
X103318571Y-121653571D02*
X103318571Y-120653571D01*
X104818571Y-121296428D01*
X103818571Y-119439285D02*
X104818571Y-119439285D01*
X103247142Y-119796428D02*
X104318571Y-120153571D01*
X104318571Y-119225000D01*
X104818571Y-118653571D02*
X103318571Y-118653571D01*
X104032857Y-118653571D02*
X104032857Y-117796428D01*
X104818571Y-117796428D02*
X103318571Y-117796428D01*
X104675714Y-116225000D02*
X104747142Y-116296428D01*
X104818571Y-116510714D01*
X104818571Y-116653571D01*
X104747142Y-116867857D01*
X104604285Y-117010714D01*
X104461428Y-117082142D01*
X104175714Y-117153571D01*
X103961428Y-117153571D01*
X103675714Y-117082142D01*
X103532857Y-117010714D01*
X103390000Y-116867857D01*
X103318571Y-116653571D01*
X103318571Y-116510714D01*
X103390000Y-116296428D01*
X103461428Y-116225000D01*
X104818571Y-114796428D02*
X104818571Y-115653571D01*
X104818571Y-115225000D02*
X103318571Y-115225000D01*
X103532857Y-115367857D01*
X103675714Y-115510714D01*
X103747142Y-115653571D01*
X103818571Y-113510714D02*
X104818571Y-113510714D01*
X103247142Y-113867857D02*
X104318571Y-114225000D01*
X104318571Y-113296428D01*
D11*
G04 #@! TO.C,J2*
X82042000Y-131572000D02*
X82042000Y-132334000D01*
X82042000Y-132334000D02*
X90678000Y-132334000D01*
X90678000Y-132334000D02*
X90678000Y-131572000D01*
X82042000Y-128524000D02*
X90678000Y-128524000D01*
X82042000Y-118872000D02*
X90678000Y-118872000D01*
X90678000Y-131572000D02*
X90678000Y-118872000D01*
X82042000Y-131572000D02*
X82042000Y-118872000D01*
D13*
G04 #@! TO.C,C1*
X128730000Y-102830000D02*
X132850000Y-102830000D01*
X128730000Y-105450000D02*
X132850000Y-105450000D01*
X128730000Y-102830000D02*
X128730000Y-103390000D01*
X128730000Y-104890000D02*
X128730000Y-105450000D01*
X132850000Y-102830000D02*
X132850000Y-103390000D01*
X132850000Y-104890000D02*
X132850000Y-105450000D01*
G04 #@! TO.C,C2*
X86870830Y-99713564D02*
G75*
G03X86870000Y-103405996I979170J-1846436D01*
G01*
X88829170Y-99713564D02*
G75*
G02X88830000Y-103405996I-979170J-1846436D01*
G01*
X88829170Y-99713564D02*
G75*
G03X86870000Y-99714004I-979170J-1846436D01*
G01*
X85800000Y-101560000D02*
X89900000Y-101560000D01*
X85800000Y-101520000D02*
X89900000Y-101520000D01*
X85801000Y-101480000D02*
X89899000Y-101480000D01*
X85803000Y-101440000D02*
X89897000Y-101440000D01*
X85806000Y-101400000D02*
X89894000Y-101400000D01*
X85809000Y-101360000D02*
X89891000Y-101360000D01*
X85813000Y-101320000D02*
X87070000Y-101320000D01*
X88630000Y-101320000D02*
X89887000Y-101320000D01*
X85818000Y-101280000D02*
X87070000Y-101280000D01*
X88630000Y-101280000D02*
X89882000Y-101280000D01*
X85824000Y-101240000D02*
X87070000Y-101240000D01*
X88630000Y-101240000D02*
X89876000Y-101240000D01*
X85831000Y-101200000D02*
X87070000Y-101200000D01*
X88630000Y-101200000D02*
X89869000Y-101200000D01*
X85838000Y-101160000D02*
X87070000Y-101160000D01*
X88630000Y-101160000D02*
X89862000Y-101160000D01*
X85846000Y-101120000D02*
X87070000Y-101120000D01*
X88630000Y-101120000D02*
X89854000Y-101120000D01*
X85855000Y-101080000D02*
X87070000Y-101080000D01*
X88630000Y-101080000D02*
X89845000Y-101080000D01*
X85865000Y-101040000D02*
X87070000Y-101040000D01*
X88630000Y-101040000D02*
X89835000Y-101040000D01*
X85876000Y-101000000D02*
X87070000Y-101000000D01*
X88630000Y-101000000D02*
X89824000Y-101000000D01*
X85887000Y-100960000D02*
X87070000Y-100960000D01*
X88630000Y-100960000D02*
X89813000Y-100960000D01*
X85900000Y-100920000D02*
X87070000Y-100920000D01*
X88630000Y-100920000D02*
X89800000Y-100920000D01*
X85913000Y-100880000D02*
X87070000Y-100880000D01*
X88630000Y-100880000D02*
X89787000Y-100880000D01*
X85927000Y-100839000D02*
X87070000Y-100839000D01*
X88630000Y-100839000D02*
X89773000Y-100839000D01*
X85943000Y-100799000D02*
X87070000Y-100799000D01*
X88630000Y-100799000D02*
X89757000Y-100799000D01*
X85959000Y-100759000D02*
X87070000Y-100759000D01*
X88630000Y-100759000D02*
X89741000Y-100759000D01*
X85976000Y-100719000D02*
X87070000Y-100719000D01*
X88630000Y-100719000D02*
X89724000Y-100719000D01*
X85994000Y-100679000D02*
X87070000Y-100679000D01*
X88630000Y-100679000D02*
X89706000Y-100679000D01*
X86013000Y-100639000D02*
X87070000Y-100639000D01*
X88630000Y-100639000D02*
X89687000Y-100639000D01*
X86033000Y-100599000D02*
X87070000Y-100599000D01*
X88630000Y-100599000D02*
X89667000Y-100599000D01*
X86054000Y-100559000D02*
X87070000Y-100559000D01*
X88630000Y-100559000D02*
X89646000Y-100559000D01*
X86077000Y-100519000D02*
X87070000Y-100519000D01*
X88630000Y-100519000D02*
X89623000Y-100519000D01*
X86100000Y-100479000D02*
X87070000Y-100479000D01*
X88630000Y-100479000D02*
X89600000Y-100479000D01*
X86125000Y-100439000D02*
X87070000Y-100439000D01*
X88630000Y-100439000D02*
X89575000Y-100439000D01*
X86151000Y-100399000D02*
X87070000Y-100399000D01*
X88630000Y-100399000D02*
X89549000Y-100399000D01*
X86178000Y-100359000D02*
X87070000Y-100359000D01*
X88630000Y-100359000D02*
X89522000Y-100359000D01*
X86207000Y-100319000D02*
X87070000Y-100319000D01*
X88630000Y-100319000D02*
X89493000Y-100319000D01*
X86237000Y-100279000D02*
X87070000Y-100279000D01*
X88630000Y-100279000D02*
X89463000Y-100279000D01*
X86269000Y-100239000D02*
X87070000Y-100239000D01*
X88630000Y-100239000D02*
X89431000Y-100239000D01*
X86303000Y-100199000D02*
X87070000Y-100199000D01*
X88630000Y-100199000D02*
X89397000Y-100199000D01*
X86338000Y-100159000D02*
X87070000Y-100159000D01*
X88630000Y-100159000D02*
X89362000Y-100159000D01*
X86375000Y-100119000D02*
X87070000Y-100119000D01*
X88630000Y-100119000D02*
X89325000Y-100119000D01*
X86414000Y-100079000D02*
X87070000Y-100079000D01*
X88630000Y-100079000D02*
X89286000Y-100079000D01*
X86455000Y-100039000D02*
X87070000Y-100039000D01*
X88630000Y-100039000D02*
X89245000Y-100039000D01*
X86499000Y-99999000D02*
X87070000Y-99999000D01*
X88630000Y-99999000D02*
X89201000Y-99999000D01*
X86545000Y-99959000D02*
X87070000Y-99959000D01*
X88630000Y-99959000D02*
X89155000Y-99959000D01*
X86594000Y-99919000D02*
X87070000Y-99919000D01*
X88630000Y-99919000D02*
X89106000Y-99919000D01*
X86646000Y-99879000D02*
X87070000Y-99879000D01*
X88630000Y-99879000D02*
X89054000Y-99879000D01*
X86702000Y-99839000D02*
X87070000Y-99839000D01*
X88630000Y-99839000D02*
X88998000Y-99839000D01*
X86762000Y-99799000D02*
X87070000Y-99799000D01*
X88630000Y-99799000D02*
X88938000Y-99799000D01*
X86827000Y-99759000D02*
X88873000Y-99759000D01*
X86898000Y-99719000D02*
X88802000Y-99719000D01*
X86976000Y-99679000D02*
X88724000Y-99679000D01*
X87064000Y-99639000D02*
X88636000Y-99639000D01*
X87164000Y-99599000D02*
X88536000Y-99599000D01*
X87283000Y-99559000D02*
X88417000Y-99559000D01*
X87435000Y-99519000D02*
X88265000Y-99519000D01*
X87685000Y-99479000D02*
X88015000Y-99479000D01*
X87850000Y-104260000D02*
X87850000Y-103360000D01*
X87400000Y-103810000D02*
X88300000Y-103810000D01*
G04 #@! TO.C,C3*
X106220000Y-87670000D02*
X102100000Y-87670000D01*
X106220000Y-85050000D02*
X102100000Y-85050000D01*
X106220000Y-87670000D02*
X106220000Y-87110000D01*
X106220000Y-85610000D02*
X106220000Y-85050000D01*
X102100000Y-87670000D02*
X102100000Y-87110000D01*
X102100000Y-85610000D02*
X102100000Y-85050000D01*
G04 #@! TO.C,C4*
X154480000Y-109260000D02*
X150360000Y-109260000D01*
X154480000Y-106640000D02*
X150360000Y-106640000D01*
X154480000Y-109260000D02*
X154480000Y-108700000D01*
X154480000Y-107200000D02*
X154480000Y-106640000D01*
X150360000Y-109260000D02*
X150360000Y-108700000D01*
X150360000Y-107200000D02*
X150360000Y-106640000D01*
G04 #@! TO.C,C5*
X106220000Y-109260000D02*
X102100000Y-109260000D01*
X106220000Y-106640000D02*
X102100000Y-106640000D01*
X106220000Y-109260000D02*
X106220000Y-108700000D01*
X106220000Y-107200000D02*
X106220000Y-106640000D01*
X102100000Y-109260000D02*
X102100000Y-108700000D01*
X102100000Y-107200000D02*
X102100000Y-106640000D01*
G04 #@! TO.C,C6*
X74970000Y-86820000D02*
X74970000Y-90940000D01*
X72350000Y-86820000D02*
X72350000Y-90940000D01*
X74970000Y-86820000D02*
X74410000Y-86820000D01*
X72910000Y-86820000D02*
X72350000Y-86820000D01*
X74970000Y-90940000D02*
X74410000Y-90940000D01*
X72910000Y-90940000D02*
X72350000Y-90940000D01*
G04 #@! TO.C,C7*
X72350000Y-97330000D02*
X72350000Y-93210000D01*
X74970000Y-97330000D02*
X74970000Y-93210000D01*
X72350000Y-97330000D02*
X72910000Y-97330000D01*
X74410000Y-97330000D02*
X74970000Y-97330000D01*
X72350000Y-93210000D02*
X72910000Y-93210000D01*
X74410000Y-93210000D02*
X74970000Y-93210000D01*
G04 #@! TO.C,C8*
X78750000Y-121412000D02*
G75*
G03X78750000Y-121412000I-3840000J0D01*
G01*
X74910000Y-117612000D02*
X74910000Y-125212000D01*
X74950000Y-117612000D02*
X74950000Y-125212000D01*
X74990000Y-117612000D02*
X74990000Y-125212000D01*
X75030000Y-117613000D02*
X75030000Y-125211000D01*
X75070000Y-117615000D02*
X75070000Y-125209000D01*
X75110000Y-117617000D02*
X75110000Y-125207000D01*
X75150000Y-117619000D02*
X75150000Y-125205000D01*
X75190000Y-117622000D02*
X75190000Y-120432000D01*
X75190000Y-122392000D02*
X75190000Y-125202000D01*
X75230000Y-117625000D02*
X75230000Y-120432000D01*
X75230000Y-122392000D02*
X75230000Y-125199000D01*
X75270000Y-117628000D02*
X75270000Y-120432000D01*
X75270000Y-122392000D02*
X75270000Y-125196000D01*
X75310000Y-117632000D02*
X75310000Y-120432000D01*
X75310000Y-122392000D02*
X75310000Y-125192000D01*
X75350000Y-117637000D02*
X75350000Y-120432000D01*
X75350000Y-122392000D02*
X75350000Y-125187000D01*
X75390000Y-117642000D02*
X75390000Y-120432000D01*
X75390000Y-122392000D02*
X75390000Y-125182000D01*
X75430000Y-117647000D02*
X75430000Y-120432000D01*
X75430000Y-122392000D02*
X75430000Y-125177000D01*
X75470000Y-117653000D02*
X75470000Y-120432000D01*
X75470000Y-122392000D02*
X75470000Y-125171000D01*
X75510000Y-117659000D02*
X75510000Y-120432000D01*
X75510000Y-122392000D02*
X75510000Y-125165000D01*
X75550000Y-117665000D02*
X75550000Y-120432000D01*
X75550000Y-122392000D02*
X75550000Y-125159000D01*
X75590000Y-117672000D02*
X75590000Y-120432000D01*
X75590000Y-122392000D02*
X75590000Y-125152000D01*
X75631000Y-117680000D02*
X75631000Y-120432000D01*
X75631000Y-122392000D02*
X75631000Y-125144000D01*
X75671000Y-117687000D02*
X75671000Y-120432000D01*
X75671000Y-122392000D02*
X75671000Y-125137000D01*
X75711000Y-117696000D02*
X75711000Y-120432000D01*
X75711000Y-122392000D02*
X75711000Y-125128000D01*
X75751000Y-117705000D02*
X75751000Y-120432000D01*
X75751000Y-122392000D02*
X75751000Y-125119000D01*
X75791000Y-117714000D02*
X75791000Y-120432000D01*
X75791000Y-122392000D02*
X75791000Y-125110000D01*
X75831000Y-117723000D02*
X75831000Y-120432000D01*
X75831000Y-122392000D02*
X75831000Y-125101000D01*
X75871000Y-117733000D02*
X75871000Y-120432000D01*
X75871000Y-122392000D02*
X75871000Y-125091000D01*
X75911000Y-117744000D02*
X75911000Y-120432000D01*
X75911000Y-122392000D02*
X75911000Y-125080000D01*
X75951000Y-117755000D02*
X75951000Y-120432000D01*
X75951000Y-122392000D02*
X75951000Y-125069000D01*
X75991000Y-117767000D02*
X75991000Y-120432000D01*
X75991000Y-122392000D02*
X75991000Y-125057000D01*
X76031000Y-117778000D02*
X76031000Y-120432000D01*
X76031000Y-122392000D02*
X76031000Y-125046000D01*
X76071000Y-117791000D02*
X76071000Y-120432000D01*
X76071000Y-122392000D02*
X76071000Y-125033000D01*
X76111000Y-117804000D02*
X76111000Y-120432000D01*
X76111000Y-122392000D02*
X76111000Y-125020000D01*
X76151000Y-117817000D02*
X76151000Y-120432000D01*
X76151000Y-122392000D02*
X76151000Y-125007000D01*
X76191000Y-117831000D02*
X76191000Y-120432000D01*
X76191000Y-122392000D02*
X76191000Y-124993000D01*
X76231000Y-117846000D02*
X76231000Y-120432000D01*
X76231000Y-122392000D02*
X76231000Y-124978000D01*
X76271000Y-117860000D02*
X76271000Y-120432000D01*
X76271000Y-122392000D02*
X76271000Y-124964000D01*
X76311000Y-117876000D02*
X76311000Y-120432000D01*
X76311000Y-122392000D02*
X76311000Y-124948000D01*
X76351000Y-117892000D02*
X76351000Y-120432000D01*
X76351000Y-122392000D02*
X76351000Y-124932000D01*
X76391000Y-117908000D02*
X76391000Y-120432000D01*
X76391000Y-122392000D02*
X76391000Y-124916000D01*
X76431000Y-117925000D02*
X76431000Y-120432000D01*
X76431000Y-122392000D02*
X76431000Y-124899000D01*
X76471000Y-117943000D02*
X76471000Y-120432000D01*
X76471000Y-122392000D02*
X76471000Y-124881000D01*
X76511000Y-117961000D02*
X76511000Y-120432000D01*
X76511000Y-122392000D02*
X76511000Y-124863000D01*
X76551000Y-117979000D02*
X76551000Y-120432000D01*
X76551000Y-122392000D02*
X76551000Y-124845000D01*
X76591000Y-117999000D02*
X76591000Y-120432000D01*
X76591000Y-122392000D02*
X76591000Y-124825000D01*
X76631000Y-118018000D02*
X76631000Y-120432000D01*
X76631000Y-122392000D02*
X76631000Y-124806000D01*
X76671000Y-118039000D02*
X76671000Y-120432000D01*
X76671000Y-122392000D02*
X76671000Y-124785000D01*
X76711000Y-118060000D02*
X76711000Y-120432000D01*
X76711000Y-122392000D02*
X76711000Y-124764000D01*
X76751000Y-118081000D02*
X76751000Y-120432000D01*
X76751000Y-122392000D02*
X76751000Y-124743000D01*
X76791000Y-118103000D02*
X76791000Y-120432000D01*
X76791000Y-122392000D02*
X76791000Y-124721000D01*
X76831000Y-118126000D02*
X76831000Y-120432000D01*
X76831000Y-122392000D02*
X76831000Y-124698000D01*
X76871000Y-118149000D02*
X76871000Y-120432000D01*
X76871000Y-122392000D02*
X76871000Y-124675000D01*
X76911000Y-118173000D02*
X76911000Y-120432000D01*
X76911000Y-122392000D02*
X76911000Y-124651000D01*
X76951000Y-118198000D02*
X76951000Y-120432000D01*
X76951000Y-122392000D02*
X76951000Y-124626000D01*
X76991000Y-118224000D02*
X76991000Y-120432000D01*
X76991000Y-122392000D02*
X76991000Y-124600000D01*
X77031000Y-118250000D02*
X77031000Y-120432000D01*
X77031000Y-122392000D02*
X77031000Y-124574000D01*
X77071000Y-118277000D02*
X77071000Y-120432000D01*
X77071000Y-122392000D02*
X77071000Y-124547000D01*
X77111000Y-118304000D02*
X77111000Y-120432000D01*
X77111000Y-122392000D02*
X77111000Y-124520000D01*
X77151000Y-118333000D02*
X77151000Y-124491000D01*
X77191000Y-118362000D02*
X77191000Y-124462000D01*
X77231000Y-118392000D02*
X77231000Y-124432000D01*
X77271000Y-118422000D02*
X77271000Y-124402000D01*
X77311000Y-118454000D02*
X77311000Y-124370000D01*
X77351000Y-118486000D02*
X77351000Y-124338000D01*
X77391000Y-118520000D02*
X77391000Y-124304000D01*
X77431000Y-118554000D02*
X77431000Y-124270000D01*
X77471000Y-118589000D02*
X77471000Y-124235000D01*
X77511000Y-118626000D02*
X77511000Y-124198000D01*
X77551000Y-118663000D02*
X77551000Y-124161000D01*
X77591000Y-118701000D02*
X77591000Y-124123000D01*
X77631000Y-118741000D02*
X77631000Y-124083000D01*
X77671000Y-118782000D02*
X77671000Y-124042000D01*
X77711000Y-118824000D02*
X77711000Y-124000000D01*
X77751000Y-118867000D02*
X77751000Y-123957000D01*
X77791000Y-118912000D02*
X77791000Y-123912000D01*
X77831000Y-118958000D02*
X77831000Y-123866000D01*
X77871000Y-119005000D02*
X77871000Y-123819000D01*
X77911000Y-119055000D02*
X77911000Y-123769000D01*
X77951000Y-119105000D02*
X77951000Y-123719000D01*
X77991000Y-119158000D02*
X77991000Y-123666000D01*
X78031000Y-119213000D02*
X78031000Y-123611000D01*
X78071000Y-119270000D02*
X78071000Y-123554000D01*
X78111000Y-119329000D02*
X78111000Y-123495000D01*
X78151000Y-119390000D02*
X78151000Y-123434000D01*
X78191000Y-119455000D02*
X78191000Y-123369000D01*
X78231000Y-119522000D02*
X78231000Y-123302000D01*
X78271000Y-119592000D02*
X78271000Y-123232000D01*
X78311000Y-119667000D02*
X78311000Y-123157000D01*
X78351000Y-119745000D02*
X78351000Y-123079000D01*
X78391000Y-119828000D02*
X78391000Y-122996000D01*
X78431000Y-119917000D02*
X78431000Y-122907000D01*
X78471000Y-120012000D02*
X78471000Y-122812000D01*
X78511000Y-120115000D02*
X78511000Y-122709000D01*
X78551000Y-120228000D02*
X78551000Y-122596000D01*
X78591000Y-120355000D02*
X78591000Y-122469000D01*
X78631000Y-120499000D02*
X78631000Y-122325000D01*
X78671000Y-120672000D02*
X78671000Y-122152000D01*
X78711000Y-120899000D02*
X78711000Y-121925000D01*
X71460000Y-121412000D02*
X72660000Y-121412000D01*
X72060000Y-120762000D02*
X72060000Y-122062000D01*
G04 #@! TO.C,D1*
X86960000Y-111700000D02*
X86960000Y-114520000D01*
X86960000Y-114520000D02*
X92280000Y-114520000D01*
X92280000Y-114520000D02*
X92280000Y-111700000D01*
X92280000Y-111700000D02*
X86960000Y-111700000D01*
X85820000Y-113110000D02*
X86960000Y-113110000D01*
X93420000Y-113110000D02*
X92280000Y-113110000D01*
X87800000Y-111700000D02*
X87800000Y-114520000D01*
D11*
G04 #@! TO.C,J1*
X101346000Y-68326000D02*
X101346000Y-68834000D01*
X101854000Y-68326000D02*
X101854000Y-68834000D01*
X103886000Y-68326000D02*
X103886000Y-68834000D01*
X104394000Y-68326000D02*
X104394000Y-68834000D01*
X99314000Y-68326000D02*
X99314000Y-68834000D01*
X98806000Y-68326000D02*
X98806000Y-68834000D01*
X96774000Y-68326000D02*
X96774000Y-68834000D01*
X96266000Y-68326000D02*
X96266000Y-68834000D01*
X94234000Y-68326000D02*
X94234000Y-68834000D01*
X93726000Y-68326000D02*
X93726000Y-68834000D01*
X91694000Y-68326000D02*
X91694000Y-68834000D01*
X91186000Y-68326000D02*
X91186000Y-68834000D01*
X131826000Y-68326000D02*
X131826000Y-68834000D01*
X132334000Y-68326000D02*
X132334000Y-68834000D01*
X134366000Y-68326000D02*
X134366000Y-68834000D01*
X134874000Y-68326000D02*
X134874000Y-68834000D01*
X129794000Y-68326000D02*
X129794000Y-68834000D01*
X129286000Y-68326000D02*
X129286000Y-68834000D01*
X127254000Y-68326000D02*
X127254000Y-68834000D01*
X126746000Y-68326000D02*
X126746000Y-68834000D01*
X136906000Y-68326000D02*
X136906000Y-68834000D01*
X137414000Y-68326000D02*
X137414000Y-68834000D01*
X139446000Y-68326000D02*
X139446000Y-68834000D01*
X139954000Y-68326000D02*
X139954000Y-68834000D01*
X121666000Y-68326000D02*
X121666000Y-68834000D01*
X122174000Y-68326000D02*
X122174000Y-68834000D01*
X124206000Y-68326000D02*
X124206000Y-68834000D01*
X124714000Y-68326000D02*
X124714000Y-68834000D01*
X119634000Y-68326000D02*
X119634000Y-68834000D01*
X119126000Y-68326000D02*
X119126000Y-68834000D01*
X117094000Y-68326000D02*
X117094000Y-68834000D01*
X116586000Y-68326000D02*
X116586000Y-68834000D01*
X106426000Y-68326000D02*
X106426000Y-68834000D01*
X106934000Y-68326000D02*
X106934000Y-68834000D01*
X108966000Y-68326000D02*
X108966000Y-68834000D01*
X109474000Y-68326000D02*
X109474000Y-68834000D01*
X114554000Y-68326000D02*
X114554000Y-68834000D01*
X114046000Y-68326000D02*
X114046000Y-68834000D01*
X112014000Y-68326000D02*
X112014000Y-68834000D01*
X111506000Y-68326000D02*
X111506000Y-68834000D01*
X136906000Y-65786000D02*
X136906000Y-66294000D01*
X137414000Y-65786000D02*
X137414000Y-66294000D01*
X139446000Y-65786000D02*
X139446000Y-66294000D01*
X139954000Y-65786000D02*
X139954000Y-66294000D01*
X134874000Y-65786000D02*
X134874000Y-66294000D01*
X134366000Y-65786000D02*
X134366000Y-66294000D01*
X132334000Y-65786000D02*
X132334000Y-66294000D01*
X131826000Y-65786000D02*
X131826000Y-66294000D01*
X116586000Y-65786000D02*
X116586000Y-66294000D01*
X117094000Y-65786000D02*
X117094000Y-66294000D01*
X119126000Y-65786000D02*
X119126000Y-66294000D01*
X119634000Y-65786000D02*
X119634000Y-66294000D01*
X114554000Y-65786000D02*
X114554000Y-66294000D01*
X114046000Y-65786000D02*
X114046000Y-66294000D01*
X112014000Y-65786000D02*
X112014000Y-66294000D01*
X111506000Y-65786000D02*
X111506000Y-66294000D01*
X121666000Y-65786000D02*
X121666000Y-66294000D01*
X122174000Y-65786000D02*
X122174000Y-66294000D01*
X124206000Y-65786000D02*
X124206000Y-66294000D01*
X124714000Y-65786000D02*
X124714000Y-66294000D01*
X129794000Y-65786000D02*
X129794000Y-66294000D01*
X129286000Y-65786000D02*
X129286000Y-66294000D01*
X127254000Y-65786000D02*
X127254000Y-66294000D01*
X126746000Y-65786000D02*
X126746000Y-66294000D01*
X106426000Y-65786000D02*
X106426000Y-66294000D01*
X106934000Y-65786000D02*
X106934000Y-66294000D01*
X108966000Y-65786000D02*
X108966000Y-66294000D01*
X109474000Y-65786000D02*
X109474000Y-66294000D01*
X104394000Y-65786000D02*
X104394000Y-66294000D01*
X103886000Y-65786000D02*
X103886000Y-66294000D01*
X101854000Y-65786000D02*
X101854000Y-66294000D01*
X101346000Y-65786000D02*
X101346000Y-66294000D01*
X91186000Y-65786000D02*
X91186000Y-66294000D01*
X91694000Y-65786000D02*
X91694000Y-66294000D01*
X93726000Y-65786000D02*
X93726000Y-66294000D01*
X94234000Y-65786000D02*
X94234000Y-66294000D01*
X99314000Y-65786000D02*
X99314000Y-66294000D01*
X98806000Y-65786000D02*
X98806000Y-66294000D01*
X96774000Y-65786000D02*
X96774000Y-66294000D01*
X96266000Y-65786000D02*
X96266000Y-66294000D01*
X89890000Y-69850000D02*
X89890000Y-71000000D01*
X89890000Y-71000000D02*
X91440000Y-71000000D01*
X91313000Y-63246000D02*
X91313000Y-57277000D01*
X91313000Y-57277000D02*
X91567000Y-57277000D01*
X91567000Y-57277000D02*
X91567000Y-63119000D01*
X91567000Y-63119000D02*
X91440000Y-63119000D01*
X91440000Y-63119000D02*
X91440000Y-57277000D01*
X130810000Y-65786000D02*
X130810000Y-63246000D01*
X130810000Y-65786000D02*
X133350000Y-65786000D01*
X133350000Y-65786000D02*
X133350000Y-63246000D01*
X131826000Y-63246000D02*
X131826000Y-57150000D01*
X131826000Y-57150000D02*
X132334000Y-57150000D01*
X132334000Y-57150000D02*
X132334000Y-63246000D01*
X133350000Y-63246000D02*
X130810000Y-63246000D01*
X135890000Y-63246000D02*
X133350000Y-63246000D01*
X134874000Y-57150000D02*
X134874000Y-63246000D01*
X134366000Y-57150000D02*
X134874000Y-57150000D01*
X134366000Y-63246000D02*
X134366000Y-57150000D01*
X135890000Y-65786000D02*
X135890000Y-63246000D01*
X133350000Y-65786000D02*
X135890000Y-65786000D01*
X133350000Y-65786000D02*
X133350000Y-63246000D01*
X138430000Y-65786000D02*
X138430000Y-63246000D01*
X138430000Y-65786000D02*
X140970000Y-65786000D01*
X139446000Y-63246000D02*
X139446000Y-57150000D01*
X139446000Y-57150000D02*
X139954000Y-57150000D01*
X139954000Y-57150000D02*
X139954000Y-63246000D01*
X140970000Y-63246000D02*
X138430000Y-63246000D01*
X138430000Y-63246000D02*
X135890000Y-63246000D01*
X137414000Y-57150000D02*
X137414000Y-63246000D01*
X136906000Y-57150000D02*
X137414000Y-57150000D01*
X136906000Y-63246000D02*
X136906000Y-57150000D01*
X138430000Y-65786000D02*
X138430000Y-63246000D01*
X135890000Y-65786000D02*
X138430000Y-65786000D01*
X135890000Y-65786000D02*
X135890000Y-63246000D01*
X140970000Y-65786000D02*
X140970000Y-63246000D01*
X110490000Y-65786000D02*
X110490000Y-63246000D01*
X110490000Y-65786000D02*
X113030000Y-65786000D01*
X113030000Y-65786000D02*
X113030000Y-63246000D01*
X111506000Y-63246000D02*
X111506000Y-57150000D01*
X111506000Y-57150000D02*
X112014000Y-57150000D01*
X112014000Y-57150000D02*
X112014000Y-63246000D01*
X113030000Y-63246000D02*
X110490000Y-63246000D01*
X115570000Y-63246000D02*
X113030000Y-63246000D01*
X114554000Y-57150000D02*
X114554000Y-63246000D01*
X114046000Y-57150000D02*
X114554000Y-57150000D01*
X114046000Y-63246000D02*
X114046000Y-57150000D01*
X115570000Y-65786000D02*
X115570000Y-63246000D01*
X113030000Y-65786000D02*
X115570000Y-65786000D01*
X113030000Y-65786000D02*
X113030000Y-63246000D01*
X118110000Y-65786000D02*
X118110000Y-63246000D01*
X118110000Y-65786000D02*
X120650000Y-65786000D01*
X120650000Y-65786000D02*
X120650000Y-63246000D01*
X119126000Y-63246000D02*
X119126000Y-57150000D01*
X119126000Y-57150000D02*
X119634000Y-57150000D01*
X119634000Y-57150000D02*
X119634000Y-63246000D01*
X120650000Y-63246000D02*
X118110000Y-63246000D01*
X118110000Y-63246000D02*
X115570000Y-63246000D01*
X117094000Y-57150000D02*
X117094000Y-63246000D01*
X116586000Y-57150000D02*
X117094000Y-57150000D01*
X116586000Y-63246000D02*
X116586000Y-57150000D01*
X118110000Y-65786000D02*
X118110000Y-63246000D01*
X115570000Y-65786000D02*
X118110000Y-65786000D01*
X115570000Y-65786000D02*
X115570000Y-63246000D01*
X125730000Y-65786000D02*
X125730000Y-63246000D01*
X125730000Y-65786000D02*
X128270000Y-65786000D01*
X128270000Y-65786000D02*
X128270000Y-63246000D01*
X126746000Y-63246000D02*
X126746000Y-57150000D01*
X126746000Y-57150000D02*
X127254000Y-57150000D01*
X127254000Y-57150000D02*
X127254000Y-63246000D01*
X128270000Y-63246000D02*
X125730000Y-63246000D01*
X130810000Y-63246000D02*
X128270000Y-63246000D01*
X129794000Y-57150000D02*
X129794000Y-63246000D01*
X129286000Y-57150000D02*
X129794000Y-57150000D01*
X129286000Y-63246000D02*
X129286000Y-57150000D01*
X130810000Y-65786000D02*
X130810000Y-63246000D01*
X128270000Y-65786000D02*
X130810000Y-65786000D01*
X128270000Y-65786000D02*
X128270000Y-63246000D01*
X123190000Y-65786000D02*
X123190000Y-63246000D01*
X123190000Y-65786000D02*
X125730000Y-65786000D01*
X125730000Y-65786000D02*
X125730000Y-63246000D01*
X124206000Y-63246000D02*
X124206000Y-57150000D01*
X124206000Y-57150000D02*
X124714000Y-57150000D01*
X124714000Y-57150000D02*
X124714000Y-63246000D01*
X125730000Y-63246000D02*
X123190000Y-63246000D01*
X123190000Y-63246000D02*
X120650000Y-63246000D01*
X122174000Y-57150000D02*
X122174000Y-63246000D01*
X121666000Y-57150000D02*
X122174000Y-57150000D01*
X121666000Y-63246000D02*
X121666000Y-57150000D01*
X123190000Y-65786000D02*
X123190000Y-63246000D01*
X120650000Y-65786000D02*
X123190000Y-65786000D01*
X120650000Y-65786000D02*
X120650000Y-63246000D01*
X100330000Y-65786000D02*
X100330000Y-63246000D01*
X100330000Y-65786000D02*
X102870000Y-65786000D01*
X102870000Y-65786000D02*
X102870000Y-63246000D01*
X101346000Y-63246000D02*
X101346000Y-57150000D01*
X101346000Y-57150000D02*
X101854000Y-57150000D01*
X101854000Y-57150000D02*
X101854000Y-63246000D01*
X102870000Y-63246000D02*
X100330000Y-63246000D01*
X105410000Y-63246000D02*
X102870000Y-63246000D01*
X104394000Y-57150000D02*
X104394000Y-63246000D01*
X103886000Y-57150000D02*
X104394000Y-57150000D01*
X103886000Y-63246000D02*
X103886000Y-57150000D01*
X105410000Y-65786000D02*
X105410000Y-63246000D01*
X102870000Y-65786000D02*
X105410000Y-65786000D01*
X102870000Y-65786000D02*
X102870000Y-63246000D01*
X107950000Y-65786000D02*
X107950000Y-63246000D01*
X107950000Y-65786000D02*
X110490000Y-65786000D01*
X110490000Y-65786000D02*
X110490000Y-63246000D01*
X108966000Y-63246000D02*
X108966000Y-57150000D01*
X108966000Y-57150000D02*
X109474000Y-57150000D01*
X109474000Y-57150000D02*
X109474000Y-63246000D01*
X110490000Y-63246000D02*
X107950000Y-63246000D01*
X107950000Y-63246000D02*
X105410000Y-63246000D01*
X106934000Y-57150000D02*
X106934000Y-63246000D01*
X106426000Y-57150000D02*
X106934000Y-57150000D01*
X106426000Y-63246000D02*
X106426000Y-57150000D01*
X107950000Y-65786000D02*
X107950000Y-63246000D01*
X105410000Y-65786000D02*
X107950000Y-65786000D01*
X105410000Y-65786000D02*
X105410000Y-63246000D01*
X95250000Y-65786000D02*
X95250000Y-63246000D01*
X95250000Y-65786000D02*
X97790000Y-65786000D01*
X97790000Y-65786000D02*
X97790000Y-63246000D01*
X96266000Y-63246000D02*
X96266000Y-57150000D01*
X96266000Y-57150000D02*
X96774000Y-57150000D01*
X96774000Y-57150000D02*
X96774000Y-63246000D01*
X97790000Y-63246000D02*
X95250000Y-63246000D01*
X100330000Y-63246000D02*
X97790000Y-63246000D01*
X99314000Y-57150000D02*
X99314000Y-63246000D01*
X98806000Y-57150000D02*
X99314000Y-57150000D01*
X98806000Y-63246000D02*
X98806000Y-57150000D01*
X100330000Y-65786000D02*
X100330000Y-63246000D01*
X97790000Y-65786000D02*
X100330000Y-65786000D01*
X97790000Y-65786000D02*
X97790000Y-63246000D01*
X92710000Y-65786000D02*
X92710000Y-63246000D01*
X92710000Y-65786000D02*
X95250000Y-65786000D01*
X95250000Y-65786000D02*
X95250000Y-63246000D01*
X93726000Y-63246000D02*
X93726000Y-57150000D01*
X93726000Y-57150000D02*
X94234000Y-57150000D01*
X94234000Y-57150000D02*
X94234000Y-63246000D01*
X95250000Y-63246000D02*
X92710000Y-63246000D01*
X92710000Y-63246000D02*
X90170000Y-63246000D01*
X91694000Y-57150000D02*
X91694000Y-63246000D01*
X91186000Y-57150000D02*
X91694000Y-57150000D01*
X91186000Y-63246000D02*
X91186000Y-57150000D01*
X92710000Y-65786000D02*
X92710000Y-63246000D01*
X90170000Y-65786000D02*
X92710000Y-65786000D01*
X90170000Y-65786000D02*
X90170000Y-63246000D01*
D13*
G04 #@! TO.C,R1*
X86960000Y-81570000D02*
X86960000Y-81240000D01*
X86960000Y-81240000D02*
X93380000Y-81240000D01*
X93380000Y-81240000D02*
X93380000Y-81570000D01*
X86960000Y-83530000D02*
X86960000Y-83860000D01*
X86960000Y-83860000D02*
X93380000Y-83860000D01*
X93380000Y-83860000D02*
X93380000Y-83530000D01*
G04 #@! TO.C,R2*
X87700000Y-108670000D02*
X87700000Y-108340000D01*
X87700000Y-108340000D02*
X94120000Y-108340000D01*
X94120000Y-108340000D02*
X94120000Y-108670000D01*
X87700000Y-110630000D02*
X87700000Y-110960000D01*
X87700000Y-110960000D02*
X94120000Y-110960000D01*
X94120000Y-110960000D02*
X94120000Y-110630000D01*
G04 #@! TO.C,R3*
X93380000Y-89880000D02*
X93380000Y-90210000D01*
X93380000Y-90210000D02*
X86960000Y-90210000D01*
X86960000Y-90210000D02*
X86960000Y-89880000D01*
X93380000Y-87920000D02*
X93380000Y-87590000D01*
X93380000Y-87590000D02*
X86960000Y-87590000D01*
X86960000Y-87590000D02*
X86960000Y-87920000D01*
G04 #@! TO.C,R4*
X93380000Y-94960000D02*
X93380000Y-95290000D01*
X93380000Y-95290000D02*
X86960000Y-95290000D01*
X86960000Y-95290000D02*
X86960000Y-94960000D01*
X93380000Y-93000000D02*
X93380000Y-92670000D01*
X93380000Y-92670000D02*
X86960000Y-92670000D01*
X86960000Y-92670000D02*
X86960000Y-93000000D01*
G04 #@! TO.C,RN1*
X118240000Y-91270000D02*
X115440000Y-91270000D01*
X115440000Y-91270000D02*
X115440000Y-114470000D01*
X115440000Y-114470000D02*
X118240000Y-114470000D01*
X118240000Y-114470000D02*
X118240000Y-91270000D01*
X118240000Y-93980000D02*
X115440000Y-93980000D01*
D14*
G04 #@! TO.C,ON*
X79420000Y-116400000D02*
X78920000Y-116400000D01*
X79420000Y-116400000D02*
X79420000Y-115900000D01*
X67520000Y-116400000D02*
X68020000Y-116400000D01*
X67520000Y-116400000D02*
X67520000Y-115900000D01*
X67520000Y-112200000D02*
X68020000Y-112200000D01*
X67520000Y-112200000D02*
X67520000Y-112700000D01*
X79420000Y-112200000D02*
X79420000Y-112700000D01*
X79420000Y-112200000D02*
X78920000Y-112200000D01*
D11*
G04 #@! TO.C,RESET SW*
X73800000Y-106280000D02*
X78300000Y-106280000D01*
X72550000Y-102280000D02*
X72550000Y-103780000D01*
X78300000Y-99780000D02*
X73800000Y-99780000D01*
X79550000Y-103780000D02*
X79550000Y-102280000D01*
G04 #@! TO.C,U1*
X123325000Y-76445000D02*
X123325000Y-77715000D01*
X138295000Y-76445000D02*
X138295000Y-77715000D01*
X138295000Y-129295000D02*
X138295000Y-128025000D01*
X123325000Y-129295000D02*
X123325000Y-128025000D01*
X123325000Y-76445000D02*
X138295000Y-76445000D01*
X123325000Y-129295000D02*
X138295000Y-129295000D01*
X123325000Y-77715000D02*
X122390000Y-77715000D01*
D13*
G04 #@! TO.C,U2*
X103140000Y-109100000D02*
X101370000Y-109100000D01*
X101370000Y-109100000D02*
X101370000Y-127120000D01*
X101370000Y-127120000D02*
X106910000Y-127120000D01*
X106910000Y-127120000D02*
X106910000Y-109100000D01*
X106910000Y-109100000D02*
X105140000Y-109100000D01*
X98940000Y-109100000D02*
X98940000Y-127120000D01*
X98940000Y-127120000D02*
X109340000Y-127120000D01*
X109340000Y-127120000D02*
X109340000Y-109100000D01*
X109340000Y-109100000D02*
X98940000Y-109100000D01*
X105140000Y-109100000D02*
G75*
G02X103140000Y-109100000I-1000000J0D01*
G01*
G04 #@! TO.C,U3*
X103140000Y-87510000D02*
X101370000Y-87510000D01*
X101370000Y-87510000D02*
X101370000Y-105530000D01*
X101370000Y-105530000D02*
X106910000Y-105530000D01*
X106910000Y-105530000D02*
X106910000Y-87510000D01*
X106910000Y-87510000D02*
X105140000Y-87510000D01*
X98940000Y-87510000D02*
X98940000Y-105530000D01*
X98940000Y-105530000D02*
X109340000Y-105530000D01*
X109340000Y-105530000D02*
X109340000Y-87510000D01*
X109340000Y-87510000D02*
X98940000Y-87510000D01*
X105140000Y-87510000D02*
G75*
G02X103140000Y-87510000I-1000000J0D01*
G01*
G04 #@! TO.C,U4*
X148860000Y-110370000D02*
X147090000Y-110370000D01*
X147090000Y-110370000D02*
X147090000Y-128390000D01*
X147090000Y-128390000D02*
X152630000Y-128390000D01*
X152630000Y-128390000D02*
X152630000Y-110370000D01*
X152630000Y-110370000D02*
X150860000Y-110370000D01*
X144660000Y-110370000D02*
X144660000Y-128390000D01*
X144660000Y-128390000D02*
X155060000Y-128390000D01*
X155060000Y-128390000D02*
X155060000Y-110370000D01*
X155060000Y-110370000D02*
X144660000Y-110370000D01*
X150860000Y-110370000D02*
G75*
G02X148860000Y-110370000I-1000000J0D01*
G01*
G04 #@! TO.C,Y1*
X83805000Y-88140000D02*
X83805000Y-94540000D01*
X78755000Y-88140000D02*
X78755000Y-94540000D01*
X78755000Y-88140000D02*
G75*
G02X83805000Y-88140000I2525000J0D01*
G01*
X78755000Y-94540000D02*
G75*
G03X83805000Y-94540000I2525000J0D01*
G01*
G04 #@! TO.C,POWER LED*
X73677665Y-77928608D02*
G75*
G03X76910000Y-78085516I1672335J1078608D01*
G01*
X73677665Y-75771392D02*
G75*
G02X76910000Y-75614484I1672335J-1078608D01*
G01*
X74308870Y-77929837D02*
G75*
G03X76390961Y-77930000I1041130J1079837D01*
G01*
X74308870Y-75770163D02*
G75*
G02X76390961Y-75770000I1041130J-1079837D01*
G01*
X76910000Y-78086000D02*
X76910000Y-77930000D01*
X76910000Y-75770000D02*
X76910000Y-75614000D01*
G04 #@! TO.C,R5*
X77510000Y-83040000D02*
X77510000Y-83370000D01*
X77510000Y-83370000D02*
X71090000Y-83370000D01*
X71090000Y-83370000D02*
X71090000Y-83040000D01*
X77510000Y-81080000D02*
X77510000Y-80750000D01*
X77510000Y-80750000D02*
X71090000Y-80750000D01*
X71090000Y-80750000D02*
X71090000Y-81080000D01*
G04 #@! TO.C,J2*
D11*
X80224380Y-124539333D02*
X80938666Y-124539333D01*
X81081523Y-124586952D01*
X81176761Y-124682190D01*
X81224380Y-124825047D01*
X81224380Y-124920285D01*
X80319619Y-124110761D02*
X80272000Y-124063142D01*
X80224380Y-123967904D01*
X80224380Y-123729809D01*
X80272000Y-123634571D01*
X80319619Y-123586952D01*
X80414857Y-123539333D01*
X80510095Y-123539333D01*
X80652952Y-123586952D01*
X81224380Y-124158380D01*
X81224380Y-123539333D01*
G04 #@! TO.C,C1*
X130623333Y-101937142D02*
X130575714Y-101984761D01*
X130432857Y-102032380D01*
X130337619Y-102032380D01*
X130194761Y-101984761D01*
X130099523Y-101889523D01*
X130051904Y-101794285D01*
X130004285Y-101603809D01*
X130004285Y-101460952D01*
X130051904Y-101270476D01*
X130099523Y-101175238D01*
X130194761Y-101080000D01*
X130337619Y-101032380D01*
X130432857Y-101032380D01*
X130575714Y-101080000D01*
X130623333Y-101127619D01*
X131575714Y-102032380D02*
X131004285Y-102032380D01*
X131290000Y-102032380D02*
X131290000Y-101032380D01*
X131194761Y-101175238D01*
X131099523Y-101270476D01*
X131004285Y-101318095D01*
G04 #@! TO.C,C2*
X84897142Y-101726666D02*
X84944761Y-101774285D01*
X84992380Y-101917142D01*
X84992380Y-102012380D01*
X84944761Y-102155238D01*
X84849523Y-102250476D01*
X84754285Y-102298095D01*
X84563809Y-102345714D01*
X84420952Y-102345714D01*
X84230476Y-102298095D01*
X84135238Y-102250476D01*
X84040000Y-102155238D01*
X83992380Y-102012380D01*
X83992380Y-101917142D01*
X84040000Y-101774285D01*
X84087619Y-101726666D01*
X84087619Y-101345714D02*
X84040000Y-101298095D01*
X83992380Y-101202857D01*
X83992380Y-100964761D01*
X84040000Y-100869523D01*
X84087619Y-100821904D01*
X84182857Y-100774285D01*
X84278095Y-100774285D01*
X84420952Y-100821904D01*
X84992380Y-101393333D01*
X84992380Y-100774285D01*
G04 #@! TO.C,C3*
X107275333Y-85193142D02*
X107227714Y-85240761D01*
X107084857Y-85288380D01*
X106989619Y-85288380D01*
X106846761Y-85240761D01*
X106751523Y-85145523D01*
X106703904Y-85050285D01*
X106656285Y-84859809D01*
X106656285Y-84716952D01*
X106703904Y-84526476D01*
X106751523Y-84431238D01*
X106846761Y-84336000D01*
X106989619Y-84288380D01*
X107084857Y-84288380D01*
X107227714Y-84336000D01*
X107275333Y-84383619D01*
X107608666Y-84288380D02*
X108227714Y-84288380D01*
X107894380Y-84669333D01*
X108037238Y-84669333D01*
X108132476Y-84716952D01*
X108180095Y-84764571D01*
X108227714Y-84859809D01*
X108227714Y-85097904D01*
X108180095Y-85193142D01*
X108132476Y-85240761D01*
X108037238Y-85288380D01*
X107751523Y-85288380D01*
X107656285Y-85240761D01*
X107608666Y-85193142D01*
G04 #@! TO.C,C4*
X148423333Y-108307142D02*
X148375714Y-108354761D01*
X148232857Y-108402380D01*
X148137619Y-108402380D01*
X147994761Y-108354761D01*
X147899523Y-108259523D01*
X147851904Y-108164285D01*
X147804285Y-107973809D01*
X147804285Y-107830952D01*
X147851904Y-107640476D01*
X147899523Y-107545238D01*
X147994761Y-107450000D01*
X148137619Y-107402380D01*
X148232857Y-107402380D01*
X148375714Y-107450000D01*
X148423333Y-107497619D01*
X149280476Y-107735714D02*
X149280476Y-108402380D01*
X149042380Y-107354761D02*
X148804285Y-108069047D01*
X149423333Y-108069047D01*
G04 #@! TO.C,C5*
X107275333Y-107037142D02*
X107227714Y-107084761D01*
X107084857Y-107132380D01*
X106989619Y-107132380D01*
X106846761Y-107084761D01*
X106751523Y-106989523D01*
X106703904Y-106894285D01*
X106656285Y-106703809D01*
X106656285Y-106560952D01*
X106703904Y-106370476D01*
X106751523Y-106275238D01*
X106846761Y-106180000D01*
X106989619Y-106132380D01*
X107084857Y-106132380D01*
X107227714Y-106180000D01*
X107275333Y-106227619D01*
X108180095Y-106132380D02*
X107703904Y-106132380D01*
X107656285Y-106608571D01*
X107703904Y-106560952D01*
X107799142Y-106513333D01*
X108037238Y-106513333D01*
X108132476Y-106560952D01*
X108180095Y-106608571D01*
X108227714Y-106703809D01*
X108227714Y-106941904D01*
X108180095Y-107037142D01*
X108132476Y-107084761D01*
X108037238Y-107132380D01*
X107799142Y-107132380D01*
X107703904Y-107084761D01*
X107656285Y-107037142D01*
G04 #@! TO.C,C6*
X76577142Y-89046666D02*
X76624761Y-89094285D01*
X76672380Y-89237142D01*
X76672380Y-89332380D01*
X76624761Y-89475238D01*
X76529523Y-89570476D01*
X76434285Y-89618095D01*
X76243809Y-89665714D01*
X76100952Y-89665714D01*
X75910476Y-89618095D01*
X75815238Y-89570476D01*
X75720000Y-89475238D01*
X75672380Y-89332380D01*
X75672380Y-89237142D01*
X75720000Y-89094285D01*
X75767619Y-89046666D01*
X75672380Y-88189523D02*
X75672380Y-88380000D01*
X75720000Y-88475238D01*
X75767619Y-88522857D01*
X75910476Y-88618095D01*
X76100952Y-88665714D01*
X76481904Y-88665714D01*
X76577142Y-88618095D01*
X76624761Y-88570476D01*
X76672380Y-88475238D01*
X76672380Y-88284761D01*
X76624761Y-88189523D01*
X76577142Y-88141904D01*
X76481904Y-88094285D01*
X76243809Y-88094285D01*
X76148571Y-88141904D01*
X76100952Y-88189523D01*
X76053333Y-88284761D01*
X76053333Y-88475238D01*
X76100952Y-88570476D01*
X76148571Y-88618095D01*
X76243809Y-88665714D01*
G04 #@! TO.C,C7*
X76557142Y-95416666D02*
X76604761Y-95464285D01*
X76652380Y-95607142D01*
X76652380Y-95702380D01*
X76604761Y-95845238D01*
X76509523Y-95940476D01*
X76414285Y-95988095D01*
X76223809Y-96035714D01*
X76080952Y-96035714D01*
X75890476Y-95988095D01*
X75795238Y-95940476D01*
X75700000Y-95845238D01*
X75652380Y-95702380D01*
X75652380Y-95607142D01*
X75700000Y-95464285D01*
X75747619Y-95416666D01*
X75652380Y-95083333D02*
X75652380Y-94416666D01*
X76652380Y-94845238D01*
G04 #@! TO.C,C8*
X74743333Y-126595142D02*
X74695714Y-126642761D01*
X74552857Y-126690380D01*
X74457619Y-126690380D01*
X74314761Y-126642761D01*
X74219523Y-126547523D01*
X74171904Y-126452285D01*
X74124285Y-126261809D01*
X74124285Y-126118952D01*
X74171904Y-125928476D01*
X74219523Y-125833238D01*
X74314761Y-125738000D01*
X74457619Y-125690380D01*
X74552857Y-125690380D01*
X74695714Y-125738000D01*
X74743333Y-125785619D01*
X75314761Y-126118952D02*
X75219523Y-126071333D01*
X75171904Y-126023714D01*
X75124285Y-125928476D01*
X75124285Y-125880857D01*
X75171904Y-125785619D01*
X75219523Y-125738000D01*
X75314761Y-125690380D01*
X75505238Y-125690380D01*
X75600476Y-125738000D01*
X75648095Y-125785619D01*
X75695714Y-125880857D01*
X75695714Y-125928476D01*
X75648095Y-126023714D01*
X75600476Y-126071333D01*
X75505238Y-126118952D01*
X75314761Y-126118952D01*
X75219523Y-126166571D01*
X75171904Y-126214190D01*
X75124285Y-126309428D01*
X75124285Y-126499904D01*
X75171904Y-126595142D01*
X75219523Y-126642761D01*
X75314761Y-126690380D01*
X75505238Y-126690380D01*
X75600476Y-126642761D01*
X75648095Y-126595142D01*
X75695714Y-126499904D01*
X75695714Y-126309428D01*
X75648095Y-126214190D01*
X75600476Y-126166571D01*
X75505238Y-126118952D01*
G04 #@! TO.C,D1*
X89177904Y-115768380D02*
X89177904Y-114768380D01*
X89416000Y-114768380D01*
X89558857Y-114816000D01*
X89654095Y-114911238D01*
X89701714Y-115006476D01*
X89749333Y-115196952D01*
X89749333Y-115339809D01*
X89701714Y-115530285D01*
X89654095Y-115625523D01*
X89558857Y-115720761D01*
X89416000Y-115768380D01*
X89177904Y-115768380D01*
X90701714Y-115768380D02*
X90130285Y-115768380D01*
X90416000Y-115768380D02*
X90416000Y-114768380D01*
X90320761Y-114911238D01*
X90225523Y-115006476D01*
X90130285Y-115054095D01*
G04 #@! TO.C,J1*
X87844380Y-69929333D02*
X88558666Y-69929333D01*
X88701523Y-69976952D01*
X88796761Y-70072190D01*
X88844380Y-70215047D01*
X88844380Y-70310285D01*
X88844380Y-68929333D02*
X88844380Y-69500761D01*
X88844380Y-69215047D02*
X87844380Y-69215047D01*
X87987238Y-69310285D01*
X88082476Y-69405523D01*
X88130095Y-69500761D01*
G04 #@! TO.C,R1*
X90257333Y-80970380D02*
X89924000Y-80494190D01*
X89685904Y-80970380D02*
X89685904Y-79970380D01*
X90066857Y-79970380D01*
X90162095Y-80018000D01*
X90209714Y-80065619D01*
X90257333Y-80160857D01*
X90257333Y-80303714D01*
X90209714Y-80398952D01*
X90162095Y-80446571D01*
X90066857Y-80494190D01*
X89685904Y-80494190D01*
X91209714Y-80970380D02*
X90638285Y-80970380D01*
X90924000Y-80970380D02*
X90924000Y-79970380D01*
X90828761Y-80113238D01*
X90733523Y-80208476D01*
X90638285Y-80256095D01*
G04 #@! TO.C,R2*
X90743333Y-108148380D02*
X90410000Y-107672190D01*
X90171904Y-108148380D02*
X90171904Y-107148380D01*
X90552857Y-107148380D01*
X90648095Y-107196000D01*
X90695714Y-107243619D01*
X90743333Y-107338857D01*
X90743333Y-107481714D01*
X90695714Y-107576952D01*
X90648095Y-107624571D01*
X90552857Y-107672190D01*
X90171904Y-107672190D01*
X91124285Y-107243619D02*
X91171904Y-107196000D01*
X91267142Y-107148380D01*
X91505238Y-107148380D01*
X91600476Y-107196000D01*
X91648095Y-107243619D01*
X91695714Y-107338857D01*
X91695714Y-107434095D01*
X91648095Y-107576952D01*
X91076666Y-108148380D01*
X91695714Y-108148380D01*
G04 #@! TO.C,R3*
X90003333Y-87320380D02*
X89670000Y-86844190D01*
X89431904Y-87320380D02*
X89431904Y-86320380D01*
X89812857Y-86320380D01*
X89908095Y-86368000D01*
X89955714Y-86415619D01*
X90003333Y-86510857D01*
X90003333Y-86653714D01*
X89955714Y-86748952D01*
X89908095Y-86796571D01*
X89812857Y-86844190D01*
X89431904Y-86844190D01*
X90336666Y-86320380D02*
X90955714Y-86320380D01*
X90622380Y-86701333D01*
X90765238Y-86701333D01*
X90860476Y-86748952D01*
X90908095Y-86796571D01*
X90955714Y-86891809D01*
X90955714Y-87129904D01*
X90908095Y-87225142D01*
X90860476Y-87272761D01*
X90765238Y-87320380D01*
X90479523Y-87320380D01*
X90384285Y-87272761D01*
X90336666Y-87225142D01*
G04 #@! TO.C,R4*
X90003333Y-92400380D02*
X89670000Y-91924190D01*
X89431904Y-92400380D02*
X89431904Y-91400380D01*
X89812857Y-91400380D01*
X89908095Y-91448000D01*
X89955714Y-91495619D01*
X90003333Y-91590857D01*
X90003333Y-91733714D01*
X89955714Y-91828952D01*
X89908095Y-91876571D01*
X89812857Y-91924190D01*
X89431904Y-91924190D01*
X90860476Y-91733714D02*
X90860476Y-92400380D01*
X90622380Y-91352761D02*
X90384285Y-92067047D01*
X91003333Y-92067047D01*
G04 #@! TO.C,RN1*
X119692380Y-104830476D02*
X119216190Y-105163809D01*
X119692380Y-105401904D02*
X118692380Y-105401904D01*
X118692380Y-105020952D01*
X118740000Y-104925714D01*
X118787619Y-104878095D01*
X118882857Y-104830476D01*
X119025714Y-104830476D01*
X119120952Y-104878095D01*
X119168571Y-104925714D01*
X119216190Y-105020952D01*
X119216190Y-105401904D01*
X119692380Y-104401904D02*
X118692380Y-104401904D01*
X119692380Y-103830476D01*
X118692380Y-103830476D01*
X119692380Y-102830476D02*
X119692380Y-103401904D01*
X119692380Y-103116190D02*
X118692380Y-103116190D01*
X118835238Y-103211428D01*
X118930476Y-103306666D01*
X118978095Y-103401904D01*
G04 #@! TO.C,ON*
X76770952Y-110652380D02*
X76961428Y-110652380D01*
X77056666Y-110700000D01*
X77151904Y-110795238D01*
X77199523Y-110985714D01*
X77199523Y-111319047D01*
X77151904Y-111509523D01*
X77056666Y-111604761D01*
X76961428Y-111652380D01*
X76770952Y-111652380D01*
X76675714Y-111604761D01*
X76580476Y-111509523D01*
X76532857Y-111319047D01*
X76532857Y-110985714D01*
X76580476Y-110795238D01*
X76675714Y-110700000D01*
X76770952Y-110652380D01*
X77628095Y-111652380D02*
X77628095Y-110652380D01*
X78199523Y-111652380D01*
X78199523Y-110652380D01*
G04 #@! TO.C,RESET SW*
X73169047Y-99232380D02*
X72835714Y-98756190D01*
X72597619Y-99232380D02*
X72597619Y-98232380D01*
X72978571Y-98232380D01*
X73073809Y-98280000D01*
X73121428Y-98327619D01*
X73169047Y-98422857D01*
X73169047Y-98565714D01*
X73121428Y-98660952D01*
X73073809Y-98708571D01*
X72978571Y-98756190D01*
X72597619Y-98756190D01*
X73597619Y-98708571D02*
X73930952Y-98708571D01*
X74073809Y-99232380D02*
X73597619Y-99232380D01*
X73597619Y-98232380D01*
X74073809Y-98232380D01*
X74454761Y-99184761D02*
X74597619Y-99232380D01*
X74835714Y-99232380D01*
X74930952Y-99184761D01*
X74978571Y-99137142D01*
X75026190Y-99041904D01*
X75026190Y-98946666D01*
X74978571Y-98851428D01*
X74930952Y-98803809D01*
X74835714Y-98756190D01*
X74645238Y-98708571D01*
X74550000Y-98660952D01*
X74502380Y-98613333D01*
X74454761Y-98518095D01*
X74454761Y-98422857D01*
X74502380Y-98327619D01*
X74550000Y-98280000D01*
X74645238Y-98232380D01*
X74883333Y-98232380D01*
X75026190Y-98280000D01*
X75454761Y-98708571D02*
X75788095Y-98708571D01*
X75930952Y-99232380D02*
X75454761Y-99232380D01*
X75454761Y-98232380D01*
X75930952Y-98232380D01*
X76216666Y-98232380D02*
X76788095Y-98232380D01*
X76502380Y-99232380D02*
X76502380Y-98232380D01*
X77835714Y-99184761D02*
X77978571Y-99232380D01*
X78216666Y-99232380D01*
X78311904Y-99184761D01*
X78359523Y-99137142D01*
X78407142Y-99041904D01*
X78407142Y-98946666D01*
X78359523Y-98851428D01*
X78311904Y-98803809D01*
X78216666Y-98756190D01*
X78026190Y-98708571D01*
X77930952Y-98660952D01*
X77883333Y-98613333D01*
X77835714Y-98518095D01*
X77835714Y-98422857D01*
X77883333Y-98327619D01*
X77930952Y-98280000D01*
X78026190Y-98232380D01*
X78264285Y-98232380D01*
X78407142Y-98280000D01*
X78740476Y-98232380D02*
X78978571Y-99232380D01*
X79169047Y-98518095D01*
X79359523Y-99232380D01*
X79597619Y-98232380D01*
G04 #@! TO.C,U1*
X123952095Y-74890380D02*
X123952095Y-75699904D01*
X123999714Y-75795142D01*
X124047333Y-75842761D01*
X124142571Y-75890380D01*
X124333047Y-75890380D01*
X124428285Y-75842761D01*
X124475904Y-75795142D01*
X124523523Y-75699904D01*
X124523523Y-74890380D01*
X125523523Y-75890380D02*
X124952095Y-75890380D01*
X125237809Y-75890380D02*
X125237809Y-74890380D01*
X125142571Y-75033238D01*
X125047333Y-75128476D01*
X124952095Y-75176095D01*
G04 #@! TO.C,U2*
X98806095Y-107402380D02*
X98806095Y-108211904D01*
X98853714Y-108307142D01*
X98901333Y-108354761D01*
X98996571Y-108402380D01*
X99187047Y-108402380D01*
X99282285Y-108354761D01*
X99329904Y-108307142D01*
X99377523Y-108211904D01*
X99377523Y-107402380D01*
X99806095Y-107497619D02*
X99853714Y-107450000D01*
X99948952Y-107402380D01*
X100187047Y-107402380D01*
X100282285Y-107450000D01*
X100329904Y-107497619D01*
X100377523Y-107592857D01*
X100377523Y-107688095D01*
X100329904Y-107830952D01*
X99758476Y-108402380D01*
X100377523Y-108402380D01*
G04 #@! TO.C,U3*
X98806095Y-85558380D02*
X98806095Y-86367904D01*
X98853714Y-86463142D01*
X98901333Y-86510761D01*
X98996571Y-86558380D01*
X99187047Y-86558380D01*
X99282285Y-86510761D01*
X99329904Y-86463142D01*
X99377523Y-86367904D01*
X99377523Y-85558380D01*
X99758476Y-85558380D02*
X100377523Y-85558380D01*
X100044190Y-85939333D01*
X100187047Y-85939333D01*
X100282285Y-85986952D01*
X100329904Y-86034571D01*
X100377523Y-86129809D01*
X100377523Y-86367904D01*
X100329904Y-86463142D01*
X100282285Y-86510761D01*
X100187047Y-86558380D01*
X99901333Y-86558380D01*
X99806095Y-86510761D01*
X99758476Y-86463142D01*
G04 #@! TO.C,U4*
X144526095Y-108672380D02*
X144526095Y-109481904D01*
X144573714Y-109577142D01*
X144621333Y-109624761D01*
X144716571Y-109672380D01*
X144907047Y-109672380D01*
X145002285Y-109624761D01*
X145049904Y-109577142D01*
X145097523Y-109481904D01*
X145097523Y-108672380D01*
X146002285Y-109005714D02*
X146002285Y-109672380D01*
X145764190Y-108624761D02*
X145526095Y-109339047D01*
X146145142Y-109339047D01*
G04 #@! TO.C,Y1*
X81256190Y-91916190D02*
X81732380Y-91916190D01*
X80732380Y-92249523D02*
X81256190Y-91916190D01*
X80732380Y-91582857D01*
X81732380Y-90725714D02*
X81732380Y-91297142D01*
X81732380Y-91011428D02*
X80732380Y-91011428D01*
X80875238Y-91106666D01*
X80970476Y-91201904D01*
X81018095Y-91297142D01*
G04 #@! TO.C,POWER LED*
X71612380Y-74272380D02*
X71612380Y-73272380D01*
X71993333Y-73272380D01*
X72088571Y-73320000D01*
X72136190Y-73367619D01*
X72183809Y-73462857D01*
X72183809Y-73605714D01*
X72136190Y-73700952D01*
X72088571Y-73748571D01*
X71993333Y-73796190D01*
X71612380Y-73796190D01*
X72802857Y-73272380D02*
X72993333Y-73272380D01*
X73088571Y-73320000D01*
X73183809Y-73415238D01*
X73231428Y-73605714D01*
X73231428Y-73939047D01*
X73183809Y-74129523D01*
X73088571Y-74224761D01*
X72993333Y-74272380D01*
X72802857Y-74272380D01*
X72707619Y-74224761D01*
X72612380Y-74129523D01*
X72564761Y-73939047D01*
X72564761Y-73605714D01*
X72612380Y-73415238D01*
X72707619Y-73320000D01*
X72802857Y-73272380D01*
X73564761Y-73272380D02*
X73802857Y-74272380D01*
X73993333Y-73558095D01*
X74183809Y-74272380D01*
X74421904Y-73272380D01*
X74802857Y-73748571D02*
X75136190Y-73748571D01*
X75279047Y-74272380D02*
X74802857Y-74272380D01*
X74802857Y-73272380D01*
X75279047Y-73272380D01*
X76279047Y-74272380D02*
X75945714Y-73796190D01*
X75707619Y-74272380D02*
X75707619Y-73272380D01*
X76088571Y-73272380D01*
X76183809Y-73320000D01*
X76231428Y-73367619D01*
X76279047Y-73462857D01*
X76279047Y-73605714D01*
X76231428Y-73700952D01*
X76183809Y-73748571D01*
X76088571Y-73796190D01*
X75707619Y-73796190D01*
X77945714Y-74272380D02*
X77469523Y-74272380D01*
X77469523Y-73272380D01*
X78279047Y-73748571D02*
X78612380Y-73748571D01*
X78755238Y-74272380D02*
X78279047Y-74272380D01*
X78279047Y-73272380D01*
X78755238Y-73272380D01*
X79183809Y-74272380D02*
X79183809Y-73272380D01*
X79421904Y-73272380D01*
X79564761Y-73320000D01*
X79660000Y-73415238D01*
X79707619Y-73510476D01*
X79755238Y-73700952D01*
X79755238Y-73843809D01*
X79707619Y-74034285D01*
X79660000Y-74129523D01*
X79564761Y-74224761D01*
X79421904Y-74272380D01*
X79183809Y-74272380D01*
G04 #@! TO.C,R5*
X74255333Y-80462380D02*
X73922000Y-79986190D01*
X73683904Y-80462380D02*
X73683904Y-79462380D01*
X74064857Y-79462380D01*
X74160095Y-79510000D01*
X74207714Y-79557619D01*
X74255333Y-79652857D01*
X74255333Y-79795714D01*
X74207714Y-79890952D01*
X74160095Y-79938571D01*
X74064857Y-79986190D01*
X73683904Y-79986190D01*
X75160095Y-79462380D02*
X74683904Y-79462380D01*
X74636285Y-79938571D01*
X74683904Y-79890952D01*
X74779142Y-79843333D01*
X75017238Y-79843333D01*
X75112476Y-79890952D01*
X75160095Y-79938571D01*
X75207714Y-80033809D01*
X75207714Y-80271904D01*
X75160095Y-80367142D01*
X75112476Y-80414761D01*
X75017238Y-80462380D01*
X74779142Y-80462380D01*
X74683904Y-80414761D01*
X74636285Y-80367142D01*
G04 #@! TD*
%LPC*%
D15*
G04 #@! TO.C,J2*
X86360000Y-124460000D03*
D16*
X86360000Y-118364000D03*
D15*
X91440000Y-122174000D03*
G04 #@! TD*
D17*
G04 #@! TO.C,C1*
X129540000Y-104140000D03*
X132040000Y-104140000D03*
G04 #@! TD*
D18*
G04 #@! TO.C,C2*
X87850000Y-102560000D03*
D19*
X87850000Y-100560000D03*
G04 #@! TD*
D17*
G04 #@! TO.C,C3*
X105410000Y-86360000D03*
X102910000Y-86360000D03*
G04 #@! TD*
G04 #@! TO.C,C4*
X153670000Y-107950000D03*
X151170000Y-107950000D03*
G04 #@! TD*
G04 #@! TO.C,C5*
X105410000Y-107950000D03*
X102910000Y-107950000D03*
G04 #@! TD*
G04 #@! TO.C,C6*
X73660000Y-87630000D03*
X73660000Y-90130000D03*
G04 #@! TD*
G04 #@! TO.C,C7*
X73660000Y-96520000D03*
X73660000Y-94020000D03*
G04 #@! TD*
D20*
G04 #@! TO.C,C8*
X73660000Y-121412000D03*
D17*
X76160000Y-121412000D03*
G04 #@! TD*
D21*
G04 #@! TO.C,D1*
X84540000Y-113110000D03*
D22*
X94700000Y-113110000D03*
G04 #@! TD*
D23*
G04 #@! TO.C,J1*
X91440000Y-69850000D03*
D24*
X91440000Y-67310000D03*
X93980000Y-69850000D03*
X93980000Y-67310000D03*
X96520000Y-69850000D03*
X96520000Y-67310000D03*
X99060000Y-69850000D03*
X99060000Y-67310000D03*
X101600000Y-69850000D03*
X101600000Y-67310000D03*
X104140000Y-69850000D03*
X104140000Y-67310000D03*
X106680000Y-69850000D03*
X106680000Y-67310000D03*
X109220000Y-69850000D03*
X109220000Y-67310000D03*
X111760000Y-69850000D03*
X111760000Y-67310000D03*
X114300000Y-69850000D03*
X114300000Y-67310000D03*
X116840000Y-69850000D03*
X116840000Y-67310000D03*
X119380000Y-69850000D03*
X119380000Y-67310000D03*
X121920000Y-69850000D03*
X121920000Y-67310000D03*
X124460000Y-69850000D03*
X124460000Y-67310000D03*
X127000000Y-69850000D03*
X127000000Y-67310000D03*
X129540000Y-69850000D03*
X129540000Y-67310000D03*
X132080000Y-69850000D03*
X132080000Y-67310000D03*
X134620000Y-69850000D03*
X134620000Y-67310000D03*
X137160000Y-69850000D03*
X137160000Y-67310000D03*
X139700000Y-69850000D03*
X139700000Y-67310000D03*
G04 #@! TD*
D17*
G04 #@! TO.C,R1*
X86360000Y-82550000D03*
D25*
X93980000Y-82550000D03*
G04 #@! TD*
D17*
G04 #@! TO.C,R2*
X87100000Y-109650000D03*
D25*
X94720000Y-109650000D03*
G04 #@! TD*
D17*
G04 #@! TO.C,R3*
X93980000Y-88900000D03*
D25*
X86360000Y-88900000D03*
G04 #@! TD*
D17*
G04 #@! TO.C,R4*
X93980000Y-93980000D03*
D25*
X86360000Y-93980000D03*
G04 #@! TD*
D20*
G04 #@! TO.C,RN1*
X116840000Y-92710000D03*
D25*
X116840000Y-95250000D03*
X116840000Y-97790000D03*
X116840000Y-100330000D03*
X116840000Y-102870000D03*
X116840000Y-105410000D03*
X116840000Y-107950000D03*
X116840000Y-110490000D03*
X116840000Y-113030000D03*
G04 #@! TD*
D26*
G04 #@! TO.C,ON*
X71120000Y-114300000D03*
D27*
X73620000Y-114300000D03*
X76120000Y-114300000D03*
G04 #@! TD*
D28*
G04 #@! TO.C,RESET SW*
X72800000Y-105280000D03*
X72800000Y-100780000D03*
X79300000Y-105280000D03*
X79300000Y-100780000D03*
G04 #@! TD*
D25*
G04 #@! TO.C,U1*
X123190000Y-78740000D03*
X123190000Y-81280000D03*
X123190000Y-83820000D03*
X123190000Y-86360000D03*
X123190000Y-88900000D03*
X123190000Y-91440000D03*
X123190000Y-93980000D03*
X123190000Y-96520000D03*
X123190000Y-99060000D03*
X123190000Y-101600000D03*
X123190000Y-104140000D03*
X123190000Y-106680000D03*
X123190000Y-109220000D03*
X123190000Y-111760000D03*
X123190000Y-114300000D03*
X123190000Y-116840000D03*
X123190000Y-119380000D03*
X123190000Y-121920000D03*
X123190000Y-124460000D03*
X123190000Y-127000000D03*
X138430000Y-127000000D03*
X138430000Y-124460000D03*
X138430000Y-121920000D03*
X138430000Y-119380000D03*
X138430000Y-116840000D03*
X138430000Y-114300000D03*
X138430000Y-111760000D03*
X138430000Y-109220000D03*
X138430000Y-106680000D03*
X138430000Y-104140000D03*
X138430000Y-101600000D03*
X138430000Y-99060000D03*
X138430000Y-96520000D03*
X138430000Y-93980000D03*
X138430000Y-91440000D03*
X138430000Y-88900000D03*
X138430000Y-86360000D03*
X138430000Y-83820000D03*
X138430000Y-81280000D03*
X138430000Y-78740000D03*
G04 #@! TD*
D20*
G04 #@! TO.C,U2*
X100330000Y-110490000D03*
D25*
X107950000Y-125730000D03*
X100330000Y-113030000D03*
X107950000Y-123190000D03*
X100330000Y-115570000D03*
X107950000Y-120650000D03*
X100330000Y-118110000D03*
X107950000Y-118110000D03*
X100330000Y-120650000D03*
X107950000Y-115570000D03*
X100330000Y-123190000D03*
X107950000Y-113030000D03*
X100330000Y-125730000D03*
X107950000Y-110490000D03*
G04 #@! TD*
D20*
G04 #@! TO.C,U3*
X100330000Y-88900000D03*
D25*
X107950000Y-104140000D03*
X100330000Y-91440000D03*
X107950000Y-101600000D03*
X100330000Y-93980000D03*
X107950000Y-99060000D03*
X100330000Y-96520000D03*
X107950000Y-96520000D03*
X100330000Y-99060000D03*
X107950000Y-93980000D03*
X100330000Y-101600000D03*
X107950000Y-91440000D03*
X100330000Y-104140000D03*
X107950000Y-88900000D03*
G04 #@! TD*
D20*
G04 #@! TO.C,U4*
X146050000Y-111760000D03*
D25*
X153670000Y-127000000D03*
X146050000Y-114300000D03*
X153670000Y-124460000D03*
X146050000Y-116840000D03*
X153670000Y-121920000D03*
X146050000Y-119380000D03*
X153670000Y-119380000D03*
X146050000Y-121920000D03*
X153670000Y-116840000D03*
X146050000Y-124460000D03*
X153670000Y-114300000D03*
X146050000Y-127000000D03*
X153670000Y-111760000D03*
G04 #@! TD*
D29*
G04 #@! TO.C,Y1*
X81280000Y-88900000D03*
X81280000Y-93780000D03*
G04 #@! TD*
D30*
G04 #@! TO.C,M1*
X69775000Y-61700000D03*
G04 #@! TD*
G04 #@! TO.C,M2*
X158825000Y-61700000D03*
G04 #@! TD*
G04 #@! TO.C,M3*
X69800000Y-127575000D03*
G04 #@! TD*
G04 #@! TO.C,M4*
X158850000Y-127550000D03*
G04 #@! TD*
D31*
G04 #@! TO.C,POWER LED*
X76620000Y-76850000D03*
D32*
X74080000Y-76850000D03*
G04 #@! TD*
D17*
G04 #@! TO.C,R5*
X78110000Y-82060000D03*
D25*
X70490000Y-82060000D03*
G04 #@! TD*
M02*
