G04 #@! TF.GenerationSoftware,KiCad,Pcbnew,(5.0.0-3-g5ebb6b6)*
G04 #@! TF.CreationDate,2018-10-07T14:31:37+09:00*
G04 #@! TF.ProjectId,Z80-CPUB,5A38302D435055422E6B696361645F70,rev?*
G04 #@! TF.SameCoordinates,Original*
G04 #@! TF.FileFunction,Soldermask,Bot*
G04 #@! TF.FilePolarity,Negative*
%FSLAX46Y46*%
G04 Gerber Fmt 4.6, Leading zero omitted, Abs format (unit mm)*
G04 Created by KiCad (PCBNEW (5.0.0-3-g5ebb6b6)) date *
%MOMM*%
%LPD*%
G01*
G04 APERTURE LIST*
%ADD10C,5.200600*%
%ADD11R,5.200600X5.200600*%
%ADD12C,2.000000*%
%ADD13R,1.600000X1.600000*%
%ADD14C,1.600000*%
%ADD15R,2.000000X2.000000*%
%ADD16R,2.600000X2.600000*%
%ADD17O,2.600000X2.600000*%
%ADD18R,2.127200X2.127200*%
%ADD19O,2.127200X2.127200*%
%ADD20O,2.000000X2.000000*%
%ADD21R,2.300000X2.300000*%
%ADD22C,2.300000*%
%ADD23C,2.400000*%
%ADD24C,1.900000*%
%ADD25C,3.600000*%
%ADD26R,2.200000X2.200000*%
%ADD27C,2.200000*%
G04 APERTURE END LIST*
D10*
G04 #@! TO.C,J2*
X86360000Y-124460000D03*
D11*
X86360000Y-118364000D03*
D10*
X91440000Y-122174000D03*
G04 #@! TD*
D12*
G04 #@! TO.C,C1*
X129540000Y-104140000D03*
X132040000Y-104140000D03*
G04 #@! TD*
D13*
G04 #@! TO.C,C2*
X87850000Y-102560000D03*
D14*
X87850000Y-100560000D03*
G04 #@! TD*
D12*
G04 #@! TO.C,C3*
X105410000Y-86360000D03*
X102910000Y-86360000D03*
G04 #@! TD*
G04 #@! TO.C,C4*
X153670000Y-107950000D03*
X151170000Y-107950000D03*
G04 #@! TD*
G04 #@! TO.C,C5*
X105410000Y-107950000D03*
X102910000Y-107950000D03*
G04 #@! TD*
G04 #@! TO.C,C6*
X73660000Y-87630000D03*
X73660000Y-90130000D03*
G04 #@! TD*
G04 #@! TO.C,C7*
X73660000Y-96520000D03*
X73660000Y-94020000D03*
G04 #@! TD*
D15*
G04 #@! TO.C,C8*
X73660000Y-121412000D03*
D12*
X76160000Y-121412000D03*
G04 #@! TD*
D16*
G04 #@! TO.C,D1*
X84540000Y-113110000D03*
D17*
X94700000Y-113110000D03*
G04 #@! TD*
D18*
G04 #@! TO.C,J1*
X91440000Y-69850000D03*
D19*
X91440000Y-67310000D03*
X93980000Y-69850000D03*
X93980000Y-67310000D03*
X96520000Y-69850000D03*
X96520000Y-67310000D03*
X99060000Y-69850000D03*
X99060000Y-67310000D03*
X101600000Y-69850000D03*
X101600000Y-67310000D03*
X104140000Y-69850000D03*
X104140000Y-67310000D03*
X106680000Y-69850000D03*
X106680000Y-67310000D03*
X109220000Y-69850000D03*
X109220000Y-67310000D03*
X111760000Y-69850000D03*
X111760000Y-67310000D03*
X114300000Y-69850000D03*
X114300000Y-67310000D03*
X116840000Y-69850000D03*
X116840000Y-67310000D03*
X119380000Y-69850000D03*
X119380000Y-67310000D03*
X121920000Y-69850000D03*
X121920000Y-67310000D03*
X124460000Y-69850000D03*
X124460000Y-67310000D03*
X127000000Y-69850000D03*
X127000000Y-67310000D03*
X129540000Y-69850000D03*
X129540000Y-67310000D03*
X132080000Y-69850000D03*
X132080000Y-67310000D03*
X134620000Y-69850000D03*
X134620000Y-67310000D03*
X137160000Y-69850000D03*
X137160000Y-67310000D03*
X139700000Y-69850000D03*
X139700000Y-67310000D03*
G04 #@! TD*
D12*
G04 #@! TO.C,R1*
X86360000Y-82550000D03*
D20*
X93980000Y-82550000D03*
G04 #@! TD*
D12*
G04 #@! TO.C,R2*
X87100000Y-109650000D03*
D20*
X94720000Y-109650000D03*
G04 #@! TD*
D12*
G04 #@! TO.C,R3*
X93980000Y-88900000D03*
D20*
X86360000Y-88900000D03*
G04 #@! TD*
D12*
G04 #@! TO.C,R4*
X93980000Y-93980000D03*
D20*
X86360000Y-93980000D03*
G04 #@! TD*
D15*
G04 #@! TO.C,RN1*
X116840000Y-92710000D03*
D20*
X116840000Y-95250000D03*
X116840000Y-97790000D03*
X116840000Y-100330000D03*
X116840000Y-102870000D03*
X116840000Y-105410000D03*
X116840000Y-107950000D03*
X116840000Y-110490000D03*
X116840000Y-113030000D03*
G04 #@! TD*
D21*
G04 #@! TO.C,ON*
X71120000Y-114300000D03*
D22*
X73620000Y-114300000D03*
X76120000Y-114300000D03*
G04 #@! TD*
D23*
G04 #@! TO.C,RESET SW*
X72800000Y-105280000D03*
X72800000Y-100780000D03*
X79300000Y-105280000D03*
X79300000Y-100780000D03*
G04 #@! TD*
D20*
G04 #@! TO.C,U1*
X123190000Y-78740000D03*
X123190000Y-81280000D03*
X123190000Y-83820000D03*
X123190000Y-86360000D03*
X123190000Y-88900000D03*
X123190000Y-91440000D03*
X123190000Y-93980000D03*
X123190000Y-96520000D03*
X123190000Y-99060000D03*
X123190000Y-101600000D03*
X123190000Y-104140000D03*
X123190000Y-106680000D03*
X123190000Y-109220000D03*
X123190000Y-111760000D03*
X123190000Y-114300000D03*
X123190000Y-116840000D03*
X123190000Y-119380000D03*
X123190000Y-121920000D03*
X123190000Y-124460000D03*
X123190000Y-127000000D03*
X138430000Y-127000000D03*
X138430000Y-124460000D03*
X138430000Y-121920000D03*
X138430000Y-119380000D03*
X138430000Y-116840000D03*
X138430000Y-114300000D03*
X138430000Y-111760000D03*
X138430000Y-109220000D03*
X138430000Y-106680000D03*
X138430000Y-104140000D03*
X138430000Y-101600000D03*
X138430000Y-99060000D03*
X138430000Y-96520000D03*
X138430000Y-93980000D03*
X138430000Y-91440000D03*
X138430000Y-88900000D03*
X138430000Y-86360000D03*
X138430000Y-83820000D03*
X138430000Y-81280000D03*
X138430000Y-78740000D03*
G04 #@! TD*
D15*
G04 #@! TO.C,U2*
X100330000Y-110490000D03*
D20*
X107950000Y-125730000D03*
X100330000Y-113030000D03*
X107950000Y-123190000D03*
X100330000Y-115570000D03*
X107950000Y-120650000D03*
X100330000Y-118110000D03*
X107950000Y-118110000D03*
X100330000Y-120650000D03*
X107950000Y-115570000D03*
X100330000Y-123190000D03*
X107950000Y-113030000D03*
X100330000Y-125730000D03*
X107950000Y-110490000D03*
G04 #@! TD*
D15*
G04 #@! TO.C,U3*
X100330000Y-88900000D03*
D20*
X107950000Y-104140000D03*
X100330000Y-91440000D03*
X107950000Y-101600000D03*
X100330000Y-93980000D03*
X107950000Y-99060000D03*
X100330000Y-96520000D03*
X107950000Y-96520000D03*
X100330000Y-99060000D03*
X107950000Y-93980000D03*
X100330000Y-101600000D03*
X107950000Y-91440000D03*
X100330000Y-104140000D03*
X107950000Y-88900000D03*
G04 #@! TD*
D15*
G04 #@! TO.C,U4*
X146050000Y-111760000D03*
D20*
X153670000Y-127000000D03*
X146050000Y-114300000D03*
X153670000Y-124460000D03*
X146050000Y-116840000D03*
X153670000Y-121920000D03*
X146050000Y-119380000D03*
X153670000Y-119380000D03*
X146050000Y-121920000D03*
X153670000Y-116840000D03*
X146050000Y-124460000D03*
X153670000Y-114300000D03*
X146050000Y-127000000D03*
X153670000Y-111760000D03*
G04 #@! TD*
D24*
G04 #@! TO.C,Y1*
X81280000Y-88900000D03*
X81280000Y-93780000D03*
G04 #@! TD*
D25*
G04 #@! TO.C,M1*
X69775000Y-61700000D03*
G04 #@! TD*
G04 #@! TO.C,M2*
X158825000Y-61700000D03*
G04 #@! TD*
G04 #@! TO.C,M3*
X69800000Y-127575000D03*
G04 #@! TD*
G04 #@! TO.C,M4*
X158850000Y-127550000D03*
G04 #@! TD*
D26*
G04 #@! TO.C,POWER LED*
X76620000Y-76850000D03*
D27*
X74080000Y-76850000D03*
G04 #@! TD*
D12*
G04 #@! TO.C,R5*
X78110000Y-82060000D03*
D20*
X70490000Y-82060000D03*
G04 #@! TD*
M02*
