G04 #@! TF.FileFunction,Copper,L1,Top,Signal*
%FSLAX46Y46*%
G04 Gerber Fmt 4.6, Leading zero omitted, Abs format (unit mm)*
G04 Created by KiCad (PCBNEW 4.0.7) date *
%MOMM*%
%LPD*%
G01*
G04 APERTURE LIST*
%ADD10C,0.100000*%
%ADD11C,1.600000*%
%ADD12R,1.200000X1.200000*%
%ADD13C,1.200000*%
%ADD14R,1.600000X1.600000*%
%ADD15R,2.200000X2.200000*%
%ADD16O,2.200000X2.200000*%
%ADD17R,1.727200X1.727200*%
%ADD18O,1.727200X1.727200*%
%ADD19C,4.800600*%
%ADD20R,4.800600X4.800600*%
%ADD21O,1.600000X1.600000*%
%ADD22R,1.900000X1.900000*%
%ADD23C,1.900000*%
%ADD24C,2.000000*%
%ADD25C,1.500000*%
%ADD26R,1.800000X1.800000*%
%ADD27C,1.800000*%
%ADD28C,0.889000*%
%ADD29C,0.609600*%
%ADD30C,0.203200*%
%ADD31C,0.254000*%
G04 APERTURE END LIST*
D10*
D11*
X129540000Y-104140000D03*
X132040000Y-104140000D03*
D12*
X87850000Y-102560000D03*
D13*
X87850000Y-100560000D03*
D11*
X105410000Y-86360000D03*
X102910000Y-86360000D03*
X153670000Y-107950000D03*
X151170000Y-107950000D03*
X105410000Y-107950000D03*
X102910000Y-107950000D03*
X73660000Y-87630000D03*
X73660000Y-90130000D03*
X73660000Y-96520000D03*
X73660000Y-94020000D03*
D14*
X73660000Y-121412000D03*
D11*
X76160000Y-121412000D03*
D15*
X84540000Y-113110000D03*
D16*
X94700000Y-113110000D03*
D17*
X91440000Y-69850000D03*
D18*
X91440000Y-67310000D03*
X93980000Y-69850000D03*
X93980000Y-67310000D03*
X96520000Y-69850000D03*
X96520000Y-67310000D03*
X99060000Y-69850000D03*
X99060000Y-67310000D03*
X101600000Y-69850000D03*
X101600000Y-67310000D03*
X104140000Y-69850000D03*
X104140000Y-67310000D03*
X106680000Y-69850000D03*
X106680000Y-67310000D03*
X109220000Y-69850000D03*
X109220000Y-67310000D03*
X111760000Y-69850000D03*
X111760000Y-67310000D03*
X114300000Y-69850000D03*
X114300000Y-67310000D03*
X116840000Y-69850000D03*
X116840000Y-67310000D03*
X119380000Y-69850000D03*
X119380000Y-67310000D03*
X121920000Y-69850000D03*
X121920000Y-67310000D03*
X124460000Y-69850000D03*
X124460000Y-67310000D03*
X127000000Y-69850000D03*
X127000000Y-67310000D03*
X129540000Y-69850000D03*
X129540000Y-67310000D03*
X132080000Y-69850000D03*
X132080000Y-67310000D03*
X134620000Y-69850000D03*
X134620000Y-67310000D03*
X137160000Y-69850000D03*
X137160000Y-67310000D03*
X139700000Y-69850000D03*
X139700000Y-67310000D03*
D19*
X86360000Y-124460000D03*
D20*
X86360000Y-118364000D03*
D19*
X91440000Y-122174000D03*
D11*
X86360000Y-82550000D03*
D21*
X93980000Y-82550000D03*
D11*
X87100000Y-109650000D03*
D21*
X94720000Y-109650000D03*
D11*
X93980000Y-88900000D03*
D21*
X86360000Y-88900000D03*
D11*
X93980000Y-93980000D03*
D21*
X86360000Y-93980000D03*
D14*
X116840000Y-92710000D03*
D21*
X116840000Y-95250000D03*
X116840000Y-97790000D03*
X116840000Y-100330000D03*
X116840000Y-102870000D03*
X116840000Y-105410000D03*
X116840000Y-107950000D03*
X116840000Y-110490000D03*
X116840000Y-113030000D03*
D22*
X71120000Y-114300000D03*
D23*
X73620000Y-114300000D03*
X76120000Y-114300000D03*
D24*
X72800000Y-105280000D03*
X72800000Y-100780000D03*
X79300000Y-105280000D03*
X79300000Y-100780000D03*
D21*
X123190000Y-78740000D03*
X123190000Y-81280000D03*
X123190000Y-83820000D03*
X123190000Y-86360000D03*
X123190000Y-88900000D03*
X123190000Y-91440000D03*
X123190000Y-93980000D03*
X123190000Y-96520000D03*
X123190000Y-99060000D03*
X123190000Y-101600000D03*
X123190000Y-104140000D03*
X123190000Y-106680000D03*
X123190000Y-109220000D03*
X123190000Y-111760000D03*
X123190000Y-114300000D03*
X123190000Y-116840000D03*
X123190000Y-119380000D03*
X123190000Y-121920000D03*
X123190000Y-124460000D03*
X123190000Y-127000000D03*
X138430000Y-127000000D03*
X138430000Y-124460000D03*
X138430000Y-121920000D03*
X138430000Y-119380000D03*
X138430000Y-116840000D03*
X138430000Y-114300000D03*
X138430000Y-111760000D03*
X138430000Y-109220000D03*
X138430000Y-106680000D03*
X138430000Y-104140000D03*
X138430000Y-101600000D03*
X138430000Y-99060000D03*
X138430000Y-96520000D03*
X138430000Y-93980000D03*
X138430000Y-91440000D03*
X138430000Y-88900000D03*
X138430000Y-86360000D03*
X138430000Y-83820000D03*
X138430000Y-81280000D03*
X138430000Y-78740000D03*
D14*
X100330000Y-110490000D03*
D21*
X107950000Y-125730000D03*
X100330000Y-113030000D03*
X107950000Y-123190000D03*
X100330000Y-115570000D03*
X107950000Y-120650000D03*
X100330000Y-118110000D03*
X107950000Y-118110000D03*
X100330000Y-120650000D03*
X107950000Y-115570000D03*
X100330000Y-123190000D03*
X107950000Y-113030000D03*
X100330000Y-125730000D03*
X107950000Y-110490000D03*
D14*
X100330000Y-88900000D03*
D21*
X107950000Y-104140000D03*
X100330000Y-91440000D03*
X107950000Y-101600000D03*
X100330000Y-93980000D03*
X107950000Y-99060000D03*
X100330000Y-96520000D03*
X107950000Y-96520000D03*
X100330000Y-99060000D03*
X107950000Y-93980000D03*
X100330000Y-101600000D03*
X107950000Y-91440000D03*
X100330000Y-104140000D03*
X107950000Y-88900000D03*
D14*
X146050000Y-111760000D03*
D21*
X153670000Y-127000000D03*
X146050000Y-114300000D03*
X153670000Y-124460000D03*
X146050000Y-116840000D03*
X153670000Y-121920000D03*
X146050000Y-119380000D03*
X153670000Y-119380000D03*
X146050000Y-121920000D03*
X153670000Y-116840000D03*
X146050000Y-124460000D03*
X153670000Y-114300000D03*
X146050000Y-127000000D03*
X153670000Y-111760000D03*
D25*
X81280000Y-88900000D03*
X81280000Y-93780000D03*
D26*
X76620000Y-76850000D03*
D27*
X74080000Y-76850000D03*
D11*
X78110000Y-82060000D03*
D21*
X70490000Y-82060000D03*
D28*
X94000000Y-78120000D03*
X94720000Y-107420000D03*
X93345000Y-102870000D03*
X104775000Y-92075000D03*
X109162000Y-90170000D03*
X150097000Y-115876000D03*
X135700000Y-68769700D03*
X114270000Y-74160000D03*
X136986000Y-74966700D03*
X123458000Y-74088300D03*
X122938000Y-73055300D03*
X120904000Y-74168000D03*
D29*
X94000000Y-78120000D02*
X100980000Y-78120000D01*
X100980000Y-78120000D02*
X105410000Y-82550000D01*
X67410000Y-80900000D02*
X67950000Y-80360000D01*
X67950000Y-80360000D02*
X74080000Y-76850000D01*
X67485000Y-111165000D02*
X67410000Y-111090000D01*
X67410000Y-111090000D02*
X67410000Y-80900000D01*
X73620000Y-111165000D02*
X67485000Y-111165000D01*
X84430000Y-108090000D02*
X84463636Y-109625000D01*
X84463636Y-109625000D02*
X84540000Y-113110000D01*
X87100000Y-109650000D02*
X85968630Y-109650000D01*
X85968630Y-109650000D02*
X85943630Y-109625000D01*
X85943630Y-109625000D02*
X84463636Y-109625000D01*
X105410000Y-86360000D02*
X105410000Y-88265000D01*
X103505000Y-101787000D02*
X105410000Y-103692000D01*
X103505000Y-90170000D02*
X103505000Y-101787000D01*
X105410000Y-88265000D02*
X103505000Y-90170000D01*
X73620000Y-114300000D02*
X73620000Y-111165000D01*
X82555000Y-111125000D02*
X84540000Y-113110000D01*
X73660000Y-111125000D02*
X82555000Y-111125000D01*
X73620000Y-111165000D02*
X73660000Y-111125000D01*
X84540000Y-109500000D02*
X84540000Y-113110000D01*
X73660000Y-114340000D02*
X73620000Y-114300000D01*
X73660000Y-121412000D02*
X73660000Y-114340000D01*
X129540000Y-104140000D02*
X123190000Y-104140000D01*
X143510000Y-111760000D02*
X138430000Y-116840000D01*
X143510000Y-106680000D02*
X143510000Y-111760000D01*
X144780000Y-105410000D02*
X143510000Y-106680000D01*
X154940000Y-105410000D02*
X144780000Y-105410000D01*
X153670000Y-107950000D02*
X153670000Y-111760000D01*
X129540000Y-77470000D02*
X128270000Y-76200000D01*
X129540000Y-104140000D02*
X129540000Y-77470000D01*
X154940000Y-76200000D02*
X154940000Y-105410000D01*
X128270000Y-76200000D02*
X154940000Y-76200000D01*
X154940000Y-105410000D02*
X153670000Y-107950000D01*
X105410000Y-107950000D02*
X107950000Y-110490000D01*
X93980000Y-69850000D02*
X91440000Y-69850000D01*
X105410000Y-103692000D02*
X105410000Y-107950000D01*
X84430000Y-106170000D02*
X84430000Y-108090000D01*
X105410000Y-103692000D02*
X104273000Y-103692000D01*
X104273000Y-103692000D02*
X101794418Y-106170000D01*
X101794418Y-106170000D02*
X84430000Y-106170000D01*
X111722000Y-88900000D02*
X107950000Y-88900000D01*
X115532000Y-92710000D02*
X111722000Y-88900000D01*
X116840000Y-92710000D02*
X115532000Y-92710000D01*
X111760000Y-76200000D02*
X106224000Y-81735500D01*
X128270000Y-76200000D02*
X111760000Y-76200000D01*
X105410000Y-82550000D02*
X105410000Y-86360000D01*
X106224000Y-81735500D02*
X105410000Y-82550000D01*
X94339000Y-69850000D02*
X93980000Y-69850000D01*
X125768000Y-118110000D02*
X138430000Y-118110000D01*
X124498000Y-119380000D02*
X125768000Y-118110000D01*
X123190000Y-119380000D02*
X124498000Y-119380000D01*
X138430000Y-116840000D02*
X138430000Y-118110000D01*
X138430000Y-118110000D02*
X138430000Y-119380000D01*
X69740000Y-93040000D02*
X69740000Y-82810000D01*
X69740000Y-100530000D02*
X69990000Y-100780000D01*
X72800000Y-100780000D02*
X69990000Y-100780000D01*
X69740000Y-93040000D02*
X69740000Y-100530000D01*
X69740000Y-82810000D02*
X70490000Y-82060000D01*
X87850000Y-100560000D02*
X79840000Y-101320000D01*
X87850000Y-100560000D02*
X93575000Y-100560000D01*
X97155000Y-104140000D02*
X100330000Y-104140000D01*
X93575000Y-100560000D02*
X97155000Y-104140000D01*
X77470000Y-120650000D02*
X76160000Y-121412000D01*
X81280000Y-124460000D02*
X77470000Y-120650000D01*
X86360000Y-124460000D02*
X81280000Y-124460000D01*
X99060000Y-125730000D02*
X100330000Y-125730000D01*
X97790000Y-127000000D02*
X99060000Y-125730000D01*
X88900000Y-127000000D02*
X97790000Y-127000000D01*
X86360000Y-124460000D02*
X88900000Y-127000000D01*
X73620000Y-90170000D02*
X73660000Y-90130000D01*
X72390000Y-90170000D02*
X73620000Y-90170000D01*
X69850000Y-92710000D02*
X72390000Y-90170000D01*
X71160000Y-94020000D02*
X73660000Y-94020000D01*
X69850000Y-92710000D02*
X71160000Y-94020000D01*
X79300000Y-100780000D02*
X72800000Y-100780000D01*
X79840000Y-101320000D02*
X79300000Y-100780000D01*
X134580000Y-106680000D02*
X132040000Y-104140000D01*
X138430000Y-106680000D02*
X134580000Y-106680000D01*
X93980000Y-67310000D02*
X91440000Y-67310000D01*
X114387000Y-128319000D02*
X109766000Y-123190000D01*
X144693000Y-128319000D02*
X114387000Y-128319000D01*
X146012000Y-127000000D02*
X144693000Y-128319000D01*
X146050000Y-127000000D02*
X146012000Y-127000000D01*
X107950000Y-123190000D02*
X109766000Y-123190000D01*
X109766000Y-119418000D02*
X107950000Y-118110000D01*
X109766000Y-123190000D02*
X109766000Y-119418000D01*
X94700000Y-113110000D02*
X97075000Y-113110000D01*
X97075000Y-113110000D02*
X99535000Y-115570000D01*
X99535000Y-115570000D02*
X100330000Y-115570000D01*
X87850000Y-102560000D02*
X83495000Y-102560000D01*
X81280000Y-105410000D02*
X79730000Y-105280000D01*
X81280000Y-104775000D02*
X81280000Y-105410000D01*
X83495000Y-102560000D02*
X81280000Y-104775000D01*
X94720000Y-109650000D02*
X94720000Y-107420000D01*
X92400000Y-102560000D02*
X87850000Y-102560000D01*
X92710000Y-102870000D02*
X92400000Y-102560000D01*
X93345000Y-102870000D02*
X92710000Y-102870000D01*
X94700000Y-113110000D02*
X94700000Y-109670000D01*
X94700000Y-109670000D02*
X94720000Y-109650000D01*
X79730000Y-105280000D02*
X79300000Y-105280000D01*
X79300000Y-105280000D02*
X72800000Y-105280000D01*
D30*
X86360000Y-88900000D02*
X81280000Y-88900000D01*
X74930000Y-88900000D02*
X73660000Y-87630000D01*
X81280000Y-88900000D02*
X74930000Y-88900000D01*
X92545100Y-99060000D02*
X100330000Y-99060000D01*
X87465100Y-93980000D02*
X92545100Y-99060000D01*
X86360000Y-93980000D02*
X87465100Y-93980000D01*
X85054900Y-93780000D02*
X81280000Y-93780000D01*
X85254900Y-93980000D02*
X85054900Y-93780000D01*
X86360000Y-93980000D02*
X85254900Y-93980000D01*
X76400000Y-93780000D02*
X73660000Y-96520000D01*
X81280000Y-93780000D02*
X76400000Y-93780000D01*
X108712000Y-86360000D02*
X118110000Y-86360000D01*
X118110000Y-86360000D02*
X123190000Y-91440000D01*
X104838499Y-90233501D02*
X108712000Y-86360000D01*
X104775000Y-92075000D02*
X104838499Y-90995501D01*
X104838499Y-90995501D02*
X104838499Y-90233501D01*
X119215000Y-111760000D02*
X123190000Y-111760000D01*
X117945000Y-113030000D02*
X119215000Y-111760000D01*
X116840000Y-113030000D02*
X117945000Y-113030000D01*
X109162000Y-101846000D02*
X109162000Y-90170000D01*
X116702000Y-109385000D02*
X109162000Y-101846000D01*
X116840000Y-109385000D02*
X116702000Y-109385000D01*
X116840000Y-110490000D02*
X116840000Y-109385000D01*
X122085000Y-106680000D02*
X123190000Y-106680000D01*
X120815000Y-107950000D02*
X122085000Y-106680000D01*
X116840000Y-107950000D02*
X120815000Y-107950000D01*
X119215000Y-99060000D02*
X123190000Y-99060000D01*
X117945000Y-100330000D02*
X119215000Y-99060000D01*
X116840000Y-100330000D02*
X117945000Y-100330000D01*
X116540000Y-101600000D02*
X123190000Y-101600000D01*
X115694000Y-100754000D02*
X116540000Y-101600000D01*
X115694000Y-99903100D02*
X115694000Y-100754000D01*
X116702000Y-98895100D02*
X115694000Y-99903100D01*
X116840000Y-98895100D02*
X116702000Y-98895100D01*
X116840000Y-97790000D02*
X116840000Y-98895100D01*
X123190000Y-108115000D02*
X123190000Y-109220000D01*
X123328000Y-108115000D02*
X123190000Y-108115000D01*
X124295000Y-107148000D02*
X123328000Y-108115000D01*
X124295000Y-106188000D02*
X124295000Y-107148000D01*
X123518000Y-105410000D02*
X124295000Y-106188000D01*
X120078000Y-105410000D02*
X123518000Y-105410000D01*
X118808000Y-104140000D02*
X120078000Y-105410000D01*
X116522000Y-104140000D02*
X118808000Y-104140000D01*
X115287000Y-102905000D02*
X116522000Y-104140000D01*
X115287000Y-97679000D02*
X115287000Y-102905000D01*
X116611000Y-96355100D02*
X115287000Y-97679000D01*
X116840000Y-96355100D02*
X116611000Y-96355100D01*
X116840000Y-95250000D02*
X116840000Y-96355100D01*
X149132000Y-116840000D02*
X150097000Y-115876000D01*
X146050000Y-116840000D02*
X149132000Y-116840000D01*
X135795000Y-68674900D02*
X135700000Y-68769700D01*
X135795000Y-66808400D02*
X135795000Y-68674900D01*
X135111000Y-66124700D02*
X135795000Y-66808400D01*
X113751000Y-66124700D02*
X135111000Y-66124700D01*
X112929000Y-66946800D02*
X113751000Y-66124700D01*
X112929000Y-67310000D02*
X112929000Y-66946800D01*
X111760000Y-67310000D02*
X112929000Y-67310000D01*
X114270000Y-74160000D02*
X115750000Y-74160000D01*
X136362302Y-75590398D02*
X136986000Y-74966700D01*
X117180398Y-75590398D02*
X136362302Y-75590398D01*
X115750000Y-74160000D02*
X117180398Y-75590398D01*
X136640000Y-75312900D02*
X136986000Y-74966700D01*
X86360000Y-82550000D02*
X86360000Y-77110000D01*
X116850000Y-72380000D02*
X119380000Y-69850000D01*
X91090000Y-72380000D02*
X116850000Y-72380000D01*
X86360000Y-77110000D02*
X91090000Y-72380000D01*
X88417300Y-84607300D02*
X86360000Y-82550000D01*
X94932200Y-84607300D02*
X88417300Y-84607300D01*
X99224900Y-88900000D02*
X94932200Y-84607300D01*
X100330000Y-88900000D02*
X99224900Y-88900000D01*
X122846000Y-74088300D02*
X123458000Y-74088300D01*
X122175000Y-73417500D02*
X122846000Y-74088300D01*
X122175000Y-72706300D02*
X122175000Y-73417500D01*
X122655000Y-72226000D02*
X122175000Y-72706300D01*
X128907000Y-72226000D02*
X122655000Y-72226000D01*
X130810000Y-70322600D02*
X128907000Y-72226000D01*
X130810000Y-69427300D02*
X130810000Y-70322600D01*
X131759000Y-68478700D02*
X130810000Y-69427300D01*
X132575000Y-68478700D02*
X131759000Y-68478700D01*
X133451000Y-67602300D02*
X132575000Y-68478700D01*
X133451000Y-67310000D02*
X133451000Y-67602300D01*
X134620000Y-67310000D02*
X133451000Y-67310000D01*
X133149000Y-73055300D02*
X122938000Y-73055300D01*
X135991000Y-70213200D02*
X133149000Y-73055300D01*
X135991000Y-69850000D02*
X135991000Y-70213200D01*
X137160000Y-69850000D02*
X135991000Y-69850000D01*
X121713000Y-74894900D02*
X120904000Y-74168000D01*
X133850000Y-74894900D02*
X121713000Y-74894900D01*
X138531000Y-70213200D02*
X133850000Y-74894900D01*
X138531000Y-69850000D02*
X138531000Y-70213200D01*
X139700000Y-69850000D02*
X138531000Y-69850000D01*
D29*
X84709000Y-118364000D02*
X86360000Y-118364000D01*
X80645000Y-114300000D02*
X84709000Y-118364000D01*
X76120000Y-114300000D02*
X80645000Y-114300000D01*
D30*
X100330000Y-93980000D02*
X93980000Y-93980000D01*
X100330000Y-100495000D02*
X100330000Y-101600000D01*
X100468000Y-100495000D02*
X100330000Y-100495000D01*
X101437000Y-99525800D02*
X100468000Y-100495000D01*
X101437000Y-95963300D02*
X101437000Y-99525800D01*
X100559000Y-95085100D02*
X101437000Y-95963300D01*
X100330000Y-95085100D02*
X100559000Y-95085100D01*
X100330000Y-93980000D02*
X100330000Y-95085100D01*
X144945000Y-119380000D02*
X146050000Y-119380000D01*
X143840000Y-120485000D02*
X144945000Y-119380000D01*
X128270000Y-120485000D02*
X143840000Y-120485000D01*
X124295000Y-124460000D02*
X128270000Y-120485000D01*
X123190000Y-124460000D02*
X124295000Y-124460000D01*
X151295000Y-123190000D02*
X152565000Y-121920000D01*
X141504000Y-123190000D02*
X151295000Y-123190000D01*
X138799000Y-125895000D02*
X141504000Y-123190000D01*
X125400000Y-125895000D02*
X138799000Y-125895000D01*
X124295000Y-127000000D02*
X125400000Y-125895000D01*
X123190000Y-127000000D02*
X124295000Y-127000000D01*
X153670000Y-121920000D02*
X152565000Y-121920000D01*
X152565000Y-118912000D02*
X152565000Y-121920000D01*
X153532000Y-117945000D02*
X152565000Y-118912000D01*
X153670000Y-117945000D02*
X153532000Y-117945000D01*
X153670000Y-116840000D02*
X153670000Y-117945000D01*
X152565000Y-124460000D02*
X153670000Y-124460000D01*
X151460000Y-125565000D02*
X152565000Y-124460000D01*
X140970000Y-125565000D02*
X151460000Y-125565000D01*
X139535000Y-127000000D02*
X140970000Y-125565000D01*
X138430000Y-127000000D02*
X139535000Y-127000000D01*
X147155000Y-111760000D02*
X146050000Y-111760000D01*
X148260000Y-112865000D02*
X147155000Y-111760000D01*
X153800000Y-112865000D02*
X148260000Y-112865000D01*
X154820000Y-113884000D02*
X153800000Y-112865000D01*
X154820000Y-122434000D02*
X154820000Y-113884000D01*
X153899000Y-123355000D02*
X154820000Y-122434000D01*
X153670000Y-123355000D02*
X153899000Y-123355000D01*
X153670000Y-124460000D02*
X153670000Y-123355000D01*
X146050000Y-120815000D02*
X146050000Y-121367000D01*
X146279000Y-120815000D02*
X146050000Y-120815000D01*
X152565000Y-114529000D02*
X146279000Y-120815000D01*
X152565000Y-114300000D02*
X152565000Y-114529000D01*
X153670000Y-114300000D02*
X152565000Y-114300000D01*
X142628000Y-121367000D02*
X146050000Y-121367000D01*
X139535000Y-124460000D02*
X142628000Y-121367000D01*
X138430000Y-124460000D02*
X139535000Y-124460000D01*
X146050000Y-121920000D02*
X146050000Y-121367000D01*
X101435000Y-113030000D02*
X100330000Y-113030000D01*
X102540000Y-114135000D02*
X101435000Y-113030000D01*
X112799000Y-114135000D02*
X102540000Y-114135000D01*
X114075000Y-115411000D02*
X112799000Y-114135000D01*
X136214000Y-115411000D02*
X114075000Y-115411000D01*
X137325000Y-114300000D02*
X136214000Y-115411000D01*
X138430000Y-114300000D02*
X137325000Y-114300000D01*
X76620000Y-76850000D02*
X77980000Y-76900000D01*
X78110000Y-77030000D02*
X78110000Y-82060000D01*
X77980000Y-76900000D02*
X78110000Y-77030000D01*
X76750000Y-76720000D02*
X76620000Y-76850000D01*
D31*
G36*
X162433000Y-130683000D02*
X66167000Y-130683000D01*
X66167000Y-128017619D01*
X67564613Y-128017619D01*
X67904155Y-128839372D01*
X68532321Y-129468636D01*
X69353481Y-129809611D01*
X70242619Y-129810387D01*
X71064372Y-129470845D01*
X71693636Y-128842679D01*
X72034611Y-128021519D01*
X72035387Y-127132381D01*
X71825302Y-126623936D01*
X84375670Y-126623936D01*
X84645221Y-127036257D01*
X85761642Y-127496369D01*
X86969157Y-127494221D01*
X88074779Y-127036257D01*
X88344330Y-126623936D01*
X86360000Y-124639605D01*
X84375670Y-126623936D01*
X71825302Y-126623936D01*
X71695845Y-126310628D01*
X71067679Y-125681364D01*
X70246519Y-125340389D01*
X69357381Y-125339613D01*
X68535628Y-125679155D01*
X67906364Y-126307321D01*
X67565389Y-127128481D01*
X67564613Y-128017619D01*
X66167000Y-128017619D01*
X66167000Y-123861642D01*
X83323631Y-123861642D01*
X83325779Y-125069157D01*
X83783743Y-126174779D01*
X84196064Y-126444330D01*
X86180395Y-124460000D01*
X84196064Y-122475670D01*
X83783743Y-122745221D01*
X83323631Y-123861642D01*
X66167000Y-123861642D01*
X66167000Y-80900000D01*
X66470200Y-80900000D01*
X66470200Y-111090000D01*
X66541738Y-111449646D01*
X66745461Y-111754539D01*
X66820461Y-111829539D01*
X67125354Y-112033262D01*
X67485000Y-112104800D01*
X72680200Y-112104800D01*
X72680200Y-112998587D01*
X72630428Y-113048272D01*
X72534090Y-112898559D01*
X72321890Y-112753569D01*
X72070000Y-112702560D01*
X70170000Y-112702560D01*
X69934683Y-112746838D01*
X69718559Y-112885910D01*
X69573569Y-113098110D01*
X69522560Y-113350000D01*
X69522560Y-115250000D01*
X69566838Y-115485317D01*
X69705910Y-115701441D01*
X69918110Y-115846431D01*
X70170000Y-115897440D01*
X72070000Y-115897440D01*
X72305317Y-115853162D01*
X72521441Y-115714090D01*
X72631400Y-115553160D01*
X72720200Y-115642116D01*
X72720200Y-119990865D01*
X72624683Y-120008838D01*
X72408559Y-120147910D01*
X72263569Y-120360110D01*
X72212560Y-120612000D01*
X72212560Y-122212000D01*
X72256838Y-122447317D01*
X72395910Y-122663441D01*
X72608110Y-122808431D01*
X72860000Y-122859440D01*
X74460000Y-122859440D01*
X74695317Y-122815162D01*
X74911441Y-122676090D01*
X75056431Y-122463890D01*
X75065370Y-122419745D01*
X75331861Y-122419745D01*
X75405995Y-122665864D01*
X75943223Y-122858965D01*
X76513454Y-122831778D01*
X76914005Y-122665864D01*
X76988139Y-122419745D01*
X76160000Y-121591605D01*
X75331861Y-122419745D01*
X75065370Y-122419745D01*
X75104646Y-122225799D01*
X75152255Y-122240139D01*
X75980395Y-121412000D01*
X76339605Y-121412000D01*
X77167745Y-122240139D01*
X77413864Y-122166005D01*
X77606965Y-121628777D01*
X77579778Y-121058546D01*
X77413864Y-120657995D01*
X77167745Y-120583861D01*
X76339605Y-121412000D01*
X75980395Y-121412000D01*
X75152255Y-120583861D01*
X75104833Y-120598145D01*
X75068351Y-120404255D01*
X75331861Y-120404255D01*
X76160000Y-121232395D01*
X76988139Y-120404255D01*
X76914005Y-120158136D01*
X76376777Y-119965035D01*
X75806546Y-119992222D01*
X75405995Y-120158136D01*
X75331861Y-120404255D01*
X75068351Y-120404255D01*
X75063162Y-120376683D01*
X74924090Y-120160559D01*
X74711890Y-120015569D01*
X74599800Y-119992870D01*
X74599800Y-115561483D01*
X74870226Y-115291529D01*
X75220997Y-115642914D01*
X75803341Y-115884724D01*
X76433893Y-115885275D01*
X77016657Y-115644481D01*
X77422046Y-115239800D01*
X80255722Y-115239800D01*
X83312260Y-118296338D01*
X83312260Y-120764300D01*
X83356538Y-120999617D01*
X83495610Y-121215741D01*
X83707810Y-121360731D01*
X83959700Y-121411740D01*
X88469944Y-121411740D01*
X88405228Y-121567593D01*
X88404645Y-122235747D01*
X88344329Y-122296063D01*
X88074779Y-121883743D01*
X86958358Y-121423631D01*
X85750843Y-121425779D01*
X84645221Y-121883743D01*
X84375670Y-122296064D01*
X86360000Y-124280395D01*
X86374142Y-124266252D01*
X86553748Y-124445858D01*
X86539605Y-124460000D01*
X88523936Y-126444330D01*
X88936257Y-126174779D01*
X88975714Y-126079039D01*
X98938096Y-126079039D01*
X99098959Y-126467423D01*
X99474866Y-126882389D01*
X99980959Y-127121914D01*
X100203000Y-127000629D01*
X100203000Y-125857000D01*
X100457000Y-125857000D01*
X100457000Y-127000629D01*
X100679041Y-127121914D01*
X101185134Y-126882389D01*
X101561041Y-126467423D01*
X101721904Y-126079039D01*
X101599915Y-125857000D01*
X100457000Y-125857000D01*
X100203000Y-125857000D01*
X99060085Y-125857000D01*
X98938096Y-126079039D01*
X88975714Y-126079039D01*
X89119564Y-125730000D01*
X106486887Y-125730000D01*
X106596120Y-126279151D01*
X106907189Y-126744698D01*
X107372736Y-127055767D01*
X107921887Y-127165000D01*
X107978113Y-127165000D01*
X108527264Y-127055767D01*
X108992811Y-126744698D01*
X109303880Y-126279151D01*
X109413113Y-125730000D01*
X109303880Y-125180849D01*
X108992811Y-124715302D01*
X108588297Y-124445014D01*
X108805134Y-124342389D01*
X109181041Y-123927423D01*
X109341904Y-123539039D01*
X109219915Y-123317000D01*
X108077000Y-123317000D01*
X108077000Y-123337000D01*
X107823000Y-123337000D01*
X107823000Y-123317000D01*
X106680085Y-123317000D01*
X106558096Y-123539039D01*
X106718959Y-123927423D01*
X107094866Y-124342389D01*
X107311703Y-124445014D01*
X106907189Y-124715302D01*
X106596120Y-125180849D01*
X106486887Y-125730000D01*
X89119564Y-125730000D01*
X89396369Y-125058358D01*
X89395237Y-124421978D01*
X89718396Y-124745702D01*
X90833593Y-125208772D01*
X92041110Y-125209826D01*
X93157113Y-124748702D01*
X94011702Y-123895604D01*
X94304694Y-123190000D01*
X98866887Y-123190000D01*
X98976120Y-123739151D01*
X99287189Y-124204698D01*
X99691703Y-124474986D01*
X99474866Y-124577611D01*
X99098959Y-124992577D01*
X98938096Y-125380961D01*
X99060085Y-125603000D01*
X100203000Y-125603000D01*
X100203000Y-125583000D01*
X100457000Y-125583000D01*
X100457000Y-125603000D01*
X101599915Y-125603000D01*
X101721904Y-125380961D01*
X101561041Y-124992577D01*
X101185134Y-124577611D01*
X100968297Y-124474986D01*
X101372811Y-124204698D01*
X101683880Y-123739151D01*
X101793113Y-123190000D01*
X101683880Y-122640849D01*
X101372811Y-122175302D01*
X100968297Y-121905014D01*
X101185134Y-121802389D01*
X101561041Y-121387423D01*
X101721904Y-120999039D01*
X101599915Y-120777000D01*
X100457000Y-120777000D01*
X100457000Y-120797000D01*
X100203000Y-120797000D01*
X100203000Y-120777000D01*
X99060085Y-120777000D01*
X98938096Y-120999039D01*
X99098959Y-121387423D01*
X99474866Y-121802389D01*
X99691703Y-121905014D01*
X99287189Y-122175302D01*
X98976120Y-122640849D01*
X98866887Y-123190000D01*
X94304694Y-123190000D01*
X94474772Y-122780407D01*
X94475826Y-121572890D01*
X94094495Y-120650000D01*
X106486887Y-120650000D01*
X106596120Y-121199151D01*
X106907189Y-121664698D01*
X107311703Y-121934986D01*
X107094866Y-122037611D01*
X106718959Y-122452577D01*
X106558096Y-122840961D01*
X106680085Y-123063000D01*
X107823000Y-123063000D01*
X107823000Y-123043000D01*
X108077000Y-123043000D01*
X108077000Y-123063000D01*
X109219915Y-123063000D01*
X109341904Y-122840961D01*
X109181041Y-122452577D01*
X108805134Y-122037611D01*
X108588297Y-121934986D01*
X108992811Y-121664698D01*
X109303880Y-121199151D01*
X109413113Y-120650000D01*
X109303880Y-120100849D01*
X108992811Y-119635302D01*
X108588297Y-119365014D01*
X108805134Y-119262389D01*
X109181041Y-118847423D01*
X109341904Y-118459039D01*
X109219915Y-118237000D01*
X108077000Y-118237000D01*
X108077000Y-118257000D01*
X107823000Y-118257000D01*
X107823000Y-118237000D01*
X106680085Y-118237000D01*
X106558096Y-118459039D01*
X106718959Y-118847423D01*
X107094866Y-119262389D01*
X107311703Y-119365014D01*
X106907189Y-119635302D01*
X106596120Y-120100849D01*
X106486887Y-120650000D01*
X94094495Y-120650000D01*
X94014702Y-120456887D01*
X93161604Y-119602298D01*
X92046407Y-119139228D01*
X90838890Y-119138174D01*
X89722887Y-119599298D01*
X89407740Y-119913895D01*
X89407740Y-115963700D01*
X89363462Y-115728383D01*
X89224390Y-115512259D01*
X89012190Y-115367269D01*
X88760300Y-115316260D01*
X83959700Y-115316260D01*
X83724383Y-115360538D01*
X83508259Y-115499610D01*
X83372450Y-115698372D01*
X81309539Y-113635461D01*
X81004646Y-113431738D01*
X80645000Y-113360200D01*
X77421413Y-113360200D01*
X77019003Y-112957086D01*
X76436659Y-112715276D01*
X75806107Y-112714725D01*
X75223343Y-112955519D01*
X74869774Y-113308471D01*
X74559800Y-112997954D01*
X74559800Y-112064800D01*
X82165722Y-112064800D01*
X82792560Y-112691638D01*
X82792560Y-114210000D01*
X82836838Y-114445317D01*
X82975910Y-114661441D01*
X83188110Y-114806431D01*
X83440000Y-114857440D01*
X85640000Y-114857440D01*
X85875317Y-114813162D01*
X86091441Y-114674090D01*
X86236431Y-114461890D01*
X86287440Y-114210000D01*
X86287440Y-112010000D01*
X86243162Y-111774683D01*
X86104090Y-111558559D01*
X85891890Y-111413569D01*
X85640000Y-111362560D01*
X85479800Y-111362560D01*
X85479800Y-110564800D01*
X85842946Y-110564800D01*
X85968630Y-110589800D01*
X86010534Y-110589800D01*
X86286077Y-110865824D01*
X86813309Y-111084750D01*
X87384187Y-111085248D01*
X87911800Y-110867243D01*
X88315824Y-110463923D01*
X88534750Y-109936691D01*
X88535248Y-109365813D01*
X88317243Y-108838200D01*
X87913923Y-108434176D01*
X87386691Y-108215250D01*
X86815813Y-108214752D01*
X86288200Y-108432757D01*
X86020082Y-108700407D01*
X85943630Y-108685200D01*
X85383068Y-108685200D01*
X85369800Y-108079725D01*
X85369800Y-107109800D01*
X93679940Y-107109800D01*
X93640687Y-107204332D01*
X93640313Y-107633784D01*
X93780200Y-107972336D01*
X93780200Y-108566472D01*
X93677189Y-108635302D01*
X93366120Y-109100849D01*
X93256887Y-109650000D01*
X93366120Y-110199151D01*
X93677189Y-110664698D01*
X93760200Y-110720164D01*
X93760200Y-111668670D01*
X93439179Y-111883170D01*
X93063078Y-112446044D01*
X92931009Y-113110000D01*
X93063078Y-113773956D01*
X93439179Y-114336830D01*
X94002053Y-114712931D01*
X94666009Y-114845000D01*
X94733991Y-114845000D01*
X95397947Y-114712931D01*
X95960821Y-114336830D01*
X96152609Y-114049800D01*
X96685722Y-114049800D01*
X98870461Y-116234539D01*
X99175354Y-116438262D01*
X99191488Y-116441471D01*
X99287189Y-116584698D01*
X99669275Y-116840000D01*
X99287189Y-117095302D01*
X98976120Y-117560849D01*
X98866887Y-118110000D01*
X98976120Y-118659151D01*
X99287189Y-119124698D01*
X99691703Y-119394986D01*
X99474866Y-119497611D01*
X99098959Y-119912577D01*
X98938096Y-120300961D01*
X99060085Y-120523000D01*
X100203000Y-120523000D01*
X100203000Y-120503000D01*
X100457000Y-120503000D01*
X100457000Y-120523000D01*
X101599915Y-120523000D01*
X101721904Y-120300961D01*
X101561041Y-119912577D01*
X101185134Y-119497611D01*
X100968297Y-119394986D01*
X101372811Y-119124698D01*
X101683880Y-118659151D01*
X101793113Y-118110000D01*
X101683880Y-117560849D01*
X101372811Y-117095302D01*
X100990725Y-116840000D01*
X101372811Y-116584698D01*
X101683880Y-116119151D01*
X101793113Y-115570000D01*
X101683880Y-115020849D01*
X101372811Y-114555302D01*
X100990725Y-114300000D01*
X101372811Y-114044698D01*
X101386901Y-114023611D01*
X102019145Y-114655855D01*
X102258115Y-114815530D01*
X102540000Y-114871600D01*
X106695845Y-114871600D01*
X106596120Y-115020849D01*
X106486887Y-115570000D01*
X106596120Y-116119151D01*
X106907189Y-116584698D01*
X107311703Y-116854986D01*
X107094866Y-116957611D01*
X106718959Y-117372577D01*
X106558096Y-117760961D01*
X106680085Y-117983000D01*
X107823000Y-117983000D01*
X107823000Y-117963000D01*
X108077000Y-117963000D01*
X108077000Y-117983000D01*
X109219915Y-117983000D01*
X109341904Y-117760961D01*
X109181041Y-117372577D01*
X108805134Y-116957611D01*
X108588297Y-116854986D01*
X108992811Y-116584698D01*
X109303880Y-116119151D01*
X109413113Y-115570000D01*
X109303880Y-115020849D01*
X109204155Y-114871600D01*
X112493890Y-114871600D01*
X113554145Y-115931855D01*
X113793116Y-116091531D01*
X114075000Y-116147601D01*
X114075005Y-116147600D01*
X121931836Y-116147600D01*
X121836120Y-116290849D01*
X121726887Y-116840000D01*
X121836120Y-117389151D01*
X122147189Y-117854698D01*
X122529275Y-118110000D01*
X122147189Y-118365302D01*
X121836120Y-118830849D01*
X121726887Y-119380000D01*
X121836120Y-119929151D01*
X122147189Y-120394698D01*
X122529275Y-120650000D01*
X122147189Y-120905302D01*
X121836120Y-121370849D01*
X121726887Y-121920000D01*
X121836120Y-122469151D01*
X122147189Y-122934698D01*
X122529275Y-123190000D01*
X122147189Y-123445302D01*
X121836120Y-123910849D01*
X121726887Y-124460000D01*
X121836120Y-125009151D01*
X122147189Y-125474698D01*
X122529275Y-125730000D01*
X122147189Y-125985302D01*
X121836120Y-126450849D01*
X121726887Y-127000000D01*
X121836120Y-127549151D01*
X122147189Y-128014698D01*
X122612736Y-128325767D01*
X123161887Y-128435000D01*
X123218113Y-128435000D01*
X123767264Y-128325767D01*
X124232811Y-128014698D01*
X124437581Y-127708239D01*
X124576885Y-127680530D01*
X124815855Y-127520855D01*
X125705110Y-126631600D01*
X137040166Y-126631600D01*
X136966887Y-127000000D01*
X137076120Y-127549151D01*
X137387189Y-128014698D01*
X137852736Y-128325767D01*
X138401887Y-128435000D01*
X138458113Y-128435000D01*
X139007264Y-128325767D01*
X139472811Y-128014698D01*
X139677581Y-127708239D01*
X139816885Y-127680530D01*
X140055855Y-127520855D01*
X140227671Y-127349039D01*
X144658096Y-127349039D01*
X144818959Y-127737423D01*
X145194866Y-128152389D01*
X145700959Y-128391914D01*
X145923000Y-128270629D01*
X145923000Y-127127000D01*
X146177000Y-127127000D01*
X146177000Y-128270629D01*
X146399041Y-128391914D01*
X146905134Y-128152389D01*
X147281041Y-127737423D01*
X147441904Y-127349039D01*
X147319915Y-127127000D01*
X146177000Y-127127000D01*
X145923000Y-127127000D01*
X144780085Y-127127000D01*
X144658096Y-127349039D01*
X140227671Y-127349039D01*
X141275110Y-126301600D01*
X144802796Y-126301600D01*
X144658096Y-126650961D01*
X144780085Y-126873000D01*
X145923000Y-126873000D01*
X145923000Y-126853000D01*
X146177000Y-126853000D01*
X146177000Y-126873000D01*
X147319915Y-126873000D01*
X147441904Y-126650961D01*
X147297204Y-126301600D01*
X151460000Y-126301600D01*
X151741885Y-126245530D01*
X151980855Y-126085855D01*
X152613099Y-125453611D01*
X152627189Y-125474698D01*
X153009275Y-125730000D01*
X152627189Y-125985302D01*
X152316120Y-126450849D01*
X152206887Y-127000000D01*
X152316120Y-127549151D01*
X152627189Y-128014698D01*
X153092736Y-128325767D01*
X153641887Y-128435000D01*
X153698113Y-128435000D01*
X154247264Y-128325767D01*
X154712811Y-128014698D01*
X154727563Y-127992619D01*
X156614613Y-127992619D01*
X156954155Y-128814372D01*
X157582321Y-129443636D01*
X158403481Y-129784611D01*
X159292619Y-129785387D01*
X160114372Y-129445845D01*
X160743636Y-128817679D01*
X161084611Y-127996519D01*
X161085387Y-127107381D01*
X160745845Y-126285628D01*
X160117679Y-125656364D01*
X159296519Y-125315389D01*
X158407381Y-125314613D01*
X157585628Y-125654155D01*
X156956364Y-126282321D01*
X156615389Y-127103481D01*
X156614613Y-127992619D01*
X154727563Y-127992619D01*
X155023880Y-127549151D01*
X155133113Y-127000000D01*
X155023880Y-126450849D01*
X154712811Y-125985302D01*
X154330725Y-125730000D01*
X154712811Y-125474698D01*
X155023880Y-125009151D01*
X155133113Y-124460000D01*
X155023880Y-123910849D01*
X154767925Y-123527785D01*
X155340855Y-122954855D01*
X155500530Y-122715885D01*
X155556600Y-122434000D01*
X155556600Y-113884000D01*
X155556564Y-113883820D01*
X155556600Y-113883639D01*
X155528487Y-113742667D01*
X155500530Y-113602115D01*
X155500428Y-113601962D01*
X155500392Y-113601782D01*
X155421017Y-113483115D01*
X155340855Y-113363145D01*
X155340701Y-113363042D01*
X155340599Y-113362890D01*
X154728431Y-112751322D01*
X155023880Y-112309151D01*
X155133113Y-111760000D01*
X155023880Y-111210849D01*
X154712811Y-110745302D01*
X154609800Y-110676472D01*
X154609800Y-109039466D01*
X154885824Y-108763923D01*
X155104750Y-108236691D01*
X155105248Y-107665813D01*
X154995558Y-107400342D01*
X155780583Y-105830292D01*
X155789502Y-105797722D01*
X155808262Y-105769646D01*
X155837648Y-105621912D01*
X155877436Y-105476622D01*
X155873212Y-105443118D01*
X155879800Y-105410000D01*
X155879800Y-76200000D01*
X155808262Y-75840354D01*
X155604539Y-75535461D01*
X155299646Y-75331738D01*
X154940000Y-75260200D01*
X138032994Y-75260200D01*
X138065313Y-75182368D01*
X138065687Y-74752916D01*
X137901689Y-74356011D01*
X137598286Y-74052078D01*
X137201668Y-73887387D01*
X136772216Y-73887013D01*
X136375311Y-74051011D01*
X136071378Y-74354414D01*
X135906687Y-74751032D01*
X135906598Y-74853798D01*
X134932728Y-74853798D01*
X138764174Y-71021779D01*
X139126511Y-71263885D01*
X139700000Y-71377959D01*
X140273489Y-71263885D01*
X140759670Y-70939029D01*
X141084526Y-70452848D01*
X141198600Y-69879359D01*
X141198600Y-69820641D01*
X141084526Y-69247152D01*
X140759670Y-68760971D01*
X140488828Y-68580000D01*
X140759670Y-68399029D01*
X141084526Y-67912848D01*
X141198600Y-67339359D01*
X141198600Y-67280641D01*
X141084526Y-66707152D01*
X140759670Y-66220971D01*
X140273489Y-65896115D01*
X139700000Y-65782041D01*
X139126511Y-65896115D01*
X138640330Y-66220971D01*
X138430000Y-66535752D01*
X138219670Y-66220971D01*
X137733489Y-65896115D01*
X137160000Y-65782041D01*
X136586511Y-65896115D01*
X136189586Y-66161332D01*
X135631741Y-65603731D01*
X135512866Y-65524339D01*
X135392885Y-65444170D01*
X135392804Y-65444154D01*
X135392735Y-65444108D01*
X135251918Y-65416130D01*
X135111000Y-65388100D01*
X113751000Y-65388100D01*
X113750978Y-65388104D01*
X113750955Y-65388100D01*
X113609172Y-65416311D01*
X113469115Y-65444170D01*
X113469096Y-65444183D01*
X113469074Y-65444187D01*
X113350861Y-65523185D01*
X113230145Y-65603845D01*
X113230132Y-65603864D01*
X113230113Y-65603877D01*
X112695831Y-66138224D01*
X112333489Y-65896115D01*
X111760000Y-65782041D01*
X111186511Y-65896115D01*
X110700330Y-66220971D01*
X110490000Y-66535752D01*
X110279670Y-66220971D01*
X109793489Y-65896115D01*
X109220000Y-65782041D01*
X108646511Y-65896115D01*
X108160330Y-66220971D01*
X107950000Y-66535752D01*
X107739670Y-66220971D01*
X107253489Y-65896115D01*
X106680000Y-65782041D01*
X106106511Y-65896115D01*
X105620330Y-66220971D01*
X105410000Y-66535752D01*
X105199670Y-66220971D01*
X104713489Y-65896115D01*
X104140000Y-65782041D01*
X103566511Y-65896115D01*
X103080330Y-66220971D01*
X102870000Y-66535752D01*
X102659670Y-66220971D01*
X102173489Y-65896115D01*
X101600000Y-65782041D01*
X101026511Y-65896115D01*
X100540330Y-66220971D01*
X100330000Y-66535752D01*
X100119670Y-66220971D01*
X99633489Y-65896115D01*
X99060000Y-65782041D01*
X98486511Y-65896115D01*
X98000330Y-66220971D01*
X97790000Y-66535752D01*
X97579670Y-66220971D01*
X97093489Y-65896115D01*
X96520000Y-65782041D01*
X95946511Y-65896115D01*
X95460330Y-66220971D01*
X95244336Y-66544228D01*
X95186821Y-66421510D01*
X94754947Y-66027312D01*
X94339026Y-65855042D01*
X94107000Y-65976183D01*
X94107000Y-67183000D01*
X94127000Y-67183000D01*
X94127000Y-67437000D01*
X94107000Y-67437000D01*
X94107000Y-67457000D01*
X93853000Y-67457000D01*
X93853000Y-67437000D01*
X91567000Y-67437000D01*
X91567000Y-67457000D01*
X91313000Y-67457000D01*
X91313000Y-67437000D01*
X90105531Y-67437000D01*
X89985032Y-67669027D01*
X90233179Y-68198490D01*
X90419433Y-68368495D01*
X90341083Y-68383238D01*
X90124959Y-68522310D01*
X89979969Y-68734510D01*
X89928960Y-68986400D01*
X89928960Y-70713600D01*
X89973238Y-70948917D01*
X90112310Y-71165041D01*
X90324510Y-71310031D01*
X90576400Y-71361040D01*
X92303600Y-71361040D01*
X92538917Y-71316762D01*
X92755041Y-71177690D01*
X92900031Y-70965490D01*
X92908864Y-70921869D01*
X92920330Y-70939029D01*
X93406511Y-71263885D01*
X93980000Y-71377959D01*
X94553489Y-71263885D01*
X95039670Y-70939029D01*
X95250000Y-70624248D01*
X95460330Y-70939029D01*
X95946511Y-71263885D01*
X96520000Y-71377959D01*
X97093489Y-71263885D01*
X97579670Y-70939029D01*
X97790000Y-70624248D01*
X98000330Y-70939029D01*
X98486511Y-71263885D01*
X99060000Y-71377959D01*
X99633489Y-71263885D01*
X100119670Y-70939029D01*
X100330000Y-70624248D01*
X100540330Y-70939029D01*
X101026511Y-71263885D01*
X101600000Y-71377959D01*
X102173489Y-71263885D01*
X102659670Y-70939029D01*
X102870000Y-70624248D01*
X103080330Y-70939029D01*
X103566511Y-71263885D01*
X104140000Y-71377959D01*
X104713489Y-71263885D01*
X105199670Y-70939029D01*
X105410000Y-70624248D01*
X105620330Y-70939029D01*
X106106511Y-71263885D01*
X106680000Y-71377959D01*
X107253489Y-71263885D01*
X107739670Y-70939029D01*
X107950000Y-70624248D01*
X108160330Y-70939029D01*
X108646511Y-71263885D01*
X109220000Y-71377959D01*
X109793489Y-71263885D01*
X110279670Y-70939029D01*
X110490000Y-70624248D01*
X110700330Y-70939029D01*
X111186511Y-71263885D01*
X111760000Y-71377959D01*
X112333489Y-71263885D01*
X112819670Y-70939029D01*
X113030000Y-70624248D01*
X113240330Y-70939029D01*
X113726511Y-71263885D01*
X114300000Y-71377959D01*
X114873489Y-71263885D01*
X115359670Y-70939029D01*
X115570000Y-70624248D01*
X115780330Y-70939029D01*
X116266511Y-71263885D01*
X116815253Y-71373037D01*
X116544890Y-71643400D01*
X91090000Y-71643400D01*
X90808115Y-71699470D01*
X90569145Y-71859145D01*
X85839145Y-76589145D01*
X85679470Y-76828115D01*
X85623400Y-77110000D01*
X85623400Y-81301685D01*
X85548200Y-81332757D01*
X85144176Y-81736077D01*
X84925250Y-82263309D01*
X84924752Y-82834187D01*
X85142757Y-83361800D01*
X85546077Y-83765824D01*
X86073309Y-83984750D01*
X86644187Y-83985248D01*
X86721566Y-83953276D01*
X87896445Y-85128155D01*
X88135415Y-85287830D01*
X88182183Y-85297133D01*
X88417300Y-85343901D01*
X88417305Y-85343900D01*
X94627090Y-85343900D01*
X98704045Y-89420855D01*
X98882560Y-89540135D01*
X98882560Y-89700000D01*
X98926838Y-89935317D01*
X99065910Y-90151441D01*
X99278110Y-90296431D01*
X99433089Y-90327815D01*
X99287189Y-90425302D01*
X98976120Y-90890849D01*
X98866887Y-91440000D01*
X98976120Y-91989151D01*
X99287189Y-92454698D01*
X99669275Y-92710000D01*
X99287189Y-92965302D01*
X99101370Y-93243400D01*
X95228315Y-93243400D01*
X95197243Y-93168200D01*
X94793923Y-92764176D01*
X94266691Y-92545250D01*
X93695813Y-92544752D01*
X93168200Y-92762757D01*
X92764176Y-93166077D01*
X92545250Y-93693309D01*
X92544752Y-94264187D01*
X92762757Y-94791800D01*
X93166077Y-95195824D01*
X93693309Y-95414750D01*
X94264187Y-95415248D01*
X94791800Y-95197243D01*
X95195824Y-94793923D01*
X95227931Y-94716600D01*
X99101370Y-94716600D01*
X99287189Y-94994698D01*
X99619598Y-95216807D01*
X99631254Y-95275405D01*
X99287189Y-95505302D01*
X98976120Y-95970849D01*
X98866887Y-96520000D01*
X98976120Y-97069151D01*
X99287189Y-97534698D01*
X99669275Y-97790000D01*
X99287189Y-98045302D01*
X99101370Y-98323400D01*
X92850210Y-98323400D01*
X87985955Y-93459145D01*
X87746985Y-93299470D01*
X87607565Y-93271738D01*
X87402811Y-92965302D01*
X86937264Y-92654233D01*
X86388113Y-92545000D01*
X86331887Y-92545000D01*
X85782736Y-92654233D01*
X85317189Y-92965302D01*
X85240357Y-93080289D01*
X85054900Y-93043400D01*
X82474216Y-93043400D01*
X82454831Y-92996485D01*
X82065564Y-92606539D01*
X81556702Y-92395241D01*
X81005715Y-92394760D01*
X80496485Y-92605169D01*
X80106539Y-92994436D01*
X80086207Y-93043400D01*
X76400000Y-93043400D01*
X76118115Y-93099470D01*
X75879145Y-93259145D01*
X75097615Y-94040675D01*
X75079778Y-93666546D01*
X74913864Y-93265995D01*
X74667745Y-93191861D01*
X73839605Y-94020000D01*
X73853748Y-94034142D01*
X73674142Y-94213748D01*
X73660000Y-94199605D01*
X72831861Y-95027745D01*
X72905995Y-95273864D01*
X72912483Y-95276196D01*
X72848200Y-95302757D01*
X72444176Y-95706077D01*
X72225250Y-96233309D01*
X72224752Y-96804187D01*
X72442757Y-97331800D01*
X72846077Y-97735824D01*
X73373309Y-97954750D01*
X73944187Y-97955248D01*
X74471800Y-97737243D01*
X74875824Y-97333923D01*
X75094750Y-96806691D01*
X75095248Y-96235813D01*
X75063276Y-96158434D01*
X76705110Y-94516600D01*
X80085784Y-94516600D01*
X80105169Y-94563515D01*
X80494436Y-94953461D01*
X81003298Y-95164759D01*
X81554285Y-95165240D01*
X82063515Y-94954831D01*
X82453461Y-94565564D01*
X82473793Y-94516600D01*
X84757609Y-94516600D01*
X84973015Y-94660530D01*
X85112435Y-94688262D01*
X85317189Y-94994698D01*
X85782736Y-95305767D01*
X86331887Y-95415000D01*
X86388113Y-95415000D01*
X86937264Y-95305767D01*
X87402811Y-94994698D01*
X87416941Y-94973551D01*
X92024245Y-99580855D01*
X92263215Y-99740530D01*
X92545100Y-99796600D01*
X99101370Y-99796600D01*
X99287189Y-100074698D01*
X99631271Y-100304607D01*
X99619621Y-100363178D01*
X99287189Y-100585302D01*
X98976120Y-101050849D01*
X98866887Y-101600000D01*
X98976120Y-102149151D01*
X99287189Y-102614698D01*
X99691703Y-102884986D01*
X99474866Y-102987611D01*
X99098959Y-103402577D01*
X98938096Y-103790961D01*
X99060085Y-104013000D01*
X100203000Y-104013000D01*
X100203000Y-103993000D01*
X100457000Y-103993000D01*
X100457000Y-104013000D01*
X101599915Y-104013000D01*
X101721904Y-103790961D01*
X101561041Y-103402577D01*
X101185134Y-102987611D01*
X100968297Y-102884986D01*
X101372811Y-102614698D01*
X101683880Y-102149151D01*
X101793113Y-101600000D01*
X101683880Y-101050849D01*
X101391442Y-100613185D01*
X101957852Y-100046657D01*
X101957855Y-100046655D01*
X101957857Y-100046652D01*
X101957908Y-100046601D01*
X102038218Y-99926383D01*
X102117530Y-99807685D01*
X102117538Y-99807647D01*
X102117559Y-99807615D01*
X102145541Y-99666861D01*
X102173600Y-99525800D01*
X102173600Y-95963300D01*
X102145392Y-95821489D01*
X102117562Y-95681493D01*
X102117539Y-95681458D01*
X102117530Y-95681415D01*
X102035265Y-95558298D01*
X101957914Y-95442505D01*
X101957857Y-95442448D01*
X101957855Y-95442445D01*
X101957852Y-95442443D01*
X101427853Y-94912322D01*
X101683880Y-94529151D01*
X101793113Y-93980000D01*
X101683880Y-93430849D01*
X101372811Y-92965302D01*
X100990725Y-92710000D01*
X101372811Y-92454698D01*
X101683880Y-91989151D01*
X101793113Y-91440000D01*
X101683880Y-90890849D01*
X101372811Y-90425302D01*
X101228535Y-90328899D01*
X101365317Y-90303162D01*
X101581441Y-90164090D01*
X101726431Y-89951890D01*
X101777440Y-89700000D01*
X101777440Y-88100000D01*
X101733162Y-87864683D01*
X101594090Y-87648559D01*
X101381890Y-87503569D01*
X101130000Y-87452560D01*
X99530000Y-87452560D01*
X99294683Y-87496838D01*
X99078559Y-87635910D01*
X99047693Y-87681083D01*
X98734355Y-87367745D01*
X102081861Y-87367745D01*
X102155995Y-87613864D01*
X102693223Y-87806965D01*
X103263454Y-87779778D01*
X103664005Y-87613864D01*
X103738139Y-87367745D01*
X102910000Y-86539605D01*
X102081861Y-87367745D01*
X98734355Y-87367745D01*
X97509833Y-86143223D01*
X101463035Y-86143223D01*
X101490222Y-86713454D01*
X101656136Y-87114005D01*
X101902255Y-87188139D01*
X102730395Y-86360000D01*
X101902255Y-85531861D01*
X101656136Y-85605995D01*
X101463035Y-86143223D01*
X97509833Y-86143223D01*
X96718865Y-85352255D01*
X102081861Y-85352255D01*
X102910000Y-86180395D01*
X103738139Y-85352255D01*
X103664005Y-85106136D01*
X103126777Y-84913035D01*
X102556546Y-84940222D01*
X102155995Y-85106136D01*
X102081861Y-85352255D01*
X96718865Y-85352255D01*
X95453055Y-84086445D01*
X95214085Y-83926770D01*
X94932200Y-83870700D01*
X94479509Y-83870700D01*
X94835134Y-83702389D01*
X95211041Y-83287423D01*
X95371904Y-82899039D01*
X95249915Y-82677000D01*
X94107000Y-82677000D01*
X94107000Y-82697000D01*
X93853000Y-82697000D01*
X93853000Y-82677000D01*
X92710085Y-82677000D01*
X92588096Y-82899039D01*
X92748959Y-83287423D01*
X93124866Y-83702389D01*
X93480491Y-83870700D01*
X88722410Y-83870700D01*
X87763547Y-82911837D01*
X87794750Y-82836691D01*
X87795248Y-82265813D01*
X87768452Y-82200961D01*
X92588096Y-82200961D01*
X92710085Y-82423000D01*
X93853000Y-82423000D01*
X93853000Y-81279371D01*
X94107000Y-81279371D01*
X94107000Y-82423000D01*
X95249915Y-82423000D01*
X95371904Y-82200961D01*
X95211041Y-81812577D01*
X94835134Y-81397611D01*
X94329041Y-81158086D01*
X94107000Y-81279371D01*
X93853000Y-81279371D01*
X93630959Y-81158086D01*
X93124866Y-81397611D01*
X92748959Y-81812577D01*
X92588096Y-82200961D01*
X87768452Y-82200961D01*
X87577243Y-81738200D01*
X87173923Y-81334176D01*
X87096600Y-81302069D01*
X87096600Y-77415110D01*
X91395110Y-73116600D01*
X113968395Y-73116600D01*
X113659311Y-73244311D01*
X113355378Y-73547714D01*
X113190687Y-73944332D01*
X113190313Y-74373784D01*
X113354311Y-74770689D01*
X113657714Y-75074622D01*
X114054332Y-75239313D01*
X114483784Y-75239687D01*
X114880689Y-75075689D01*
X115060091Y-74896600D01*
X115444890Y-74896600D01*
X115808490Y-75260200D01*
X111760000Y-75260200D01*
X111585229Y-75294964D01*
X111400394Y-75331721D01*
X111400375Y-75331734D01*
X111400354Y-75331738D01*
X111249705Y-75432399D01*
X111095491Y-75535431D01*
X105559491Y-81070931D01*
X105559397Y-81071071D01*
X105559257Y-81071165D01*
X105409796Y-81220718D01*
X101644539Y-77455461D01*
X101339646Y-77251738D01*
X100980000Y-77180200D01*
X94551651Y-77180200D01*
X94215668Y-77040687D01*
X93786216Y-77040313D01*
X93389311Y-77204311D01*
X93085378Y-77507714D01*
X92920687Y-77904332D01*
X92920313Y-78333784D01*
X93084311Y-78730689D01*
X93387714Y-79034622D01*
X93784332Y-79199313D01*
X94213784Y-79199687D01*
X94552336Y-79059800D01*
X100590722Y-79059800D01*
X104470200Y-82939278D01*
X104470200Y-85270534D01*
X104194176Y-85546077D01*
X104166577Y-85612544D01*
X104163864Y-85605995D01*
X103917745Y-85531861D01*
X103089605Y-86360000D01*
X103917745Y-87188139D01*
X104163864Y-87114005D01*
X104166196Y-87107517D01*
X104192757Y-87171800D01*
X104470200Y-87449727D01*
X104470200Y-87875722D01*
X102840461Y-89505461D01*
X102636738Y-89810354D01*
X102565200Y-90170000D01*
X102565200Y-101787000D01*
X102636738Y-102146646D01*
X102840461Y-102451539D01*
X103512411Y-103123489D01*
X101405205Y-105230200D01*
X101241469Y-105230200D01*
X101561041Y-104877423D01*
X101721904Y-104489039D01*
X101599915Y-104267000D01*
X100457000Y-104267000D01*
X100457000Y-104287000D01*
X100203000Y-104287000D01*
X100203000Y-104267000D01*
X99060085Y-104267000D01*
X98938096Y-104489039D01*
X99098959Y-104877423D01*
X99418531Y-105230200D01*
X84430000Y-105230200D01*
X84070354Y-105301738D01*
X83765461Y-105505461D01*
X83561738Y-105810354D01*
X83490200Y-106170000D01*
X83490200Y-108090000D01*
X83492244Y-108100274D01*
X83490426Y-108110589D01*
X83524062Y-109645588D01*
X83549140Y-110790062D01*
X83219539Y-110460461D01*
X82914646Y-110256738D01*
X82555000Y-110185200D01*
X73660000Y-110185200D01*
X73458906Y-110225200D01*
X68349800Y-110225200D01*
X68349800Y-105603795D01*
X71164716Y-105603795D01*
X71413106Y-106204943D01*
X71872637Y-106665278D01*
X72473352Y-106914716D01*
X73123795Y-106915284D01*
X73724943Y-106666894D01*
X74172819Y-106219800D01*
X77927937Y-106219800D01*
X78372637Y-106665278D01*
X78973352Y-106914716D01*
X79623795Y-106915284D01*
X80224943Y-106666894D01*
X80596696Y-106295790D01*
X81201454Y-106346512D01*
X81240983Y-106342039D01*
X81280000Y-106349800D01*
X81421975Y-106321559D01*
X81565820Y-106305283D01*
X81600629Y-106286023D01*
X81639646Y-106278262D01*
X81760013Y-106197836D01*
X81886673Y-106127754D01*
X81911460Y-106096641D01*
X81944539Y-106074539D01*
X82024964Y-105954174D01*
X82115166Y-105840955D01*
X82126161Y-105802723D01*
X82148262Y-105769646D01*
X82176503Y-105627668D01*
X82216512Y-105488546D01*
X82212039Y-105449017D01*
X82219800Y-105410000D01*
X82219800Y-105164278D01*
X83884278Y-103499800D01*
X86714071Y-103499800D01*
X86785910Y-103611441D01*
X86998110Y-103756431D01*
X87250000Y-103807440D01*
X88450000Y-103807440D01*
X88685317Y-103763162D01*
X88901441Y-103624090D01*
X88986365Y-103499800D01*
X92010722Y-103499800D01*
X92045461Y-103534539D01*
X92350354Y-103738262D01*
X92710000Y-103809800D01*
X92793349Y-103809800D01*
X93129332Y-103949313D01*
X93558784Y-103949687D01*
X93955689Y-103785689D01*
X94259622Y-103482286D01*
X94424313Y-103085668D01*
X94424687Y-102656216D01*
X94260689Y-102259311D01*
X93957286Y-101955378D01*
X93560668Y-101790687D01*
X93131216Y-101790313D01*
X92992780Y-101847513D01*
X92759646Y-101691738D01*
X92400000Y-101620200D01*
X88985929Y-101620200D01*
X88914090Y-101508559D01*
X88774245Y-101413007D01*
X88828430Y-101358822D01*
X88712737Y-101243129D01*
X88938164Y-101193617D01*
X89097807Y-100728964D01*
X89067482Y-100238587D01*
X88938164Y-99926383D01*
X88712735Y-99876870D01*
X88029605Y-100560000D01*
X88043748Y-100574143D01*
X87864143Y-100753748D01*
X87850000Y-100739605D01*
X87835858Y-100753748D01*
X87656253Y-100574143D01*
X87670395Y-100560000D01*
X86987265Y-99876870D01*
X86761836Y-99926383D01*
X86602193Y-100391036D01*
X86632518Y-100881413D01*
X86761836Y-101193617D01*
X86987263Y-101243129D01*
X86871570Y-101358822D01*
X86926397Y-101413649D01*
X86798559Y-101495910D01*
X86713635Y-101620200D01*
X83495000Y-101620200D01*
X83135354Y-101691738D01*
X82830461Y-101895461D01*
X80615461Y-104110461D01*
X80546200Y-104214117D01*
X80227363Y-103894722D01*
X79626648Y-103645284D01*
X78976205Y-103644716D01*
X78375057Y-103893106D01*
X77927181Y-104340200D01*
X74172063Y-104340200D01*
X73727363Y-103894722D01*
X73126648Y-103645284D01*
X72476205Y-103644716D01*
X71875057Y-103893106D01*
X71414722Y-104352637D01*
X71165284Y-104953352D01*
X71164716Y-105603795D01*
X68349800Y-105603795D01*
X68349800Y-101932532D01*
X71827073Y-101932532D01*
X71925736Y-102199387D01*
X72535461Y-102425908D01*
X73185460Y-102401856D01*
X73674264Y-102199387D01*
X73772927Y-101932532D01*
X78327073Y-101932532D01*
X78425736Y-102199387D01*
X79035461Y-102425908D01*
X79685460Y-102401856D01*
X80174264Y-102199387D01*
X80272927Y-101932532D01*
X79300000Y-100959605D01*
X78327073Y-101932532D01*
X73772927Y-101932532D01*
X72800000Y-100959605D01*
X71827073Y-101932532D01*
X68349800Y-101932532D01*
X68349800Y-100515461D01*
X71154092Y-100515461D01*
X71178144Y-101165460D01*
X71380613Y-101654264D01*
X71647468Y-101752927D01*
X72620395Y-100780000D01*
X72979605Y-100780000D01*
X73952532Y-101752927D01*
X74219387Y-101654264D01*
X74445908Y-101044539D01*
X74426331Y-100515461D01*
X77654092Y-100515461D01*
X77678144Y-101165460D01*
X77880613Y-101654264D01*
X78147468Y-101752927D01*
X79120395Y-100780000D01*
X79479605Y-100780000D01*
X80452532Y-101752927D01*
X80719387Y-101654264D01*
X80945908Y-101044539D01*
X80921856Y-100394540D01*
X80719387Y-99905736D01*
X80452532Y-99807073D01*
X79479605Y-100780000D01*
X79120395Y-100780000D01*
X78147468Y-99807073D01*
X77880613Y-99905736D01*
X77654092Y-100515461D01*
X74426331Y-100515461D01*
X74421856Y-100394540D01*
X74219387Y-99905736D01*
X73952532Y-99807073D01*
X72979605Y-100780000D01*
X72620395Y-100780000D01*
X71647468Y-99807073D01*
X71380613Y-99905736D01*
X71154092Y-100515461D01*
X68349800Y-100515461D01*
X68349800Y-99627468D01*
X71827073Y-99627468D01*
X72800000Y-100600395D01*
X73772927Y-99627468D01*
X78327073Y-99627468D01*
X79300000Y-100600395D01*
X80203130Y-99697265D01*
X87166870Y-99697265D01*
X87850000Y-100380395D01*
X88533130Y-99697265D01*
X88483617Y-99471836D01*
X88018964Y-99312193D01*
X87528587Y-99342518D01*
X87216383Y-99471836D01*
X87166870Y-99697265D01*
X80203130Y-99697265D01*
X80272927Y-99627468D01*
X80174264Y-99360613D01*
X79564539Y-99134092D01*
X78914540Y-99158144D01*
X78425736Y-99360613D01*
X78327073Y-99627468D01*
X73772927Y-99627468D01*
X73674264Y-99360613D01*
X73064539Y-99134092D01*
X72414540Y-99158144D01*
X71925736Y-99360613D01*
X71827073Y-99627468D01*
X68349800Y-99627468D01*
X68349800Y-93803223D01*
X72213035Y-93803223D01*
X72240222Y-94373454D01*
X72406136Y-94774005D01*
X72652255Y-94848139D01*
X73480395Y-94020000D01*
X72652255Y-93191861D01*
X72406136Y-93265995D01*
X72213035Y-93803223D01*
X68349800Y-93803223D01*
X68349800Y-93012255D01*
X72831861Y-93012255D01*
X73660000Y-93840395D01*
X74488139Y-93012255D01*
X74414005Y-92766136D01*
X73876777Y-92573035D01*
X73306546Y-92600222D01*
X72905995Y-92766136D01*
X72831861Y-93012255D01*
X68349800Y-93012255D01*
X68349800Y-91137745D01*
X72831861Y-91137745D01*
X72905995Y-91383864D01*
X73443223Y-91576965D01*
X74013454Y-91549778D01*
X74414005Y-91383864D01*
X74488139Y-91137745D01*
X73660000Y-90309605D01*
X72831861Y-91137745D01*
X68349800Y-91137745D01*
X68349800Y-89913223D01*
X72213035Y-89913223D01*
X72240222Y-90483454D01*
X72406136Y-90884005D01*
X72652255Y-90958139D01*
X73480395Y-90130000D01*
X72652255Y-89301861D01*
X72406136Y-89375995D01*
X72213035Y-89913223D01*
X68349800Y-89913223D01*
X68349800Y-87914187D01*
X72224752Y-87914187D01*
X72442757Y-88441800D01*
X72846077Y-88845824D01*
X72912544Y-88873423D01*
X72905995Y-88876136D01*
X72831861Y-89122255D01*
X73660000Y-89950395D01*
X73674142Y-89936252D01*
X73853748Y-90115858D01*
X73839605Y-90130000D01*
X74667745Y-90958139D01*
X74913864Y-90884005D01*
X75106965Y-90346777D01*
X75079778Y-89776546D01*
X75021810Y-89636600D01*
X80085784Y-89636600D01*
X80105169Y-89683515D01*
X80494436Y-90073461D01*
X81003298Y-90284759D01*
X81554285Y-90285240D01*
X82063515Y-90074831D01*
X82453461Y-89685564D01*
X82473793Y-89636600D01*
X85131370Y-89636600D01*
X85317189Y-89914698D01*
X85782736Y-90225767D01*
X86331887Y-90335000D01*
X86388113Y-90335000D01*
X86937264Y-90225767D01*
X87402811Y-89914698D01*
X87713880Y-89449151D01*
X87766584Y-89184187D01*
X92544752Y-89184187D01*
X92762757Y-89711800D01*
X93166077Y-90115824D01*
X93693309Y-90334750D01*
X94264187Y-90335248D01*
X94791800Y-90117243D01*
X95195824Y-89713923D01*
X95414750Y-89186691D01*
X95415248Y-88615813D01*
X95197243Y-88088200D01*
X94793923Y-87684176D01*
X94266691Y-87465250D01*
X93695813Y-87464752D01*
X93168200Y-87682757D01*
X92764176Y-88086077D01*
X92545250Y-88613309D01*
X92544752Y-89184187D01*
X87766584Y-89184187D01*
X87823113Y-88900000D01*
X87713880Y-88350849D01*
X87402811Y-87885302D01*
X86937264Y-87574233D01*
X86388113Y-87465000D01*
X86331887Y-87465000D01*
X85782736Y-87574233D01*
X85317189Y-87885302D01*
X85131370Y-88163400D01*
X82474216Y-88163400D01*
X82454831Y-88116485D01*
X82065564Y-87726539D01*
X81556702Y-87515241D01*
X81005715Y-87514760D01*
X80496485Y-87725169D01*
X80106539Y-88114436D01*
X80086207Y-88163400D01*
X75235110Y-88163400D01*
X75063547Y-87991837D01*
X75094750Y-87916691D01*
X75095248Y-87345813D01*
X74877243Y-86818200D01*
X74473923Y-86414176D01*
X73946691Y-86195250D01*
X73375813Y-86194752D01*
X72848200Y-86412757D01*
X72444176Y-86816077D01*
X72225250Y-87343309D01*
X72224752Y-87914187D01*
X68349800Y-87914187D01*
X68349800Y-82409039D01*
X69098096Y-82409039D01*
X69258959Y-82797423D01*
X69634866Y-83212389D01*
X70140959Y-83451914D01*
X70363000Y-83330629D01*
X70363000Y-82187000D01*
X70617000Y-82187000D01*
X70617000Y-83330629D01*
X70839041Y-83451914D01*
X71345134Y-83212389D01*
X71721041Y-82797423D01*
X71881904Y-82409039D01*
X71759915Y-82187000D01*
X70617000Y-82187000D01*
X70363000Y-82187000D01*
X69220085Y-82187000D01*
X69098096Y-82409039D01*
X68349800Y-82409039D01*
X68349800Y-81710961D01*
X69098096Y-81710961D01*
X69220085Y-81933000D01*
X70363000Y-81933000D01*
X70363000Y-80789371D01*
X70617000Y-80789371D01*
X70617000Y-81933000D01*
X71759915Y-81933000D01*
X71881904Y-81710961D01*
X71721041Y-81322577D01*
X71345134Y-80907611D01*
X70839041Y-80668086D01*
X70617000Y-80789371D01*
X70363000Y-80789371D01*
X70140959Y-80668086D01*
X69634866Y-80907611D01*
X69258959Y-81322577D01*
X69098096Y-81710961D01*
X68349800Y-81710961D01*
X68349800Y-81289278D01*
X68525842Y-81113236D01*
X73493751Y-78268642D01*
X73773330Y-78384733D01*
X74383991Y-78385265D01*
X74948371Y-78152068D01*
X75116613Y-77984120D01*
X75116838Y-77985317D01*
X75255910Y-78201441D01*
X75468110Y-78346431D01*
X75720000Y-78397440D01*
X77373400Y-78397440D01*
X77373400Y-80811685D01*
X77298200Y-80842757D01*
X76894176Y-81246077D01*
X76675250Y-81773309D01*
X76674752Y-82344187D01*
X76892757Y-82871800D01*
X77296077Y-83275824D01*
X77823309Y-83494750D01*
X78394187Y-83495248D01*
X78921800Y-83277243D01*
X79325824Y-82873923D01*
X79544750Y-82346691D01*
X79545248Y-81775813D01*
X79327243Y-81248200D01*
X78923923Y-80844176D01*
X78846600Y-80812069D01*
X78846600Y-77030000D01*
X78790530Y-76748115D01*
X78630855Y-76509145D01*
X78500855Y-76379145D01*
X78392407Y-76306682D01*
X78286697Y-76230286D01*
X78273319Y-76227110D01*
X78261885Y-76219470D01*
X78167440Y-76200684D01*
X78167440Y-75950000D01*
X78123162Y-75714683D01*
X77984090Y-75498559D01*
X77771890Y-75353569D01*
X77520000Y-75302560D01*
X75720000Y-75302560D01*
X75484683Y-75346838D01*
X75268559Y-75485910D01*
X75123569Y-75698110D01*
X75119433Y-75718534D01*
X74950643Y-75549449D01*
X74386670Y-75315267D01*
X73776009Y-75314735D01*
X73211629Y-75547932D01*
X72779449Y-75979357D01*
X72545267Y-76543330D01*
X72545178Y-76645871D01*
X67483012Y-79544435D01*
X67389049Y-79626246D01*
X67285461Y-79695461D01*
X66745461Y-80235461D01*
X66541738Y-80540354D01*
X66470200Y-80900000D01*
X66167000Y-80900000D01*
X66167000Y-66950973D01*
X89985032Y-66950973D01*
X90105531Y-67183000D01*
X91313000Y-67183000D01*
X91313000Y-65976183D01*
X91567000Y-65976183D01*
X91567000Y-67183000D01*
X93853000Y-67183000D01*
X93853000Y-65976183D01*
X93620974Y-65855042D01*
X93205053Y-66027312D01*
X92773179Y-66421510D01*
X92710000Y-66556313D01*
X92646821Y-66421510D01*
X92214947Y-66027312D01*
X91799026Y-65855042D01*
X91567000Y-65976183D01*
X91313000Y-65976183D01*
X91080974Y-65855042D01*
X90665053Y-66027312D01*
X90233179Y-66421510D01*
X89985032Y-66950973D01*
X66167000Y-66950973D01*
X66167000Y-62142619D01*
X67539613Y-62142619D01*
X67879155Y-62964372D01*
X68507321Y-63593636D01*
X69328481Y-63934611D01*
X70217619Y-63935387D01*
X71039372Y-63595845D01*
X71668636Y-62967679D01*
X72009611Y-62146519D01*
X72009614Y-62142619D01*
X156589613Y-62142619D01*
X156929155Y-62964372D01*
X157557321Y-63593636D01*
X158378481Y-63934611D01*
X159267619Y-63935387D01*
X160089372Y-63595845D01*
X160718636Y-62967679D01*
X161059611Y-62146519D01*
X161060387Y-61257381D01*
X160720845Y-60435628D01*
X160092679Y-59806364D01*
X159271519Y-59465389D01*
X158382381Y-59464613D01*
X157560628Y-59804155D01*
X156931364Y-60432321D01*
X156590389Y-61253481D01*
X156589613Y-62142619D01*
X72009614Y-62142619D01*
X72010387Y-61257381D01*
X71670845Y-60435628D01*
X71042679Y-59806364D01*
X70221519Y-59465389D01*
X69332381Y-59464613D01*
X68510628Y-59804155D01*
X67881364Y-60432321D01*
X67540389Y-61253481D01*
X67539613Y-62142619D01*
X66167000Y-62142619D01*
X66167000Y-58547000D01*
X162433000Y-58547000D01*
X162433000Y-130683000D01*
X162433000Y-130683000D01*
G37*
X162433000Y-130683000D02*
X66167000Y-130683000D01*
X66167000Y-128017619D01*
X67564613Y-128017619D01*
X67904155Y-128839372D01*
X68532321Y-129468636D01*
X69353481Y-129809611D01*
X70242619Y-129810387D01*
X71064372Y-129470845D01*
X71693636Y-128842679D01*
X72034611Y-128021519D01*
X72035387Y-127132381D01*
X71825302Y-126623936D01*
X84375670Y-126623936D01*
X84645221Y-127036257D01*
X85761642Y-127496369D01*
X86969157Y-127494221D01*
X88074779Y-127036257D01*
X88344330Y-126623936D01*
X86360000Y-124639605D01*
X84375670Y-126623936D01*
X71825302Y-126623936D01*
X71695845Y-126310628D01*
X71067679Y-125681364D01*
X70246519Y-125340389D01*
X69357381Y-125339613D01*
X68535628Y-125679155D01*
X67906364Y-126307321D01*
X67565389Y-127128481D01*
X67564613Y-128017619D01*
X66167000Y-128017619D01*
X66167000Y-123861642D01*
X83323631Y-123861642D01*
X83325779Y-125069157D01*
X83783743Y-126174779D01*
X84196064Y-126444330D01*
X86180395Y-124460000D01*
X84196064Y-122475670D01*
X83783743Y-122745221D01*
X83323631Y-123861642D01*
X66167000Y-123861642D01*
X66167000Y-80900000D01*
X66470200Y-80900000D01*
X66470200Y-111090000D01*
X66541738Y-111449646D01*
X66745461Y-111754539D01*
X66820461Y-111829539D01*
X67125354Y-112033262D01*
X67485000Y-112104800D01*
X72680200Y-112104800D01*
X72680200Y-112998587D01*
X72630428Y-113048272D01*
X72534090Y-112898559D01*
X72321890Y-112753569D01*
X72070000Y-112702560D01*
X70170000Y-112702560D01*
X69934683Y-112746838D01*
X69718559Y-112885910D01*
X69573569Y-113098110D01*
X69522560Y-113350000D01*
X69522560Y-115250000D01*
X69566838Y-115485317D01*
X69705910Y-115701441D01*
X69918110Y-115846431D01*
X70170000Y-115897440D01*
X72070000Y-115897440D01*
X72305317Y-115853162D01*
X72521441Y-115714090D01*
X72631400Y-115553160D01*
X72720200Y-115642116D01*
X72720200Y-119990865D01*
X72624683Y-120008838D01*
X72408559Y-120147910D01*
X72263569Y-120360110D01*
X72212560Y-120612000D01*
X72212560Y-122212000D01*
X72256838Y-122447317D01*
X72395910Y-122663441D01*
X72608110Y-122808431D01*
X72860000Y-122859440D01*
X74460000Y-122859440D01*
X74695317Y-122815162D01*
X74911441Y-122676090D01*
X75056431Y-122463890D01*
X75065370Y-122419745D01*
X75331861Y-122419745D01*
X75405995Y-122665864D01*
X75943223Y-122858965D01*
X76513454Y-122831778D01*
X76914005Y-122665864D01*
X76988139Y-122419745D01*
X76160000Y-121591605D01*
X75331861Y-122419745D01*
X75065370Y-122419745D01*
X75104646Y-122225799D01*
X75152255Y-122240139D01*
X75980395Y-121412000D01*
X76339605Y-121412000D01*
X77167745Y-122240139D01*
X77413864Y-122166005D01*
X77606965Y-121628777D01*
X77579778Y-121058546D01*
X77413864Y-120657995D01*
X77167745Y-120583861D01*
X76339605Y-121412000D01*
X75980395Y-121412000D01*
X75152255Y-120583861D01*
X75104833Y-120598145D01*
X75068351Y-120404255D01*
X75331861Y-120404255D01*
X76160000Y-121232395D01*
X76988139Y-120404255D01*
X76914005Y-120158136D01*
X76376777Y-119965035D01*
X75806546Y-119992222D01*
X75405995Y-120158136D01*
X75331861Y-120404255D01*
X75068351Y-120404255D01*
X75063162Y-120376683D01*
X74924090Y-120160559D01*
X74711890Y-120015569D01*
X74599800Y-119992870D01*
X74599800Y-115561483D01*
X74870226Y-115291529D01*
X75220997Y-115642914D01*
X75803341Y-115884724D01*
X76433893Y-115885275D01*
X77016657Y-115644481D01*
X77422046Y-115239800D01*
X80255722Y-115239800D01*
X83312260Y-118296338D01*
X83312260Y-120764300D01*
X83356538Y-120999617D01*
X83495610Y-121215741D01*
X83707810Y-121360731D01*
X83959700Y-121411740D01*
X88469944Y-121411740D01*
X88405228Y-121567593D01*
X88404645Y-122235747D01*
X88344329Y-122296063D01*
X88074779Y-121883743D01*
X86958358Y-121423631D01*
X85750843Y-121425779D01*
X84645221Y-121883743D01*
X84375670Y-122296064D01*
X86360000Y-124280395D01*
X86374142Y-124266252D01*
X86553748Y-124445858D01*
X86539605Y-124460000D01*
X88523936Y-126444330D01*
X88936257Y-126174779D01*
X88975714Y-126079039D01*
X98938096Y-126079039D01*
X99098959Y-126467423D01*
X99474866Y-126882389D01*
X99980959Y-127121914D01*
X100203000Y-127000629D01*
X100203000Y-125857000D01*
X100457000Y-125857000D01*
X100457000Y-127000629D01*
X100679041Y-127121914D01*
X101185134Y-126882389D01*
X101561041Y-126467423D01*
X101721904Y-126079039D01*
X101599915Y-125857000D01*
X100457000Y-125857000D01*
X100203000Y-125857000D01*
X99060085Y-125857000D01*
X98938096Y-126079039D01*
X88975714Y-126079039D01*
X89119564Y-125730000D01*
X106486887Y-125730000D01*
X106596120Y-126279151D01*
X106907189Y-126744698D01*
X107372736Y-127055767D01*
X107921887Y-127165000D01*
X107978113Y-127165000D01*
X108527264Y-127055767D01*
X108992811Y-126744698D01*
X109303880Y-126279151D01*
X109413113Y-125730000D01*
X109303880Y-125180849D01*
X108992811Y-124715302D01*
X108588297Y-124445014D01*
X108805134Y-124342389D01*
X109181041Y-123927423D01*
X109341904Y-123539039D01*
X109219915Y-123317000D01*
X108077000Y-123317000D01*
X108077000Y-123337000D01*
X107823000Y-123337000D01*
X107823000Y-123317000D01*
X106680085Y-123317000D01*
X106558096Y-123539039D01*
X106718959Y-123927423D01*
X107094866Y-124342389D01*
X107311703Y-124445014D01*
X106907189Y-124715302D01*
X106596120Y-125180849D01*
X106486887Y-125730000D01*
X89119564Y-125730000D01*
X89396369Y-125058358D01*
X89395237Y-124421978D01*
X89718396Y-124745702D01*
X90833593Y-125208772D01*
X92041110Y-125209826D01*
X93157113Y-124748702D01*
X94011702Y-123895604D01*
X94304694Y-123190000D01*
X98866887Y-123190000D01*
X98976120Y-123739151D01*
X99287189Y-124204698D01*
X99691703Y-124474986D01*
X99474866Y-124577611D01*
X99098959Y-124992577D01*
X98938096Y-125380961D01*
X99060085Y-125603000D01*
X100203000Y-125603000D01*
X100203000Y-125583000D01*
X100457000Y-125583000D01*
X100457000Y-125603000D01*
X101599915Y-125603000D01*
X101721904Y-125380961D01*
X101561041Y-124992577D01*
X101185134Y-124577611D01*
X100968297Y-124474986D01*
X101372811Y-124204698D01*
X101683880Y-123739151D01*
X101793113Y-123190000D01*
X101683880Y-122640849D01*
X101372811Y-122175302D01*
X100968297Y-121905014D01*
X101185134Y-121802389D01*
X101561041Y-121387423D01*
X101721904Y-120999039D01*
X101599915Y-120777000D01*
X100457000Y-120777000D01*
X100457000Y-120797000D01*
X100203000Y-120797000D01*
X100203000Y-120777000D01*
X99060085Y-120777000D01*
X98938096Y-120999039D01*
X99098959Y-121387423D01*
X99474866Y-121802389D01*
X99691703Y-121905014D01*
X99287189Y-122175302D01*
X98976120Y-122640849D01*
X98866887Y-123190000D01*
X94304694Y-123190000D01*
X94474772Y-122780407D01*
X94475826Y-121572890D01*
X94094495Y-120650000D01*
X106486887Y-120650000D01*
X106596120Y-121199151D01*
X106907189Y-121664698D01*
X107311703Y-121934986D01*
X107094866Y-122037611D01*
X106718959Y-122452577D01*
X106558096Y-122840961D01*
X106680085Y-123063000D01*
X107823000Y-123063000D01*
X107823000Y-123043000D01*
X108077000Y-123043000D01*
X108077000Y-123063000D01*
X109219915Y-123063000D01*
X109341904Y-122840961D01*
X109181041Y-122452577D01*
X108805134Y-122037611D01*
X108588297Y-121934986D01*
X108992811Y-121664698D01*
X109303880Y-121199151D01*
X109413113Y-120650000D01*
X109303880Y-120100849D01*
X108992811Y-119635302D01*
X108588297Y-119365014D01*
X108805134Y-119262389D01*
X109181041Y-118847423D01*
X109341904Y-118459039D01*
X109219915Y-118237000D01*
X108077000Y-118237000D01*
X108077000Y-118257000D01*
X107823000Y-118257000D01*
X107823000Y-118237000D01*
X106680085Y-118237000D01*
X106558096Y-118459039D01*
X106718959Y-118847423D01*
X107094866Y-119262389D01*
X107311703Y-119365014D01*
X106907189Y-119635302D01*
X106596120Y-120100849D01*
X106486887Y-120650000D01*
X94094495Y-120650000D01*
X94014702Y-120456887D01*
X93161604Y-119602298D01*
X92046407Y-119139228D01*
X90838890Y-119138174D01*
X89722887Y-119599298D01*
X89407740Y-119913895D01*
X89407740Y-115963700D01*
X89363462Y-115728383D01*
X89224390Y-115512259D01*
X89012190Y-115367269D01*
X88760300Y-115316260D01*
X83959700Y-115316260D01*
X83724383Y-115360538D01*
X83508259Y-115499610D01*
X83372450Y-115698372D01*
X81309539Y-113635461D01*
X81004646Y-113431738D01*
X80645000Y-113360200D01*
X77421413Y-113360200D01*
X77019003Y-112957086D01*
X76436659Y-112715276D01*
X75806107Y-112714725D01*
X75223343Y-112955519D01*
X74869774Y-113308471D01*
X74559800Y-112997954D01*
X74559800Y-112064800D01*
X82165722Y-112064800D01*
X82792560Y-112691638D01*
X82792560Y-114210000D01*
X82836838Y-114445317D01*
X82975910Y-114661441D01*
X83188110Y-114806431D01*
X83440000Y-114857440D01*
X85640000Y-114857440D01*
X85875317Y-114813162D01*
X86091441Y-114674090D01*
X86236431Y-114461890D01*
X86287440Y-114210000D01*
X86287440Y-112010000D01*
X86243162Y-111774683D01*
X86104090Y-111558559D01*
X85891890Y-111413569D01*
X85640000Y-111362560D01*
X85479800Y-111362560D01*
X85479800Y-110564800D01*
X85842946Y-110564800D01*
X85968630Y-110589800D01*
X86010534Y-110589800D01*
X86286077Y-110865824D01*
X86813309Y-111084750D01*
X87384187Y-111085248D01*
X87911800Y-110867243D01*
X88315824Y-110463923D01*
X88534750Y-109936691D01*
X88535248Y-109365813D01*
X88317243Y-108838200D01*
X87913923Y-108434176D01*
X87386691Y-108215250D01*
X86815813Y-108214752D01*
X86288200Y-108432757D01*
X86020082Y-108700407D01*
X85943630Y-108685200D01*
X85383068Y-108685200D01*
X85369800Y-108079725D01*
X85369800Y-107109800D01*
X93679940Y-107109800D01*
X93640687Y-107204332D01*
X93640313Y-107633784D01*
X93780200Y-107972336D01*
X93780200Y-108566472D01*
X93677189Y-108635302D01*
X93366120Y-109100849D01*
X93256887Y-109650000D01*
X93366120Y-110199151D01*
X93677189Y-110664698D01*
X93760200Y-110720164D01*
X93760200Y-111668670D01*
X93439179Y-111883170D01*
X93063078Y-112446044D01*
X92931009Y-113110000D01*
X93063078Y-113773956D01*
X93439179Y-114336830D01*
X94002053Y-114712931D01*
X94666009Y-114845000D01*
X94733991Y-114845000D01*
X95397947Y-114712931D01*
X95960821Y-114336830D01*
X96152609Y-114049800D01*
X96685722Y-114049800D01*
X98870461Y-116234539D01*
X99175354Y-116438262D01*
X99191488Y-116441471D01*
X99287189Y-116584698D01*
X99669275Y-116840000D01*
X99287189Y-117095302D01*
X98976120Y-117560849D01*
X98866887Y-118110000D01*
X98976120Y-118659151D01*
X99287189Y-119124698D01*
X99691703Y-119394986D01*
X99474866Y-119497611D01*
X99098959Y-119912577D01*
X98938096Y-120300961D01*
X99060085Y-120523000D01*
X100203000Y-120523000D01*
X100203000Y-120503000D01*
X100457000Y-120503000D01*
X100457000Y-120523000D01*
X101599915Y-120523000D01*
X101721904Y-120300961D01*
X101561041Y-119912577D01*
X101185134Y-119497611D01*
X100968297Y-119394986D01*
X101372811Y-119124698D01*
X101683880Y-118659151D01*
X101793113Y-118110000D01*
X101683880Y-117560849D01*
X101372811Y-117095302D01*
X100990725Y-116840000D01*
X101372811Y-116584698D01*
X101683880Y-116119151D01*
X101793113Y-115570000D01*
X101683880Y-115020849D01*
X101372811Y-114555302D01*
X100990725Y-114300000D01*
X101372811Y-114044698D01*
X101386901Y-114023611D01*
X102019145Y-114655855D01*
X102258115Y-114815530D01*
X102540000Y-114871600D01*
X106695845Y-114871600D01*
X106596120Y-115020849D01*
X106486887Y-115570000D01*
X106596120Y-116119151D01*
X106907189Y-116584698D01*
X107311703Y-116854986D01*
X107094866Y-116957611D01*
X106718959Y-117372577D01*
X106558096Y-117760961D01*
X106680085Y-117983000D01*
X107823000Y-117983000D01*
X107823000Y-117963000D01*
X108077000Y-117963000D01*
X108077000Y-117983000D01*
X109219915Y-117983000D01*
X109341904Y-117760961D01*
X109181041Y-117372577D01*
X108805134Y-116957611D01*
X108588297Y-116854986D01*
X108992811Y-116584698D01*
X109303880Y-116119151D01*
X109413113Y-115570000D01*
X109303880Y-115020849D01*
X109204155Y-114871600D01*
X112493890Y-114871600D01*
X113554145Y-115931855D01*
X113793116Y-116091531D01*
X114075000Y-116147601D01*
X114075005Y-116147600D01*
X121931836Y-116147600D01*
X121836120Y-116290849D01*
X121726887Y-116840000D01*
X121836120Y-117389151D01*
X122147189Y-117854698D01*
X122529275Y-118110000D01*
X122147189Y-118365302D01*
X121836120Y-118830849D01*
X121726887Y-119380000D01*
X121836120Y-119929151D01*
X122147189Y-120394698D01*
X122529275Y-120650000D01*
X122147189Y-120905302D01*
X121836120Y-121370849D01*
X121726887Y-121920000D01*
X121836120Y-122469151D01*
X122147189Y-122934698D01*
X122529275Y-123190000D01*
X122147189Y-123445302D01*
X121836120Y-123910849D01*
X121726887Y-124460000D01*
X121836120Y-125009151D01*
X122147189Y-125474698D01*
X122529275Y-125730000D01*
X122147189Y-125985302D01*
X121836120Y-126450849D01*
X121726887Y-127000000D01*
X121836120Y-127549151D01*
X122147189Y-128014698D01*
X122612736Y-128325767D01*
X123161887Y-128435000D01*
X123218113Y-128435000D01*
X123767264Y-128325767D01*
X124232811Y-128014698D01*
X124437581Y-127708239D01*
X124576885Y-127680530D01*
X124815855Y-127520855D01*
X125705110Y-126631600D01*
X137040166Y-126631600D01*
X136966887Y-127000000D01*
X137076120Y-127549151D01*
X137387189Y-128014698D01*
X137852736Y-128325767D01*
X138401887Y-128435000D01*
X138458113Y-128435000D01*
X139007264Y-128325767D01*
X139472811Y-128014698D01*
X139677581Y-127708239D01*
X139816885Y-127680530D01*
X140055855Y-127520855D01*
X140227671Y-127349039D01*
X144658096Y-127349039D01*
X144818959Y-127737423D01*
X145194866Y-128152389D01*
X145700959Y-128391914D01*
X145923000Y-128270629D01*
X145923000Y-127127000D01*
X146177000Y-127127000D01*
X146177000Y-128270629D01*
X146399041Y-128391914D01*
X146905134Y-128152389D01*
X147281041Y-127737423D01*
X147441904Y-127349039D01*
X147319915Y-127127000D01*
X146177000Y-127127000D01*
X145923000Y-127127000D01*
X144780085Y-127127000D01*
X144658096Y-127349039D01*
X140227671Y-127349039D01*
X141275110Y-126301600D01*
X144802796Y-126301600D01*
X144658096Y-126650961D01*
X144780085Y-126873000D01*
X145923000Y-126873000D01*
X145923000Y-126853000D01*
X146177000Y-126853000D01*
X146177000Y-126873000D01*
X147319915Y-126873000D01*
X147441904Y-126650961D01*
X147297204Y-126301600D01*
X151460000Y-126301600D01*
X151741885Y-126245530D01*
X151980855Y-126085855D01*
X152613099Y-125453611D01*
X152627189Y-125474698D01*
X153009275Y-125730000D01*
X152627189Y-125985302D01*
X152316120Y-126450849D01*
X152206887Y-127000000D01*
X152316120Y-127549151D01*
X152627189Y-128014698D01*
X153092736Y-128325767D01*
X153641887Y-128435000D01*
X153698113Y-128435000D01*
X154247264Y-128325767D01*
X154712811Y-128014698D01*
X154727563Y-127992619D01*
X156614613Y-127992619D01*
X156954155Y-128814372D01*
X157582321Y-129443636D01*
X158403481Y-129784611D01*
X159292619Y-129785387D01*
X160114372Y-129445845D01*
X160743636Y-128817679D01*
X161084611Y-127996519D01*
X161085387Y-127107381D01*
X160745845Y-126285628D01*
X160117679Y-125656364D01*
X159296519Y-125315389D01*
X158407381Y-125314613D01*
X157585628Y-125654155D01*
X156956364Y-126282321D01*
X156615389Y-127103481D01*
X156614613Y-127992619D01*
X154727563Y-127992619D01*
X155023880Y-127549151D01*
X155133113Y-127000000D01*
X155023880Y-126450849D01*
X154712811Y-125985302D01*
X154330725Y-125730000D01*
X154712811Y-125474698D01*
X155023880Y-125009151D01*
X155133113Y-124460000D01*
X155023880Y-123910849D01*
X154767925Y-123527785D01*
X155340855Y-122954855D01*
X155500530Y-122715885D01*
X155556600Y-122434000D01*
X155556600Y-113884000D01*
X155556564Y-113883820D01*
X155556600Y-113883639D01*
X155528487Y-113742667D01*
X155500530Y-113602115D01*
X155500428Y-113601962D01*
X155500392Y-113601782D01*
X155421017Y-113483115D01*
X155340855Y-113363145D01*
X155340701Y-113363042D01*
X155340599Y-113362890D01*
X154728431Y-112751322D01*
X155023880Y-112309151D01*
X155133113Y-111760000D01*
X155023880Y-111210849D01*
X154712811Y-110745302D01*
X154609800Y-110676472D01*
X154609800Y-109039466D01*
X154885824Y-108763923D01*
X155104750Y-108236691D01*
X155105248Y-107665813D01*
X154995558Y-107400342D01*
X155780583Y-105830292D01*
X155789502Y-105797722D01*
X155808262Y-105769646D01*
X155837648Y-105621912D01*
X155877436Y-105476622D01*
X155873212Y-105443118D01*
X155879800Y-105410000D01*
X155879800Y-76200000D01*
X155808262Y-75840354D01*
X155604539Y-75535461D01*
X155299646Y-75331738D01*
X154940000Y-75260200D01*
X138032994Y-75260200D01*
X138065313Y-75182368D01*
X138065687Y-74752916D01*
X137901689Y-74356011D01*
X137598286Y-74052078D01*
X137201668Y-73887387D01*
X136772216Y-73887013D01*
X136375311Y-74051011D01*
X136071378Y-74354414D01*
X135906687Y-74751032D01*
X135906598Y-74853798D01*
X134932728Y-74853798D01*
X138764174Y-71021779D01*
X139126511Y-71263885D01*
X139700000Y-71377959D01*
X140273489Y-71263885D01*
X140759670Y-70939029D01*
X141084526Y-70452848D01*
X141198600Y-69879359D01*
X141198600Y-69820641D01*
X141084526Y-69247152D01*
X140759670Y-68760971D01*
X140488828Y-68580000D01*
X140759670Y-68399029D01*
X141084526Y-67912848D01*
X141198600Y-67339359D01*
X141198600Y-67280641D01*
X141084526Y-66707152D01*
X140759670Y-66220971D01*
X140273489Y-65896115D01*
X139700000Y-65782041D01*
X139126511Y-65896115D01*
X138640330Y-66220971D01*
X138430000Y-66535752D01*
X138219670Y-66220971D01*
X137733489Y-65896115D01*
X137160000Y-65782041D01*
X136586511Y-65896115D01*
X136189586Y-66161332D01*
X135631741Y-65603731D01*
X135512866Y-65524339D01*
X135392885Y-65444170D01*
X135392804Y-65444154D01*
X135392735Y-65444108D01*
X135251918Y-65416130D01*
X135111000Y-65388100D01*
X113751000Y-65388100D01*
X113750978Y-65388104D01*
X113750955Y-65388100D01*
X113609172Y-65416311D01*
X113469115Y-65444170D01*
X113469096Y-65444183D01*
X113469074Y-65444187D01*
X113350861Y-65523185D01*
X113230145Y-65603845D01*
X113230132Y-65603864D01*
X113230113Y-65603877D01*
X112695831Y-66138224D01*
X112333489Y-65896115D01*
X111760000Y-65782041D01*
X111186511Y-65896115D01*
X110700330Y-66220971D01*
X110490000Y-66535752D01*
X110279670Y-66220971D01*
X109793489Y-65896115D01*
X109220000Y-65782041D01*
X108646511Y-65896115D01*
X108160330Y-66220971D01*
X107950000Y-66535752D01*
X107739670Y-66220971D01*
X107253489Y-65896115D01*
X106680000Y-65782041D01*
X106106511Y-65896115D01*
X105620330Y-66220971D01*
X105410000Y-66535752D01*
X105199670Y-66220971D01*
X104713489Y-65896115D01*
X104140000Y-65782041D01*
X103566511Y-65896115D01*
X103080330Y-66220971D01*
X102870000Y-66535752D01*
X102659670Y-66220971D01*
X102173489Y-65896115D01*
X101600000Y-65782041D01*
X101026511Y-65896115D01*
X100540330Y-66220971D01*
X100330000Y-66535752D01*
X100119670Y-66220971D01*
X99633489Y-65896115D01*
X99060000Y-65782041D01*
X98486511Y-65896115D01*
X98000330Y-66220971D01*
X97790000Y-66535752D01*
X97579670Y-66220971D01*
X97093489Y-65896115D01*
X96520000Y-65782041D01*
X95946511Y-65896115D01*
X95460330Y-66220971D01*
X95244336Y-66544228D01*
X95186821Y-66421510D01*
X94754947Y-66027312D01*
X94339026Y-65855042D01*
X94107000Y-65976183D01*
X94107000Y-67183000D01*
X94127000Y-67183000D01*
X94127000Y-67437000D01*
X94107000Y-67437000D01*
X94107000Y-67457000D01*
X93853000Y-67457000D01*
X93853000Y-67437000D01*
X91567000Y-67437000D01*
X91567000Y-67457000D01*
X91313000Y-67457000D01*
X91313000Y-67437000D01*
X90105531Y-67437000D01*
X89985032Y-67669027D01*
X90233179Y-68198490D01*
X90419433Y-68368495D01*
X90341083Y-68383238D01*
X90124959Y-68522310D01*
X89979969Y-68734510D01*
X89928960Y-68986400D01*
X89928960Y-70713600D01*
X89973238Y-70948917D01*
X90112310Y-71165041D01*
X90324510Y-71310031D01*
X90576400Y-71361040D01*
X92303600Y-71361040D01*
X92538917Y-71316762D01*
X92755041Y-71177690D01*
X92900031Y-70965490D01*
X92908864Y-70921869D01*
X92920330Y-70939029D01*
X93406511Y-71263885D01*
X93980000Y-71377959D01*
X94553489Y-71263885D01*
X95039670Y-70939029D01*
X95250000Y-70624248D01*
X95460330Y-70939029D01*
X95946511Y-71263885D01*
X96520000Y-71377959D01*
X97093489Y-71263885D01*
X97579670Y-70939029D01*
X97790000Y-70624248D01*
X98000330Y-70939029D01*
X98486511Y-71263885D01*
X99060000Y-71377959D01*
X99633489Y-71263885D01*
X100119670Y-70939029D01*
X100330000Y-70624248D01*
X100540330Y-70939029D01*
X101026511Y-71263885D01*
X101600000Y-71377959D01*
X102173489Y-71263885D01*
X102659670Y-70939029D01*
X102870000Y-70624248D01*
X103080330Y-70939029D01*
X103566511Y-71263885D01*
X104140000Y-71377959D01*
X104713489Y-71263885D01*
X105199670Y-70939029D01*
X105410000Y-70624248D01*
X105620330Y-70939029D01*
X106106511Y-71263885D01*
X106680000Y-71377959D01*
X107253489Y-71263885D01*
X107739670Y-70939029D01*
X107950000Y-70624248D01*
X108160330Y-70939029D01*
X108646511Y-71263885D01*
X109220000Y-71377959D01*
X109793489Y-71263885D01*
X110279670Y-70939029D01*
X110490000Y-70624248D01*
X110700330Y-70939029D01*
X111186511Y-71263885D01*
X111760000Y-71377959D01*
X112333489Y-71263885D01*
X112819670Y-70939029D01*
X113030000Y-70624248D01*
X113240330Y-70939029D01*
X113726511Y-71263885D01*
X114300000Y-71377959D01*
X114873489Y-71263885D01*
X115359670Y-70939029D01*
X115570000Y-70624248D01*
X115780330Y-70939029D01*
X116266511Y-71263885D01*
X116815253Y-71373037D01*
X116544890Y-71643400D01*
X91090000Y-71643400D01*
X90808115Y-71699470D01*
X90569145Y-71859145D01*
X85839145Y-76589145D01*
X85679470Y-76828115D01*
X85623400Y-77110000D01*
X85623400Y-81301685D01*
X85548200Y-81332757D01*
X85144176Y-81736077D01*
X84925250Y-82263309D01*
X84924752Y-82834187D01*
X85142757Y-83361800D01*
X85546077Y-83765824D01*
X86073309Y-83984750D01*
X86644187Y-83985248D01*
X86721566Y-83953276D01*
X87896445Y-85128155D01*
X88135415Y-85287830D01*
X88182183Y-85297133D01*
X88417300Y-85343901D01*
X88417305Y-85343900D01*
X94627090Y-85343900D01*
X98704045Y-89420855D01*
X98882560Y-89540135D01*
X98882560Y-89700000D01*
X98926838Y-89935317D01*
X99065910Y-90151441D01*
X99278110Y-90296431D01*
X99433089Y-90327815D01*
X99287189Y-90425302D01*
X98976120Y-90890849D01*
X98866887Y-91440000D01*
X98976120Y-91989151D01*
X99287189Y-92454698D01*
X99669275Y-92710000D01*
X99287189Y-92965302D01*
X99101370Y-93243400D01*
X95228315Y-93243400D01*
X95197243Y-93168200D01*
X94793923Y-92764176D01*
X94266691Y-92545250D01*
X93695813Y-92544752D01*
X93168200Y-92762757D01*
X92764176Y-93166077D01*
X92545250Y-93693309D01*
X92544752Y-94264187D01*
X92762757Y-94791800D01*
X93166077Y-95195824D01*
X93693309Y-95414750D01*
X94264187Y-95415248D01*
X94791800Y-95197243D01*
X95195824Y-94793923D01*
X95227931Y-94716600D01*
X99101370Y-94716600D01*
X99287189Y-94994698D01*
X99619598Y-95216807D01*
X99631254Y-95275405D01*
X99287189Y-95505302D01*
X98976120Y-95970849D01*
X98866887Y-96520000D01*
X98976120Y-97069151D01*
X99287189Y-97534698D01*
X99669275Y-97790000D01*
X99287189Y-98045302D01*
X99101370Y-98323400D01*
X92850210Y-98323400D01*
X87985955Y-93459145D01*
X87746985Y-93299470D01*
X87607565Y-93271738D01*
X87402811Y-92965302D01*
X86937264Y-92654233D01*
X86388113Y-92545000D01*
X86331887Y-92545000D01*
X85782736Y-92654233D01*
X85317189Y-92965302D01*
X85240357Y-93080289D01*
X85054900Y-93043400D01*
X82474216Y-93043400D01*
X82454831Y-92996485D01*
X82065564Y-92606539D01*
X81556702Y-92395241D01*
X81005715Y-92394760D01*
X80496485Y-92605169D01*
X80106539Y-92994436D01*
X80086207Y-93043400D01*
X76400000Y-93043400D01*
X76118115Y-93099470D01*
X75879145Y-93259145D01*
X75097615Y-94040675D01*
X75079778Y-93666546D01*
X74913864Y-93265995D01*
X74667745Y-93191861D01*
X73839605Y-94020000D01*
X73853748Y-94034142D01*
X73674142Y-94213748D01*
X73660000Y-94199605D01*
X72831861Y-95027745D01*
X72905995Y-95273864D01*
X72912483Y-95276196D01*
X72848200Y-95302757D01*
X72444176Y-95706077D01*
X72225250Y-96233309D01*
X72224752Y-96804187D01*
X72442757Y-97331800D01*
X72846077Y-97735824D01*
X73373309Y-97954750D01*
X73944187Y-97955248D01*
X74471800Y-97737243D01*
X74875824Y-97333923D01*
X75094750Y-96806691D01*
X75095248Y-96235813D01*
X75063276Y-96158434D01*
X76705110Y-94516600D01*
X80085784Y-94516600D01*
X80105169Y-94563515D01*
X80494436Y-94953461D01*
X81003298Y-95164759D01*
X81554285Y-95165240D01*
X82063515Y-94954831D01*
X82453461Y-94565564D01*
X82473793Y-94516600D01*
X84757609Y-94516600D01*
X84973015Y-94660530D01*
X85112435Y-94688262D01*
X85317189Y-94994698D01*
X85782736Y-95305767D01*
X86331887Y-95415000D01*
X86388113Y-95415000D01*
X86937264Y-95305767D01*
X87402811Y-94994698D01*
X87416941Y-94973551D01*
X92024245Y-99580855D01*
X92263215Y-99740530D01*
X92545100Y-99796600D01*
X99101370Y-99796600D01*
X99287189Y-100074698D01*
X99631271Y-100304607D01*
X99619621Y-100363178D01*
X99287189Y-100585302D01*
X98976120Y-101050849D01*
X98866887Y-101600000D01*
X98976120Y-102149151D01*
X99287189Y-102614698D01*
X99691703Y-102884986D01*
X99474866Y-102987611D01*
X99098959Y-103402577D01*
X98938096Y-103790961D01*
X99060085Y-104013000D01*
X100203000Y-104013000D01*
X100203000Y-103993000D01*
X100457000Y-103993000D01*
X100457000Y-104013000D01*
X101599915Y-104013000D01*
X101721904Y-103790961D01*
X101561041Y-103402577D01*
X101185134Y-102987611D01*
X100968297Y-102884986D01*
X101372811Y-102614698D01*
X101683880Y-102149151D01*
X101793113Y-101600000D01*
X101683880Y-101050849D01*
X101391442Y-100613185D01*
X101957852Y-100046657D01*
X101957855Y-100046655D01*
X101957857Y-100046652D01*
X101957908Y-100046601D01*
X102038218Y-99926383D01*
X102117530Y-99807685D01*
X102117538Y-99807647D01*
X102117559Y-99807615D01*
X102145541Y-99666861D01*
X102173600Y-99525800D01*
X102173600Y-95963300D01*
X102145392Y-95821489D01*
X102117562Y-95681493D01*
X102117539Y-95681458D01*
X102117530Y-95681415D01*
X102035265Y-95558298D01*
X101957914Y-95442505D01*
X101957857Y-95442448D01*
X101957855Y-95442445D01*
X101957852Y-95442443D01*
X101427853Y-94912322D01*
X101683880Y-94529151D01*
X101793113Y-93980000D01*
X101683880Y-93430849D01*
X101372811Y-92965302D01*
X100990725Y-92710000D01*
X101372811Y-92454698D01*
X101683880Y-91989151D01*
X101793113Y-91440000D01*
X101683880Y-90890849D01*
X101372811Y-90425302D01*
X101228535Y-90328899D01*
X101365317Y-90303162D01*
X101581441Y-90164090D01*
X101726431Y-89951890D01*
X101777440Y-89700000D01*
X101777440Y-88100000D01*
X101733162Y-87864683D01*
X101594090Y-87648559D01*
X101381890Y-87503569D01*
X101130000Y-87452560D01*
X99530000Y-87452560D01*
X99294683Y-87496838D01*
X99078559Y-87635910D01*
X99047693Y-87681083D01*
X98734355Y-87367745D01*
X102081861Y-87367745D01*
X102155995Y-87613864D01*
X102693223Y-87806965D01*
X103263454Y-87779778D01*
X103664005Y-87613864D01*
X103738139Y-87367745D01*
X102910000Y-86539605D01*
X102081861Y-87367745D01*
X98734355Y-87367745D01*
X97509833Y-86143223D01*
X101463035Y-86143223D01*
X101490222Y-86713454D01*
X101656136Y-87114005D01*
X101902255Y-87188139D01*
X102730395Y-86360000D01*
X101902255Y-85531861D01*
X101656136Y-85605995D01*
X101463035Y-86143223D01*
X97509833Y-86143223D01*
X96718865Y-85352255D01*
X102081861Y-85352255D01*
X102910000Y-86180395D01*
X103738139Y-85352255D01*
X103664005Y-85106136D01*
X103126777Y-84913035D01*
X102556546Y-84940222D01*
X102155995Y-85106136D01*
X102081861Y-85352255D01*
X96718865Y-85352255D01*
X95453055Y-84086445D01*
X95214085Y-83926770D01*
X94932200Y-83870700D01*
X94479509Y-83870700D01*
X94835134Y-83702389D01*
X95211041Y-83287423D01*
X95371904Y-82899039D01*
X95249915Y-82677000D01*
X94107000Y-82677000D01*
X94107000Y-82697000D01*
X93853000Y-82697000D01*
X93853000Y-82677000D01*
X92710085Y-82677000D01*
X92588096Y-82899039D01*
X92748959Y-83287423D01*
X93124866Y-83702389D01*
X93480491Y-83870700D01*
X88722410Y-83870700D01*
X87763547Y-82911837D01*
X87794750Y-82836691D01*
X87795248Y-82265813D01*
X87768452Y-82200961D01*
X92588096Y-82200961D01*
X92710085Y-82423000D01*
X93853000Y-82423000D01*
X93853000Y-81279371D01*
X94107000Y-81279371D01*
X94107000Y-82423000D01*
X95249915Y-82423000D01*
X95371904Y-82200961D01*
X95211041Y-81812577D01*
X94835134Y-81397611D01*
X94329041Y-81158086D01*
X94107000Y-81279371D01*
X93853000Y-81279371D01*
X93630959Y-81158086D01*
X93124866Y-81397611D01*
X92748959Y-81812577D01*
X92588096Y-82200961D01*
X87768452Y-82200961D01*
X87577243Y-81738200D01*
X87173923Y-81334176D01*
X87096600Y-81302069D01*
X87096600Y-77415110D01*
X91395110Y-73116600D01*
X113968395Y-73116600D01*
X113659311Y-73244311D01*
X113355378Y-73547714D01*
X113190687Y-73944332D01*
X113190313Y-74373784D01*
X113354311Y-74770689D01*
X113657714Y-75074622D01*
X114054332Y-75239313D01*
X114483784Y-75239687D01*
X114880689Y-75075689D01*
X115060091Y-74896600D01*
X115444890Y-74896600D01*
X115808490Y-75260200D01*
X111760000Y-75260200D01*
X111585229Y-75294964D01*
X111400394Y-75331721D01*
X111400375Y-75331734D01*
X111400354Y-75331738D01*
X111249705Y-75432399D01*
X111095491Y-75535431D01*
X105559491Y-81070931D01*
X105559397Y-81071071D01*
X105559257Y-81071165D01*
X105409796Y-81220718D01*
X101644539Y-77455461D01*
X101339646Y-77251738D01*
X100980000Y-77180200D01*
X94551651Y-77180200D01*
X94215668Y-77040687D01*
X93786216Y-77040313D01*
X93389311Y-77204311D01*
X93085378Y-77507714D01*
X92920687Y-77904332D01*
X92920313Y-78333784D01*
X93084311Y-78730689D01*
X93387714Y-79034622D01*
X93784332Y-79199313D01*
X94213784Y-79199687D01*
X94552336Y-79059800D01*
X100590722Y-79059800D01*
X104470200Y-82939278D01*
X104470200Y-85270534D01*
X104194176Y-85546077D01*
X104166577Y-85612544D01*
X104163864Y-85605995D01*
X103917745Y-85531861D01*
X103089605Y-86360000D01*
X103917745Y-87188139D01*
X104163864Y-87114005D01*
X104166196Y-87107517D01*
X104192757Y-87171800D01*
X104470200Y-87449727D01*
X104470200Y-87875722D01*
X102840461Y-89505461D01*
X102636738Y-89810354D01*
X102565200Y-90170000D01*
X102565200Y-101787000D01*
X102636738Y-102146646D01*
X102840461Y-102451539D01*
X103512411Y-103123489D01*
X101405205Y-105230200D01*
X101241469Y-105230200D01*
X101561041Y-104877423D01*
X101721904Y-104489039D01*
X101599915Y-104267000D01*
X100457000Y-104267000D01*
X100457000Y-104287000D01*
X100203000Y-104287000D01*
X100203000Y-104267000D01*
X99060085Y-104267000D01*
X98938096Y-104489039D01*
X99098959Y-104877423D01*
X99418531Y-105230200D01*
X84430000Y-105230200D01*
X84070354Y-105301738D01*
X83765461Y-105505461D01*
X83561738Y-105810354D01*
X83490200Y-106170000D01*
X83490200Y-108090000D01*
X83492244Y-108100274D01*
X83490426Y-108110589D01*
X83524062Y-109645588D01*
X83549140Y-110790062D01*
X83219539Y-110460461D01*
X82914646Y-110256738D01*
X82555000Y-110185200D01*
X73660000Y-110185200D01*
X73458906Y-110225200D01*
X68349800Y-110225200D01*
X68349800Y-105603795D01*
X71164716Y-105603795D01*
X71413106Y-106204943D01*
X71872637Y-106665278D01*
X72473352Y-106914716D01*
X73123795Y-106915284D01*
X73724943Y-106666894D01*
X74172819Y-106219800D01*
X77927937Y-106219800D01*
X78372637Y-106665278D01*
X78973352Y-106914716D01*
X79623795Y-106915284D01*
X80224943Y-106666894D01*
X80596696Y-106295790D01*
X81201454Y-106346512D01*
X81240983Y-106342039D01*
X81280000Y-106349800D01*
X81421975Y-106321559D01*
X81565820Y-106305283D01*
X81600629Y-106286023D01*
X81639646Y-106278262D01*
X81760013Y-106197836D01*
X81886673Y-106127754D01*
X81911460Y-106096641D01*
X81944539Y-106074539D01*
X82024964Y-105954174D01*
X82115166Y-105840955D01*
X82126161Y-105802723D01*
X82148262Y-105769646D01*
X82176503Y-105627668D01*
X82216512Y-105488546D01*
X82212039Y-105449017D01*
X82219800Y-105410000D01*
X82219800Y-105164278D01*
X83884278Y-103499800D01*
X86714071Y-103499800D01*
X86785910Y-103611441D01*
X86998110Y-103756431D01*
X87250000Y-103807440D01*
X88450000Y-103807440D01*
X88685317Y-103763162D01*
X88901441Y-103624090D01*
X88986365Y-103499800D01*
X92010722Y-103499800D01*
X92045461Y-103534539D01*
X92350354Y-103738262D01*
X92710000Y-103809800D01*
X92793349Y-103809800D01*
X93129332Y-103949313D01*
X93558784Y-103949687D01*
X93955689Y-103785689D01*
X94259622Y-103482286D01*
X94424313Y-103085668D01*
X94424687Y-102656216D01*
X94260689Y-102259311D01*
X93957286Y-101955378D01*
X93560668Y-101790687D01*
X93131216Y-101790313D01*
X92992780Y-101847513D01*
X92759646Y-101691738D01*
X92400000Y-101620200D01*
X88985929Y-101620200D01*
X88914090Y-101508559D01*
X88774245Y-101413007D01*
X88828430Y-101358822D01*
X88712737Y-101243129D01*
X88938164Y-101193617D01*
X89097807Y-100728964D01*
X89067482Y-100238587D01*
X88938164Y-99926383D01*
X88712735Y-99876870D01*
X88029605Y-100560000D01*
X88043748Y-100574143D01*
X87864143Y-100753748D01*
X87850000Y-100739605D01*
X87835858Y-100753748D01*
X87656253Y-100574143D01*
X87670395Y-100560000D01*
X86987265Y-99876870D01*
X86761836Y-99926383D01*
X86602193Y-100391036D01*
X86632518Y-100881413D01*
X86761836Y-101193617D01*
X86987263Y-101243129D01*
X86871570Y-101358822D01*
X86926397Y-101413649D01*
X86798559Y-101495910D01*
X86713635Y-101620200D01*
X83495000Y-101620200D01*
X83135354Y-101691738D01*
X82830461Y-101895461D01*
X80615461Y-104110461D01*
X80546200Y-104214117D01*
X80227363Y-103894722D01*
X79626648Y-103645284D01*
X78976205Y-103644716D01*
X78375057Y-103893106D01*
X77927181Y-104340200D01*
X74172063Y-104340200D01*
X73727363Y-103894722D01*
X73126648Y-103645284D01*
X72476205Y-103644716D01*
X71875057Y-103893106D01*
X71414722Y-104352637D01*
X71165284Y-104953352D01*
X71164716Y-105603795D01*
X68349800Y-105603795D01*
X68349800Y-101932532D01*
X71827073Y-101932532D01*
X71925736Y-102199387D01*
X72535461Y-102425908D01*
X73185460Y-102401856D01*
X73674264Y-102199387D01*
X73772927Y-101932532D01*
X78327073Y-101932532D01*
X78425736Y-102199387D01*
X79035461Y-102425908D01*
X79685460Y-102401856D01*
X80174264Y-102199387D01*
X80272927Y-101932532D01*
X79300000Y-100959605D01*
X78327073Y-101932532D01*
X73772927Y-101932532D01*
X72800000Y-100959605D01*
X71827073Y-101932532D01*
X68349800Y-101932532D01*
X68349800Y-100515461D01*
X71154092Y-100515461D01*
X71178144Y-101165460D01*
X71380613Y-101654264D01*
X71647468Y-101752927D01*
X72620395Y-100780000D01*
X72979605Y-100780000D01*
X73952532Y-101752927D01*
X74219387Y-101654264D01*
X74445908Y-101044539D01*
X74426331Y-100515461D01*
X77654092Y-100515461D01*
X77678144Y-101165460D01*
X77880613Y-101654264D01*
X78147468Y-101752927D01*
X79120395Y-100780000D01*
X79479605Y-100780000D01*
X80452532Y-101752927D01*
X80719387Y-101654264D01*
X80945908Y-101044539D01*
X80921856Y-100394540D01*
X80719387Y-99905736D01*
X80452532Y-99807073D01*
X79479605Y-100780000D01*
X79120395Y-100780000D01*
X78147468Y-99807073D01*
X77880613Y-99905736D01*
X77654092Y-100515461D01*
X74426331Y-100515461D01*
X74421856Y-100394540D01*
X74219387Y-99905736D01*
X73952532Y-99807073D01*
X72979605Y-100780000D01*
X72620395Y-100780000D01*
X71647468Y-99807073D01*
X71380613Y-99905736D01*
X71154092Y-100515461D01*
X68349800Y-100515461D01*
X68349800Y-99627468D01*
X71827073Y-99627468D01*
X72800000Y-100600395D01*
X73772927Y-99627468D01*
X78327073Y-99627468D01*
X79300000Y-100600395D01*
X80203130Y-99697265D01*
X87166870Y-99697265D01*
X87850000Y-100380395D01*
X88533130Y-99697265D01*
X88483617Y-99471836D01*
X88018964Y-99312193D01*
X87528587Y-99342518D01*
X87216383Y-99471836D01*
X87166870Y-99697265D01*
X80203130Y-99697265D01*
X80272927Y-99627468D01*
X80174264Y-99360613D01*
X79564539Y-99134092D01*
X78914540Y-99158144D01*
X78425736Y-99360613D01*
X78327073Y-99627468D01*
X73772927Y-99627468D01*
X73674264Y-99360613D01*
X73064539Y-99134092D01*
X72414540Y-99158144D01*
X71925736Y-99360613D01*
X71827073Y-99627468D01*
X68349800Y-99627468D01*
X68349800Y-93803223D01*
X72213035Y-93803223D01*
X72240222Y-94373454D01*
X72406136Y-94774005D01*
X72652255Y-94848139D01*
X73480395Y-94020000D01*
X72652255Y-93191861D01*
X72406136Y-93265995D01*
X72213035Y-93803223D01*
X68349800Y-93803223D01*
X68349800Y-93012255D01*
X72831861Y-93012255D01*
X73660000Y-93840395D01*
X74488139Y-93012255D01*
X74414005Y-92766136D01*
X73876777Y-92573035D01*
X73306546Y-92600222D01*
X72905995Y-92766136D01*
X72831861Y-93012255D01*
X68349800Y-93012255D01*
X68349800Y-91137745D01*
X72831861Y-91137745D01*
X72905995Y-91383864D01*
X73443223Y-91576965D01*
X74013454Y-91549778D01*
X74414005Y-91383864D01*
X74488139Y-91137745D01*
X73660000Y-90309605D01*
X72831861Y-91137745D01*
X68349800Y-91137745D01*
X68349800Y-89913223D01*
X72213035Y-89913223D01*
X72240222Y-90483454D01*
X72406136Y-90884005D01*
X72652255Y-90958139D01*
X73480395Y-90130000D01*
X72652255Y-89301861D01*
X72406136Y-89375995D01*
X72213035Y-89913223D01*
X68349800Y-89913223D01*
X68349800Y-87914187D01*
X72224752Y-87914187D01*
X72442757Y-88441800D01*
X72846077Y-88845824D01*
X72912544Y-88873423D01*
X72905995Y-88876136D01*
X72831861Y-89122255D01*
X73660000Y-89950395D01*
X73674142Y-89936252D01*
X73853748Y-90115858D01*
X73839605Y-90130000D01*
X74667745Y-90958139D01*
X74913864Y-90884005D01*
X75106965Y-90346777D01*
X75079778Y-89776546D01*
X75021810Y-89636600D01*
X80085784Y-89636600D01*
X80105169Y-89683515D01*
X80494436Y-90073461D01*
X81003298Y-90284759D01*
X81554285Y-90285240D01*
X82063515Y-90074831D01*
X82453461Y-89685564D01*
X82473793Y-89636600D01*
X85131370Y-89636600D01*
X85317189Y-89914698D01*
X85782736Y-90225767D01*
X86331887Y-90335000D01*
X86388113Y-90335000D01*
X86937264Y-90225767D01*
X87402811Y-89914698D01*
X87713880Y-89449151D01*
X87766584Y-89184187D01*
X92544752Y-89184187D01*
X92762757Y-89711800D01*
X93166077Y-90115824D01*
X93693309Y-90334750D01*
X94264187Y-90335248D01*
X94791800Y-90117243D01*
X95195824Y-89713923D01*
X95414750Y-89186691D01*
X95415248Y-88615813D01*
X95197243Y-88088200D01*
X94793923Y-87684176D01*
X94266691Y-87465250D01*
X93695813Y-87464752D01*
X93168200Y-87682757D01*
X92764176Y-88086077D01*
X92545250Y-88613309D01*
X92544752Y-89184187D01*
X87766584Y-89184187D01*
X87823113Y-88900000D01*
X87713880Y-88350849D01*
X87402811Y-87885302D01*
X86937264Y-87574233D01*
X86388113Y-87465000D01*
X86331887Y-87465000D01*
X85782736Y-87574233D01*
X85317189Y-87885302D01*
X85131370Y-88163400D01*
X82474216Y-88163400D01*
X82454831Y-88116485D01*
X82065564Y-87726539D01*
X81556702Y-87515241D01*
X81005715Y-87514760D01*
X80496485Y-87725169D01*
X80106539Y-88114436D01*
X80086207Y-88163400D01*
X75235110Y-88163400D01*
X75063547Y-87991837D01*
X75094750Y-87916691D01*
X75095248Y-87345813D01*
X74877243Y-86818200D01*
X74473923Y-86414176D01*
X73946691Y-86195250D01*
X73375813Y-86194752D01*
X72848200Y-86412757D01*
X72444176Y-86816077D01*
X72225250Y-87343309D01*
X72224752Y-87914187D01*
X68349800Y-87914187D01*
X68349800Y-82409039D01*
X69098096Y-82409039D01*
X69258959Y-82797423D01*
X69634866Y-83212389D01*
X70140959Y-83451914D01*
X70363000Y-83330629D01*
X70363000Y-82187000D01*
X70617000Y-82187000D01*
X70617000Y-83330629D01*
X70839041Y-83451914D01*
X71345134Y-83212389D01*
X71721041Y-82797423D01*
X71881904Y-82409039D01*
X71759915Y-82187000D01*
X70617000Y-82187000D01*
X70363000Y-82187000D01*
X69220085Y-82187000D01*
X69098096Y-82409039D01*
X68349800Y-82409039D01*
X68349800Y-81710961D01*
X69098096Y-81710961D01*
X69220085Y-81933000D01*
X70363000Y-81933000D01*
X70363000Y-80789371D01*
X70617000Y-80789371D01*
X70617000Y-81933000D01*
X71759915Y-81933000D01*
X71881904Y-81710961D01*
X71721041Y-81322577D01*
X71345134Y-80907611D01*
X70839041Y-80668086D01*
X70617000Y-80789371D01*
X70363000Y-80789371D01*
X70140959Y-80668086D01*
X69634866Y-80907611D01*
X69258959Y-81322577D01*
X69098096Y-81710961D01*
X68349800Y-81710961D01*
X68349800Y-81289278D01*
X68525842Y-81113236D01*
X73493751Y-78268642D01*
X73773330Y-78384733D01*
X74383991Y-78385265D01*
X74948371Y-78152068D01*
X75116613Y-77984120D01*
X75116838Y-77985317D01*
X75255910Y-78201441D01*
X75468110Y-78346431D01*
X75720000Y-78397440D01*
X77373400Y-78397440D01*
X77373400Y-80811685D01*
X77298200Y-80842757D01*
X76894176Y-81246077D01*
X76675250Y-81773309D01*
X76674752Y-82344187D01*
X76892757Y-82871800D01*
X77296077Y-83275824D01*
X77823309Y-83494750D01*
X78394187Y-83495248D01*
X78921800Y-83277243D01*
X79325824Y-82873923D01*
X79544750Y-82346691D01*
X79545248Y-81775813D01*
X79327243Y-81248200D01*
X78923923Y-80844176D01*
X78846600Y-80812069D01*
X78846600Y-77030000D01*
X78790530Y-76748115D01*
X78630855Y-76509145D01*
X78500855Y-76379145D01*
X78392407Y-76306682D01*
X78286697Y-76230286D01*
X78273319Y-76227110D01*
X78261885Y-76219470D01*
X78167440Y-76200684D01*
X78167440Y-75950000D01*
X78123162Y-75714683D01*
X77984090Y-75498559D01*
X77771890Y-75353569D01*
X77520000Y-75302560D01*
X75720000Y-75302560D01*
X75484683Y-75346838D01*
X75268559Y-75485910D01*
X75123569Y-75698110D01*
X75119433Y-75718534D01*
X74950643Y-75549449D01*
X74386670Y-75315267D01*
X73776009Y-75314735D01*
X73211629Y-75547932D01*
X72779449Y-75979357D01*
X72545267Y-76543330D01*
X72545178Y-76645871D01*
X67483012Y-79544435D01*
X67389049Y-79626246D01*
X67285461Y-79695461D01*
X66745461Y-80235461D01*
X66541738Y-80540354D01*
X66470200Y-80900000D01*
X66167000Y-80900000D01*
X66167000Y-66950973D01*
X89985032Y-66950973D01*
X90105531Y-67183000D01*
X91313000Y-67183000D01*
X91313000Y-65976183D01*
X91567000Y-65976183D01*
X91567000Y-67183000D01*
X93853000Y-67183000D01*
X93853000Y-65976183D01*
X93620974Y-65855042D01*
X93205053Y-66027312D01*
X92773179Y-66421510D01*
X92710000Y-66556313D01*
X92646821Y-66421510D01*
X92214947Y-66027312D01*
X91799026Y-65855042D01*
X91567000Y-65976183D01*
X91313000Y-65976183D01*
X91080974Y-65855042D01*
X90665053Y-66027312D01*
X90233179Y-66421510D01*
X89985032Y-66950973D01*
X66167000Y-66950973D01*
X66167000Y-62142619D01*
X67539613Y-62142619D01*
X67879155Y-62964372D01*
X68507321Y-63593636D01*
X69328481Y-63934611D01*
X70217619Y-63935387D01*
X71039372Y-63595845D01*
X71668636Y-62967679D01*
X72009611Y-62146519D01*
X72009614Y-62142619D01*
X156589613Y-62142619D01*
X156929155Y-62964372D01*
X157557321Y-63593636D01*
X158378481Y-63934611D01*
X159267619Y-63935387D01*
X160089372Y-63595845D01*
X160718636Y-62967679D01*
X161059611Y-62146519D01*
X161060387Y-61257381D01*
X160720845Y-60435628D01*
X160092679Y-59806364D01*
X159271519Y-59465389D01*
X158382381Y-59464613D01*
X157560628Y-59804155D01*
X156931364Y-60432321D01*
X156590389Y-61253481D01*
X156589613Y-62142619D01*
X72009614Y-62142619D01*
X72010387Y-61257381D01*
X71670845Y-60435628D01*
X71042679Y-59806364D01*
X70221519Y-59465389D01*
X69332381Y-59464613D01*
X68510628Y-59804155D01*
X67881364Y-60432321D01*
X67540389Y-61253481D01*
X67539613Y-62142619D01*
X66167000Y-62142619D01*
X66167000Y-58547000D01*
X162433000Y-58547000D01*
X162433000Y-130683000D01*
G36*
X153324158Y-106540227D02*
X152858200Y-106732757D01*
X152454176Y-107136077D01*
X152426577Y-107202544D01*
X152423864Y-107195995D01*
X152177745Y-107121861D01*
X151349605Y-107950000D01*
X152177745Y-108778139D01*
X152423864Y-108704005D01*
X152426196Y-108697517D01*
X152452757Y-108761800D01*
X152730200Y-109039727D01*
X152730200Y-110676472D01*
X152627189Y-110745302D01*
X152316120Y-111210849D01*
X152206887Y-111760000D01*
X152280166Y-112128400D01*
X148565110Y-112128400D01*
X147675855Y-111239145D01*
X147497440Y-111119932D01*
X147497440Y-110960000D01*
X147453162Y-110724683D01*
X147314090Y-110508559D01*
X147101890Y-110363569D01*
X146850000Y-110312560D01*
X145250000Y-110312560D01*
X145014683Y-110356838D01*
X144798559Y-110495910D01*
X144653569Y-110708110D01*
X144602560Y-110960000D01*
X144602560Y-112560000D01*
X144646838Y-112795317D01*
X144785910Y-113011441D01*
X144998110Y-113156431D01*
X145153089Y-113187815D01*
X145007189Y-113285302D01*
X144696120Y-113750849D01*
X144586887Y-114300000D01*
X144696120Y-114849151D01*
X145007189Y-115314698D01*
X145389275Y-115570000D01*
X145007189Y-115825302D01*
X144696120Y-116290849D01*
X144586887Y-116840000D01*
X144696120Y-117389151D01*
X145007189Y-117854698D01*
X145389275Y-118110000D01*
X145007189Y-118365302D01*
X144802419Y-118671761D01*
X144663115Y-118699470D01*
X144424145Y-118859145D01*
X143534890Y-119748400D01*
X139819834Y-119748400D01*
X139893113Y-119380000D01*
X139783880Y-118830849D01*
X139472811Y-118365302D01*
X139369800Y-118296472D01*
X139369800Y-117923528D01*
X139472811Y-117854698D01*
X139783880Y-117389151D01*
X139893113Y-116840000D01*
X139870875Y-116728203D01*
X144174539Y-112424539D01*
X144378262Y-112119646D01*
X144449800Y-111760000D01*
X144449800Y-108957745D01*
X150341861Y-108957745D01*
X150415995Y-109203864D01*
X150953223Y-109396965D01*
X151523454Y-109369778D01*
X151924005Y-109203864D01*
X151998139Y-108957745D01*
X151170000Y-108129605D01*
X150341861Y-108957745D01*
X144449800Y-108957745D01*
X144449800Y-107733223D01*
X149723035Y-107733223D01*
X149750222Y-108303454D01*
X149916136Y-108704005D01*
X150162255Y-108778139D01*
X150990395Y-107950000D01*
X150162255Y-107121861D01*
X149916136Y-107195995D01*
X149723035Y-107733223D01*
X144449800Y-107733223D01*
X144449800Y-107069278D01*
X144576823Y-106942255D01*
X150341861Y-106942255D01*
X151170000Y-107770395D01*
X151998139Y-106942255D01*
X151924005Y-106696136D01*
X151386777Y-106503035D01*
X150816546Y-106530222D01*
X150415995Y-106696136D01*
X150341861Y-106942255D01*
X144576823Y-106942255D01*
X145169278Y-106349800D01*
X153419372Y-106349800D01*
X153324158Y-106540227D01*
X153324158Y-106540227D01*
G37*
X153324158Y-106540227D02*
X152858200Y-106732757D01*
X152454176Y-107136077D01*
X152426577Y-107202544D01*
X152423864Y-107195995D01*
X152177745Y-107121861D01*
X151349605Y-107950000D01*
X152177745Y-108778139D01*
X152423864Y-108704005D01*
X152426196Y-108697517D01*
X152452757Y-108761800D01*
X152730200Y-109039727D01*
X152730200Y-110676472D01*
X152627189Y-110745302D01*
X152316120Y-111210849D01*
X152206887Y-111760000D01*
X152280166Y-112128400D01*
X148565110Y-112128400D01*
X147675855Y-111239145D01*
X147497440Y-111119932D01*
X147497440Y-110960000D01*
X147453162Y-110724683D01*
X147314090Y-110508559D01*
X147101890Y-110363569D01*
X146850000Y-110312560D01*
X145250000Y-110312560D01*
X145014683Y-110356838D01*
X144798559Y-110495910D01*
X144653569Y-110708110D01*
X144602560Y-110960000D01*
X144602560Y-112560000D01*
X144646838Y-112795317D01*
X144785910Y-113011441D01*
X144998110Y-113156431D01*
X145153089Y-113187815D01*
X145007189Y-113285302D01*
X144696120Y-113750849D01*
X144586887Y-114300000D01*
X144696120Y-114849151D01*
X145007189Y-115314698D01*
X145389275Y-115570000D01*
X145007189Y-115825302D01*
X144696120Y-116290849D01*
X144586887Y-116840000D01*
X144696120Y-117389151D01*
X145007189Y-117854698D01*
X145389275Y-118110000D01*
X145007189Y-118365302D01*
X144802419Y-118671761D01*
X144663115Y-118699470D01*
X144424145Y-118859145D01*
X143534890Y-119748400D01*
X139819834Y-119748400D01*
X139893113Y-119380000D01*
X139783880Y-118830849D01*
X139472811Y-118365302D01*
X139369800Y-118296472D01*
X139369800Y-117923528D01*
X139472811Y-117854698D01*
X139783880Y-117389151D01*
X139893113Y-116840000D01*
X139870875Y-116728203D01*
X144174539Y-112424539D01*
X144378262Y-112119646D01*
X144449800Y-111760000D01*
X144449800Y-108957745D01*
X150341861Y-108957745D01*
X150415995Y-109203864D01*
X150953223Y-109396965D01*
X151523454Y-109369778D01*
X151924005Y-109203864D01*
X151998139Y-108957745D01*
X151170000Y-108129605D01*
X150341861Y-108957745D01*
X144449800Y-108957745D01*
X144449800Y-107733223D01*
X149723035Y-107733223D01*
X149750222Y-108303454D01*
X149916136Y-108704005D01*
X150162255Y-108778139D01*
X150990395Y-107950000D01*
X150162255Y-107121861D01*
X149916136Y-107195995D01*
X149723035Y-107733223D01*
X144449800Y-107733223D01*
X144449800Y-107069278D01*
X144576823Y-106942255D01*
X150341861Y-106942255D01*
X151170000Y-107770395D01*
X151998139Y-106942255D01*
X151924005Y-106696136D01*
X151386777Y-106503035D01*
X150816546Y-106530222D01*
X150415995Y-106696136D01*
X150341861Y-106942255D01*
X144576823Y-106942255D01*
X145169278Y-106349800D01*
X153419372Y-106349800D01*
X153324158Y-106540227D01*
G36*
X154000200Y-104470200D02*
X144780000Y-104470200D01*
X144420354Y-104541738D01*
X144115461Y-104745461D01*
X142845461Y-106015461D01*
X142641738Y-106320354D01*
X142570200Y-106680000D01*
X142570200Y-111370722D01*
X139851272Y-114089650D01*
X139783880Y-113750849D01*
X139472811Y-113285302D01*
X139090725Y-113030000D01*
X139472811Y-112774698D01*
X139783880Y-112309151D01*
X139893113Y-111760000D01*
X139783880Y-111210849D01*
X139472811Y-110745302D01*
X139090725Y-110490000D01*
X139472811Y-110234698D01*
X139783880Y-109769151D01*
X139893113Y-109220000D01*
X139783880Y-108670849D01*
X139472811Y-108205302D01*
X139068297Y-107935014D01*
X139285134Y-107832389D01*
X139661041Y-107417423D01*
X139821904Y-107029039D01*
X139699915Y-106807000D01*
X138557000Y-106807000D01*
X138557000Y-106827000D01*
X138303000Y-106827000D01*
X138303000Y-106807000D01*
X137160085Y-106807000D01*
X137038096Y-107029039D01*
X137198959Y-107417423D01*
X137574866Y-107832389D01*
X137791703Y-107935014D01*
X137387189Y-108205302D01*
X137076120Y-108670849D01*
X136966887Y-109220000D01*
X137076120Y-109769151D01*
X137387189Y-110234698D01*
X137769275Y-110490000D01*
X137387189Y-110745302D01*
X137076120Y-111210849D01*
X136966887Y-111760000D01*
X137076120Y-112309151D01*
X137387189Y-112774698D01*
X137769275Y-113030000D01*
X137387189Y-113285302D01*
X137182419Y-113591761D01*
X137043115Y-113619470D01*
X136804145Y-113779145D01*
X135908890Y-114674400D01*
X124578640Y-114674400D01*
X124653113Y-114300000D01*
X124543880Y-113750849D01*
X124232811Y-113285302D01*
X123850725Y-113030000D01*
X124232811Y-112774698D01*
X124543880Y-112309151D01*
X124653113Y-111760000D01*
X124543880Y-111210849D01*
X124232811Y-110745302D01*
X123850725Y-110490000D01*
X124232811Y-110234698D01*
X124543880Y-109769151D01*
X124653113Y-109220000D01*
X124543880Y-108670849D01*
X124251475Y-108233235D01*
X124815855Y-107668855D01*
X124975531Y-107429884D01*
X125031601Y-107148000D01*
X125031600Y-107147995D01*
X125031600Y-106188000D01*
X125003595Y-106047209D01*
X124975711Y-105906553D01*
X124975577Y-105906353D01*
X124975530Y-105906115D01*
X124895770Y-105786747D01*
X124816190Y-105667480D01*
X124261374Y-105111950D01*
X124282856Y-105079800D01*
X128450534Y-105079800D01*
X128726077Y-105355824D01*
X129253309Y-105574750D01*
X129824187Y-105575248D01*
X130351800Y-105357243D01*
X130561663Y-105147745D01*
X131211861Y-105147745D01*
X131285995Y-105393864D01*
X131823223Y-105586965D01*
X132393454Y-105559778D01*
X132794005Y-105393864D01*
X132868139Y-105147745D01*
X132040000Y-104319605D01*
X131211861Y-105147745D01*
X130561663Y-105147745D01*
X130755824Y-104953923D01*
X130783423Y-104887456D01*
X130786136Y-104894005D01*
X131032255Y-104968139D01*
X131860395Y-104140000D01*
X132219605Y-104140000D01*
X133047745Y-104968139D01*
X133293864Y-104894005D01*
X133486965Y-104356777D01*
X133459778Y-103786546D01*
X133293864Y-103385995D01*
X133047745Y-103311861D01*
X132219605Y-104140000D01*
X131860395Y-104140000D01*
X131032255Y-103311861D01*
X130786136Y-103385995D01*
X130783804Y-103392483D01*
X130757243Y-103328200D01*
X130561640Y-103132255D01*
X131211861Y-103132255D01*
X132040000Y-103960395D01*
X132868139Y-103132255D01*
X132794005Y-102886136D01*
X132256777Y-102693035D01*
X131686546Y-102720222D01*
X131285995Y-102886136D01*
X131211861Y-103132255D01*
X130561640Y-103132255D01*
X130479800Y-103050273D01*
X130479800Y-78740000D01*
X136966887Y-78740000D01*
X137076120Y-79289151D01*
X137387189Y-79754698D01*
X137769275Y-80010000D01*
X137387189Y-80265302D01*
X137076120Y-80730849D01*
X136966887Y-81280000D01*
X137076120Y-81829151D01*
X137387189Y-82294698D01*
X137769275Y-82550000D01*
X137387189Y-82805302D01*
X137076120Y-83270849D01*
X136966887Y-83820000D01*
X137076120Y-84369151D01*
X137387189Y-84834698D01*
X137769275Y-85090000D01*
X137387189Y-85345302D01*
X137076120Y-85810849D01*
X136966887Y-86360000D01*
X137076120Y-86909151D01*
X137387189Y-87374698D01*
X137769275Y-87630000D01*
X137387189Y-87885302D01*
X137076120Y-88350849D01*
X136966887Y-88900000D01*
X137076120Y-89449151D01*
X137387189Y-89914698D01*
X137769275Y-90170000D01*
X137387189Y-90425302D01*
X137076120Y-90890849D01*
X136966887Y-91440000D01*
X137076120Y-91989151D01*
X137387189Y-92454698D01*
X137769275Y-92710000D01*
X137387189Y-92965302D01*
X137076120Y-93430849D01*
X136966887Y-93980000D01*
X137076120Y-94529151D01*
X137387189Y-94994698D01*
X137769275Y-95250000D01*
X137387189Y-95505302D01*
X137076120Y-95970849D01*
X136966887Y-96520000D01*
X137076120Y-97069151D01*
X137387189Y-97534698D01*
X137769275Y-97790000D01*
X137387189Y-98045302D01*
X137076120Y-98510849D01*
X136966887Y-99060000D01*
X137076120Y-99609151D01*
X137387189Y-100074698D01*
X137769275Y-100330000D01*
X137387189Y-100585302D01*
X137076120Y-101050849D01*
X136966887Y-101600000D01*
X137076120Y-102149151D01*
X137387189Y-102614698D01*
X137769275Y-102870000D01*
X137387189Y-103125302D01*
X137076120Y-103590849D01*
X136966887Y-104140000D01*
X137076120Y-104689151D01*
X137387189Y-105154698D01*
X137791703Y-105424986D01*
X137574866Y-105527611D01*
X137198959Y-105942577D01*
X137038096Y-106330961D01*
X137160085Y-106553000D01*
X138303000Y-106553000D01*
X138303000Y-106533000D01*
X138557000Y-106533000D01*
X138557000Y-106553000D01*
X139699915Y-106553000D01*
X139821904Y-106330961D01*
X139661041Y-105942577D01*
X139285134Y-105527611D01*
X139068297Y-105424986D01*
X139472811Y-105154698D01*
X139783880Y-104689151D01*
X139893113Y-104140000D01*
X139783880Y-103590849D01*
X139472811Y-103125302D01*
X139090725Y-102870000D01*
X139472811Y-102614698D01*
X139783880Y-102149151D01*
X139893113Y-101600000D01*
X139783880Y-101050849D01*
X139472811Y-100585302D01*
X139090725Y-100330000D01*
X139472811Y-100074698D01*
X139783880Y-99609151D01*
X139893113Y-99060000D01*
X139783880Y-98510849D01*
X139472811Y-98045302D01*
X139090725Y-97790000D01*
X139472811Y-97534698D01*
X139783880Y-97069151D01*
X139893113Y-96520000D01*
X139783880Y-95970849D01*
X139472811Y-95505302D01*
X139090725Y-95250000D01*
X139472811Y-94994698D01*
X139783880Y-94529151D01*
X139893113Y-93980000D01*
X139783880Y-93430849D01*
X139472811Y-92965302D01*
X139090725Y-92710000D01*
X139472811Y-92454698D01*
X139783880Y-91989151D01*
X139893113Y-91440000D01*
X139783880Y-90890849D01*
X139472811Y-90425302D01*
X139090725Y-90170000D01*
X139472811Y-89914698D01*
X139783880Y-89449151D01*
X139893113Y-88900000D01*
X139783880Y-88350849D01*
X139472811Y-87885302D01*
X139090725Y-87630000D01*
X139472811Y-87374698D01*
X139783880Y-86909151D01*
X139893113Y-86360000D01*
X139783880Y-85810849D01*
X139472811Y-85345302D01*
X139090725Y-85090000D01*
X139472811Y-84834698D01*
X139783880Y-84369151D01*
X139893113Y-83820000D01*
X139783880Y-83270849D01*
X139472811Y-82805302D01*
X139090725Y-82550000D01*
X139472811Y-82294698D01*
X139783880Y-81829151D01*
X139893113Y-81280000D01*
X139783880Y-80730849D01*
X139472811Y-80265302D01*
X139090725Y-80010000D01*
X139472811Y-79754698D01*
X139783880Y-79289151D01*
X139893113Y-78740000D01*
X139783880Y-78190849D01*
X139472811Y-77725302D01*
X139007264Y-77414233D01*
X138458113Y-77305000D01*
X138401887Y-77305000D01*
X137852736Y-77414233D01*
X137387189Y-77725302D01*
X137076120Y-78190849D01*
X136966887Y-78740000D01*
X130479800Y-78740000D01*
X130479800Y-77470000D01*
X130414119Y-77139800D01*
X154000200Y-77139800D01*
X154000200Y-104470200D01*
X154000200Y-104470200D01*
G37*
X154000200Y-104470200D02*
X144780000Y-104470200D01*
X144420354Y-104541738D01*
X144115461Y-104745461D01*
X142845461Y-106015461D01*
X142641738Y-106320354D01*
X142570200Y-106680000D01*
X142570200Y-111370722D01*
X139851272Y-114089650D01*
X139783880Y-113750849D01*
X139472811Y-113285302D01*
X139090725Y-113030000D01*
X139472811Y-112774698D01*
X139783880Y-112309151D01*
X139893113Y-111760000D01*
X139783880Y-111210849D01*
X139472811Y-110745302D01*
X139090725Y-110490000D01*
X139472811Y-110234698D01*
X139783880Y-109769151D01*
X139893113Y-109220000D01*
X139783880Y-108670849D01*
X139472811Y-108205302D01*
X139068297Y-107935014D01*
X139285134Y-107832389D01*
X139661041Y-107417423D01*
X139821904Y-107029039D01*
X139699915Y-106807000D01*
X138557000Y-106807000D01*
X138557000Y-106827000D01*
X138303000Y-106827000D01*
X138303000Y-106807000D01*
X137160085Y-106807000D01*
X137038096Y-107029039D01*
X137198959Y-107417423D01*
X137574866Y-107832389D01*
X137791703Y-107935014D01*
X137387189Y-108205302D01*
X137076120Y-108670849D01*
X136966887Y-109220000D01*
X137076120Y-109769151D01*
X137387189Y-110234698D01*
X137769275Y-110490000D01*
X137387189Y-110745302D01*
X137076120Y-111210849D01*
X136966887Y-111760000D01*
X137076120Y-112309151D01*
X137387189Y-112774698D01*
X137769275Y-113030000D01*
X137387189Y-113285302D01*
X137182419Y-113591761D01*
X137043115Y-113619470D01*
X136804145Y-113779145D01*
X135908890Y-114674400D01*
X124578640Y-114674400D01*
X124653113Y-114300000D01*
X124543880Y-113750849D01*
X124232811Y-113285302D01*
X123850725Y-113030000D01*
X124232811Y-112774698D01*
X124543880Y-112309151D01*
X124653113Y-111760000D01*
X124543880Y-111210849D01*
X124232811Y-110745302D01*
X123850725Y-110490000D01*
X124232811Y-110234698D01*
X124543880Y-109769151D01*
X124653113Y-109220000D01*
X124543880Y-108670849D01*
X124251475Y-108233235D01*
X124815855Y-107668855D01*
X124975531Y-107429884D01*
X125031601Y-107148000D01*
X125031600Y-107147995D01*
X125031600Y-106188000D01*
X125003595Y-106047209D01*
X124975711Y-105906553D01*
X124975577Y-105906353D01*
X124975530Y-105906115D01*
X124895770Y-105786747D01*
X124816190Y-105667480D01*
X124261374Y-105111950D01*
X124282856Y-105079800D01*
X128450534Y-105079800D01*
X128726077Y-105355824D01*
X129253309Y-105574750D01*
X129824187Y-105575248D01*
X130351800Y-105357243D01*
X130561663Y-105147745D01*
X131211861Y-105147745D01*
X131285995Y-105393864D01*
X131823223Y-105586965D01*
X132393454Y-105559778D01*
X132794005Y-105393864D01*
X132868139Y-105147745D01*
X132040000Y-104319605D01*
X131211861Y-105147745D01*
X130561663Y-105147745D01*
X130755824Y-104953923D01*
X130783423Y-104887456D01*
X130786136Y-104894005D01*
X131032255Y-104968139D01*
X131860395Y-104140000D01*
X132219605Y-104140000D01*
X133047745Y-104968139D01*
X133293864Y-104894005D01*
X133486965Y-104356777D01*
X133459778Y-103786546D01*
X133293864Y-103385995D01*
X133047745Y-103311861D01*
X132219605Y-104140000D01*
X131860395Y-104140000D01*
X131032255Y-103311861D01*
X130786136Y-103385995D01*
X130783804Y-103392483D01*
X130757243Y-103328200D01*
X130561640Y-103132255D01*
X131211861Y-103132255D01*
X132040000Y-103960395D01*
X132868139Y-103132255D01*
X132794005Y-102886136D01*
X132256777Y-102693035D01*
X131686546Y-102720222D01*
X131285995Y-102886136D01*
X131211861Y-103132255D01*
X130561640Y-103132255D01*
X130479800Y-103050273D01*
X130479800Y-78740000D01*
X136966887Y-78740000D01*
X137076120Y-79289151D01*
X137387189Y-79754698D01*
X137769275Y-80010000D01*
X137387189Y-80265302D01*
X137076120Y-80730849D01*
X136966887Y-81280000D01*
X137076120Y-81829151D01*
X137387189Y-82294698D01*
X137769275Y-82550000D01*
X137387189Y-82805302D01*
X137076120Y-83270849D01*
X136966887Y-83820000D01*
X137076120Y-84369151D01*
X137387189Y-84834698D01*
X137769275Y-85090000D01*
X137387189Y-85345302D01*
X137076120Y-85810849D01*
X136966887Y-86360000D01*
X137076120Y-86909151D01*
X137387189Y-87374698D01*
X137769275Y-87630000D01*
X137387189Y-87885302D01*
X137076120Y-88350849D01*
X136966887Y-88900000D01*
X137076120Y-89449151D01*
X137387189Y-89914698D01*
X137769275Y-90170000D01*
X137387189Y-90425302D01*
X137076120Y-90890849D01*
X136966887Y-91440000D01*
X137076120Y-91989151D01*
X137387189Y-92454698D01*
X137769275Y-92710000D01*
X137387189Y-92965302D01*
X137076120Y-93430849D01*
X136966887Y-93980000D01*
X137076120Y-94529151D01*
X137387189Y-94994698D01*
X137769275Y-95250000D01*
X137387189Y-95505302D01*
X137076120Y-95970849D01*
X136966887Y-96520000D01*
X137076120Y-97069151D01*
X137387189Y-97534698D01*
X137769275Y-97790000D01*
X137387189Y-98045302D01*
X137076120Y-98510849D01*
X136966887Y-99060000D01*
X137076120Y-99609151D01*
X137387189Y-100074698D01*
X137769275Y-100330000D01*
X137387189Y-100585302D01*
X137076120Y-101050849D01*
X136966887Y-101600000D01*
X137076120Y-102149151D01*
X137387189Y-102614698D01*
X137769275Y-102870000D01*
X137387189Y-103125302D01*
X137076120Y-103590849D01*
X136966887Y-104140000D01*
X137076120Y-104689151D01*
X137387189Y-105154698D01*
X137791703Y-105424986D01*
X137574866Y-105527611D01*
X137198959Y-105942577D01*
X137038096Y-106330961D01*
X137160085Y-106553000D01*
X138303000Y-106553000D01*
X138303000Y-106533000D01*
X138557000Y-106533000D01*
X138557000Y-106553000D01*
X139699915Y-106553000D01*
X139821904Y-106330961D01*
X139661041Y-105942577D01*
X139285134Y-105527611D01*
X139068297Y-105424986D01*
X139472811Y-105154698D01*
X139783880Y-104689151D01*
X139893113Y-104140000D01*
X139783880Y-103590849D01*
X139472811Y-103125302D01*
X139090725Y-102870000D01*
X139472811Y-102614698D01*
X139783880Y-102149151D01*
X139893113Y-101600000D01*
X139783880Y-101050849D01*
X139472811Y-100585302D01*
X139090725Y-100330000D01*
X139472811Y-100074698D01*
X139783880Y-99609151D01*
X139893113Y-99060000D01*
X139783880Y-98510849D01*
X139472811Y-98045302D01*
X139090725Y-97790000D01*
X139472811Y-97534698D01*
X139783880Y-97069151D01*
X139893113Y-96520000D01*
X139783880Y-95970849D01*
X139472811Y-95505302D01*
X139090725Y-95250000D01*
X139472811Y-94994698D01*
X139783880Y-94529151D01*
X139893113Y-93980000D01*
X139783880Y-93430849D01*
X139472811Y-92965302D01*
X139090725Y-92710000D01*
X139472811Y-92454698D01*
X139783880Y-91989151D01*
X139893113Y-91440000D01*
X139783880Y-90890849D01*
X139472811Y-90425302D01*
X139090725Y-90170000D01*
X139472811Y-89914698D01*
X139783880Y-89449151D01*
X139893113Y-88900000D01*
X139783880Y-88350849D01*
X139472811Y-87885302D01*
X139090725Y-87630000D01*
X139472811Y-87374698D01*
X139783880Y-86909151D01*
X139893113Y-86360000D01*
X139783880Y-85810849D01*
X139472811Y-85345302D01*
X139090725Y-85090000D01*
X139472811Y-84834698D01*
X139783880Y-84369151D01*
X139893113Y-83820000D01*
X139783880Y-83270849D01*
X139472811Y-82805302D01*
X139090725Y-82550000D01*
X139472811Y-82294698D01*
X139783880Y-81829151D01*
X139893113Y-81280000D01*
X139783880Y-80730849D01*
X139472811Y-80265302D01*
X139090725Y-80010000D01*
X139472811Y-79754698D01*
X139783880Y-79289151D01*
X139893113Y-78740000D01*
X139783880Y-78190849D01*
X139472811Y-77725302D01*
X139007264Y-77414233D01*
X138458113Y-77305000D01*
X138401887Y-77305000D01*
X137852736Y-77414233D01*
X137387189Y-77725302D01*
X137076120Y-78190849D01*
X136966887Y-78740000D01*
X130479800Y-78740000D01*
X130479800Y-77470000D01*
X130414119Y-77139800D01*
X154000200Y-77139800D01*
X154000200Y-104470200D01*
G36*
X106907189Y-89914698D02*
X107311703Y-90184986D01*
X107094866Y-90287611D01*
X106718959Y-90702577D01*
X106558096Y-91090961D01*
X106680085Y-91313000D01*
X107823000Y-91313000D01*
X107823000Y-91293000D01*
X108077000Y-91293000D01*
X108077000Y-91313000D01*
X108097000Y-91313000D01*
X108097000Y-91567000D01*
X108077000Y-91567000D01*
X108077000Y-91587000D01*
X107823000Y-91587000D01*
X107823000Y-91567000D01*
X106680085Y-91567000D01*
X106558096Y-91789039D01*
X106718959Y-92177423D01*
X107094866Y-92592389D01*
X107311703Y-92695014D01*
X106907189Y-92965302D01*
X106596120Y-93430849D01*
X106486887Y-93980000D01*
X106596120Y-94529151D01*
X106907189Y-94994698D01*
X107311703Y-95264986D01*
X107094866Y-95367611D01*
X106718959Y-95782577D01*
X106558096Y-96170961D01*
X106680085Y-96393000D01*
X107823000Y-96393000D01*
X107823000Y-96373000D01*
X108077000Y-96373000D01*
X108077000Y-96393000D01*
X108097000Y-96393000D01*
X108097000Y-96647000D01*
X108077000Y-96647000D01*
X108077000Y-96667000D01*
X107823000Y-96667000D01*
X107823000Y-96647000D01*
X106680085Y-96647000D01*
X106558096Y-96869039D01*
X106718959Y-97257423D01*
X107094866Y-97672389D01*
X107311703Y-97775014D01*
X106907189Y-98045302D01*
X106596120Y-98510849D01*
X106486887Y-99060000D01*
X106596120Y-99609151D01*
X106907189Y-100074698D01*
X107311703Y-100344986D01*
X107094866Y-100447611D01*
X106718959Y-100862577D01*
X106558096Y-101250961D01*
X106680085Y-101473000D01*
X107823000Y-101473000D01*
X107823000Y-101453000D01*
X108077000Y-101453000D01*
X108077000Y-101473000D01*
X108097000Y-101473000D01*
X108097000Y-101727000D01*
X108077000Y-101727000D01*
X108077000Y-101747000D01*
X107823000Y-101747000D01*
X107823000Y-101727000D01*
X106680085Y-101727000D01*
X106558096Y-101949039D01*
X106718959Y-102337423D01*
X107094866Y-102752389D01*
X107311703Y-102855014D01*
X106907189Y-103125302D01*
X106596120Y-103590849D01*
X106486887Y-104140000D01*
X106596120Y-104689151D01*
X106907189Y-105154698D01*
X107372736Y-105465767D01*
X107921887Y-105575000D01*
X107978113Y-105575000D01*
X108527264Y-105465767D01*
X108992811Y-105154698D01*
X109303880Y-104689151D01*
X109413113Y-104140000D01*
X109303880Y-103590849D01*
X108992811Y-103125302D01*
X108588297Y-102855014D01*
X108805134Y-102752389D01*
X108910453Y-102636126D01*
X115784096Y-109508858D01*
X115514233Y-109912736D01*
X115405000Y-110461887D01*
X115405000Y-110518113D01*
X115514233Y-111067264D01*
X115825302Y-111532811D01*
X116165314Y-111760000D01*
X115825302Y-111987189D01*
X115514233Y-112452736D01*
X115405000Y-113001887D01*
X115405000Y-113058113D01*
X115514233Y-113607264D01*
X115825302Y-114072811D01*
X116290849Y-114383880D01*
X116840000Y-114493113D01*
X117389151Y-114383880D01*
X117854698Y-114072811D01*
X118076822Y-113740379D01*
X118226885Y-113710530D01*
X118465855Y-113550855D01*
X119520110Y-112496600D01*
X121961370Y-112496600D01*
X122147189Y-112774698D01*
X122529275Y-113030000D01*
X122147189Y-113285302D01*
X121836120Y-113750849D01*
X121726887Y-114300000D01*
X121801360Y-114674400D01*
X114380110Y-114674400D01*
X113319855Y-113614145D01*
X113080885Y-113454470D01*
X112799000Y-113398400D01*
X109333885Y-113398400D01*
X109341904Y-113379039D01*
X109219915Y-113157000D01*
X108077000Y-113157000D01*
X108077000Y-113177000D01*
X107823000Y-113177000D01*
X107823000Y-113157000D01*
X106680085Y-113157000D01*
X106558096Y-113379039D01*
X106566115Y-113398400D01*
X102845110Y-113398400D01*
X101955855Y-112509145D01*
X101716885Y-112349470D01*
X101577581Y-112321761D01*
X101372811Y-112015302D01*
X101228535Y-111918899D01*
X101365317Y-111893162D01*
X101581441Y-111754090D01*
X101726431Y-111541890D01*
X101777440Y-111290000D01*
X101777440Y-109690000D01*
X101733162Y-109454683D01*
X101594090Y-109238559D01*
X101381890Y-109093569D01*
X101130000Y-109042560D01*
X99530000Y-109042560D01*
X99294683Y-109086838D01*
X99078559Y-109225910D01*
X98933569Y-109438110D01*
X98882560Y-109690000D01*
X98882560Y-111290000D01*
X98926838Y-111525317D01*
X99065910Y-111741441D01*
X99278110Y-111886431D01*
X99433089Y-111917815D01*
X99287189Y-112015302D01*
X98976120Y-112480849D01*
X98866887Y-113030000D01*
X98976120Y-113579151D01*
X99183309Y-113889231D01*
X97739539Y-112445461D01*
X97434646Y-112241738D01*
X97075000Y-112170200D01*
X96152609Y-112170200D01*
X95960821Y-111883170D01*
X95639800Y-111668670D01*
X95639800Y-110746891D01*
X95762811Y-110664698D01*
X96073880Y-110199151D01*
X96183113Y-109650000D01*
X96073880Y-109100849D01*
X95978261Y-108957745D01*
X102081861Y-108957745D01*
X102155995Y-109203864D01*
X102693223Y-109396965D01*
X103263454Y-109369778D01*
X103664005Y-109203864D01*
X103738139Y-108957745D01*
X102910000Y-108129605D01*
X102081861Y-108957745D01*
X95978261Y-108957745D01*
X95762811Y-108635302D01*
X95659800Y-108566472D01*
X95659800Y-107971651D01*
X95799313Y-107635668D01*
X95799687Y-107206216D01*
X95759849Y-107109800D01*
X101794418Y-107109800D01*
X101874302Y-107093910D01*
X101902253Y-107121861D01*
X101656136Y-107195995D01*
X101463035Y-107733223D01*
X101490222Y-108303454D01*
X101656136Y-108704005D01*
X101902255Y-108778139D01*
X102730395Y-107950000D01*
X102716252Y-107935858D01*
X102895858Y-107756252D01*
X102910000Y-107770395D01*
X103738139Y-106942255D01*
X103664005Y-106696136D01*
X103126777Y-106503035D01*
X102773701Y-106519869D01*
X104470200Y-104823768D01*
X104470200Y-106860534D01*
X104194176Y-107136077D01*
X104166577Y-107202544D01*
X104163864Y-107195995D01*
X103917745Y-107121861D01*
X103089605Y-107950000D01*
X103917745Y-108778139D01*
X104163864Y-108704005D01*
X104166196Y-108697517D01*
X104192757Y-108761800D01*
X104596077Y-109165824D01*
X105123309Y-109384750D01*
X105516015Y-109385093D01*
X106509125Y-110378203D01*
X106486887Y-110490000D01*
X106596120Y-111039151D01*
X106907189Y-111504698D01*
X107311703Y-111774986D01*
X107094866Y-111877611D01*
X106718959Y-112292577D01*
X106558096Y-112680961D01*
X106680085Y-112903000D01*
X107823000Y-112903000D01*
X107823000Y-112883000D01*
X108077000Y-112883000D01*
X108077000Y-112903000D01*
X109219915Y-112903000D01*
X109341904Y-112680961D01*
X109181041Y-112292577D01*
X108805134Y-111877611D01*
X108588297Y-111774986D01*
X108992811Y-111504698D01*
X109303880Y-111039151D01*
X109413113Y-110490000D01*
X109303880Y-109940849D01*
X108992811Y-109475302D01*
X108527264Y-109164233D01*
X107978113Y-109055000D01*
X107921887Y-109055000D01*
X107856987Y-109067909D01*
X106844908Y-108055830D01*
X106845248Y-107665813D01*
X106627243Y-107138200D01*
X106349800Y-106860273D01*
X106349800Y-103692000D01*
X106278262Y-103332354D01*
X106074539Y-103027461D01*
X104444800Y-101397722D01*
X104444800Y-93106755D01*
X104559332Y-93154313D01*
X104988784Y-93154687D01*
X105385689Y-92990689D01*
X105689622Y-92687286D01*
X105854313Y-92290668D01*
X105854687Y-91861216D01*
X105690689Y-91464311D01*
X105556692Y-91330079D01*
X105573828Y-91038755D01*
X105570818Y-91017021D01*
X105575099Y-90995501D01*
X105575099Y-90538611D01*
X106623533Y-89490177D01*
X106907189Y-89914698D01*
X106907189Y-89914698D01*
G37*
X106907189Y-89914698D02*
X107311703Y-90184986D01*
X107094866Y-90287611D01*
X106718959Y-90702577D01*
X106558096Y-91090961D01*
X106680085Y-91313000D01*
X107823000Y-91313000D01*
X107823000Y-91293000D01*
X108077000Y-91293000D01*
X108077000Y-91313000D01*
X108097000Y-91313000D01*
X108097000Y-91567000D01*
X108077000Y-91567000D01*
X108077000Y-91587000D01*
X107823000Y-91587000D01*
X107823000Y-91567000D01*
X106680085Y-91567000D01*
X106558096Y-91789039D01*
X106718959Y-92177423D01*
X107094866Y-92592389D01*
X107311703Y-92695014D01*
X106907189Y-92965302D01*
X106596120Y-93430849D01*
X106486887Y-93980000D01*
X106596120Y-94529151D01*
X106907189Y-94994698D01*
X107311703Y-95264986D01*
X107094866Y-95367611D01*
X106718959Y-95782577D01*
X106558096Y-96170961D01*
X106680085Y-96393000D01*
X107823000Y-96393000D01*
X107823000Y-96373000D01*
X108077000Y-96373000D01*
X108077000Y-96393000D01*
X108097000Y-96393000D01*
X108097000Y-96647000D01*
X108077000Y-96647000D01*
X108077000Y-96667000D01*
X107823000Y-96667000D01*
X107823000Y-96647000D01*
X106680085Y-96647000D01*
X106558096Y-96869039D01*
X106718959Y-97257423D01*
X107094866Y-97672389D01*
X107311703Y-97775014D01*
X106907189Y-98045302D01*
X106596120Y-98510849D01*
X106486887Y-99060000D01*
X106596120Y-99609151D01*
X106907189Y-100074698D01*
X107311703Y-100344986D01*
X107094866Y-100447611D01*
X106718959Y-100862577D01*
X106558096Y-101250961D01*
X106680085Y-101473000D01*
X107823000Y-101473000D01*
X107823000Y-101453000D01*
X108077000Y-101453000D01*
X108077000Y-101473000D01*
X108097000Y-101473000D01*
X108097000Y-101727000D01*
X108077000Y-101727000D01*
X108077000Y-101747000D01*
X107823000Y-101747000D01*
X107823000Y-101727000D01*
X106680085Y-101727000D01*
X106558096Y-101949039D01*
X106718959Y-102337423D01*
X107094866Y-102752389D01*
X107311703Y-102855014D01*
X106907189Y-103125302D01*
X106596120Y-103590849D01*
X106486887Y-104140000D01*
X106596120Y-104689151D01*
X106907189Y-105154698D01*
X107372736Y-105465767D01*
X107921887Y-105575000D01*
X107978113Y-105575000D01*
X108527264Y-105465767D01*
X108992811Y-105154698D01*
X109303880Y-104689151D01*
X109413113Y-104140000D01*
X109303880Y-103590849D01*
X108992811Y-103125302D01*
X108588297Y-102855014D01*
X108805134Y-102752389D01*
X108910453Y-102636126D01*
X115784096Y-109508858D01*
X115514233Y-109912736D01*
X115405000Y-110461887D01*
X115405000Y-110518113D01*
X115514233Y-111067264D01*
X115825302Y-111532811D01*
X116165314Y-111760000D01*
X115825302Y-111987189D01*
X115514233Y-112452736D01*
X115405000Y-113001887D01*
X115405000Y-113058113D01*
X115514233Y-113607264D01*
X115825302Y-114072811D01*
X116290849Y-114383880D01*
X116840000Y-114493113D01*
X117389151Y-114383880D01*
X117854698Y-114072811D01*
X118076822Y-113740379D01*
X118226885Y-113710530D01*
X118465855Y-113550855D01*
X119520110Y-112496600D01*
X121961370Y-112496600D01*
X122147189Y-112774698D01*
X122529275Y-113030000D01*
X122147189Y-113285302D01*
X121836120Y-113750849D01*
X121726887Y-114300000D01*
X121801360Y-114674400D01*
X114380110Y-114674400D01*
X113319855Y-113614145D01*
X113080885Y-113454470D01*
X112799000Y-113398400D01*
X109333885Y-113398400D01*
X109341904Y-113379039D01*
X109219915Y-113157000D01*
X108077000Y-113157000D01*
X108077000Y-113177000D01*
X107823000Y-113177000D01*
X107823000Y-113157000D01*
X106680085Y-113157000D01*
X106558096Y-113379039D01*
X106566115Y-113398400D01*
X102845110Y-113398400D01*
X101955855Y-112509145D01*
X101716885Y-112349470D01*
X101577581Y-112321761D01*
X101372811Y-112015302D01*
X101228535Y-111918899D01*
X101365317Y-111893162D01*
X101581441Y-111754090D01*
X101726431Y-111541890D01*
X101777440Y-111290000D01*
X101777440Y-109690000D01*
X101733162Y-109454683D01*
X101594090Y-109238559D01*
X101381890Y-109093569D01*
X101130000Y-109042560D01*
X99530000Y-109042560D01*
X99294683Y-109086838D01*
X99078559Y-109225910D01*
X98933569Y-109438110D01*
X98882560Y-109690000D01*
X98882560Y-111290000D01*
X98926838Y-111525317D01*
X99065910Y-111741441D01*
X99278110Y-111886431D01*
X99433089Y-111917815D01*
X99287189Y-112015302D01*
X98976120Y-112480849D01*
X98866887Y-113030000D01*
X98976120Y-113579151D01*
X99183309Y-113889231D01*
X97739539Y-112445461D01*
X97434646Y-112241738D01*
X97075000Y-112170200D01*
X96152609Y-112170200D01*
X95960821Y-111883170D01*
X95639800Y-111668670D01*
X95639800Y-110746891D01*
X95762811Y-110664698D01*
X96073880Y-110199151D01*
X96183113Y-109650000D01*
X96073880Y-109100849D01*
X95978261Y-108957745D01*
X102081861Y-108957745D01*
X102155995Y-109203864D01*
X102693223Y-109396965D01*
X103263454Y-109369778D01*
X103664005Y-109203864D01*
X103738139Y-108957745D01*
X102910000Y-108129605D01*
X102081861Y-108957745D01*
X95978261Y-108957745D01*
X95762811Y-108635302D01*
X95659800Y-108566472D01*
X95659800Y-107971651D01*
X95799313Y-107635668D01*
X95799687Y-107206216D01*
X95759849Y-107109800D01*
X101794418Y-107109800D01*
X101874302Y-107093910D01*
X101902253Y-107121861D01*
X101656136Y-107195995D01*
X101463035Y-107733223D01*
X101490222Y-108303454D01*
X101656136Y-108704005D01*
X101902255Y-108778139D01*
X102730395Y-107950000D01*
X102716252Y-107935858D01*
X102895858Y-107756252D01*
X102910000Y-107770395D01*
X103738139Y-106942255D01*
X103664005Y-106696136D01*
X103126777Y-106503035D01*
X102773701Y-106519869D01*
X104470200Y-104823768D01*
X104470200Y-106860534D01*
X104194176Y-107136077D01*
X104166577Y-107202544D01*
X104163864Y-107195995D01*
X103917745Y-107121861D01*
X103089605Y-107950000D01*
X103917745Y-108778139D01*
X104163864Y-108704005D01*
X104166196Y-108697517D01*
X104192757Y-108761800D01*
X104596077Y-109165824D01*
X105123309Y-109384750D01*
X105516015Y-109385093D01*
X106509125Y-110378203D01*
X106486887Y-110490000D01*
X106596120Y-111039151D01*
X106907189Y-111504698D01*
X107311703Y-111774986D01*
X107094866Y-111877611D01*
X106718959Y-112292577D01*
X106558096Y-112680961D01*
X106680085Y-112903000D01*
X107823000Y-112903000D01*
X107823000Y-112883000D01*
X108077000Y-112883000D01*
X108077000Y-112903000D01*
X109219915Y-112903000D01*
X109341904Y-112680961D01*
X109181041Y-112292577D01*
X108805134Y-111877611D01*
X108588297Y-111774986D01*
X108992811Y-111504698D01*
X109303880Y-111039151D01*
X109413113Y-110490000D01*
X109303880Y-109940849D01*
X108992811Y-109475302D01*
X108527264Y-109164233D01*
X107978113Y-109055000D01*
X107921887Y-109055000D01*
X107856987Y-109067909D01*
X106844908Y-108055830D01*
X106845248Y-107665813D01*
X106627243Y-107138200D01*
X106349800Y-106860273D01*
X106349800Y-103692000D01*
X106278262Y-103332354D01*
X106074539Y-103027461D01*
X104444800Y-101397722D01*
X104444800Y-93106755D01*
X104559332Y-93154313D01*
X104988784Y-93154687D01*
X105385689Y-92990689D01*
X105689622Y-92687286D01*
X105854313Y-92290668D01*
X105854687Y-91861216D01*
X105690689Y-91464311D01*
X105556692Y-91330079D01*
X105573828Y-91038755D01*
X105570818Y-91017021D01*
X105575099Y-90995501D01*
X105575099Y-90538611D01*
X106623533Y-89490177D01*
X106907189Y-89914698D01*
M02*
