G04 #@! TF.GenerationSoftware,KiCad,Pcbnew,(5.0.0-3-g5ebb6b6)*
G04 #@! TF.CreationDate,2018-10-07T14:31:37+09:00*
G04 #@! TF.ProjectId,Z80-CPUB,5A38302D435055422E6B696361645F70,rev?*
G04 #@! TF.SameCoordinates,Original*
G04 #@! TF.FileFunction,Copper,L2,Bot,Signal*
G04 #@! TF.FilePolarity,Positive*
%FSLAX46Y46*%
G04 Gerber Fmt 4.6, Leading zero omitted, Abs format (unit mm)*
G04 Created by KiCad (PCBNEW (5.0.0-3-g5ebb6b6)) date *
%MOMM*%
%LPD*%
G01*
G04 APERTURE LIST*
G04 #@! TA.AperFunction,ComponentPad*
%ADD10C,4.800600*%
G04 #@! TD*
G04 #@! TA.AperFunction,ComponentPad*
%ADD11R,4.800600X4.800600*%
G04 #@! TD*
G04 #@! TA.AperFunction,ComponentPad*
%ADD12C,1.600000*%
G04 #@! TD*
G04 #@! TA.AperFunction,ComponentPad*
%ADD13R,1.200000X1.200000*%
G04 #@! TD*
G04 #@! TA.AperFunction,ComponentPad*
%ADD14C,1.200000*%
G04 #@! TD*
G04 #@! TA.AperFunction,ComponentPad*
%ADD15R,1.600000X1.600000*%
G04 #@! TD*
G04 #@! TA.AperFunction,ComponentPad*
%ADD16R,2.200000X2.200000*%
G04 #@! TD*
G04 #@! TA.AperFunction,ComponentPad*
%ADD17O,2.200000X2.200000*%
G04 #@! TD*
G04 #@! TA.AperFunction,ComponentPad*
%ADD18R,1.727200X1.727200*%
G04 #@! TD*
G04 #@! TA.AperFunction,ComponentPad*
%ADD19O,1.727200X1.727200*%
G04 #@! TD*
G04 #@! TA.AperFunction,ComponentPad*
%ADD20O,1.600000X1.600000*%
G04 #@! TD*
G04 #@! TA.AperFunction,ComponentPad*
%ADD21R,1.900000X1.900000*%
G04 #@! TD*
G04 #@! TA.AperFunction,ComponentPad*
%ADD22C,1.900000*%
G04 #@! TD*
G04 #@! TA.AperFunction,ComponentPad*
%ADD23C,2.000000*%
G04 #@! TD*
G04 #@! TA.AperFunction,ComponentPad*
%ADD24C,1.500000*%
G04 #@! TD*
G04 #@! TA.AperFunction,ComponentPad*
%ADD25R,1.800000X1.800000*%
G04 #@! TD*
G04 #@! TA.AperFunction,ComponentPad*
%ADD26C,1.800000*%
G04 #@! TD*
G04 #@! TA.AperFunction,ViaPad*
%ADD27C,0.889000*%
G04 #@! TD*
G04 #@! TA.AperFunction,Conductor*
%ADD28C,0.609600*%
G04 #@! TD*
G04 #@! TA.AperFunction,Conductor*
%ADD29C,0.203200*%
G04 #@! TD*
G04 #@! TA.AperFunction,Conductor*
%ADD30C,0.254000*%
G04 #@! TD*
G04 APERTURE END LIST*
D10*
G04 #@! TO.P,J2,2*
G04 #@! TO.N,GND*
X86360000Y-124460000D03*
D11*
G04 #@! TO.P,J2,1*
G04 #@! TO.N,Net-(J2-Pad1)*
X86360000Y-118364000D03*
D10*
G04 #@! TO.P,J2,3*
G04 #@! TO.N,Net-(J2-Pad3)*
X91440000Y-122174000D03*
G04 #@! TD*
D12*
G04 #@! TO.P,C1,1*
G04 #@! TO.N,VCC*
X129540000Y-104140000D03*
G04 #@! TO.P,C1,2*
G04 #@! TO.N,GND*
X132040000Y-104140000D03*
G04 #@! TD*
D13*
G04 #@! TO.P,C2,1*
G04 #@! TO.N,Net-(C2-Pad1)*
X87850000Y-102560000D03*
D14*
G04 #@! TO.P,C2,2*
G04 #@! TO.N,GND*
X87850000Y-100560000D03*
G04 #@! TD*
D12*
G04 #@! TO.P,C3,1*
G04 #@! TO.N,VCC*
X105410000Y-86360000D03*
G04 #@! TO.P,C3,2*
G04 #@! TO.N,GND*
X102910000Y-86360000D03*
G04 #@! TD*
G04 #@! TO.P,C4,1*
G04 #@! TO.N,VCC*
X153670000Y-107950000D03*
G04 #@! TO.P,C4,2*
G04 #@! TO.N,GND*
X151170000Y-107950000D03*
G04 #@! TD*
G04 #@! TO.P,C5,1*
G04 #@! TO.N,VCC*
X105410000Y-107950000D03*
G04 #@! TO.P,C5,2*
G04 #@! TO.N,GND*
X102910000Y-107950000D03*
G04 #@! TD*
G04 #@! TO.P,C6,1*
G04 #@! TO.N,Net-(C6-Pad1)*
X73660000Y-87630000D03*
G04 #@! TO.P,C6,2*
G04 #@! TO.N,GND*
X73660000Y-90130000D03*
G04 #@! TD*
G04 #@! TO.P,C7,1*
G04 #@! TO.N,Net-(C7-Pad1)*
X73660000Y-96520000D03*
G04 #@! TO.P,C7,2*
G04 #@! TO.N,GND*
X73660000Y-94020000D03*
G04 #@! TD*
D15*
G04 #@! TO.P,C8,1*
G04 #@! TO.N,VCC*
X73660000Y-121412000D03*
D12*
G04 #@! TO.P,C8,2*
G04 #@! TO.N,GND*
X76160000Y-121412000D03*
G04 #@! TD*
D16*
G04 #@! TO.P,D1,1*
G04 #@! TO.N,VCC*
X84540000Y-113110000D03*
D17*
G04 #@! TO.P,D1,2*
G04 #@! TO.N,Net-(C2-Pad1)*
X94700000Y-113110000D03*
G04 #@! TD*
D18*
G04 #@! TO.P,J1,1*
G04 #@! TO.N,VCC*
X91440000Y-69850000D03*
D19*
G04 #@! TO.P,J1,2*
G04 #@! TO.N,GND*
X91440000Y-67310000D03*
G04 #@! TO.P,J1,3*
G04 #@! TO.N,VCC*
X93980000Y-69850000D03*
G04 #@! TO.P,J1,4*
G04 #@! TO.N,GND*
X93980000Y-67310000D03*
G04 #@! TO.P,J1,5*
G04 #@! TO.N,Net-(J1-Pad5)*
X96520000Y-69850000D03*
G04 #@! TO.P,J1,6*
G04 #@! TO.N,Net-(J1-Pad6)*
X96520000Y-67310000D03*
G04 #@! TO.P,J1,7*
G04 #@! TO.N,Net-(J1-Pad7)*
X99060000Y-69850000D03*
G04 #@! TO.P,J1,8*
G04 #@! TO.N,CLK*
X99060000Y-67310000D03*
G04 #@! TO.P,J1,9*
G04 #@! TO.N,D0*
X101600000Y-69850000D03*
G04 #@! TO.P,J1,10*
G04 #@! TO.N,D1*
X101600000Y-67310000D03*
G04 #@! TO.P,J1,11*
G04 #@! TO.N,D2*
X104140000Y-69850000D03*
G04 #@! TO.P,J1,12*
G04 #@! TO.N,D3*
X104140000Y-67310000D03*
G04 #@! TO.P,J1,13*
G04 #@! TO.N,D4*
X106680000Y-69850000D03*
G04 #@! TO.P,J1,14*
G04 #@! TO.N,D5*
X106680000Y-67310000D03*
G04 #@! TO.P,J1,15*
G04 #@! TO.N,D6*
X109220000Y-69850000D03*
G04 #@! TO.P,J1,16*
G04 #@! TO.N,D7*
X109220000Y-67310000D03*
G04 #@! TO.P,J1,17*
G04 #@! TO.N,~IORD*
X111760000Y-69850000D03*
G04 #@! TO.P,J1,18*
G04 #@! TO.N,~MEMRD*
X111760000Y-67310000D03*
G04 #@! TO.P,J1,19*
G04 #@! TO.N,~IOWR*
X114300000Y-69850000D03*
G04 #@! TO.P,J1,20*
G04 #@! TO.N,~MEMWR*
X114300000Y-67310000D03*
G04 #@! TO.P,J1,21*
G04 #@! TO.N,RES*
X116840000Y-69850000D03*
G04 #@! TO.P,J1,22*
G04 #@! TO.N,Net-(J1-Pad22)*
X116840000Y-67310000D03*
G04 #@! TO.P,J1,23*
G04 #@! TO.N,INT*
X119380000Y-69850000D03*
G04 #@! TO.P,J1,24*
G04 #@! TO.N,Net-(J1-Pad24)*
X119380000Y-67310000D03*
G04 #@! TO.P,J1,25*
G04 #@! TO.N,A0*
X121920000Y-69850000D03*
G04 #@! TO.P,J1,26*
G04 #@! TO.N,A1*
X121920000Y-67310000D03*
G04 #@! TO.P,J1,27*
G04 #@! TO.N,A2*
X124460000Y-69850000D03*
G04 #@! TO.P,J1,28*
G04 #@! TO.N,A3*
X124460000Y-67310000D03*
G04 #@! TO.P,J1,29*
G04 #@! TO.N,A4*
X127000000Y-69850000D03*
G04 #@! TO.P,J1,30*
G04 #@! TO.N,A5*
X127000000Y-67310000D03*
G04 #@! TO.P,J1,31*
G04 #@! TO.N,A6*
X129540000Y-69850000D03*
G04 #@! TO.P,J1,32*
G04 #@! TO.N,A7*
X129540000Y-67310000D03*
G04 #@! TO.P,J1,33*
G04 #@! TO.N,A8*
X132080000Y-69850000D03*
G04 #@! TO.P,J1,34*
G04 #@! TO.N,A9*
X132080000Y-67310000D03*
G04 #@! TO.P,J1,35*
G04 #@! TO.N,A10*
X134620000Y-69850000D03*
G04 #@! TO.P,J1,36*
G04 #@! TO.N,A11*
X134620000Y-67310000D03*
G04 #@! TO.P,J1,37*
G04 #@! TO.N,A12*
X137160000Y-69850000D03*
G04 #@! TO.P,J1,38*
G04 #@! TO.N,A13*
X137160000Y-67310000D03*
G04 #@! TO.P,J1,39*
G04 #@! TO.N,A14*
X139700000Y-69850000D03*
G04 #@! TO.P,J1,40*
G04 #@! TO.N,A15*
X139700000Y-67310000D03*
G04 #@! TD*
D12*
G04 #@! TO.P,R1,1*
G04 #@! TO.N,INT*
X86360000Y-82550000D03*
D20*
G04 #@! TO.P,R1,2*
G04 #@! TO.N,GND*
X93980000Y-82550000D03*
G04 #@! TD*
D12*
G04 #@! TO.P,R2,1*
G04 #@! TO.N,VCC*
X87100000Y-109650000D03*
D20*
G04 #@! TO.P,R2,2*
G04 #@! TO.N,Net-(C2-Pad1)*
X94720000Y-109650000D03*
G04 #@! TD*
D12*
G04 #@! TO.P,R3,1*
G04 #@! TO.N,Net-(R3-Pad1)*
X93980000Y-88900000D03*
D20*
G04 #@! TO.P,R3,2*
G04 #@! TO.N,Net-(C6-Pad1)*
X86360000Y-88900000D03*
G04 #@! TD*
D12*
G04 #@! TO.P,R4,1*
G04 #@! TO.N,Net-(R3-Pad1)*
X93980000Y-93980000D03*
D20*
G04 #@! TO.P,R4,2*
G04 #@! TO.N,Net-(C7-Pad1)*
X86360000Y-93980000D03*
G04 #@! TD*
D15*
G04 #@! TO.P,RN1,1*
G04 #@! TO.N,VCC*
X116840000Y-92710000D03*
D20*
G04 #@! TO.P,RN1,2*
G04 #@! TO.N,D7*
X116840000Y-95250000D03*
G04 #@! TO.P,RN1,3*
G04 #@! TO.N,D6*
X116840000Y-97790000D03*
G04 #@! TO.P,RN1,4*
G04 #@! TO.N,D5*
X116840000Y-100330000D03*
G04 #@! TO.P,RN1,5*
G04 #@! TO.N,D4*
X116840000Y-102870000D03*
G04 #@! TO.P,RN1,6*
G04 #@! TO.N,D3*
X116840000Y-105410000D03*
G04 #@! TO.P,RN1,7*
G04 #@! TO.N,D2*
X116840000Y-107950000D03*
G04 #@! TO.P,RN1,8*
G04 #@! TO.N,D1*
X116840000Y-110490000D03*
G04 #@! TO.P,RN1,9*
G04 #@! TO.N,D0*
X116840000Y-113030000D03*
G04 #@! TD*
D21*
G04 #@! TO.P,ON,1*
G04 #@! TO.N,Net-(S1-Pad1)*
X71120000Y-114300000D03*
D22*
G04 #@! TO.P,ON,2*
G04 #@! TO.N,VCC*
X73620000Y-114300000D03*
G04 #@! TO.P,ON,3*
G04 #@! TO.N,Net-(J2-Pad1)*
X76120000Y-114300000D03*
G04 #@! TD*
D23*
G04 #@! TO.P,RESET SW,2*
G04 #@! TO.N,Net-(C2-Pad1)*
X72800000Y-105280000D03*
G04 #@! TO.P,RESET SW,1*
G04 #@! TO.N,GND*
X72800000Y-100780000D03*
G04 #@! TO.P,RESET SW,2*
G04 #@! TO.N,Net-(C2-Pad1)*
X79300000Y-105280000D03*
G04 #@! TO.P,RESET SW,1*
G04 #@! TO.N,GND*
X79300000Y-100780000D03*
G04 #@! TD*
D20*
G04 #@! TO.P,U1,1*
G04 #@! TO.N,A11*
X123190000Y-78740000D03*
G04 #@! TO.P,U1,2*
G04 #@! TO.N,A12*
X123190000Y-81280000D03*
G04 #@! TO.P,U1,3*
G04 #@! TO.N,A13*
X123190000Y-83820000D03*
G04 #@! TO.P,U1,4*
G04 #@! TO.N,A14*
X123190000Y-86360000D03*
G04 #@! TO.P,U1,5*
G04 #@! TO.N,A15*
X123190000Y-88900000D03*
G04 #@! TO.P,U1,6*
G04 #@! TO.N,CLK*
X123190000Y-91440000D03*
G04 #@! TO.P,U1,7*
G04 #@! TO.N,D4*
X123190000Y-93980000D03*
G04 #@! TO.P,U1,8*
G04 #@! TO.N,D3*
X123190000Y-96520000D03*
G04 #@! TO.P,U1,9*
G04 #@! TO.N,D5*
X123190000Y-99060000D03*
G04 #@! TO.P,U1,10*
G04 #@! TO.N,D6*
X123190000Y-101600000D03*
G04 #@! TO.P,U1,11*
G04 #@! TO.N,VCC*
X123190000Y-104140000D03*
G04 #@! TO.P,U1,12*
G04 #@! TO.N,D2*
X123190000Y-106680000D03*
G04 #@! TO.P,U1,13*
G04 #@! TO.N,D7*
X123190000Y-109220000D03*
G04 #@! TO.P,U1,14*
G04 #@! TO.N,D0*
X123190000Y-111760000D03*
G04 #@! TO.P,U1,15*
G04 #@! TO.N,D1*
X123190000Y-114300000D03*
G04 #@! TO.P,U1,16*
G04 #@! TO.N,/~INT*
X123190000Y-116840000D03*
G04 #@! TO.P,U1,17*
G04 #@! TO.N,VCC*
X123190000Y-119380000D03*
G04 #@! TO.P,U1,18*
G04 #@! TO.N,Net-(U1-Pad18)*
X123190000Y-121920000D03*
G04 #@! TO.P,U1,19*
G04 #@! TO.N,/~MREQ*
X123190000Y-124460000D03*
G04 #@! TO.P,U1,20*
G04 #@! TO.N,/~IOREQ*
X123190000Y-127000000D03*
G04 #@! TO.P,U1,21*
G04 #@! TO.N,/~RD*
X138430000Y-127000000D03*
G04 #@! TO.P,U1,22*
G04 #@! TO.N,/~WR*
X138430000Y-124460000D03*
G04 #@! TO.P,U1,23*
G04 #@! TO.N,Net-(U1-Pad23)*
X138430000Y-121920000D03*
G04 #@! TO.P,U1,24*
G04 #@! TO.N,VCC*
X138430000Y-119380000D03*
G04 #@! TO.P,U1,25*
X138430000Y-116840000D03*
G04 #@! TO.P,U1,26*
G04 #@! TO.N,Net-(U1-Pad26)*
X138430000Y-114300000D03*
G04 #@! TO.P,U1,27*
G04 #@! TO.N,Net-(U1-Pad27)*
X138430000Y-111760000D03*
G04 #@! TO.P,U1,28*
G04 #@! TO.N,Net-(U1-Pad28)*
X138430000Y-109220000D03*
G04 #@! TO.P,U1,29*
G04 #@! TO.N,GND*
X138430000Y-106680000D03*
G04 #@! TO.P,U1,30*
G04 #@! TO.N,A0*
X138430000Y-104140000D03*
G04 #@! TO.P,U1,31*
G04 #@! TO.N,A1*
X138430000Y-101600000D03*
G04 #@! TO.P,U1,32*
G04 #@! TO.N,A2*
X138430000Y-99060000D03*
G04 #@! TO.P,U1,33*
G04 #@! TO.N,A3*
X138430000Y-96520000D03*
G04 #@! TO.P,U1,34*
G04 #@! TO.N,A4*
X138430000Y-93980000D03*
G04 #@! TO.P,U1,35*
G04 #@! TO.N,A5*
X138430000Y-91440000D03*
G04 #@! TO.P,U1,36*
G04 #@! TO.N,A6*
X138430000Y-88900000D03*
G04 #@! TO.P,U1,37*
G04 #@! TO.N,A7*
X138430000Y-86360000D03*
G04 #@! TO.P,U1,38*
G04 #@! TO.N,A8*
X138430000Y-83820000D03*
G04 #@! TO.P,U1,39*
G04 #@! TO.N,A9*
X138430000Y-81280000D03*
G04 #@! TO.P,U1,40*
G04 #@! TO.N,A10*
X138430000Y-78740000D03*
G04 #@! TD*
D15*
G04 #@! TO.P,U2,1*
G04 #@! TO.N,RES*
X100330000Y-110490000D03*
D20*
G04 #@! TO.P,U2,8*
G04 #@! TO.N,Net-(U2-Pad8)*
X107950000Y-125730000D03*
G04 #@! TO.P,U2,2*
G04 #@! TO.N,Net-(U1-Pad26)*
X100330000Y-113030000D03*
G04 #@! TO.P,U2,9*
G04 #@! TO.N,GND*
X107950000Y-123190000D03*
G04 #@! TO.P,U2,3*
G04 #@! TO.N,Net-(C2-Pad1)*
X100330000Y-115570000D03*
G04 #@! TO.P,U2,10*
G04 #@! TO.N,Net-(U2-Pad10)*
X107950000Y-120650000D03*
G04 #@! TO.P,U2,4*
G04 #@! TO.N,RES*
X100330000Y-118110000D03*
G04 #@! TO.P,U2,11*
G04 #@! TO.N,GND*
X107950000Y-118110000D03*
G04 #@! TO.P,U2,5*
X100330000Y-120650000D03*
G04 #@! TO.P,U2,12*
G04 #@! TO.N,Net-(U2-Pad12)*
X107950000Y-115570000D03*
G04 #@! TO.P,U2,6*
G04 #@! TO.N,Net-(U2-Pad6)*
X100330000Y-123190000D03*
G04 #@! TO.P,U2,13*
G04 #@! TO.N,GND*
X107950000Y-113030000D03*
G04 #@! TO.P,U2,7*
X100330000Y-125730000D03*
G04 #@! TO.P,U2,14*
G04 #@! TO.N,VCC*
X107950000Y-110490000D03*
G04 #@! TD*
D15*
G04 #@! TO.P,U3,1*
G04 #@! TO.N,INT*
X100330000Y-88900000D03*
D20*
G04 #@! TO.P,U3,8*
G04 #@! TO.N,Net-(U3-Pad8)*
X107950000Y-104140000D03*
G04 #@! TO.P,U3,2*
G04 #@! TO.N,/~INT*
X100330000Y-91440000D03*
G04 #@! TO.P,U3,9*
G04 #@! TO.N,GND*
X107950000Y-101600000D03*
G04 #@! TO.P,U3,3*
G04 #@! TO.N,Net-(R3-Pad1)*
X100330000Y-93980000D03*
G04 #@! TO.P,U3,10*
G04 #@! TO.N,Net-(U3-Pad10)*
X107950000Y-99060000D03*
G04 #@! TO.P,U3,4*
G04 #@! TO.N,CLK*
X100330000Y-96520000D03*
G04 #@! TO.P,U3,11*
G04 #@! TO.N,GND*
X107950000Y-96520000D03*
G04 #@! TO.P,U3,5*
G04 #@! TO.N,Net-(C7-Pad1)*
X100330000Y-99060000D03*
G04 #@! TO.P,U3,12*
G04 #@! TO.N,Net-(U3-Pad12)*
X107950000Y-93980000D03*
G04 #@! TO.P,U3,6*
G04 #@! TO.N,Net-(R3-Pad1)*
X100330000Y-101600000D03*
G04 #@! TO.P,U3,13*
G04 #@! TO.N,GND*
X107950000Y-91440000D03*
G04 #@! TO.P,U3,7*
X100330000Y-104140000D03*
G04 #@! TO.P,U3,14*
G04 #@! TO.N,VCC*
X107950000Y-88900000D03*
G04 #@! TD*
D15*
G04 #@! TO.P,U4,1*
G04 #@! TO.N,/~RD*
X146050000Y-111760000D03*
D20*
G04 #@! TO.P,U4,8*
G04 #@! TO.N,~IORD*
X153670000Y-127000000D03*
G04 #@! TO.P,U4,2*
G04 #@! TO.N,/~MREQ*
X146050000Y-114300000D03*
G04 #@! TO.P,U4,9*
G04 #@! TO.N,/~RD*
X153670000Y-124460000D03*
G04 #@! TO.P,U4,3*
G04 #@! TO.N,~MEMRD*
X146050000Y-116840000D03*
G04 #@! TO.P,U4,10*
G04 #@! TO.N,/~IOREQ*
X153670000Y-121920000D03*
G04 #@! TO.P,U4,4*
G04 #@! TO.N,/~MREQ*
X146050000Y-119380000D03*
G04 #@! TO.P,U4,11*
G04 #@! TO.N,~IOWR*
X153670000Y-119380000D03*
G04 #@! TO.P,U4,5*
G04 #@! TO.N,/~WR*
X146050000Y-121920000D03*
G04 #@! TO.P,U4,12*
G04 #@! TO.N,/~IOREQ*
X153670000Y-116840000D03*
G04 #@! TO.P,U4,6*
G04 #@! TO.N,~MEMWR*
X146050000Y-124460000D03*
G04 #@! TO.P,U4,13*
G04 #@! TO.N,/~WR*
X153670000Y-114300000D03*
G04 #@! TO.P,U4,7*
G04 #@! TO.N,GND*
X146050000Y-127000000D03*
G04 #@! TO.P,U4,14*
G04 #@! TO.N,VCC*
X153670000Y-111760000D03*
G04 #@! TD*
D24*
G04 #@! TO.P,Y1,1*
G04 #@! TO.N,Net-(C6-Pad1)*
X81280000Y-88900000D03*
G04 #@! TO.P,Y1,2*
G04 #@! TO.N,Net-(C7-Pad1)*
X81280000Y-93780000D03*
G04 #@! TD*
D25*
G04 #@! TO.P,POWER LED,1*
G04 #@! TO.N,Net-(D2-Pad1)*
X76620000Y-76850000D03*
D26*
G04 #@! TO.P,POWER LED,2*
G04 #@! TO.N,VCC*
X74080000Y-76850000D03*
G04 #@! TD*
D12*
G04 #@! TO.P,R5,1*
G04 #@! TO.N,Net-(D2-Pad1)*
X78110000Y-82060000D03*
D20*
G04 #@! TO.P,R5,2*
G04 #@! TO.N,GND*
X70490000Y-82060000D03*
G04 #@! TD*
D27*
G04 #@! TO.N,VCC*
X94000000Y-78120000D03*
G04 #@! TO.N,Net-(C2-Pad1)*
X94720000Y-107420000D03*
X93345000Y-102870000D03*
G04 #@! TO.N,CLK*
X104775000Y-92075000D03*
G04 #@! TO.N,D1*
X109162000Y-90170000D03*
G04 #@! TO.N,~MEMRD*
X150097000Y-115876000D03*
X135700000Y-68769700D03*
G04 #@! TO.N,~IOWR*
X114270000Y-74160000D03*
X136986000Y-74966700D03*
G04 #@! TO.N,A11*
X123458000Y-74088300D03*
G04 #@! TO.N,A12*
X122938000Y-73055300D03*
G04 #@! TO.N,A14*
X120904000Y-74168000D03*
G04 #@! TD*
D28*
G04 #@! TO.N,VCC*
X94000000Y-71091314D02*
X94000000Y-78120000D01*
X93980000Y-69850000D02*
X93980000Y-71071314D01*
X93980000Y-71071314D02*
X94000000Y-71091314D01*
X105410000Y-86360000D02*
X107950000Y-88900000D01*
G04 #@! TO.N,GND*
X90068000Y-77329700D02*
X90068000Y-75750000D01*
X90068000Y-75750000D02*
X90068000Y-68682000D01*
X107950000Y-91440000D02*
X106388000Y-91440000D01*
X106388000Y-95211700D02*
X106388000Y-91440000D01*
X107950000Y-96520000D02*
X106388000Y-95211700D01*
X102910000Y-87708300D02*
X102910000Y-86360000D01*
X106388000Y-91440000D02*
X102910000Y-87708300D01*
X109268000Y-97837900D02*
X107950000Y-96520000D01*
X109268000Y-100282000D02*
X109268000Y-97837900D01*
X107950000Y-101600000D02*
X109268000Y-100282000D01*
X90068000Y-68682000D02*
X91440000Y-67310000D01*
X93980000Y-81241700D02*
X90068000Y-77329700D01*
X93980000Y-82550000D02*
X93980000Y-81241700D01*
X101638000Y-104140000D02*
X102870000Y-105372000D01*
X100330000Y-104140000D02*
X101638000Y-104140000D01*
X102910000Y-105412000D02*
X102870000Y-105372000D01*
X102910000Y-107950000D02*
X102910000Y-105412000D01*
X106642000Y-101600000D02*
X107950000Y-101600000D01*
X102870000Y-105372000D02*
X106642000Y-101600000D01*
X149080000Y-125240000D02*
X149080000Y-109404000D01*
X146050000Y-127000000D02*
X149080000Y-125240000D01*
X150986000Y-109404000D02*
X149080000Y-109404000D01*
X151170000Y-107950000D02*
X150986000Y-109404000D01*
X139738000Y-106680000D02*
X138430000Y-106680000D01*
X142462000Y-109404000D02*
X139738000Y-106680000D01*
X149080000Y-109404000D02*
X142462000Y-109404000D01*
X106641000Y-116801000D02*
X107950000Y-118110000D01*
X106641000Y-114339000D02*
X106641000Y-116801000D01*
X107950000Y-113030000D02*
X106641000Y-114339000D01*
X101644000Y-123190000D02*
X107950000Y-123190000D01*
X101644000Y-121964000D02*
X101644000Y-123190000D01*
X100330000Y-120650000D02*
X101644000Y-121964000D01*
X101644000Y-124416000D02*
X100330000Y-125730000D01*
X101644000Y-123190000D02*
X101644000Y-124416000D01*
G04 #@! TO.N,Net-(C2-Pad1)*
X93345000Y-106045000D02*
X93345000Y-102870000D01*
X94720000Y-107420000D02*
X93345000Y-106045000D01*
D29*
G04 #@! TO.N,CLK*
X101435200Y-94398800D02*
X104775000Y-92075000D01*
X101435200Y-94447800D02*
X101435200Y-94398800D01*
X98696800Y-68478700D02*
X99060000Y-68478700D01*
X97869400Y-69306100D02*
X98696800Y-68478700D01*
X97869400Y-82130900D02*
X97869400Y-69306100D01*
X101435200Y-85696700D02*
X97869400Y-82130900D01*
X101435200Y-94447800D02*
X101435200Y-85696700D01*
X100468100Y-95414900D02*
X101435200Y-94447800D01*
X100330000Y-95414900D02*
X100468100Y-95414900D01*
X100330000Y-96520000D02*
X100330000Y-95414900D01*
X99060000Y-67310000D02*
X99060000Y-68478700D01*
G04 #@! TO.N,D0*
X101600000Y-80232100D02*
X101600000Y-69850000D01*
X109912000Y-88544200D02*
X101600000Y-80232100D01*
X109912000Y-105126000D02*
X109912000Y-88544200D01*
X116712000Y-111925000D02*
X109912000Y-105126000D01*
X116840000Y-111925000D02*
X116712000Y-111925000D01*
X116840000Y-113030000D02*
X116840000Y-111925000D01*
G04 #@! TO.N,D1*
X122085000Y-114300000D02*
X123190000Y-114300000D01*
X118275000Y-110490000D02*
X122085000Y-114300000D01*
X116840000Y-110490000D02*
X118275000Y-110490000D01*
X109162000Y-88549500D02*
X109162000Y-90170000D01*
X100381000Y-79768300D02*
X109162000Y-88549500D01*
X100381000Y-69334200D02*
X100381000Y-79768300D01*
X101237000Y-68478700D02*
X100381000Y-69334200D01*
X101600000Y-68478700D02*
X101237000Y-68478700D01*
X101600000Y-67310000D02*
X101600000Y-68478700D01*
G04 #@! TO.N,D2*
X104140000Y-82010900D02*
X104140000Y-69850000D01*
X110630000Y-88501200D02*
X104140000Y-82010900D01*
X110630000Y-100773000D02*
X110630000Y-88501200D01*
X116702000Y-106845000D02*
X110630000Y-100773000D01*
X116840000Y-106845000D02*
X116702000Y-106845000D01*
X116840000Y-107950000D02*
X116840000Y-106845000D01*
G04 #@! TO.N,D3*
X116840000Y-104305000D02*
X116840000Y-104857000D01*
X117069000Y-104305000D02*
X116840000Y-104305000D01*
X122085000Y-99289000D02*
X117069000Y-104305000D01*
X122085000Y-98591900D02*
X122085000Y-99289000D01*
X123052000Y-97625100D02*
X122085000Y-98591900D01*
X123190000Y-97625100D02*
X123052000Y-97625100D01*
X123190000Y-96520000D02*
X123190000Y-97625100D01*
X111120000Y-99137600D02*
X116840000Y-104857000D01*
X111120000Y-87175800D02*
X111120000Y-99137600D01*
X105410000Y-81465600D02*
X111120000Y-87175800D01*
X105410000Y-69385500D02*
X105410000Y-81465600D01*
X104503000Y-68478700D02*
X105410000Y-69385500D01*
X104140000Y-68478700D02*
X104503000Y-68478700D01*
X104140000Y-67310000D02*
X104140000Y-68478700D01*
X116840000Y-105410000D02*
X116840000Y-104857000D01*
G04 #@! TO.N,D4*
X116840000Y-102870000D02*
X116840000Y-102438000D01*
X123190000Y-95085100D02*
X123190000Y-93980000D01*
X123052000Y-95085100D02*
X123190000Y-95085100D01*
X122085000Y-96051900D02*
X123052000Y-95085100D01*
X122085000Y-96749000D02*
X122085000Y-96051900D01*
X117069000Y-101765000D02*
X122085000Y-96749000D01*
X116840000Y-101765000D02*
X117069000Y-101765000D01*
X116840000Y-102438000D02*
X116840000Y-101765000D01*
X106680000Y-81366700D02*
X106680000Y-69850000D01*
X111527000Y-86213700D02*
X106680000Y-81366700D01*
X111527000Y-97124800D02*
X111527000Y-86213700D01*
X116840000Y-102438000D02*
X111527000Y-97124800D01*
G04 #@! TO.N,D5*
X116840000Y-99224900D02*
X116840000Y-100330000D01*
X116702000Y-99224900D02*
X116840000Y-99224900D01*
X111934000Y-94456800D02*
X116702000Y-99224900D01*
X111934000Y-84844700D02*
X111934000Y-94456800D01*
X107950000Y-80860900D02*
X111934000Y-84844700D01*
X107950000Y-69385500D02*
X107950000Y-80860900D01*
X107043000Y-68478700D02*
X107950000Y-69385500D01*
X106680000Y-68478700D02*
X107043000Y-68478700D01*
X106680000Y-67310000D02*
X106680000Y-68478700D01*
G04 #@! TO.N,D6*
X109220000Y-81332600D02*
X109220000Y-69850000D01*
X113460000Y-85573100D02*
X109220000Y-81332600D01*
X113460000Y-93443500D02*
X113460000Y-85573100D01*
X116702000Y-96684900D02*
X113460000Y-93443500D01*
X116840000Y-96684900D02*
X116702000Y-96684900D01*
X116840000Y-97790000D02*
X116840000Y-96684900D01*
G04 #@! TO.N,D7*
X116840000Y-94144900D02*
X116840000Y-95250000D01*
X116236000Y-94144900D02*
X116840000Y-94144900D01*
X115735000Y-93644200D02*
X116236000Y-94144900D01*
X115735000Y-86642300D02*
X115735000Y-93644200D01*
X110591000Y-81498600D02*
X115735000Y-86642300D01*
X110591000Y-69486700D02*
X110591000Y-81498600D01*
X109583000Y-68478700D02*
X110591000Y-69486700D01*
X109220000Y-68478700D02*
X109583000Y-68478700D01*
X109220000Y-67310000D02*
X109220000Y-68478700D01*
G04 #@! TO.N,~IORD*
X111760000Y-81586200D02*
X111760000Y-69850000D01*
X122884000Y-92710000D02*
X111760000Y-81586200D01*
X123490000Y-92710000D02*
X122884000Y-92710000D01*
X135327000Y-104547000D02*
X123490000Y-92710000D01*
X135327000Y-107691000D02*
X135327000Y-104547000D01*
X138126000Y-110490000D02*
X135327000Y-107691000D01*
X138736000Y-110490000D02*
X138126000Y-110490000D01*
X139940000Y-111694000D02*
X138736000Y-110490000D01*
X139940000Y-122531000D02*
X139940000Y-111694000D01*
X145538000Y-128129000D02*
X139940000Y-122531000D01*
X151436000Y-128129000D02*
X145538000Y-128129000D01*
X152565000Y-127000000D02*
X151436000Y-128129000D01*
X153670000Y-127000000D02*
X152565000Y-127000000D01*
G04 #@! TO.N,~MEMRD*
X135991000Y-69060700D02*
X135700000Y-68769700D01*
X135991000Y-70334100D02*
X135991000Y-69060700D01*
X154777000Y-89119700D02*
X135991000Y-70334100D01*
X154777000Y-119841000D02*
X154777000Y-89119700D01*
X154120000Y-120499000D02*
X154777000Y-119841000D01*
X153189000Y-120499000D02*
X154120000Y-120499000D01*
X150097000Y-117406000D02*
X153189000Y-120499000D01*
X150097000Y-115876000D02*
X150097000Y-117406000D01*
G04 #@! TO.N,~IOWR*
X114300000Y-74130000D02*
X114270000Y-74160000D01*
X114300000Y-69850000D02*
X114300000Y-74130000D01*
X153670000Y-119380000D02*
X153670000Y-118275000D01*
X153670000Y-118275000D02*
X153532000Y-118275000D01*
X153532000Y-118275000D02*
X152565000Y-117308000D01*
X152565000Y-117308000D02*
X152565000Y-90545500D01*
X152565000Y-90545500D02*
X136986000Y-74966700D01*
G04 #@! TO.N,~MEMWR*
X146050000Y-123355000D02*
X146050000Y-124460000D01*
X145912000Y-123355000D02*
X146050000Y-123355000D01*
X144945000Y-122388000D02*
X145912000Y-123355000D01*
X144945000Y-114110000D02*
X144945000Y-122388000D01*
X138785000Y-107950000D02*
X144945000Y-114110000D01*
X138075000Y-107950000D02*
X138785000Y-107950000D01*
X137015000Y-106890000D02*
X138075000Y-107950000D01*
X137015000Y-103681000D02*
X137015000Y-106890000D01*
X123505000Y-90170000D02*
X137015000Y-103681000D01*
X122828000Y-90170000D02*
X123505000Y-90170000D01*
X115671000Y-83013500D02*
X122828000Y-90170000D01*
X115671000Y-69486700D02*
X115671000Y-83013500D01*
X114663000Y-68478700D02*
X115671000Y-69486700D01*
X114300000Y-68478700D02*
X114663000Y-68478700D01*
X114300000Y-67310000D02*
X114300000Y-68478700D01*
G04 #@! TO.N,RES*
X100330000Y-110490000D02*
X99695000Y-110490000D01*
X99695000Y-110490000D02*
X98425000Y-111760000D01*
X98425000Y-116205000D02*
X100330000Y-118110000D01*
X98425000Y-111760000D02*
X98425000Y-116205000D01*
X100330000Y-109385000D02*
X100330000Y-110490000D01*
X95346300Y-104401000D02*
X100330000Y-109385000D01*
X95346300Y-66815400D02*
X95346300Y-104401000D01*
X96510400Y-65651300D02*
X95346300Y-66815400D01*
X114324000Y-65651300D02*
X96510400Y-65651300D01*
X115570000Y-66896800D02*
X114324000Y-65651300D01*
X115570000Y-67774500D02*
X115570000Y-66896800D01*
X116477000Y-68681300D02*
X115570000Y-67774500D01*
X116840000Y-68681300D02*
X116477000Y-68681300D01*
X116840000Y-69850000D02*
X116840000Y-68681300D01*
X100330000Y-110325000D02*
X100192000Y-110325000D01*
X100330000Y-110490000D02*
X100330000Y-110325000D01*
G04 #@! TO.N,A0*
X121920000Y-71018700D02*
X121920000Y-69850000D01*
X121962000Y-71018700D02*
X121920000Y-71018700D01*
X124537000Y-73593700D02*
X121962000Y-71018700D01*
X124537000Y-89279700D02*
X124537000Y-73593700D01*
X138292000Y-103035000D02*
X124537000Y-89279700D01*
X138430000Y-103035000D02*
X138292000Y-103035000D01*
X138430000Y-104140000D02*
X138430000Y-103035000D01*
G04 #@! TO.N,A1*
X138430000Y-100495000D02*
X138430000Y-101600000D01*
X138292000Y-100495000D02*
X138430000Y-100495000D01*
X125120000Y-87322900D02*
X138292000Y-100495000D01*
X125120000Y-73106500D02*
X125120000Y-87322900D01*
X123190000Y-71176600D02*
X125120000Y-73106500D01*
X123190000Y-69385500D02*
X123190000Y-71176600D01*
X122283000Y-68478700D02*
X123190000Y-69385500D01*
X121920000Y-68478700D02*
X122283000Y-68478700D01*
X121920000Y-67310000D02*
X121920000Y-68478700D01*
G04 #@! TO.N,A2*
X138430000Y-97954900D02*
X138430000Y-99060000D01*
X138292000Y-97954900D02*
X138430000Y-97954900D01*
X125527000Y-85189700D02*
X138292000Y-97954900D01*
X125527000Y-72085400D02*
X125527000Y-85189700D01*
X124460000Y-71018700D02*
X125527000Y-72085400D01*
X124460000Y-69850000D02*
X124460000Y-71018700D01*
G04 #@! TO.N,A3*
X138430000Y-95414900D02*
X138430000Y-96520000D01*
X138292000Y-95414900D02*
X138430000Y-95414900D01*
X125959000Y-83081600D02*
X138292000Y-95414900D01*
X125959000Y-71405300D02*
X125959000Y-83081600D01*
X125730000Y-71176700D02*
X125959000Y-71405300D01*
X125730000Y-69385500D02*
X125730000Y-71176700D01*
X124823000Y-68478700D02*
X125730000Y-69385500D01*
X124460000Y-68478700D02*
X124823000Y-68478700D01*
X124460000Y-67310000D02*
X124460000Y-68478700D01*
G04 #@! TO.N,A4*
X127000000Y-81583000D02*
X127000000Y-69850000D01*
X138292000Y-92874900D02*
X127000000Y-81583000D01*
X138430000Y-92874900D02*
X138292000Y-92874900D01*
X138430000Y-93980000D02*
X138430000Y-92874900D01*
G04 #@! TO.N,A5*
X138430000Y-90334900D02*
X138430000Y-91440000D01*
X138292000Y-90334900D02*
X138430000Y-90334900D01*
X128270000Y-80313000D02*
X138292000Y-90334900D01*
X128270000Y-69385500D02*
X128270000Y-80313000D01*
X127363000Y-68478700D02*
X128270000Y-69385500D01*
X127000000Y-68478700D02*
X127363000Y-68478700D01*
X127000000Y-67310000D02*
X127000000Y-68478700D01*
G04 #@! TO.N,A6*
X129540000Y-79043000D02*
X129540000Y-69850000D01*
X138292000Y-87794900D02*
X129540000Y-79043000D01*
X138430000Y-87794900D02*
X138292000Y-87794900D01*
X138430000Y-88900000D02*
X138430000Y-87794900D01*
G04 #@! TO.N,A7*
X138430000Y-85254900D02*
X138430000Y-86360000D01*
X138292000Y-85254900D02*
X138430000Y-85254900D01*
X130810000Y-77773000D02*
X138292000Y-85254900D01*
X130810000Y-69385500D02*
X130810000Y-77773000D01*
X129903000Y-68478700D02*
X130810000Y-69385500D01*
X129540000Y-68478700D02*
X129903000Y-68478700D01*
X129540000Y-67310000D02*
X129540000Y-68478700D01*
G04 #@! TO.N,A8*
X132080000Y-76503000D02*
X132080000Y-69850000D01*
X138292000Y-82714900D02*
X132080000Y-76503000D01*
X138430000Y-82714900D02*
X138292000Y-82714900D01*
X138430000Y-83820000D02*
X138430000Y-82714900D01*
G04 #@! TO.N,A9*
X138430000Y-80174900D02*
X138430000Y-81280000D01*
X138292000Y-80174900D02*
X138430000Y-80174900D01*
X133350000Y-75233000D02*
X138292000Y-80174900D01*
X133350000Y-69385500D02*
X133350000Y-75233000D01*
X132443000Y-68478700D02*
X133350000Y-69385500D01*
X132080000Y-68478700D02*
X132443000Y-68478700D01*
X132080000Y-67310000D02*
X132080000Y-68478700D01*
G04 #@! TO.N,A10*
X134620000Y-73824900D02*
X134620000Y-69850000D01*
X138430000Y-77634900D02*
X134620000Y-73824900D01*
X138430000Y-78740000D02*
X138430000Y-77634900D01*
G04 #@! TO.N,A11*
X123190000Y-74356000D02*
X123190000Y-78740000D01*
X123458000Y-74088300D02*
X123190000Y-74356000D01*
G04 #@! TO.N,A12*
X122204000Y-73789500D02*
X122938000Y-73055300D01*
X122204000Y-74708200D02*
X122204000Y-73789500D01*
X122056000Y-74856400D02*
X122204000Y-74708200D01*
X122056000Y-79178700D02*
X122056000Y-74856400D01*
X123052000Y-80174900D02*
X122056000Y-79178700D01*
X123190000Y-80174900D02*
X123052000Y-80174900D01*
X123190000Y-81280000D02*
X123190000Y-80174900D01*
G04 #@! TO.N,A13*
X135991000Y-67310000D02*
X137160000Y-67310000D01*
X135991000Y-67017800D02*
X135991000Y-67310000D01*
X135110000Y-66136000D02*
X135991000Y-67017800D01*
X121426000Y-66136000D02*
X135110000Y-66136000D01*
X120714000Y-66848200D02*
X121426000Y-66136000D01*
X120714000Y-72835400D02*
X120714000Y-66848200D01*
X121797000Y-73918600D02*
X120714000Y-72835400D01*
X121797000Y-74539700D02*
X121797000Y-73918600D01*
X121610000Y-74727000D02*
X121797000Y-74539700D01*
X121610000Y-81273000D02*
X121610000Y-74727000D01*
X123052000Y-82714900D02*
X121610000Y-81273000D01*
X123190000Y-82714900D02*
X123052000Y-82714900D01*
X123190000Y-83820000D02*
X123190000Y-82714900D01*
G04 #@! TO.N,A14*
X121048000Y-83250600D02*
X120904000Y-74168000D01*
X123052000Y-85254900D02*
X121048000Y-83250600D01*
X123190000Y-85254900D02*
X123052000Y-85254900D01*
X123190000Y-86360000D02*
X123190000Y-85254900D01*
G04 #@! TO.N,A15*
X123190000Y-87794900D02*
X123190000Y-88900000D01*
X123052000Y-87794900D02*
X123190000Y-87794900D01*
X118197000Y-82940300D02*
X123052000Y-87794900D01*
X118197000Y-66835400D02*
X118197000Y-82940300D01*
X119317000Y-65715400D02*
X118197000Y-66835400D01*
X137300000Y-65715400D02*
X119317000Y-65715400D01*
X138531000Y-66946800D02*
X137300000Y-65715400D01*
X138531000Y-67310000D02*
X138531000Y-66946800D01*
X139700000Y-67310000D02*
X138531000Y-67310000D01*
G04 #@! TO.N,Net-(R3-Pad1)*
X93980000Y-93980000D02*
X93980000Y-88900000D01*
G04 #@! TO.N,/~INT*
X119036000Y-116840000D02*
X123190000Y-116840000D01*
X110724000Y-108528000D02*
X119036000Y-116840000D01*
X106642000Y-108528000D02*
X110724000Y-108528000D01*
X106090000Y-109080000D02*
X106642000Y-108528000D01*
X102468000Y-109080000D02*
X106090000Y-109080000D01*
X99162600Y-105775000D02*
X102468000Y-109080000D01*
X99162600Y-93574400D02*
X99162600Y-105775000D01*
X100192000Y-92545100D02*
X99162600Y-93574400D01*
X100330000Y-92545100D02*
X100192000Y-92545100D01*
X100330000Y-91440000D02*
X100330000Y-92545100D01*
G04 #@! TO.N,/~MREQ*
X146050000Y-118275000D02*
X146050000Y-119380000D01*
X146188000Y-118275000D02*
X146050000Y-118275000D01*
X147157000Y-117306000D02*
X146188000Y-118275000D01*
X147157000Y-116283000D02*
X147157000Y-117306000D01*
X146279000Y-115405000D02*
X147157000Y-116283000D01*
X146050000Y-115405000D02*
X146279000Y-115405000D01*
X146050000Y-114300000D02*
X146050000Y-115405000D01*
G04 #@! TD*
D30*
G04 #@! TO.N,GND*
G36*
X162433000Y-130683000D02*
X66167000Y-130683000D01*
X66167000Y-127130431D01*
X67565000Y-127130431D01*
X67565000Y-128019569D01*
X67905259Y-128841026D01*
X68533974Y-129469741D01*
X69355431Y-129810000D01*
X70244569Y-129810000D01*
X71066026Y-129469741D01*
X71694741Y-128841026D01*
X72035000Y-128019569D01*
X72035000Y-127130431D01*
X71825203Y-126623936D01*
X84375670Y-126623936D01*
X84645221Y-127036257D01*
X85761642Y-127496369D01*
X86969157Y-127494221D01*
X88074779Y-127036257D01*
X88344330Y-126623936D01*
X86360000Y-124639605D01*
X84375670Y-126623936D01*
X71825203Y-126623936D01*
X71694741Y-126308974D01*
X71066026Y-125680259D01*
X70244569Y-125340000D01*
X69355431Y-125340000D01*
X68533974Y-125680259D01*
X67905259Y-126308974D01*
X67565000Y-127130431D01*
X66167000Y-127130431D01*
X66167000Y-123861642D01*
X83323631Y-123861642D01*
X83325779Y-125069157D01*
X83783743Y-126174779D01*
X84196064Y-126444330D01*
X86180395Y-124460000D01*
X84196064Y-122475670D01*
X83783743Y-122745221D01*
X83323631Y-123861642D01*
X66167000Y-123861642D01*
X66167000Y-120612000D01*
X72212560Y-120612000D01*
X72212560Y-122212000D01*
X72261843Y-122459765D01*
X72402191Y-122669809D01*
X72612235Y-122810157D01*
X72860000Y-122859440D01*
X74460000Y-122859440D01*
X74707765Y-122810157D01*
X74917809Y-122669809D01*
X75058157Y-122459765D01*
X75066117Y-122419745D01*
X75331861Y-122419745D01*
X75405995Y-122665864D01*
X75943223Y-122858965D01*
X76513454Y-122831778D01*
X76914005Y-122665864D01*
X76988139Y-122419745D01*
X76160000Y-121591605D01*
X75331861Y-122419745D01*
X75066117Y-122419745D01*
X75104693Y-122225813D01*
X75152255Y-122240139D01*
X75980395Y-121412000D01*
X76339605Y-121412000D01*
X77167745Y-122240139D01*
X77413864Y-122166005D01*
X77606965Y-121628777D01*
X77579778Y-121058546D01*
X77413864Y-120657995D01*
X77167745Y-120583861D01*
X76339605Y-121412000D01*
X75980395Y-121412000D01*
X75152255Y-120583861D01*
X75104693Y-120598187D01*
X75066118Y-120404255D01*
X75331861Y-120404255D01*
X76160000Y-121232395D01*
X76988139Y-120404255D01*
X76914005Y-120158136D01*
X76376777Y-119965035D01*
X75806546Y-119992222D01*
X75405995Y-120158136D01*
X75331861Y-120404255D01*
X75066118Y-120404255D01*
X75058157Y-120364235D01*
X74917809Y-120154191D01*
X74707765Y-120013843D01*
X74460000Y-119964560D01*
X72860000Y-119964560D01*
X72612235Y-120013843D01*
X72402191Y-120154191D01*
X72261843Y-120364235D01*
X72212560Y-120612000D01*
X66167000Y-120612000D01*
X66167000Y-115963700D01*
X83312260Y-115963700D01*
X83312260Y-120764300D01*
X83361543Y-121012065D01*
X83501891Y-121222109D01*
X83711935Y-121362457D01*
X83959700Y-121411740D01*
X88470353Y-121411740D01*
X88404700Y-121570241D01*
X88404700Y-122235692D01*
X88344329Y-122296063D01*
X88074779Y-121883743D01*
X86958358Y-121423631D01*
X85750843Y-121425779D01*
X84645221Y-121883743D01*
X84375670Y-122296064D01*
X86360000Y-124280395D01*
X86374142Y-124266252D01*
X86553748Y-124445858D01*
X86539605Y-124460000D01*
X88523936Y-126444330D01*
X88936257Y-126174779D01*
X88975714Y-126079039D01*
X98938096Y-126079039D01*
X99098959Y-126467423D01*
X99474866Y-126882389D01*
X99980959Y-127121914D01*
X100203000Y-127000629D01*
X100203000Y-125857000D01*
X100457000Y-125857000D01*
X100457000Y-127000629D01*
X100679041Y-127121914D01*
X101185134Y-126882389D01*
X101561041Y-126467423D01*
X101721904Y-126079039D01*
X101599915Y-125857000D01*
X100457000Y-125857000D01*
X100203000Y-125857000D01*
X99060085Y-125857000D01*
X98938096Y-126079039D01*
X88975714Y-126079039D01*
X89119564Y-125730000D01*
X106486887Y-125730000D01*
X106598260Y-126289909D01*
X106915423Y-126764577D01*
X107390091Y-127081740D01*
X107808667Y-127165000D01*
X108091333Y-127165000D01*
X108509909Y-127081740D01*
X108984577Y-126764577D01*
X109301740Y-126289909D01*
X109413113Y-125730000D01*
X109301740Y-125170091D01*
X108984577Y-124695423D01*
X108600892Y-124439053D01*
X108805134Y-124342389D01*
X109181041Y-123927423D01*
X109341904Y-123539039D01*
X109219915Y-123317000D01*
X108077000Y-123317000D01*
X108077000Y-123337000D01*
X107823000Y-123337000D01*
X107823000Y-123317000D01*
X106680085Y-123317000D01*
X106558096Y-123539039D01*
X106718959Y-123927423D01*
X107094866Y-124342389D01*
X107299108Y-124439053D01*
X106915423Y-124695423D01*
X106598260Y-125170091D01*
X106486887Y-125730000D01*
X89119564Y-125730000D01*
X89396369Y-125058358D01*
X89395237Y-124421799D01*
X89720641Y-124747203D01*
X90836241Y-125209300D01*
X92043759Y-125209300D01*
X93159359Y-124747203D01*
X94013203Y-123893359D01*
X94304544Y-123190000D01*
X98866887Y-123190000D01*
X98978260Y-123749909D01*
X99295423Y-124224577D01*
X99679108Y-124480947D01*
X99474866Y-124577611D01*
X99098959Y-124992577D01*
X98938096Y-125380961D01*
X99060085Y-125603000D01*
X100203000Y-125603000D01*
X100203000Y-125583000D01*
X100457000Y-125583000D01*
X100457000Y-125603000D01*
X101599915Y-125603000D01*
X101721904Y-125380961D01*
X101561041Y-124992577D01*
X101185134Y-124577611D01*
X100980892Y-124480947D01*
X101364577Y-124224577D01*
X101681740Y-123749909D01*
X101793113Y-123190000D01*
X101681740Y-122630091D01*
X101364577Y-122155423D01*
X100980892Y-121899053D01*
X101185134Y-121802389D01*
X101561041Y-121387423D01*
X101721904Y-120999039D01*
X101599915Y-120777000D01*
X100457000Y-120777000D01*
X100457000Y-120797000D01*
X100203000Y-120797000D01*
X100203000Y-120777000D01*
X99060085Y-120777000D01*
X98938096Y-120999039D01*
X99098959Y-121387423D01*
X99474866Y-121802389D01*
X99679108Y-121899053D01*
X99295423Y-122155423D01*
X98978260Y-122630091D01*
X98866887Y-123190000D01*
X94304544Y-123190000D01*
X94475300Y-122777759D01*
X94475300Y-121570241D01*
X94094124Y-120650000D01*
X106486887Y-120650000D01*
X106598260Y-121209909D01*
X106915423Y-121684577D01*
X107299108Y-121940947D01*
X107094866Y-122037611D01*
X106718959Y-122452577D01*
X106558096Y-122840961D01*
X106680085Y-123063000D01*
X107823000Y-123063000D01*
X107823000Y-123043000D01*
X108077000Y-123043000D01*
X108077000Y-123063000D01*
X109219915Y-123063000D01*
X109341904Y-122840961D01*
X109181041Y-122452577D01*
X108805134Y-122037611D01*
X108600892Y-121940947D01*
X108984577Y-121684577D01*
X109301740Y-121209909D01*
X109413113Y-120650000D01*
X109301740Y-120090091D01*
X108984577Y-119615423D01*
X108600892Y-119359053D01*
X108805134Y-119262389D01*
X109181041Y-118847423D01*
X109341904Y-118459039D01*
X109219915Y-118237000D01*
X108077000Y-118237000D01*
X108077000Y-118257000D01*
X107823000Y-118257000D01*
X107823000Y-118237000D01*
X106680085Y-118237000D01*
X106558096Y-118459039D01*
X106718959Y-118847423D01*
X107094866Y-119262389D01*
X107299108Y-119359053D01*
X106915423Y-119615423D01*
X106598260Y-120090091D01*
X106486887Y-120650000D01*
X94094124Y-120650000D01*
X94013203Y-120454641D01*
X93159359Y-119600797D01*
X92043759Y-119138700D01*
X90836241Y-119138700D01*
X89720641Y-119600797D01*
X89407740Y-119913698D01*
X89407740Y-115963700D01*
X89358457Y-115715935D01*
X89218109Y-115505891D01*
X89008065Y-115365543D01*
X88760300Y-115316260D01*
X83959700Y-115316260D01*
X83711935Y-115365543D01*
X83501891Y-115505891D01*
X83361543Y-115715935D01*
X83312260Y-115963700D01*
X66167000Y-115963700D01*
X66167000Y-113350000D01*
X69522560Y-113350000D01*
X69522560Y-115250000D01*
X69571843Y-115497765D01*
X69712191Y-115707809D01*
X69922235Y-115848157D01*
X70170000Y-115897440D01*
X72070000Y-115897440D01*
X72317765Y-115848157D01*
X72527809Y-115707809D01*
X72631339Y-115552867D01*
X72722170Y-115643698D01*
X73304724Y-115885000D01*
X73935276Y-115885000D01*
X74517830Y-115643698D01*
X74870000Y-115291528D01*
X75222170Y-115643698D01*
X75804724Y-115885000D01*
X76435276Y-115885000D01*
X77017830Y-115643698D01*
X77463698Y-115197830D01*
X77705000Y-114615276D01*
X77705000Y-113984724D01*
X77463698Y-113402170D01*
X77017830Y-112956302D01*
X76435276Y-112715000D01*
X75804724Y-112715000D01*
X75222170Y-112956302D01*
X74870000Y-113308472D01*
X74517830Y-112956302D01*
X73935276Y-112715000D01*
X73304724Y-112715000D01*
X72722170Y-112956302D01*
X72631339Y-113047133D01*
X72527809Y-112892191D01*
X72317765Y-112751843D01*
X72070000Y-112702560D01*
X70170000Y-112702560D01*
X69922235Y-112751843D01*
X69712191Y-112892191D01*
X69571843Y-113102235D01*
X69522560Y-113350000D01*
X66167000Y-113350000D01*
X66167000Y-112010000D01*
X82792560Y-112010000D01*
X82792560Y-114210000D01*
X82841843Y-114457765D01*
X82982191Y-114667809D01*
X83192235Y-114808157D01*
X83440000Y-114857440D01*
X85640000Y-114857440D01*
X85887765Y-114808157D01*
X86097809Y-114667809D01*
X86238157Y-114457765D01*
X86287440Y-114210000D01*
X86287440Y-113110000D01*
X92931010Y-113110000D01*
X93065666Y-113786963D01*
X93449135Y-114360865D01*
X94023037Y-114744334D01*
X94529120Y-114845000D01*
X94870880Y-114845000D01*
X95376963Y-114744334D01*
X95950865Y-114360865D01*
X96334334Y-113786963D01*
X96468990Y-113110000D01*
X96334334Y-112433037D01*
X95950865Y-111859135D01*
X95376963Y-111475666D01*
X94870880Y-111375000D01*
X94529120Y-111375000D01*
X94023037Y-111475666D01*
X93449135Y-111859135D01*
X93065666Y-112433037D01*
X92931010Y-113110000D01*
X86287440Y-113110000D01*
X86287440Y-112010000D01*
X86238157Y-111762235D01*
X86097809Y-111552191D01*
X85887765Y-111411843D01*
X85640000Y-111362560D01*
X83440000Y-111362560D01*
X83192235Y-111411843D01*
X82982191Y-111552191D01*
X82841843Y-111762235D01*
X82792560Y-112010000D01*
X66167000Y-112010000D01*
X66167000Y-109364561D01*
X85665000Y-109364561D01*
X85665000Y-109935439D01*
X85883466Y-110462862D01*
X86287138Y-110866534D01*
X86814561Y-111085000D01*
X87385439Y-111085000D01*
X87912862Y-110866534D01*
X88316534Y-110462862D01*
X88535000Y-109935439D01*
X88535000Y-109364561D01*
X88316534Y-108837138D01*
X87912862Y-108433466D01*
X87385439Y-108215000D01*
X86814561Y-108215000D01*
X86287138Y-108433466D01*
X85883466Y-108837138D01*
X85665000Y-109364561D01*
X66167000Y-109364561D01*
X66167000Y-104954778D01*
X71165000Y-104954778D01*
X71165000Y-105605222D01*
X71413914Y-106206153D01*
X71873847Y-106666086D01*
X72474778Y-106915000D01*
X73125222Y-106915000D01*
X73726153Y-106666086D01*
X74186086Y-106206153D01*
X74435000Y-105605222D01*
X74435000Y-104954778D01*
X77665000Y-104954778D01*
X77665000Y-105605222D01*
X77913914Y-106206153D01*
X78373847Y-106666086D01*
X78974778Y-106915000D01*
X79625222Y-106915000D01*
X80226153Y-106666086D01*
X80686086Y-106206153D01*
X80935000Y-105605222D01*
X80935000Y-104954778D01*
X80686086Y-104353847D01*
X80226153Y-103893914D01*
X79625222Y-103645000D01*
X78974778Y-103645000D01*
X78373847Y-103893914D01*
X77913914Y-104353847D01*
X77665000Y-104954778D01*
X74435000Y-104954778D01*
X74186086Y-104353847D01*
X73726153Y-103893914D01*
X73125222Y-103645000D01*
X72474778Y-103645000D01*
X71873847Y-103893914D01*
X71413914Y-104353847D01*
X71165000Y-104954778D01*
X66167000Y-104954778D01*
X66167000Y-101932532D01*
X71827073Y-101932532D01*
X71925736Y-102199387D01*
X72535461Y-102425908D01*
X73185460Y-102401856D01*
X73674264Y-102199387D01*
X73772927Y-101932532D01*
X78327073Y-101932532D01*
X78425736Y-102199387D01*
X79035461Y-102425908D01*
X79685460Y-102401856D01*
X80174264Y-102199387D01*
X80272927Y-101932532D01*
X79300000Y-100959605D01*
X78327073Y-101932532D01*
X73772927Y-101932532D01*
X72800000Y-100959605D01*
X71827073Y-101932532D01*
X66167000Y-101932532D01*
X66167000Y-100515461D01*
X71154092Y-100515461D01*
X71178144Y-101165460D01*
X71380613Y-101654264D01*
X71647468Y-101752927D01*
X72620395Y-100780000D01*
X72979605Y-100780000D01*
X73952532Y-101752927D01*
X74219387Y-101654264D01*
X74445908Y-101044539D01*
X74426331Y-100515461D01*
X77654092Y-100515461D01*
X77678144Y-101165460D01*
X77880613Y-101654264D01*
X78147468Y-101752927D01*
X79120395Y-100780000D01*
X79479605Y-100780000D01*
X80452532Y-101752927D01*
X80719387Y-101654264D01*
X80945908Y-101044539D01*
X80921856Y-100394540D01*
X80920405Y-100391036D01*
X86602193Y-100391036D01*
X86632518Y-100881413D01*
X86761836Y-101193617D01*
X86987263Y-101243129D01*
X86871570Y-101358822D01*
X86925718Y-101412970D01*
X86792191Y-101502191D01*
X86651843Y-101712235D01*
X86602560Y-101960000D01*
X86602560Y-103160000D01*
X86651843Y-103407765D01*
X86792191Y-103617809D01*
X87002235Y-103758157D01*
X87250000Y-103807440D01*
X88450000Y-103807440D01*
X88697765Y-103758157D01*
X88907809Y-103617809D01*
X89048157Y-103407765D01*
X89097440Y-103160000D01*
X89097440Y-102655274D01*
X92265500Y-102655274D01*
X92265500Y-103084726D01*
X92405201Y-103421994D01*
X92405200Y-105952446D01*
X92386790Y-106045000D01*
X92405200Y-106137554D01*
X92405200Y-106137558D01*
X92459728Y-106411690D01*
X92459729Y-106411691D01*
X92459729Y-106411692D01*
X92554148Y-106553000D01*
X92667443Y-106722557D01*
X92745910Y-106774987D01*
X93665144Y-107694222D01*
X93804844Y-108031488D01*
X94107054Y-108333698D01*
X93685423Y-108615423D01*
X93368260Y-109090091D01*
X93256887Y-109650000D01*
X93368260Y-110209909D01*
X93685423Y-110684577D01*
X94160091Y-111001740D01*
X94578667Y-111085000D01*
X94861333Y-111085000D01*
X95279909Y-111001740D01*
X95754577Y-110684577D01*
X96071740Y-110209909D01*
X96183113Y-109650000D01*
X96071740Y-109090091D01*
X95754577Y-108615423D01*
X95332946Y-108333698D01*
X95635156Y-108031488D01*
X95799500Y-107634726D01*
X95799500Y-107205274D01*
X95635156Y-106808512D01*
X95331488Y-106504844D01*
X94994222Y-106365144D01*
X94284800Y-105655723D01*
X94284800Y-103421992D01*
X94424500Y-103084726D01*
X94424500Y-102655274D01*
X94260156Y-102258512D01*
X93956488Y-101954844D01*
X93559726Y-101790500D01*
X93130274Y-101790500D01*
X92733512Y-101954844D01*
X92429844Y-102258512D01*
X92265500Y-102655274D01*
X89097440Y-102655274D01*
X89097440Y-101960000D01*
X89048157Y-101712235D01*
X88907809Y-101502191D01*
X88774282Y-101412970D01*
X88828430Y-101358822D01*
X88712737Y-101243129D01*
X88938164Y-101193617D01*
X89097807Y-100728964D01*
X89067482Y-100238587D01*
X88938164Y-99926383D01*
X88712735Y-99876870D01*
X88029605Y-100560000D01*
X88043748Y-100574143D01*
X87864143Y-100753748D01*
X87850000Y-100739605D01*
X87835858Y-100753748D01*
X87656253Y-100574143D01*
X87670395Y-100560000D01*
X86987265Y-99876870D01*
X86761836Y-99926383D01*
X86602193Y-100391036D01*
X80920405Y-100391036D01*
X80719387Y-99905736D01*
X80452532Y-99807073D01*
X79479605Y-100780000D01*
X79120395Y-100780000D01*
X78147468Y-99807073D01*
X77880613Y-99905736D01*
X77654092Y-100515461D01*
X74426331Y-100515461D01*
X74421856Y-100394540D01*
X74219387Y-99905736D01*
X73952532Y-99807073D01*
X72979605Y-100780000D01*
X72620395Y-100780000D01*
X71647468Y-99807073D01*
X71380613Y-99905736D01*
X71154092Y-100515461D01*
X66167000Y-100515461D01*
X66167000Y-99627468D01*
X71827073Y-99627468D01*
X72800000Y-100600395D01*
X73772927Y-99627468D01*
X78327073Y-99627468D01*
X79300000Y-100600395D01*
X80203130Y-99697265D01*
X87166870Y-99697265D01*
X87850000Y-100380395D01*
X88533130Y-99697265D01*
X88483617Y-99471836D01*
X88018964Y-99312193D01*
X87528587Y-99342518D01*
X87216383Y-99471836D01*
X87166870Y-99697265D01*
X80203130Y-99697265D01*
X80272927Y-99627468D01*
X80174264Y-99360613D01*
X79564539Y-99134092D01*
X78914540Y-99158144D01*
X78425736Y-99360613D01*
X78327073Y-99627468D01*
X73772927Y-99627468D01*
X73674264Y-99360613D01*
X73064539Y-99134092D01*
X72414540Y-99158144D01*
X71925736Y-99360613D01*
X71827073Y-99627468D01*
X66167000Y-99627468D01*
X66167000Y-96234561D01*
X72225000Y-96234561D01*
X72225000Y-96805439D01*
X72443466Y-97332862D01*
X72847138Y-97736534D01*
X73374561Y-97955000D01*
X73945439Y-97955000D01*
X74472862Y-97736534D01*
X74876534Y-97332862D01*
X75095000Y-96805439D01*
X75095000Y-96234561D01*
X74876534Y-95707138D01*
X74472862Y-95303466D01*
X74407701Y-95276475D01*
X74414005Y-95273864D01*
X74488139Y-95027745D01*
X73660000Y-94199605D01*
X72831861Y-95027745D01*
X72905995Y-95273864D01*
X72912746Y-95276290D01*
X72847138Y-95303466D01*
X72443466Y-95707138D01*
X72225000Y-96234561D01*
X66167000Y-96234561D01*
X66167000Y-93803223D01*
X72213035Y-93803223D01*
X72240222Y-94373454D01*
X72406136Y-94774005D01*
X72652255Y-94848139D01*
X73480395Y-94020000D01*
X73839605Y-94020000D01*
X74667745Y-94848139D01*
X74913864Y-94774005D01*
X75106965Y-94236777D01*
X75079778Y-93666546D01*
X75012659Y-93504506D01*
X79895000Y-93504506D01*
X79895000Y-94055494D01*
X80105853Y-94564540D01*
X80495460Y-94954147D01*
X81004506Y-95165000D01*
X81555494Y-95165000D01*
X82064540Y-94954147D01*
X82454147Y-94564540D01*
X82665000Y-94055494D01*
X82665000Y-93980000D01*
X84896887Y-93980000D01*
X85008260Y-94539909D01*
X85325423Y-95014577D01*
X85800091Y-95331740D01*
X86218667Y-95415000D01*
X86501333Y-95415000D01*
X86919909Y-95331740D01*
X87394577Y-95014577D01*
X87711740Y-94539909D01*
X87823113Y-93980000D01*
X87711740Y-93420091D01*
X87394577Y-92945423D01*
X86919909Y-92628260D01*
X86501333Y-92545000D01*
X86218667Y-92545000D01*
X85800091Y-92628260D01*
X85325423Y-92945423D01*
X85008260Y-93420091D01*
X84896887Y-93980000D01*
X82665000Y-93980000D01*
X82665000Y-93504506D01*
X82454147Y-92995460D01*
X82064540Y-92605853D01*
X81555494Y-92395000D01*
X81004506Y-92395000D01*
X80495460Y-92605853D01*
X80105853Y-92995460D01*
X79895000Y-93504506D01*
X75012659Y-93504506D01*
X74913864Y-93265995D01*
X74667745Y-93191861D01*
X73839605Y-94020000D01*
X73480395Y-94020000D01*
X72652255Y-93191861D01*
X72406136Y-93265995D01*
X72213035Y-93803223D01*
X66167000Y-93803223D01*
X66167000Y-93012255D01*
X72831861Y-93012255D01*
X73660000Y-93840395D01*
X74488139Y-93012255D01*
X74414005Y-92766136D01*
X73876777Y-92573035D01*
X73306546Y-92600222D01*
X72905995Y-92766136D01*
X72831861Y-93012255D01*
X66167000Y-93012255D01*
X66167000Y-91137745D01*
X72831861Y-91137745D01*
X72905995Y-91383864D01*
X73443223Y-91576965D01*
X74013454Y-91549778D01*
X74414005Y-91383864D01*
X74488139Y-91137745D01*
X73660000Y-90309605D01*
X72831861Y-91137745D01*
X66167000Y-91137745D01*
X66167000Y-89913223D01*
X72213035Y-89913223D01*
X72240222Y-90483454D01*
X72406136Y-90884005D01*
X72652255Y-90958139D01*
X73480395Y-90130000D01*
X73839605Y-90130000D01*
X74667745Y-90958139D01*
X74913864Y-90884005D01*
X75106965Y-90346777D01*
X75079778Y-89776546D01*
X74913864Y-89375995D01*
X74667745Y-89301861D01*
X73839605Y-90130000D01*
X73480395Y-90130000D01*
X72652255Y-89301861D01*
X72406136Y-89375995D01*
X72213035Y-89913223D01*
X66167000Y-89913223D01*
X66167000Y-87344561D01*
X72225000Y-87344561D01*
X72225000Y-87915439D01*
X72443466Y-88442862D01*
X72847138Y-88846534D01*
X72912299Y-88873525D01*
X72905995Y-88876136D01*
X72831861Y-89122255D01*
X73660000Y-89950395D01*
X74488139Y-89122255D01*
X74414005Y-88876136D01*
X74407254Y-88873710D01*
X74472862Y-88846534D01*
X74694890Y-88624506D01*
X79895000Y-88624506D01*
X79895000Y-89175494D01*
X80105853Y-89684540D01*
X80495460Y-90074147D01*
X81004506Y-90285000D01*
X81555494Y-90285000D01*
X82064540Y-90074147D01*
X82454147Y-89684540D01*
X82665000Y-89175494D01*
X82665000Y-88900000D01*
X84896887Y-88900000D01*
X85008260Y-89459909D01*
X85325423Y-89934577D01*
X85800091Y-90251740D01*
X86218667Y-90335000D01*
X86501333Y-90335000D01*
X86919909Y-90251740D01*
X87394577Y-89934577D01*
X87711740Y-89459909D01*
X87823113Y-88900000D01*
X87711740Y-88340091D01*
X87394577Y-87865423D01*
X86919909Y-87548260D01*
X86501333Y-87465000D01*
X86218667Y-87465000D01*
X85800091Y-87548260D01*
X85325423Y-87865423D01*
X85008260Y-88340091D01*
X84896887Y-88900000D01*
X82665000Y-88900000D01*
X82665000Y-88624506D01*
X82454147Y-88115460D01*
X82064540Y-87725853D01*
X81555494Y-87515000D01*
X81004506Y-87515000D01*
X80495460Y-87725853D01*
X80105853Y-88115460D01*
X79895000Y-88624506D01*
X74694890Y-88624506D01*
X74876534Y-88442862D01*
X75095000Y-87915439D01*
X75095000Y-87344561D01*
X74876534Y-86817138D01*
X74472862Y-86413466D01*
X73945439Y-86195000D01*
X73374561Y-86195000D01*
X72847138Y-86413466D01*
X72443466Y-86817138D01*
X72225000Y-87344561D01*
X66167000Y-87344561D01*
X66167000Y-82409039D01*
X69098096Y-82409039D01*
X69258959Y-82797423D01*
X69634866Y-83212389D01*
X70140959Y-83451914D01*
X70363000Y-83330629D01*
X70363000Y-82187000D01*
X70617000Y-82187000D01*
X70617000Y-83330629D01*
X70839041Y-83451914D01*
X71345134Y-83212389D01*
X71721041Y-82797423D01*
X71881904Y-82409039D01*
X71759915Y-82187000D01*
X70617000Y-82187000D01*
X70363000Y-82187000D01*
X69220085Y-82187000D01*
X69098096Y-82409039D01*
X66167000Y-82409039D01*
X66167000Y-81710961D01*
X69098096Y-81710961D01*
X69220085Y-81933000D01*
X70363000Y-81933000D01*
X70363000Y-80789371D01*
X70617000Y-80789371D01*
X70617000Y-81933000D01*
X71759915Y-81933000D01*
X71846961Y-81774561D01*
X76675000Y-81774561D01*
X76675000Y-82345439D01*
X76893466Y-82872862D01*
X77297138Y-83276534D01*
X77824561Y-83495000D01*
X78395439Y-83495000D01*
X78922862Y-83276534D01*
X79326534Y-82872862D01*
X79545000Y-82345439D01*
X79545000Y-82264561D01*
X84925000Y-82264561D01*
X84925000Y-82835439D01*
X85143466Y-83362862D01*
X85547138Y-83766534D01*
X86074561Y-83985000D01*
X86645439Y-83985000D01*
X87172862Y-83766534D01*
X87576534Y-83362862D01*
X87768655Y-82899039D01*
X92588096Y-82899039D01*
X92748959Y-83287423D01*
X93124866Y-83702389D01*
X93630959Y-83941914D01*
X93853000Y-83820629D01*
X93853000Y-82677000D01*
X92710085Y-82677000D01*
X92588096Y-82899039D01*
X87768655Y-82899039D01*
X87795000Y-82835439D01*
X87795000Y-82264561D01*
X87768656Y-82200961D01*
X92588096Y-82200961D01*
X92710085Y-82423000D01*
X93853000Y-82423000D01*
X93853000Y-81279371D01*
X93630959Y-81158086D01*
X93124866Y-81397611D01*
X92748959Y-81812577D01*
X92588096Y-82200961D01*
X87768656Y-82200961D01*
X87576534Y-81737138D01*
X87172862Y-81333466D01*
X86645439Y-81115000D01*
X86074561Y-81115000D01*
X85547138Y-81333466D01*
X85143466Y-81737138D01*
X84925000Y-82264561D01*
X79545000Y-82264561D01*
X79545000Y-81774561D01*
X79326534Y-81247138D01*
X78922862Y-80843466D01*
X78395439Y-80625000D01*
X77824561Y-80625000D01*
X77297138Y-80843466D01*
X76893466Y-81247138D01*
X76675000Y-81774561D01*
X71846961Y-81774561D01*
X71881904Y-81710961D01*
X71721041Y-81322577D01*
X71345134Y-80907611D01*
X70839041Y-80668086D01*
X70617000Y-80789371D01*
X70363000Y-80789371D01*
X70140959Y-80668086D01*
X69634866Y-80907611D01*
X69258959Y-81322577D01*
X69098096Y-81710961D01*
X66167000Y-81710961D01*
X66167000Y-76544670D01*
X72545000Y-76544670D01*
X72545000Y-77155330D01*
X72778690Y-77719507D01*
X73210493Y-78151310D01*
X73774670Y-78385000D01*
X74385330Y-78385000D01*
X74949507Y-78151310D01*
X75118725Y-77982092D01*
X75121843Y-77997765D01*
X75262191Y-78207809D01*
X75472235Y-78348157D01*
X75720000Y-78397440D01*
X77520000Y-78397440D01*
X77767765Y-78348157D01*
X77977809Y-78207809D01*
X78118157Y-77997765D01*
X78167440Y-77750000D01*
X78167440Y-75950000D01*
X78118157Y-75702235D01*
X77977809Y-75492191D01*
X77767765Y-75351843D01*
X77520000Y-75302560D01*
X75720000Y-75302560D01*
X75472235Y-75351843D01*
X75262191Y-75492191D01*
X75121843Y-75702235D01*
X75118725Y-75717908D01*
X74949507Y-75548690D01*
X74385330Y-75315000D01*
X73774670Y-75315000D01*
X73210493Y-75548690D01*
X72778690Y-75980493D01*
X72545000Y-76544670D01*
X66167000Y-76544670D01*
X66167000Y-68986400D01*
X89928960Y-68986400D01*
X89928960Y-70713600D01*
X89978243Y-70961365D01*
X90118591Y-71171409D01*
X90328635Y-71311757D01*
X90576400Y-71361040D01*
X92303600Y-71361040D01*
X92551365Y-71311757D01*
X92761409Y-71171409D01*
X92901757Y-70961365D01*
X92906932Y-70935349D01*
X93032187Y-71019042D01*
X93021790Y-71071314D01*
X93060200Y-71264416D01*
X93060201Y-77568006D01*
X92920500Y-77905274D01*
X92920500Y-78334726D01*
X93084844Y-78731488D01*
X93388512Y-79035156D01*
X93785274Y-79199500D01*
X94214726Y-79199500D01*
X94609700Y-79035896D01*
X94609700Y-81290917D01*
X94329041Y-81158086D01*
X94107000Y-81279371D01*
X94107000Y-82423000D01*
X94127000Y-82423000D01*
X94127000Y-82677000D01*
X94107000Y-82677000D01*
X94107000Y-83820629D01*
X94329041Y-83941914D01*
X94609700Y-83809083D01*
X94609701Y-87607598D01*
X94265439Y-87465000D01*
X93694561Y-87465000D01*
X93167138Y-87683466D01*
X92763466Y-88087138D01*
X92545000Y-88614561D01*
X92545000Y-89185439D01*
X92763466Y-89712862D01*
X93167138Y-90116534D01*
X93243401Y-90148123D01*
X93243400Y-92731877D01*
X93167138Y-92763466D01*
X92763466Y-93167138D01*
X92545000Y-93694561D01*
X92545000Y-94265439D01*
X92763466Y-94792862D01*
X93167138Y-95196534D01*
X93694561Y-95415000D01*
X94265439Y-95415000D01*
X94609701Y-95272402D01*
X94609701Y-104328444D01*
X94595271Y-104400978D01*
X94609701Y-104473534D01*
X94609701Y-104473544D01*
X94622833Y-104539564D01*
X94652431Y-104688385D01*
X94652438Y-104688395D01*
X94652440Y-104688407D01*
X94727822Y-104801223D01*
X94774135Y-104870541D01*
X94774146Y-104870552D01*
X94815243Y-104932058D01*
X94876731Y-104973143D01*
X99110156Y-109206823D01*
X99072191Y-109232191D01*
X98931843Y-109442235D01*
X98882560Y-109690000D01*
X98882560Y-110260730D01*
X97955442Y-111187849D01*
X97893942Y-111228942D01*
X97852849Y-111290442D01*
X97742628Y-111455399D01*
X97731139Y-111472594D01*
X97688400Y-111687457D01*
X97688400Y-111687460D01*
X97673971Y-111760000D01*
X97688400Y-111832540D01*
X97688401Y-116132455D01*
X97673971Y-116205000D01*
X97731139Y-116492406D01*
X97852849Y-116674558D01*
X97852852Y-116674561D01*
X97893943Y-116736058D01*
X97955440Y-116777149D01*
X98936802Y-117758512D01*
X98866887Y-118110000D01*
X98978260Y-118669909D01*
X99295423Y-119144577D01*
X99679108Y-119400947D01*
X99474866Y-119497611D01*
X99098959Y-119912577D01*
X98938096Y-120300961D01*
X99060085Y-120523000D01*
X100203000Y-120523000D01*
X100203000Y-120503000D01*
X100457000Y-120503000D01*
X100457000Y-120523000D01*
X101599915Y-120523000D01*
X101721904Y-120300961D01*
X101561041Y-119912577D01*
X101185134Y-119497611D01*
X100980892Y-119400947D01*
X101364577Y-119144577D01*
X101681740Y-118669909D01*
X101793113Y-118110000D01*
X101681740Y-117550091D01*
X101364577Y-117075423D01*
X101012242Y-116840000D01*
X101364577Y-116604577D01*
X101681740Y-116129909D01*
X101793113Y-115570000D01*
X106486887Y-115570000D01*
X106598260Y-116129909D01*
X106915423Y-116604577D01*
X107299108Y-116860947D01*
X107094866Y-116957611D01*
X106718959Y-117372577D01*
X106558096Y-117760961D01*
X106680085Y-117983000D01*
X107823000Y-117983000D01*
X107823000Y-117963000D01*
X108077000Y-117963000D01*
X108077000Y-117983000D01*
X109219915Y-117983000D01*
X109341904Y-117760961D01*
X109181041Y-117372577D01*
X108805134Y-116957611D01*
X108600892Y-116860947D01*
X108984577Y-116604577D01*
X109301740Y-116129909D01*
X109413113Y-115570000D01*
X109301740Y-115010091D01*
X108984577Y-114535423D01*
X108600892Y-114279053D01*
X108805134Y-114182389D01*
X109181041Y-113767423D01*
X109341904Y-113379039D01*
X109219915Y-113157000D01*
X108077000Y-113157000D01*
X108077000Y-113177000D01*
X107823000Y-113177000D01*
X107823000Y-113157000D01*
X106680085Y-113157000D01*
X106558096Y-113379039D01*
X106718959Y-113767423D01*
X107094866Y-114182389D01*
X107299108Y-114279053D01*
X106915423Y-114535423D01*
X106598260Y-115010091D01*
X106486887Y-115570000D01*
X101793113Y-115570000D01*
X101681740Y-115010091D01*
X101364577Y-114535423D01*
X101012242Y-114300000D01*
X101364577Y-114064577D01*
X101681740Y-113589909D01*
X101793113Y-113030000D01*
X101681740Y-112470091D01*
X101364577Y-111995423D01*
X101243894Y-111914785D01*
X101377765Y-111888157D01*
X101587809Y-111747809D01*
X101728157Y-111537765D01*
X101777440Y-111290000D01*
X101777440Y-109690000D01*
X101728157Y-109442235D01*
X101606674Y-109260425D01*
X101895861Y-109549577D01*
X101936942Y-109611058D01*
X101998460Y-109652163D01*
X101998476Y-109652179D01*
X102056278Y-109690796D01*
X102180593Y-109773861D01*
X102180617Y-109773866D01*
X102180635Y-109773878D01*
X102314758Y-109800548D01*
X102395456Y-109816600D01*
X102395482Y-109816600D01*
X102468045Y-109831029D01*
X102540563Y-109816600D01*
X106017460Y-109816600D01*
X106090000Y-109831029D01*
X106162540Y-109816600D01*
X106162544Y-109816600D01*
X106377407Y-109773861D01*
X106621058Y-109611058D01*
X106662151Y-109549558D01*
X106947110Y-109264600D01*
X107201010Y-109264600D01*
X106915423Y-109455423D01*
X106598260Y-109930091D01*
X106486887Y-110490000D01*
X106598260Y-111049909D01*
X106915423Y-111524577D01*
X107299108Y-111780947D01*
X107094866Y-111877611D01*
X106718959Y-112292577D01*
X106558096Y-112680961D01*
X106680085Y-112903000D01*
X107823000Y-112903000D01*
X107823000Y-112883000D01*
X108077000Y-112883000D01*
X108077000Y-112903000D01*
X109219915Y-112903000D01*
X109341904Y-112680961D01*
X109181041Y-112292577D01*
X108805134Y-111877611D01*
X108600892Y-111780947D01*
X108984577Y-111524577D01*
X109301740Y-111049909D01*
X109413113Y-110490000D01*
X109301740Y-109930091D01*
X108984577Y-109455423D01*
X108698990Y-109264600D01*
X110418891Y-109264600D01*
X118463851Y-117309561D01*
X118504942Y-117371058D01*
X118566439Y-117412149D01*
X118566441Y-117412151D01*
X118733790Y-117523970D01*
X118748593Y-117533861D01*
X118963456Y-117576600D01*
X118963459Y-117576600D01*
X119035999Y-117591029D01*
X119108540Y-117576600D01*
X121956321Y-117576600D01*
X122155423Y-117874577D01*
X122507758Y-118110000D01*
X122155423Y-118345423D01*
X121838260Y-118820091D01*
X121726887Y-119380000D01*
X121838260Y-119939909D01*
X122155423Y-120414577D01*
X122507758Y-120650000D01*
X122155423Y-120885423D01*
X121838260Y-121360091D01*
X121726887Y-121920000D01*
X121838260Y-122479909D01*
X122155423Y-122954577D01*
X122507758Y-123190000D01*
X122155423Y-123425423D01*
X121838260Y-123900091D01*
X121726887Y-124460000D01*
X121838260Y-125019909D01*
X122155423Y-125494577D01*
X122507758Y-125730000D01*
X122155423Y-125965423D01*
X121838260Y-126440091D01*
X121726887Y-127000000D01*
X121838260Y-127559909D01*
X122155423Y-128034577D01*
X122630091Y-128351740D01*
X123048667Y-128435000D01*
X123331333Y-128435000D01*
X123749909Y-128351740D01*
X124224577Y-128034577D01*
X124541740Y-127559909D01*
X124653113Y-127000000D01*
X124541740Y-126440091D01*
X124224577Y-125965423D01*
X123872242Y-125730000D01*
X124224577Y-125494577D01*
X124541740Y-125019909D01*
X124653113Y-124460000D01*
X124541740Y-123900091D01*
X124224577Y-123425423D01*
X123872242Y-123190000D01*
X124224577Y-122954577D01*
X124541740Y-122479909D01*
X124653113Y-121920000D01*
X124541740Y-121360091D01*
X124224577Y-120885423D01*
X123872242Y-120650000D01*
X124224577Y-120414577D01*
X124541740Y-119939909D01*
X124653113Y-119380000D01*
X124541740Y-118820091D01*
X124224577Y-118345423D01*
X123872242Y-118110000D01*
X124224577Y-117874577D01*
X124541740Y-117399909D01*
X124653113Y-116840000D01*
X124541740Y-116280091D01*
X124224577Y-115805423D01*
X123872242Y-115570000D01*
X124224577Y-115334577D01*
X124541740Y-114859909D01*
X124653113Y-114300000D01*
X124541740Y-113740091D01*
X124224577Y-113265423D01*
X123872242Y-113030000D01*
X124224577Y-112794577D01*
X124541740Y-112319909D01*
X124653113Y-111760000D01*
X124541740Y-111200091D01*
X124224577Y-110725423D01*
X123872242Y-110490000D01*
X124224577Y-110254577D01*
X124541740Y-109779909D01*
X124653113Y-109220000D01*
X124541740Y-108660091D01*
X124224577Y-108185423D01*
X123872242Y-107950000D01*
X124224577Y-107714577D01*
X124541740Y-107239909D01*
X124653113Y-106680000D01*
X124541740Y-106120091D01*
X124224577Y-105645423D01*
X123872242Y-105410000D01*
X124224577Y-105174577D01*
X124541740Y-104699909D01*
X124653113Y-104140000D01*
X124596336Y-103854561D01*
X128105000Y-103854561D01*
X128105000Y-104425439D01*
X128323466Y-104952862D01*
X128727138Y-105356534D01*
X129254561Y-105575000D01*
X129825439Y-105575000D01*
X130352862Y-105356534D01*
X130561651Y-105147745D01*
X131211861Y-105147745D01*
X131285995Y-105393864D01*
X131823223Y-105586965D01*
X132393454Y-105559778D01*
X132794005Y-105393864D01*
X132868139Y-105147745D01*
X132040000Y-104319605D01*
X131211861Y-105147745D01*
X130561651Y-105147745D01*
X130756534Y-104952862D01*
X130783525Y-104887701D01*
X130786136Y-104894005D01*
X131032255Y-104968139D01*
X131860395Y-104140000D01*
X131032255Y-103311861D01*
X130786136Y-103385995D01*
X130783710Y-103392746D01*
X130756534Y-103327138D01*
X130352862Y-102923466D01*
X129825439Y-102705000D01*
X129254561Y-102705000D01*
X128727138Y-102923466D01*
X128323466Y-103327138D01*
X128105000Y-103854561D01*
X124596336Y-103854561D01*
X124541740Y-103580091D01*
X124224577Y-103105423D01*
X123872242Y-102870000D01*
X124224577Y-102634577D01*
X124541740Y-102159909D01*
X124653113Y-101600000D01*
X124541740Y-101040091D01*
X124224577Y-100565423D01*
X123872242Y-100330000D01*
X124224577Y-100094577D01*
X124541740Y-99619909D01*
X124653113Y-99060000D01*
X124541740Y-98500091D01*
X124224577Y-98025423D01*
X123904007Y-97811225D01*
X123913746Y-97762268D01*
X124224577Y-97554577D01*
X124541740Y-97079909D01*
X124653113Y-96520000D01*
X124541740Y-95960091D01*
X124224577Y-95485423D01*
X123904007Y-95271225D01*
X123913746Y-95222268D01*
X124224577Y-95014577D01*
X124436181Y-94697890D01*
X132529270Y-102790980D01*
X132256777Y-102693035D01*
X131686546Y-102720222D01*
X131285995Y-102886136D01*
X131211861Y-103132255D01*
X132040000Y-103960395D01*
X132054142Y-103946252D01*
X132233748Y-104125858D01*
X132219605Y-104140000D01*
X133047745Y-104968139D01*
X133293864Y-104894005D01*
X133486965Y-104356777D01*
X133459778Y-103786546D01*
X133413775Y-103675485D01*
X134590401Y-104852111D01*
X134590400Y-107618460D01*
X134575971Y-107691000D01*
X134590400Y-107763540D01*
X134590400Y-107763543D01*
X134633139Y-107978406D01*
X134795942Y-108222058D01*
X134857442Y-108263151D01*
X137365098Y-110770808D01*
X137078260Y-111200091D01*
X136966887Y-111760000D01*
X137078260Y-112319909D01*
X137395423Y-112794577D01*
X137747758Y-113030000D01*
X137395423Y-113265423D01*
X137078260Y-113740091D01*
X136966887Y-114300000D01*
X137078260Y-114859909D01*
X137395423Y-115334577D01*
X137747758Y-115570000D01*
X137395423Y-115805423D01*
X137078260Y-116280091D01*
X136966887Y-116840000D01*
X137078260Y-117399909D01*
X137395423Y-117874577D01*
X137747758Y-118110000D01*
X137395423Y-118345423D01*
X137078260Y-118820091D01*
X136966887Y-119380000D01*
X137078260Y-119939909D01*
X137395423Y-120414577D01*
X137747758Y-120650000D01*
X137395423Y-120885423D01*
X137078260Y-121360091D01*
X136966887Y-121920000D01*
X137078260Y-122479909D01*
X137395423Y-122954577D01*
X137747758Y-123190000D01*
X137395423Y-123425423D01*
X137078260Y-123900091D01*
X136966887Y-124460000D01*
X137078260Y-125019909D01*
X137395423Y-125494577D01*
X137747758Y-125730000D01*
X137395423Y-125965423D01*
X137078260Y-126440091D01*
X136966887Y-127000000D01*
X137078260Y-127559909D01*
X137395423Y-128034577D01*
X137870091Y-128351740D01*
X138288667Y-128435000D01*
X138571333Y-128435000D01*
X138989909Y-128351740D01*
X139464577Y-128034577D01*
X139781740Y-127559909D01*
X139893113Y-127000000D01*
X139781740Y-126440091D01*
X139464577Y-125965423D01*
X139112242Y-125730000D01*
X139464577Y-125494577D01*
X139781740Y-125019909D01*
X139893113Y-124460000D01*
X139781740Y-123900091D01*
X139464577Y-123425423D01*
X139112242Y-123190000D01*
X139376464Y-123013452D01*
X139408942Y-123062058D01*
X139470442Y-123103151D01*
X144965851Y-128598561D01*
X145006942Y-128660058D01*
X145068439Y-128701149D01*
X145068441Y-128701151D01*
X145240364Y-128816026D01*
X145250593Y-128822861D01*
X145465456Y-128865600D01*
X145465459Y-128865600D01*
X145538000Y-128880029D01*
X145610540Y-128865600D01*
X151363460Y-128865600D01*
X151436000Y-128880029D01*
X151508540Y-128865600D01*
X151508544Y-128865600D01*
X151723407Y-128822861D01*
X151967058Y-128660058D01*
X152008151Y-128598558D01*
X152610072Y-127996637D01*
X152635423Y-128034577D01*
X153110091Y-128351740D01*
X153528667Y-128435000D01*
X153811333Y-128435000D01*
X154229909Y-128351740D01*
X154704577Y-128034577D01*
X155021740Y-127559909D01*
X155112141Y-127105431D01*
X156615000Y-127105431D01*
X156615000Y-127994569D01*
X156955259Y-128816026D01*
X157583974Y-129444741D01*
X158405431Y-129785000D01*
X159294569Y-129785000D01*
X160116026Y-129444741D01*
X160744741Y-128816026D01*
X161085000Y-127994569D01*
X161085000Y-127105431D01*
X160744741Y-126283974D01*
X160116026Y-125655259D01*
X159294569Y-125315000D01*
X158405431Y-125315000D01*
X157583974Y-125655259D01*
X156955259Y-126283974D01*
X156615000Y-127105431D01*
X155112141Y-127105431D01*
X155133113Y-127000000D01*
X155021740Y-126440091D01*
X154704577Y-125965423D01*
X154352242Y-125730000D01*
X154704577Y-125494577D01*
X155021740Y-125019909D01*
X155133113Y-124460000D01*
X155021740Y-123900091D01*
X154704577Y-123425423D01*
X154352242Y-123190000D01*
X154704577Y-122954577D01*
X155021740Y-122479909D01*
X155133113Y-121920000D01*
X155021740Y-121360091D01*
X154732843Y-120927726D01*
X155246796Y-120412992D01*
X155308058Y-120372058D01*
X155349306Y-120310326D01*
X155349508Y-120310124D01*
X155389819Y-120249695D01*
X155470861Y-120128407D01*
X155470918Y-120128120D01*
X155471079Y-120127879D01*
X155499362Y-119985124D01*
X155513600Y-119913544D01*
X155513600Y-119913258D01*
X155528029Y-119840429D01*
X155513600Y-119768176D01*
X155513600Y-89192235D01*
X155528029Y-89119691D01*
X155502686Y-88992287D01*
X155470861Y-88832293D01*
X155470859Y-88832290D01*
X155470858Y-88832286D01*
X155349146Y-88650135D01*
X155308058Y-88588642D01*
X155246557Y-88547548D01*
X137873946Y-71175307D01*
X138240430Y-70930430D01*
X138430000Y-70646719D01*
X138619570Y-70930430D01*
X139115275Y-71261650D01*
X139552402Y-71348600D01*
X139847598Y-71348600D01*
X140284725Y-71261650D01*
X140780430Y-70930430D01*
X141111650Y-70434725D01*
X141227959Y-69850000D01*
X141111650Y-69265275D01*
X140780430Y-68769570D01*
X140496719Y-68580000D01*
X140780430Y-68390430D01*
X141111650Y-67894725D01*
X141227959Y-67310000D01*
X141111650Y-66725275D01*
X140780430Y-66229570D01*
X140284725Y-65898350D01*
X139847598Y-65811400D01*
X139552402Y-65811400D01*
X139115275Y-65898350D01*
X138761044Y-66135040D01*
X137872186Y-65245894D01*
X137831058Y-65184342D01*
X137705878Y-65100699D01*
X137587519Y-65021586D01*
X137587460Y-65021574D01*
X137587407Y-65021539D01*
X137439067Y-64992032D01*
X137300121Y-64964371D01*
X137227520Y-64978800D01*
X119389540Y-64978800D01*
X119316999Y-64964371D01*
X119244459Y-64978800D01*
X119244456Y-64978800D01*
X119029824Y-65021493D01*
X119029593Y-65021539D01*
X118847441Y-65143249D01*
X118847439Y-65143251D01*
X118785942Y-65184342D01*
X118744850Y-65245840D01*
X117824931Y-66165760D01*
X117424725Y-65898350D01*
X116987598Y-65811400D01*
X116692402Y-65811400D01*
X116255275Y-65898350D01*
X115870362Y-66155541D01*
X114896110Y-65181681D01*
X114855058Y-65120242D01*
X114793494Y-65079106D01*
X114793443Y-65079055D01*
X114735558Y-65040395D01*
X114611407Y-64957439D01*
X114611329Y-64957424D01*
X114611267Y-64957382D01*
X114471431Y-64929596D01*
X114396544Y-64914700D01*
X114396465Y-64914700D01*
X114323850Y-64900271D01*
X114251386Y-64914700D01*
X96582940Y-64914700D01*
X96510399Y-64900271D01*
X96437859Y-64914700D01*
X96437856Y-64914700D01*
X96223280Y-64957382D01*
X96222993Y-64957439D01*
X96040841Y-65079149D01*
X96040839Y-65079151D01*
X95979342Y-65120242D01*
X95938250Y-65181740D01*
X94931515Y-66188476D01*
X94754947Y-66027312D01*
X94339026Y-65855042D01*
X94107000Y-65976183D01*
X94107000Y-67183000D01*
X94127000Y-67183000D01*
X94127000Y-67437000D01*
X94107000Y-67437000D01*
X94107000Y-67457000D01*
X93853000Y-67457000D01*
X93853000Y-67437000D01*
X91567000Y-67437000D01*
X91567000Y-67457000D01*
X91313000Y-67457000D01*
X91313000Y-67437000D01*
X90105531Y-67437000D01*
X89985032Y-67669027D01*
X90233179Y-68198490D01*
X90420950Y-68369881D01*
X90328635Y-68388243D01*
X90118591Y-68528591D01*
X89978243Y-68738635D01*
X89928960Y-68986400D01*
X66167000Y-68986400D01*
X66167000Y-66950973D01*
X89985032Y-66950973D01*
X90105531Y-67183000D01*
X91313000Y-67183000D01*
X91313000Y-65976183D01*
X91567000Y-65976183D01*
X91567000Y-67183000D01*
X93853000Y-67183000D01*
X93853000Y-65976183D01*
X93620974Y-65855042D01*
X93205053Y-66027312D01*
X92773179Y-66421510D01*
X92710000Y-66556313D01*
X92646821Y-66421510D01*
X92214947Y-66027312D01*
X91799026Y-65855042D01*
X91567000Y-65976183D01*
X91313000Y-65976183D01*
X91080974Y-65855042D01*
X90665053Y-66027312D01*
X90233179Y-66421510D01*
X89985032Y-66950973D01*
X66167000Y-66950973D01*
X66167000Y-61255431D01*
X67540000Y-61255431D01*
X67540000Y-62144569D01*
X67880259Y-62966026D01*
X68508974Y-63594741D01*
X69330431Y-63935000D01*
X70219569Y-63935000D01*
X71041026Y-63594741D01*
X71669741Y-62966026D01*
X72010000Y-62144569D01*
X72010000Y-61255431D01*
X156590000Y-61255431D01*
X156590000Y-62144569D01*
X156930259Y-62966026D01*
X157558974Y-63594741D01*
X158380431Y-63935000D01*
X159269569Y-63935000D01*
X160091026Y-63594741D01*
X160719741Y-62966026D01*
X161060000Y-62144569D01*
X161060000Y-61255431D01*
X160719741Y-60433974D01*
X160091026Y-59805259D01*
X159269569Y-59465000D01*
X158380431Y-59465000D01*
X157558974Y-59805259D01*
X156930259Y-60433974D01*
X156590000Y-61255431D01*
X72010000Y-61255431D01*
X71669741Y-60433974D01*
X71041026Y-59805259D01*
X70219569Y-59465000D01*
X69330431Y-59465000D01*
X68508974Y-59805259D01*
X67880259Y-60433974D01*
X67540000Y-61255431D01*
X66167000Y-61255431D01*
X66167000Y-58547000D01*
X162433000Y-58547000D01*
X162433000Y-130683000D01*
X162433000Y-130683000D01*
G37*
X162433000Y-130683000D02*
X66167000Y-130683000D01*
X66167000Y-127130431D01*
X67565000Y-127130431D01*
X67565000Y-128019569D01*
X67905259Y-128841026D01*
X68533974Y-129469741D01*
X69355431Y-129810000D01*
X70244569Y-129810000D01*
X71066026Y-129469741D01*
X71694741Y-128841026D01*
X72035000Y-128019569D01*
X72035000Y-127130431D01*
X71825203Y-126623936D01*
X84375670Y-126623936D01*
X84645221Y-127036257D01*
X85761642Y-127496369D01*
X86969157Y-127494221D01*
X88074779Y-127036257D01*
X88344330Y-126623936D01*
X86360000Y-124639605D01*
X84375670Y-126623936D01*
X71825203Y-126623936D01*
X71694741Y-126308974D01*
X71066026Y-125680259D01*
X70244569Y-125340000D01*
X69355431Y-125340000D01*
X68533974Y-125680259D01*
X67905259Y-126308974D01*
X67565000Y-127130431D01*
X66167000Y-127130431D01*
X66167000Y-123861642D01*
X83323631Y-123861642D01*
X83325779Y-125069157D01*
X83783743Y-126174779D01*
X84196064Y-126444330D01*
X86180395Y-124460000D01*
X84196064Y-122475670D01*
X83783743Y-122745221D01*
X83323631Y-123861642D01*
X66167000Y-123861642D01*
X66167000Y-120612000D01*
X72212560Y-120612000D01*
X72212560Y-122212000D01*
X72261843Y-122459765D01*
X72402191Y-122669809D01*
X72612235Y-122810157D01*
X72860000Y-122859440D01*
X74460000Y-122859440D01*
X74707765Y-122810157D01*
X74917809Y-122669809D01*
X75058157Y-122459765D01*
X75066117Y-122419745D01*
X75331861Y-122419745D01*
X75405995Y-122665864D01*
X75943223Y-122858965D01*
X76513454Y-122831778D01*
X76914005Y-122665864D01*
X76988139Y-122419745D01*
X76160000Y-121591605D01*
X75331861Y-122419745D01*
X75066117Y-122419745D01*
X75104693Y-122225813D01*
X75152255Y-122240139D01*
X75980395Y-121412000D01*
X76339605Y-121412000D01*
X77167745Y-122240139D01*
X77413864Y-122166005D01*
X77606965Y-121628777D01*
X77579778Y-121058546D01*
X77413864Y-120657995D01*
X77167745Y-120583861D01*
X76339605Y-121412000D01*
X75980395Y-121412000D01*
X75152255Y-120583861D01*
X75104693Y-120598187D01*
X75066118Y-120404255D01*
X75331861Y-120404255D01*
X76160000Y-121232395D01*
X76988139Y-120404255D01*
X76914005Y-120158136D01*
X76376777Y-119965035D01*
X75806546Y-119992222D01*
X75405995Y-120158136D01*
X75331861Y-120404255D01*
X75066118Y-120404255D01*
X75058157Y-120364235D01*
X74917809Y-120154191D01*
X74707765Y-120013843D01*
X74460000Y-119964560D01*
X72860000Y-119964560D01*
X72612235Y-120013843D01*
X72402191Y-120154191D01*
X72261843Y-120364235D01*
X72212560Y-120612000D01*
X66167000Y-120612000D01*
X66167000Y-115963700D01*
X83312260Y-115963700D01*
X83312260Y-120764300D01*
X83361543Y-121012065D01*
X83501891Y-121222109D01*
X83711935Y-121362457D01*
X83959700Y-121411740D01*
X88470353Y-121411740D01*
X88404700Y-121570241D01*
X88404700Y-122235692D01*
X88344329Y-122296063D01*
X88074779Y-121883743D01*
X86958358Y-121423631D01*
X85750843Y-121425779D01*
X84645221Y-121883743D01*
X84375670Y-122296064D01*
X86360000Y-124280395D01*
X86374142Y-124266252D01*
X86553748Y-124445858D01*
X86539605Y-124460000D01*
X88523936Y-126444330D01*
X88936257Y-126174779D01*
X88975714Y-126079039D01*
X98938096Y-126079039D01*
X99098959Y-126467423D01*
X99474866Y-126882389D01*
X99980959Y-127121914D01*
X100203000Y-127000629D01*
X100203000Y-125857000D01*
X100457000Y-125857000D01*
X100457000Y-127000629D01*
X100679041Y-127121914D01*
X101185134Y-126882389D01*
X101561041Y-126467423D01*
X101721904Y-126079039D01*
X101599915Y-125857000D01*
X100457000Y-125857000D01*
X100203000Y-125857000D01*
X99060085Y-125857000D01*
X98938096Y-126079039D01*
X88975714Y-126079039D01*
X89119564Y-125730000D01*
X106486887Y-125730000D01*
X106598260Y-126289909D01*
X106915423Y-126764577D01*
X107390091Y-127081740D01*
X107808667Y-127165000D01*
X108091333Y-127165000D01*
X108509909Y-127081740D01*
X108984577Y-126764577D01*
X109301740Y-126289909D01*
X109413113Y-125730000D01*
X109301740Y-125170091D01*
X108984577Y-124695423D01*
X108600892Y-124439053D01*
X108805134Y-124342389D01*
X109181041Y-123927423D01*
X109341904Y-123539039D01*
X109219915Y-123317000D01*
X108077000Y-123317000D01*
X108077000Y-123337000D01*
X107823000Y-123337000D01*
X107823000Y-123317000D01*
X106680085Y-123317000D01*
X106558096Y-123539039D01*
X106718959Y-123927423D01*
X107094866Y-124342389D01*
X107299108Y-124439053D01*
X106915423Y-124695423D01*
X106598260Y-125170091D01*
X106486887Y-125730000D01*
X89119564Y-125730000D01*
X89396369Y-125058358D01*
X89395237Y-124421799D01*
X89720641Y-124747203D01*
X90836241Y-125209300D01*
X92043759Y-125209300D01*
X93159359Y-124747203D01*
X94013203Y-123893359D01*
X94304544Y-123190000D01*
X98866887Y-123190000D01*
X98978260Y-123749909D01*
X99295423Y-124224577D01*
X99679108Y-124480947D01*
X99474866Y-124577611D01*
X99098959Y-124992577D01*
X98938096Y-125380961D01*
X99060085Y-125603000D01*
X100203000Y-125603000D01*
X100203000Y-125583000D01*
X100457000Y-125583000D01*
X100457000Y-125603000D01*
X101599915Y-125603000D01*
X101721904Y-125380961D01*
X101561041Y-124992577D01*
X101185134Y-124577611D01*
X100980892Y-124480947D01*
X101364577Y-124224577D01*
X101681740Y-123749909D01*
X101793113Y-123190000D01*
X101681740Y-122630091D01*
X101364577Y-122155423D01*
X100980892Y-121899053D01*
X101185134Y-121802389D01*
X101561041Y-121387423D01*
X101721904Y-120999039D01*
X101599915Y-120777000D01*
X100457000Y-120777000D01*
X100457000Y-120797000D01*
X100203000Y-120797000D01*
X100203000Y-120777000D01*
X99060085Y-120777000D01*
X98938096Y-120999039D01*
X99098959Y-121387423D01*
X99474866Y-121802389D01*
X99679108Y-121899053D01*
X99295423Y-122155423D01*
X98978260Y-122630091D01*
X98866887Y-123190000D01*
X94304544Y-123190000D01*
X94475300Y-122777759D01*
X94475300Y-121570241D01*
X94094124Y-120650000D01*
X106486887Y-120650000D01*
X106598260Y-121209909D01*
X106915423Y-121684577D01*
X107299108Y-121940947D01*
X107094866Y-122037611D01*
X106718959Y-122452577D01*
X106558096Y-122840961D01*
X106680085Y-123063000D01*
X107823000Y-123063000D01*
X107823000Y-123043000D01*
X108077000Y-123043000D01*
X108077000Y-123063000D01*
X109219915Y-123063000D01*
X109341904Y-122840961D01*
X109181041Y-122452577D01*
X108805134Y-122037611D01*
X108600892Y-121940947D01*
X108984577Y-121684577D01*
X109301740Y-121209909D01*
X109413113Y-120650000D01*
X109301740Y-120090091D01*
X108984577Y-119615423D01*
X108600892Y-119359053D01*
X108805134Y-119262389D01*
X109181041Y-118847423D01*
X109341904Y-118459039D01*
X109219915Y-118237000D01*
X108077000Y-118237000D01*
X108077000Y-118257000D01*
X107823000Y-118257000D01*
X107823000Y-118237000D01*
X106680085Y-118237000D01*
X106558096Y-118459039D01*
X106718959Y-118847423D01*
X107094866Y-119262389D01*
X107299108Y-119359053D01*
X106915423Y-119615423D01*
X106598260Y-120090091D01*
X106486887Y-120650000D01*
X94094124Y-120650000D01*
X94013203Y-120454641D01*
X93159359Y-119600797D01*
X92043759Y-119138700D01*
X90836241Y-119138700D01*
X89720641Y-119600797D01*
X89407740Y-119913698D01*
X89407740Y-115963700D01*
X89358457Y-115715935D01*
X89218109Y-115505891D01*
X89008065Y-115365543D01*
X88760300Y-115316260D01*
X83959700Y-115316260D01*
X83711935Y-115365543D01*
X83501891Y-115505891D01*
X83361543Y-115715935D01*
X83312260Y-115963700D01*
X66167000Y-115963700D01*
X66167000Y-113350000D01*
X69522560Y-113350000D01*
X69522560Y-115250000D01*
X69571843Y-115497765D01*
X69712191Y-115707809D01*
X69922235Y-115848157D01*
X70170000Y-115897440D01*
X72070000Y-115897440D01*
X72317765Y-115848157D01*
X72527809Y-115707809D01*
X72631339Y-115552867D01*
X72722170Y-115643698D01*
X73304724Y-115885000D01*
X73935276Y-115885000D01*
X74517830Y-115643698D01*
X74870000Y-115291528D01*
X75222170Y-115643698D01*
X75804724Y-115885000D01*
X76435276Y-115885000D01*
X77017830Y-115643698D01*
X77463698Y-115197830D01*
X77705000Y-114615276D01*
X77705000Y-113984724D01*
X77463698Y-113402170D01*
X77017830Y-112956302D01*
X76435276Y-112715000D01*
X75804724Y-112715000D01*
X75222170Y-112956302D01*
X74870000Y-113308472D01*
X74517830Y-112956302D01*
X73935276Y-112715000D01*
X73304724Y-112715000D01*
X72722170Y-112956302D01*
X72631339Y-113047133D01*
X72527809Y-112892191D01*
X72317765Y-112751843D01*
X72070000Y-112702560D01*
X70170000Y-112702560D01*
X69922235Y-112751843D01*
X69712191Y-112892191D01*
X69571843Y-113102235D01*
X69522560Y-113350000D01*
X66167000Y-113350000D01*
X66167000Y-112010000D01*
X82792560Y-112010000D01*
X82792560Y-114210000D01*
X82841843Y-114457765D01*
X82982191Y-114667809D01*
X83192235Y-114808157D01*
X83440000Y-114857440D01*
X85640000Y-114857440D01*
X85887765Y-114808157D01*
X86097809Y-114667809D01*
X86238157Y-114457765D01*
X86287440Y-114210000D01*
X86287440Y-113110000D01*
X92931010Y-113110000D01*
X93065666Y-113786963D01*
X93449135Y-114360865D01*
X94023037Y-114744334D01*
X94529120Y-114845000D01*
X94870880Y-114845000D01*
X95376963Y-114744334D01*
X95950865Y-114360865D01*
X96334334Y-113786963D01*
X96468990Y-113110000D01*
X96334334Y-112433037D01*
X95950865Y-111859135D01*
X95376963Y-111475666D01*
X94870880Y-111375000D01*
X94529120Y-111375000D01*
X94023037Y-111475666D01*
X93449135Y-111859135D01*
X93065666Y-112433037D01*
X92931010Y-113110000D01*
X86287440Y-113110000D01*
X86287440Y-112010000D01*
X86238157Y-111762235D01*
X86097809Y-111552191D01*
X85887765Y-111411843D01*
X85640000Y-111362560D01*
X83440000Y-111362560D01*
X83192235Y-111411843D01*
X82982191Y-111552191D01*
X82841843Y-111762235D01*
X82792560Y-112010000D01*
X66167000Y-112010000D01*
X66167000Y-109364561D01*
X85665000Y-109364561D01*
X85665000Y-109935439D01*
X85883466Y-110462862D01*
X86287138Y-110866534D01*
X86814561Y-111085000D01*
X87385439Y-111085000D01*
X87912862Y-110866534D01*
X88316534Y-110462862D01*
X88535000Y-109935439D01*
X88535000Y-109364561D01*
X88316534Y-108837138D01*
X87912862Y-108433466D01*
X87385439Y-108215000D01*
X86814561Y-108215000D01*
X86287138Y-108433466D01*
X85883466Y-108837138D01*
X85665000Y-109364561D01*
X66167000Y-109364561D01*
X66167000Y-104954778D01*
X71165000Y-104954778D01*
X71165000Y-105605222D01*
X71413914Y-106206153D01*
X71873847Y-106666086D01*
X72474778Y-106915000D01*
X73125222Y-106915000D01*
X73726153Y-106666086D01*
X74186086Y-106206153D01*
X74435000Y-105605222D01*
X74435000Y-104954778D01*
X77665000Y-104954778D01*
X77665000Y-105605222D01*
X77913914Y-106206153D01*
X78373847Y-106666086D01*
X78974778Y-106915000D01*
X79625222Y-106915000D01*
X80226153Y-106666086D01*
X80686086Y-106206153D01*
X80935000Y-105605222D01*
X80935000Y-104954778D01*
X80686086Y-104353847D01*
X80226153Y-103893914D01*
X79625222Y-103645000D01*
X78974778Y-103645000D01*
X78373847Y-103893914D01*
X77913914Y-104353847D01*
X77665000Y-104954778D01*
X74435000Y-104954778D01*
X74186086Y-104353847D01*
X73726153Y-103893914D01*
X73125222Y-103645000D01*
X72474778Y-103645000D01*
X71873847Y-103893914D01*
X71413914Y-104353847D01*
X71165000Y-104954778D01*
X66167000Y-104954778D01*
X66167000Y-101932532D01*
X71827073Y-101932532D01*
X71925736Y-102199387D01*
X72535461Y-102425908D01*
X73185460Y-102401856D01*
X73674264Y-102199387D01*
X73772927Y-101932532D01*
X78327073Y-101932532D01*
X78425736Y-102199387D01*
X79035461Y-102425908D01*
X79685460Y-102401856D01*
X80174264Y-102199387D01*
X80272927Y-101932532D01*
X79300000Y-100959605D01*
X78327073Y-101932532D01*
X73772927Y-101932532D01*
X72800000Y-100959605D01*
X71827073Y-101932532D01*
X66167000Y-101932532D01*
X66167000Y-100515461D01*
X71154092Y-100515461D01*
X71178144Y-101165460D01*
X71380613Y-101654264D01*
X71647468Y-101752927D01*
X72620395Y-100780000D01*
X72979605Y-100780000D01*
X73952532Y-101752927D01*
X74219387Y-101654264D01*
X74445908Y-101044539D01*
X74426331Y-100515461D01*
X77654092Y-100515461D01*
X77678144Y-101165460D01*
X77880613Y-101654264D01*
X78147468Y-101752927D01*
X79120395Y-100780000D01*
X79479605Y-100780000D01*
X80452532Y-101752927D01*
X80719387Y-101654264D01*
X80945908Y-101044539D01*
X80921856Y-100394540D01*
X80920405Y-100391036D01*
X86602193Y-100391036D01*
X86632518Y-100881413D01*
X86761836Y-101193617D01*
X86987263Y-101243129D01*
X86871570Y-101358822D01*
X86925718Y-101412970D01*
X86792191Y-101502191D01*
X86651843Y-101712235D01*
X86602560Y-101960000D01*
X86602560Y-103160000D01*
X86651843Y-103407765D01*
X86792191Y-103617809D01*
X87002235Y-103758157D01*
X87250000Y-103807440D01*
X88450000Y-103807440D01*
X88697765Y-103758157D01*
X88907809Y-103617809D01*
X89048157Y-103407765D01*
X89097440Y-103160000D01*
X89097440Y-102655274D01*
X92265500Y-102655274D01*
X92265500Y-103084726D01*
X92405201Y-103421994D01*
X92405200Y-105952446D01*
X92386790Y-106045000D01*
X92405200Y-106137554D01*
X92405200Y-106137558D01*
X92459728Y-106411690D01*
X92459729Y-106411691D01*
X92459729Y-106411692D01*
X92554148Y-106553000D01*
X92667443Y-106722557D01*
X92745910Y-106774987D01*
X93665144Y-107694222D01*
X93804844Y-108031488D01*
X94107054Y-108333698D01*
X93685423Y-108615423D01*
X93368260Y-109090091D01*
X93256887Y-109650000D01*
X93368260Y-110209909D01*
X93685423Y-110684577D01*
X94160091Y-111001740D01*
X94578667Y-111085000D01*
X94861333Y-111085000D01*
X95279909Y-111001740D01*
X95754577Y-110684577D01*
X96071740Y-110209909D01*
X96183113Y-109650000D01*
X96071740Y-109090091D01*
X95754577Y-108615423D01*
X95332946Y-108333698D01*
X95635156Y-108031488D01*
X95799500Y-107634726D01*
X95799500Y-107205274D01*
X95635156Y-106808512D01*
X95331488Y-106504844D01*
X94994222Y-106365144D01*
X94284800Y-105655723D01*
X94284800Y-103421992D01*
X94424500Y-103084726D01*
X94424500Y-102655274D01*
X94260156Y-102258512D01*
X93956488Y-101954844D01*
X93559726Y-101790500D01*
X93130274Y-101790500D01*
X92733512Y-101954844D01*
X92429844Y-102258512D01*
X92265500Y-102655274D01*
X89097440Y-102655274D01*
X89097440Y-101960000D01*
X89048157Y-101712235D01*
X88907809Y-101502191D01*
X88774282Y-101412970D01*
X88828430Y-101358822D01*
X88712737Y-101243129D01*
X88938164Y-101193617D01*
X89097807Y-100728964D01*
X89067482Y-100238587D01*
X88938164Y-99926383D01*
X88712735Y-99876870D01*
X88029605Y-100560000D01*
X88043748Y-100574143D01*
X87864143Y-100753748D01*
X87850000Y-100739605D01*
X87835858Y-100753748D01*
X87656253Y-100574143D01*
X87670395Y-100560000D01*
X86987265Y-99876870D01*
X86761836Y-99926383D01*
X86602193Y-100391036D01*
X80920405Y-100391036D01*
X80719387Y-99905736D01*
X80452532Y-99807073D01*
X79479605Y-100780000D01*
X79120395Y-100780000D01*
X78147468Y-99807073D01*
X77880613Y-99905736D01*
X77654092Y-100515461D01*
X74426331Y-100515461D01*
X74421856Y-100394540D01*
X74219387Y-99905736D01*
X73952532Y-99807073D01*
X72979605Y-100780000D01*
X72620395Y-100780000D01*
X71647468Y-99807073D01*
X71380613Y-99905736D01*
X71154092Y-100515461D01*
X66167000Y-100515461D01*
X66167000Y-99627468D01*
X71827073Y-99627468D01*
X72800000Y-100600395D01*
X73772927Y-99627468D01*
X78327073Y-99627468D01*
X79300000Y-100600395D01*
X80203130Y-99697265D01*
X87166870Y-99697265D01*
X87850000Y-100380395D01*
X88533130Y-99697265D01*
X88483617Y-99471836D01*
X88018964Y-99312193D01*
X87528587Y-99342518D01*
X87216383Y-99471836D01*
X87166870Y-99697265D01*
X80203130Y-99697265D01*
X80272927Y-99627468D01*
X80174264Y-99360613D01*
X79564539Y-99134092D01*
X78914540Y-99158144D01*
X78425736Y-99360613D01*
X78327073Y-99627468D01*
X73772927Y-99627468D01*
X73674264Y-99360613D01*
X73064539Y-99134092D01*
X72414540Y-99158144D01*
X71925736Y-99360613D01*
X71827073Y-99627468D01*
X66167000Y-99627468D01*
X66167000Y-96234561D01*
X72225000Y-96234561D01*
X72225000Y-96805439D01*
X72443466Y-97332862D01*
X72847138Y-97736534D01*
X73374561Y-97955000D01*
X73945439Y-97955000D01*
X74472862Y-97736534D01*
X74876534Y-97332862D01*
X75095000Y-96805439D01*
X75095000Y-96234561D01*
X74876534Y-95707138D01*
X74472862Y-95303466D01*
X74407701Y-95276475D01*
X74414005Y-95273864D01*
X74488139Y-95027745D01*
X73660000Y-94199605D01*
X72831861Y-95027745D01*
X72905995Y-95273864D01*
X72912746Y-95276290D01*
X72847138Y-95303466D01*
X72443466Y-95707138D01*
X72225000Y-96234561D01*
X66167000Y-96234561D01*
X66167000Y-93803223D01*
X72213035Y-93803223D01*
X72240222Y-94373454D01*
X72406136Y-94774005D01*
X72652255Y-94848139D01*
X73480395Y-94020000D01*
X73839605Y-94020000D01*
X74667745Y-94848139D01*
X74913864Y-94774005D01*
X75106965Y-94236777D01*
X75079778Y-93666546D01*
X75012659Y-93504506D01*
X79895000Y-93504506D01*
X79895000Y-94055494D01*
X80105853Y-94564540D01*
X80495460Y-94954147D01*
X81004506Y-95165000D01*
X81555494Y-95165000D01*
X82064540Y-94954147D01*
X82454147Y-94564540D01*
X82665000Y-94055494D01*
X82665000Y-93980000D01*
X84896887Y-93980000D01*
X85008260Y-94539909D01*
X85325423Y-95014577D01*
X85800091Y-95331740D01*
X86218667Y-95415000D01*
X86501333Y-95415000D01*
X86919909Y-95331740D01*
X87394577Y-95014577D01*
X87711740Y-94539909D01*
X87823113Y-93980000D01*
X87711740Y-93420091D01*
X87394577Y-92945423D01*
X86919909Y-92628260D01*
X86501333Y-92545000D01*
X86218667Y-92545000D01*
X85800091Y-92628260D01*
X85325423Y-92945423D01*
X85008260Y-93420091D01*
X84896887Y-93980000D01*
X82665000Y-93980000D01*
X82665000Y-93504506D01*
X82454147Y-92995460D01*
X82064540Y-92605853D01*
X81555494Y-92395000D01*
X81004506Y-92395000D01*
X80495460Y-92605853D01*
X80105853Y-92995460D01*
X79895000Y-93504506D01*
X75012659Y-93504506D01*
X74913864Y-93265995D01*
X74667745Y-93191861D01*
X73839605Y-94020000D01*
X73480395Y-94020000D01*
X72652255Y-93191861D01*
X72406136Y-93265995D01*
X72213035Y-93803223D01*
X66167000Y-93803223D01*
X66167000Y-93012255D01*
X72831861Y-93012255D01*
X73660000Y-93840395D01*
X74488139Y-93012255D01*
X74414005Y-92766136D01*
X73876777Y-92573035D01*
X73306546Y-92600222D01*
X72905995Y-92766136D01*
X72831861Y-93012255D01*
X66167000Y-93012255D01*
X66167000Y-91137745D01*
X72831861Y-91137745D01*
X72905995Y-91383864D01*
X73443223Y-91576965D01*
X74013454Y-91549778D01*
X74414005Y-91383864D01*
X74488139Y-91137745D01*
X73660000Y-90309605D01*
X72831861Y-91137745D01*
X66167000Y-91137745D01*
X66167000Y-89913223D01*
X72213035Y-89913223D01*
X72240222Y-90483454D01*
X72406136Y-90884005D01*
X72652255Y-90958139D01*
X73480395Y-90130000D01*
X73839605Y-90130000D01*
X74667745Y-90958139D01*
X74913864Y-90884005D01*
X75106965Y-90346777D01*
X75079778Y-89776546D01*
X74913864Y-89375995D01*
X74667745Y-89301861D01*
X73839605Y-90130000D01*
X73480395Y-90130000D01*
X72652255Y-89301861D01*
X72406136Y-89375995D01*
X72213035Y-89913223D01*
X66167000Y-89913223D01*
X66167000Y-87344561D01*
X72225000Y-87344561D01*
X72225000Y-87915439D01*
X72443466Y-88442862D01*
X72847138Y-88846534D01*
X72912299Y-88873525D01*
X72905995Y-88876136D01*
X72831861Y-89122255D01*
X73660000Y-89950395D01*
X74488139Y-89122255D01*
X74414005Y-88876136D01*
X74407254Y-88873710D01*
X74472862Y-88846534D01*
X74694890Y-88624506D01*
X79895000Y-88624506D01*
X79895000Y-89175494D01*
X80105853Y-89684540D01*
X80495460Y-90074147D01*
X81004506Y-90285000D01*
X81555494Y-90285000D01*
X82064540Y-90074147D01*
X82454147Y-89684540D01*
X82665000Y-89175494D01*
X82665000Y-88900000D01*
X84896887Y-88900000D01*
X85008260Y-89459909D01*
X85325423Y-89934577D01*
X85800091Y-90251740D01*
X86218667Y-90335000D01*
X86501333Y-90335000D01*
X86919909Y-90251740D01*
X87394577Y-89934577D01*
X87711740Y-89459909D01*
X87823113Y-88900000D01*
X87711740Y-88340091D01*
X87394577Y-87865423D01*
X86919909Y-87548260D01*
X86501333Y-87465000D01*
X86218667Y-87465000D01*
X85800091Y-87548260D01*
X85325423Y-87865423D01*
X85008260Y-88340091D01*
X84896887Y-88900000D01*
X82665000Y-88900000D01*
X82665000Y-88624506D01*
X82454147Y-88115460D01*
X82064540Y-87725853D01*
X81555494Y-87515000D01*
X81004506Y-87515000D01*
X80495460Y-87725853D01*
X80105853Y-88115460D01*
X79895000Y-88624506D01*
X74694890Y-88624506D01*
X74876534Y-88442862D01*
X75095000Y-87915439D01*
X75095000Y-87344561D01*
X74876534Y-86817138D01*
X74472862Y-86413466D01*
X73945439Y-86195000D01*
X73374561Y-86195000D01*
X72847138Y-86413466D01*
X72443466Y-86817138D01*
X72225000Y-87344561D01*
X66167000Y-87344561D01*
X66167000Y-82409039D01*
X69098096Y-82409039D01*
X69258959Y-82797423D01*
X69634866Y-83212389D01*
X70140959Y-83451914D01*
X70363000Y-83330629D01*
X70363000Y-82187000D01*
X70617000Y-82187000D01*
X70617000Y-83330629D01*
X70839041Y-83451914D01*
X71345134Y-83212389D01*
X71721041Y-82797423D01*
X71881904Y-82409039D01*
X71759915Y-82187000D01*
X70617000Y-82187000D01*
X70363000Y-82187000D01*
X69220085Y-82187000D01*
X69098096Y-82409039D01*
X66167000Y-82409039D01*
X66167000Y-81710961D01*
X69098096Y-81710961D01*
X69220085Y-81933000D01*
X70363000Y-81933000D01*
X70363000Y-80789371D01*
X70617000Y-80789371D01*
X70617000Y-81933000D01*
X71759915Y-81933000D01*
X71846961Y-81774561D01*
X76675000Y-81774561D01*
X76675000Y-82345439D01*
X76893466Y-82872862D01*
X77297138Y-83276534D01*
X77824561Y-83495000D01*
X78395439Y-83495000D01*
X78922862Y-83276534D01*
X79326534Y-82872862D01*
X79545000Y-82345439D01*
X79545000Y-82264561D01*
X84925000Y-82264561D01*
X84925000Y-82835439D01*
X85143466Y-83362862D01*
X85547138Y-83766534D01*
X86074561Y-83985000D01*
X86645439Y-83985000D01*
X87172862Y-83766534D01*
X87576534Y-83362862D01*
X87768655Y-82899039D01*
X92588096Y-82899039D01*
X92748959Y-83287423D01*
X93124866Y-83702389D01*
X93630959Y-83941914D01*
X93853000Y-83820629D01*
X93853000Y-82677000D01*
X92710085Y-82677000D01*
X92588096Y-82899039D01*
X87768655Y-82899039D01*
X87795000Y-82835439D01*
X87795000Y-82264561D01*
X87768656Y-82200961D01*
X92588096Y-82200961D01*
X92710085Y-82423000D01*
X93853000Y-82423000D01*
X93853000Y-81279371D01*
X93630959Y-81158086D01*
X93124866Y-81397611D01*
X92748959Y-81812577D01*
X92588096Y-82200961D01*
X87768656Y-82200961D01*
X87576534Y-81737138D01*
X87172862Y-81333466D01*
X86645439Y-81115000D01*
X86074561Y-81115000D01*
X85547138Y-81333466D01*
X85143466Y-81737138D01*
X84925000Y-82264561D01*
X79545000Y-82264561D01*
X79545000Y-81774561D01*
X79326534Y-81247138D01*
X78922862Y-80843466D01*
X78395439Y-80625000D01*
X77824561Y-80625000D01*
X77297138Y-80843466D01*
X76893466Y-81247138D01*
X76675000Y-81774561D01*
X71846961Y-81774561D01*
X71881904Y-81710961D01*
X71721041Y-81322577D01*
X71345134Y-80907611D01*
X70839041Y-80668086D01*
X70617000Y-80789371D01*
X70363000Y-80789371D01*
X70140959Y-80668086D01*
X69634866Y-80907611D01*
X69258959Y-81322577D01*
X69098096Y-81710961D01*
X66167000Y-81710961D01*
X66167000Y-76544670D01*
X72545000Y-76544670D01*
X72545000Y-77155330D01*
X72778690Y-77719507D01*
X73210493Y-78151310D01*
X73774670Y-78385000D01*
X74385330Y-78385000D01*
X74949507Y-78151310D01*
X75118725Y-77982092D01*
X75121843Y-77997765D01*
X75262191Y-78207809D01*
X75472235Y-78348157D01*
X75720000Y-78397440D01*
X77520000Y-78397440D01*
X77767765Y-78348157D01*
X77977809Y-78207809D01*
X78118157Y-77997765D01*
X78167440Y-77750000D01*
X78167440Y-75950000D01*
X78118157Y-75702235D01*
X77977809Y-75492191D01*
X77767765Y-75351843D01*
X77520000Y-75302560D01*
X75720000Y-75302560D01*
X75472235Y-75351843D01*
X75262191Y-75492191D01*
X75121843Y-75702235D01*
X75118725Y-75717908D01*
X74949507Y-75548690D01*
X74385330Y-75315000D01*
X73774670Y-75315000D01*
X73210493Y-75548690D01*
X72778690Y-75980493D01*
X72545000Y-76544670D01*
X66167000Y-76544670D01*
X66167000Y-68986400D01*
X89928960Y-68986400D01*
X89928960Y-70713600D01*
X89978243Y-70961365D01*
X90118591Y-71171409D01*
X90328635Y-71311757D01*
X90576400Y-71361040D01*
X92303600Y-71361040D01*
X92551365Y-71311757D01*
X92761409Y-71171409D01*
X92901757Y-70961365D01*
X92906932Y-70935349D01*
X93032187Y-71019042D01*
X93021790Y-71071314D01*
X93060200Y-71264416D01*
X93060201Y-77568006D01*
X92920500Y-77905274D01*
X92920500Y-78334726D01*
X93084844Y-78731488D01*
X93388512Y-79035156D01*
X93785274Y-79199500D01*
X94214726Y-79199500D01*
X94609700Y-79035896D01*
X94609700Y-81290917D01*
X94329041Y-81158086D01*
X94107000Y-81279371D01*
X94107000Y-82423000D01*
X94127000Y-82423000D01*
X94127000Y-82677000D01*
X94107000Y-82677000D01*
X94107000Y-83820629D01*
X94329041Y-83941914D01*
X94609700Y-83809083D01*
X94609701Y-87607598D01*
X94265439Y-87465000D01*
X93694561Y-87465000D01*
X93167138Y-87683466D01*
X92763466Y-88087138D01*
X92545000Y-88614561D01*
X92545000Y-89185439D01*
X92763466Y-89712862D01*
X93167138Y-90116534D01*
X93243401Y-90148123D01*
X93243400Y-92731877D01*
X93167138Y-92763466D01*
X92763466Y-93167138D01*
X92545000Y-93694561D01*
X92545000Y-94265439D01*
X92763466Y-94792862D01*
X93167138Y-95196534D01*
X93694561Y-95415000D01*
X94265439Y-95415000D01*
X94609701Y-95272402D01*
X94609701Y-104328444D01*
X94595271Y-104400978D01*
X94609701Y-104473534D01*
X94609701Y-104473544D01*
X94622833Y-104539564D01*
X94652431Y-104688385D01*
X94652438Y-104688395D01*
X94652440Y-104688407D01*
X94727822Y-104801223D01*
X94774135Y-104870541D01*
X94774146Y-104870552D01*
X94815243Y-104932058D01*
X94876731Y-104973143D01*
X99110156Y-109206823D01*
X99072191Y-109232191D01*
X98931843Y-109442235D01*
X98882560Y-109690000D01*
X98882560Y-110260730D01*
X97955442Y-111187849D01*
X97893942Y-111228942D01*
X97852849Y-111290442D01*
X97742628Y-111455399D01*
X97731139Y-111472594D01*
X97688400Y-111687457D01*
X97688400Y-111687460D01*
X97673971Y-111760000D01*
X97688400Y-111832540D01*
X97688401Y-116132455D01*
X97673971Y-116205000D01*
X97731139Y-116492406D01*
X97852849Y-116674558D01*
X97852852Y-116674561D01*
X97893943Y-116736058D01*
X97955440Y-116777149D01*
X98936802Y-117758512D01*
X98866887Y-118110000D01*
X98978260Y-118669909D01*
X99295423Y-119144577D01*
X99679108Y-119400947D01*
X99474866Y-119497611D01*
X99098959Y-119912577D01*
X98938096Y-120300961D01*
X99060085Y-120523000D01*
X100203000Y-120523000D01*
X100203000Y-120503000D01*
X100457000Y-120503000D01*
X100457000Y-120523000D01*
X101599915Y-120523000D01*
X101721904Y-120300961D01*
X101561041Y-119912577D01*
X101185134Y-119497611D01*
X100980892Y-119400947D01*
X101364577Y-119144577D01*
X101681740Y-118669909D01*
X101793113Y-118110000D01*
X101681740Y-117550091D01*
X101364577Y-117075423D01*
X101012242Y-116840000D01*
X101364577Y-116604577D01*
X101681740Y-116129909D01*
X101793113Y-115570000D01*
X106486887Y-115570000D01*
X106598260Y-116129909D01*
X106915423Y-116604577D01*
X107299108Y-116860947D01*
X107094866Y-116957611D01*
X106718959Y-117372577D01*
X106558096Y-117760961D01*
X106680085Y-117983000D01*
X107823000Y-117983000D01*
X107823000Y-117963000D01*
X108077000Y-117963000D01*
X108077000Y-117983000D01*
X109219915Y-117983000D01*
X109341904Y-117760961D01*
X109181041Y-117372577D01*
X108805134Y-116957611D01*
X108600892Y-116860947D01*
X108984577Y-116604577D01*
X109301740Y-116129909D01*
X109413113Y-115570000D01*
X109301740Y-115010091D01*
X108984577Y-114535423D01*
X108600892Y-114279053D01*
X108805134Y-114182389D01*
X109181041Y-113767423D01*
X109341904Y-113379039D01*
X109219915Y-113157000D01*
X108077000Y-113157000D01*
X108077000Y-113177000D01*
X107823000Y-113177000D01*
X107823000Y-113157000D01*
X106680085Y-113157000D01*
X106558096Y-113379039D01*
X106718959Y-113767423D01*
X107094866Y-114182389D01*
X107299108Y-114279053D01*
X106915423Y-114535423D01*
X106598260Y-115010091D01*
X106486887Y-115570000D01*
X101793113Y-115570000D01*
X101681740Y-115010091D01*
X101364577Y-114535423D01*
X101012242Y-114300000D01*
X101364577Y-114064577D01*
X101681740Y-113589909D01*
X101793113Y-113030000D01*
X101681740Y-112470091D01*
X101364577Y-111995423D01*
X101243894Y-111914785D01*
X101377765Y-111888157D01*
X101587809Y-111747809D01*
X101728157Y-111537765D01*
X101777440Y-111290000D01*
X101777440Y-109690000D01*
X101728157Y-109442235D01*
X101606674Y-109260425D01*
X101895861Y-109549577D01*
X101936942Y-109611058D01*
X101998460Y-109652163D01*
X101998476Y-109652179D01*
X102056278Y-109690796D01*
X102180593Y-109773861D01*
X102180617Y-109773866D01*
X102180635Y-109773878D01*
X102314758Y-109800548D01*
X102395456Y-109816600D01*
X102395482Y-109816600D01*
X102468045Y-109831029D01*
X102540563Y-109816600D01*
X106017460Y-109816600D01*
X106090000Y-109831029D01*
X106162540Y-109816600D01*
X106162544Y-109816600D01*
X106377407Y-109773861D01*
X106621058Y-109611058D01*
X106662151Y-109549558D01*
X106947110Y-109264600D01*
X107201010Y-109264600D01*
X106915423Y-109455423D01*
X106598260Y-109930091D01*
X106486887Y-110490000D01*
X106598260Y-111049909D01*
X106915423Y-111524577D01*
X107299108Y-111780947D01*
X107094866Y-111877611D01*
X106718959Y-112292577D01*
X106558096Y-112680961D01*
X106680085Y-112903000D01*
X107823000Y-112903000D01*
X107823000Y-112883000D01*
X108077000Y-112883000D01*
X108077000Y-112903000D01*
X109219915Y-112903000D01*
X109341904Y-112680961D01*
X109181041Y-112292577D01*
X108805134Y-111877611D01*
X108600892Y-111780947D01*
X108984577Y-111524577D01*
X109301740Y-111049909D01*
X109413113Y-110490000D01*
X109301740Y-109930091D01*
X108984577Y-109455423D01*
X108698990Y-109264600D01*
X110418891Y-109264600D01*
X118463851Y-117309561D01*
X118504942Y-117371058D01*
X118566439Y-117412149D01*
X118566441Y-117412151D01*
X118733790Y-117523970D01*
X118748593Y-117533861D01*
X118963456Y-117576600D01*
X118963459Y-117576600D01*
X119035999Y-117591029D01*
X119108540Y-117576600D01*
X121956321Y-117576600D01*
X122155423Y-117874577D01*
X122507758Y-118110000D01*
X122155423Y-118345423D01*
X121838260Y-118820091D01*
X121726887Y-119380000D01*
X121838260Y-119939909D01*
X122155423Y-120414577D01*
X122507758Y-120650000D01*
X122155423Y-120885423D01*
X121838260Y-121360091D01*
X121726887Y-121920000D01*
X121838260Y-122479909D01*
X122155423Y-122954577D01*
X122507758Y-123190000D01*
X122155423Y-123425423D01*
X121838260Y-123900091D01*
X121726887Y-124460000D01*
X121838260Y-125019909D01*
X122155423Y-125494577D01*
X122507758Y-125730000D01*
X122155423Y-125965423D01*
X121838260Y-126440091D01*
X121726887Y-127000000D01*
X121838260Y-127559909D01*
X122155423Y-128034577D01*
X122630091Y-128351740D01*
X123048667Y-128435000D01*
X123331333Y-128435000D01*
X123749909Y-128351740D01*
X124224577Y-128034577D01*
X124541740Y-127559909D01*
X124653113Y-127000000D01*
X124541740Y-126440091D01*
X124224577Y-125965423D01*
X123872242Y-125730000D01*
X124224577Y-125494577D01*
X124541740Y-125019909D01*
X124653113Y-124460000D01*
X124541740Y-123900091D01*
X124224577Y-123425423D01*
X123872242Y-123190000D01*
X124224577Y-122954577D01*
X124541740Y-122479909D01*
X124653113Y-121920000D01*
X124541740Y-121360091D01*
X124224577Y-120885423D01*
X123872242Y-120650000D01*
X124224577Y-120414577D01*
X124541740Y-119939909D01*
X124653113Y-119380000D01*
X124541740Y-118820091D01*
X124224577Y-118345423D01*
X123872242Y-118110000D01*
X124224577Y-117874577D01*
X124541740Y-117399909D01*
X124653113Y-116840000D01*
X124541740Y-116280091D01*
X124224577Y-115805423D01*
X123872242Y-115570000D01*
X124224577Y-115334577D01*
X124541740Y-114859909D01*
X124653113Y-114300000D01*
X124541740Y-113740091D01*
X124224577Y-113265423D01*
X123872242Y-113030000D01*
X124224577Y-112794577D01*
X124541740Y-112319909D01*
X124653113Y-111760000D01*
X124541740Y-111200091D01*
X124224577Y-110725423D01*
X123872242Y-110490000D01*
X124224577Y-110254577D01*
X124541740Y-109779909D01*
X124653113Y-109220000D01*
X124541740Y-108660091D01*
X124224577Y-108185423D01*
X123872242Y-107950000D01*
X124224577Y-107714577D01*
X124541740Y-107239909D01*
X124653113Y-106680000D01*
X124541740Y-106120091D01*
X124224577Y-105645423D01*
X123872242Y-105410000D01*
X124224577Y-105174577D01*
X124541740Y-104699909D01*
X124653113Y-104140000D01*
X124596336Y-103854561D01*
X128105000Y-103854561D01*
X128105000Y-104425439D01*
X128323466Y-104952862D01*
X128727138Y-105356534D01*
X129254561Y-105575000D01*
X129825439Y-105575000D01*
X130352862Y-105356534D01*
X130561651Y-105147745D01*
X131211861Y-105147745D01*
X131285995Y-105393864D01*
X131823223Y-105586965D01*
X132393454Y-105559778D01*
X132794005Y-105393864D01*
X132868139Y-105147745D01*
X132040000Y-104319605D01*
X131211861Y-105147745D01*
X130561651Y-105147745D01*
X130756534Y-104952862D01*
X130783525Y-104887701D01*
X130786136Y-104894005D01*
X131032255Y-104968139D01*
X131860395Y-104140000D01*
X131032255Y-103311861D01*
X130786136Y-103385995D01*
X130783710Y-103392746D01*
X130756534Y-103327138D01*
X130352862Y-102923466D01*
X129825439Y-102705000D01*
X129254561Y-102705000D01*
X128727138Y-102923466D01*
X128323466Y-103327138D01*
X128105000Y-103854561D01*
X124596336Y-103854561D01*
X124541740Y-103580091D01*
X124224577Y-103105423D01*
X123872242Y-102870000D01*
X124224577Y-102634577D01*
X124541740Y-102159909D01*
X124653113Y-101600000D01*
X124541740Y-101040091D01*
X124224577Y-100565423D01*
X123872242Y-100330000D01*
X124224577Y-100094577D01*
X124541740Y-99619909D01*
X124653113Y-99060000D01*
X124541740Y-98500091D01*
X124224577Y-98025423D01*
X123904007Y-97811225D01*
X123913746Y-97762268D01*
X124224577Y-97554577D01*
X124541740Y-97079909D01*
X124653113Y-96520000D01*
X124541740Y-95960091D01*
X124224577Y-95485423D01*
X123904007Y-95271225D01*
X123913746Y-95222268D01*
X124224577Y-95014577D01*
X124436181Y-94697890D01*
X132529270Y-102790980D01*
X132256777Y-102693035D01*
X131686546Y-102720222D01*
X131285995Y-102886136D01*
X131211861Y-103132255D01*
X132040000Y-103960395D01*
X132054142Y-103946252D01*
X132233748Y-104125858D01*
X132219605Y-104140000D01*
X133047745Y-104968139D01*
X133293864Y-104894005D01*
X133486965Y-104356777D01*
X133459778Y-103786546D01*
X133413775Y-103675485D01*
X134590401Y-104852111D01*
X134590400Y-107618460D01*
X134575971Y-107691000D01*
X134590400Y-107763540D01*
X134590400Y-107763543D01*
X134633139Y-107978406D01*
X134795942Y-108222058D01*
X134857442Y-108263151D01*
X137365098Y-110770808D01*
X137078260Y-111200091D01*
X136966887Y-111760000D01*
X137078260Y-112319909D01*
X137395423Y-112794577D01*
X137747758Y-113030000D01*
X137395423Y-113265423D01*
X137078260Y-113740091D01*
X136966887Y-114300000D01*
X137078260Y-114859909D01*
X137395423Y-115334577D01*
X137747758Y-115570000D01*
X137395423Y-115805423D01*
X137078260Y-116280091D01*
X136966887Y-116840000D01*
X137078260Y-117399909D01*
X137395423Y-117874577D01*
X137747758Y-118110000D01*
X137395423Y-118345423D01*
X137078260Y-118820091D01*
X136966887Y-119380000D01*
X137078260Y-119939909D01*
X137395423Y-120414577D01*
X137747758Y-120650000D01*
X137395423Y-120885423D01*
X137078260Y-121360091D01*
X136966887Y-121920000D01*
X137078260Y-122479909D01*
X137395423Y-122954577D01*
X137747758Y-123190000D01*
X137395423Y-123425423D01*
X137078260Y-123900091D01*
X136966887Y-124460000D01*
X137078260Y-125019909D01*
X137395423Y-125494577D01*
X137747758Y-125730000D01*
X137395423Y-125965423D01*
X137078260Y-126440091D01*
X136966887Y-127000000D01*
X137078260Y-127559909D01*
X137395423Y-128034577D01*
X137870091Y-128351740D01*
X138288667Y-128435000D01*
X138571333Y-128435000D01*
X138989909Y-128351740D01*
X139464577Y-128034577D01*
X139781740Y-127559909D01*
X139893113Y-127000000D01*
X139781740Y-126440091D01*
X139464577Y-125965423D01*
X139112242Y-125730000D01*
X139464577Y-125494577D01*
X139781740Y-125019909D01*
X139893113Y-124460000D01*
X139781740Y-123900091D01*
X139464577Y-123425423D01*
X139112242Y-123190000D01*
X139376464Y-123013452D01*
X139408942Y-123062058D01*
X139470442Y-123103151D01*
X144965851Y-128598561D01*
X145006942Y-128660058D01*
X145068439Y-128701149D01*
X145068441Y-128701151D01*
X145240364Y-128816026D01*
X145250593Y-128822861D01*
X145465456Y-128865600D01*
X145465459Y-128865600D01*
X145538000Y-128880029D01*
X145610540Y-128865600D01*
X151363460Y-128865600D01*
X151436000Y-128880029D01*
X151508540Y-128865600D01*
X151508544Y-128865600D01*
X151723407Y-128822861D01*
X151967058Y-128660058D01*
X152008151Y-128598558D01*
X152610072Y-127996637D01*
X152635423Y-128034577D01*
X153110091Y-128351740D01*
X153528667Y-128435000D01*
X153811333Y-128435000D01*
X154229909Y-128351740D01*
X154704577Y-128034577D01*
X155021740Y-127559909D01*
X155112141Y-127105431D01*
X156615000Y-127105431D01*
X156615000Y-127994569D01*
X156955259Y-128816026D01*
X157583974Y-129444741D01*
X158405431Y-129785000D01*
X159294569Y-129785000D01*
X160116026Y-129444741D01*
X160744741Y-128816026D01*
X161085000Y-127994569D01*
X161085000Y-127105431D01*
X160744741Y-126283974D01*
X160116026Y-125655259D01*
X159294569Y-125315000D01*
X158405431Y-125315000D01*
X157583974Y-125655259D01*
X156955259Y-126283974D01*
X156615000Y-127105431D01*
X155112141Y-127105431D01*
X155133113Y-127000000D01*
X155021740Y-126440091D01*
X154704577Y-125965423D01*
X154352242Y-125730000D01*
X154704577Y-125494577D01*
X155021740Y-125019909D01*
X155133113Y-124460000D01*
X155021740Y-123900091D01*
X154704577Y-123425423D01*
X154352242Y-123190000D01*
X154704577Y-122954577D01*
X155021740Y-122479909D01*
X155133113Y-121920000D01*
X155021740Y-121360091D01*
X154732843Y-120927726D01*
X155246796Y-120412992D01*
X155308058Y-120372058D01*
X155349306Y-120310326D01*
X155349508Y-120310124D01*
X155389819Y-120249695D01*
X155470861Y-120128407D01*
X155470918Y-120128120D01*
X155471079Y-120127879D01*
X155499362Y-119985124D01*
X155513600Y-119913544D01*
X155513600Y-119913258D01*
X155528029Y-119840429D01*
X155513600Y-119768176D01*
X155513600Y-89192235D01*
X155528029Y-89119691D01*
X155502686Y-88992287D01*
X155470861Y-88832293D01*
X155470859Y-88832290D01*
X155470858Y-88832286D01*
X155349146Y-88650135D01*
X155308058Y-88588642D01*
X155246557Y-88547548D01*
X137873946Y-71175307D01*
X138240430Y-70930430D01*
X138430000Y-70646719D01*
X138619570Y-70930430D01*
X139115275Y-71261650D01*
X139552402Y-71348600D01*
X139847598Y-71348600D01*
X140284725Y-71261650D01*
X140780430Y-70930430D01*
X141111650Y-70434725D01*
X141227959Y-69850000D01*
X141111650Y-69265275D01*
X140780430Y-68769570D01*
X140496719Y-68580000D01*
X140780430Y-68390430D01*
X141111650Y-67894725D01*
X141227959Y-67310000D01*
X141111650Y-66725275D01*
X140780430Y-66229570D01*
X140284725Y-65898350D01*
X139847598Y-65811400D01*
X139552402Y-65811400D01*
X139115275Y-65898350D01*
X138761044Y-66135040D01*
X137872186Y-65245894D01*
X137831058Y-65184342D01*
X137705878Y-65100699D01*
X137587519Y-65021586D01*
X137587460Y-65021574D01*
X137587407Y-65021539D01*
X137439067Y-64992032D01*
X137300121Y-64964371D01*
X137227520Y-64978800D01*
X119389540Y-64978800D01*
X119316999Y-64964371D01*
X119244459Y-64978800D01*
X119244456Y-64978800D01*
X119029824Y-65021493D01*
X119029593Y-65021539D01*
X118847441Y-65143249D01*
X118847439Y-65143251D01*
X118785942Y-65184342D01*
X118744850Y-65245840D01*
X117824931Y-66165760D01*
X117424725Y-65898350D01*
X116987598Y-65811400D01*
X116692402Y-65811400D01*
X116255275Y-65898350D01*
X115870362Y-66155541D01*
X114896110Y-65181681D01*
X114855058Y-65120242D01*
X114793494Y-65079106D01*
X114793443Y-65079055D01*
X114735558Y-65040395D01*
X114611407Y-64957439D01*
X114611329Y-64957424D01*
X114611267Y-64957382D01*
X114471431Y-64929596D01*
X114396544Y-64914700D01*
X114396465Y-64914700D01*
X114323850Y-64900271D01*
X114251386Y-64914700D01*
X96582940Y-64914700D01*
X96510399Y-64900271D01*
X96437859Y-64914700D01*
X96437856Y-64914700D01*
X96223280Y-64957382D01*
X96222993Y-64957439D01*
X96040841Y-65079149D01*
X96040839Y-65079151D01*
X95979342Y-65120242D01*
X95938250Y-65181740D01*
X94931515Y-66188476D01*
X94754947Y-66027312D01*
X94339026Y-65855042D01*
X94107000Y-65976183D01*
X94107000Y-67183000D01*
X94127000Y-67183000D01*
X94127000Y-67437000D01*
X94107000Y-67437000D01*
X94107000Y-67457000D01*
X93853000Y-67457000D01*
X93853000Y-67437000D01*
X91567000Y-67437000D01*
X91567000Y-67457000D01*
X91313000Y-67457000D01*
X91313000Y-67437000D01*
X90105531Y-67437000D01*
X89985032Y-67669027D01*
X90233179Y-68198490D01*
X90420950Y-68369881D01*
X90328635Y-68388243D01*
X90118591Y-68528591D01*
X89978243Y-68738635D01*
X89928960Y-68986400D01*
X66167000Y-68986400D01*
X66167000Y-66950973D01*
X89985032Y-66950973D01*
X90105531Y-67183000D01*
X91313000Y-67183000D01*
X91313000Y-65976183D01*
X91567000Y-65976183D01*
X91567000Y-67183000D01*
X93853000Y-67183000D01*
X93853000Y-65976183D01*
X93620974Y-65855042D01*
X93205053Y-66027312D01*
X92773179Y-66421510D01*
X92710000Y-66556313D01*
X92646821Y-66421510D01*
X92214947Y-66027312D01*
X91799026Y-65855042D01*
X91567000Y-65976183D01*
X91313000Y-65976183D01*
X91080974Y-65855042D01*
X90665053Y-66027312D01*
X90233179Y-66421510D01*
X89985032Y-66950973D01*
X66167000Y-66950973D01*
X66167000Y-61255431D01*
X67540000Y-61255431D01*
X67540000Y-62144569D01*
X67880259Y-62966026D01*
X68508974Y-63594741D01*
X69330431Y-63935000D01*
X70219569Y-63935000D01*
X71041026Y-63594741D01*
X71669741Y-62966026D01*
X72010000Y-62144569D01*
X72010000Y-61255431D01*
X156590000Y-61255431D01*
X156590000Y-62144569D01*
X156930259Y-62966026D01*
X157558974Y-63594741D01*
X158380431Y-63935000D01*
X159269569Y-63935000D01*
X160091026Y-63594741D01*
X160719741Y-62966026D01*
X161060000Y-62144569D01*
X161060000Y-61255431D01*
X160719741Y-60433974D01*
X160091026Y-59805259D01*
X159269569Y-59465000D01*
X158380431Y-59465000D01*
X157558974Y-59805259D01*
X156930259Y-60433974D01*
X156590000Y-61255431D01*
X72010000Y-61255431D01*
X71669741Y-60433974D01*
X71041026Y-59805259D01*
X70219569Y-59465000D01*
X69330431Y-59465000D01*
X68508974Y-59805259D01*
X67880259Y-60433974D01*
X67540000Y-61255431D01*
X66167000Y-61255431D01*
X66167000Y-58547000D01*
X162433000Y-58547000D01*
X162433000Y-130683000D01*
G36*
X151828401Y-90850613D02*
X151828400Y-106661772D01*
X151386777Y-106503035D01*
X150816546Y-106530222D01*
X150415995Y-106696136D01*
X150341861Y-106942255D01*
X151170000Y-107770395D01*
X151184142Y-107756252D01*
X151363748Y-107935858D01*
X151349605Y-107950000D01*
X151363748Y-107964143D01*
X151184142Y-108143748D01*
X151170000Y-108129605D01*
X150341861Y-108957745D01*
X150415995Y-109203864D01*
X150953223Y-109396965D01*
X151523454Y-109369778D01*
X151828400Y-109243465D01*
X151828400Y-117235460D01*
X151813971Y-117308000D01*
X151828400Y-117380540D01*
X151828400Y-117380543D01*
X151871139Y-117595406D01*
X152033942Y-117839058D01*
X152095442Y-117880151D01*
X152605499Y-118390208D01*
X152411971Y-118679842D01*
X150833600Y-117100960D01*
X150833600Y-116666044D01*
X151012156Y-116487488D01*
X151176500Y-116090726D01*
X151176500Y-115661274D01*
X151012156Y-115264512D01*
X150708488Y-114960844D01*
X150311726Y-114796500D01*
X149882274Y-114796500D01*
X149485512Y-114960844D01*
X149181844Y-115264512D01*
X149017500Y-115661274D01*
X149017500Y-116090726D01*
X149181844Y-116487488D01*
X149360401Y-116666045D01*
X149360401Y-117333396D01*
X149345971Y-117405879D01*
X149360401Y-117478485D01*
X149360401Y-117478544D01*
X149374223Y-117548033D01*
X149403093Y-117693294D01*
X149403128Y-117693346D01*
X149403140Y-117693407D01*
X149483336Y-117813428D01*
X149524773Y-117875465D01*
X149524817Y-117875509D01*
X149565943Y-117937058D01*
X149627392Y-117978117D01*
X152594693Y-120946379D01*
X152318260Y-121360091D01*
X152206887Y-121920000D01*
X152318260Y-122479909D01*
X152635423Y-122954577D01*
X152987758Y-123190000D01*
X152635423Y-123425423D01*
X152318260Y-123900091D01*
X152206887Y-124460000D01*
X152318260Y-125019909D01*
X152635423Y-125494577D01*
X152987758Y-125730000D01*
X152635423Y-125965423D01*
X152427717Y-126276277D01*
X152277593Y-126306139D01*
X152095441Y-126427849D01*
X152095439Y-126427851D01*
X152033942Y-126468942D01*
X151992850Y-126530440D01*
X151130891Y-127392400D01*
X147423945Y-127392400D01*
X147441904Y-127349039D01*
X147319915Y-127127000D01*
X146177000Y-127127000D01*
X146177000Y-127147000D01*
X145923000Y-127147000D01*
X145923000Y-127127000D01*
X145903000Y-127127000D01*
X145903000Y-126873000D01*
X145923000Y-126873000D01*
X145923000Y-126853000D01*
X146177000Y-126853000D01*
X146177000Y-126873000D01*
X147319915Y-126873000D01*
X147441904Y-126650961D01*
X147281041Y-126262577D01*
X146905134Y-125847611D01*
X146700892Y-125750947D01*
X147084577Y-125494577D01*
X147401740Y-125019909D01*
X147513113Y-124460000D01*
X147401740Y-123900091D01*
X147084577Y-123425423D01*
X146773723Y-123217717D01*
X146763990Y-123168787D01*
X147084577Y-122954577D01*
X147401740Y-122479909D01*
X147513113Y-121920000D01*
X147401740Y-121360091D01*
X147084577Y-120885423D01*
X146732242Y-120650000D01*
X147084577Y-120414577D01*
X147401740Y-119939909D01*
X147513113Y-119380000D01*
X147401740Y-118820091D01*
X147114501Y-118390208D01*
X147626560Y-117878150D01*
X147688058Y-117837058D01*
X147729149Y-117775561D01*
X147729151Y-117775559D01*
X147850861Y-117593407D01*
X147859477Y-117550091D01*
X147893600Y-117378544D01*
X147893600Y-117378541D01*
X147908029Y-117306000D01*
X147893600Y-117233460D01*
X147893600Y-116355540D01*
X147908029Y-116283000D01*
X147893600Y-116210457D01*
X147893600Y-116210456D01*
X147850861Y-115995593D01*
X147752347Y-115848157D01*
X147729151Y-115813441D01*
X147729149Y-115813439D01*
X147688058Y-115751942D01*
X147626561Y-115710851D01*
X147150951Y-115235241D01*
X147401740Y-114859909D01*
X147513113Y-114300000D01*
X147401740Y-113740091D01*
X147084577Y-113265423D01*
X146963894Y-113184785D01*
X147097765Y-113158157D01*
X147307809Y-113017809D01*
X147448157Y-112807765D01*
X147497440Y-112560000D01*
X147497440Y-110960000D01*
X147448157Y-110712235D01*
X147307809Y-110502191D01*
X147097765Y-110361843D01*
X146850000Y-110312560D01*
X145250000Y-110312560D01*
X145002235Y-110361843D01*
X144792191Y-110502191D01*
X144651843Y-110712235D01*
X144602560Y-110960000D01*
X144602560Y-112560000D01*
X144643741Y-112767031D01*
X139609933Y-107733223D01*
X149723035Y-107733223D01*
X149750222Y-108303454D01*
X149916136Y-108704005D01*
X150162255Y-108778139D01*
X150990395Y-107950000D01*
X150162255Y-107121861D01*
X149916136Y-107195995D01*
X149723035Y-107733223D01*
X139609933Y-107733223D01*
X139486647Y-107609938D01*
X139661041Y-107417423D01*
X139821904Y-107029039D01*
X139699915Y-106807000D01*
X138557000Y-106807000D01*
X138557000Y-106827000D01*
X138303000Y-106827000D01*
X138303000Y-106807000D01*
X138283000Y-106807000D01*
X138283000Y-106553000D01*
X138303000Y-106553000D01*
X138303000Y-106533000D01*
X138557000Y-106533000D01*
X138557000Y-106553000D01*
X139699915Y-106553000D01*
X139821904Y-106330961D01*
X139661041Y-105942577D01*
X139285134Y-105527611D01*
X139080892Y-105430947D01*
X139464577Y-105174577D01*
X139781740Y-104699909D01*
X139893113Y-104140000D01*
X139781740Y-103580091D01*
X139464577Y-103105423D01*
X139153723Y-102897717D01*
X139143990Y-102848787D01*
X139464577Y-102634577D01*
X139781740Y-102159909D01*
X139893113Y-101600000D01*
X139781740Y-101040091D01*
X139464577Y-100565423D01*
X139153723Y-100357717D01*
X139143990Y-100308787D01*
X139464577Y-100094577D01*
X139781740Y-99619909D01*
X139893113Y-99060000D01*
X139781740Y-98500091D01*
X139464577Y-98025423D01*
X139153746Y-97817732D01*
X139144007Y-97768775D01*
X139464577Y-97554577D01*
X139781740Y-97079909D01*
X139893113Y-96520000D01*
X139781740Y-95960091D01*
X139464577Y-95485423D01*
X139153746Y-95277732D01*
X139144007Y-95228775D01*
X139464577Y-95014577D01*
X139781740Y-94539909D01*
X139893113Y-93980000D01*
X139781740Y-93420091D01*
X139464577Y-92945423D01*
X139153746Y-92737732D01*
X139144007Y-92688775D01*
X139464577Y-92474577D01*
X139781740Y-91999909D01*
X139893113Y-91440000D01*
X139781740Y-90880091D01*
X139464577Y-90405423D01*
X139153746Y-90197732D01*
X139144007Y-90148775D01*
X139464577Y-89934577D01*
X139781740Y-89459909D01*
X139893113Y-88900000D01*
X139781740Y-88340091D01*
X139464577Y-87865423D01*
X139153746Y-87657732D01*
X139144007Y-87608775D01*
X139464577Y-87394577D01*
X139781740Y-86919909D01*
X139893113Y-86360000D01*
X139781740Y-85800091D01*
X139464577Y-85325423D01*
X139153746Y-85117732D01*
X139144007Y-85068775D01*
X139464577Y-84854577D01*
X139781740Y-84379909D01*
X139893113Y-83820000D01*
X139781740Y-83260091D01*
X139464577Y-82785423D01*
X139153746Y-82577732D01*
X139144007Y-82528775D01*
X139464577Y-82314577D01*
X139781740Y-81839909D01*
X139893113Y-81280000D01*
X139781740Y-80720091D01*
X139464577Y-80245423D01*
X139153746Y-80037732D01*
X139144007Y-79988775D01*
X139464577Y-79774577D01*
X139781740Y-79299909D01*
X139863999Y-78886365D01*
X151828401Y-90850613D01*
X151828401Y-90850613D01*
G37*
X151828401Y-90850613D02*
X151828400Y-106661772D01*
X151386777Y-106503035D01*
X150816546Y-106530222D01*
X150415995Y-106696136D01*
X150341861Y-106942255D01*
X151170000Y-107770395D01*
X151184142Y-107756252D01*
X151363748Y-107935858D01*
X151349605Y-107950000D01*
X151363748Y-107964143D01*
X151184142Y-108143748D01*
X151170000Y-108129605D01*
X150341861Y-108957745D01*
X150415995Y-109203864D01*
X150953223Y-109396965D01*
X151523454Y-109369778D01*
X151828400Y-109243465D01*
X151828400Y-117235460D01*
X151813971Y-117308000D01*
X151828400Y-117380540D01*
X151828400Y-117380543D01*
X151871139Y-117595406D01*
X152033942Y-117839058D01*
X152095442Y-117880151D01*
X152605499Y-118390208D01*
X152411971Y-118679842D01*
X150833600Y-117100960D01*
X150833600Y-116666044D01*
X151012156Y-116487488D01*
X151176500Y-116090726D01*
X151176500Y-115661274D01*
X151012156Y-115264512D01*
X150708488Y-114960844D01*
X150311726Y-114796500D01*
X149882274Y-114796500D01*
X149485512Y-114960844D01*
X149181844Y-115264512D01*
X149017500Y-115661274D01*
X149017500Y-116090726D01*
X149181844Y-116487488D01*
X149360401Y-116666045D01*
X149360401Y-117333396D01*
X149345971Y-117405879D01*
X149360401Y-117478485D01*
X149360401Y-117478544D01*
X149374223Y-117548033D01*
X149403093Y-117693294D01*
X149403128Y-117693346D01*
X149403140Y-117693407D01*
X149483336Y-117813428D01*
X149524773Y-117875465D01*
X149524817Y-117875509D01*
X149565943Y-117937058D01*
X149627392Y-117978117D01*
X152594693Y-120946379D01*
X152318260Y-121360091D01*
X152206887Y-121920000D01*
X152318260Y-122479909D01*
X152635423Y-122954577D01*
X152987758Y-123190000D01*
X152635423Y-123425423D01*
X152318260Y-123900091D01*
X152206887Y-124460000D01*
X152318260Y-125019909D01*
X152635423Y-125494577D01*
X152987758Y-125730000D01*
X152635423Y-125965423D01*
X152427717Y-126276277D01*
X152277593Y-126306139D01*
X152095441Y-126427849D01*
X152095439Y-126427851D01*
X152033942Y-126468942D01*
X151992850Y-126530440D01*
X151130891Y-127392400D01*
X147423945Y-127392400D01*
X147441904Y-127349039D01*
X147319915Y-127127000D01*
X146177000Y-127127000D01*
X146177000Y-127147000D01*
X145923000Y-127147000D01*
X145923000Y-127127000D01*
X145903000Y-127127000D01*
X145903000Y-126873000D01*
X145923000Y-126873000D01*
X145923000Y-126853000D01*
X146177000Y-126853000D01*
X146177000Y-126873000D01*
X147319915Y-126873000D01*
X147441904Y-126650961D01*
X147281041Y-126262577D01*
X146905134Y-125847611D01*
X146700892Y-125750947D01*
X147084577Y-125494577D01*
X147401740Y-125019909D01*
X147513113Y-124460000D01*
X147401740Y-123900091D01*
X147084577Y-123425423D01*
X146773723Y-123217717D01*
X146763990Y-123168787D01*
X147084577Y-122954577D01*
X147401740Y-122479909D01*
X147513113Y-121920000D01*
X147401740Y-121360091D01*
X147084577Y-120885423D01*
X146732242Y-120650000D01*
X147084577Y-120414577D01*
X147401740Y-119939909D01*
X147513113Y-119380000D01*
X147401740Y-118820091D01*
X147114501Y-118390208D01*
X147626560Y-117878150D01*
X147688058Y-117837058D01*
X147729149Y-117775561D01*
X147729151Y-117775559D01*
X147850861Y-117593407D01*
X147859477Y-117550091D01*
X147893600Y-117378544D01*
X147893600Y-117378541D01*
X147908029Y-117306000D01*
X147893600Y-117233460D01*
X147893600Y-116355540D01*
X147908029Y-116283000D01*
X147893600Y-116210457D01*
X147893600Y-116210456D01*
X147850861Y-115995593D01*
X147752347Y-115848157D01*
X147729151Y-115813441D01*
X147729149Y-115813439D01*
X147688058Y-115751942D01*
X147626561Y-115710851D01*
X147150951Y-115235241D01*
X147401740Y-114859909D01*
X147513113Y-114300000D01*
X147401740Y-113740091D01*
X147084577Y-113265423D01*
X146963894Y-113184785D01*
X147097765Y-113158157D01*
X147307809Y-113017809D01*
X147448157Y-112807765D01*
X147497440Y-112560000D01*
X147497440Y-110960000D01*
X147448157Y-110712235D01*
X147307809Y-110502191D01*
X147097765Y-110361843D01*
X146850000Y-110312560D01*
X145250000Y-110312560D01*
X145002235Y-110361843D01*
X144792191Y-110502191D01*
X144651843Y-110712235D01*
X144602560Y-110960000D01*
X144602560Y-112560000D01*
X144643741Y-112767031D01*
X139609933Y-107733223D01*
X149723035Y-107733223D01*
X149750222Y-108303454D01*
X149916136Y-108704005D01*
X150162255Y-108778139D01*
X150990395Y-107950000D01*
X150162255Y-107121861D01*
X149916136Y-107195995D01*
X149723035Y-107733223D01*
X139609933Y-107733223D01*
X139486647Y-107609938D01*
X139661041Y-107417423D01*
X139821904Y-107029039D01*
X139699915Y-106807000D01*
X138557000Y-106807000D01*
X138557000Y-106827000D01*
X138303000Y-106827000D01*
X138303000Y-106807000D01*
X138283000Y-106807000D01*
X138283000Y-106553000D01*
X138303000Y-106553000D01*
X138303000Y-106533000D01*
X138557000Y-106533000D01*
X138557000Y-106553000D01*
X139699915Y-106553000D01*
X139821904Y-106330961D01*
X139661041Y-105942577D01*
X139285134Y-105527611D01*
X139080892Y-105430947D01*
X139464577Y-105174577D01*
X139781740Y-104699909D01*
X139893113Y-104140000D01*
X139781740Y-103580091D01*
X139464577Y-103105423D01*
X139153723Y-102897717D01*
X139143990Y-102848787D01*
X139464577Y-102634577D01*
X139781740Y-102159909D01*
X139893113Y-101600000D01*
X139781740Y-101040091D01*
X139464577Y-100565423D01*
X139153723Y-100357717D01*
X139143990Y-100308787D01*
X139464577Y-100094577D01*
X139781740Y-99619909D01*
X139893113Y-99060000D01*
X139781740Y-98500091D01*
X139464577Y-98025423D01*
X139153746Y-97817732D01*
X139144007Y-97768775D01*
X139464577Y-97554577D01*
X139781740Y-97079909D01*
X139893113Y-96520000D01*
X139781740Y-95960091D01*
X139464577Y-95485423D01*
X139153746Y-95277732D01*
X139144007Y-95228775D01*
X139464577Y-95014577D01*
X139781740Y-94539909D01*
X139893113Y-93980000D01*
X139781740Y-93420091D01*
X139464577Y-92945423D01*
X139153746Y-92737732D01*
X139144007Y-92688775D01*
X139464577Y-92474577D01*
X139781740Y-91999909D01*
X139893113Y-91440000D01*
X139781740Y-90880091D01*
X139464577Y-90405423D01*
X139153746Y-90197732D01*
X139144007Y-90148775D01*
X139464577Y-89934577D01*
X139781740Y-89459909D01*
X139893113Y-88900000D01*
X139781740Y-88340091D01*
X139464577Y-87865423D01*
X139153746Y-87657732D01*
X139144007Y-87608775D01*
X139464577Y-87394577D01*
X139781740Y-86919909D01*
X139893113Y-86360000D01*
X139781740Y-85800091D01*
X139464577Y-85325423D01*
X139153746Y-85117732D01*
X139144007Y-85068775D01*
X139464577Y-84854577D01*
X139781740Y-84379909D01*
X139893113Y-83820000D01*
X139781740Y-83260091D01*
X139464577Y-82785423D01*
X139153746Y-82577732D01*
X139144007Y-82528775D01*
X139464577Y-82314577D01*
X139781740Y-81839909D01*
X139893113Y-81280000D01*
X139781740Y-80720091D01*
X139464577Y-80245423D01*
X139153746Y-80037732D01*
X139144007Y-79988775D01*
X139464577Y-79774577D01*
X139781740Y-79299909D01*
X139863999Y-78886365D01*
X151828401Y-90850613D01*
G36*
X99644401Y-79695752D02*
X99629971Y-79768292D01*
X99644401Y-79840841D01*
X99644401Y-79840844D01*
X99645228Y-79845000D01*
X99687136Y-80055698D01*
X99687139Y-80055703D01*
X99687140Y-80055707D01*
X99761525Y-80167032D01*
X99808844Y-80237851D01*
X99808848Y-80237855D01*
X99849943Y-80299358D01*
X99911439Y-80340449D01*
X104680017Y-85109136D01*
X104597138Y-85143466D01*
X104193466Y-85547138D01*
X104166475Y-85612299D01*
X104163864Y-85605995D01*
X103917745Y-85531861D01*
X103089605Y-86360000D01*
X103917745Y-87188139D01*
X104163864Y-87114005D01*
X104166290Y-87107254D01*
X104193466Y-87172862D01*
X104597138Y-87576534D01*
X105124561Y-87795000D01*
X105515923Y-87795000D01*
X106509125Y-88788203D01*
X106486887Y-88900000D01*
X106598260Y-89459909D01*
X106915423Y-89934577D01*
X107299108Y-90190947D01*
X107094866Y-90287611D01*
X106718959Y-90702577D01*
X106558096Y-91090961D01*
X106680085Y-91313000D01*
X107823000Y-91313000D01*
X107823000Y-91293000D01*
X108077000Y-91293000D01*
X108077000Y-91313000D01*
X108097000Y-91313000D01*
X108097000Y-91567000D01*
X108077000Y-91567000D01*
X108077000Y-91587000D01*
X107823000Y-91587000D01*
X107823000Y-91567000D01*
X106680085Y-91567000D01*
X106558096Y-91789039D01*
X106718959Y-92177423D01*
X107094866Y-92592389D01*
X107299108Y-92689053D01*
X106915423Y-92945423D01*
X106598260Y-93420091D01*
X106486887Y-93980000D01*
X106598260Y-94539909D01*
X106915423Y-95014577D01*
X107299108Y-95270947D01*
X107094866Y-95367611D01*
X106718959Y-95782577D01*
X106558096Y-96170961D01*
X106680085Y-96393000D01*
X107823000Y-96393000D01*
X107823000Y-96373000D01*
X108077000Y-96373000D01*
X108077000Y-96393000D01*
X108097000Y-96393000D01*
X108097000Y-96647000D01*
X108077000Y-96647000D01*
X108077000Y-96667000D01*
X107823000Y-96667000D01*
X107823000Y-96647000D01*
X106680085Y-96647000D01*
X106558096Y-96869039D01*
X106718959Y-97257423D01*
X107094866Y-97672389D01*
X107299108Y-97769053D01*
X106915423Y-98025423D01*
X106598260Y-98500091D01*
X106486887Y-99060000D01*
X106598260Y-99619909D01*
X106915423Y-100094577D01*
X107299108Y-100350947D01*
X107094866Y-100447611D01*
X106718959Y-100862577D01*
X106558096Y-101250961D01*
X106680085Y-101473000D01*
X107823000Y-101473000D01*
X107823000Y-101453000D01*
X108077000Y-101453000D01*
X108077000Y-101473000D01*
X108097000Y-101473000D01*
X108097000Y-101727000D01*
X108077000Y-101727000D01*
X108077000Y-101747000D01*
X107823000Y-101747000D01*
X107823000Y-101727000D01*
X106680085Y-101727000D01*
X106558096Y-101949039D01*
X106718959Y-102337423D01*
X107094866Y-102752389D01*
X107299108Y-102849053D01*
X106915423Y-103105423D01*
X106598260Y-103580091D01*
X106486887Y-104140000D01*
X106598260Y-104699909D01*
X106915423Y-105174577D01*
X107390091Y-105491740D01*
X107808667Y-105575000D01*
X108091333Y-105575000D01*
X108509909Y-105491740D01*
X108984577Y-105174577D01*
X109175400Y-104888990D01*
X109175400Y-105053487D01*
X109160971Y-105126055D01*
X109188688Y-105265348D01*
X109218139Y-105413406D01*
X109218154Y-105413429D01*
X109218160Y-105413457D01*
X109294448Y-105527611D01*
X109380942Y-105657058D01*
X109442467Y-105698168D01*
X115779480Y-112034250D01*
X115576196Y-112338486D01*
X111296151Y-108058442D01*
X111255058Y-107996942D01*
X111011407Y-107834139D01*
X110796544Y-107791400D01*
X110796540Y-107791400D01*
X110724000Y-107776971D01*
X110651460Y-107791400D01*
X106845000Y-107791400D01*
X106845000Y-107664561D01*
X106626534Y-107137138D01*
X106222862Y-106733466D01*
X105695439Y-106515000D01*
X105124561Y-106515000D01*
X104597138Y-106733466D01*
X104193466Y-107137138D01*
X104166475Y-107202299D01*
X104163864Y-107195995D01*
X103917745Y-107121861D01*
X103089605Y-107950000D01*
X103103748Y-107964143D01*
X102924143Y-108143748D01*
X102910000Y-108129605D01*
X102895858Y-108143748D01*
X102716253Y-107964143D01*
X102730395Y-107950000D01*
X101902255Y-107121861D01*
X101656136Y-107195995D01*
X101648047Y-107218500D01*
X101371769Y-106942255D01*
X102081861Y-106942255D01*
X102910000Y-107770395D01*
X103738139Y-106942255D01*
X103664005Y-106696136D01*
X103126777Y-106503035D01*
X102556546Y-106530222D01*
X102155995Y-106696136D01*
X102081861Y-106942255D01*
X101371769Y-106942255D01*
X99943548Y-105514208D01*
X99980959Y-105531914D01*
X100203000Y-105410629D01*
X100203000Y-104267000D01*
X100457000Y-104267000D01*
X100457000Y-105410629D01*
X100679041Y-105531914D01*
X101185134Y-105292389D01*
X101561041Y-104877423D01*
X101721904Y-104489039D01*
X101599915Y-104267000D01*
X100457000Y-104267000D01*
X100203000Y-104267000D01*
X100183000Y-104267000D01*
X100183000Y-104013000D01*
X100203000Y-104013000D01*
X100203000Y-103993000D01*
X100457000Y-103993000D01*
X100457000Y-104013000D01*
X101599915Y-104013000D01*
X101721904Y-103790961D01*
X101561041Y-103402577D01*
X101185134Y-102987611D01*
X100980892Y-102890947D01*
X101364577Y-102634577D01*
X101681740Y-102159909D01*
X101793113Y-101600000D01*
X101681740Y-101040091D01*
X101364577Y-100565423D01*
X101012242Y-100330000D01*
X101364577Y-100094577D01*
X101681740Y-99619909D01*
X101793113Y-99060000D01*
X101681740Y-98500091D01*
X101364577Y-98025423D01*
X101012242Y-97790000D01*
X101364577Y-97554577D01*
X101681740Y-97079909D01*
X101793113Y-96520000D01*
X101681740Y-95960091D01*
X101394501Y-95530208D01*
X101904761Y-95019949D01*
X101966258Y-94978858D01*
X102007349Y-94917361D01*
X102007351Y-94917359D01*
X102031447Y-94881297D01*
X104530782Y-93142284D01*
X104560274Y-93154500D01*
X104989726Y-93154500D01*
X105386488Y-92990156D01*
X105690156Y-92686488D01*
X105854500Y-92289726D01*
X105854500Y-91860274D01*
X105690156Y-91463512D01*
X105386488Y-91159844D01*
X104989726Y-90995500D01*
X104560274Y-90995500D01*
X104163512Y-91159844D01*
X103859844Y-91463512D01*
X103695500Y-91860274D01*
X103695500Y-91928746D01*
X102171800Y-92988921D01*
X102171800Y-87619545D01*
X102693223Y-87806965D01*
X103263454Y-87779778D01*
X103664005Y-87613864D01*
X103738139Y-87367745D01*
X102910000Y-86539605D01*
X102895858Y-86553748D01*
X102716252Y-86374142D01*
X102730395Y-86360000D01*
X102716252Y-86345858D01*
X102895858Y-86166252D01*
X102910000Y-86180395D01*
X103738139Y-85352255D01*
X103664005Y-85106136D01*
X103126777Y-84913035D01*
X102556546Y-84940222D01*
X102155995Y-85106136D01*
X102084685Y-85342880D01*
X102073021Y-85325423D01*
X102007351Y-85227141D01*
X102007349Y-85227139D01*
X101966258Y-85165642D01*
X101904761Y-85124551D01*
X98606000Y-81825791D01*
X98606000Y-71287653D01*
X98912402Y-71348600D01*
X99207598Y-71348600D01*
X99644400Y-71261715D01*
X99644401Y-79695752D01*
X99644401Y-79695752D01*
G37*
X99644401Y-79695752D02*
X99629971Y-79768292D01*
X99644401Y-79840841D01*
X99644401Y-79840844D01*
X99645228Y-79845000D01*
X99687136Y-80055698D01*
X99687139Y-80055703D01*
X99687140Y-80055707D01*
X99761525Y-80167032D01*
X99808844Y-80237851D01*
X99808848Y-80237855D01*
X99849943Y-80299358D01*
X99911439Y-80340449D01*
X104680017Y-85109136D01*
X104597138Y-85143466D01*
X104193466Y-85547138D01*
X104166475Y-85612299D01*
X104163864Y-85605995D01*
X103917745Y-85531861D01*
X103089605Y-86360000D01*
X103917745Y-87188139D01*
X104163864Y-87114005D01*
X104166290Y-87107254D01*
X104193466Y-87172862D01*
X104597138Y-87576534D01*
X105124561Y-87795000D01*
X105515923Y-87795000D01*
X106509125Y-88788203D01*
X106486887Y-88900000D01*
X106598260Y-89459909D01*
X106915423Y-89934577D01*
X107299108Y-90190947D01*
X107094866Y-90287611D01*
X106718959Y-90702577D01*
X106558096Y-91090961D01*
X106680085Y-91313000D01*
X107823000Y-91313000D01*
X107823000Y-91293000D01*
X108077000Y-91293000D01*
X108077000Y-91313000D01*
X108097000Y-91313000D01*
X108097000Y-91567000D01*
X108077000Y-91567000D01*
X108077000Y-91587000D01*
X107823000Y-91587000D01*
X107823000Y-91567000D01*
X106680085Y-91567000D01*
X106558096Y-91789039D01*
X106718959Y-92177423D01*
X107094866Y-92592389D01*
X107299108Y-92689053D01*
X106915423Y-92945423D01*
X106598260Y-93420091D01*
X106486887Y-93980000D01*
X106598260Y-94539909D01*
X106915423Y-95014577D01*
X107299108Y-95270947D01*
X107094866Y-95367611D01*
X106718959Y-95782577D01*
X106558096Y-96170961D01*
X106680085Y-96393000D01*
X107823000Y-96393000D01*
X107823000Y-96373000D01*
X108077000Y-96373000D01*
X108077000Y-96393000D01*
X108097000Y-96393000D01*
X108097000Y-96647000D01*
X108077000Y-96647000D01*
X108077000Y-96667000D01*
X107823000Y-96667000D01*
X107823000Y-96647000D01*
X106680085Y-96647000D01*
X106558096Y-96869039D01*
X106718959Y-97257423D01*
X107094866Y-97672389D01*
X107299108Y-97769053D01*
X106915423Y-98025423D01*
X106598260Y-98500091D01*
X106486887Y-99060000D01*
X106598260Y-99619909D01*
X106915423Y-100094577D01*
X107299108Y-100350947D01*
X107094866Y-100447611D01*
X106718959Y-100862577D01*
X106558096Y-101250961D01*
X106680085Y-101473000D01*
X107823000Y-101473000D01*
X107823000Y-101453000D01*
X108077000Y-101453000D01*
X108077000Y-101473000D01*
X108097000Y-101473000D01*
X108097000Y-101727000D01*
X108077000Y-101727000D01*
X108077000Y-101747000D01*
X107823000Y-101747000D01*
X107823000Y-101727000D01*
X106680085Y-101727000D01*
X106558096Y-101949039D01*
X106718959Y-102337423D01*
X107094866Y-102752389D01*
X107299108Y-102849053D01*
X106915423Y-103105423D01*
X106598260Y-103580091D01*
X106486887Y-104140000D01*
X106598260Y-104699909D01*
X106915423Y-105174577D01*
X107390091Y-105491740D01*
X107808667Y-105575000D01*
X108091333Y-105575000D01*
X108509909Y-105491740D01*
X108984577Y-105174577D01*
X109175400Y-104888990D01*
X109175400Y-105053487D01*
X109160971Y-105126055D01*
X109188688Y-105265348D01*
X109218139Y-105413406D01*
X109218154Y-105413429D01*
X109218160Y-105413457D01*
X109294448Y-105527611D01*
X109380942Y-105657058D01*
X109442467Y-105698168D01*
X115779480Y-112034250D01*
X115576196Y-112338486D01*
X111296151Y-108058442D01*
X111255058Y-107996942D01*
X111011407Y-107834139D01*
X110796544Y-107791400D01*
X110796540Y-107791400D01*
X110724000Y-107776971D01*
X110651460Y-107791400D01*
X106845000Y-107791400D01*
X106845000Y-107664561D01*
X106626534Y-107137138D01*
X106222862Y-106733466D01*
X105695439Y-106515000D01*
X105124561Y-106515000D01*
X104597138Y-106733466D01*
X104193466Y-107137138D01*
X104166475Y-107202299D01*
X104163864Y-107195995D01*
X103917745Y-107121861D01*
X103089605Y-107950000D01*
X103103748Y-107964143D01*
X102924143Y-108143748D01*
X102910000Y-108129605D01*
X102895858Y-108143748D01*
X102716253Y-107964143D01*
X102730395Y-107950000D01*
X101902255Y-107121861D01*
X101656136Y-107195995D01*
X101648047Y-107218500D01*
X101371769Y-106942255D01*
X102081861Y-106942255D01*
X102910000Y-107770395D01*
X103738139Y-106942255D01*
X103664005Y-106696136D01*
X103126777Y-106503035D01*
X102556546Y-106530222D01*
X102155995Y-106696136D01*
X102081861Y-106942255D01*
X101371769Y-106942255D01*
X99943548Y-105514208D01*
X99980959Y-105531914D01*
X100203000Y-105410629D01*
X100203000Y-104267000D01*
X100457000Y-104267000D01*
X100457000Y-105410629D01*
X100679041Y-105531914D01*
X101185134Y-105292389D01*
X101561041Y-104877423D01*
X101721904Y-104489039D01*
X101599915Y-104267000D01*
X100457000Y-104267000D01*
X100203000Y-104267000D01*
X100183000Y-104267000D01*
X100183000Y-104013000D01*
X100203000Y-104013000D01*
X100203000Y-103993000D01*
X100457000Y-103993000D01*
X100457000Y-104013000D01*
X101599915Y-104013000D01*
X101721904Y-103790961D01*
X101561041Y-103402577D01*
X101185134Y-102987611D01*
X100980892Y-102890947D01*
X101364577Y-102634577D01*
X101681740Y-102159909D01*
X101793113Y-101600000D01*
X101681740Y-101040091D01*
X101364577Y-100565423D01*
X101012242Y-100330000D01*
X101364577Y-100094577D01*
X101681740Y-99619909D01*
X101793113Y-99060000D01*
X101681740Y-98500091D01*
X101364577Y-98025423D01*
X101012242Y-97790000D01*
X101364577Y-97554577D01*
X101681740Y-97079909D01*
X101793113Y-96520000D01*
X101681740Y-95960091D01*
X101394501Y-95530208D01*
X101904761Y-95019949D01*
X101966258Y-94978858D01*
X102007349Y-94917361D01*
X102007351Y-94917359D01*
X102031447Y-94881297D01*
X104530782Y-93142284D01*
X104560274Y-93154500D01*
X104989726Y-93154500D01*
X105386488Y-92990156D01*
X105690156Y-92686488D01*
X105854500Y-92289726D01*
X105854500Y-91860274D01*
X105690156Y-91463512D01*
X105386488Y-91159844D01*
X104989726Y-90995500D01*
X104560274Y-90995500D01*
X104163512Y-91159844D01*
X103859844Y-91463512D01*
X103695500Y-91860274D01*
X103695500Y-91928746D01*
X102171800Y-92988921D01*
X102171800Y-87619545D01*
X102693223Y-87806965D01*
X103263454Y-87779778D01*
X103664005Y-87613864D01*
X103738139Y-87367745D01*
X102910000Y-86539605D01*
X102895858Y-86553748D01*
X102716252Y-86374142D01*
X102730395Y-86360000D01*
X102716252Y-86345858D01*
X102895858Y-86166252D01*
X102910000Y-86180395D01*
X103738139Y-85352255D01*
X103664005Y-85106136D01*
X103126777Y-84913035D01*
X102556546Y-84940222D01*
X102155995Y-85106136D01*
X102084685Y-85342880D01*
X102073021Y-85325423D01*
X102007351Y-85227141D01*
X102007349Y-85227139D01*
X101966258Y-85165642D01*
X101904761Y-85124551D01*
X98606000Y-81825791D01*
X98606000Y-71287653D01*
X98912402Y-71348600D01*
X99207598Y-71348600D01*
X99644400Y-71261715D01*
X99644401Y-79695752D01*
G36*
X109175400Y-100856350D02*
X108805134Y-100447611D01*
X108600892Y-100350947D01*
X108984577Y-100094577D01*
X109175400Y-99808990D01*
X109175400Y-100856350D01*
X109175400Y-100856350D01*
G37*
X109175400Y-100856350D02*
X108805134Y-100447611D01*
X108600892Y-100350947D01*
X108984577Y-100094577D01*
X109175400Y-99808990D01*
X109175400Y-100856350D01*
G36*
X109175400Y-98311010D02*
X108984577Y-98025423D01*
X108600892Y-97769053D01*
X108805134Y-97672389D01*
X109175400Y-97263650D01*
X109175400Y-98311010D01*
X109175400Y-98311010D01*
G37*
X109175400Y-98311010D02*
X108984577Y-98025423D01*
X108600892Y-97769053D01*
X108805134Y-97672389D01*
X109175400Y-97263650D01*
X109175400Y-98311010D01*
G04 #@! TD*
M02*
