M48
;DRILL file {KiCad (5.0.0-3-g5ebb6b6)} date 
;FORMAT={-:-/ absolute / metric / decimal}
FMAT,2
METRIC,TZ
T1C0.600
T2C0.635
T3C0.800
T4C0.900
T5C1.016
T6C1.100
T7C3.200
%
G90
G05
M71
T1
X87.85Y-100.56
X87.85Y-102.56
T2
X93.345Y-102.87
X94.Y-78.12
X94.72Y-107.42
X104.775Y-92.075
X109.162Y-90.17
X114.27Y-74.16
X120.904Y-74.168
X122.938Y-73.055
X123.458Y-74.088
X135.7Y-68.77
X136.986Y-74.967
X150.097Y-115.876
T3
X123.19Y-78.74
X123.19Y-81.28
X123.19Y-83.82
X123.19Y-86.36
X123.19Y-88.9
X123.19Y-91.44
X123.19Y-93.98
X123.19Y-96.52
X123.19Y-99.06
X123.19Y-101.6
X123.19Y-104.14
X123.19Y-106.68
X123.19Y-109.22
X123.19Y-111.76
X123.19Y-114.3
X123.19Y-116.84
X123.19Y-119.38
X123.19Y-121.92
X123.19Y-124.46
X123.19Y-127.
X138.43Y-78.74
X138.43Y-81.28
X138.43Y-83.82
X138.43Y-86.36
X138.43Y-88.9
X138.43Y-91.44
X138.43Y-93.98
X138.43Y-96.52
X138.43Y-99.06
X138.43Y-101.6
X138.43Y-104.14
X138.43Y-106.68
X138.43Y-109.22
X138.43Y-111.76
X138.43Y-114.3
X138.43Y-116.84
X138.43Y-119.38
X138.43Y-121.92
X138.43Y-124.46
X138.43Y-127.
X146.05Y-111.76
X146.05Y-114.3
X146.05Y-116.84
X146.05Y-119.38
X146.05Y-121.92
X146.05Y-124.46
X146.05Y-127.
X153.67Y-111.76
X153.67Y-114.3
X153.67Y-116.84
X153.67Y-119.38
X153.67Y-121.92
X153.67Y-124.46
X153.67Y-127.
X87.1Y-109.65
X94.72Y-109.65
X81.28Y-88.9
X81.28Y-93.78
X86.36Y-93.98
X93.98Y-93.98
X100.33Y-110.49
X100.33Y-113.03
X100.33Y-115.57
X100.33Y-118.11
X100.33Y-120.65
X100.33Y-123.19
X100.33Y-125.73
X107.95Y-110.49
X107.95Y-113.03
X107.95Y-115.57
X107.95Y-118.11
X107.95Y-120.65
X107.95Y-123.19
X107.95Y-125.73
X73.66Y-87.63
X73.66Y-90.13
X102.91Y-86.36
X105.41Y-86.36
X129.54Y-104.14
X132.04Y-104.14
X70.49Y-82.06
X78.11Y-82.06
X73.66Y-121.412
X76.16Y-121.412
X86.36Y-82.55
X93.98Y-82.55
X86.36Y-88.9
X93.98Y-88.9
X116.84Y-92.71
X116.84Y-95.25
X116.84Y-97.79
X116.84Y-100.33
X116.84Y-102.87
X116.84Y-105.41
X116.84Y-107.95
X116.84Y-110.49
X116.84Y-113.03
X102.91Y-107.95
X105.41Y-107.95
X151.17Y-107.95
X153.67Y-107.95
X73.66Y-94.02
X73.66Y-96.52
X100.33Y-88.9
X100.33Y-91.44
X100.33Y-93.98
X100.33Y-96.52
X100.33Y-99.06
X100.33Y-101.6
X100.33Y-104.14
X107.95Y-88.9
X107.95Y-91.44
X107.95Y-93.98
X107.95Y-96.52
X107.95Y-99.06
X107.95Y-101.6
X107.95Y-104.14
T4
X74.08Y-76.85
X76.62Y-76.85
X71.12Y-114.3
X73.62Y-114.3
X76.12Y-114.3
T5
X91.44Y-67.31
X91.44Y-69.85
X93.98Y-67.31
X93.98Y-69.85
X96.52Y-67.31
X96.52Y-69.85
X99.06Y-67.31
X99.06Y-69.85
X101.6Y-67.31
X101.6Y-69.85
X104.14Y-67.31
X104.14Y-69.85
X106.68Y-67.31
X106.68Y-69.85
X109.22Y-67.31
X109.22Y-69.85
X111.76Y-67.31
X111.76Y-69.85
X114.3Y-67.31
X114.3Y-69.85
X116.84Y-67.31
X116.84Y-69.85
X119.38Y-67.31
X119.38Y-69.85
X121.92Y-67.31
X121.92Y-69.85
X124.46Y-67.31
X124.46Y-69.85
X127.Y-67.31
X127.Y-69.85
X129.54Y-67.31
X129.54Y-69.85
X132.08Y-67.31
X132.08Y-69.85
X134.62Y-67.31
X134.62Y-69.85
X137.16Y-67.31
X137.16Y-69.85
X139.7Y-67.31
X139.7Y-69.85
T6
X72.8Y-100.78
X72.8Y-105.28
X79.3Y-100.78
X79.3Y-105.28
X84.54Y-113.11
X94.7Y-113.11
T7
X69.8Y-127.575
X158.825Y-61.7
X69.775Y-61.7
X158.85Y-127.55
T5
X85.118Y-118.364G85X87.602Y-118.364
G05
X85.368Y-124.46G85X87.352Y-124.46
G05
X91.44Y-123.166G85X91.44Y-121.182
G05
T0
M30
