G04 #@! TF.GenerationSoftware,KiCad,Pcbnew,(5.0.0-3-g5ebb6b6)*
G04 #@! TF.CreationDate,2019-03-17T21:37:14+09:00*
G04 #@! TF.ProjectId,Z80-CPUB,5A38302D435055422E6B696361645F70,rev?*
G04 #@! TF.SameCoordinates,Original*
G04 #@! TF.FileFunction,Soldermask,Top*
G04 #@! TF.FilePolarity,Negative*
%FSLAX46Y46*%
G04 Gerber Fmt 4.6, Leading zero omitted, Abs format (unit mm)*
G04 Created by KiCad (PCBNEW (5.0.0-3-g5ebb6b6)) date *
%MOMM*%
%LPD*%
G01*
G04 APERTURE LIST*
%ADD10R,2.100000X2.100000*%
%ADD11O,2.100000X2.100000*%
%ADD12R,2.200000X2.200000*%
%ADD13O,2.200000X2.200000*%
%ADD14C,2.400000*%
%ADD15C,2.000000*%
%ADD16C,1.900000*%
%ADD17C,2.200000*%
%ADD18C,3.600000*%
%ADD19R,2.000000X2.000000*%
%ADD20O,2.000000X2.000000*%
%ADD21C,5.200600*%
%ADD22R,5.200600X5.200600*%
%ADD23R,1.600000X1.600000*%
%ADD24C,1.600000*%
G04 APERTURE END LIST*
D10*
G04 #@! TO.C,S1*
X84023200Y-109664000D03*
D11*
X86563200Y-109664000D03*
X89103200Y-109664000D03*
G04 #@! TD*
D12*
G04 #@! TO.C,D1*
X81280000Y-103505000D03*
D13*
X91440000Y-103505000D03*
G04 #@! TD*
D14*
G04 #@! TO.C,SW1*
X71132700Y-111802000D03*
X71132700Y-107302000D03*
X77632700Y-111802000D03*
X77632700Y-107302000D03*
G04 #@! TD*
D15*
G04 #@! TO.C,C1*
X123569000Y-106858000D03*
X121069000Y-106858000D03*
G04 #@! TD*
G04 #@! TO.C,C3*
X104140000Y-85344000D03*
X101640000Y-85344000D03*
G04 #@! TD*
G04 #@! TO.C,C4*
X141264000Y-108458000D03*
X143764000Y-108458000D03*
G04 #@! TD*
G04 #@! TO.C,C5*
X104140000Y-107569000D03*
X101640000Y-107569000D03*
G04 #@! TD*
G04 #@! TO.C,C6*
X70497700Y-89279100D03*
X70497700Y-86779100D03*
G04 #@! TD*
G04 #@! TO.C,C7*
X70497700Y-95681800D03*
X70497700Y-93181800D03*
G04 #@! TD*
G04 #@! TO.C,C9*
X141137000Y-85344000D03*
X143637000Y-85344000D03*
G04 #@! TD*
G04 #@! TO.C,C10*
X156591000Y-85471000D03*
X154091000Y-85471000D03*
G04 #@! TD*
D10*
G04 #@! TO.C,J1*
X91440000Y-69850000D03*
D11*
X91440000Y-67310000D03*
X93980000Y-69850000D03*
X93980000Y-67310000D03*
X96520000Y-69850000D03*
X96520000Y-67310000D03*
X99060000Y-69850000D03*
X99060000Y-67310000D03*
X101600000Y-69850000D03*
X101600000Y-67310000D03*
X104140000Y-69850000D03*
X104140000Y-67310000D03*
X106680000Y-69850000D03*
X106680000Y-67310000D03*
X109220000Y-69850000D03*
X109220000Y-67310000D03*
X111760000Y-69850000D03*
X111760000Y-67310000D03*
X114300000Y-69850000D03*
X114300000Y-67310000D03*
X116840000Y-69850000D03*
X116840000Y-67310000D03*
X119380000Y-69850000D03*
X119380000Y-67310000D03*
X121920000Y-69850000D03*
X121920000Y-67310000D03*
X124460000Y-69850000D03*
X124460000Y-67310000D03*
X127000000Y-69850000D03*
X127000000Y-67310000D03*
X129540000Y-69850000D03*
X129540000Y-67310000D03*
X132080000Y-69850000D03*
X132080000Y-67310000D03*
X134620000Y-69850000D03*
X134620000Y-67310000D03*
X137160000Y-69850000D03*
X137160000Y-67310000D03*
X139700000Y-69850000D03*
X139700000Y-67310000D03*
G04 #@! TD*
D16*
G04 #@! TO.C,Y1*
X76568300Y-88696800D03*
X76568300Y-93576800D03*
G04 #@! TD*
D12*
G04 #@! TO.C,D2*
X72834500Y-79527400D03*
D17*
X75374500Y-79527400D03*
G04 #@! TD*
D18*
G04 #@! TO.C,M3*
X69800000Y-127575000D03*
G04 #@! TD*
G04 #@! TO.C,M2*
X158825000Y-61700000D03*
G04 #@! TD*
G04 #@! TO.C,M1*
X69775000Y-61700000D03*
G04 #@! TD*
G04 #@! TO.C,M4*
X158850000Y-127550000D03*
G04 #@! TD*
D19*
G04 #@! TO.C,U2*
X96316800Y-110947000D03*
D20*
X103936800Y-126187000D03*
X96316800Y-113487000D03*
X103936800Y-123647000D03*
X96316800Y-116027000D03*
X103936800Y-121107000D03*
X96316800Y-118567000D03*
X103936800Y-118567000D03*
X96316800Y-121107000D03*
X103936800Y-116027000D03*
X96316800Y-123647000D03*
X103936800Y-113487000D03*
X96316800Y-126187000D03*
X103936800Y-110947000D03*
G04 #@! TD*
G04 #@! TO.C,U3*
X103746300Y-88480900D03*
X96126300Y-103720900D03*
X103746300Y-91020900D03*
X96126300Y-101180900D03*
X103746300Y-93560900D03*
X96126300Y-98640900D03*
X103746300Y-96100900D03*
X96126300Y-96100900D03*
X103746300Y-98640900D03*
X96126300Y-93560900D03*
X103746300Y-101180900D03*
X96126300Y-91020900D03*
X103746300Y-103720900D03*
D19*
X96126300Y-88480900D03*
G04 #@! TD*
G04 #@! TO.C,U4*
X135572000Y-111747000D03*
D20*
X143192000Y-126987000D03*
X135572000Y-114287000D03*
X143192000Y-124447000D03*
X135572000Y-116827000D03*
X143192000Y-121907000D03*
X135572000Y-119367000D03*
X143192000Y-119367000D03*
X135572000Y-121907000D03*
X143192000Y-116827000D03*
X135572000Y-124447000D03*
X143192000Y-114287000D03*
X135572000Y-126987000D03*
X143192000Y-111747000D03*
G04 #@! TD*
G04 #@! TO.C,U5*
X143104000Y-88595200D03*
X135484000Y-103835200D03*
X143104000Y-91135200D03*
X135484000Y-101295200D03*
X143104000Y-93675200D03*
X135484000Y-98755200D03*
X143104000Y-96215200D03*
X135484000Y-96215200D03*
X143104000Y-98755200D03*
X135484000Y-93675200D03*
X143104000Y-101295200D03*
X135484000Y-91135200D03*
X143104000Y-103835200D03*
D19*
X135484000Y-88595200D03*
G04 #@! TD*
G04 #@! TO.C,U6*
X148463000Y-88607900D03*
D20*
X156083000Y-103847900D03*
X148463000Y-91147900D03*
X156083000Y-101307900D03*
X148463000Y-93687900D03*
X156083000Y-98767900D03*
X148463000Y-96227900D03*
X156083000Y-96227900D03*
X148463000Y-98767900D03*
X156083000Y-93687900D03*
X148463000Y-101307900D03*
X156083000Y-91147900D03*
X148463000Y-103847900D03*
X156083000Y-88607900D03*
G04 #@! TD*
D19*
G04 #@! TO.C,U1*
X114402000Y-79248000D03*
D20*
X129642000Y-127508000D03*
X114402000Y-81788000D03*
X129642000Y-124968000D03*
X114402000Y-84328000D03*
X129642000Y-122428000D03*
X114402000Y-86868000D03*
X129642000Y-119888000D03*
X114402000Y-89408000D03*
X129642000Y-117348000D03*
X114402000Y-91948000D03*
X129642000Y-114808000D03*
X114402000Y-94488000D03*
X129642000Y-112268000D03*
X114402000Y-97028000D03*
X129642000Y-109728000D03*
X114402000Y-99568000D03*
X129642000Y-107188000D03*
X114402000Y-102108000D03*
X129642000Y-104648000D03*
X114402000Y-104648000D03*
X129642000Y-102108000D03*
X114402000Y-107188000D03*
X129642000Y-99568000D03*
X114402000Y-109728000D03*
X129642000Y-97028000D03*
X114402000Y-112268000D03*
X129642000Y-94488000D03*
X114402000Y-114808000D03*
X129642000Y-91948000D03*
X114402000Y-117348000D03*
X129642000Y-89408000D03*
X114402000Y-119888000D03*
X129642000Y-86868000D03*
X114402000Y-122428000D03*
X129642000Y-84328000D03*
X114402000Y-124968000D03*
X129642000Y-81788000D03*
X114402000Y-127508000D03*
X129642000Y-79248000D03*
G04 #@! TD*
D15*
G04 #@! TO.C,R2*
X81280000Y-99060000D03*
D20*
X91440000Y-99060000D03*
G04 #@! TD*
G04 #@! TO.C,R1*
X91440000Y-84455000D03*
D15*
X81280000Y-84455000D03*
G04 #@! TD*
G04 #@! TO.C,R3*
X91440000Y-88900000D03*
D20*
X81280000Y-88900000D03*
G04 #@! TD*
G04 #@! TO.C,R4*
X81280000Y-93980000D03*
D15*
X91440000Y-93980000D03*
G04 #@! TD*
G04 #@! TO.C,R5*
X81229200Y-80010000D03*
D20*
X91389200Y-80010000D03*
G04 #@! TD*
G04 #@! TO.C,R6*
X135052000Y-79057500D03*
D15*
X145212000Y-79057500D03*
G04 #@! TD*
G04 #@! TO.C,R7*
X106007000Y-79959200D03*
D20*
X95847000Y-79959200D03*
G04 #@! TD*
D21*
G04 #@! TO.C,J2*
X86360000Y-124460000D03*
D22*
X86360000Y-118364000D03*
D21*
X91440000Y-122174000D03*
G04 #@! TD*
D23*
G04 #@! TO.C,C2*
X72859900Y-101308000D03*
D24*
X72859900Y-99308000D03*
G04 #@! TD*
D19*
G04 #@! TO.C,C8*
X73660000Y-121412000D03*
D15*
X76160000Y-121412000D03*
G04 #@! TD*
D19*
G04 #@! TO.C,RN1*
X109245000Y-92176600D03*
D20*
X109245000Y-94716600D03*
X109245000Y-97256600D03*
X109245000Y-99796600D03*
X109245000Y-102336600D03*
X109245000Y-104876600D03*
X109245000Y-107416600D03*
X109245000Y-109956600D03*
X109245000Y-112496600D03*
G04 #@! TD*
M02*
