G04 #@! TF.GenerationSoftware,KiCad,Pcbnew,(5.0.0-3-g5ebb6b6)*
G04 #@! TF.CreationDate,2019-09-11T11:32:30+09:00*
G04 #@! TF.ProjectId,Z80-CPUB,5A38302D435055422E6B696361645F70,rev?*
G04 #@! TF.SameCoordinates,Original*
G04 #@! TF.FileFunction,Copper,L2,Bot,Signal*
G04 #@! TF.FilePolarity,Positive*
%FSLAX46Y46*%
G04 Gerber Fmt 4.6, Leading zero omitted, Abs format (unit mm)*
G04 Created by KiCad (PCBNEW (5.0.0-3-g5ebb6b6)) date 2019 September 11, Wednesday 11:32:30*
%MOMM*%
%LPD*%
G01*
G04 APERTURE LIST*
G04 #@! TA.AperFunction,ComponentPad*
%ADD10C,1.600000*%
G04 #@! TD*
G04 #@! TA.AperFunction,ComponentPad*
%ADD11O,1.600000X1.600000*%
G04 #@! TD*
G04 #@! TA.AperFunction,ComponentPad*
%ADD12R,1.700000X1.700000*%
G04 #@! TD*
G04 #@! TA.AperFunction,ComponentPad*
%ADD13O,1.700000X1.700000*%
G04 #@! TD*
G04 #@! TA.AperFunction,ComponentPad*
%ADD14R,1.600000X1.600000*%
G04 #@! TD*
G04 #@! TA.AperFunction,ComponentPad*
%ADD15R,1.800000X1.800000*%
G04 #@! TD*
G04 #@! TA.AperFunction,ComponentPad*
%ADD16O,1.800000X1.800000*%
G04 #@! TD*
G04 #@! TA.AperFunction,ComponentPad*
%ADD17C,2.000000*%
G04 #@! TD*
G04 #@! TA.AperFunction,ComponentPad*
%ADD18C,1.500000*%
G04 #@! TD*
G04 #@! TA.AperFunction,ComponentPad*
%ADD19C,1.800000*%
G04 #@! TD*
G04 #@! TA.AperFunction,ComponentPad*
%ADD20C,4.800600*%
G04 #@! TD*
G04 #@! TA.AperFunction,ComponentPad*
%ADD21R,4.800600X4.800600*%
G04 #@! TD*
G04 #@! TA.AperFunction,ComponentPad*
%ADD22R,1.200000X1.200000*%
G04 #@! TD*
G04 #@! TA.AperFunction,ComponentPad*
%ADD23C,1.200000*%
G04 #@! TD*
G04 #@! TA.AperFunction,ViaPad*
%ADD24C,0.800000*%
G04 #@! TD*
G04 #@! TA.AperFunction,Conductor*
%ADD25C,0.600000*%
G04 #@! TD*
G04 #@! TA.AperFunction,Conductor*
%ADD26C,0.250000*%
G04 #@! TD*
G04 #@! TA.AperFunction,Conductor*
%ADD27C,0.254000*%
G04 #@! TD*
G04 APERTURE END LIST*
D10*
G04 #@! TO.P,R6,1*
G04 #@! TO.N,HOLD*
X105283000Y-74549000D03*
D11*
G04 #@! TO.P,R6,2*
G04 #@! TO.N,GND*
X95123000Y-74549000D03*
G04 #@! TD*
D12*
G04 #@! TO.P,J3,1*
G04 #@! TO.N,~RD*
X74930000Y-121285000D03*
D13*
G04 #@! TO.P,J3,2*
G04 #@! TO.N,~WR*
X72390000Y-121285000D03*
G04 #@! TO.P,J3,3*
G04 #@! TO.N,~IOREQ*
X74930000Y-118745000D03*
G04 #@! TO.P,J3,4*
G04 #@! TO.N,~MREQ*
X72390000Y-118745000D03*
G04 #@! TO.P,J3,5*
G04 #@! TO.N,~M1*
X74930000Y-116205000D03*
G04 #@! TO.P,J3,6*
G04 #@! TO.N,~RESET*
X72390000Y-116205000D03*
G04 #@! TO.P,J3,7*
G04 #@! TO.N,RN24*
X74930000Y-113665000D03*
G04 #@! TO.P,J3,8*
G04 #@! TO.N,~BUSACK*
X72390000Y-113665000D03*
G04 #@! TO.P,J3,9*
G04 #@! TO.N,RN22*
X74930000Y-111125000D03*
G04 #@! TO.P,J3,10*
G04 #@! TO.N,RN23*
X72390000Y-111125000D03*
G04 #@! TO.P,J3,11*
G04 #@! TO.N,~RFSH*
X74930000Y-108585000D03*
G04 #@! TO.P,J3,12*
G04 #@! TO.N,RDYIN*
X72390000Y-108585000D03*
G04 #@! TO.P,J3,13*
G04 #@! TO.N,~HALT*
X74930000Y-106045000D03*
G04 #@! TO.P,J3,14*
G04 #@! TO.N,Net-(J3-Pad14)*
X72390000Y-106045000D03*
G04 #@! TD*
D11*
G04 #@! TO.P,RN1,9*
G04 #@! TO.N,D7*
X107950000Y-99060000D03*
G04 #@! TO.P,RN1,8*
G04 #@! TO.N,D6*
X107950000Y-96520000D03*
G04 #@! TO.P,RN1,7*
G04 #@! TO.N,D5*
X107950000Y-93980000D03*
G04 #@! TO.P,RN1,6*
G04 #@! TO.N,D4*
X107950000Y-91440000D03*
G04 #@! TO.P,RN1,5*
G04 #@! TO.N,D3*
X107950000Y-88900000D03*
G04 #@! TO.P,RN1,4*
G04 #@! TO.N,D2*
X107950000Y-86360000D03*
G04 #@! TO.P,RN1,3*
G04 #@! TO.N,D1*
X107950000Y-83820000D03*
G04 #@! TO.P,RN1,2*
G04 #@! TO.N,D0*
X107950000Y-81280000D03*
D14*
G04 #@! TO.P,RN1,1*
G04 #@! TO.N,VCC*
X107950000Y-78740000D03*
G04 #@! TD*
G04 #@! TO.P,RN2,1*
G04 #@! TO.N,VCC*
X107950000Y-103505000D03*
D11*
G04 #@! TO.P,RN2,2*
G04 #@! TO.N,RDYIN*
X107950000Y-106045000D03*
G04 #@! TO.P,RN2,3*
G04 #@! TO.N,RN22*
X107950000Y-108585000D03*
G04 #@! TO.P,RN2,4*
G04 #@! TO.N,RN23*
X107950000Y-111125000D03*
G04 #@! TO.P,RN2,5*
G04 #@! TO.N,RN24*
X107950000Y-113665000D03*
G04 #@! TO.P,RN2,6*
G04 #@! TO.N,Net-(RN2-Pad6)*
X107950000Y-116205000D03*
G04 #@! TO.P,RN2,7*
G04 #@! TO.N,Net-(RN2-Pad7)*
X107950000Y-118745000D03*
G04 #@! TO.P,RN2,8*
G04 #@! TO.N,Net-(RN2-Pad8)*
X107950000Y-121285000D03*
G04 #@! TO.P,RN2,9*
G04 #@! TO.N,Net-(RN2-Pad9)*
X107950000Y-123825000D03*
G04 #@! TD*
D10*
G04 #@! TO.P,C11,2*
G04 #@! TO.N,GND*
X154722000Y-97175300D03*
G04 #@! TO.P,C11,1*
G04 #@! TO.N,VCC*
X152222000Y-97175300D03*
G04 #@! TD*
G04 #@! TO.P,C12,1*
G04 #@! TO.N,VCC*
X134620000Y-120055000D03*
G04 #@! TO.P,C12,2*
G04 #@! TO.N,GND*
X134620000Y-122555000D03*
G04 #@! TD*
D11*
G04 #@! TO.P,U7,14*
G04 #@! TO.N,VCC*
X154381000Y-100223000D03*
G04 #@! TO.P,U7,7*
G04 #@! TO.N,GND*
X146761000Y-115463000D03*
G04 #@! TO.P,U7,13*
X154381000Y-102763000D03*
G04 #@! TO.P,U7,6*
G04 #@! TO.N,Net-(U5-Pad5)*
X146761000Y-112923000D03*
G04 #@! TO.P,U7,12*
G04 #@! TO.N,GND*
X154381000Y-105303000D03*
G04 #@! TO.P,U7,5*
G04 #@! TO.N,Net-(U5-Pad9)*
X146761000Y-110383000D03*
G04 #@! TO.P,U7,11*
G04 #@! TO.N,GND*
X154381000Y-107843000D03*
G04 #@! TO.P,U7,4*
G04 #@! TO.N,Net-(U5-Pad3)*
X146761000Y-107843000D03*
G04 #@! TO.P,U7,10*
G04 #@! TO.N,GND*
X154381000Y-110383000D03*
G04 #@! TO.P,U7,3*
X146761000Y-105303000D03*
G04 #@! TO.P,U7,9*
G04 #@! TO.N,Net-(U7-Pad9)*
X154381000Y-112923000D03*
G04 #@! TO.P,U7,2*
G04 #@! TO.N,GND*
X146761000Y-102763000D03*
G04 #@! TO.P,U7,8*
G04 #@! TO.N,Net-(U7-Pad8)*
X154381000Y-115463000D03*
D14*
G04 #@! TO.P,U7,1*
G04 #@! TO.N,Net-(U7-Pad1)*
X146761000Y-100223000D03*
G04 #@! TD*
G04 #@! TO.P,U8,1*
G04 #@! TO.N,Net-(U5-Pad3)*
X137795000Y-128270000D03*
D11*
G04 #@! TO.P,U8,8*
G04 #@! TO.N,~BUSREQ*
X153035000Y-120650000D03*
G04 #@! TO.P,U8,2*
G04 #@! TO.N,Net-(U5-Pad6)*
X140335000Y-128270000D03*
G04 #@! TO.P,U8,9*
G04 #@! TO.N,RN24*
X150495000Y-120650000D03*
G04 #@! TO.P,U8,3*
G04 #@! TO.N,~INTA*
X142875000Y-128270000D03*
G04 #@! TO.P,U8,10*
G04 #@! TO.N,Net-(U3-Pad8)*
X147955000Y-120650000D03*
G04 #@! TO.P,U8,4*
G04 #@! TO.N,~RESET*
X145415000Y-128270000D03*
G04 #@! TO.P,U8,11*
G04 #@! TO.N,~INT*
X145415000Y-120650000D03*
G04 #@! TO.P,U8,5*
G04 #@! TO.N,~WR*
X147955000Y-128270000D03*
G04 #@! TO.P,U8,12*
G04 #@! TO.N,RN23*
X142875000Y-120650000D03*
G04 #@! TO.P,U8,6*
G04 #@! TO.N,Net-(U7-Pad1)*
X150495000Y-128270000D03*
G04 #@! TO.P,U8,13*
G04 #@! TO.N,Net-(U3-Pad2)*
X140335000Y-120650000D03*
G04 #@! TO.P,U8,7*
G04 #@! TO.N,GND*
X153035000Y-128270000D03*
G04 #@! TO.P,U8,14*
G04 #@! TO.N,VCC*
X137795000Y-120650000D03*
G04 #@! TD*
D12*
G04 #@! TO.P,S1,1*
G04 #@! TO.N,Net-(S1-Pad1)*
X70485000Y-99060000D03*
D13*
G04 #@! TO.P,S1,2*
G04 #@! TO.N,VCC*
X73025000Y-99060000D03*
G04 #@! TO.P,S1,3*
G04 #@! TO.N,Net-(J2-Pad1)*
X75565000Y-99060000D03*
G04 #@! TD*
D15*
G04 #@! TO.P,D1,1*
G04 #@! TO.N,VCC*
X80934600Y-93345000D03*
D16*
G04 #@! TO.P,D1,2*
G04 #@! TO.N,~RESIN*
X91094600Y-93345000D03*
G04 #@! TD*
D17*
G04 #@! TO.P,SW1,2*
G04 #@! TO.N,~RESIN*
X69850000Y-94670000D03*
G04 #@! TO.P,SW1,1*
G04 #@! TO.N,GND*
X69850000Y-90170000D03*
G04 #@! TO.P,SW1,2*
G04 #@! TO.N,~RESIN*
X76350000Y-94670000D03*
G04 #@! TO.P,SW1,1*
G04 #@! TO.N,GND*
X76350000Y-90170000D03*
G04 #@! TD*
D10*
G04 #@! TO.P,C1,2*
G04 #@! TO.N,GND*
X122032000Y-103698000D03*
G04 #@! TO.P,C1,1*
G04 #@! TO.N,VCC*
X119532000Y-103698000D03*
G04 #@! TD*
G04 #@! TO.P,C3,1*
G04 #@! TO.N,VCC*
X103251000Y-77724000D03*
G04 #@! TO.P,C3,2*
G04 #@! TO.N,GND*
X100751000Y-77724000D03*
G04 #@! TD*
G04 #@! TO.P,C4,2*
G04 #@! TO.N,GND*
X139486000Y-97028000D03*
G04 #@! TO.P,C4,1*
G04 #@! TO.N,VCC*
X141986000Y-97028000D03*
G04 #@! TD*
G04 #@! TO.P,C5,1*
G04 #@! TO.N,VCC*
X103251000Y-99949000D03*
G04 #@! TO.P,C5,2*
G04 #@! TO.N,GND*
X100751000Y-99949000D03*
G04 #@! TD*
G04 #@! TO.P,C6,2*
G04 #@! TO.N,GND*
X69354700Y-79246100D03*
G04 #@! TO.P,C6,1*
G04 #@! TO.N,Net-(C6-Pad1)*
X69354700Y-76746100D03*
G04 #@! TD*
G04 #@! TO.P,C7,1*
G04 #@! TO.N,Net-(C7-Pad1)*
X69354700Y-85648800D03*
G04 #@! TO.P,C7,2*
G04 #@! TO.N,GND*
X69354700Y-83148800D03*
G04 #@! TD*
G04 #@! TO.P,C9,2*
G04 #@! TO.N,GND*
X139359000Y-73914000D03*
G04 #@! TO.P,C9,1*
G04 #@! TO.N,VCC*
X141859000Y-73914000D03*
G04 #@! TD*
G04 #@! TO.P,C10,1*
G04 #@! TO.N,VCC*
X154889000Y-74188300D03*
G04 #@! TO.P,C10,2*
G04 #@! TO.N,GND*
X152389000Y-74188300D03*
G04 #@! TD*
D12*
G04 #@! TO.P,J1,1*
G04 #@! TO.N,VCC*
X91440000Y-69850000D03*
D13*
G04 #@! TO.P,J1,2*
G04 #@! TO.N,GND*
X91440000Y-67310000D03*
G04 #@! TO.P,J1,3*
G04 #@! TO.N,VCC*
X93980000Y-69850000D03*
G04 #@! TO.P,J1,4*
G04 #@! TO.N,GND*
X93980000Y-67310000D03*
G04 #@! TO.P,J1,5*
G04 #@! TO.N,~INTA*
X96520000Y-69850000D03*
G04 #@! TO.P,J1,6*
G04 #@! TO.N,~RESIN*
X96520000Y-67310000D03*
G04 #@! TO.P,J1,7*
G04 #@! TO.N,RDYIN*
X99060000Y-69850000D03*
G04 #@! TO.P,J1,8*
G04 #@! TO.N,CLK*
X99060000Y-67310000D03*
G04 #@! TO.P,J1,9*
G04 #@! TO.N,D0*
X101600000Y-69850000D03*
G04 #@! TO.P,J1,10*
G04 #@! TO.N,D1*
X101600000Y-67310000D03*
G04 #@! TO.P,J1,11*
G04 #@! TO.N,D2*
X104140000Y-69850000D03*
G04 #@! TO.P,J1,12*
G04 #@! TO.N,D3*
X104140000Y-67310000D03*
G04 #@! TO.P,J1,13*
G04 #@! TO.N,D4*
X106680000Y-69850000D03*
G04 #@! TO.P,J1,14*
G04 #@! TO.N,D5*
X106680000Y-67310000D03*
G04 #@! TO.P,J1,15*
G04 #@! TO.N,D6*
X109220000Y-69850000D03*
G04 #@! TO.P,J1,16*
G04 #@! TO.N,D7*
X109220000Y-67310000D03*
G04 #@! TO.P,J1,17*
G04 #@! TO.N,~IORD*
X111760000Y-69850000D03*
G04 #@! TO.P,J1,18*
G04 #@! TO.N,~MEMRD*
X111760000Y-67310000D03*
G04 #@! TO.P,J1,19*
G04 #@! TO.N,~IOWR*
X114300000Y-69850000D03*
G04 #@! TO.P,J1,20*
G04 #@! TO.N,~MEMWR*
X114300000Y-67310000D03*
G04 #@! TO.P,J1,21*
G04 #@! TO.N,RES*
X116840000Y-69850000D03*
G04 #@! TO.P,J1,22*
G04 #@! TO.N,HLDA*
X116840000Y-67310000D03*
G04 #@! TO.P,J1,23*
G04 #@! TO.N,INT*
X119380000Y-69850000D03*
G04 #@! TO.P,J1,24*
G04 #@! TO.N,HOLD*
X119380000Y-67310000D03*
G04 #@! TO.P,J1,25*
G04 #@! TO.N,A0*
X121920000Y-69850000D03*
G04 #@! TO.P,J1,26*
G04 #@! TO.N,A1*
X121920000Y-67310000D03*
G04 #@! TO.P,J1,27*
G04 #@! TO.N,A2*
X124460000Y-69850000D03*
G04 #@! TO.P,J1,28*
G04 #@! TO.N,A3*
X124460000Y-67310000D03*
G04 #@! TO.P,J1,29*
G04 #@! TO.N,A4*
X127000000Y-69850000D03*
G04 #@! TO.P,J1,30*
G04 #@! TO.N,A5*
X127000000Y-67310000D03*
G04 #@! TO.P,J1,31*
G04 #@! TO.N,A6*
X129540000Y-69850000D03*
G04 #@! TO.P,J1,32*
G04 #@! TO.N,A7*
X129540000Y-67310000D03*
G04 #@! TO.P,J1,33*
G04 #@! TO.N,A8*
X132080000Y-69850000D03*
G04 #@! TO.P,J1,34*
G04 #@! TO.N,A9*
X132080000Y-67310000D03*
G04 #@! TO.P,J1,35*
G04 #@! TO.N,A10*
X134620000Y-69850000D03*
G04 #@! TO.P,J1,36*
G04 #@! TO.N,A11*
X134620000Y-67310000D03*
G04 #@! TO.P,J1,37*
G04 #@! TO.N,A12*
X137160000Y-69850000D03*
G04 #@! TO.P,J1,38*
G04 #@! TO.N,A13*
X137160000Y-67310000D03*
G04 #@! TO.P,J1,39*
G04 #@! TO.N,A14*
X139700000Y-69850000D03*
G04 #@! TO.P,J1,40*
G04 #@! TO.N,A15*
X139700000Y-67310000D03*
G04 #@! TD*
D18*
G04 #@! TO.P,Y1,1*
G04 #@! TO.N,Net-(C6-Pad1)*
X75425300Y-78663800D03*
G04 #@! TO.P,Y1,2*
G04 #@! TO.N,Net-(C7-Pad1)*
X75425300Y-83543800D03*
G04 #@! TD*
D15*
G04 #@! TO.P,D2,1*
G04 #@! TO.N,Net-(D2-Pad1)*
X71056500Y-71399400D03*
D19*
G04 #@! TO.P,D2,2*
G04 #@! TO.N,VCC*
X73596500Y-71399400D03*
G04 #@! TD*
D14*
G04 #@! TO.P,U2,1*
G04 #@! TO.N,RES*
X95427800Y-103327000D03*
D11*
G04 #@! TO.P,U2,8*
G04 #@! TO.N,Net-(U2-Pad8)*
X103047800Y-118567000D03*
G04 #@! TO.P,U2,2*
G04 #@! TO.N,~RESET*
X95427800Y-105867000D03*
G04 #@! TO.P,U2,9*
G04 #@! TO.N,GND*
X103047800Y-116027000D03*
G04 #@! TO.P,U2,3*
G04 #@! TO.N,~RESIN*
X95427800Y-108407000D03*
G04 #@! TO.P,U2,10*
G04 #@! TO.N,Net-(U2-Pad10)*
X103047800Y-113487000D03*
G04 #@! TO.P,U2,4*
G04 #@! TO.N,RES*
X95427800Y-110947000D03*
G04 #@! TO.P,U2,11*
G04 #@! TO.N,GND*
X103047800Y-110947000D03*
G04 #@! TO.P,U2,5*
X95427800Y-113487000D03*
G04 #@! TO.P,U2,12*
G04 #@! TO.N,Net-(U2-Pad12)*
X103047800Y-108407000D03*
G04 #@! TO.P,U2,6*
G04 #@! TO.N,Net-(U2-Pad6)*
X95427800Y-116027000D03*
G04 #@! TO.P,U2,13*
G04 #@! TO.N,GND*
X103047800Y-105867000D03*
G04 #@! TO.P,U2,7*
X95427800Y-118567000D03*
G04 #@! TO.P,U2,14*
G04 #@! TO.N,VCC*
X103047800Y-103327000D03*
G04 #@! TD*
G04 #@! TO.P,U3,14*
G04 #@! TO.N,VCC*
X102857300Y-80860900D03*
G04 #@! TO.P,U3,7*
G04 #@! TO.N,GND*
X95237300Y-96100900D03*
G04 #@! TO.P,U3,13*
X102857300Y-83400900D03*
G04 #@! TO.P,U3,6*
G04 #@! TO.N,Net-(R3-Pad1)*
X95237300Y-93560900D03*
G04 #@! TO.P,U3,12*
G04 #@! TO.N,Net-(U3-Pad12)*
X102857300Y-85940900D03*
G04 #@! TO.P,U3,5*
G04 #@! TO.N,Net-(C7-Pad1)*
X95237300Y-91020900D03*
G04 #@! TO.P,U3,11*
G04 #@! TO.N,~BUSACK*
X102857300Y-88480900D03*
G04 #@! TO.P,U3,4*
G04 #@! TO.N,CLK*
X95237300Y-88480900D03*
G04 #@! TO.P,U3,10*
G04 #@! TO.N,HLDA*
X102857300Y-91020900D03*
G04 #@! TO.P,U3,3*
G04 #@! TO.N,Net-(R3-Pad1)*
X95237300Y-85940900D03*
G04 #@! TO.P,U3,9*
G04 #@! TO.N,HOLD*
X102857300Y-93560900D03*
G04 #@! TO.P,U3,2*
G04 #@! TO.N,Net-(U3-Pad2)*
X95237300Y-83400900D03*
G04 #@! TO.P,U3,8*
G04 #@! TO.N,Net-(U3-Pad8)*
X102857300Y-96100900D03*
D14*
G04 #@! TO.P,U3,1*
G04 #@! TO.N,INT*
X95237300Y-80860900D03*
G04 #@! TD*
G04 #@! TO.P,U4,1*
G04 #@! TO.N,~RD*
X133794000Y-100317000D03*
D11*
G04 #@! TO.P,U4,8*
G04 #@! TO.N,Net-(U4-Pad8)*
X141414000Y-115557000D03*
G04 #@! TO.P,U4,2*
G04 #@! TO.N,~MREQ*
X133794000Y-102857000D03*
G04 #@! TO.P,U4,9*
G04 #@! TO.N,~RD*
X141414000Y-113017000D03*
G04 #@! TO.P,U4,3*
G04 #@! TO.N,Net-(U4-Pad3)*
X133794000Y-105397000D03*
G04 #@! TO.P,U4,10*
G04 #@! TO.N,~IOREQ*
X141414000Y-110477000D03*
G04 #@! TO.P,U4,4*
G04 #@! TO.N,~MREQ*
X133794000Y-107937000D03*
G04 #@! TO.P,U4,11*
G04 #@! TO.N,Net-(U4-Pad11)*
X141414000Y-107937000D03*
G04 #@! TO.P,U4,5*
G04 #@! TO.N,~WR*
X133794000Y-110477000D03*
G04 #@! TO.P,U4,12*
G04 #@! TO.N,~IOREQ*
X141414000Y-105397000D03*
G04 #@! TO.P,U4,6*
G04 #@! TO.N,Net-(U4-Pad6)*
X133794000Y-113017000D03*
G04 #@! TO.P,U4,13*
G04 #@! TO.N,~WR*
X141414000Y-102857000D03*
G04 #@! TO.P,U4,7*
G04 #@! TO.N,GND*
X133794000Y-115557000D03*
G04 #@! TO.P,U4,14*
G04 #@! TO.N,VCC*
X141414000Y-100317000D03*
G04 #@! TD*
G04 #@! TO.P,U5,14*
G04 #@! TO.N,VCC*
X141326000Y-77165200D03*
G04 #@! TO.P,U5,7*
G04 #@! TO.N,GND*
X133706000Y-92405200D03*
G04 #@! TO.P,U5,13*
X141326000Y-79705200D03*
G04 #@! TO.P,U5,6*
G04 #@! TO.N,Net-(U5-Pad6)*
X133706000Y-89865200D03*
G04 #@! TO.P,U5,12*
G04 #@! TO.N,GND*
X141326000Y-82245200D03*
G04 #@! TO.P,U5,5*
G04 #@! TO.N,Net-(U5-Pad5)*
X133706000Y-87325200D03*
G04 #@! TO.P,U5,11*
G04 #@! TO.N,Net-(U5-Pad11)*
X141326000Y-84785200D03*
G04 #@! TO.P,U5,4*
G04 #@! TO.N,~RD*
X133706000Y-84785200D03*
G04 #@! TO.P,U5,10*
G04 #@! TO.N,HLDA*
X141326000Y-87325200D03*
G04 #@! TO.P,U5,3*
G04 #@! TO.N,Net-(U5-Pad3)*
X133706000Y-82245200D03*
G04 #@! TO.P,U5,9*
G04 #@! TO.N,Net-(U5-Pad9)*
X141326000Y-89865200D03*
G04 #@! TO.P,U5,2*
G04 #@! TO.N,~IOREQ*
X133706000Y-79705200D03*
G04 #@! TO.P,U5,8*
G04 #@! TO.N,Net-(U5-Pad8)*
X141326000Y-92405200D03*
D14*
G04 #@! TO.P,U5,1*
G04 #@! TO.N,~M1*
X133706000Y-77165200D03*
G04 #@! TD*
G04 #@! TO.P,U6,1*
G04 #@! TO.N,Net-(U5-Pad8)*
X146761000Y-77325200D03*
D11*
G04 #@! TO.P,U6,8*
G04 #@! TO.N,~IORD*
X154381000Y-92565200D03*
G04 #@! TO.P,U6,2*
G04 #@! TO.N,Net-(U4-Pad3)*
X146761000Y-79865200D03*
G04 #@! TO.P,U6,9*
G04 #@! TO.N,Net-(U4-Pad8)*
X154381000Y-90025200D03*
G04 #@! TO.P,U6,3*
G04 #@! TO.N,~MEMRD*
X146761000Y-82405200D03*
G04 #@! TO.P,U6,10*
G04 #@! TO.N,Net-(U5-Pad8)*
X154381000Y-87485200D03*
G04 #@! TO.P,U6,4*
X146761000Y-84945200D03*
G04 #@! TO.P,U6,11*
G04 #@! TO.N,~IOWR*
X154381000Y-84945200D03*
G04 #@! TO.P,U6,5*
G04 #@! TO.N,Net-(U4-Pad6)*
X146761000Y-87485200D03*
G04 #@! TO.P,U6,12*
G04 #@! TO.N,Net-(U4-Pad11)*
X154381000Y-82405200D03*
G04 #@! TO.P,U6,6*
G04 #@! TO.N,~MEMWR*
X146761000Y-90025200D03*
G04 #@! TO.P,U6,13*
G04 #@! TO.N,Net-(U5-Pad8)*
X154381000Y-79865200D03*
G04 #@! TO.P,U6,7*
G04 #@! TO.N,GND*
X146761000Y-92565200D03*
G04 #@! TO.P,U6,14*
G04 #@! TO.N,VCC*
X154381000Y-77325200D03*
G04 #@! TD*
D14*
G04 #@! TO.P,U1,1*
G04 #@! TO.N,A11*
X112756000Y-74742000D03*
D11*
G04 #@! TO.P,U1,21*
G04 #@! TO.N,~RD*
X127996000Y-123002000D03*
G04 #@! TO.P,U1,2*
G04 #@! TO.N,A12*
X112756000Y-77282000D03*
G04 #@! TO.P,U1,22*
G04 #@! TO.N,~WR*
X127996000Y-120462000D03*
G04 #@! TO.P,U1,3*
G04 #@! TO.N,A13*
X112756000Y-79822000D03*
G04 #@! TO.P,U1,23*
G04 #@! TO.N,~BUSACK*
X127996000Y-117922000D03*
G04 #@! TO.P,U1,4*
G04 #@! TO.N,A14*
X112756000Y-82362000D03*
G04 #@! TO.P,U1,24*
G04 #@! TO.N,RDYIN*
X127996000Y-115382000D03*
G04 #@! TO.P,U1,5*
G04 #@! TO.N,A15*
X112756000Y-84902000D03*
G04 #@! TO.P,U1,25*
G04 #@! TO.N,~BUSREQ*
X127996000Y-112842000D03*
G04 #@! TO.P,U1,6*
G04 #@! TO.N,CLK*
X112756000Y-87442000D03*
G04 #@! TO.P,U1,26*
G04 #@! TO.N,~RESET*
X127996000Y-110302000D03*
G04 #@! TO.P,U1,7*
G04 #@! TO.N,D4*
X112756000Y-89982000D03*
G04 #@! TO.P,U1,27*
G04 #@! TO.N,~M1*
X127996000Y-107762000D03*
G04 #@! TO.P,U1,8*
G04 #@! TO.N,D3*
X112756000Y-92522000D03*
G04 #@! TO.P,U1,28*
G04 #@! TO.N,~RFSH*
X127996000Y-105222000D03*
G04 #@! TO.P,U1,9*
G04 #@! TO.N,D5*
X112756000Y-95062000D03*
G04 #@! TO.P,U1,29*
G04 #@! TO.N,GND*
X127996000Y-102682000D03*
G04 #@! TO.P,U1,10*
G04 #@! TO.N,D6*
X112756000Y-97602000D03*
G04 #@! TO.P,U1,30*
G04 #@! TO.N,A0*
X127996000Y-100142000D03*
G04 #@! TO.P,U1,11*
G04 #@! TO.N,VCC*
X112756000Y-100142000D03*
G04 #@! TO.P,U1,31*
G04 #@! TO.N,A1*
X127996000Y-97602000D03*
G04 #@! TO.P,U1,12*
G04 #@! TO.N,D2*
X112756000Y-102682000D03*
G04 #@! TO.P,U1,32*
G04 #@! TO.N,A2*
X127996000Y-95062000D03*
G04 #@! TO.P,U1,13*
G04 #@! TO.N,D7*
X112756000Y-105222000D03*
G04 #@! TO.P,U1,33*
G04 #@! TO.N,A3*
X127996000Y-92522000D03*
G04 #@! TO.P,U1,14*
G04 #@! TO.N,D0*
X112756000Y-107762000D03*
G04 #@! TO.P,U1,34*
G04 #@! TO.N,A4*
X127996000Y-89982000D03*
G04 #@! TO.P,U1,15*
G04 #@! TO.N,D1*
X112756000Y-110302000D03*
G04 #@! TO.P,U1,35*
G04 #@! TO.N,A5*
X127996000Y-87442000D03*
G04 #@! TO.P,U1,16*
G04 #@! TO.N,~INT*
X112756000Y-112842000D03*
G04 #@! TO.P,U1,36*
G04 #@! TO.N,A6*
X127996000Y-84902000D03*
G04 #@! TO.P,U1,17*
G04 #@! TO.N,RN22*
X112756000Y-115382000D03*
G04 #@! TO.P,U1,37*
G04 #@! TO.N,A7*
X127996000Y-82362000D03*
G04 #@! TO.P,U1,18*
G04 #@! TO.N,~HALT*
X112756000Y-117922000D03*
G04 #@! TO.P,U1,38*
G04 #@! TO.N,A8*
X127996000Y-79822000D03*
G04 #@! TO.P,U1,19*
G04 #@! TO.N,~MREQ*
X112756000Y-120462000D03*
G04 #@! TO.P,U1,39*
G04 #@! TO.N,A9*
X127996000Y-77282000D03*
G04 #@! TO.P,U1,20*
G04 #@! TO.N,~IOREQ*
X112756000Y-123002000D03*
G04 #@! TO.P,U1,40*
G04 #@! TO.N,A10*
X127996000Y-74742000D03*
G04 #@! TD*
D10*
G04 #@! TO.P,R2,1*
G04 #@! TO.N,VCC*
X80934600Y-89535000D03*
D11*
G04 #@! TO.P,R2,2*
G04 #@! TO.N,~RESIN*
X91094600Y-89535000D03*
G04 #@! TD*
G04 #@! TO.P,R1,2*
G04 #@! TO.N,GND*
X91094600Y-78105000D03*
D10*
G04 #@! TO.P,R1,1*
G04 #@! TO.N,INT*
X80934600Y-78105000D03*
G04 #@! TD*
G04 #@! TO.P,R3,1*
G04 #@! TO.N,Net-(R3-Pad1)*
X91094600Y-81915000D03*
D11*
G04 #@! TO.P,R3,2*
G04 #@! TO.N,Net-(C6-Pad1)*
X80934600Y-81915000D03*
G04 #@! TD*
G04 #@! TO.P,R4,2*
G04 #@! TO.N,Net-(C7-Pad1)*
X80934600Y-85725000D03*
D10*
G04 #@! TO.P,R4,1*
G04 #@! TO.N,Net-(R3-Pad1)*
X91094600Y-85725000D03*
G04 #@! TD*
G04 #@! TO.P,R5,1*
G04 #@! TO.N,Net-(D2-Pad1)*
X80883800Y-74508400D03*
D11*
G04 #@! TO.P,R5,2*
G04 #@! TO.N,GND*
X91043800Y-74508400D03*
G04 #@! TD*
D20*
G04 #@! TO.P,J2,2*
G04 #@! TO.N,GND*
X85308400Y-124074000D03*
D21*
G04 #@! TO.P,J2,1*
G04 #@! TO.N,Net-(J2-Pad1)*
X85308400Y-117978000D03*
D20*
G04 #@! TO.P,J2,3*
G04 #@! TO.N,Net-(J2-Pad3)*
X90388400Y-121788000D03*
G04 #@! TD*
D22*
G04 #@! TO.P,C2,1*
G04 #@! TO.N,~RESIN*
X85725000Y-100330000D03*
D23*
G04 #@! TO.P,C2,2*
G04 #@! TO.N,GND*
X85725000Y-98330000D03*
G04 #@! TD*
D14*
G04 #@! TO.P,C8,1*
G04 #@! TO.N,VCC*
X84455000Y-108585000D03*
D10*
G04 #@! TO.P,C8,2*
G04 #@! TO.N,GND*
X86955000Y-108585000D03*
G04 #@! TD*
D24*
G04 #@! TO.N,GND*
X116750000Y-93800000D03*
X97025000Y-124400000D03*
X130175000Y-127350000D03*
X90325000Y-99525000D03*
X151050000Y-90200000D03*
G04 #@! TO.N,~IOWR*
X121025300Y-83045000D03*
G04 #@! TO.N,Net-(U4-Pad3)*
X132873900Y-80864800D03*
G04 #@! TO.N,Net-(U4-Pad6)*
X136864100Y-111667700D03*
X136453100Y-92022400D03*
G04 #@! TO.N,~WR*
X129598800Y-114361300D03*
G04 #@! TO.N,~RESET*
X130354600Y-123010900D03*
X77601400Y-110582000D03*
G04 #@! TO.N,Net-(U5-Pad3)*
X141605000Y-121391400D03*
G04 #@! TO.N,~BUSREQ*
X137702200Y-122304000D03*
G04 #@! TO.N,~HALT*
X81997300Y-114767600D03*
G04 #@! TO.N,~MREQ*
X124540000Y-104311700D03*
G04 #@! TO.N,RN24*
X97738600Y-114635500D03*
G04 #@! TO.N,Net-(U3-Pad8)*
X129817600Y-101304700D03*
G04 #@! TO.N,RN23*
X126707900Y-111478900D03*
G04 #@! TD*
D25*
G04 #@! TO.N,VCC*
X80934600Y-97668700D02*
X80934600Y-93345000D01*
X84455000Y-107284700D02*
X80934600Y-103764300D01*
X80934600Y-103764300D02*
X80934600Y-97668700D01*
X80934600Y-97668700D02*
X74416300Y-97668700D01*
X74416300Y-97668700D02*
X73025000Y-99060000D01*
X84455000Y-108585000D02*
X84455000Y-107284700D01*
X141414000Y-100317000D02*
X141414000Y-99016700D01*
X141414000Y-99016700D02*
X141986000Y-98444700D01*
X141986000Y-98444700D02*
X141986000Y-97028000D01*
X119532000Y-103698000D02*
X119532000Y-116435600D01*
X119532000Y-116435600D02*
X127398700Y-124302300D01*
X127398700Y-124302300D02*
X130372700Y-124302300D01*
X130372700Y-124302300D02*
X134620000Y-120055000D01*
X152528800Y-97070500D02*
X154381000Y-98922700D01*
X154381000Y-77325200D02*
X155681700Y-78625900D01*
X155681700Y-78625900D02*
X155681700Y-93917600D01*
X155681700Y-93917600D02*
X152528800Y-97070500D01*
X152222000Y-97175300D02*
X152326800Y-97070500D01*
X152326800Y-97070500D02*
X152528800Y-97070500D01*
X154381000Y-100223000D02*
X154381000Y-98922700D01*
X154889000Y-74188300D02*
X153578400Y-72877700D01*
X153578400Y-72877700D02*
X142895300Y-72877700D01*
X142895300Y-72877700D02*
X141859000Y-73914000D01*
X80934600Y-89535000D02*
X79646700Y-89535000D01*
X79646700Y-89535000D02*
X73596500Y-83484800D01*
X73596500Y-83484800D02*
X73596500Y-71399400D01*
X103251000Y-99949000D02*
X104167100Y-99032900D01*
X104167100Y-99032900D02*
X104167100Y-82170700D01*
X104167100Y-82170700D02*
X102857300Y-80860900D01*
X103047800Y-102026700D02*
X103251000Y-101823500D01*
X103251000Y-101823500D02*
X103251000Y-99949000D01*
X141326000Y-77165200D02*
X141326000Y-75864900D01*
X141326000Y-75864900D02*
X141859000Y-75331900D01*
X141859000Y-75331900D02*
X141859000Y-73914000D01*
X103047800Y-103327000D02*
X103047800Y-102026700D01*
X80934600Y-89535000D02*
X80934600Y-93345000D01*
G04 #@! TO.N,GND*
X103047800Y-110947000D02*
X104370600Y-109624200D01*
X104370600Y-109624200D02*
X104370600Y-107189800D01*
X104370600Y-107189800D02*
X103047800Y-105867000D01*
X103047800Y-110947000D02*
X104348100Y-112247300D01*
X104348100Y-112247300D02*
X104348100Y-116027000D01*
X103047800Y-105867000D02*
X100751000Y-103570200D01*
X100751000Y-103570200D02*
X100751000Y-99949000D01*
X85725000Y-98330000D02*
X85725000Y-84774900D01*
X85725000Y-84774900D02*
X91094600Y-79405300D01*
X86955000Y-108585000D02*
X84624600Y-106254600D01*
X84624600Y-106254600D02*
X84624600Y-99430400D01*
X84624600Y-99430400D02*
X85725000Y-98330000D01*
X91094600Y-78105000D02*
X91094600Y-79405300D01*
X104348100Y-116027000D02*
X104348200Y-116027000D01*
X104348200Y-116027000D02*
X104348200Y-122132700D01*
X104348200Y-122132700D02*
X107374000Y-125158500D01*
X107374000Y-125158500D02*
X132016500Y-125158500D01*
X132016500Y-125158500D02*
X134620000Y-122555000D01*
X103047800Y-116027000D02*
X104348100Y-116027000D01*
X100751000Y-77724000D02*
X100751000Y-81294600D01*
X100751000Y-81294600D02*
X102857300Y-83400900D01*
X146761000Y-92565200D02*
X145460700Y-92565200D01*
X139486000Y-97028000D02*
X143948800Y-92565200D01*
X143948800Y-92565200D02*
X145460700Y-92565200D01*
X148061400Y-76024700D02*
X149897800Y-74188300D01*
X149897800Y-74188300D02*
X152389000Y-74188300D01*
X146761000Y-92565200D02*
X148061400Y-91264800D01*
X148061400Y-91264800D02*
X148061400Y-76024700D01*
X148061400Y-76024700D02*
X145737900Y-76024700D01*
X145737900Y-76024700D02*
X142626300Y-79136300D01*
X142626300Y-79136300D02*
X142626300Y-79705200D01*
X141326000Y-79705200D02*
X142626300Y-79705200D01*
X141326000Y-79705200D02*
X139359000Y-77738200D01*
X139359000Y-77738200D02*
X139359000Y-73914000D01*
X70655100Y-89364900D02*
X69850000Y-90170000D01*
X69354700Y-83148800D02*
X70655100Y-84449200D01*
X70655100Y-84449200D02*
X70655100Y-89364900D01*
X76350000Y-90170000D02*
X71460200Y-90170000D01*
X71460200Y-90170000D02*
X70655100Y-89364900D01*
X69354700Y-83148800D02*
X69354700Y-79246100D01*
X154381000Y-105303000D02*
X154381000Y-102763000D01*
X154381000Y-107843000D02*
X154381000Y-110383000D01*
X93477300Y-114137200D02*
X94127400Y-114787400D01*
X94127400Y-114787400D02*
X94127400Y-117266600D01*
X94127400Y-117266600D02*
X95427800Y-118567000D01*
X86955000Y-108585000D02*
X87925000Y-108585000D01*
X87925000Y-108585000D02*
X93477300Y-114137200D01*
X93477300Y-114137200D02*
X94127500Y-113487000D01*
X95427800Y-113487000D02*
X94127500Y-113487000D01*
X154381000Y-107843000D02*
X154381000Y-105303000D01*
X146761000Y-102763000D02*
X146761000Y-105303000D01*
X141326000Y-82245200D02*
X141326000Y-79705200D01*
X85308400Y-124074000D02*
X85972500Y-124738100D01*
X85972500Y-124738100D02*
X91575500Y-124738100D01*
X91575500Y-124738100D02*
X95427800Y-120885800D01*
X95427800Y-120885800D02*
X95427800Y-118567000D01*
X91043800Y-74508400D02*
X91043800Y-73208100D01*
X91440000Y-67310000D02*
X90089600Y-68660400D01*
X90089600Y-68660400D02*
X90089600Y-72253900D01*
X90089600Y-72253900D02*
X91043800Y-73208100D01*
X91094600Y-78105000D02*
X91094600Y-76804700D01*
X91094600Y-76804700D02*
X91043800Y-76753900D01*
X91043800Y-76753900D02*
X91043800Y-74508400D01*
D26*
G04 #@! TO.N,Net-(C7-Pad1)*
X80934600Y-85725000D02*
X79809300Y-85725000D01*
X79809300Y-85725000D02*
X77628100Y-83543800D01*
X77628100Y-83543800D02*
X75425300Y-83543800D01*
G04 #@! TO.N,CLK*
X99060000Y-67310000D02*
X99060000Y-68485300D01*
X95237300Y-88480900D02*
X97884700Y-85833500D01*
X97884700Y-85833500D02*
X97884700Y-69293200D01*
X97884700Y-69293200D02*
X98692600Y-68485300D01*
X98692600Y-68485300D02*
X99060000Y-68485300D01*
G04 #@! TO.N,D0*
X107950000Y-81280000D02*
X107950000Y-82405300D01*
X112756000Y-107762000D02*
X112756000Y-106636700D01*
X112756000Y-106636700D02*
X112474600Y-106636700D01*
X112474600Y-106636700D02*
X111630700Y-105792800D01*
X111630700Y-105792800D02*
X111630700Y-105067000D01*
X111630700Y-105067000D02*
X106807800Y-100244100D01*
X106807800Y-100244100D02*
X106807800Y-98591900D01*
X106807800Y-98591900D02*
X107609700Y-97790000D01*
X107609700Y-97790000D02*
X108307400Y-97790000D01*
X108307400Y-97790000D02*
X109533500Y-96563900D01*
X109533500Y-96563900D02*
X109533500Y-83707500D01*
X109533500Y-83707500D02*
X108231300Y-82405300D01*
X108231300Y-82405300D02*
X107950000Y-82405300D01*
G04 #@! TO.N,D1*
X107950000Y-83820000D02*
X109075300Y-84945300D01*
X109075300Y-84945300D02*
X109075300Y-91907100D01*
X109075300Y-91907100D02*
X108272400Y-92710000D01*
X108272400Y-92710000D02*
X107605000Y-92710000D01*
X107605000Y-92710000D02*
X106357500Y-93957500D01*
X106357500Y-93957500D02*
X106357500Y-103991100D01*
X106357500Y-103991100D02*
X106996800Y-104630400D01*
X106996800Y-104630400D02*
X108202300Y-104630400D01*
X108202300Y-104630400D02*
X111630700Y-108058800D01*
X111630700Y-108058800D02*
X111630700Y-108338400D01*
X111630700Y-108338400D02*
X112469000Y-109176700D01*
X112469000Y-109176700D02*
X112756000Y-109176700D01*
X112756000Y-110302000D02*
X112756000Y-109176700D01*
G04 #@! TO.N,D2*
X107366100Y-80256500D02*
X106824600Y-79715000D01*
X106824600Y-79715000D02*
X106824600Y-76213000D01*
X106824600Y-76213000D02*
X106894100Y-76143500D01*
X106894100Y-76143500D02*
X106894100Y-73779400D01*
X106894100Y-73779400D02*
X104140000Y-71025300D01*
X107950000Y-86360000D02*
X107950000Y-85234700D01*
X107366100Y-80256500D02*
X107471500Y-80151100D01*
X107471500Y-80151100D02*
X108467000Y-80151100D01*
X108467000Y-80151100D02*
X109983900Y-81668000D01*
X109983900Y-81668000D02*
X109983900Y-99047600D01*
X109983900Y-99047600D02*
X112493000Y-101556700D01*
X112493000Y-101556700D02*
X112756000Y-101556700D01*
X107950000Y-85234700D02*
X107668700Y-85234700D01*
X107668700Y-85234700D02*
X106815100Y-84381100D01*
X106815100Y-84381100D02*
X106815100Y-80807500D01*
X106815100Y-80807500D02*
X107366100Y-80256500D01*
X104140000Y-69850000D02*
X104140000Y-71025300D01*
X112756000Y-102682000D02*
X112756000Y-101556700D01*
G04 #@! TO.N,D3*
X104140000Y-67310000D02*
X104140000Y-68485300D01*
X107950000Y-88900000D02*
X107950000Y-87774700D01*
X107950000Y-87774700D02*
X107668700Y-87774700D01*
X107668700Y-87774700D02*
X106347800Y-86453800D01*
X106347800Y-86453800D02*
X106347800Y-76052900D01*
X106347800Y-76052900D02*
X106443700Y-75957000D01*
X106443700Y-75957000D02*
X106443700Y-74088000D01*
X106443700Y-74088000D02*
X102964700Y-70609000D01*
X102964700Y-70609000D02*
X102964700Y-69293200D01*
X102964700Y-69293200D02*
X103772600Y-68485300D01*
X103772600Y-68485300D02*
X104140000Y-68485300D01*
G04 #@! TO.N,D4*
X106680000Y-71025300D02*
X111180400Y-75525700D01*
X111180400Y-75525700D02*
X111180400Y-87562500D01*
X111180400Y-87562500D02*
X112474600Y-88856700D01*
X112474600Y-88856700D02*
X112756000Y-88856700D01*
X106680000Y-69850000D02*
X106680000Y-71025300D01*
X112756000Y-89982000D02*
X112756000Y-88856700D01*
G04 #@! TO.N,D5*
X112756000Y-93936700D02*
X112557400Y-93936700D01*
X112557400Y-93936700D02*
X110730100Y-92109400D01*
X110730100Y-92109400D02*
X110730100Y-76341700D01*
X110730100Y-76341700D02*
X105504700Y-71116300D01*
X105504700Y-71116300D02*
X105504700Y-69293200D01*
X105504700Y-69293200D02*
X106312600Y-68485300D01*
X106312600Y-68485300D02*
X106680000Y-68485300D01*
X106680000Y-67310000D02*
X106680000Y-68485300D01*
X112756000Y-95062000D02*
X112756000Y-93936700D01*
G04 #@! TO.N,D6*
X112756000Y-96476700D02*
X113037300Y-96476700D01*
X113037300Y-96476700D02*
X113887000Y-95627000D01*
X113887000Y-95627000D02*
X113887000Y-81891300D01*
X113887000Y-81891300D02*
X113087700Y-81092000D01*
X113087700Y-81092000D02*
X112359100Y-81092000D01*
X112359100Y-81092000D02*
X111630700Y-80363600D01*
X111630700Y-80363600D02*
X111630700Y-73436000D01*
X111630700Y-73436000D02*
X109220000Y-71025300D01*
X109220000Y-69850000D02*
X109220000Y-71025300D01*
X112756000Y-97602000D02*
X112756000Y-96476700D01*
G04 #@! TO.N,D7*
X109220000Y-67310000D02*
X109220000Y-68485300D01*
X109220000Y-68485300D02*
X109587400Y-68485300D01*
X109587400Y-68485300D02*
X110395300Y-69293200D01*
X110395300Y-69293200D02*
X110395300Y-70176000D01*
X110395300Y-70176000D02*
X114359400Y-74140100D01*
X114359400Y-74140100D02*
X114359400Y-102686100D01*
X114359400Y-102686100D02*
X112948800Y-104096700D01*
X112948800Y-104096700D02*
X112756000Y-104096700D01*
X107950000Y-99060000D02*
X107950000Y-100185300D01*
X112756000Y-105222000D02*
X112756000Y-104096700D01*
X112756000Y-104096700D02*
X111861400Y-104096700D01*
X111861400Y-104096700D02*
X107950000Y-100185300D01*
G04 #@! TO.N,~IOWR*
X114300000Y-69850000D02*
X115475300Y-69850000D01*
X115475300Y-69850000D02*
X115475300Y-69482700D01*
X115475300Y-69482700D02*
X116283400Y-68674600D01*
X116283400Y-68674600D02*
X117365600Y-68674600D01*
X117365600Y-68674600D02*
X118110000Y-69419000D01*
X118110000Y-69419000D02*
X118110000Y-80129700D01*
X118110000Y-80129700D02*
X121025300Y-83045000D01*
G04 #@! TO.N,~MEMWR*
X146761000Y-90025200D02*
X146761000Y-88899900D01*
X114300000Y-67310000D02*
X115475300Y-67310000D01*
X115475300Y-67310000D02*
X115475300Y-66942700D01*
X115475300Y-66942700D02*
X116760700Y-65657300D01*
X116760700Y-65657300D02*
X134674700Y-65657300D01*
X134674700Y-65657300D02*
X135826700Y-66809300D01*
X135826700Y-66809300D02*
X135826700Y-78385400D01*
X135826700Y-78385400D02*
X140923900Y-83482600D01*
X140923900Y-83482600D02*
X141688200Y-83482600D01*
X141688200Y-83482600D02*
X145635700Y-87430100D01*
X145635700Y-87430100D02*
X145635700Y-88056000D01*
X145635700Y-88056000D02*
X146479600Y-88899900D01*
X146479600Y-88899900D02*
X146761000Y-88899900D01*
G04 #@! TO.N,RES*
X95427800Y-102201700D02*
X92754300Y-99528200D01*
X92754300Y-99528200D02*
X92754300Y-73521100D01*
X92754300Y-73521100D02*
X95250000Y-71025400D01*
X95250000Y-71025400D02*
X95250000Y-69419000D01*
X95250000Y-69419000D02*
X95994400Y-68674600D01*
X95994400Y-68674600D02*
X96839600Y-68674600D01*
X96839600Y-68674600D02*
X97756600Y-67757600D01*
X97756600Y-67757600D02*
X97756600Y-66950900D01*
X97756600Y-66950900D02*
X98604700Y-66102800D01*
X98604700Y-66102800D02*
X112233900Y-66102800D01*
X112233900Y-66102800D02*
X113030000Y-66898900D01*
X113030000Y-66898900D02*
X113030000Y-70320000D01*
X113030000Y-70320000D02*
X113795400Y-71085400D01*
X113795400Y-71085400D02*
X115604600Y-71085400D01*
X115604600Y-71085400D02*
X116840000Y-69850000D01*
X95427800Y-103327000D02*
X95427800Y-102201700D01*
X95427800Y-103327000D02*
X95427800Y-104452300D01*
X95427800Y-110947000D02*
X95427800Y-109821700D01*
X95427800Y-109821700D02*
X95709100Y-109821700D01*
X95709100Y-109821700D02*
X96553100Y-108977700D01*
X96553100Y-108977700D02*
X96553100Y-105296200D01*
X96553100Y-105296200D02*
X95709200Y-104452300D01*
X95709200Y-104452300D02*
X95427800Y-104452300D01*
G04 #@! TO.N,A0*
X127996000Y-99016700D02*
X127819100Y-99016700D01*
X127819100Y-99016700D02*
X121920000Y-93117600D01*
X121920000Y-93117600D02*
X121920000Y-71025300D01*
X121920000Y-69850000D02*
X121920000Y-71025300D01*
X127996000Y-100142000D02*
X127996000Y-99016700D01*
G04 #@! TO.N,A1*
X121920000Y-67310000D02*
X121920000Y-68485300D01*
X127996000Y-97602000D02*
X127996000Y-96476700D01*
X127996000Y-96476700D02*
X127714700Y-96476700D01*
X127714700Y-96476700D02*
X123095300Y-91857300D01*
X123095300Y-91857300D02*
X123095300Y-69293200D01*
X123095300Y-69293200D02*
X122287400Y-68485300D01*
X122287400Y-68485300D02*
X121920000Y-68485300D01*
G04 #@! TO.N,A2*
X127996000Y-95062000D02*
X127996000Y-93936700D01*
X127996000Y-93936700D02*
X127714700Y-93936700D01*
X127714700Y-93936700D02*
X124460000Y-90682000D01*
X124460000Y-90682000D02*
X124460000Y-69850000D01*
G04 #@! TO.N,A3*
X124460000Y-68485300D02*
X124827400Y-68485300D01*
X124827400Y-68485300D02*
X125635300Y-69293200D01*
X125635300Y-69293200D02*
X125635300Y-71270300D01*
X125635300Y-71270300D02*
X125488000Y-71417600D01*
X125488000Y-71417600D02*
X125488000Y-89170000D01*
X125488000Y-89170000D02*
X127714700Y-91396700D01*
X127714700Y-91396700D02*
X127996000Y-91396700D01*
X124460000Y-67310000D02*
X124460000Y-68485300D01*
X127996000Y-92522000D02*
X127996000Y-91396700D01*
G04 #@! TO.N,A4*
X127000000Y-71025300D02*
X125942700Y-72082600D01*
X125942700Y-72082600D02*
X125942700Y-87007900D01*
X125942700Y-87007900D02*
X127791500Y-88856700D01*
X127791500Y-88856700D02*
X127996000Y-88856700D01*
X127000000Y-69850000D02*
X127000000Y-71025300D01*
X127996000Y-89982000D02*
X127996000Y-88856700D01*
G04 #@! TO.N,A5*
X127000000Y-68485300D02*
X127367400Y-68485300D01*
X127367400Y-68485300D02*
X128175300Y-69293200D01*
X128175300Y-69293200D02*
X128175300Y-70577800D01*
X128175300Y-70577800D02*
X126396900Y-72356200D01*
X126396900Y-72356200D02*
X126396900Y-84998900D01*
X126396900Y-84998900D02*
X127714700Y-86316700D01*
X127714700Y-86316700D02*
X127996000Y-86316700D01*
X127000000Y-67310000D02*
X127000000Y-68485300D01*
X127996000Y-87442000D02*
X127996000Y-86316700D01*
G04 #@! TO.N,A6*
X129540000Y-69850000D02*
X129540000Y-71025300D01*
X127996000Y-84902000D02*
X127996000Y-83776700D01*
X127996000Y-83776700D02*
X127714700Y-83776700D01*
X127714700Y-83776700D02*
X126847300Y-82909300D01*
X126847300Y-82909300D02*
X126847300Y-73718000D01*
X126847300Y-73718000D02*
X129540000Y-71025300D01*
G04 #@! TO.N,A7*
X129540000Y-67310000D02*
X130715300Y-67310000D01*
X127996000Y-82362000D02*
X127996000Y-81236700D01*
X127996000Y-81236700D02*
X128277300Y-81236700D01*
X128277300Y-81236700D02*
X132530400Y-76983600D01*
X132530400Y-76983600D02*
X132530400Y-73050900D01*
X132530400Y-73050900D02*
X133299600Y-72281700D01*
X133299600Y-72281700D02*
X133299600Y-66866400D01*
X133299600Y-66866400D02*
X132567900Y-66134700D01*
X132567900Y-66134700D02*
X131523200Y-66134700D01*
X131523200Y-66134700D02*
X130715300Y-66942600D01*
X130715300Y-66942600D02*
X130715300Y-67310000D01*
G04 #@! TO.N,A8*
X127996000Y-79822000D02*
X127996000Y-78696700D01*
X127996000Y-78696700D02*
X128175200Y-78696700D01*
X128175200Y-78696700D02*
X132080000Y-74791900D01*
X132080000Y-74791900D02*
X132080000Y-69850000D01*
G04 #@! TO.N,A9*
X132080000Y-67310000D02*
X132080000Y-68485300D01*
X127996000Y-77282000D02*
X127996000Y-76156700D01*
X127996000Y-76156700D02*
X128277300Y-76156700D01*
X128277300Y-76156700D02*
X130904700Y-73529300D01*
X130904700Y-73529300D02*
X130904700Y-69293200D01*
X130904700Y-69293200D02*
X131712600Y-68485300D01*
X131712600Y-68485300D02*
X132080000Y-68485300D01*
D25*
G04 #@! TO.N,Net-(J2-Pad1)*
X85308400Y-115077400D02*
X85308400Y-113723300D01*
X85308400Y-113723300D02*
X75565000Y-103979900D01*
X75565000Y-103979900D02*
X75565000Y-100410300D01*
X75565000Y-99060000D02*
X75565000Y-100410300D01*
X85308400Y-117978000D02*
X85308400Y-115077400D01*
D26*
G04 #@! TO.N,Net-(R3-Pad1)*
X95237300Y-93560900D02*
X95237300Y-92435600D01*
X95237300Y-85940900D02*
X95237300Y-87066200D01*
X95237300Y-87066200D02*
X94984500Y-87066200D01*
X94984500Y-87066200D02*
X94112000Y-87938700D01*
X94112000Y-87938700D02*
X94112000Y-91591700D01*
X94112000Y-91591700D02*
X94955900Y-92435600D01*
X94955900Y-92435600D02*
X95237300Y-92435600D01*
X91094600Y-85725000D02*
X91094600Y-81915000D01*
G04 #@! TO.N,HOLD*
X102857300Y-93560900D02*
X102857300Y-92435600D01*
X105283000Y-74549000D02*
X102329600Y-74549000D01*
X102329600Y-74549000D02*
X99587300Y-77291300D01*
X99587300Y-77291300D02*
X99587300Y-89446900D01*
X99587300Y-89446900D02*
X102576000Y-92435600D01*
X102576000Y-92435600D02*
X102857300Y-92435600D01*
G04 #@! TO.N,RDYIN*
X107950000Y-106045000D02*
X106824700Y-106045000D01*
X106824700Y-106045000D02*
X105521300Y-104741600D01*
X105521300Y-104741600D02*
X102806800Y-104741600D01*
X102806800Y-104741600D02*
X101876500Y-103811300D01*
X101876500Y-103811300D02*
X101876500Y-97001300D01*
X101876500Y-97001300D02*
X99060000Y-94184800D01*
X99060000Y-94184800D02*
X99060000Y-69850000D01*
G04 #@! TO.N,~RESIN*
X96520000Y-67310000D02*
X95344700Y-67310000D01*
X91094600Y-89535000D02*
X91094600Y-88409700D01*
X91094600Y-88409700D02*
X92219900Y-87284400D01*
X92219900Y-87284400D02*
X92219900Y-72170100D01*
X92219900Y-72170100D02*
X92710000Y-71680000D01*
X92710000Y-71680000D02*
X92710000Y-69419700D01*
X92710000Y-69419700D02*
X93644400Y-68485300D01*
X93644400Y-68485300D02*
X94536800Y-68485300D01*
X94536800Y-68485300D02*
X95344700Y-67677400D01*
X95344700Y-67677400D02*
X95344700Y-67310000D01*
X91094600Y-93345000D02*
X91094600Y-89535000D01*
X87224600Y-99359800D02*
X95146500Y-107281700D01*
X95146500Y-107281700D02*
X95427800Y-107281700D01*
X91094600Y-93957600D02*
X87224600Y-97827600D01*
X87224600Y-97827600D02*
X87224600Y-99359800D01*
X85725000Y-99404700D02*
X87179700Y-99404700D01*
X87179700Y-99404700D02*
X87224600Y-99359800D01*
X95427800Y-108407000D02*
X95427800Y-107281700D01*
X91094600Y-93345000D02*
X91094600Y-93957600D01*
X85725000Y-100330000D02*
X85725000Y-99404700D01*
G04 #@! TO.N,Net-(U4-Pad3)*
X133794000Y-105397000D02*
X133794000Y-104271700D01*
X132873900Y-80864800D02*
X132075000Y-81663700D01*
X132075000Y-81663700D02*
X132075000Y-102834000D01*
X132075000Y-102834000D02*
X133512700Y-104271700D01*
X133512700Y-104271700D02*
X133794000Y-104271700D01*
G04 #@! TO.N,Net-(U4-Pad8)*
X141414000Y-115557000D02*
X142539300Y-115557000D01*
X154381000Y-90025200D02*
X154381000Y-91150500D01*
X154381000Y-91150500D02*
X153765600Y-91150500D01*
X153765600Y-91150500D02*
X145607400Y-99308700D01*
X145607400Y-99308700D02*
X145607400Y-105776400D01*
X145607400Y-105776400D02*
X146404000Y-106573000D01*
X146404000Y-106573000D02*
X147145200Y-106573000D01*
X147145200Y-106573000D02*
X147888000Y-107315800D01*
X147888000Y-107315800D02*
X147888000Y-113409000D01*
X147888000Y-113409000D02*
X147104000Y-114193000D01*
X147104000Y-114193000D02*
X143903300Y-114193000D01*
X143903300Y-114193000D02*
X142539300Y-115557000D01*
G04 #@! TO.N,Net-(U4-Pad6)*
X136453100Y-92022400D02*
X136864100Y-92433400D01*
X136864100Y-92433400D02*
X136864100Y-111667700D01*
G04 #@! TO.N,Net-(U4-Pad11)*
X154381000Y-83530500D02*
X154099700Y-83530500D01*
X154099700Y-83530500D02*
X148934000Y-88696200D01*
X148934000Y-88696200D02*
X148934000Y-94701400D01*
X148934000Y-94701400D02*
X142539300Y-101096100D01*
X142539300Y-101096100D02*
X142539300Y-105967800D01*
X142539300Y-105967800D02*
X141695400Y-106811700D01*
X141695400Y-106811700D02*
X141414000Y-106811700D01*
X141414000Y-107937000D02*
X141414000Y-106811700D01*
X154381000Y-82405200D02*
X154381000Y-83530500D01*
G04 #@! TO.N,Net-(U5-Pad6)*
X133706000Y-89865200D02*
X133706000Y-90990500D01*
X140335000Y-128270000D02*
X141460300Y-128270000D01*
X141460300Y-128270000D02*
X141460300Y-127988600D01*
X141460300Y-127988600D02*
X142304200Y-127144700D01*
X142304200Y-127144700D02*
X143064600Y-127144700D01*
X143064600Y-127144700D02*
X149085400Y-121123900D01*
X149085400Y-121123900D02*
X149085400Y-120083400D01*
X149085400Y-120083400D02*
X146343500Y-117341500D01*
X146343500Y-117341500D02*
X141451700Y-117341500D01*
X141451700Y-117341500D02*
X136105100Y-111994900D01*
X136105100Y-111994900D02*
X136105100Y-93212700D01*
X136105100Y-93212700D02*
X133882900Y-90990500D01*
X133882900Y-90990500D02*
X133706000Y-90990500D01*
G04 #@! TO.N,~INTA*
X96520000Y-71025300D02*
X93204700Y-74340600D01*
X93204700Y-74340600D02*
X93204700Y-98268500D01*
X93204700Y-98268500D02*
X100650700Y-105714500D01*
X100650700Y-105714500D02*
X100650700Y-119991900D01*
X100650700Y-119991900D02*
X110059500Y-129400700D01*
X110059500Y-129400700D02*
X141744300Y-129400700D01*
X141744300Y-129400700D02*
X142875000Y-128270000D01*
X96520000Y-69850000D02*
X96520000Y-71025300D01*
G04 #@! TO.N,Net-(U5-Pad8)*
X146761000Y-83819900D02*
X146564000Y-83819900D01*
X146564000Y-83819900D02*
X145635700Y-82891600D01*
X145635700Y-82891600D02*
X145635700Y-79294400D01*
X145635700Y-79294400D02*
X146479600Y-78450500D01*
X146479600Y-78450500D02*
X146761000Y-78450500D01*
X146761000Y-77325200D02*
X146761000Y-78450500D01*
X146761000Y-84945200D02*
X146761000Y-83819900D01*
G04 #@! TO.N,~RD*
X133706000Y-84785200D02*
X133706000Y-85910500D01*
X133794000Y-100317000D02*
X133794000Y-99191700D01*
X133794000Y-99191700D02*
X132580700Y-97978400D01*
X132580700Y-97978400D02*
X132580700Y-86754400D01*
X132580700Y-86754400D02*
X133424600Y-85910500D01*
X133424600Y-85910500D02*
X133706000Y-85910500D01*
G04 #@! TO.N,~WR*
X127996000Y-119336700D02*
X128277300Y-119336700D01*
X128277300Y-119336700D02*
X129598800Y-118015200D01*
X129598800Y-118015200D02*
X129598800Y-114361300D01*
X127996000Y-120462000D02*
X127996000Y-119336700D01*
G04 #@! TO.N,~RESET*
X127996000Y-110302000D02*
X126800800Y-110302000D01*
X126800800Y-110302000D02*
X125980400Y-111122400D01*
X125980400Y-111122400D02*
X125980400Y-120096100D01*
X125980400Y-120096100D02*
X127471700Y-121587400D01*
X127471700Y-121587400D02*
X128931100Y-121587400D01*
X128931100Y-121587400D02*
X130354600Y-123010900D01*
X72390000Y-116205000D02*
X73565300Y-116205000D01*
X77601400Y-110582000D02*
X77601400Y-112722200D01*
X77601400Y-112722200D02*
X75293900Y-115029700D01*
X75293900Y-115029700D02*
X74373200Y-115029700D01*
X74373200Y-115029700D02*
X73565300Y-115837600D01*
X73565300Y-115837600D02*
X73565300Y-116205000D01*
G04 #@! TO.N,Net-(U5-Pad3)*
X133706000Y-83370500D02*
X133987300Y-83370500D01*
X133987300Y-83370500D02*
X137910200Y-87293400D01*
X137910200Y-87293400D02*
X137910200Y-106038200D01*
X137910200Y-106038200D02*
X140980200Y-109108200D01*
X140980200Y-109108200D02*
X144370500Y-109108200D01*
X144370500Y-109108200D02*
X145635700Y-107843000D01*
X133706000Y-82245200D02*
X133706000Y-83370500D01*
X146761000Y-107843000D02*
X145635700Y-107843000D01*
X137795000Y-128270000D02*
X137795000Y-125201400D01*
X137795000Y-125201400D02*
X141605000Y-121391400D01*
G04 #@! TO.N,Net-(U7-Pad1)*
X146761000Y-100223000D02*
X146761000Y-101348300D01*
X150495000Y-128270000D02*
X150495000Y-127144700D01*
X150495000Y-127144700D02*
X151620400Y-126019300D01*
X151620400Y-126019300D02*
X151620400Y-105926400D01*
X151620400Y-105926400D02*
X147042300Y-101348300D01*
X147042300Y-101348300D02*
X146761000Y-101348300D01*
G04 #@! TO.N,Net-(U5-Pad5)*
X133706000Y-88450500D02*
X133932900Y-88450500D01*
X133932900Y-88450500D02*
X137459700Y-91977300D01*
X137459700Y-91977300D02*
X137459700Y-108175400D01*
X137459700Y-108175400D02*
X141082000Y-111797700D01*
X141082000Y-111797700D02*
X144510400Y-111797700D01*
X144510400Y-111797700D02*
X145635700Y-112923000D01*
X146761000Y-112923000D02*
X145635700Y-112923000D01*
X133706000Y-87325200D02*
X133706000Y-88450500D01*
G04 #@! TO.N,~BUSREQ*
X127996000Y-112842000D02*
X129121300Y-112842000D01*
X129121300Y-112842000D02*
X135745400Y-119466100D01*
X135745400Y-119466100D02*
X135745400Y-120347200D01*
X135745400Y-120347200D02*
X137702200Y-122304000D01*
G04 #@! TO.N,~M1*
X133706000Y-78290500D02*
X133424700Y-78290500D01*
X133424700Y-78290500D02*
X130691700Y-81023500D01*
X130691700Y-81023500D02*
X130691700Y-99054800D01*
X130691700Y-99054800D02*
X129026700Y-100719800D01*
X129026700Y-100719800D02*
X129026700Y-102121000D01*
X129026700Y-102121000D02*
X129158900Y-102253200D01*
X129158900Y-102253200D02*
X129158900Y-105755100D01*
X129158900Y-105755100D02*
X128277300Y-106636700D01*
X128277300Y-106636700D02*
X127996000Y-106636700D01*
X133706000Y-77165200D02*
X133706000Y-78290500D01*
X127996000Y-107762000D02*
X127996000Y-106636700D01*
G04 #@! TO.N,~INT*
X144289700Y-120650000D02*
X144289700Y-120368600D01*
X144289700Y-120368600D02*
X143445800Y-119524700D01*
X143445800Y-119524700D02*
X141964100Y-119524700D01*
X141964100Y-119524700D02*
X134041800Y-111602400D01*
X134041800Y-111602400D02*
X131644400Y-111602400D01*
X131644400Y-111602400D02*
X129074000Y-109032000D01*
X129074000Y-109032000D02*
X127673800Y-109032000D01*
X127673800Y-109032000D02*
X125265300Y-106623500D01*
X125265300Y-106623500D02*
X125265300Y-104011200D01*
X125265300Y-104011200D02*
X123320200Y-102066100D01*
X123320200Y-102066100D02*
X118864600Y-102066100D01*
X118864600Y-102066100D02*
X117794100Y-103136600D01*
X117794100Y-103136600D02*
X117794100Y-106960000D01*
X117794100Y-106960000D02*
X113037400Y-111716700D01*
X113037400Y-111716700D02*
X112756000Y-111716700D01*
X112756000Y-112842000D02*
X112756000Y-111716700D01*
X145415000Y-120650000D02*
X144289700Y-120650000D01*
G04 #@! TO.N,RN22*
X107950000Y-108585000D02*
X107950000Y-109710300D01*
X112756000Y-115382000D02*
X112756000Y-114256700D01*
X112756000Y-114256700D02*
X112474600Y-114256700D01*
X112474600Y-114256700D02*
X111630700Y-113412800D01*
X111630700Y-113412800D02*
X111630700Y-113143700D01*
X111630700Y-113143700D02*
X108197300Y-109710300D01*
X108197300Y-109710300D02*
X107950000Y-109710300D01*
G04 #@! TO.N,~HALT*
X74930000Y-107220300D02*
X75297300Y-107220300D01*
X75297300Y-107220300D02*
X81997300Y-113920300D01*
X81997300Y-113920300D02*
X81997300Y-114767600D01*
X74930000Y-106045000D02*
X74930000Y-107220300D01*
G04 #@! TO.N,~MREQ*
X112756000Y-120462000D02*
X112756000Y-119336700D01*
X112756000Y-119336700D02*
X113037300Y-119336700D01*
X113037300Y-119336700D02*
X118269900Y-114104100D01*
X118269900Y-114104100D02*
X118269900Y-103323400D01*
X118269900Y-103323400D02*
X119028900Y-102564400D01*
X119028900Y-102564400D02*
X122792700Y-102564400D01*
X122792700Y-102564400D02*
X124540000Y-104311700D01*
G04 #@! TO.N,~IOREQ*
X133706000Y-79705200D02*
X133706000Y-80830500D01*
X141414000Y-105397000D02*
X141414000Y-104271700D01*
X141414000Y-104271700D02*
X141132700Y-104271700D01*
X141132700Y-104271700D02*
X138360600Y-101499600D01*
X138360600Y-101499600D02*
X138360600Y-85203800D01*
X138360600Y-85203800D02*
X133987300Y-80830500D01*
X133987300Y-80830500D02*
X133706000Y-80830500D01*
G04 #@! TO.N,RN24*
X150495000Y-120650000D02*
X150495000Y-121775300D01*
X150495000Y-121775300D02*
X150213700Y-121775300D01*
X150213700Y-121775300D02*
X144145000Y-127844000D01*
X144145000Y-127844000D02*
X144145000Y-128600800D01*
X144145000Y-128600800D02*
X142894700Y-129851100D01*
X142894700Y-129851100D02*
X109855600Y-129851100D01*
X109855600Y-129851100D02*
X97738600Y-117734100D01*
X97738600Y-117734100D02*
X97738600Y-114635500D01*
G04 #@! TO.N,Net-(U3-Pad8)*
X129817600Y-101304700D02*
X129817700Y-101304700D01*
X129817700Y-101304700D02*
X129817700Y-105576100D01*
X129817700Y-105576100D02*
X133448600Y-109207000D01*
X133448600Y-109207000D02*
X134187000Y-109207000D01*
X134187000Y-109207000D02*
X135309200Y-110329200D01*
X135309200Y-110329200D02*
X135309200Y-111835900D01*
X135309200Y-111835900D02*
X142547600Y-119074300D01*
X142547600Y-119074300D02*
X145535300Y-119074300D01*
X145535300Y-119074300D02*
X146829700Y-120368700D01*
X146829700Y-120368700D02*
X146829700Y-120650000D01*
X147955000Y-120650000D02*
X146829700Y-120650000D01*
G04 #@! TO.N,RN23*
X141749700Y-120650000D02*
X141749700Y-120454400D01*
X141749700Y-120454400D02*
X135582300Y-114287000D01*
X135582300Y-114287000D02*
X132459300Y-114287000D01*
X132459300Y-114287000D02*
X129651200Y-111478900D01*
X129651200Y-111478900D02*
X126707900Y-111478900D01*
X142875000Y-120650000D02*
X141749700Y-120650000D01*
G04 #@! TO.N,Net-(U3-Pad2)*
X95237300Y-83400900D02*
X95237300Y-84526200D01*
X140335000Y-120650000D02*
X140335000Y-121775300D01*
X140335000Y-121775300D02*
X136286900Y-125823400D01*
X136286900Y-125823400D02*
X107119100Y-125823400D01*
X107119100Y-125823400D02*
X101922400Y-120626700D01*
X101922400Y-120626700D02*
X101922400Y-105712500D01*
X101922400Y-105712500D02*
X93655100Y-97445200D01*
X93655100Y-97445200D02*
X93655100Y-85827100D01*
X93655100Y-85827100D02*
X94956000Y-84526200D01*
X94956000Y-84526200D02*
X95237300Y-84526200D01*
G04 #@! TD*
D27*
G04 #@! TO.N,GND*
G36*
X163120001Y-131370000D02*
X65480000Y-131370000D01*
X65480000Y-127130431D01*
X67565000Y-127130431D01*
X67565000Y-128019569D01*
X67905259Y-128841026D01*
X68533974Y-129469741D01*
X69355431Y-129810000D01*
X70244569Y-129810000D01*
X71066026Y-129469741D01*
X71694741Y-128841026D01*
X72035000Y-128019569D01*
X72035000Y-127130431D01*
X71694741Y-126308974D01*
X71623703Y-126237936D01*
X83324070Y-126237936D01*
X83593621Y-126650257D01*
X84710042Y-127110369D01*
X85917557Y-127108221D01*
X87023179Y-126650257D01*
X87292730Y-126237936D01*
X85308400Y-124253605D01*
X83324070Y-126237936D01*
X71623703Y-126237936D01*
X71066026Y-125680259D01*
X70244569Y-125340000D01*
X69355431Y-125340000D01*
X68533974Y-125680259D01*
X67905259Y-126308974D01*
X67565000Y-127130431D01*
X65480000Y-127130431D01*
X65480000Y-123475642D01*
X82272031Y-123475642D01*
X82274179Y-124683157D01*
X82732143Y-125788779D01*
X83144464Y-126058330D01*
X85128795Y-124074000D01*
X83144464Y-122089670D01*
X82732143Y-122359221D01*
X82272031Y-123475642D01*
X65480000Y-123475642D01*
X65480000Y-98210000D01*
X68987560Y-98210000D01*
X68987560Y-99910000D01*
X69036843Y-100157765D01*
X69177191Y-100367809D01*
X69387235Y-100508157D01*
X69635000Y-100557440D01*
X71335000Y-100557440D01*
X71582765Y-100508157D01*
X71792809Y-100367809D01*
X71933157Y-100157765D01*
X71942184Y-100112381D01*
X71954375Y-100130625D01*
X72445582Y-100458839D01*
X72878744Y-100545000D01*
X73171256Y-100545000D01*
X73604418Y-100458839D01*
X74095625Y-100130625D01*
X74295000Y-99832239D01*
X74494375Y-100130625D01*
X74630001Y-100221247D01*
X74630001Y-100318214D01*
X74630000Y-103887814D01*
X74611683Y-103979900D01*
X74630000Y-104071985D01*
X74684250Y-104344718D01*
X74828096Y-104560000D01*
X74783744Y-104560000D01*
X74350582Y-104646161D01*
X73859375Y-104974375D01*
X73660000Y-105272761D01*
X73460625Y-104974375D01*
X72969418Y-104646161D01*
X72536256Y-104560000D01*
X72243744Y-104560000D01*
X71810582Y-104646161D01*
X71319375Y-104974375D01*
X70991161Y-105465582D01*
X70875908Y-106045000D01*
X70991161Y-106624418D01*
X71319375Y-107115625D01*
X71617761Y-107315000D01*
X71319375Y-107514375D01*
X70991161Y-108005582D01*
X70875908Y-108585000D01*
X70991161Y-109164418D01*
X71319375Y-109655625D01*
X71617761Y-109855000D01*
X71319375Y-110054375D01*
X70991161Y-110545582D01*
X70875908Y-111125000D01*
X70991161Y-111704418D01*
X71319375Y-112195625D01*
X71617761Y-112395000D01*
X71319375Y-112594375D01*
X70991161Y-113085582D01*
X70875908Y-113665000D01*
X70991161Y-114244418D01*
X71319375Y-114735625D01*
X71617761Y-114935000D01*
X71319375Y-115134375D01*
X70991161Y-115625582D01*
X70875908Y-116205000D01*
X70991161Y-116784418D01*
X71319375Y-117275625D01*
X71617761Y-117475000D01*
X71319375Y-117674375D01*
X70991161Y-118165582D01*
X70875908Y-118745000D01*
X70991161Y-119324418D01*
X71319375Y-119815625D01*
X71617761Y-120015000D01*
X71319375Y-120214375D01*
X70991161Y-120705582D01*
X70875908Y-121285000D01*
X70991161Y-121864418D01*
X71319375Y-122355625D01*
X71810582Y-122683839D01*
X72243744Y-122770000D01*
X72536256Y-122770000D01*
X72969418Y-122683839D01*
X73460625Y-122355625D01*
X73472816Y-122337381D01*
X73481843Y-122382765D01*
X73622191Y-122592809D01*
X73832235Y-122733157D01*
X74080000Y-122782440D01*
X75780000Y-122782440D01*
X76027765Y-122733157D01*
X76237809Y-122592809D01*
X76378157Y-122382765D01*
X76427440Y-122135000D01*
X76427440Y-120435000D01*
X76378157Y-120187235D01*
X76237809Y-119977191D01*
X76027765Y-119836843D01*
X75982381Y-119827816D01*
X76000625Y-119815625D01*
X76328839Y-119324418D01*
X76444092Y-118745000D01*
X76328839Y-118165582D01*
X76000625Y-117674375D01*
X75702239Y-117475000D01*
X76000625Y-117275625D01*
X76328839Y-116784418D01*
X76444092Y-116205000D01*
X76328839Y-115625582D01*
X76106129Y-115292272D01*
X78085873Y-113312529D01*
X78149329Y-113270129D01*
X78272640Y-113085582D01*
X78317304Y-113018738D01*
X78326880Y-112970595D01*
X78361400Y-112797052D01*
X78361400Y-112797048D01*
X78376288Y-112722200D01*
X78361400Y-112647352D01*
X78361400Y-111359202D01*
X81151694Y-114149495D01*
X81119869Y-114181320D01*
X80962300Y-114561726D01*
X80962300Y-114973474D01*
X81119869Y-115353880D01*
X81411020Y-115645031D01*
X81791426Y-115802600D01*
X82203174Y-115802600D01*
X82260660Y-115778789D01*
X82260660Y-120378300D01*
X82309943Y-120626065D01*
X82450291Y-120836109D01*
X82660335Y-120976457D01*
X82908100Y-121025740D01*
X87418753Y-121025740D01*
X87353100Y-121184241D01*
X87353100Y-121849692D01*
X87292729Y-121910063D01*
X87023179Y-121497743D01*
X85906758Y-121037631D01*
X84699243Y-121039779D01*
X83593621Y-121497743D01*
X83324070Y-121910064D01*
X85308400Y-123894395D01*
X85322542Y-123880252D01*
X85502148Y-124059858D01*
X85488005Y-124074000D01*
X87472336Y-126058330D01*
X87884657Y-125788779D01*
X88344769Y-124672358D01*
X88343637Y-124035799D01*
X88669041Y-124361203D01*
X89784641Y-124823300D01*
X90992159Y-124823300D01*
X92107759Y-124361203D01*
X92961603Y-123507359D01*
X93423700Y-122391759D01*
X93423700Y-121184241D01*
X92961603Y-120068641D01*
X92107759Y-119214797D01*
X91386494Y-118916039D01*
X94035896Y-118916039D01*
X94196759Y-119304423D01*
X94572666Y-119719389D01*
X95078759Y-119958914D01*
X95300800Y-119837629D01*
X95300800Y-118694000D01*
X95554800Y-118694000D01*
X95554800Y-119837629D01*
X95776841Y-119958914D01*
X96282934Y-119719389D01*
X96658841Y-119304423D01*
X96819704Y-118916039D01*
X96697715Y-118694000D01*
X95554800Y-118694000D01*
X95300800Y-118694000D01*
X94157885Y-118694000D01*
X94035896Y-118916039D01*
X91386494Y-118916039D01*
X90992159Y-118752700D01*
X89784641Y-118752700D01*
X88669041Y-119214797D01*
X88356140Y-119527698D01*
X88356140Y-116027000D01*
X93964687Y-116027000D01*
X94076060Y-116586909D01*
X94393223Y-117061577D01*
X94776908Y-117317947D01*
X94572666Y-117414611D01*
X94196759Y-117829577D01*
X94035896Y-118217961D01*
X94157885Y-118440000D01*
X95300800Y-118440000D01*
X95300800Y-118420000D01*
X95554800Y-118420000D01*
X95554800Y-118440000D01*
X96697715Y-118440000D01*
X96819704Y-118217961D01*
X96658841Y-117829577D01*
X96282934Y-117414611D01*
X96078692Y-117317947D01*
X96462377Y-117061577D01*
X96779540Y-116586909D01*
X96890913Y-116027000D01*
X96779540Y-115467091D01*
X96462377Y-114992423D01*
X96078692Y-114736053D01*
X96282934Y-114639389D01*
X96658841Y-114224423D01*
X96819704Y-113836039D01*
X96697715Y-113614000D01*
X95554800Y-113614000D01*
X95554800Y-113634000D01*
X95300800Y-113634000D01*
X95300800Y-113614000D01*
X94157885Y-113614000D01*
X94035896Y-113836039D01*
X94196759Y-114224423D01*
X94572666Y-114639389D01*
X94776908Y-114736053D01*
X94393223Y-114992423D01*
X94076060Y-115467091D01*
X93964687Y-116027000D01*
X88356140Y-116027000D01*
X88356140Y-115577700D01*
X88306857Y-115329935D01*
X88166509Y-115119891D01*
X87956465Y-114979543D01*
X87708700Y-114930260D01*
X86243400Y-114930260D01*
X86243400Y-113815380D01*
X86261716Y-113723299D01*
X86243400Y-113631218D01*
X86243400Y-113631214D01*
X86189150Y-113358481D01*
X85982497Y-113049203D01*
X85904431Y-112997041D01*
X76500000Y-103592611D01*
X76500000Y-100221247D01*
X76635625Y-100130625D01*
X76963839Y-99639418D01*
X77079092Y-99060000D01*
X76988329Y-98603700D01*
X79999601Y-98603700D01*
X79999600Y-103672214D01*
X79981283Y-103764300D01*
X80003289Y-103874929D01*
X80053850Y-104129118D01*
X80260503Y-104438397D01*
X80338572Y-104490561D01*
X83188383Y-107340373D01*
X83056843Y-107537235D01*
X83007560Y-107785000D01*
X83007560Y-109385000D01*
X83056843Y-109632765D01*
X83197191Y-109842809D01*
X83407235Y-109983157D01*
X83655000Y-110032440D01*
X85255000Y-110032440D01*
X85502765Y-109983157D01*
X85712809Y-109842809D01*
X85853157Y-109632765D01*
X85861117Y-109592745D01*
X86126861Y-109592745D01*
X86200995Y-109838864D01*
X86738223Y-110031965D01*
X87308454Y-110004778D01*
X87709005Y-109838864D01*
X87783139Y-109592745D01*
X86955000Y-108764605D01*
X86126861Y-109592745D01*
X85861117Y-109592745D01*
X85899693Y-109398813D01*
X85947255Y-109413139D01*
X86775395Y-108585000D01*
X87134605Y-108585000D01*
X87962745Y-109413139D01*
X88208864Y-109339005D01*
X88401965Y-108801777D01*
X88374778Y-108231546D01*
X88208864Y-107830995D01*
X87962745Y-107756861D01*
X87134605Y-108585000D01*
X86775395Y-108585000D01*
X85947255Y-107756861D01*
X85899693Y-107771187D01*
X85861118Y-107577255D01*
X86126861Y-107577255D01*
X86955000Y-108405395D01*
X87783139Y-107577255D01*
X87709005Y-107331136D01*
X87171777Y-107138035D01*
X86601546Y-107165222D01*
X86200995Y-107331136D01*
X86126861Y-107577255D01*
X85861118Y-107577255D01*
X85853157Y-107537235D01*
X85712809Y-107327191D01*
X85502765Y-107186843D01*
X85384159Y-107163251D01*
X85335750Y-106919881D01*
X85129097Y-106610603D01*
X85051031Y-106558441D01*
X81869600Y-103377011D01*
X81869600Y-98161036D01*
X84477193Y-98161036D01*
X84507518Y-98651413D01*
X84636836Y-98963617D01*
X84862263Y-99013129D01*
X84746570Y-99128822D01*
X84800718Y-99182970D01*
X84667191Y-99272191D01*
X84526843Y-99482235D01*
X84477560Y-99730000D01*
X84477560Y-100930000D01*
X84526843Y-101177765D01*
X84667191Y-101387809D01*
X84877235Y-101528157D01*
X85125000Y-101577440D01*
X86325000Y-101577440D01*
X86572765Y-101528157D01*
X86782809Y-101387809D01*
X86923157Y-101177765D01*
X86972440Y-100930000D01*
X86972440Y-100182441D01*
X94300776Y-107510779D01*
X94076060Y-107847091D01*
X93964687Y-108407000D01*
X94076060Y-108966909D01*
X94393223Y-109441577D01*
X94689186Y-109639333D01*
X94671904Y-109726214D01*
X94393223Y-109912423D01*
X94076060Y-110387091D01*
X93964687Y-110947000D01*
X94076060Y-111506909D01*
X94393223Y-111981577D01*
X94776908Y-112237947D01*
X94572666Y-112334611D01*
X94196759Y-112749577D01*
X94035896Y-113137961D01*
X94157885Y-113360000D01*
X95300800Y-113360000D01*
X95300800Y-113340000D01*
X95554800Y-113340000D01*
X95554800Y-113360000D01*
X96697715Y-113360000D01*
X96819704Y-113137961D01*
X96658841Y-112749577D01*
X96282934Y-112334611D01*
X96078692Y-112237947D01*
X96462377Y-111981577D01*
X96779540Y-111506909D01*
X96890913Y-110947000D01*
X96779540Y-110387091D01*
X96554823Y-110050778D01*
X97037573Y-109568029D01*
X97101029Y-109525629D01*
X97269004Y-109274237D01*
X97313100Y-109052552D01*
X97313100Y-109052548D01*
X97327988Y-108977701D01*
X97313100Y-108902854D01*
X97313100Y-105371048D01*
X97327988Y-105296200D01*
X97313100Y-105221352D01*
X97313100Y-105221348D01*
X97269004Y-104999663D01*
X97269004Y-104999662D01*
X97143429Y-104811727D01*
X97101029Y-104748271D01*
X97037573Y-104705871D01*
X96778096Y-104446394D01*
X96825957Y-104374765D01*
X96875240Y-104127000D01*
X96875240Y-103013842D01*
X99890700Y-106029302D01*
X99890701Y-118811400D01*
X98498600Y-117419299D01*
X98498600Y-115339211D01*
X98616031Y-115221780D01*
X98773600Y-114841374D01*
X98773600Y-114429626D01*
X98616031Y-114049220D01*
X98324880Y-113758069D01*
X97944474Y-113600500D01*
X97532726Y-113600500D01*
X97152320Y-113758069D01*
X96861169Y-114049220D01*
X96703600Y-114429626D01*
X96703600Y-114841374D01*
X96861169Y-115221780D01*
X96978601Y-115339212D01*
X96978600Y-117659253D01*
X96963712Y-117734100D01*
X96978600Y-117808947D01*
X96978600Y-117808951D01*
X97022696Y-118030636D01*
X97190671Y-118282029D01*
X97254130Y-118324431D01*
X109265271Y-130335573D01*
X109307671Y-130399029D01*
X109371127Y-130441429D01*
X109559062Y-130567004D01*
X109607205Y-130576580D01*
X109780748Y-130611100D01*
X109780752Y-130611100D01*
X109855600Y-130625988D01*
X109930448Y-130611100D01*
X142819853Y-130611100D01*
X142894700Y-130625988D01*
X142969547Y-130611100D01*
X142969552Y-130611100D01*
X143191237Y-130567004D01*
X143442629Y-130399029D01*
X143485031Y-130335570D01*
X144461710Y-129358891D01*
X144855091Y-129621740D01*
X145273667Y-129705000D01*
X145556333Y-129705000D01*
X145974909Y-129621740D01*
X146449577Y-129304577D01*
X146685000Y-128952242D01*
X146920423Y-129304577D01*
X147395091Y-129621740D01*
X147813667Y-129705000D01*
X148096333Y-129705000D01*
X148514909Y-129621740D01*
X148989577Y-129304577D01*
X149225000Y-128952242D01*
X149460423Y-129304577D01*
X149935091Y-129621740D01*
X150353667Y-129705000D01*
X150636333Y-129705000D01*
X151054909Y-129621740D01*
X151529577Y-129304577D01*
X151785947Y-128920892D01*
X151882611Y-129125134D01*
X152297577Y-129501041D01*
X152685961Y-129661904D01*
X152908000Y-129539915D01*
X152908000Y-128397000D01*
X153162000Y-128397000D01*
X153162000Y-129539915D01*
X153384039Y-129661904D01*
X153772423Y-129501041D01*
X154187389Y-129125134D01*
X154426914Y-128619041D01*
X154305629Y-128397000D01*
X153162000Y-128397000D01*
X152908000Y-128397000D01*
X152888000Y-128397000D01*
X152888000Y-128143000D01*
X152908000Y-128143000D01*
X152908000Y-127000085D01*
X153162000Y-127000085D01*
X153162000Y-128143000D01*
X154305629Y-128143000D01*
X154426914Y-127920959D01*
X154187389Y-127414866D01*
X153845802Y-127105431D01*
X156615000Y-127105431D01*
X156615000Y-127994569D01*
X156955259Y-128816026D01*
X157583974Y-129444741D01*
X158405431Y-129785000D01*
X159294569Y-129785000D01*
X160116026Y-129444741D01*
X160744741Y-128816026D01*
X161085000Y-127994569D01*
X161085000Y-127105431D01*
X160744741Y-126283974D01*
X160116026Y-125655259D01*
X159294569Y-125315000D01*
X158405431Y-125315000D01*
X157583974Y-125655259D01*
X156955259Y-126283974D01*
X156615000Y-127105431D01*
X153845802Y-127105431D01*
X153772423Y-127038959D01*
X153384039Y-126878096D01*
X153162000Y-127000085D01*
X152908000Y-127000085D01*
X152685961Y-126878096D01*
X152297577Y-127038959D01*
X151882611Y-127414866D01*
X151785947Y-127619108D01*
X151529577Y-127235423D01*
X151499305Y-127215196D01*
X152104873Y-126609629D01*
X152168329Y-126567229D01*
X152336304Y-126315837D01*
X152380400Y-126094152D01*
X152380400Y-126094147D01*
X152395288Y-126019300D01*
X152380400Y-125944453D01*
X152380400Y-121938470D01*
X152475091Y-122001740D01*
X152893667Y-122085000D01*
X153176333Y-122085000D01*
X153594909Y-122001740D01*
X154069577Y-121684577D01*
X154386740Y-121209909D01*
X154498113Y-120650000D01*
X154386740Y-120090091D01*
X154069577Y-119615423D01*
X153594909Y-119298260D01*
X153176333Y-119215000D01*
X152893667Y-119215000D01*
X152475091Y-119298260D01*
X152380400Y-119361530D01*
X152380400Y-112923000D01*
X152917887Y-112923000D01*
X153029260Y-113482909D01*
X153346423Y-113957577D01*
X153698758Y-114193000D01*
X153346423Y-114428423D01*
X153029260Y-114903091D01*
X152917887Y-115463000D01*
X153029260Y-116022909D01*
X153346423Y-116497577D01*
X153821091Y-116814740D01*
X154239667Y-116898000D01*
X154522333Y-116898000D01*
X154940909Y-116814740D01*
X155415577Y-116497577D01*
X155732740Y-116022909D01*
X155844113Y-115463000D01*
X155732740Y-114903091D01*
X155415577Y-114428423D01*
X155063242Y-114193000D01*
X155415577Y-113957577D01*
X155732740Y-113482909D01*
X155844113Y-112923000D01*
X155732740Y-112363091D01*
X155415577Y-111888423D01*
X155031892Y-111632053D01*
X155236134Y-111535389D01*
X155612041Y-111120423D01*
X155772904Y-110732039D01*
X155650915Y-110510000D01*
X154508000Y-110510000D01*
X154508000Y-110530000D01*
X154254000Y-110530000D01*
X154254000Y-110510000D01*
X153111085Y-110510000D01*
X152989096Y-110732039D01*
X153149959Y-111120423D01*
X153525866Y-111535389D01*
X153730108Y-111632053D01*
X153346423Y-111888423D01*
X153029260Y-112363091D01*
X152917887Y-112923000D01*
X152380400Y-112923000D01*
X152380400Y-108192039D01*
X152989096Y-108192039D01*
X153149959Y-108580423D01*
X153525866Y-108995389D01*
X153774367Y-109113000D01*
X153525866Y-109230611D01*
X153149959Y-109645577D01*
X152989096Y-110033961D01*
X153111085Y-110256000D01*
X154254000Y-110256000D01*
X154254000Y-107970000D01*
X154508000Y-107970000D01*
X154508000Y-110256000D01*
X155650915Y-110256000D01*
X155772904Y-110033961D01*
X155612041Y-109645577D01*
X155236134Y-109230611D01*
X154987633Y-109113000D01*
X155236134Y-108995389D01*
X155612041Y-108580423D01*
X155772904Y-108192039D01*
X155650915Y-107970000D01*
X154508000Y-107970000D01*
X154254000Y-107970000D01*
X153111085Y-107970000D01*
X152989096Y-108192039D01*
X152380400Y-108192039D01*
X152380400Y-106001246D01*
X152395288Y-105926399D01*
X152380400Y-105851552D01*
X152380400Y-105851548D01*
X152340716Y-105652039D01*
X152989096Y-105652039D01*
X153149959Y-106040423D01*
X153525866Y-106455389D01*
X153774367Y-106573000D01*
X153525866Y-106690611D01*
X153149959Y-107105577D01*
X152989096Y-107493961D01*
X153111085Y-107716000D01*
X154254000Y-107716000D01*
X154254000Y-105430000D01*
X154508000Y-105430000D01*
X154508000Y-107716000D01*
X155650915Y-107716000D01*
X155772904Y-107493961D01*
X155612041Y-107105577D01*
X155236134Y-106690611D01*
X154987633Y-106573000D01*
X155236134Y-106455389D01*
X155612041Y-106040423D01*
X155772904Y-105652039D01*
X155650915Y-105430000D01*
X154508000Y-105430000D01*
X154254000Y-105430000D01*
X153111085Y-105430000D01*
X152989096Y-105652039D01*
X152340716Y-105652039D01*
X152336304Y-105629863D01*
X152168329Y-105378471D01*
X152104873Y-105336071D01*
X149880841Y-103112039D01*
X152989096Y-103112039D01*
X153149959Y-103500423D01*
X153525866Y-103915389D01*
X153774367Y-104033000D01*
X153525866Y-104150611D01*
X153149959Y-104565577D01*
X152989096Y-104953961D01*
X153111085Y-105176000D01*
X154254000Y-105176000D01*
X154254000Y-102890000D01*
X154508000Y-102890000D01*
X154508000Y-105176000D01*
X155650915Y-105176000D01*
X155772904Y-104953961D01*
X155612041Y-104565577D01*
X155236134Y-104150611D01*
X154987633Y-104033000D01*
X155236134Y-103915389D01*
X155612041Y-103500423D01*
X155772904Y-103112039D01*
X155650915Y-102890000D01*
X154508000Y-102890000D01*
X154254000Y-102890000D01*
X153111085Y-102890000D01*
X152989096Y-103112039D01*
X149880841Y-103112039D01*
X148111255Y-101342454D01*
X148159157Y-101270765D01*
X148208440Y-101023000D01*
X148208440Y-99423000D01*
X148159157Y-99175235D01*
X148018809Y-98965191D01*
X147808765Y-98824843D01*
X147561000Y-98775560D01*
X147215341Y-98775560D01*
X153002139Y-92988763D01*
X153029260Y-93125109D01*
X153346423Y-93599777D01*
X153821091Y-93916940D01*
X154239667Y-94000200D01*
X154276810Y-94000200D01*
X152528137Y-95748874D01*
X152507439Y-95740300D01*
X151936561Y-95740300D01*
X151409138Y-95958766D01*
X151005466Y-96362438D01*
X150787000Y-96889861D01*
X150787000Y-97460739D01*
X151005466Y-97988162D01*
X151409138Y-98391834D01*
X151936561Y-98610300D01*
X152507439Y-98610300D01*
X152676347Y-98540336D01*
X153337615Y-99201605D01*
X153029260Y-99663091D01*
X152917887Y-100223000D01*
X153029260Y-100782909D01*
X153346423Y-101257577D01*
X153730108Y-101513947D01*
X153525866Y-101610611D01*
X153149959Y-102025577D01*
X152989096Y-102413961D01*
X153111085Y-102636000D01*
X154254000Y-102636000D01*
X154254000Y-102616000D01*
X154508000Y-102616000D01*
X154508000Y-102636000D01*
X155650915Y-102636000D01*
X155772904Y-102413961D01*
X155612041Y-102025577D01*
X155236134Y-101610611D01*
X155031892Y-101513947D01*
X155415577Y-101257577D01*
X155732740Y-100782909D01*
X155844113Y-100223000D01*
X155732740Y-99663091D01*
X155415577Y-99188423D01*
X155316000Y-99121888D01*
X155316000Y-99014781D01*
X155334316Y-98922699D01*
X155316000Y-98830617D01*
X155316000Y-98830614D01*
X155261750Y-98557881D01*
X155240833Y-98526576D01*
X155476005Y-98429164D01*
X155550139Y-98183045D01*
X154722000Y-97354905D01*
X154707858Y-97369048D01*
X154528253Y-97189443D01*
X154542395Y-97175300D01*
X154901605Y-97175300D01*
X155729745Y-98003439D01*
X155975864Y-97929305D01*
X156168965Y-97392077D01*
X156141778Y-96821846D01*
X155975864Y-96421295D01*
X155729745Y-96347161D01*
X154901605Y-97175300D01*
X154542395Y-97175300D01*
X154528253Y-97161158D01*
X154707858Y-96981553D01*
X154722000Y-96995695D01*
X155550139Y-96167555D01*
X155476005Y-95921436D01*
X155125970Y-95795620D01*
X156277731Y-94643859D01*
X156355797Y-94591697D01*
X156562450Y-94282419D01*
X156616700Y-94009686D01*
X156635017Y-93917600D01*
X156616700Y-93825514D01*
X156616700Y-78717986D01*
X156635017Y-78625900D01*
X156594660Y-78423009D01*
X156562450Y-78261081D01*
X156355797Y-77951803D01*
X156277728Y-77899639D01*
X155820749Y-77442660D01*
X155844113Y-77325200D01*
X155732740Y-76765291D01*
X155415577Y-76290623D01*
X154940909Y-75973460D01*
X154522333Y-75890200D01*
X154239667Y-75890200D01*
X153821091Y-75973460D01*
X153346423Y-76290623D01*
X153029260Y-76765291D01*
X152917887Y-77325200D01*
X153029260Y-77885109D01*
X153346423Y-78359777D01*
X153698758Y-78595200D01*
X153346423Y-78830623D01*
X153029260Y-79305291D01*
X152917887Y-79865200D01*
X153029260Y-80425109D01*
X153346423Y-80899777D01*
X153698758Y-81135200D01*
X153346423Y-81370623D01*
X153029260Y-81845291D01*
X152917887Y-82405200D01*
X153029260Y-82965109D01*
X153253977Y-83301421D01*
X148449530Y-88105869D01*
X148386071Y-88148271D01*
X148218096Y-88399664D01*
X148174000Y-88621349D01*
X148174000Y-88621353D01*
X148159112Y-88696200D01*
X148174000Y-88771047D01*
X148174000Y-89773266D01*
X148112740Y-89465291D01*
X147795577Y-88990623D01*
X147516896Y-88804414D01*
X147499614Y-88717533D01*
X147795577Y-88519777D01*
X148112740Y-88045109D01*
X148224113Y-87485200D01*
X148112740Y-86925291D01*
X147795577Y-86450623D01*
X147443242Y-86215200D01*
X147795577Y-85979777D01*
X148112740Y-85505109D01*
X148224113Y-84945200D01*
X148112740Y-84385291D01*
X147795577Y-83910623D01*
X147516896Y-83724414D01*
X147499614Y-83637533D01*
X147795577Y-83439777D01*
X148112740Y-82965109D01*
X148224113Y-82405200D01*
X148112740Y-81845291D01*
X147795577Y-81370623D01*
X147443242Y-81135200D01*
X147795577Y-80899777D01*
X148112740Y-80425109D01*
X148224113Y-79865200D01*
X148112740Y-79305291D01*
X147795577Y-78830623D01*
X147674894Y-78749985D01*
X147808765Y-78723357D01*
X148018809Y-78583009D01*
X148159157Y-78372965D01*
X148208440Y-78125200D01*
X148208440Y-76525200D01*
X148159157Y-76277435D01*
X148018809Y-76067391D01*
X147808765Y-75927043D01*
X147561000Y-75877760D01*
X145961000Y-75877760D01*
X145713235Y-75927043D01*
X145503191Y-76067391D01*
X145362843Y-76277435D01*
X145313560Y-76525200D01*
X145313560Y-78125200D01*
X145362843Y-78372965D01*
X145410704Y-78444594D01*
X145151228Y-78704071D01*
X145087772Y-78746471D01*
X145045372Y-78809927D01*
X145045371Y-78809928D01*
X144919797Y-78997863D01*
X144860812Y-79294400D01*
X144875701Y-79369252D01*
X144875700Y-82816753D01*
X144860812Y-82891600D01*
X144875700Y-82966447D01*
X144875700Y-82966451D01*
X144919796Y-83188136D01*
X145087771Y-83439529D01*
X145151229Y-83481931D01*
X145667742Y-83998445D01*
X145409260Y-84385291D01*
X145297887Y-84945200D01*
X145409260Y-85505109D01*
X145726423Y-85979777D01*
X146078758Y-86215200D01*
X145729182Y-86448780D01*
X142417293Y-83136892D01*
X142557041Y-82982623D01*
X142717904Y-82594239D01*
X142595915Y-82372200D01*
X141453000Y-82372200D01*
X141453000Y-82392200D01*
X141199000Y-82392200D01*
X141199000Y-82372200D01*
X141179000Y-82372200D01*
X141179000Y-82118200D01*
X141199000Y-82118200D01*
X141199000Y-79832200D01*
X141453000Y-79832200D01*
X141453000Y-82118200D01*
X142595915Y-82118200D01*
X142717904Y-81896161D01*
X142557041Y-81507777D01*
X142181134Y-81092811D01*
X141932633Y-80975200D01*
X142181134Y-80857589D01*
X142557041Y-80442623D01*
X142717904Y-80054239D01*
X142595915Y-79832200D01*
X141453000Y-79832200D01*
X141199000Y-79832200D01*
X140056085Y-79832200D01*
X139934096Y-80054239D01*
X140094959Y-80442623D01*
X140470866Y-80857589D01*
X140719367Y-80975200D01*
X140470866Y-81092811D01*
X140094959Y-81507777D01*
X140074141Y-81558039D01*
X136586700Y-78070599D01*
X136586700Y-74921745D01*
X138530861Y-74921745D01*
X138604995Y-75167864D01*
X139142223Y-75360965D01*
X139712454Y-75333778D01*
X140113005Y-75167864D01*
X140187139Y-74921745D01*
X139359000Y-74093605D01*
X138530861Y-74921745D01*
X136586700Y-74921745D01*
X136586700Y-73697223D01*
X137912035Y-73697223D01*
X137939222Y-74267454D01*
X138105136Y-74668005D01*
X138351255Y-74742139D01*
X139179395Y-73914000D01*
X139538605Y-73914000D01*
X140366745Y-74742139D01*
X140612864Y-74668005D01*
X140615290Y-74661254D01*
X140642466Y-74726862D01*
X140892108Y-74976504D01*
X140729970Y-75138641D01*
X140651904Y-75190803D01*
X140599742Y-75268869D01*
X140599741Y-75268870D01*
X140445250Y-75500082D01*
X140372683Y-75864900D01*
X140391001Y-75956990D01*
X140391001Y-76064087D01*
X140291423Y-76130623D01*
X139974260Y-76605291D01*
X139862887Y-77165200D01*
X139974260Y-77725109D01*
X140291423Y-78199777D01*
X140675108Y-78456147D01*
X140470866Y-78552811D01*
X140094959Y-78967777D01*
X139934096Y-79356161D01*
X140056085Y-79578200D01*
X141199000Y-79578200D01*
X141199000Y-79558200D01*
X141453000Y-79558200D01*
X141453000Y-79578200D01*
X142595915Y-79578200D01*
X142717904Y-79356161D01*
X142557041Y-78967777D01*
X142181134Y-78552811D01*
X141976892Y-78456147D01*
X142360577Y-78199777D01*
X142677740Y-77725109D01*
X142789113Y-77165200D01*
X142677740Y-76605291D01*
X142369385Y-76143804D01*
X142455028Y-76058161D01*
X142533097Y-76005997D01*
X142739750Y-75696719D01*
X142794000Y-75423986D01*
X142794000Y-75423985D01*
X142812317Y-75331900D01*
X142794000Y-75239814D01*
X142794000Y-75196045D01*
X151560861Y-75196045D01*
X151634995Y-75442164D01*
X152172223Y-75635265D01*
X152742454Y-75608078D01*
X153143005Y-75442164D01*
X153217139Y-75196045D01*
X152389000Y-74367905D01*
X151560861Y-75196045D01*
X142794000Y-75196045D01*
X142794000Y-75008396D01*
X143075534Y-74726862D01*
X143294000Y-74199439D01*
X143294000Y-73812700D01*
X150999122Y-73812700D01*
X150942035Y-73971523D01*
X150969222Y-74541754D01*
X151135136Y-74942305D01*
X151381255Y-75016439D01*
X152209395Y-74188300D01*
X152195253Y-74174158D01*
X152374858Y-73994553D01*
X152389000Y-74008695D01*
X152403143Y-73994553D01*
X152582748Y-74174158D01*
X152568605Y-74188300D01*
X153396745Y-75016439D01*
X153642864Y-74942305D01*
X153645290Y-74935554D01*
X153672466Y-75001162D01*
X154076138Y-75404834D01*
X154603561Y-75623300D01*
X155174439Y-75623300D01*
X155701862Y-75404834D01*
X156105534Y-75001162D01*
X156324000Y-74473739D01*
X156324000Y-73902861D01*
X156105534Y-73375438D01*
X155701862Y-72971766D01*
X155174439Y-72753300D01*
X154776289Y-72753300D01*
X154304661Y-72281672D01*
X154252497Y-72203603D01*
X153943219Y-71996950D01*
X153670486Y-71942700D01*
X153578400Y-71924383D01*
X153486314Y-71942700D01*
X142987386Y-71942700D01*
X142895300Y-71924383D01*
X142803214Y-71942700D01*
X142530481Y-71996950D01*
X142221203Y-72203603D01*
X142169039Y-72281672D01*
X141971711Y-72479000D01*
X141573561Y-72479000D01*
X141046138Y-72697466D01*
X140642466Y-73101138D01*
X140615475Y-73166299D01*
X140612864Y-73159995D01*
X140366745Y-73085861D01*
X139538605Y-73914000D01*
X139179395Y-73914000D01*
X138351255Y-73085861D01*
X138105136Y-73159995D01*
X137912035Y-73697223D01*
X136586700Y-73697223D01*
X136586700Y-72906255D01*
X138530861Y-72906255D01*
X139359000Y-73734395D01*
X140187139Y-72906255D01*
X140113005Y-72660136D01*
X139575777Y-72467035D01*
X139005546Y-72494222D01*
X138604995Y-72660136D01*
X138530861Y-72906255D01*
X136586700Y-72906255D01*
X136586700Y-71250056D01*
X137013744Y-71335000D01*
X137306256Y-71335000D01*
X137739418Y-71248839D01*
X138230625Y-70920625D01*
X138430000Y-70622239D01*
X138629375Y-70920625D01*
X139120582Y-71248839D01*
X139553744Y-71335000D01*
X139846256Y-71335000D01*
X140279418Y-71248839D01*
X140770625Y-70920625D01*
X141098839Y-70429418D01*
X141214092Y-69850000D01*
X141098839Y-69270582D01*
X140770625Y-68779375D01*
X140472239Y-68580000D01*
X140770625Y-68380625D01*
X141098839Y-67889418D01*
X141214092Y-67310000D01*
X141098839Y-66730582D01*
X140770625Y-66239375D01*
X140279418Y-65911161D01*
X139846256Y-65825000D01*
X139553744Y-65825000D01*
X139120582Y-65911161D01*
X138629375Y-66239375D01*
X138430000Y-66537761D01*
X138230625Y-66239375D01*
X137739418Y-65911161D01*
X137306256Y-65825000D01*
X137013744Y-65825000D01*
X136580582Y-65911161D01*
X136234564Y-66142363D01*
X135265031Y-65172830D01*
X135222629Y-65109371D01*
X134971237Y-64941396D01*
X134749552Y-64897300D01*
X134749547Y-64897300D01*
X134674700Y-64882412D01*
X134599853Y-64897300D01*
X116835546Y-64897300D01*
X116760699Y-64882412D01*
X116685852Y-64897300D01*
X116685848Y-64897300D01*
X116464163Y-64941396D01*
X116212771Y-65109371D01*
X116170371Y-65172827D01*
X115210689Y-66132509D01*
X114879418Y-65911161D01*
X114446256Y-65825000D01*
X114153744Y-65825000D01*
X113720582Y-65911161D01*
X113358799Y-66152897D01*
X112824231Y-65618329D01*
X112781829Y-65554871D01*
X112530437Y-65386896D01*
X112308752Y-65342800D01*
X112308747Y-65342800D01*
X112233900Y-65327912D01*
X112159053Y-65342800D01*
X98679548Y-65342800D01*
X98604700Y-65327912D01*
X98529852Y-65342800D01*
X98529848Y-65342800D01*
X98308163Y-65386896D01*
X98056771Y-65554871D01*
X98014371Y-65618327D01*
X97472351Y-66160347D01*
X97099418Y-65911161D01*
X96666256Y-65825000D01*
X96373744Y-65825000D01*
X95940582Y-65911161D01*
X95449375Y-66239375D01*
X95237526Y-66556429D01*
X95235394Y-66556853D01*
X95175183Y-66428642D01*
X94746924Y-66038355D01*
X94336890Y-65868524D01*
X94107000Y-65989845D01*
X94107000Y-67183000D01*
X94127000Y-67183000D01*
X94127000Y-67437000D01*
X94107000Y-67437000D01*
X94107000Y-67457000D01*
X93853000Y-67457000D01*
X93853000Y-67437000D01*
X91567000Y-67437000D01*
X91567000Y-67457000D01*
X91313000Y-67457000D01*
X91313000Y-67437000D01*
X90119181Y-67437000D01*
X89998514Y-67666892D01*
X90244817Y-68191358D01*
X90451855Y-68380039D01*
X90342235Y-68401843D01*
X90132191Y-68542191D01*
X89991843Y-68752235D01*
X89942560Y-69000000D01*
X89942560Y-70700000D01*
X89991843Y-70947765D01*
X90132191Y-71157809D01*
X90342235Y-71298157D01*
X90590000Y-71347440D01*
X91950000Y-71347440D01*
X91950000Y-71365198D01*
X91735427Y-71579771D01*
X91671972Y-71622171D01*
X91629572Y-71685627D01*
X91629571Y-71685628D01*
X91503997Y-71873563D01*
X91445012Y-72170100D01*
X91459901Y-72244952D01*
X91459901Y-73148224D01*
X91392841Y-73116486D01*
X91170800Y-73237771D01*
X91170800Y-74381400D01*
X91190800Y-74381400D01*
X91190800Y-74635400D01*
X91170800Y-74635400D01*
X91170800Y-75779029D01*
X91392841Y-75900314D01*
X91459901Y-75868576D01*
X91459901Y-76720781D01*
X91443641Y-76713086D01*
X91221600Y-76834371D01*
X91221600Y-77978000D01*
X91241600Y-77978000D01*
X91241600Y-78232000D01*
X91221600Y-78232000D01*
X91221600Y-79375629D01*
X91443641Y-79496914D01*
X91459901Y-79489219D01*
X91459900Y-80513080D01*
X91380039Y-80480000D01*
X90809161Y-80480000D01*
X90281738Y-80698466D01*
X89878066Y-81102138D01*
X89659600Y-81629561D01*
X89659600Y-82200439D01*
X89878066Y-82727862D01*
X90281738Y-83131534D01*
X90334601Y-83153430D01*
X90334600Y-84486570D01*
X90281738Y-84508466D01*
X89878066Y-84912138D01*
X89659600Y-85439561D01*
X89659600Y-86010439D01*
X89878066Y-86537862D01*
X90281738Y-86941534D01*
X90809161Y-87160000D01*
X91269498Y-87160000D01*
X90610128Y-87819371D01*
X90546672Y-87861771D01*
X90504272Y-87925227D01*
X90504271Y-87925228D01*
X90378697Y-88113163D01*
X90338706Y-88314213D01*
X90060023Y-88500423D01*
X89742860Y-88975091D01*
X89631487Y-89535000D01*
X89742860Y-90094909D01*
X90060023Y-90569577D01*
X90334601Y-90753044D01*
X90334600Y-92006687D01*
X89987927Y-92238327D01*
X89648662Y-92746073D01*
X89529528Y-93345000D01*
X89648662Y-93943927D01*
X89802795Y-94174603D01*
X86740130Y-97237269D01*
X86676671Y-97279671D01*
X86586650Y-97414398D01*
X86523822Y-97351570D01*
X86408129Y-97467263D01*
X86358617Y-97241836D01*
X85893964Y-97082193D01*
X85403587Y-97112518D01*
X85091383Y-97241836D01*
X85041870Y-97467265D01*
X85725000Y-98150395D01*
X85739143Y-98136253D01*
X85918748Y-98315858D01*
X85904605Y-98330000D01*
X85918748Y-98344143D01*
X85739143Y-98523748D01*
X85725000Y-98509605D01*
X85710858Y-98523748D01*
X85531253Y-98344143D01*
X85545395Y-98330000D01*
X84862265Y-97646870D01*
X84636836Y-97696383D01*
X84477193Y-98161036D01*
X81869600Y-98161036D01*
X81869600Y-97760785D01*
X81887917Y-97668700D01*
X81869600Y-97576614D01*
X81869600Y-94885478D01*
X82082365Y-94843157D01*
X82292409Y-94702809D01*
X82432757Y-94492765D01*
X82482040Y-94245000D01*
X82482040Y-92445000D01*
X82432757Y-92197235D01*
X82292409Y-91987191D01*
X82082365Y-91846843D01*
X81869600Y-91804522D01*
X81869600Y-90629396D01*
X82151134Y-90347862D01*
X82369600Y-89820439D01*
X82369600Y-89249561D01*
X82151134Y-88722138D01*
X81747462Y-88318466D01*
X81220039Y-88100000D01*
X80649161Y-88100000D01*
X80121738Y-88318466D01*
X79937097Y-88503107D01*
X76168896Y-84734907D01*
X76209840Y-84717947D01*
X76599447Y-84328340D01*
X76609612Y-84303800D01*
X77313299Y-84303800D01*
X79218971Y-86209473D01*
X79261371Y-86272929D01*
X79512763Y-86440904D01*
X79713814Y-86480896D01*
X79900023Y-86759577D01*
X80374691Y-87076740D01*
X80793267Y-87160000D01*
X81075933Y-87160000D01*
X81494509Y-87076740D01*
X81969177Y-86759577D01*
X82286340Y-86284909D01*
X82397713Y-85725000D01*
X82286340Y-85165091D01*
X81969177Y-84690423D01*
X81494509Y-84373260D01*
X81075933Y-84290000D01*
X80793267Y-84290000D01*
X80374691Y-84373260D01*
X79900023Y-84690423D01*
X79879796Y-84720694D01*
X78218431Y-83059330D01*
X78176029Y-82995871D01*
X77924637Y-82827896D01*
X77702952Y-82783800D01*
X77702947Y-82783800D01*
X77628100Y-82768912D01*
X77553253Y-82783800D01*
X76609612Y-82783800D01*
X76599447Y-82759260D01*
X76209840Y-82369653D01*
X75700794Y-82158800D01*
X75149806Y-82158800D01*
X74640760Y-82369653D01*
X74531500Y-82478913D01*
X74531500Y-81915000D01*
X79471487Y-81915000D01*
X79582860Y-82474909D01*
X79900023Y-82949577D01*
X80374691Y-83266740D01*
X80793267Y-83350000D01*
X81075933Y-83350000D01*
X81494509Y-83266740D01*
X81969177Y-82949577D01*
X82286340Y-82474909D01*
X82397713Y-81915000D01*
X82286340Y-81355091D01*
X81969177Y-80880423D01*
X81494509Y-80563260D01*
X81075933Y-80480000D01*
X80793267Y-80480000D01*
X80374691Y-80563260D01*
X79900023Y-80880423D01*
X79582860Y-81355091D01*
X79471487Y-81915000D01*
X74531500Y-81915000D01*
X74531500Y-79728687D01*
X74640760Y-79837947D01*
X75149806Y-80048800D01*
X75700794Y-80048800D01*
X76209840Y-79837947D01*
X76599447Y-79448340D01*
X76810300Y-78939294D01*
X76810300Y-78388306D01*
X76599447Y-77879260D01*
X76539748Y-77819561D01*
X79499600Y-77819561D01*
X79499600Y-78390439D01*
X79718066Y-78917862D01*
X80121738Y-79321534D01*
X80649161Y-79540000D01*
X81220039Y-79540000D01*
X81747462Y-79321534D01*
X82151134Y-78917862D01*
X82343255Y-78454039D01*
X89702696Y-78454039D01*
X89863559Y-78842423D01*
X90239466Y-79257389D01*
X90745559Y-79496914D01*
X90967600Y-79375629D01*
X90967600Y-78232000D01*
X89824685Y-78232000D01*
X89702696Y-78454039D01*
X82343255Y-78454039D01*
X82369600Y-78390439D01*
X82369600Y-77819561D01*
X82343256Y-77755961D01*
X89702696Y-77755961D01*
X89824685Y-77978000D01*
X90967600Y-77978000D01*
X90967600Y-76834371D01*
X90745559Y-76713086D01*
X90239466Y-76952611D01*
X89863559Y-77367577D01*
X89702696Y-77755961D01*
X82343256Y-77755961D01*
X82151134Y-77292138D01*
X81747462Y-76888466D01*
X81220039Y-76670000D01*
X80649161Y-76670000D01*
X80121738Y-76888466D01*
X79718066Y-77292138D01*
X79499600Y-77819561D01*
X76539748Y-77819561D01*
X76209840Y-77489653D01*
X75700794Y-77278800D01*
X75149806Y-77278800D01*
X74640760Y-77489653D01*
X74531500Y-77598913D01*
X74531500Y-74222961D01*
X79448800Y-74222961D01*
X79448800Y-74793839D01*
X79667266Y-75321262D01*
X80070938Y-75724934D01*
X80598361Y-75943400D01*
X81169239Y-75943400D01*
X81696662Y-75724934D01*
X82100334Y-75321262D01*
X82292455Y-74857439D01*
X89651896Y-74857439D01*
X89812759Y-75245823D01*
X90188666Y-75660789D01*
X90694759Y-75900314D01*
X90916800Y-75779029D01*
X90916800Y-74635400D01*
X89773885Y-74635400D01*
X89651896Y-74857439D01*
X82292455Y-74857439D01*
X82318800Y-74793839D01*
X82318800Y-74222961D01*
X82292456Y-74159361D01*
X89651896Y-74159361D01*
X89773885Y-74381400D01*
X90916800Y-74381400D01*
X90916800Y-73237771D01*
X90694759Y-73116486D01*
X90188666Y-73356011D01*
X89812759Y-73770977D01*
X89651896Y-74159361D01*
X82292456Y-74159361D01*
X82100334Y-73695538D01*
X81696662Y-73291866D01*
X81169239Y-73073400D01*
X80598361Y-73073400D01*
X80070938Y-73291866D01*
X79667266Y-73695538D01*
X79448800Y-74222961D01*
X74531500Y-74222961D01*
X74531500Y-72635217D01*
X74897810Y-72268907D01*
X75131500Y-71704730D01*
X75131500Y-71094070D01*
X74897810Y-70529893D01*
X74466007Y-70098090D01*
X73901830Y-69864400D01*
X73291170Y-69864400D01*
X72726993Y-70098090D01*
X72557775Y-70267308D01*
X72554657Y-70251635D01*
X72414309Y-70041591D01*
X72204265Y-69901243D01*
X71956500Y-69851960D01*
X70156500Y-69851960D01*
X69908735Y-69901243D01*
X69698691Y-70041591D01*
X69558343Y-70251635D01*
X69509060Y-70499400D01*
X69509060Y-72299400D01*
X69558343Y-72547165D01*
X69698691Y-72757209D01*
X69908735Y-72897557D01*
X70156500Y-72946840D01*
X71956500Y-72946840D01*
X72204265Y-72897557D01*
X72414309Y-72757209D01*
X72554657Y-72547165D01*
X72557775Y-72531492D01*
X72661501Y-72635218D01*
X72661500Y-83392714D01*
X72643183Y-83484800D01*
X72671111Y-83625204D01*
X72715750Y-83849618D01*
X72922403Y-84158897D01*
X73000472Y-84211061D01*
X78920441Y-90131031D01*
X78972603Y-90209097D01*
X79050669Y-90261259D01*
X79281881Y-90415750D01*
X79646700Y-90488317D01*
X79738786Y-90470000D01*
X79840204Y-90470000D01*
X79999600Y-90629396D01*
X79999601Y-91804522D01*
X79786835Y-91846843D01*
X79576791Y-91987191D01*
X79436443Y-92197235D01*
X79387160Y-92445000D01*
X79387160Y-94245000D01*
X79436443Y-94492765D01*
X79576791Y-94702809D01*
X79786835Y-94843157D01*
X79999601Y-94885478D01*
X79999600Y-96733700D01*
X74508381Y-96733700D01*
X74416299Y-96715384D01*
X74324217Y-96733700D01*
X74324214Y-96733700D01*
X74051481Y-96787950D01*
X73742203Y-96994603D01*
X73690041Y-97072669D01*
X73184980Y-97577730D01*
X73171256Y-97575000D01*
X72878744Y-97575000D01*
X72445582Y-97661161D01*
X71954375Y-97989375D01*
X71942184Y-98007619D01*
X71933157Y-97962235D01*
X71792809Y-97752191D01*
X71582765Y-97611843D01*
X71335000Y-97562560D01*
X69635000Y-97562560D01*
X69387235Y-97611843D01*
X69177191Y-97752191D01*
X69036843Y-97962235D01*
X68987560Y-98210000D01*
X65480000Y-98210000D01*
X65480000Y-94344778D01*
X68215000Y-94344778D01*
X68215000Y-94995222D01*
X68463914Y-95596153D01*
X68923847Y-96056086D01*
X69524778Y-96305000D01*
X70175222Y-96305000D01*
X70776153Y-96056086D01*
X71236086Y-95596153D01*
X71485000Y-94995222D01*
X71485000Y-94344778D01*
X74715000Y-94344778D01*
X74715000Y-94995222D01*
X74963914Y-95596153D01*
X75423847Y-96056086D01*
X76024778Y-96305000D01*
X76675222Y-96305000D01*
X77276153Y-96056086D01*
X77736086Y-95596153D01*
X77985000Y-94995222D01*
X77985000Y-94344778D01*
X77736086Y-93743847D01*
X77276153Y-93283914D01*
X76675222Y-93035000D01*
X76024778Y-93035000D01*
X75423847Y-93283914D01*
X74963914Y-93743847D01*
X74715000Y-94344778D01*
X71485000Y-94344778D01*
X71236086Y-93743847D01*
X70776153Y-93283914D01*
X70175222Y-93035000D01*
X69524778Y-93035000D01*
X68923847Y-93283914D01*
X68463914Y-93743847D01*
X68215000Y-94344778D01*
X65480000Y-94344778D01*
X65480000Y-91322532D01*
X68877073Y-91322532D01*
X68975736Y-91589387D01*
X69585461Y-91815908D01*
X70235460Y-91791856D01*
X70724264Y-91589387D01*
X70822927Y-91322532D01*
X75377073Y-91322532D01*
X75475736Y-91589387D01*
X76085461Y-91815908D01*
X76735460Y-91791856D01*
X77224264Y-91589387D01*
X77322927Y-91322532D01*
X76350000Y-90349605D01*
X75377073Y-91322532D01*
X70822927Y-91322532D01*
X69850000Y-90349605D01*
X68877073Y-91322532D01*
X65480000Y-91322532D01*
X65480000Y-89905461D01*
X68204092Y-89905461D01*
X68228144Y-90555460D01*
X68430613Y-91044264D01*
X68697468Y-91142927D01*
X69670395Y-90170000D01*
X70029605Y-90170000D01*
X71002532Y-91142927D01*
X71269387Y-91044264D01*
X71495908Y-90434539D01*
X71476331Y-89905461D01*
X74704092Y-89905461D01*
X74728144Y-90555460D01*
X74930613Y-91044264D01*
X75197468Y-91142927D01*
X76170395Y-90170000D01*
X76529605Y-90170000D01*
X77502532Y-91142927D01*
X77769387Y-91044264D01*
X77995908Y-90434539D01*
X77971856Y-89784540D01*
X77769387Y-89295736D01*
X77502532Y-89197073D01*
X76529605Y-90170000D01*
X76170395Y-90170000D01*
X75197468Y-89197073D01*
X74930613Y-89295736D01*
X74704092Y-89905461D01*
X71476331Y-89905461D01*
X71471856Y-89784540D01*
X71269387Y-89295736D01*
X71002532Y-89197073D01*
X70029605Y-90170000D01*
X69670395Y-90170000D01*
X68697468Y-89197073D01*
X68430613Y-89295736D01*
X68204092Y-89905461D01*
X65480000Y-89905461D01*
X65480000Y-89017468D01*
X68877073Y-89017468D01*
X69850000Y-89990395D01*
X70822927Y-89017468D01*
X75377073Y-89017468D01*
X76350000Y-89990395D01*
X77322927Y-89017468D01*
X77224264Y-88750613D01*
X76614539Y-88524092D01*
X75964540Y-88548144D01*
X75475736Y-88750613D01*
X75377073Y-89017468D01*
X70822927Y-89017468D01*
X70724264Y-88750613D01*
X70114539Y-88524092D01*
X69464540Y-88548144D01*
X68975736Y-88750613D01*
X68877073Y-89017468D01*
X65480000Y-89017468D01*
X65480000Y-85363361D01*
X67919700Y-85363361D01*
X67919700Y-85934239D01*
X68138166Y-86461662D01*
X68541838Y-86865334D01*
X69069261Y-87083800D01*
X69640139Y-87083800D01*
X70167562Y-86865334D01*
X70571234Y-86461662D01*
X70789700Y-85934239D01*
X70789700Y-85363361D01*
X70571234Y-84835938D01*
X70167562Y-84432266D01*
X70102401Y-84405275D01*
X70108705Y-84402664D01*
X70182839Y-84156545D01*
X69354700Y-83328405D01*
X68526561Y-84156545D01*
X68600695Y-84402664D01*
X68607446Y-84405090D01*
X68541838Y-84432266D01*
X68138166Y-84835938D01*
X67919700Y-85363361D01*
X65480000Y-85363361D01*
X65480000Y-82932023D01*
X67907735Y-82932023D01*
X67934922Y-83502254D01*
X68100836Y-83902805D01*
X68346955Y-83976939D01*
X69175095Y-83148800D01*
X69534305Y-83148800D01*
X70362445Y-83976939D01*
X70608564Y-83902805D01*
X70801665Y-83365577D01*
X70774478Y-82795346D01*
X70608564Y-82394795D01*
X70362445Y-82320661D01*
X69534305Y-83148800D01*
X69175095Y-83148800D01*
X68346955Y-82320661D01*
X68100836Y-82394795D01*
X67907735Y-82932023D01*
X65480000Y-82932023D01*
X65480000Y-82141055D01*
X68526561Y-82141055D01*
X69354700Y-82969195D01*
X70182839Y-82141055D01*
X70108705Y-81894936D01*
X69571477Y-81701835D01*
X69001246Y-81729022D01*
X68600695Y-81894936D01*
X68526561Y-82141055D01*
X65480000Y-82141055D01*
X65480000Y-80253845D01*
X68526561Y-80253845D01*
X68600695Y-80499964D01*
X69137923Y-80693065D01*
X69708154Y-80665878D01*
X70108705Y-80499964D01*
X70182839Y-80253845D01*
X69354700Y-79425705D01*
X68526561Y-80253845D01*
X65480000Y-80253845D01*
X65480000Y-79029323D01*
X67907735Y-79029323D01*
X67934922Y-79599554D01*
X68100836Y-80000105D01*
X68346955Y-80074239D01*
X69175095Y-79246100D01*
X69534305Y-79246100D01*
X70362445Y-80074239D01*
X70608564Y-80000105D01*
X70801665Y-79462877D01*
X70774478Y-78892646D01*
X70608564Y-78492095D01*
X70362445Y-78417961D01*
X69534305Y-79246100D01*
X69175095Y-79246100D01*
X68346955Y-78417961D01*
X68100836Y-78492095D01*
X67907735Y-79029323D01*
X65480000Y-79029323D01*
X65480000Y-76460661D01*
X67919700Y-76460661D01*
X67919700Y-77031539D01*
X68138166Y-77558962D01*
X68541838Y-77962634D01*
X68606999Y-77989625D01*
X68600695Y-77992236D01*
X68526561Y-78238355D01*
X69354700Y-79066495D01*
X70182839Y-78238355D01*
X70108705Y-77992236D01*
X70101954Y-77989810D01*
X70167562Y-77962634D01*
X70571234Y-77558962D01*
X70789700Y-77031539D01*
X70789700Y-76460661D01*
X70571234Y-75933238D01*
X70167562Y-75529566D01*
X69640139Y-75311100D01*
X69069261Y-75311100D01*
X68541838Y-75529566D01*
X68138166Y-75933238D01*
X67919700Y-76460661D01*
X65480000Y-76460661D01*
X65480000Y-66953108D01*
X89998514Y-66953108D01*
X90119181Y-67183000D01*
X91313000Y-67183000D01*
X91313000Y-65989845D01*
X91567000Y-65989845D01*
X91567000Y-67183000D01*
X93853000Y-67183000D01*
X93853000Y-65989845D01*
X93623110Y-65868524D01*
X93213076Y-66038355D01*
X92784817Y-66428642D01*
X92710000Y-66587954D01*
X92635183Y-66428642D01*
X92206924Y-66038355D01*
X91796890Y-65868524D01*
X91567000Y-65989845D01*
X91313000Y-65989845D01*
X91083110Y-65868524D01*
X90673076Y-66038355D01*
X90244817Y-66428642D01*
X89998514Y-66953108D01*
X65480000Y-66953108D01*
X65480000Y-61255431D01*
X67540000Y-61255431D01*
X67540000Y-62144569D01*
X67880259Y-62966026D01*
X68508974Y-63594741D01*
X69330431Y-63935000D01*
X70219569Y-63935000D01*
X71041026Y-63594741D01*
X71669741Y-62966026D01*
X72010000Y-62144569D01*
X72010000Y-61255431D01*
X156590000Y-61255431D01*
X156590000Y-62144569D01*
X156930259Y-62966026D01*
X157558974Y-63594741D01*
X158380431Y-63935000D01*
X159269569Y-63935000D01*
X160091026Y-63594741D01*
X160719741Y-62966026D01*
X161060000Y-62144569D01*
X161060000Y-61255431D01*
X160719741Y-60433974D01*
X160091026Y-59805259D01*
X159269569Y-59465000D01*
X158380431Y-59465000D01*
X157558974Y-59805259D01*
X156930259Y-60433974D01*
X156590000Y-61255431D01*
X72010000Y-61255431D01*
X71669741Y-60433974D01*
X71041026Y-59805259D01*
X70219569Y-59465000D01*
X69330431Y-59465000D01*
X68508974Y-59805259D01*
X67880259Y-60433974D01*
X67540000Y-61255431D01*
X65480000Y-61255431D01*
X65480000Y-57877000D01*
X163120000Y-57877000D01*
X163120001Y-131370000D01*
X163120001Y-131370000D01*
G37*
X163120001Y-131370000D02*
X65480000Y-131370000D01*
X65480000Y-127130431D01*
X67565000Y-127130431D01*
X67565000Y-128019569D01*
X67905259Y-128841026D01*
X68533974Y-129469741D01*
X69355431Y-129810000D01*
X70244569Y-129810000D01*
X71066026Y-129469741D01*
X71694741Y-128841026D01*
X72035000Y-128019569D01*
X72035000Y-127130431D01*
X71694741Y-126308974D01*
X71623703Y-126237936D01*
X83324070Y-126237936D01*
X83593621Y-126650257D01*
X84710042Y-127110369D01*
X85917557Y-127108221D01*
X87023179Y-126650257D01*
X87292730Y-126237936D01*
X85308400Y-124253605D01*
X83324070Y-126237936D01*
X71623703Y-126237936D01*
X71066026Y-125680259D01*
X70244569Y-125340000D01*
X69355431Y-125340000D01*
X68533974Y-125680259D01*
X67905259Y-126308974D01*
X67565000Y-127130431D01*
X65480000Y-127130431D01*
X65480000Y-123475642D01*
X82272031Y-123475642D01*
X82274179Y-124683157D01*
X82732143Y-125788779D01*
X83144464Y-126058330D01*
X85128795Y-124074000D01*
X83144464Y-122089670D01*
X82732143Y-122359221D01*
X82272031Y-123475642D01*
X65480000Y-123475642D01*
X65480000Y-98210000D01*
X68987560Y-98210000D01*
X68987560Y-99910000D01*
X69036843Y-100157765D01*
X69177191Y-100367809D01*
X69387235Y-100508157D01*
X69635000Y-100557440D01*
X71335000Y-100557440D01*
X71582765Y-100508157D01*
X71792809Y-100367809D01*
X71933157Y-100157765D01*
X71942184Y-100112381D01*
X71954375Y-100130625D01*
X72445582Y-100458839D01*
X72878744Y-100545000D01*
X73171256Y-100545000D01*
X73604418Y-100458839D01*
X74095625Y-100130625D01*
X74295000Y-99832239D01*
X74494375Y-100130625D01*
X74630001Y-100221247D01*
X74630001Y-100318214D01*
X74630000Y-103887814D01*
X74611683Y-103979900D01*
X74630000Y-104071985D01*
X74684250Y-104344718D01*
X74828096Y-104560000D01*
X74783744Y-104560000D01*
X74350582Y-104646161D01*
X73859375Y-104974375D01*
X73660000Y-105272761D01*
X73460625Y-104974375D01*
X72969418Y-104646161D01*
X72536256Y-104560000D01*
X72243744Y-104560000D01*
X71810582Y-104646161D01*
X71319375Y-104974375D01*
X70991161Y-105465582D01*
X70875908Y-106045000D01*
X70991161Y-106624418D01*
X71319375Y-107115625D01*
X71617761Y-107315000D01*
X71319375Y-107514375D01*
X70991161Y-108005582D01*
X70875908Y-108585000D01*
X70991161Y-109164418D01*
X71319375Y-109655625D01*
X71617761Y-109855000D01*
X71319375Y-110054375D01*
X70991161Y-110545582D01*
X70875908Y-111125000D01*
X70991161Y-111704418D01*
X71319375Y-112195625D01*
X71617761Y-112395000D01*
X71319375Y-112594375D01*
X70991161Y-113085582D01*
X70875908Y-113665000D01*
X70991161Y-114244418D01*
X71319375Y-114735625D01*
X71617761Y-114935000D01*
X71319375Y-115134375D01*
X70991161Y-115625582D01*
X70875908Y-116205000D01*
X70991161Y-116784418D01*
X71319375Y-117275625D01*
X71617761Y-117475000D01*
X71319375Y-117674375D01*
X70991161Y-118165582D01*
X70875908Y-118745000D01*
X70991161Y-119324418D01*
X71319375Y-119815625D01*
X71617761Y-120015000D01*
X71319375Y-120214375D01*
X70991161Y-120705582D01*
X70875908Y-121285000D01*
X70991161Y-121864418D01*
X71319375Y-122355625D01*
X71810582Y-122683839D01*
X72243744Y-122770000D01*
X72536256Y-122770000D01*
X72969418Y-122683839D01*
X73460625Y-122355625D01*
X73472816Y-122337381D01*
X73481843Y-122382765D01*
X73622191Y-122592809D01*
X73832235Y-122733157D01*
X74080000Y-122782440D01*
X75780000Y-122782440D01*
X76027765Y-122733157D01*
X76237809Y-122592809D01*
X76378157Y-122382765D01*
X76427440Y-122135000D01*
X76427440Y-120435000D01*
X76378157Y-120187235D01*
X76237809Y-119977191D01*
X76027765Y-119836843D01*
X75982381Y-119827816D01*
X76000625Y-119815625D01*
X76328839Y-119324418D01*
X76444092Y-118745000D01*
X76328839Y-118165582D01*
X76000625Y-117674375D01*
X75702239Y-117475000D01*
X76000625Y-117275625D01*
X76328839Y-116784418D01*
X76444092Y-116205000D01*
X76328839Y-115625582D01*
X76106129Y-115292272D01*
X78085873Y-113312529D01*
X78149329Y-113270129D01*
X78272640Y-113085582D01*
X78317304Y-113018738D01*
X78326880Y-112970595D01*
X78361400Y-112797052D01*
X78361400Y-112797048D01*
X78376288Y-112722200D01*
X78361400Y-112647352D01*
X78361400Y-111359202D01*
X81151694Y-114149495D01*
X81119869Y-114181320D01*
X80962300Y-114561726D01*
X80962300Y-114973474D01*
X81119869Y-115353880D01*
X81411020Y-115645031D01*
X81791426Y-115802600D01*
X82203174Y-115802600D01*
X82260660Y-115778789D01*
X82260660Y-120378300D01*
X82309943Y-120626065D01*
X82450291Y-120836109D01*
X82660335Y-120976457D01*
X82908100Y-121025740D01*
X87418753Y-121025740D01*
X87353100Y-121184241D01*
X87353100Y-121849692D01*
X87292729Y-121910063D01*
X87023179Y-121497743D01*
X85906758Y-121037631D01*
X84699243Y-121039779D01*
X83593621Y-121497743D01*
X83324070Y-121910064D01*
X85308400Y-123894395D01*
X85322542Y-123880252D01*
X85502148Y-124059858D01*
X85488005Y-124074000D01*
X87472336Y-126058330D01*
X87884657Y-125788779D01*
X88344769Y-124672358D01*
X88343637Y-124035799D01*
X88669041Y-124361203D01*
X89784641Y-124823300D01*
X90992159Y-124823300D01*
X92107759Y-124361203D01*
X92961603Y-123507359D01*
X93423700Y-122391759D01*
X93423700Y-121184241D01*
X92961603Y-120068641D01*
X92107759Y-119214797D01*
X91386494Y-118916039D01*
X94035896Y-118916039D01*
X94196759Y-119304423D01*
X94572666Y-119719389D01*
X95078759Y-119958914D01*
X95300800Y-119837629D01*
X95300800Y-118694000D01*
X95554800Y-118694000D01*
X95554800Y-119837629D01*
X95776841Y-119958914D01*
X96282934Y-119719389D01*
X96658841Y-119304423D01*
X96819704Y-118916039D01*
X96697715Y-118694000D01*
X95554800Y-118694000D01*
X95300800Y-118694000D01*
X94157885Y-118694000D01*
X94035896Y-118916039D01*
X91386494Y-118916039D01*
X90992159Y-118752700D01*
X89784641Y-118752700D01*
X88669041Y-119214797D01*
X88356140Y-119527698D01*
X88356140Y-116027000D01*
X93964687Y-116027000D01*
X94076060Y-116586909D01*
X94393223Y-117061577D01*
X94776908Y-117317947D01*
X94572666Y-117414611D01*
X94196759Y-117829577D01*
X94035896Y-118217961D01*
X94157885Y-118440000D01*
X95300800Y-118440000D01*
X95300800Y-118420000D01*
X95554800Y-118420000D01*
X95554800Y-118440000D01*
X96697715Y-118440000D01*
X96819704Y-118217961D01*
X96658841Y-117829577D01*
X96282934Y-117414611D01*
X96078692Y-117317947D01*
X96462377Y-117061577D01*
X96779540Y-116586909D01*
X96890913Y-116027000D01*
X96779540Y-115467091D01*
X96462377Y-114992423D01*
X96078692Y-114736053D01*
X96282934Y-114639389D01*
X96658841Y-114224423D01*
X96819704Y-113836039D01*
X96697715Y-113614000D01*
X95554800Y-113614000D01*
X95554800Y-113634000D01*
X95300800Y-113634000D01*
X95300800Y-113614000D01*
X94157885Y-113614000D01*
X94035896Y-113836039D01*
X94196759Y-114224423D01*
X94572666Y-114639389D01*
X94776908Y-114736053D01*
X94393223Y-114992423D01*
X94076060Y-115467091D01*
X93964687Y-116027000D01*
X88356140Y-116027000D01*
X88356140Y-115577700D01*
X88306857Y-115329935D01*
X88166509Y-115119891D01*
X87956465Y-114979543D01*
X87708700Y-114930260D01*
X86243400Y-114930260D01*
X86243400Y-113815380D01*
X86261716Y-113723299D01*
X86243400Y-113631218D01*
X86243400Y-113631214D01*
X86189150Y-113358481D01*
X85982497Y-113049203D01*
X85904431Y-112997041D01*
X76500000Y-103592611D01*
X76500000Y-100221247D01*
X76635625Y-100130625D01*
X76963839Y-99639418D01*
X77079092Y-99060000D01*
X76988329Y-98603700D01*
X79999601Y-98603700D01*
X79999600Y-103672214D01*
X79981283Y-103764300D01*
X80003289Y-103874929D01*
X80053850Y-104129118D01*
X80260503Y-104438397D01*
X80338572Y-104490561D01*
X83188383Y-107340373D01*
X83056843Y-107537235D01*
X83007560Y-107785000D01*
X83007560Y-109385000D01*
X83056843Y-109632765D01*
X83197191Y-109842809D01*
X83407235Y-109983157D01*
X83655000Y-110032440D01*
X85255000Y-110032440D01*
X85502765Y-109983157D01*
X85712809Y-109842809D01*
X85853157Y-109632765D01*
X85861117Y-109592745D01*
X86126861Y-109592745D01*
X86200995Y-109838864D01*
X86738223Y-110031965D01*
X87308454Y-110004778D01*
X87709005Y-109838864D01*
X87783139Y-109592745D01*
X86955000Y-108764605D01*
X86126861Y-109592745D01*
X85861117Y-109592745D01*
X85899693Y-109398813D01*
X85947255Y-109413139D01*
X86775395Y-108585000D01*
X87134605Y-108585000D01*
X87962745Y-109413139D01*
X88208864Y-109339005D01*
X88401965Y-108801777D01*
X88374778Y-108231546D01*
X88208864Y-107830995D01*
X87962745Y-107756861D01*
X87134605Y-108585000D01*
X86775395Y-108585000D01*
X85947255Y-107756861D01*
X85899693Y-107771187D01*
X85861118Y-107577255D01*
X86126861Y-107577255D01*
X86955000Y-108405395D01*
X87783139Y-107577255D01*
X87709005Y-107331136D01*
X87171777Y-107138035D01*
X86601546Y-107165222D01*
X86200995Y-107331136D01*
X86126861Y-107577255D01*
X85861118Y-107577255D01*
X85853157Y-107537235D01*
X85712809Y-107327191D01*
X85502765Y-107186843D01*
X85384159Y-107163251D01*
X85335750Y-106919881D01*
X85129097Y-106610603D01*
X85051031Y-106558441D01*
X81869600Y-103377011D01*
X81869600Y-98161036D01*
X84477193Y-98161036D01*
X84507518Y-98651413D01*
X84636836Y-98963617D01*
X84862263Y-99013129D01*
X84746570Y-99128822D01*
X84800718Y-99182970D01*
X84667191Y-99272191D01*
X84526843Y-99482235D01*
X84477560Y-99730000D01*
X84477560Y-100930000D01*
X84526843Y-101177765D01*
X84667191Y-101387809D01*
X84877235Y-101528157D01*
X85125000Y-101577440D01*
X86325000Y-101577440D01*
X86572765Y-101528157D01*
X86782809Y-101387809D01*
X86923157Y-101177765D01*
X86972440Y-100930000D01*
X86972440Y-100182441D01*
X94300776Y-107510779D01*
X94076060Y-107847091D01*
X93964687Y-108407000D01*
X94076060Y-108966909D01*
X94393223Y-109441577D01*
X94689186Y-109639333D01*
X94671904Y-109726214D01*
X94393223Y-109912423D01*
X94076060Y-110387091D01*
X93964687Y-110947000D01*
X94076060Y-111506909D01*
X94393223Y-111981577D01*
X94776908Y-112237947D01*
X94572666Y-112334611D01*
X94196759Y-112749577D01*
X94035896Y-113137961D01*
X94157885Y-113360000D01*
X95300800Y-113360000D01*
X95300800Y-113340000D01*
X95554800Y-113340000D01*
X95554800Y-113360000D01*
X96697715Y-113360000D01*
X96819704Y-113137961D01*
X96658841Y-112749577D01*
X96282934Y-112334611D01*
X96078692Y-112237947D01*
X96462377Y-111981577D01*
X96779540Y-111506909D01*
X96890913Y-110947000D01*
X96779540Y-110387091D01*
X96554823Y-110050778D01*
X97037573Y-109568029D01*
X97101029Y-109525629D01*
X97269004Y-109274237D01*
X97313100Y-109052552D01*
X97313100Y-109052548D01*
X97327988Y-108977701D01*
X97313100Y-108902854D01*
X97313100Y-105371048D01*
X97327988Y-105296200D01*
X97313100Y-105221352D01*
X97313100Y-105221348D01*
X97269004Y-104999663D01*
X97269004Y-104999662D01*
X97143429Y-104811727D01*
X97101029Y-104748271D01*
X97037573Y-104705871D01*
X96778096Y-104446394D01*
X96825957Y-104374765D01*
X96875240Y-104127000D01*
X96875240Y-103013842D01*
X99890700Y-106029302D01*
X99890701Y-118811400D01*
X98498600Y-117419299D01*
X98498600Y-115339211D01*
X98616031Y-115221780D01*
X98773600Y-114841374D01*
X98773600Y-114429626D01*
X98616031Y-114049220D01*
X98324880Y-113758069D01*
X97944474Y-113600500D01*
X97532726Y-113600500D01*
X97152320Y-113758069D01*
X96861169Y-114049220D01*
X96703600Y-114429626D01*
X96703600Y-114841374D01*
X96861169Y-115221780D01*
X96978601Y-115339212D01*
X96978600Y-117659253D01*
X96963712Y-117734100D01*
X96978600Y-117808947D01*
X96978600Y-117808951D01*
X97022696Y-118030636D01*
X97190671Y-118282029D01*
X97254130Y-118324431D01*
X109265271Y-130335573D01*
X109307671Y-130399029D01*
X109371127Y-130441429D01*
X109559062Y-130567004D01*
X109607205Y-130576580D01*
X109780748Y-130611100D01*
X109780752Y-130611100D01*
X109855600Y-130625988D01*
X109930448Y-130611100D01*
X142819853Y-130611100D01*
X142894700Y-130625988D01*
X142969547Y-130611100D01*
X142969552Y-130611100D01*
X143191237Y-130567004D01*
X143442629Y-130399029D01*
X143485031Y-130335570D01*
X144461710Y-129358891D01*
X144855091Y-129621740D01*
X145273667Y-129705000D01*
X145556333Y-129705000D01*
X145974909Y-129621740D01*
X146449577Y-129304577D01*
X146685000Y-128952242D01*
X146920423Y-129304577D01*
X147395091Y-129621740D01*
X147813667Y-129705000D01*
X148096333Y-129705000D01*
X148514909Y-129621740D01*
X148989577Y-129304577D01*
X149225000Y-128952242D01*
X149460423Y-129304577D01*
X149935091Y-129621740D01*
X150353667Y-129705000D01*
X150636333Y-129705000D01*
X151054909Y-129621740D01*
X151529577Y-129304577D01*
X151785947Y-128920892D01*
X151882611Y-129125134D01*
X152297577Y-129501041D01*
X152685961Y-129661904D01*
X152908000Y-129539915D01*
X152908000Y-128397000D01*
X153162000Y-128397000D01*
X153162000Y-129539915D01*
X153384039Y-129661904D01*
X153772423Y-129501041D01*
X154187389Y-129125134D01*
X154426914Y-128619041D01*
X154305629Y-128397000D01*
X153162000Y-128397000D01*
X152908000Y-128397000D01*
X152888000Y-128397000D01*
X152888000Y-128143000D01*
X152908000Y-128143000D01*
X152908000Y-127000085D01*
X153162000Y-127000085D01*
X153162000Y-128143000D01*
X154305629Y-128143000D01*
X154426914Y-127920959D01*
X154187389Y-127414866D01*
X153845802Y-127105431D01*
X156615000Y-127105431D01*
X156615000Y-127994569D01*
X156955259Y-128816026D01*
X157583974Y-129444741D01*
X158405431Y-129785000D01*
X159294569Y-129785000D01*
X160116026Y-129444741D01*
X160744741Y-128816026D01*
X161085000Y-127994569D01*
X161085000Y-127105431D01*
X160744741Y-126283974D01*
X160116026Y-125655259D01*
X159294569Y-125315000D01*
X158405431Y-125315000D01*
X157583974Y-125655259D01*
X156955259Y-126283974D01*
X156615000Y-127105431D01*
X153845802Y-127105431D01*
X153772423Y-127038959D01*
X153384039Y-126878096D01*
X153162000Y-127000085D01*
X152908000Y-127000085D01*
X152685961Y-126878096D01*
X152297577Y-127038959D01*
X151882611Y-127414866D01*
X151785947Y-127619108D01*
X151529577Y-127235423D01*
X151499305Y-127215196D01*
X152104873Y-126609629D01*
X152168329Y-126567229D01*
X152336304Y-126315837D01*
X152380400Y-126094152D01*
X152380400Y-126094147D01*
X152395288Y-126019300D01*
X152380400Y-125944453D01*
X152380400Y-121938470D01*
X152475091Y-122001740D01*
X152893667Y-122085000D01*
X153176333Y-122085000D01*
X153594909Y-122001740D01*
X154069577Y-121684577D01*
X154386740Y-121209909D01*
X154498113Y-120650000D01*
X154386740Y-120090091D01*
X154069577Y-119615423D01*
X153594909Y-119298260D01*
X153176333Y-119215000D01*
X152893667Y-119215000D01*
X152475091Y-119298260D01*
X152380400Y-119361530D01*
X152380400Y-112923000D01*
X152917887Y-112923000D01*
X153029260Y-113482909D01*
X153346423Y-113957577D01*
X153698758Y-114193000D01*
X153346423Y-114428423D01*
X153029260Y-114903091D01*
X152917887Y-115463000D01*
X153029260Y-116022909D01*
X153346423Y-116497577D01*
X153821091Y-116814740D01*
X154239667Y-116898000D01*
X154522333Y-116898000D01*
X154940909Y-116814740D01*
X155415577Y-116497577D01*
X155732740Y-116022909D01*
X155844113Y-115463000D01*
X155732740Y-114903091D01*
X155415577Y-114428423D01*
X155063242Y-114193000D01*
X155415577Y-113957577D01*
X155732740Y-113482909D01*
X155844113Y-112923000D01*
X155732740Y-112363091D01*
X155415577Y-111888423D01*
X155031892Y-111632053D01*
X155236134Y-111535389D01*
X155612041Y-111120423D01*
X155772904Y-110732039D01*
X155650915Y-110510000D01*
X154508000Y-110510000D01*
X154508000Y-110530000D01*
X154254000Y-110530000D01*
X154254000Y-110510000D01*
X153111085Y-110510000D01*
X152989096Y-110732039D01*
X153149959Y-111120423D01*
X153525866Y-111535389D01*
X153730108Y-111632053D01*
X153346423Y-111888423D01*
X153029260Y-112363091D01*
X152917887Y-112923000D01*
X152380400Y-112923000D01*
X152380400Y-108192039D01*
X152989096Y-108192039D01*
X153149959Y-108580423D01*
X153525866Y-108995389D01*
X153774367Y-109113000D01*
X153525866Y-109230611D01*
X153149959Y-109645577D01*
X152989096Y-110033961D01*
X153111085Y-110256000D01*
X154254000Y-110256000D01*
X154254000Y-107970000D01*
X154508000Y-107970000D01*
X154508000Y-110256000D01*
X155650915Y-110256000D01*
X155772904Y-110033961D01*
X155612041Y-109645577D01*
X155236134Y-109230611D01*
X154987633Y-109113000D01*
X155236134Y-108995389D01*
X155612041Y-108580423D01*
X155772904Y-108192039D01*
X155650915Y-107970000D01*
X154508000Y-107970000D01*
X154254000Y-107970000D01*
X153111085Y-107970000D01*
X152989096Y-108192039D01*
X152380400Y-108192039D01*
X152380400Y-106001246D01*
X152395288Y-105926399D01*
X152380400Y-105851552D01*
X152380400Y-105851548D01*
X152340716Y-105652039D01*
X152989096Y-105652039D01*
X153149959Y-106040423D01*
X153525866Y-106455389D01*
X153774367Y-106573000D01*
X153525866Y-106690611D01*
X153149959Y-107105577D01*
X152989096Y-107493961D01*
X153111085Y-107716000D01*
X154254000Y-107716000D01*
X154254000Y-105430000D01*
X154508000Y-105430000D01*
X154508000Y-107716000D01*
X155650915Y-107716000D01*
X155772904Y-107493961D01*
X155612041Y-107105577D01*
X155236134Y-106690611D01*
X154987633Y-106573000D01*
X155236134Y-106455389D01*
X155612041Y-106040423D01*
X155772904Y-105652039D01*
X155650915Y-105430000D01*
X154508000Y-105430000D01*
X154254000Y-105430000D01*
X153111085Y-105430000D01*
X152989096Y-105652039D01*
X152340716Y-105652039D01*
X152336304Y-105629863D01*
X152168329Y-105378471D01*
X152104873Y-105336071D01*
X149880841Y-103112039D01*
X152989096Y-103112039D01*
X153149959Y-103500423D01*
X153525866Y-103915389D01*
X153774367Y-104033000D01*
X153525866Y-104150611D01*
X153149959Y-104565577D01*
X152989096Y-104953961D01*
X153111085Y-105176000D01*
X154254000Y-105176000D01*
X154254000Y-102890000D01*
X154508000Y-102890000D01*
X154508000Y-105176000D01*
X155650915Y-105176000D01*
X155772904Y-104953961D01*
X155612041Y-104565577D01*
X155236134Y-104150611D01*
X154987633Y-104033000D01*
X155236134Y-103915389D01*
X155612041Y-103500423D01*
X155772904Y-103112039D01*
X155650915Y-102890000D01*
X154508000Y-102890000D01*
X154254000Y-102890000D01*
X153111085Y-102890000D01*
X152989096Y-103112039D01*
X149880841Y-103112039D01*
X148111255Y-101342454D01*
X148159157Y-101270765D01*
X148208440Y-101023000D01*
X148208440Y-99423000D01*
X148159157Y-99175235D01*
X148018809Y-98965191D01*
X147808765Y-98824843D01*
X147561000Y-98775560D01*
X147215341Y-98775560D01*
X153002139Y-92988763D01*
X153029260Y-93125109D01*
X153346423Y-93599777D01*
X153821091Y-93916940D01*
X154239667Y-94000200D01*
X154276810Y-94000200D01*
X152528137Y-95748874D01*
X152507439Y-95740300D01*
X151936561Y-95740300D01*
X151409138Y-95958766D01*
X151005466Y-96362438D01*
X150787000Y-96889861D01*
X150787000Y-97460739D01*
X151005466Y-97988162D01*
X151409138Y-98391834D01*
X151936561Y-98610300D01*
X152507439Y-98610300D01*
X152676347Y-98540336D01*
X153337615Y-99201605D01*
X153029260Y-99663091D01*
X152917887Y-100223000D01*
X153029260Y-100782909D01*
X153346423Y-101257577D01*
X153730108Y-101513947D01*
X153525866Y-101610611D01*
X153149959Y-102025577D01*
X152989096Y-102413961D01*
X153111085Y-102636000D01*
X154254000Y-102636000D01*
X154254000Y-102616000D01*
X154508000Y-102616000D01*
X154508000Y-102636000D01*
X155650915Y-102636000D01*
X155772904Y-102413961D01*
X155612041Y-102025577D01*
X155236134Y-101610611D01*
X155031892Y-101513947D01*
X155415577Y-101257577D01*
X155732740Y-100782909D01*
X155844113Y-100223000D01*
X155732740Y-99663091D01*
X155415577Y-99188423D01*
X155316000Y-99121888D01*
X155316000Y-99014781D01*
X155334316Y-98922699D01*
X155316000Y-98830617D01*
X155316000Y-98830614D01*
X155261750Y-98557881D01*
X155240833Y-98526576D01*
X155476005Y-98429164D01*
X155550139Y-98183045D01*
X154722000Y-97354905D01*
X154707858Y-97369048D01*
X154528253Y-97189443D01*
X154542395Y-97175300D01*
X154901605Y-97175300D01*
X155729745Y-98003439D01*
X155975864Y-97929305D01*
X156168965Y-97392077D01*
X156141778Y-96821846D01*
X155975864Y-96421295D01*
X155729745Y-96347161D01*
X154901605Y-97175300D01*
X154542395Y-97175300D01*
X154528253Y-97161158D01*
X154707858Y-96981553D01*
X154722000Y-96995695D01*
X155550139Y-96167555D01*
X155476005Y-95921436D01*
X155125970Y-95795620D01*
X156277731Y-94643859D01*
X156355797Y-94591697D01*
X156562450Y-94282419D01*
X156616700Y-94009686D01*
X156635017Y-93917600D01*
X156616700Y-93825514D01*
X156616700Y-78717986D01*
X156635017Y-78625900D01*
X156594660Y-78423009D01*
X156562450Y-78261081D01*
X156355797Y-77951803D01*
X156277728Y-77899639D01*
X155820749Y-77442660D01*
X155844113Y-77325200D01*
X155732740Y-76765291D01*
X155415577Y-76290623D01*
X154940909Y-75973460D01*
X154522333Y-75890200D01*
X154239667Y-75890200D01*
X153821091Y-75973460D01*
X153346423Y-76290623D01*
X153029260Y-76765291D01*
X152917887Y-77325200D01*
X153029260Y-77885109D01*
X153346423Y-78359777D01*
X153698758Y-78595200D01*
X153346423Y-78830623D01*
X153029260Y-79305291D01*
X152917887Y-79865200D01*
X153029260Y-80425109D01*
X153346423Y-80899777D01*
X153698758Y-81135200D01*
X153346423Y-81370623D01*
X153029260Y-81845291D01*
X152917887Y-82405200D01*
X153029260Y-82965109D01*
X153253977Y-83301421D01*
X148449530Y-88105869D01*
X148386071Y-88148271D01*
X148218096Y-88399664D01*
X148174000Y-88621349D01*
X148174000Y-88621353D01*
X148159112Y-88696200D01*
X148174000Y-88771047D01*
X148174000Y-89773266D01*
X148112740Y-89465291D01*
X147795577Y-88990623D01*
X147516896Y-88804414D01*
X147499614Y-88717533D01*
X147795577Y-88519777D01*
X148112740Y-88045109D01*
X148224113Y-87485200D01*
X148112740Y-86925291D01*
X147795577Y-86450623D01*
X147443242Y-86215200D01*
X147795577Y-85979777D01*
X148112740Y-85505109D01*
X148224113Y-84945200D01*
X148112740Y-84385291D01*
X147795577Y-83910623D01*
X147516896Y-83724414D01*
X147499614Y-83637533D01*
X147795577Y-83439777D01*
X148112740Y-82965109D01*
X148224113Y-82405200D01*
X148112740Y-81845291D01*
X147795577Y-81370623D01*
X147443242Y-81135200D01*
X147795577Y-80899777D01*
X148112740Y-80425109D01*
X148224113Y-79865200D01*
X148112740Y-79305291D01*
X147795577Y-78830623D01*
X147674894Y-78749985D01*
X147808765Y-78723357D01*
X148018809Y-78583009D01*
X148159157Y-78372965D01*
X148208440Y-78125200D01*
X148208440Y-76525200D01*
X148159157Y-76277435D01*
X148018809Y-76067391D01*
X147808765Y-75927043D01*
X147561000Y-75877760D01*
X145961000Y-75877760D01*
X145713235Y-75927043D01*
X145503191Y-76067391D01*
X145362843Y-76277435D01*
X145313560Y-76525200D01*
X145313560Y-78125200D01*
X145362843Y-78372965D01*
X145410704Y-78444594D01*
X145151228Y-78704071D01*
X145087772Y-78746471D01*
X145045372Y-78809927D01*
X145045371Y-78809928D01*
X144919797Y-78997863D01*
X144860812Y-79294400D01*
X144875701Y-79369252D01*
X144875700Y-82816753D01*
X144860812Y-82891600D01*
X144875700Y-82966447D01*
X144875700Y-82966451D01*
X144919796Y-83188136D01*
X145087771Y-83439529D01*
X145151229Y-83481931D01*
X145667742Y-83998445D01*
X145409260Y-84385291D01*
X145297887Y-84945200D01*
X145409260Y-85505109D01*
X145726423Y-85979777D01*
X146078758Y-86215200D01*
X145729182Y-86448780D01*
X142417293Y-83136892D01*
X142557041Y-82982623D01*
X142717904Y-82594239D01*
X142595915Y-82372200D01*
X141453000Y-82372200D01*
X141453000Y-82392200D01*
X141199000Y-82392200D01*
X141199000Y-82372200D01*
X141179000Y-82372200D01*
X141179000Y-82118200D01*
X141199000Y-82118200D01*
X141199000Y-79832200D01*
X141453000Y-79832200D01*
X141453000Y-82118200D01*
X142595915Y-82118200D01*
X142717904Y-81896161D01*
X142557041Y-81507777D01*
X142181134Y-81092811D01*
X141932633Y-80975200D01*
X142181134Y-80857589D01*
X142557041Y-80442623D01*
X142717904Y-80054239D01*
X142595915Y-79832200D01*
X141453000Y-79832200D01*
X141199000Y-79832200D01*
X140056085Y-79832200D01*
X139934096Y-80054239D01*
X140094959Y-80442623D01*
X140470866Y-80857589D01*
X140719367Y-80975200D01*
X140470866Y-81092811D01*
X140094959Y-81507777D01*
X140074141Y-81558039D01*
X136586700Y-78070599D01*
X136586700Y-74921745D01*
X138530861Y-74921745D01*
X138604995Y-75167864D01*
X139142223Y-75360965D01*
X139712454Y-75333778D01*
X140113005Y-75167864D01*
X140187139Y-74921745D01*
X139359000Y-74093605D01*
X138530861Y-74921745D01*
X136586700Y-74921745D01*
X136586700Y-73697223D01*
X137912035Y-73697223D01*
X137939222Y-74267454D01*
X138105136Y-74668005D01*
X138351255Y-74742139D01*
X139179395Y-73914000D01*
X139538605Y-73914000D01*
X140366745Y-74742139D01*
X140612864Y-74668005D01*
X140615290Y-74661254D01*
X140642466Y-74726862D01*
X140892108Y-74976504D01*
X140729970Y-75138641D01*
X140651904Y-75190803D01*
X140599742Y-75268869D01*
X140599741Y-75268870D01*
X140445250Y-75500082D01*
X140372683Y-75864900D01*
X140391001Y-75956990D01*
X140391001Y-76064087D01*
X140291423Y-76130623D01*
X139974260Y-76605291D01*
X139862887Y-77165200D01*
X139974260Y-77725109D01*
X140291423Y-78199777D01*
X140675108Y-78456147D01*
X140470866Y-78552811D01*
X140094959Y-78967777D01*
X139934096Y-79356161D01*
X140056085Y-79578200D01*
X141199000Y-79578200D01*
X141199000Y-79558200D01*
X141453000Y-79558200D01*
X141453000Y-79578200D01*
X142595915Y-79578200D01*
X142717904Y-79356161D01*
X142557041Y-78967777D01*
X142181134Y-78552811D01*
X141976892Y-78456147D01*
X142360577Y-78199777D01*
X142677740Y-77725109D01*
X142789113Y-77165200D01*
X142677740Y-76605291D01*
X142369385Y-76143804D01*
X142455028Y-76058161D01*
X142533097Y-76005997D01*
X142739750Y-75696719D01*
X142794000Y-75423986D01*
X142794000Y-75423985D01*
X142812317Y-75331900D01*
X142794000Y-75239814D01*
X142794000Y-75196045D01*
X151560861Y-75196045D01*
X151634995Y-75442164D01*
X152172223Y-75635265D01*
X152742454Y-75608078D01*
X153143005Y-75442164D01*
X153217139Y-75196045D01*
X152389000Y-74367905D01*
X151560861Y-75196045D01*
X142794000Y-75196045D01*
X142794000Y-75008396D01*
X143075534Y-74726862D01*
X143294000Y-74199439D01*
X143294000Y-73812700D01*
X150999122Y-73812700D01*
X150942035Y-73971523D01*
X150969222Y-74541754D01*
X151135136Y-74942305D01*
X151381255Y-75016439D01*
X152209395Y-74188300D01*
X152195253Y-74174158D01*
X152374858Y-73994553D01*
X152389000Y-74008695D01*
X152403143Y-73994553D01*
X152582748Y-74174158D01*
X152568605Y-74188300D01*
X153396745Y-75016439D01*
X153642864Y-74942305D01*
X153645290Y-74935554D01*
X153672466Y-75001162D01*
X154076138Y-75404834D01*
X154603561Y-75623300D01*
X155174439Y-75623300D01*
X155701862Y-75404834D01*
X156105534Y-75001162D01*
X156324000Y-74473739D01*
X156324000Y-73902861D01*
X156105534Y-73375438D01*
X155701862Y-72971766D01*
X155174439Y-72753300D01*
X154776289Y-72753300D01*
X154304661Y-72281672D01*
X154252497Y-72203603D01*
X153943219Y-71996950D01*
X153670486Y-71942700D01*
X153578400Y-71924383D01*
X153486314Y-71942700D01*
X142987386Y-71942700D01*
X142895300Y-71924383D01*
X142803214Y-71942700D01*
X142530481Y-71996950D01*
X142221203Y-72203603D01*
X142169039Y-72281672D01*
X141971711Y-72479000D01*
X141573561Y-72479000D01*
X141046138Y-72697466D01*
X140642466Y-73101138D01*
X140615475Y-73166299D01*
X140612864Y-73159995D01*
X140366745Y-73085861D01*
X139538605Y-73914000D01*
X139179395Y-73914000D01*
X138351255Y-73085861D01*
X138105136Y-73159995D01*
X137912035Y-73697223D01*
X136586700Y-73697223D01*
X136586700Y-72906255D01*
X138530861Y-72906255D01*
X139359000Y-73734395D01*
X140187139Y-72906255D01*
X140113005Y-72660136D01*
X139575777Y-72467035D01*
X139005546Y-72494222D01*
X138604995Y-72660136D01*
X138530861Y-72906255D01*
X136586700Y-72906255D01*
X136586700Y-71250056D01*
X137013744Y-71335000D01*
X137306256Y-71335000D01*
X137739418Y-71248839D01*
X138230625Y-70920625D01*
X138430000Y-70622239D01*
X138629375Y-70920625D01*
X139120582Y-71248839D01*
X139553744Y-71335000D01*
X139846256Y-71335000D01*
X140279418Y-71248839D01*
X140770625Y-70920625D01*
X141098839Y-70429418D01*
X141214092Y-69850000D01*
X141098839Y-69270582D01*
X140770625Y-68779375D01*
X140472239Y-68580000D01*
X140770625Y-68380625D01*
X141098839Y-67889418D01*
X141214092Y-67310000D01*
X141098839Y-66730582D01*
X140770625Y-66239375D01*
X140279418Y-65911161D01*
X139846256Y-65825000D01*
X139553744Y-65825000D01*
X139120582Y-65911161D01*
X138629375Y-66239375D01*
X138430000Y-66537761D01*
X138230625Y-66239375D01*
X137739418Y-65911161D01*
X137306256Y-65825000D01*
X137013744Y-65825000D01*
X136580582Y-65911161D01*
X136234564Y-66142363D01*
X135265031Y-65172830D01*
X135222629Y-65109371D01*
X134971237Y-64941396D01*
X134749552Y-64897300D01*
X134749547Y-64897300D01*
X134674700Y-64882412D01*
X134599853Y-64897300D01*
X116835546Y-64897300D01*
X116760699Y-64882412D01*
X116685852Y-64897300D01*
X116685848Y-64897300D01*
X116464163Y-64941396D01*
X116212771Y-65109371D01*
X116170371Y-65172827D01*
X115210689Y-66132509D01*
X114879418Y-65911161D01*
X114446256Y-65825000D01*
X114153744Y-65825000D01*
X113720582Y-65911161D01*
X113358799Y-66152897D01*
X112824231Y-65618329D01*
X112781829Y-65554871D01*
X112530437Y-65386896D01*
X112308752Y-65342800D01*
X112308747Y-65342800D01*
X112233900Y-65327912D01*
X112159053Y-65342800D01*
X98679548Y-65342800D01*
X98604700Y-65327912D01*
X98529852Y-65342800D01*
X98529848Y-65342800D01*
X98308163Y-65386896D01*
X98056771Y-65554871D01*
X98014371Y-65618327D01*
X97472351Y-66160347D01*
X97099418Y-65911161D01*
X96666256Y-65825000D01*
X96373744Y-65825000D01*
X95940582Y-65911161D01*
X95449375Y-66239375D01*
X95237526Y-66556429D01*
X95235394Y-66556853D01*
X95175183Y-66428642D01*
X94746924Y-66038355D01*
X94336890Y-65868524D01*
X94107000Y-65989845D01*
X94107000Y-67183000D01*
X94127000Y-67183000D01*
X94127000Y-67437000D01*
X94107000Y-67437000D01*
X94107000Y-67457000D01*
X93853000Y-67457000D01*
X93853000Y-67437000D01*
X91567000Y-67437000D01*
X91567000Y-67457000D01*
X91313000Y-67457000D01*
X91313000Y-67437000D01*
X90119181Y-67437000D01*
X89998514Y-67666892D01*
X90244817Y-68191358D01*
X90451855Y-68380039D01*
X90342235Y-68401843D01*
X90132191Y-68542191D01*
X89991843Y-68752235D01*
X89942560Y-69000000D01*
X89942560Y-70700000D01*
X89991843Y-70947765D01*
X90132191Y-71157809D01*
X90342235Y-71298157D01*
X90590000Y-71347440D01*
X91950000Y-71347440D01*
X91950000Y-71365198D01*
X91735427Y-71579771D01*
X91671972Y-71622171D01*
X91629572Y-71685627D01*
X91629571Y-71685628D01*
X91503997Y-71873563D01*
X91445012Y-72170100D01*
X91459901Y-72244952D01*
X91459901Y-73148224D01*
X91392841Y-73116486D01*
X91170800Y-73237771D01*
X91170800Y-74381400D01*
X91190800Y-74381400D01*
X91190800Y-74635400D01*
X91170800Y-74635400D01*
X91170800Y-75779029D01*
X91392841Y-75900314D01*
X91459901Y-75868576D01*
X91459901Y-76720781D01*
X91443641Y-76713086D01*
X91221600Y-76834371D01*
X91221600Y-77978000D01*
X91241600Y-77978000D01*
X91241600Y-78232000D01*
X91221600Y-78232000D01*
X91221600Y-79375629D01*
X91443641Y-79496914D01*
X91459901Y-79489219D01*
X91459900Y-80513080D01*
X91380039Y-80480000D01*
X90809161Y-80480000D01*
X90281738Y-80698466D01*
X89878066Y-81102138D01*
X89659600Y-81629561D01*
X89659600Y-82200439D01*
X89878066Y-82727862D01*
X90281738Y-83131534D01*
X90334601Y-83153430D01*
X90334600Y-84486570D01*
X90281738Y-84508466D01*
X89878066Y-84912138D01*
X89659600Y-85439561D01*
X89659600Y-86010439D01*
X89878066Y-86537862D01*
X90281738Y-86941534D01*
X90809161Y-87160000D01*
X91269498Y-87160000D01*
X90610128Y-87819371D01*
X90546672Y-87861771D01*
X90504272Y-87925227D01*
X90504271Y-87925228D01*
X90378697Y-88113163D01*
X90338706Y-88314213D01*
X90060023Y-88500423D01*
X89742860Y-88975091D01*
X89631487Y-89535000D01*
X89742860Y-90094909D01*
X90060023Y-90569577D01*
X90334601Y-90753044D01*
X90334600Y-92006687D01*
X89987927Y-92238327D01*
X89648662Y-92746073D01*
X89529528Y-93345000D01*
X89648662Y-93943927D01*
X89802795Y-94174603D01*
X86740130Y-97237269D01*
X86676671Y-97279671D01*
X86586650Y-97414398D01*
X86523822Y-97351570D01*
X86408129Y-97467263D01*
X86358617Y-97241836D01*
X85893964Y-97082193D01*
X85403587Y-97112518D01*
X85091383Y-97241836D01*
X85041870Y-97467265D01*
X85725000Y-98150395D01*
X85739143Y-98136253D01*
X85918748Y-98315858D01*
X85904605Y-98330000D01*
X85918748Y-98344143D01*
X85739143Y-98523748D01*
X85725000Y-98509605D01*
X85710858Y-98523748D01*
X85531253Y-98344143D01*
X85545395Y-98330000D01*
X84862265Y-97646870D01*
X84636836Y-97696383D01*
X84477193Y-98161036D01*
X81869600Y-98161036D01*
X81869600Y-97760785D01*
X81887917Y-97668700D01*
X81869600Y-97576614D01*
X81869600Y-94885478D01*
X82082365Y-94843157D01*
X82292409Y-94702809D01*
X82432757Y-94492765D01*
X82482040Y-94245000D01*
X82482040Y-92445000D01*
X82432757Y-92197235D01*
X82292409Y-91987191D01*
X82082365Y-91846843D01*
X81869600Y-91804522D01*
X81869600Y-90629396D01*
X82151134Y-90347862D01*
X82369600Y-89820439D01*
X82369600Y-89249561D01*
X82151134Y-88722138D01*
X81747462Y-88318466D01*
X81220039Y-88100000D01*
X80649161Y-88100000D01*
X80121738Y-88318466D01*
X79937097Y-88503107D01*
X76168896Y-84734907D01*
X76209840Y-84717947D01*
X76599447Y-84328340D01*
X76609612Y-84303800D01*
X77313299Y-84303800D01*
X79218971Y-86209473D01*
X79261371Y-86272929D01*
X79512763Y-86440904D01*
X79713814Y-86480896D01*
X79900023Y-86759577D01*
X80374691Y-87076740D01*
X80793267Y-87160000D01*
X81075933Y-87160000D01*
X81494509Y-87076740D01*
X81969177Y-86759577D01*
X82286340Y-86284909D01*
X82397713Y-85725000D01*
X82286340Y-85165091D01*
X81969177Y-84690423D01*
X81494509Y-84373260D01*
X81075933Y-84290000D01*
X80793267Y-84290000D01*
X80374691Y-84373260D01*
X79900023Y-84690423D01*
X79879796Y-84720694D01*
X78218431Y-83059330D01*
X78176029Y-82995871D01*
X77924637Y-82827896D01*
X77702952Y-82783800D01*
X77702947Y-82783800D01*
X77628100Y-82768912D01*
X77553253Y-82783800D01*
X76609612Y-82783800D01*
X76599447Y-82759260D01*
X76209840Y-82369653D01*
X75700794Y-82158800D01*
X75149806Y-82158800D01*
X74640760Y-82369653D01*
X74531500Y-82478913D01*
X74531500Y-81915000D01*
X79471487Y-81915000D01*
X79582860Y-82474909D01*
X79900023Y-82949577D01*
X80374691Y-83266740D01*
X80793267Y-83350000D01*
X81075933Y-83350000D01*
X81494509Y-83266740D01*
X81969177Y-82949577D01*
X82286340Y-82474909D01*
X82397713Y-81915000D01*
X82286340Y-81355091D01*
X81969177Y-80880423D01*
X81494509Y-80563260D01*
X81075933Y-80480000D01*
X80793267Y-80480000D01*
X80374691Y-80563260D01*
X79900023Y-80880423D01*
X79582860Y-81355091D01*
X79471487Y-81915000D01*
X74531500Y-81915000D01*
X74531500Y-79728687D01*
X74640760Y-79837947D01*
X75149806Y-80048800D01*
X75700794Y-80048800D01*
X76209840Y-79837947D01*
X76599447Y-79448340D01*
X76810300Y-78939294D01*
X76810300Y-78388306D01*
X76599447Y-77879260D01*
X76539748Y-77819561D01*
X79499600Y-77819561D01*
X79499600Y-78390439D01*
X79718066Y-78917862D01*
X80121738Y-79321534D01*
X80649161Y-79540000D01*
X81220039Y-79540000D01*
X81747462Y-79321534D01*
X82151134Y-78917862D01*
X82343255Y-78454039D01*
X89702696Y-78454039D01*
X89863559Y-78842423D01*
X90239466Y-79257389D01*
X90745559Y-79496914D01*
X90967600Y-79375629D01*
X90967600Y-78232000D01*
X89824685Y-78232000D01*
X89702696Y-78454039D01*
X82343255Y-78454039D01*
X82369600Y-78390439D01*
X82369600Y-77819561D01*
X82343256Y-77755961D01*
X89702696Y-77755961D01*
X89824685Y-77978000D01*
X90967600Y-77978000D01*
X90967600Y-76834371D01*
X90745559Y-76713086D01*
X90239466Y-76952611D01*
X89863559Y-77367577D01*
X89702696Y-77755961D01*
X82343256Y-77755961D01*
X82151134Y-77292138D01*
X81747462Y-76888466D01*
X81220039Y-76670000D01*
X80649161Y-76670000D01*
X80121738Y-76888466D01*
X79718066Y-77292138D01*
X79499600Y-77819561D01*
X76539748Y-77819561D01*
X76209840Y-77489653D01*
X75700794Y-77278800D01*
X75149806Y-77278800D01*
X74640760Y-77489653D01*
X74531500Y-77598913D01*
X74531500Y-74222961D01*
X79448800Y-74222961D01*
X79448800Y-74793839D01*
X79667266Y-75321262D01*
X80070938Y-75724934D01*
X80598361Y-75943400D01*
X81169239Y-75943400D01*
X81696662Y-75724934D01*
X82100334Y-75321262D01*
X82292455Y-74857439D01*
X89651896Y-74857439D01*
X89812759Y-75245823D01*
X90188666Y-75660789D01*
X90694759Y-75900314D01*
X90916800Y-75779029D01*
X90916800Y-74635400D01*
X89773885Y-74635400D01*
X89651896Y-74857439D01*
X82292455Y-74857439D01*
X82318800Y-74793839D01*
X82318800Y-74222961D01*
X82292456Y-74159361D01*
X89651896Y-74159361D01*
X89773885Y-74381400D01*
X90916800Y-74381400D01*
X90916800Y-73237771D01*
X90694759Y-73116486D01*
X90188666Y-73356011D01*
X89812759Y-73770977D01*
X89651896Y-74159361D01*
X82292456Y-74159361D01*
X82100334Y-73695538D01*
X81696662Y-73291866D01*
X81169239Y-73073400D01*
X80598361Y-73073400D01*
X80070938Y-73291866D01*
X79667266Y-73695538D01*
X79448800Y-74222961D01*
X74531500Y-74222961D01*
X74531500Y-72635217D01*
X74897810Y-72268907D01*
X75131500Y-71704730D01*
X75131500Y-71094070D01*
X74897810Y-70529893D01*
X74466007Y-70098090D01*
X73901830Y-69864400D01*
X73291170Y-69864400D01*
X72726993Y-70098090D01*
X72557775Y-70267308D01*
X72554657Y-70251635D01*
X72414309Y-70041591D01*
X72204265Y-69901243D01*
X71956500Y-69851960D01*
X70156500Y-69851960D01*
X69908735Y-69901243D01*
X69698691Y-70041591D01*
X69558343Y-70251635D01*
X69509060Y-70499400D01*
X69509060Y-72299400D01*
X69558343Y-72547165D01*
X69698691Y-72757209D01*
X69908735Y-72897557D01*
X70156500Y-72946840D01*
X71956500Y-72946840D01*
X72204265Y-72897557D01*
X72414309Y-72757209D01*
X72554657Y-72547165D01*
X72557775Y-72531492D01*
X72661501Y-72635218D01*
X72661500Y-83392714D01*
X72643183Y-83484800D01*
X72671111Y-83625204D01*
X72715750Y-83849618D01*
X72922403Y-84158897D01*
X73000472Y-84211061D01*
X78920441Y-90131031D01*
X78972603Y-90209097D01*
X79050669Y-90261259D01*
X79281881Y-90415750D01*
X79646700Y-90488317D01*
X79738786Y-90470000D01*
X79840204Y-90470000D01*
X79999600Y-90629396D01*
X79999601Y-91804522D01*
X79786835Y-91846843D01*
X79576791Y-91987191D01*
X79436443Y-92197235D01*
X79387160Y-92445000D01*
X79387160Y-94245000D01*
X79436443Y-94492765D01*
X79576791Y-94702809D01*
X79786835Y-94843157D01*
X79999601Y-94885478D01*
X79999600Y-96733700D01*
X74508381Y-96733700D01*
X74416299Y-96715384D01*
X74324217Y-96733700D01*
X74324214Y-96733700D01*
X74051481Y-96787950D01*
X73742203Y-96994603D01*
X73690041Y-97072669D01*
X73184980Y-97577730D01*
X73171256Y-97575000D01*
X72878744Y-97575000D01*
X72445582Y-97661161D01*
X71954375Y-97989375D01*
X71942184Y-98007619D01*
X71933157Y-97962235D01*
X71792809Y-97752191D01*
X71582765Y-97611843D01*
X71335000Y-97562560D01*
X69635000Y-97562560D01*
X69387235Y-97611843D01*
X69177191Y-97752191D01*
X69036843Y-97962235D01*
X68987560Y-98210000D01*
X65480000Y-98210000D01*
X65480000Y-94344778D01*
X68215000Y-94344778D01*
X68215000Y-94995222D01*
X68463914Y-95596153D01*
X68923847Y-96056086D01*
X69524778Y-96305000D01*
X70175222Y-96305000D01*
X70776153Y-96056086D01*
X71236086Y-95596153D01*
X71485000Y-94995222D01*
X71485000Y-94344778D01*
X74715000Y-94344778D01*
X74715000Y-94995222D01*
X74963914Y-95596153D01*
X75423847Y-96056086D01*
X76024778Y-96305000D01*
X76675222Y-96305000D01*
X77276153Y-96056086D01*
X77736086Y-95596153D01*
X77985000Y-94995222D01*
X77985000Y-94344778D01*
X77736086Y-93743847D01*
X77276153Y-93283914D01*
X76675222Y-93035000D01*
X76024778Y-93035000D01*
X75423847Y-93283914D01*
X74963914Y-93743847D01*
X74715000Y-94344778D01*
X71485000Y-94344778D01*
X71236086Y-93743847D01*
X70776153Y-93283914D01*
X70175222Y-93035000D01*
X69524778Y-93035000D01*
X68923847Y-93283914D01*
X68463914Y-93743847D01*
X68215000Y-94344778D01*
X65480000Y-94344778D01*
X65480000Y-91322532D01*
X68877073Y-91322532D01*
X68975736Y-91589387D01*
X69585461Y-91815908D01*
X70235460Y-91791856D01*
X70724264Y-91589387D01*
X70822927Y-91322532D01*
X75377073Y-91322532D01*
X75475736Y-91589387D01*
X76085461Y-91815908D01*
X76735460Y-91791856D01*
X77224264Y-91589387D01*
X77322927Y-91322532D01*
X76350000Y-90349605D01*
X75377073Y-91322532D01*
X70822927Y-91322532D01*
X69850000Y-90349605D01*
X68877073Y-91322532D01*
X65480000Y-91322532D01*
X65480000Y-89905461D01*
X68204092Y-89905461D01*
X68228144Y-90555460D01*
X68430613Y-91044264D01*
X68697468Y-91142927D01*
X69670395Y-90170000D01*
X70029605Y-90170000D01*
X71002532Y-91142927D01*
X71269387Y-91044264D01*
X71495908Y-90434539D01*
X71476331Y-89905461D01*
X74704092Y-89905461D01*
X74728144Y-90555460D01*
X74930613Y-91044264D01*
X75197468Y-91142927D01*
X76170395Y-90170000D01*
X76529605Y-90170000D01*
X77502532Y-91142927D01*
X77769387Y-91044264D01*
X77995908Y-90434539D01*
X77971856Y-89784540D01*
X77769387Y-89295736D01*
X77502532Y-89197073D01*
X76529605Y-90170000D01*
X76170395Y-90170000D01*
X75197468Y-89197073D01*
X74930613Y-89295736D01*
X74704092Y-89905461D01*
X71476331Y-89905461D01*
X71471856Y-89784540D01*
X71269387Y-89295736D01*
X71002532Y-89197073D01*
X70029605Y-90170000D01*
X69670395Y-90170000D01*
X68697468Y-89197073D01*
X68430613Y-89295736D01*
X68204092Y-89905461D01*
X65480000Y-89905461D01*
X65480000Y-89017468D01*
X68877073Y-89017468D01*
X69850000Y-89990395D01*
X70822927Y-89017468D01*
X75377073Y-89017468D01*
X76350000Y-89990395D01*
X77322927Y-89017468D01*
X77224264Y-88750613D01*
X76614539Y-88524092D01*
X75964540Y-88548144D01*
X75475736Y-88750613D01*
X75377073Y-89017468D01*
X70822927Y-89017468D01*
X70724264Y-88750613D01*
X70114539Y-88524092D01*
X69464540Y-88548144D01*
X68975736Y-88750613D01*
X68877073Y-89017468D01*
X65480000Y-89017468D01*
X65480000Y-85363361D01*
X67919700Y-85363361D01*
X67919700Y-85934239D01*
X68138166Y-86461662D01*
X68541838Y-86865334D01*
X69069261Y-87083800D01*
X69640139Y-87083800D01*
X70167562Y-86865334D01*
X70571234Y-86461662D01*
X70789700Y-85934239D01*
X70789700Y-85363361D01*
X70571234Y-84835938D01*
X70167562Y-84432266D01*
X70102401Y-84405275D01*
X70108705Y-84402664D01*
X70182839Y-84156545D01*
X69354700Y-83328405D01*
X68526561Y-84156545D01*
X68600695Y-84402664D01*
X68607446Y-84405090D01*
X68541838Y-84432266D01*
X68138166Y-84835938D01*
X67919700Y-85363361D01*
X65480000Y-85363361D01*
X65480000Y-82932023D01*
X67907735Y-82932023D01*
X67934922Y-83502254D01*
X68100836Y-83902805D01*
X68346955Y-83976939D01*
X69175095Y-83148800D01*
X69534305Y-83148800D01*
X70362445Y-83976939D01*
X70608564Y-83902805D01*
X70801665Y-83365577D01*
X70774478Y-82795346D01*
X70608564Y-82394795D01*
X70362445Y-82320661D01*
X69534305Y-83148800D01*
X69175095Y-83148800D01*
X68346955Y-82320661D01*
X68100836Y-82394795D01*
X67907735Y-82932023D01*
X65480000Y-82932023D01*
X65480000Y-82141055D01*
X68526561Y-82141055D01*
X69354700Y-82969195D01*
X70182839Y-82141055D01*
X70108705Y-81894936D01*
X69571477Y-81701835D01*
X69001246Y-81729022D01*
X68600695Y-81894936D01*
X68526561Y-82141055D01*
X65480000Y-82141055D01*
X65480000Y-80253845D01*
X68526561Y-80253845D01*
X68600695Y-80499964D01*
X69137923Y-80693065D01*
X69708154Y-80665878D01*
X70108705Y-80499964D01*
X70182839Y-80253845D01*
X69354700Y-79425705D01*
X68526561Y-80253845D01*
X65480000Y-80253845D01*
X65480000Y-79029323D01*
X67907735Y-79029323D01*
X67934922Y-79599554D01*
X68100836Y-80000105D01*
X68346955Y-80074239D01*
X69175095Y-79246100D01*
X69534305Y-79246100D01*
X70362445Y-80074239D01*
X70608564Y-80000105D01*
X70801665Y-79462877D01*
X70774478Y-78892646D01*
X70608564Y-78492095D01*
X70362445Y-78417961D01*
X69534305Y-79246100D01*
X69175095Y-79246100D01*
X68346955Y-78417961D01*
X68100836Y-78492095D01*
X67907735Y-79029323D01*
X65480000Y-79029323D01*
X65480000Y-76460661D01*
X67919700Y-76460661D01*
X67919700Y-77031539D01*
X68138166Y-77558962D01*
X68541838Y-77962634D01*
X68606999Y-77989625D01*
X68600695Y-77992236D01*
X68526561Y-78238355D01*
X69354700Y-79066495D01*
X70182839Y-78238355D01*
X70108705Y-77992236D01*
X70101954Y-77989810D01*
X70167562Y-77962634D01*
X70571234Y-77558962D01*
X70789700Y-77031539D01*
X70789700Y-76460661D01*
X70571234Y-75933238D01*
X70167562Y-75529566D01*
X69640139Y-75311100D01*
X69069261Y-75311100D01*
X68541838Y-75529566D01*
X68138166Y-75933238D01*
X67919700Y-76460661D01*
X65480000Y-76460661D01*
X65480000Y-66953108D01*
X89998514Y-66953108D01*
X90119181Y-67183000D01*
X91313000Y-67183000D01*
X91313000Y-65989845D01*
X91567000Y-65989845D01*
X91567000Y-67183000D01*
X93853000Y-67183000D01*
X93853000Y-65989845D01*
X93623110Y-65868524D01*
X93213076Y-66038355D01*
X92784817Y-66428642D01*
X92710000Y-66587954D01*
X92635183Y-66428642D01*
X92206924Y-66038355D01*
X91796890Y-65868524D01*
X91567000Y-65989845D01*
X91313000Y-65989845D01*
X91083110Y-65868524D01*
X90673076Y-66038355D01*
X90244817Y-66428642D01*
X89998514Y-66953108D01*
X65480000Y-66953108D01*
X65480000Y-61255431D01*
X67540000Y-61255431D01*
X67540000Y-62144569D01*
X67880259Y-62966026D01*
X68508974Y-63594741D01*
X69330431Y-63935000D01*
X70219569Y-63935000D01*
X71041026Y-63594741D01*
X71669741Y-62966026D01*
X72010000Y-62144569D01*
X72010000Y-61255431D01*
X156590000Y-61255431D01*
X156590000Y-62144569D01*
X156930259Y-62966026D01*
X157558974Y-63594741D01*
X158380431Y-63935000D01*
X159269569Y-63935000D01*
X160091026Y-63594741D01*
X160719741Y-62966026D01*
X161060000Y-62144569D01*
X161060000Y-61255431D01*
X160719741Y-60433974D01*
X160091026Y-59805259D01*
X159269569Y-59465000D01*
X158380431Y-59465000D01*
X157558974Y-59805259D01*
X156930259Y-60433974D01*
X156590000Y-61255431D01*
X72010000Y-61255431D01*
X71669741Y-60433974D01*
X71041026Y-59805259D01*
X70219569Y-59465000D01*
X69330431Y-59465000D01*
X68508974Y-59805259D01*
X67880259Y-60433974D01*
X67540000Y-61255431D01*
X65480000Y-61255431D01*
X65480000Y-57877000D01*
X163120000Y-57877000D01*
X163120001Y-131370000D01*
G36*
X137035000Y-126822560D02*
X136995000Y-126822560D01*
X136747235Y-126871843D01*
X136537191Y-127012191D01*
X136396843Y-127222235D01*
X136347560Y-127470000D01*
X136347560Y-128640700D01*
X110374302Y-128640700D01*
X108317002Y-126583400D01*
X136212053Y-126583400D01*
X136286900Y-126598288D01*
X136361747Y-126583400D01*
X136361752Y-126583400D01*
X136583437Y-126539304D01*
X136834829Y-126371329D01*
X136877231Y-126307870D01*
X137035001Y-126150100D01*
X137035000Y-126822560D01*
X137035000Y-126822560D01*
G37*
X137035000Y-126822560D02*
X136995000Y-126822560D01*
X136747235Y-126871843D01*
X136537191Y-127012191D01*
X136396843Y-127222235D01*
X136347560Y-127470000D01*
X136347560Y-128640700D01*
X110374302Y-128640700D01*
X108317002Y-126583400D01*
X136212053Y-126583400D01*
X136286900Y-126598288D01*
X136361747Y-126583400D01*
X136361752Y-126583400D01*
X136583437Y-126539304D01*
X136834829Y-126371329D01*
X136877231Y-126307870D01*
X137035001Y-126150100D01*
X137035000Y-126822560D01*
G36*
X136667200Y-122343802D02*
X136667200Y-122509874D01*
X136824769Y-122890280D01*
X137115920Y-123181431D01*
X137496326Y-123339000D01*
X137696499Y-123339000D01*
X135972099Y-125063400D01*
X130916588Y-125063400D01*
X131046797Y-124976397D01*
X131098961Y-124898328D01*
X132434544Y-123562745D01*
X133791861Y-123562745D01*
X133865995Y-123808864D01*
X134403223Y-124001965D01*
X134973454Y-123974778D01*
X135374005Y-123808864D01*
X135448139Y-123562745D01*
X134620000Y-122734605D01*
X133791861Y-123562745D01*
X132434544Y-123562745D01*
X133195153Y-122802136D01*
X133200222Y-122908454D01*
X133366136Y-123309005D01*
X133612255Y-123383139D01*
X134440395Y-122555000D01*
X134799605Y-122555000D01*
X135627745Y-123383139D01*
X135873864Y-123309005D01*
X136066965Y-122771777D01*
X136039778Y-122201546D01*
X135873864Y-121800995D01*
X135627745Y-121726861D01*
X134799605Y-122555000D01*
X134440395Y-122555000D01*
X134426252Y-122540858D01*
X134605858Y-122361252D01*
X134620000Y-122375395D01*
X135448139Y-121547255D01*
X135374005Y-121301136D01*
X135367254Y-121298710D01*
X135432862Y-121271534D01*
X135513897Y-121190499D01*
X136667200Y-122343802D01*
X136667200Y-122343802D01*
G37*
X136667200Y-122343802D02*
X136667200Y-122509874D01*
X136824769Y-122890280D01*
X137115920Y-123181431D01*
X137496326Y-123339000D01*
X137696499Y-123339000D01*
X135972099Y-125063400D01*
X130916588Y-125063400D01*
X131046797Y-124976397D01*
X131098961Y-124898328D01*
X132434544Y-123562745D01*
X133791861Y-123562745D01*
X133865995Y-123808864D01*
X134403223Y-124001965D01*
X134973454Y-123974778D01*
X135374005Y-123808864D01*
X135448139Y-123562745D01*
X134620000Y-122734605D01*
X133791861Y-123562745D01*
X132434544Y-123562745D01*
X133195153Y-122802136D01*
X133200222Y-122908454D01*
X133366136Y-123309005D01*
X133612255Y-123383139D01*
X134440395Y-122555000D01*
X134799605Y-122555000D01*
X135627745Y-123383139D01*
X135873864Y-123309005D01*
X136066965Y-122771777D01*
X136039778Y-122201546D01*
X135873864Y-121800995D01*
X135627745Y-121726861D01*
X134799605Y-122555000D01*
X134440395Y-122555000D01*
X134426252Y-122540858D01*
X134605858Y-122361252D01*
X134620000Y-122375395D01*
X135448139Y-121547255D01*
X135374005Y-121301136D01*
X135367254Y-121298710D01*
X135432862Y-121271534D01*
X135513897Y-121190499D01*
X136667200Y-122343802D01*
G36*
X106234371Y-106529473D02*
X106276771Y-106592929D01*
X106528163Y-106760904D01*
X106729214Y-106800896D01*
X106915423Y-107079577D01*
X107267758Y-107315000D01*
X106915423Y-107550423D01*
X106598260Y-108025091D01*
X106486887Y-108585000D01*
X106598260Y-109144909D01*
X106915423Y-109619577D01*
X107194104Y-109805786D01*
X107211386Y-109892667D01*
X106915423Y-110090423D01*
X106598260Y-110565091D01*
X106486887Y-111125000D01*
X106598260Y-111684909D01*
X106915423Y-112159577D01*
X107267758Y-112395000D01*
X106915423Y-112630423D01*
X106598260Y-113105091D01*
X106486887Y-113665000D01*
X106598260Y-114224909D01*
X106915423Y-114699577D01*
X107267758Y-114935000D01*
X106915423Y-115170423D01*
X106598260Y-115645091D01*
X106486887Y-116205000D01*
X106598260Y-116764909D01*
X106915423Y-117239577D01*
X107267758Y-117475000D01*
X106915423Y-117710423D01*
X106598260Y-118185091D01*
X106486887Y-118745000D01*
X106598260Y-119304909D01*
X106915423Y-119779577D01*
X107267758Y-120015000D01*
X106915423Y-120250423D01*
X106598260Y-120725091D01*
X106486887Y-121285000D01*
X106598260Y-121844909D01*
X106915423Y-122319577D01*
X107267758Y-122555000D01*
X106915423Y-122790423D01*
X106598260Y-123265091D01*
X106486887Y-123825000D01*
X106559239Y-124188737D01*
X102682400Y-120311899D01*
X102682400Y-119957430D01*
X102906467Y-120002000D01*
X103189133Y-120002000D01*
X103607709Y-119918740D01*
X104082377Y-119601577D01*
X104399540Y-119126909D01*
X104510913Y-118567000D01*
X104399540Y-118007091D01*
X104082377Y-117532423D01*
X103698692Y-117276053D01*
X103902934Y-117179389D01*
X104278841Y-116764423D01*
X104439704Y-116376039D01*
X104317715Y-116154000D01*
X103174800Y-116154000D01*
X103174800Y-116174000D01*
X102920800Y-116174000D01*
X102920800Y-116154000D01*
X102900800Y-116154000D01*
X102900800Y-115900000D01*
X102920800Y-115900000D01*
X102920800Y-115880000D01*
X103174800Y-115880000D01*
X103174800Y-115900000D01*
X104317715Y-115900000D01*
X104439704Y-115677961D01*
X104278841Y-115289577D01*
X103902934Y-114874611D01*
X103698692Y-114777947D01*
X104082377Y-114521577D01*
X104399540Y-114046909D01*
X104510913Y-113487000D01*
X104399540Y-112927091D01*
X104082377Y-112452423D01*
X103698692Y-112196053D01*
X103902934Y-112099389D01*
X104278841Y-111684423D01*
X104439704Y-111296039D01*
X104317715Y-111074000D01*
X103174800Y-111074000D01*
X103174800Y-111094000D01*
X102920800Y-111094000D01*
X102920800Y-111074000D01*
X102900800Y-111074000D01*
X102900800Y-110820000D01*
X102920800Y-110820000D01*
X102920800Y-110800000D01*
X103174800Y-110800000D01*
X103174800Y-110820000D01*
X104317715Y-110820000D01*
X104439704Y-110597961D01*
X104278841Y-110209577D01*
X103902934Y-109794611D01*
X103698692Y-109697947D01*
X104082377Y-109441577D01*
X104399540Y-108966909D01*
X104510913Y-108407000D01*
X104399540Y-107847091D01*
X104082377Y-107372423D01*
X103698692Y-107116053D01*
X103902934Y-107019389D01*
X104278841Y-106604423D01*
X104439704Y-106216039D01*
X104317715Y-105994000D01*
X103174800Y-105994000D01*
X103174800Y-106014000D01*
X102920800Y-106014000D01*
X102920800Y-105994000D01*
X102900800Y-105994000D01*
X102900800Y-105740000D01*
X102920800Y-105740000D01*
X102920800Y-105720000D01*
X103174800Y-105720000D01*
X103174800Y-105740000D01*
X104317715Y-105740000D01*
X104439704Y-105517961D01*
X104432928Y-105501600D01*
X105206499Y-105501600D01*
X106234371Y-106529473D01*
X106234371Y-106529473D01*
G37*
X106234371Y-106529473D02*
X106276771Y-106592929D01*
X106528163Y-106760904D01*
X106729214Y-106800896D01*
X106915423Y-107079577D01*
X107267758Y-107315000D01*
X106915423Y-107550423D01*
X106598260Y-108025091D01*
X106486887Y-108585000D01*
X106598260Y-109144909D01*
X106915423Y-109619577D01*
X107194104Y-109805786D01*
X107211386Y-109892667D01*
X106915423Y-110090423D01*
X106598260Y-110565091D01*
X106486887Y-111125000D01*
X106598260Y-111684909D01*
X106915423Y-112159577D01*
X107267758Y-112395000D01*
X106915423Y-112630423D01*
X106598260Y-113105091D01*
X106486887Y-113665000D01*
X106598260Y-114224909D01*
X106915423Y-114699577D01*
X107267758Y-114935000D01*
X106915423Y-115170423D01*
X106598260Y-115645091D01*
X106486887Y-116205000D01*
X106598260Y-116764909D01*
X106915423Y-117239577D01*
X107267758Y-117475000D01*
X106915423Y-117710423D01*
X106598260Y-118185091D01*
X106486887Y-118745000D01*
X106598260Y-119304909D01*
X106915423Y-119779577D01*
X107267758Y-120015000D01*
X106915423Y-120250423D01*
X106598260Y-120725091D01*
X106486887Y-121285000D01*
X106598260Y-121844909D01*
X106915423Y-122319577D01*
X107267758Y-122555000D01*
X106915423Y-122790423D01*
X106598260Y-123265091D01*
X106486887Y-123825000D01*
X106559239Y-124188737D01*
X102682400Y-120311899D01*
X102682400Y-119957430D01*
X102906467Y-120002000D01*
X103189133Y-120002000D01*
X103607709Y-119918740D01*
X104082377Y-119601577D01*
X104399540Y-119126909D01*
X104510913Y-118567000D01*
X104399540Y-118007091D01*
X104082377Y-117532423D01*
X103698692Y-117276053D01*
X103902934Y-117179389D01*
X104278841Y-116764423D01*
X104439704Y-116376039D01*
X104317715Y-116154000D01*
X103174800Y-116154000D01*
X103174800Y-116174000D01*
X102920800Y-116174000D01*
X102920800Y-116154000D01*
X102900800Y-116154000D01*
X102900800Y-115900000D01*
X102920800Y-115900000D01*
X102920800Y-115880000D01*
X103174800Y-115880000D01*
X103174800Y-115900000D01*
X104317715Y-115900000D01*
X104439704Y-115677961D01*
X104278841Y-115289577D01*
X103902934Y-114874611D01*
X103698692Y-114777947D01*
X104082377Y-114521577D01*
X104399540Y-114046909D01*
X104510913Y-113487000D01*
X104399540Y-112927091D01*
X104082377Y-112452423D01*
X103698692Y-112196053D01*
X103902934Y-112099389D01*
X104278841Y-111684423D01*
X104439704Y-111296039D01*
X104317715Y-111074000D01*
X103174800Y-111074000D01*
X103174800Y-111094000D01*
X102920800Y-111094000D01*
X102920800Y-111074000D01*
X102900800Y-111074000D01*
X102900800Y-110820000D01*
X102920800Y-110820000D01*
X102920800Y-110800000D01*
X103174800Y-110800000D01*
X103174800Y-110820000D01*
X104317715Y-110820000D01*
X104439704Y-110597961D01*
X104278841Y-110209577D01*
X103902934Y-109794611D01*
X103698692Y-109697947D01*
X104082377Y-109441577D01*
X104399540Y-108966909D01*
X104510913Y-108407000D01*
X104399540Y-107847091D01*
X104082377Y-107372423D01*
X103698692Y-107116053D01*
X103902934Y-107019389D01*
X104278841Y-106604423D01*
X104439704Y-106216039D01*
X104317715Y-105994000D01*
X103174800Y-105994000D01*
X103174800Y-106014000D01*
X102920800Y-106014000D01*
X102920800Y-105994000D01*
X102900800Y-105994000D01*
X102900800Y-105740000D01*
X102920800Y-105740000D01*
X102920800Y-105720000D01*
X103174800Y-105720000D01*
X103174800Y-105740000D01*
X104317715Y-105740000D01*
X104439704Y-105517961D01*
X104432928Y-105501600D01*
X105206499Y-105501600D01*
X106234371Y-106529473D01*
G36*
X122225748Y-103683858D02*
X122211605Y-103698000D01*
X123039745Y-104526139D01*
X123285864Y-104452005D01*
X123370377Y-104216880D01*
X123505000Y-104351502D01*
X123505000Y-104517574D01*
X123662569Y-104897980D01*
X123953720Y-105189131D01*
X124334126Y-105346700D01*
X124505300Y-105346700D01*
X124505300Y-106548653D01*
X124490412Y-106623500D01*
X124505300Y-106698347D01*
X124505300Y-106698351D01*
X124549396Y-106920036D01*
X124717371Y-107171429D01*
X124780830Y-107213831D01*
X126910553Y-109343556D01*
X126785928Y-109530070D01*
X126725952Y-109542000D01*
X126725948Y-109542000D01*
X126552405Y-109576520D01*
X126504262Y-109586096D01*
X126399451Y-109656129D01*
X126252871Y-109754071D01*
X126210471Y-109817527D01*
X125495930Y-110532069D01*
X125432471Y-110574471D01*
X125264496Y-110825864D01*
X125220400Y-111047549D01*
X125220400Y-111047553D01*
X125205512Y-111122400D01*
X125220400Y-111197247D01*
X125220401Y-120021248D01*
X125205512Y-120096100D01*
X125264497Y-120392637D01*
X125386448Y-120575149D01*
X125432472Y-120644029D01*
X125495928Y-120686429D01*
X126881370Y-122071872D01*
X126886501Y-122079551D01*
X126730986Y-122312296D01*
X120467000Y-116048311D01*
X120467000Y-104792396D01*
X120553651Y-104705745D01*
X121203861Y-104705745D01*
X121277995Y-104951864D01*
X121815223Y-105144965D01*
X122385454Y-105117778D01*
X122786005Y-104951864D01*
X122860139Y-104705745D01*
X122032000Y-103877605D01*
X121203861Y-104705745D01*
X120553651Y-104705745D01*
X120748534Y-104510862D01*
X120775525Y-104445701D01*
X120778136Y-104452005D01*
X121024255Y-104526139D01*
X121852395Y-103698000D01*
X121838253Y-103683858D01*
X122017858Y-103504253D01*
X122032000Y-103518395D01*
X122046143Y-103504253D01*
X122225748Y-103683858D01*
X122225748Y-103683858D01*
G37*
X122225748Y-103683858D02*
X122211605Y-103698000D01*
X123039745Y-104526139D01*
X123285864Y-104452005D01*
X123370377Y-104216880D01*
X123505000Y-104351502D01*
X123505000Y-104517574D01*
X123662569Y-104897980D01*
X123953720Y-105189131D01*
X124334126Y-105346700D01*
X124505300Y-105346700D01*
X124505300Y-106548653D01*
X124490412Y-106623500D01*
X124505300Y-106698347D01*
X124505300Y-106698351D01*
X124549396Y-106920036D01*
X124717371Y-107171429D01*
X124780830Y-107213831D01*
X126910553Y-109343556D01*
X126785928Y-109530070D01*
X126725952Y-109542000D01*
X126725948Y-109542000D01*
X126552405Y-109576520D01*
X126504262Y-109586096D01*
X126399451Y-109656129D01*
X126252871Y-109754071D01*
X126210471Y-109817527D01*
X125495930Y-110532069D01*
X125432471Y-110574471D01*
X125264496Y-110825864D01*
X125220400Y-111047549D01*
X125220400Y-111047553D01*
X125205512Y-111122400D01*
X125220400Y-111197247D01*
X125220401Y-120021248D01*
X125205512Y-120096100D01*
X125264497Y-120392637D01*
X125386448Y-120575149D01*
X125432472Y-120644029D01*
X125495928Y-120686429D01*
X126881370Y-122071872D01*
X126886501Y-122079551D01*
X126730986Y-122312296D01*
X120467000Y-116048311D01*
X120467000Y-104792396D01*
X120553651Y-104705745D01*
X121203861Y-104705745D01*
X121277995Y-104951864D01*
X121815223Y-105144965D01*
X122385454Y-105117778D01*
X122786005Y-104951864D01*
X122860139Y-104705745D01*
X122032000Y-103877605D01*
X121203861Y-104705745D01*
X120553651Y-104705745D01*
X120748534Y-104510862D01*
X120775525Y-104445701D01*
X120778136Y-104452005D01*
X121024255Y-104526139D01*
X121852395Y-103698000D01*
X121838253Y-103683858D01*
X122017858Y-103504253D01*
X122032000Y-103518395D01*
X122046143Y-103504253D01*
X122225748Y-103683858D01*
G36*
X139621431Y-119400932D02*
X139300423Y-119615423D01*
X139065000Y-119967758D01*
X138829577Y-119615423D01*
X138354909Y-119298260D01*
X137936333Y-119215000D01*
X137653667Y-119215000D01*
X137235091Y-119298260D01*
X136760423Y-119615423D01*
X136505400Y-119997092D01*
X136505400Y-119540946D01*
X136520288Y-119466099D01*
X136505400Y-119391252D01*
X136505400Y-119391248D01*
X136461304Y-119169563D01*
X136293329Y-118918171D01*
X136229873Y-118875771D01*
X134251625Y-116897523D01*
X134649134Y-116709389D01*
X135025041Y-116294423D01*
X135185904Y-115906039D01*
X135063915Y-115684000D01*
X133921000Y-115684000D01*
X133921000Y-115704000D01*
X133667000Y-115704000D01*
X133667000Y-115684000D01*
X133647000Y-115684000D01*
X133647000Y-115430000D01*
X133667000Y-115430000D01*
X133667000Y-115410000D01*
X133921000Y-115410000D01*
X133921000Y-115430000D01*
X135063915Y-115430000D01*
X135185904Y-115207961D01*
X135119236Y-115047000D01*
X135267499Y-115047000D01*
X139621431Y-119400932D01*
X139621431Y-119400932D01*
G37*
X139621431Y-119400932D02*
X139300423Y-119615423D01*
X139065000Y-119967758D01*
X138829577Y-119615423D01*
X138354909Y-119298260D01*
X137936333Y-119215000D01*
X137653667Y-119215000D01*
X137235091Y-119298260D01*
X136760423Y-119615423D01*
X136505400Y-119997092D01*
X136505400Y-119540946D01*
X136520288Y-119466099D01*
X136505400Y-119391252D01*
X136505400Y-119391248D01*
X136461304Y-119169563D01*
X136293329Y-118918171D01*
X136229873Y-118875771D01*
X134251625Y-116897523D01*
X134649134Y-116709389D01*
X135025041Y-116294423D01*
X135185904Y-115906039D01*
X135063915Y-115684000D01*
X133921000Y-115684000D01*
X133921000Y-115704000D01*
X133667000Y-115704000D01*
X133667000Y-115684000D01*
X133647000Y-115684000D01*
X133647000Y-115430000D01*
X133667000Y-115430000D01*
X133667000Y-115410000D01*
X133921000Y-115410000D01*
X133921000Y-115430000D01*
X135063915Y-115430000D01*
X135185904Y-115207961D01*
X135119236Y-115047000D01*
X135267499Y-115047000D01*
X139621431Y-119400932D01*
G36*
X146888000Y-102636000D02*
X146908000Y-102636000D01*
X146908000Y-102890000D01*
X146888000Y-102890000D01*
X146888000Y-105176000D01*
X148030915Y-105176000D01*
X148152904Y-104953961D01*
X147992041Y-104565577D01*
X147616134Y-104150611D01*
X147367633Y-104033000D01*
X147616134Y-103915389D01*
X147992041Y-103500423D01*
X148029407Y-103410208D01*
X150860401Y-106241203D01*
X150860400Y-119259570D01*
X150636333Y-119215000D01*
X150353667Y-119215000D01*
X149935091Y-119298260D01*
X149606704Y-119517681D01*
X149569873Y-119493071D01*
X146933831Y-116857030D01*
X146891429Y-116793571D01*
X146888002Y-116791281D01*
X146888002Y-116733630D01*
X147110041Y-116854914D01*
X147616134Y-116615389D01*
X147992041Y-116200423D01*
X148152904Y-115812039D01*
X148030915Y-115590000D01*
X146888000Y-115590000D01*
X146888000Y-115610000D01*
X146634000Y-115610000D01*
X146634000Y-115590000D01*
X145491085Y-115590000D01*
X145369096Y-115812039D01*
X145529959Y-116200423D01*
X145875167Y-116581500D01*
X142455310Y-116581500D01*
X142634786Y-116312896D01*
X142835837Y-116272904D01*
X143087229Y-116104929D01*
X143129631Y-116041470D01*
X144218103Y-114953000D01*
X145435764Y-114953000D01*
X145369096Y-115113961D01*
X145491085Y-115336000D01*
X146634000Y-115336000D01*
X146634000Y-115316000D01*
X146888000Y-115316000D01*
X146888000Y-115336000D01*
X148030915Y-115336000D01*
X148152904Y-115113961D01*
X147992041Y-114725577D01*
X147827672Y-114544129D01*
X148372475Y-113999327D01*
X148435929Y-113956929D01*
X148478327Y-113893476D01*
X148478329Y-113893474D01*
X148601365Y-113709337D01*
X148603904Y-113705537D01*
X148648000Y-113483852D01*
X148648000Y-113483848D01*
X148662888Y-113409001D01*
X148648000Y-113334154D01*
X148648000Y-107390648D01*
X148662888Y-107315800D01*
X148648000Y-107240952D01*
X148648000Y-107240948D01*
X148603904Y-107019263D01*
X148603904Y-107019262D01*
X148478329Y-106831327D01*
X148435929Y-106767871D01*
X148372473Y-106725471D01*
X147847255Y-106200253D01*
X147992041Y-106040423D01*
X148152904Y-105652039D01*
X148030915Y-105430000D01*
X146888000Y-105430000D01*
X146888000Y-105450000D01*
X146634000Y-105450000D01*
X146634000Y-105430000D01*
X146614000Y-105430000D01*
X146614000Y-105176000D01*
X146634000Y-105176000D01*
X146634000Y-102890000D01*
X146614000Y-102890000D01*
X146614000Y-102636000D01*
X146634000Y-102636000D01*
X146634000Y-102616000D01*
X146888000Y-102616000D01*
X146888000Y-102636000D01*
X146888000Y-102636000D01*
G37*
X146888000Y-102636000D02*
X146908000Y-102636000D01*
X146908000Y-102890000D01*
X146888000Y-102890000D01*
X146888000Y-105176000D01*
X148030915Y-105176000D01*
X148152904Y-104953961D01*
X147992041Y-104565577D01*
X147616134Y-104150611D01*
X147367633Y-104033000D01*
X147616134Y-103915389D01*
X147992041Y-103500423D01*
X148029407Y-103410208D01*
X150860401Y-106241203D01*
X150860400Y-119259570D01*
X150636333Y-119215000D01*
X150353667Y-119215000D01*
X149935091Y-119298260D01*
X149606704Y-119517681D01*
X149569873Y-119493071D01*
X146933831Y-116857030D01*
X146891429Y-116793571D01*
X146888002Y-116791281D01*
X146888002Y-116733630D01*
X147110041Y-116854914D01*
X147616134Y-116615389D01*
X147992041Y-116200423D01*
X148152904Y-115812039D01*
X148030915Y-115590000D01*
X146888000Y-115590000D01*
X146888000Y-115610000D01*
X146634000Y-115610000D01*
X146634000Y-115590000D01*
X145491085Y-115590000D01*
X145369096Y-115812039D01*
X145529959Y-116200423D01*
X145875167Y-116581500D01*
X142455310Y-116581500D01*
X142634786Y-116312896D01*
X142835837Y-116272904D01*
X143087229Y-116104929D01*
X143129631Y-116041470D01*
X144218103Y-114953000D01*
X145435764Y-114953000D01*
X145369096Y-115113961D01*
X145491085Y-115336000D01*
X146634000Y-115336000D01*
X146634000Y-115316000D01*
X146888000Y-115316000D01*
X146888000Y-115336000D01*
X148030915Y-115336000D01*
X148152904Y-115113961D01*
X147992041Y-114725577D01*
X147827672Y-114544129D01*
X148372475Y-113999327D01*
X148435929Y-113956929D01*
X148478327Y-113893476D01*
X148478329Y-113893474D01*
X148601365Y-113709337D01*
X148603904Y-113705537D01*
X148648000Y-113483852D01*
X148648000Y-113483848D01*
X148662888Y-113409001D01*
X148648000Y-113334154D01*
X148648000Y-107390648D01*
X148662888Y-107315800D01*
X148648000Y-107240952D01*
X148648000Y-107240948D01*
X148603904Y-107019263D01*
X148603904Y-107019262D01*
X148478329Y-106831327D01*
X148435929Y-106767871D01*
X148372473Y-106725471D01*
X147847255Y-106200253D01*
X147992041Y-106040423D01*
X148152904Y-105652039D01*
X148030915Y-105430000D01*
X146888000Y-105430000D01*
X146888000Y-105450000D01*
X146634000Y-105450000D01*
X146634000Y-105430000D01*
X146614000Y-105430000D01*
X146614000Y-105176000D01*
X146634000Y-105176000D01*
X146634000Y-102890000D01*
X146614000Y-102890000D01*
X146614000Y-102636000D01*
X146634000Y-102636000D01*
X146634000Y-102616000D01*
X146888000Y-102616000D01*
X146888000Y-102636000D01*
G36*
X113205071Y-71569873D02*
X113247471Y-71633329D01*
X113498863Y-71801304D01*
X113720548Y-71845400D01*
X113720552Y-71845400D01*
X113795399Y-71860288D01*
X113870246Y-71845400D01*
X115529753Y-71845400D01*
X115604600Y-71860288D01*
X115679447Y-71845400D01*
X115679452Y-71845400D01*
X115901137Y-71801304D01*
X116152529Y-71633329D01*
X116194931Y-71569870D01*
X116473592Y-71291209D01*
X116693744Y-71335000D01*
X116986256Y-71335000D01*
X117350000Y-71262647D01*
X117350001Y-80054848D01*
X117335112Y-80129700D01*
X117394097Y-80426237D01*
X117486212Y-80564096D01*
X117562072Y-80677629D01*
X117625528Y-80720029D01*
X119990300Y-83084802D01*
X119990300Y-83250874D01*
X120147869Y-83631280D01*
X120439020Y-83922431D01*
X120819426Y-84080000D01*
X121160000Y-84080000D01*
X121160000Y-93042753D01*
X121145112Y-93117600D01*
X121160000Y-93192447D01*
X121160000Y-93192451D01*
X121204096Y-93414136D01*
X121372071Y-93665529D01*
X121435530Y-93707931D01*
X126910793Y-99183195D01*
X126644260Y-99582091D01*
X126532887Y-100142000D01*
X126644260Y-100701909D01*
X126961423Y-101176577D01*
X127345108Y-101432947D01*
X127140866Y-101529611D01*
X126764959Y-101944577D01*
X126604096Y-102332961D01*
X126726085Y-102555000D01*
X127869000Y-102555000D01*
X127869000Y-102535000D01*
X128123000Y-102535000D01*
X128123000Y-102555000D01*
X128143000Y-102555000D01*
X128143000Y-102809000D01*
X128123000Y-102809000D01*
X128123000Y-102829000D01*
X127869000Y-102829000D01*
X127869000Y-102809000D01*
X126726085Y-102809000D01*
X126604096Y-103031039D01*
X126764959Y-103419423D01*
X127140866Y-103834389D01*
X127345108Y-103931053D01*
X126961423Y-104187423D01*
X126644260Y-104662091D01*
X126532887Y-105222000D01*
X126644260Y-105781909D01*
X126961423Y-106256577D01*
X127257386Y-106454333D01*
X127240104Y-106541214D01*
X126961423Y-106727423D01*
X126754182Y-107037581D01*
X126025300Y-106308699D01*
X126025300Y-104086048D01*
X126040188Y-104011200D01*
X126025300Y-103936352D01*
X126025300Y-103936348D01*
X125981204Y-103714663D01*
X125981204Y-103714662D01*
X125855629Y-103526727D01*
X125813229Y-103463271D01*
X125749773Y-103420871D01*
X123910531Y-101581630D01*
X123868129Y-101518171D01*
X123616737Y-101350196D01*
X123395052Y-101306100D01*
X123395047Y-101306100D01*
X123320200Y-101291212D01*
X123245353Y-101306100D01*
X118939448Y-101306100D01*
X118864600Y-101291212D01*
X118789752Y-101306100D01*
X118789748Y-101306100D01*
X118568063Y-101350196D01*
X118316671Y-101518171D01*
X118274271Y-101581627D01*
X117309630Y-102546269D01*
X117246171Y-102588671D01*
X117078196Y-102840064D01*
X117034100Y-103061749D01*
X117034100Y-103061753D01*
X117019212Y-103136600D01*
X117034100Y-103211447D01*
X117034101Y-106645197D01*
X114039434Y-109639864D01*
X113790577Y-109267423D01*
X113511896Y-109081214D01*
X113494614Y-108994333D01*
X113790577Y-108796577D01*
X114107740Y-108321909D01*
X114219113Y-107762000D01*
X114107740Y-107202091D01*
X113790577Y-106727423D01*
X113511896Y-106541214D01*
X113494614Y-106454333D01*
X113790577Y-106256577D01*
X114107740Y-105781909D01*
X114219113Y-105222000D01*
X114107740Y-104662091D01*
X113847575Y-104272726D01*
X114843873Y-103276429D01*
X114907329Y-103234029D01*
X114976480Y-103130537D01*
X115075304Y-102982638D01*
X115094698Y-102885138D01*
X115119400Y-102760952D01*
X115119400Y-102760948D01*
X115134288Y-102686100D01*
X115119400Y-102611252D01*
X115119400Y-74214947D01*
X115134288Y-74140100D01*
X115119400Y-74065253D01*
X115119400Y-74065248D01*
X115075304Y-73843563D01*
X114907329Y-73592171D01*
X114843873Y-73549771D01*
X112461421Y-71167319D01*
X112665894Y-71030695D01*
X113205071Y-71569873D01*
X113205071Y-71569873D01*
G37*
X113205071Y-71569873D02*
X113247471Y-71633329D01*
X113498863Y-71801304D01*
X113720548Y-71845400D01*
X113720552Y-71845400D01*
X113795399Y-71860288D01*
X113870246Y-71845400D01*
X115529753Y-71845400D01*
X115604600Y-71860288D01*
X115679447Y-71845400D01*
X115679452Y-71845400D01*
X115901137Y-71801304D01*
X116152529Y-71633329D01*
X116194931Y-71569870D01*
X116473592Y-71291209D01*
X116693744Y-71335000D01*
X116986256Y-71335000D01*
X117350000Y-71262647D01*
X117350001Y-80054848D01*
X117335112Y-80129700D01*
X117394097Y-80426237D01*
X117486212Y-80564096D01*
X117562072Y-80677629D01*
X117625528Y-80720029D01*
X119990300Y-83084802D01*
X119990300Y-83250874D01*
X120147869Y-83631280D01*
X120439020Y-83922431D01*
X120819426Y-84080000D01*
X121160000Y-84080000D01*
X121160000Y-93042753D01*
X121145112Y-93117600D01*
X121160000Y-93192447D01*
X121160000Y-93192451D01*
X121204096Y-93414136D01*
X121372071Y-93665529D01*
X121435530Y-93707931D01*
X126910793Y-99183195D01*
X126644260Y-99582091D01*
X126532887Y-100142000D01*
X126644260Y-100701909D01*
X126961423Y-101176577D01*
X127345108Y-101432947D01*
X127140866Y-101529611D01*
X126764959Y-101944577D01*
X126604096Y-102332961D01*
X126726085Y-102555000D01*
X127869000Y-102555000D01*
X127869000Y-102535000D01*
X128123000Y-102535000D01*
X128123000Y-102555000D01*
X128143000Y-102555000D01*
X128143000Y-102809000D01*
X128123000Y-102809000D01*
X128123000Y-102829000D01*
X127869000Y-102829000D01*
X127869000Y-102809000D01*
X126726085Y-102809000D01*
X126604096Y-103031039D01*
X126764959Y-103419423D01*
X127140866Y-103834389D01*
X127345108Y-103931053D01*
X126961423Y-104187423D01*
X126644260Y-104662091D01*
X126532887Y-105222000D01*
X126644260Y-105781909D01*
X126961423Y-106256577D01*
X127257386Y-106454333D01*
X127240104Y-106541214D01*
X126961423Y-106727423D01*
X126754182Y-107037581D01*
X126025300Y-106308699D01*
X126025300Y-104086048D01*
X126040188Y-104011200D01*
X126025300Y-103936352D01*
X126025300Y-103936348D01*
X125981204Y-103714663D01*
X125981204Y-103714662D01*
X125855629Y-103526727D01*
X125813229Y-103463271D01*
X125749773Y-103420871D01*
X123910531Y-101581630D01*
X123868129Y-101518171D01*
X123616737Y-101350196D01*
X123395052Y-101306100D01*
X123395047Y-101306100D01*
X123320200Y-101291212D01*
X123245353Y-101306100D01*
X118939448Y-101306100D01*
X118864600Y-101291212D01*
X118789752Y-101306100D01*
X118789748Y-101306100D01*
X118568063Y-101350196D01*
X118316671Y-101518171D01*
X118274271Y-101581627D01*
X117309630Y-102546269D01*
X117246171Y-102588671D01*
X117078196Y-102840064D01*
X117034100Y-103061749D01*
X117034100Y-103061753D01*
X117019212Y-103136600D01*
X117034100Y-103211447D01*
X117034101Y-106645197D01*
X114039434Y-109639864D01*
X113790577Y-109267423D01*
X113511896Y-109081214D01*
X113494614Y-108994333D01*
X113790577Y-108796577D01*
X114107740Y-108321909D01*
X114219113Y-107762000D01*
X114107740Y-107202091D01*
X113790577Y-106727423D01*
X113511896Y-106541214D01*
X113494614Y-106454333D01*
X113790577Y-106256577D01*
X114107740Y-105781909D01*
X114219113Y-105222000D01*
X114107740Y-104662091D01*
X113847575Y-104272726D01*
X114843873Y-103276429D01*
X114907329Y-103234029D01*
X114976480Y-103130537D01*
X115075304Y-102982638D01*
X115094698Y-102885138D01*
X115119400Y-102760952D01*
X115119400Y-102760948D01*
X115134288Y-102686100D01*
X115119400Y-102611252D01*
X115119400Y-74214947D01*
X115134288Y-74140100D01*
X115119400Y-74065253D01*
X115119400Y-74065248D01*
X115075304Y-73843563D01*
X114907329Y-73592171D01*
X114843873Y-73549771D01*
X112461421Y-71167319D01*
X112665894Y-71030695D01*
X113205071Y-71569873D01*
G36*
X133833000Y-92278200D02*
X133853000Y-92278200D01*
X133853000Y-92532200D01*
X133833000Y-92532200D01*
X133833000Y-93675829D01*
X134055041Y-93797114D01*
X134561134Y-93557589D01*
X134937041Y-93142623D01*
X134943830Y-93126232D01*
X135345101Y-93527504D01*
X135345100Y-109290298D01*
X134907805Y-108853004D01*
X135145740Y-108496909D01*
X135257113Y-107937000D01*
X135145740Y-107377091D01*
X134828577Y-106902423D01*
X134476242Y-106667000D01*
X134828577Y-106431577D01*
X135145740Y-105956909D01*
X135257113Y-105397000D01*
X135145740Y-104837091D01*
X134828577Y-104362423D01*
X134549896Y-104176214D01*
X134532614Y-104089333D01*
X134828577Y-103891577D01*
X135145740Y-103416909D01*
X135257113Y-102857000D01*
X135145740Y-102297091D01*
X134828577Y-101822423D01*
X134707894Y-101741785D01*
X134841765Y-101715157D01*
X135051809Y-101574809D01*
X135192157Y-101364765D01*
X135241440Y-101117000D01*
X135241440Y-99517000D01*
X135192157Y-99269235D01*
X135051809Y-99059191D01*
X134841765Y-98918843D01*
X134594000Y-98869560D01*
X134492797Y-98869560D01*
X134454250Y-98811871D01*
X134384329Y-98707226D01*
X134384327Y-98707224D01*
X134341929Y-98643771D01*
X134278476Y-98601373D01*
X133340700Y-97663599D01*
X133340700Y-93789419D01*
X133356959Y-93797114D01*
X133579000Y-93675829D01*
X133579000Y-92532200D01*
X133559000Y-92532200D01*
X133559000Y-92278200D01*
X133579000Y-92278200D01*
X133579000Y-92258200D01*
X133833000Y-92258200D01*
X133833000Y-92278200D01*
X133833000Y-92278200D01*
G37*
X133833000Y-92278200D02*
X133853000Y-92278200D01*
X133853000Y-92532200D01*
X133833000Y-92532200D01*
X133833000Y-93675829D01*
X134055041Y-93797114D01*
X134561134Y-93557589D01*
X134937041Y-93142623D01*
X134943830Y-93126232D01*
X135345101Y-93527504D01*
X135345100Y-109290298D01*
X134907805Y-108853004D01*
X135145740Y-108496909D01*
X135257113Y-107937000D01*
X135145740Y-107377091D01*
X134828577Y-106902423D01*
X134476242Y-106667000D01*
X134828577Y-106431577D01*
X135145740Y-105956909D01*
X135257113Y-105397000D01*
X135145740Y-104837091D01*
X134828577Y-104362423D01*
X134549896Y-104176214D01*
X134532614Y-104089333D01*
X134828577Y-103891577D01*
X135145740Y-103416909D01*
X135257113Y-102857000D01*
X135145740Y-102297091D01*
X134828577Y-101822423D01*
X134707894Y-101741785D01*
X134841765Y-101715157D01*
X135051809Y-101574809D01*
X135192157Y-101364765D01*
X135241440Y-101117000D01*
X135241440Y-99517000D01*
X135192157Y-99269235D01*
X135051809Y-99059191D01*
X134841765Y-98918843D01*
X134594000Y-98869560D01*
X134492797Y-98869560D01*
X134454250Y-98811871D01*
X134384329Y-98707226D01*
X134384327Y-98707224D01*
X134341929Y-98643771D01*
X134278476Y-98601373D01*
X133340700Y-97663599D01*
X133340700Y-93789419D01*
X133356959Y-93797114D01*
X133579000Y-93675829D01*
X133579000Y-92532200D01*
X133559000Y-92532200D01*
X133559000Y-92278200D01*
X133579000Y-92278200D01*
X133579000Y-92258200D01*
X133833000Y-92258200D01*
X133833000Y-92278200D01*
G36*
X91994300Y-99453353D02*
X91979412Y-99528200D01*
X91994300Y-99603047D01*
X91994300Y-99603051D01*
X92038396Y-99824736D01*
X92206371Y-100076129D01*
X92269830Y-100118531D01*
X94200262Y-102048964D01*
X94169991Y-102069191D01*
X94029643Y-102279235D01*
X93980360Y-102527000D01*
X93980360Y-104127000D01*
X94029643Y-104374765D01*
X94169991Y-104584809D01*
X94380035Y-104725157D01*
X94513906Y-104751785D01*
X94393223Y-104832423D01*
X94144406Y-105204804D01*
X87984600Y-99044999D01*
X87984600Y-98142401D01*
X91247306Y-94879697D01*
X91693527Y-94790938D01*
X91994300Y-94589968D01*
X91994300Y-99453353D01*
X91994300Y-99453353D01*
G37*
X91994300Y-99453353D02*
X91979412Y-99528200D01*
X91994300Y-99603047D01*
X91994300Y-99603051D01*
X92038396Y-99824736D01*
X92206371Y-100076129D01*
X92269830Y-100118531D01*
X94200262Y-102048964D01*
X94169991Y-102069191D01*
X94029643Y-102279235D01*
X93980360Y-102527000D01*
X93980360Y-104127000D01*
X94029643Y-104374765D01*
X94169991Y-104584809D01*
X94380035Y-104725157D01*
X94513906Y-104751785D01*
X94393223Y-104832423D01*
X94144406Y-105204804D01*
X87984600Y-99044999D01*
X87984600Y-98142401D01*
X91247306Y-94879697D01*
X91693527Y-94790938D01*
X91994300Y-94589968D01*
X91994300Y-99453353D01*
G36*
X104066466Y-75361862D02*
X104470138Y-75765534D01*
X104997561Y-75984000D01*
X105568439Y-75984000D01*
X105588249Y-75975794D01*
X105572912Y-76052900D01*
X105587801Y-76127752D01*
X105587800Y-86378953D01*
X105572912Y-86453800D01*
X105587800Y-86528647D01*
X105587800Y-86528651D01*
X105631896Y-86750336D01*
X105799871Y-87001729D01*
X105863330Y-87044131D01*
X106822977Y-88003779D01*
X106598260Y-88340091D01*
X106486887Y-88900000D01*
X106598260Y-89459909D01*
X106915423Y-89934577D01*
X107267758Y-90170000D01*
X106915423Y-90405423D01*
X106598260Y-90880091D01*
X106486887Y-91440000D01*
X106598260Y-91999909D01*
X106855420Y-92384777D01*
X105873030Y-93367169D01*
X105809571Y-93409571D01*
X105641596Y-93660964D01*
X105597500Y-93882649D01*
X105597500Y-93882653D01*
X105582612Y-93957500D01*
X105597500Y-94032347D01*
X105597501Y-103916248D01*
X105584945Y-103979372D01*
X105521300Y-103966712D01*
X105446453Y-103981600D01*
X104336270Y-103981600D01*
X104399540Y-103886909D01*
X104510913Y-103327000D01*
X104399540Y-102767091D01*
X104082377Y-102292423D01*
X104068421Y-102283098D01*
X104131750Y-102188319D01*
X104186000Y-101915586D01*
X104186000Y-101915583D01*
X104204316Y-101823501D01*
X104186000Y-101731419D01*
X104186000Y-101043396D01*
X104467534Y-100761862D01*
X104686000Y-100234439D01*
X104686000Y-99836290D01*
X104763131Y-99759159D01*
X104841197Y-99706997D01*
X105047850Y-99397719D01*
X105102100Y-99124986D01*
X105102100Y-99124985D01*
X105120417Y-99032901D01*
X105102100Y-98940815D01*
X105102100Y-82262786D01*
X105120417Y-82170700D01*
X105047850Y-81805881D01*
X104893359Y-81574669D01*
X104841197Y-81496603D01*
X104763131Y-81444441D01*
X104297049Y-80978359D01*
X104320413Y-80860900D01*
X104209040Y-80300991D01*
X103891877Y-79826323D01*
X103417209Y-79509160D01*
X102998633Y-79425900D01*
X102715967Y-79425900D01*
X102297391Y-79509160D01*
X101822723Y-79826323D01*
X101505560Y-80300991D01*
X101394187Y-80860900D01*
X101505560Y-81420809D01*
X101822723Y-81895477D01*
X102206408Y-82151847D01*
X102002166Y-82248511D01*
X101626259Y-82663477D01*
X101465396Y-83051861D01*
X101587385Y-83273900D01*
X102730300Y-83273900D01*
X102730300Y-83253900D01*
X102984300Y-83253900D01*
X102984300Y-83273900D01*
X103004300Y-83273900D01*
X103004300Y-83527900D01*
X102984300Y-83527900D01*
X102984300Y-83547900D01*
X102730300Y-83547900D01*
X102730300Y-83527900D01*
X101587385Y-83527900D01*
X101465396Y-83749939D01*
X101626259Y-84138323D01*
X102002166Y-84553289D01*
X102206408Y-84649953D01*
X101822723Y-84906323D01*
X101505560Y-85380991D01*
X101394187Y-85940900D01*
X101505560Y-86500809D01*
X101822723Y-86975477D01*
X102175058Y-87210900D01*
X101822723Y-87446323D01*
X101505560Y-87920991D01*
X101394187Y-88480900D01*
X101505560Y-89040809D01*
X101822723Y-89515477D01*
X102175058Y-89750900D01*
X101822723Y-89986323D01*
X101573906Y-90358704D01*
X100347300Y-89132099D01*
X100347300Y-79103777D01*
X100534223Y-79170965D01*
X101104454Y-79143778D01*
X101505005Y-78977864D01*
X101579139Y-78731745D01*
X100751000Y-77903605D01*
X100736858Y-77917748D01*
X100557253Y-77738143D01*
X100571395Y-77724000D01*
X100930605Y-77724000D01*
X101758745Y-78552139D01*
X102004864Y-78478005D01*
X102007290Y-78471254D01*
X102034466Y-78536862D01*
X102438138Y-78940534D01*
X102965561Y-79159000D01*
X103536439Y-79159000D01*
X104063862Y-78940534D01*
X104467534Y-78536862D01*
X104686000Y-78009439D01*
X104686000Y-77438561D01*
X104467534Y-76911138D01*
X104063862Y-76507466D01*
X103536439Y-76289000D01*
X102965561Y-76289000D01*
X102438138Y-76507466D01*
X102034466Y-76911138D01*
X102007475Y-76976299D01*
X102004864Y-76969995D01*
X101758745Y-76895861D01*
X100930605Y-77724000D01*
X100571395Y-77724000D01*
X100557253Y-77709858D01*
X100736858Y-77530253D01*
X100751000Y-77544395D01*
X101579139Y-76716255D01*
X101505005Y-76470136D01*
X101489013Y-76464388D01*
X102644402Y-75309000D01*
X104044570Y-75309000D01*
X104066466Y-75361862D01*
X104066466Y-75361862D01*
G37*
X104066466Y-75361862D02*
X104470138Y-75765534D01*
X104997561Y-75984000D01*
X105568439Y-75984000D01*
X105588249Y-75975794D01*
X105572912Y-76052900D01*
X105587801Y-76127752D01*
X105587800Y-86378953D01*
X105572912Y-86453800D01*
X105587800Y-86528647D01*
X105587800Y-86528651D01*
X105631896Y-86750336D01*
X105799871Y-87001729D01*
X105863330Y-87044131D01*
X106822977Y-88003779D01*
X106598260Y-88340091D01*
X106486887Y-88900000D01*
X106598260Y-89459909D01*
X106915423Y-89934577D01*
X107267758Y-90170000D01*
X106915423Y-90405423D01*
X106598260Y-90880091D01*
X106486887Y-91440000D01*
X106598260Y-91999909D01*
X106855420Y-92384777D01*
X105873030Y-93367169D01*
X105809571Y-93409571D01*
X105641596Y-93660964D01*
X105597500Y-93882649D01*
X105597500Y-93882653D01*
X105582612Y-93957500D01*
X105597500Y-94032347D01*
X105597501Y-103916248D01*
X105584945Y-103979372D01*
X105521300Y-103966712D01*
X105446453Y-103981600D01*
X104336270Y-103981600D01*
X104399540Y-103886909D01*
X104510913Y-103327000D01*
X104399540Y-102767091D01*
X104082377Y-102292423D01*
X104068421Y-102283098D01*
X104131750Y-102188319D01*
X104186000Y-101915586D01*
X104186000Y-101915583D01*
X104204316Y-101823501D01*
X104186000Y-101731419D01*
X104186000Y-101043396D01*
X104467534Y-100761862D01*
X104686000Y-100234439D01*
X104686000Y-99836290D01*
X104763131Y-99759159D01*
X104841197Y-99706997D01*
X105047850Y-99397719D01*
X105102100Y-99124986D01*
X105102100Y-99124985D01*
X105120417Y-99032901D01*
X105102100Y-98940815D01*
X105102100Y-82262786D01*
X105120417Y-82170700D01*
X105047850Y-81805881D01*
X104893359Y-81574669D01*
X104841197Y-81496603D01*
X104763131Y-81444441D01*
X104297049Y-80978359D01*
X104320413Y-80860900D01*
X104209040Y-80300991D01*
X103891877Y-79826323D01*
X103417209Y-79509160D01*
X102998633Y-79425900D01*
X102715967Y-79425900D01*
X102297391Y-79509160D01*
X101822723Y-79826323D01*
X101505560Y-80300991D01*
X101394187Y-80860900D01*
X101505560Y-81420809D01*
X101822723Y-81895477D01*
X102206408Y-82151847D01*
X102002166Y-82248511D01*
X101626259Y-82663477D01*
X101465396Y-83051861D01*
X101587385Y-83273900D01*
X102730300Y-83273900D01*
X102730300Y-83253900D01*
X102984300Y-83253900D01*
X102984300Y-83273900D01*
X103004300Y-83273900D01*
X103004300Y-83527900D01*
X102984300Y-83527900D01*
X102984300Y-83547900D01*
X102730300Y-83547900D01*
X102730300Y-83527900D01*
X101587385Y-83527900D01*
X101465396Y-83749939D01*
X101626259Y-84138323D01*
X102002166Y-84553289D01*
X102206408Y-84649953D01*
X101822723Y-84906323D01*
X101505560Y-85380991D01*
X101394187Y-85940900D01*
X101505560Y-86500809D01*
X101822723Y-86975477D01*
X102175058Y-87210900D01*
X101822723Y-87446323D01*
X101505560Y-87920991D01*
X101394187Y-88480900D01*
X101505560Y-89040809D01*
X101822723Y-89515477D01*
X102175058Y-89750900D01*
X101822723Y-89986323D01*
X101573906Y-90358704D01*
X100347300Y-89132099D01*
X100347300Y-79103777D01*
X100534223Y-79170965D01*
X101104454Y-79143778D01*
X101505005Y-78977864D01*
X101579139Y-78731745D01*
X100751000Y-77903605D01*
X100736858Y-77917748D01*
X100557253Y-77738143D01*
X100571395Y-77724000D01*
X100930605Y-77724000D01*
X101758745Y-78552139D01*
X102004864Y-78478005D01*
X102007290Y-78471254D01*
X102034466Y-78536862D01*
X102438138Y-78940534D01*
X102965561Y-79159000D01*
X103536439Y-79159000D01*
X104063862Y-78940534D01*
X104467534Y-78536862D01*
X104686000Y-78009439D01*
X104686000Y-77438561D01*
X104467534Y-76911138D01*
X104063862Y-76507466D01*
X103536439Y-76289000D01*
X102965561Y-76289000D01*
X102438138Y-76507466D01*
X102034466Y-76911138D01*
X102007475Y-76976299D01*
X102004864Y-76969995D01*
X101758745Y-76895861D01*
X100930605Y-77724000D01*
X100571395Y-77724000D01*
X100557253Y-77709858D01*
X100736858Y-77530253D01*
X100751000Y-77544395D01*
X101579139Y-76716255D01*
X101505005Y-76470136D01*
X101489013Y-76464388D01*
X102644402Y-75309000D01*
X104044570Y-75309000D01*
X104066466Y-75361862D01*
G36*
X98300000Y-94109953D02*
X98285112Y-94184800D01*
X98300000Y-94259647D01*
X98300000Y-94259651D01*
X98344096Y-94481336D01*
X98512071Y-94732729D01*
X98575530Y-94775131D01*
X101116501Y-97316104D01*
X101116501Y-98555492D01*
X100967777Y-98502035D01*
X100397546Y-98529222D01*
X99996995Y-98695136D01*
X99922861Y-98941255D01*
X100751000Y-99769395D01*
X100765143Y-99755253D01*
X100944748Y-99934858D01*
X100930605Y-99949000D01*
X100944748Y-99963142D01*
X100765142Y-100142748D01*
X100751000Y-100128605D01*
X99922861Y-100956745D01*
X99996995Y-101202864D01*
X100534223Y-101395965D01*
X101104454Y-101368778D01*
X101116500Y-101363788D01*
X101116500Y-103736453D01*
X101101612Y-103811300D01*
X101103005Y-103818303D01*
X97016925Y-99732223D01*
X99304035Y-99732223D01*
X99331222Y-100302454D01*
X99497136Y-100703005D01*
X99743255Y-100777139D01*
X100571395Y-99949000D01*
X99743255Y-99120861D01*
X99497136Y-99194995D01*
X99304035Y-99732223D01*
X97016925Y-99732223D01*
X94678006Y-97393305D01*
X94888259Y-97492814D01*
X95110300Y-97371529D01*
X95110300Y-96227900D01*
X95364300Y-96227900D01*
X95364300Y-97371529D01*
X95586341Y-97492814D01*
X96092434Y-97253289D01*
X96468341Y-96838323D01*
X96629204Y-96449939D01*
X96507215Y-96227900D01*
X95364300Y-96227900D01*
X95110300Y-96227900D01*
X95090300Y-96227900D01*
X95090300Y-95973900D01*
X95110300Y-95973900D01*
X95110300Y-95953900D01*
X95364300Y-95953900D01*
X95364300Y-95973900D01*
X96507215Y-95973900D01*
X96629204Y-95751861D01*
X96468341Y-95363477D01*
X96092434Y-94948511D01*
X95888192Y-94851847D01*
X96271877Y-94595477D01*
X96589040Y-94120809D01*
X96700413Y-93560900D01*
X96589040Y-93000991D01*
X96271877Y-92526323D01*
X95993196Y-92340114D01*
X95975914Y-92253233D01*
X96271877Y-92055477D01*
X96589040Y-91580809D01*
X96700413Y-91020900D01*
X96589040Y-90460991D01*
X96271877Y-89986323D01*
X95919542Y-89750900D01*
X96271877Y-89515477D01*
X96589040Y-89040809D01*
X96700413Y-88480900D01*
X96635988Y-88157013D01*
X98300000Y-86493002D01*
X98300000Y-94109953D01*
X98300000Y-94109953D01*
G37*
X98300000Y-94109953D02*
X98285112Y-94184800D01*
X98300000Y-94259647D01*
X98300000Y-94259651D01*
X98344096Y-94481336D01*
X98512071Y-94732729D01*
X98575530Y-94775131D01*
X101116501Y-97316104D01*
X101116501Y-98555492D01*
X100967777Y-98502035D01*
X100397546Y-98529222D01*
X99996995Y-98695136D01*
X99922861Y-98941255D01*
X100751000Y-99769395D01*
X100765143Y-99755253D01*
X100944748Y-99934858D01*
X100930605Y-99949000D01*
X100944748Y-99963142D01*
X100765142Y-100142748D01*
X100751000Y-100128605D01*
X99922861Y-100956745D01*
X99996995Y-101202864D01*
X100534223Y-101395965D01*
X101104454Y-101368778D01*
X101116500Y-101363788D01*
X101116500Y-103736453D01*
X101101612Y-103811300D01*
X101103005Y-103818303D01*
X97016925Y-99732223D01*
X99304035Y-99732223D01*
X99331222Y-100302454D01*
X99497136Y-100703005D01*
X99743255Y-100777139D01*
X100571395Y-99949000D01*
X99743255Y-99120861D01*
X99497136Y-99194995D01*
X99304035Y-99732223D01*
X97016925Y-99732223D01*
X94678006Y-97393305D01*
X94888259Y-97492814D01*
X95110300Y-97371529D01*
X95110300Y-96227900D01*
X95364300Y-96227900D01*
X95364300Y-97371529D01*
X95586341Y-97492814D01*
X96092434Y-97253289D01*
X96468341Y-96838323D01*
X96629204Y-96449939D01*
X96507215Y-96227900D01*
X95364300Y-96227900D01*
X95110300Y-96227900D01*
X95090300Y-96227900D01*
X95090300Y-95973900D01*
X95110300Y-95973900D01*
X95110300Y-95953900D01*
X95364300Y-95953900D01*
X95364300Y-95973900D01*
X96507215Y-95973900D01*
X96629204Y-95751861D01*
X96468341Y-95363477D01*
X96092434Y-94948511D01*
X95888192Y-94851847D01*
X96271877Y-94595477D01*
X96589040Y-94120809D01*
X96700413Y-93560900D01*
X96589040Y-93000991D01*
X96271877Y-92526323D01*
X95993196Y-92340114D01*
X95975914Y-92253233D01*
X96271877Y-92055477D01*
X96589040Y-91580809D01*
X96700413Y-91020900D01*
X96589040Y-90460991D01*
X96271877Y-89986323D01*
X95919542Y-89750900D01*
X96271877Y-89515477D01*
X96589040Y-89040809D01*
X96700413Y-88480900D01*
X96635988Y-88157013D01*
X98300000Y-86493002D01*
X98300000Y-94109953D01*
G36*
X135066701Y-78310548D02*
X135051812Y-78385400D01*
X135066701Y-78460252D01*
X135109803Y-78676940D01*
X135110797Y-78681937D01*
X135215362Y-78838429D01*
X135278772Y-78933329D01*
X135342228Y-78975729D01*
X140221607Y-83855110D01*
X139974260Y-84225291D01*
X139862887Y-84785200D01*
X139974260Y-85345109D01*
X140291423Y-85819777D01*
X140643758Y-86055200D01*
X140291423Y-86290623D01*
X139974260Y-86765291D01*
X139862887Y-87325200D01*
X139974260Y-87885109D01*
X140291423Y-88359777D01*
X140643758Y-88595200D01*
X140291423Y-88830623D01*
X139974260Y-89305291D01*
X139862887Y-89865200D01*
X139974260Y-90425109D01*
X140291423Y-90899777D01*
X140643758Y-91135200D01*
X140291423Y-91370623D01*
X139974260Y-91845291D01*
X139862887Y-92405200D01*
X139974260Y-92965109D01*
X140291423Y-93439777D01*
X140766091Y-93756940D01*
X141184667Y-93840200D01*
X141467333Y-93840200D01*
X141885909Y-93756940D01*
X142360577Y-93439777D01*
X142677740Y-92965109D01*
X142687858Y-92914239D01*
X145369096Y-92914239D01*
X145529959Y-93302623D01*
X145905866Y-93717589D01*
X146411959Y-93957114D01*
X146634000Y-93835829D01*
X146634000Y-92692200D01*
X145491085Y-92692200D01*
X145369096Y-92914239D01*
X142687858Y-92914239D01*
X142789113Y-92405200D01*
X142677740Y-91845291D01*
X142360577Y-91370623D01*
X142008242Y-91135200D01*
X142360577Y-90899777D01*
X142677740Y-90425109D01*
X142789113Y-89865200D01*
X142677740Y-89305291D01*
X142360577Y-88830623D01*
X142008242Y-88595200D01*
X142360577Y-88359777D01*
X142677740Y-87885109D01*
X142789113Y-87325200D01*
X142677740Y-86765291D01*
X142360577Y-86290623D01*
X142008242Y-86055200D01*
X142360577Y-85819777D01*
X142596897Y-85466099D01*
X144875700Y-87744902D01*
X144875700Y-87981153D01*
X144860812Y-88056000D01*
X144875700Y-88130847D01*
X144875700Y-88130852D01*
X144919796Y-88352537D01*
X145087772Y-88603929D01*
X145151228Y-88646329D01*
X145633937Y-89129038D01*
X145409260Y-89465291D01*
X145297887Y-90025200D01*
X145409260Y-90585109D01*
X145726423Y-91059777D01*
X146110108Y-91316147D01*
X145905866Y-91412811D01*
X145529959Y-91827777D01*
X145369096Y-92216161D01*
X145491085Y-92438200D01*
X146634000Y-92438200D01*
X146634000Y-92418200D01*
X146888000Y-92418200D01*
X146888000Y-92438200D01*
X146908000Y-92438200D01*
X146908000Y-92692200D01*
X146888000Y-92692200D01*
X146888000Y-93835829D01*
X147110041Y-93957114D01*
X147616134Y-93717589D01*
X147992041Y-93302623D01*
X148152904Y-92914239D01*
X148030916Y-92692202D01*
X148174001Y-92692202D01*
X148174001Y-94386596D01*
X142772006Y-99788593D01*
X142765740Y-99757091D01*
X142457385Y-99295604D01*
X142582028Y-99170961D01*
X142660097Y-99118797D01*
X142866750Y-98809519D01*
X142903997Y-98622265D01*
X142939317Y-98444701D01*
X142921000Y-98352615D01*
X142921000Y-98122396D01*
X143202534Y-97840862D01*
X143421000Y-97313439D01*
X143421000Y-96742561D01*
X143202534Y-96215138D01*
X142798862Y-95811466D01*
X142271439Y-95593000D01*
X141700561Y-95593000D01*
X141173138Y-95811466D01*
X140769466Y-96215138D01*
X140742475Y-96280299D01*
X140739864Y-96273995D01*
X140493745Y-96199861D01*
X139665605Y-97028000D01*
X140493745Y-97856139D01*
X140739864Y-97782005D01*
X140742290Y-97775254D01*
X140769466Y-97840862D01*
X141018508Y-98089904D01*
X140817970Y-98290441D01*
X140739904Y-98342603D01*
X140687742Y-98420669D01*
X140687741Y-98420670D01*
X140533250Y-98651882D01*
X140460683Y-99016700D01*
X140479001Y-99108790D01*
X140479001Y-99215887D01*
X140379423Y-99282423D01*
X140062260Y-99757091D01*
X139950887Y-100317000D01*
X140062260Y-100876909D01*
X140379423Y-101351577D01*
X140731758Y-101587000D01*
X140379423Y-101822423D01*
X140130606Y-102194804D01*
X139120600Y-101184799D01*
X139120600Y-98421544D01*
X139269223Y-98474965D01*
X139839454Y-98447778D01*
X140240005Y-98281864D01*
X140314139Y-98035745D01*
X139486000Y-97207605D01*
X139471858Y-97221748D01*
X139292253Y-97042143D01*
X139306395Y-97028000D01*
X139292253Y-97013858D01*
X139471858Y-96834253D01*
X139486000Y-96848395D01*
X140314139Y-96020255D01*
X140240005Y-95774136D01*
X139702777Y-95581035D01*
X139132546Y-95608222D01*
X139120600Y-95613170D01*
X139120600Y-85278646D01*
X139135488Y-85203799D01*
X139120600Y-85128952D01*
X139120600Y-85128948D01*
X139076504Y-84907263D01*
X138908529Y-84655871D01*
X138845073Y-84613471D01*
X134833023Y-80601422D01*
X135057740Y-80265109D01*
X135169113Y-79705200D01*
X135057740Y-79145291D01*
X134740577Y-78670623D01*
X134619894Y-78589985D01*
X134753765Y-78563357D01*
X134963809Y-78423009D01*
X135066701Y-78269021D01*
X135066701Y-78310548D01*
X135066701Y-78310548D01*
G37*
X135066701Y-78310548D02*
X135051812Y-78385400D01*
X135066701Y-78460252D01*
X135109803Y-78676940D01*
X135110797Y-78681937D01*
X135215362Y-78838429D01*
X135278772Y-78933329D01*
X135342228Y-78975729D01*
X140221607Y-83855110D01*
X139974260Y-84225291D01*
X139862887Y-84785200D01*
X139974260Y-85345109D01*
X140291423Y-85819777D01*
X140643758Y-86055200D01*
X140291423Y-86290623D01*
X139974260Y-86765291D01*
X139862887Y-87325200D01*
X139974260Y-87885109D01*
X140291423Y-88359777D01*
X140643758Y-88595200D01*
X140291423Y-88830623D01*
X139974260Y-89305291D01*
X139862887Y-89865200D01*
X139974260Y-90425109D01*
X140291423Y-90899777D01*
X140643758Y-91135200D01*
X140291423Y-91370623D01*
X139974260Y-91845291D01*
X139862887Y-92405200D01*
X139974260Y-92965109D01*
X140291423Y-93439777D01*
X140766091Y-93756940D01*
X141184667Y-93840200D01*
X141467333Y-93840200D01*
X141885909Y-93756940D01*
X142360577Y-93439777D01*
X142677740Y-92965109D01*
X142687858Y-92914239D01*
X145369096Y-92914239D01*
X145529959Y-93302623D01*
X145905866Y-93717589D01*
X146411959Y-93957114D01*
X146634000Y-93835829D01*
X146634000Y-92692200D01*
X145491085Y-92692200D01*
X145369096Y-92914239D01*
X142687858Y-92914239D01*
X142789113Y-92405200D01*
X142677740Y-91845291D01*
X142360577Y-91370623D01*
X142008242Y-91135200D01*
X142360577Y-90899777D01*
X142677740Y-90425109D01*
X142789113Y-89865200D01*
X142677740Y-89305291D01*
X142360577Y-88830623D01*
X142008242Y-88595200D01*
X142360577Y-88359777D01*
X142677740Y-87885109D01*
X142789113Y-87325200D01*
X142677740Y-86765291D01*
X142360577Y-86290623D01*
X142008242Y-86055200D01*
X142360577Y-85819777D01*
X142596897Y-85466099D01*
X144875700Y-87744902D01*
X144875700Y-87981153D01*
X144860812Y-88056000D01*
X144875700Y-88130847D01*
X144875700Y-88130852D01*
X144919796Y-88352537D01*
X145087772Y-88603929D01*
X145151228Y-88646329D01*
X145633937Y-89129038D01*
X145409260Y-89465291D01*
X145297887Y-90025200D01*
X145409260Y-90585109D01*
X145726423Y-91059777D01*
X146110108Y-91316147D01*
X145905866Y-91412811D01*
X145529959Y-91827777D01*
X145369096Y-92216161D01*
X145491085Y-92438200D01*
X146634000Y-92438200D01*
X146634000Y-92418200D01*
X146888000Y-92418200D01*
X146888000Y-92438200D01*
X146908000Y-92438200D01*
X146908000Y-92692200D01*
X146888000Y-92692200D01*
X146888000Y-93835829D01*
X147110041Y-93957114D01*
X147616134Y-93717589D01*
X147992041Y-93302623D01*
X148152904Y-92914239D01*
X148030916Y-92692202D01*
X148174001Y-92692202D01*
X148174001Y-94386596D01*
X142772006Y-99788593D01*
X142765740Y-99757091D01*
X142457385Y-99295604D01*
X142582028Y-99170961D01*
X142660097Y-99118797D01*
X142866750Y-98809519D01*
X142903997Y-98622265D01*
X142939317Y-98444701D01*
X142921000Y-98352615D01*
X142921000Y-98122396D01*
X143202534Y-97840862D01*
X143421000Y-97313439D01*
X143421000Y-96742561D01*
X143202534Y-96215138D01*
X142798862Y-95811466D01*
X142271439Y-95593000D01*
X141700561Y-95593000D01*
X141173138Y-95811466D01*
X140769466Y-96215138D01*
X140742475Y-96280299D01*
X140739864Y-96273995D01*
X140493745Y-96199861D01*
X139665605Y-97028000D01*
X140493745Y-97856139D01*
X140739864Y-97782005D01*
X140742290Y-97775254D01*
X140769466Y-97840862D01*
X141018508Y-98089904D01*
X140817970Y-98290441D01*
X140739904Y-98342603D01*
X140687742Y-98420669D01*
X140687741Y-98420670D01*
X140533250Y-98651882D01*
X140460683Y-99016700D01*
X140479001Y-99108790D01*
X140479001Y-99215887D01*
X140379423Y-99282423D01*
X140062260Y-99757091D01*
X139950887Y-100317000D01*
X140062260Y-100876909D01*
X140379423Y-101351577D01*
X140731758Y-101587000D01*
X140379423Y-101822423D01*
X140130606Y-102194804D01*
X139120600Y-101184799D01*
X139120600Y-98421544D01*
X139269223Y-98474965D01*
X139839454Y-98447778D01*
X140240005Y-98281864D01*
X140314139Y-98035745D01*
X139486000Y-97207605D01*
X139471858Y-97221748D01*
X139292253Y-97042143D01*
X139306395Y-97028000D01*
X139292253Y-97013858D01*
X139471858Y-96834253D01*
X139486000Y-96848395D01*
X140314139Y-96020255D01*
X140240005Y-95774136D01*
X139702777Y-95581035D01*
X139132546Y-95608222D01*
X139120600Y-95613170D01*
X139120600Y-85278646D01*
X139135488Y-85203799D01*
X139120600Y-85128952D01*
X139120600Y-85128948D01*
X139076504Y-84907263D01*
X138908529Y-84655871D01*
X138845073Y-84613471D01*
X134833023Y-80601422D01*
X135057740Y-80265109D01*
X135169113Y-79705200D01*
X135057740Y-79145291D01*
X134740577Y-78670623D01*
X134619894Y-78589985D01*
X134753765Y-78563357D01*
X134963809Y-78423009D01*
X135066701Y-78269021D01*
X135066701Y-78310548D01*
G36*
X153346423Y-85979777D02*
X153698758Y-86215200D01*
X153346423Y-86450623D01*
X153029260Y-86925291D01*
X152917887Y-87485200D01*
X153029260Y-88045109D01*
X153346423Y-88519777D01*
X153698758Y-88755200D01*
X153346423Y-88990623D01*
X153029260Y-89465291D01*
X152917887Y-90025200D01*
X153029260Y-90585109D01*
X153120155Y-90721143D01*
X149694000Y-94147298D01*
X149694000Y-89011001D01*
X153097606Y-85607396D01*
X153346423Y-85979777D01*
X153346423Y-85979777D01*
G37*
X153346423Y-85979777D02*
X153698758Y-86215200D01*
X153346423Y-86450623D01*
X153029260Y-86925291D01*
X152917887Y-87485200D01*
X153029260Y-88045109D01*
X153346423Y-88519777D01*
X153698758Y-88755200D01*
X153346423Y-88990623D01*
X153029260Y-89465291D01*
X152917887Y-90025200D01*
X153029260Y-90585109D01*
X153120155Y-90721143D01*
X149694000Y-94147298D01*
X149694000Y-89011001D01*
X153097606Y-85607396D01*
X153346423Y-85979777D01*
G36*
X148174001Y-92438198D02*
X148030916Y-92438198D01*
X148152904Y-92216161D01*
X147992041Y-91827777D01*
X147616134Y-91412811D01*
X147411892Y-91316147D01*
X147795577Y-91059777D01*
X148112740Y-90585109D01*
X148174000Y-90277133D01*
X148174001Y-92438198D01*
X148174001Y-92438198D01*
G37*
X148174001Y-92438198D02*
X148030916Y-92438198D01*
X148152904Y-92216161D01*
X147992041Y-91827777D01*
X147616134Y-91412811D01*
X147411892Y-91316147D01*
X147795577Y-91059777D01*
X148112740Y-90585109D01*
X148174000Y-90277133D01*
X148174001Y-92438198D01*
G36*
X97124700Y-85518698D02*
X96699895Y-85943503D01*
X96700413Y-85940900D01*
X96589040Y-85380991D01*
X96271877Y-84906323D01*
X95975914Y-84708567D01*
X95993196Y-84621686D01*
X96271877Y-84435477D01*
X96589040Y-83960809D01*
X96700413Y-83400900D01*
X96589040Y-82840991D01*
X96271877Y-82366323D01*
X96151194Y-82285685D01*
X96285065Y-82259057D01*
X96495109Y-82118709D01*
X96635457Y-81908665D01*
X96684740Y-81660900D01*
X96684740Y-80060900D01*
X96635457Y-79813135D01*
X96495109Y-79603091D01*
X96285065Y-79462743D01*
X96037300Y-79413460D01*
X94437300Y-79413460D01*
X94189535Y-79462743D01*
X93979491Y-79603091D01*
X93964700Y-79625227D01*
X93964700Y-75366722D01*
X94267866Y-75701389D01*
X94773959Y-75940914D01*
X94996000Y-75819629D01*
X94996000Y-74676000D01*
X95250000Y-74676000D01*
X95250000Y-75819629D01*
X95472041Y-75940914D01*
X95978134Y-75701389D01*
X96354041Y-75286423D01*
X96514904Y-74898039D01*
X96392915Y-74676000D01*
X95250000Y-74676000D01*
X94996000Y-74676000D01*
X94976000Y-74676000D01*
X94976000Y-74422000D01*
X94996000Y-74422000D01*
X94996000Y-74402000D01*
X95250000Y-74402000D01*
X95250000Y-74422000D01*
X96392915Y-74422000D01*
X96514904Y-74199961D01*
X96354041Y-73811577D01*
X95978134Y-73396611D01*
X95472041Y-73157086D01*
X95452151Y-73167950D01*
X97004473Y-71615629D01*
X97067929Y-71573229D01*
X97124701Y-71488264D01*
X97124700Y-85518698D01*
X97124700Y-85518698D01*
G37*
X97124700Y-85518698D02*
X96699895Y-85943503D01*
X96700413Y-85940900D01*
X96589040Y-85380991D01*
X96271877Y-84906323D01*
X95975914Y-84708567D01*
X95993196Y-84621686D01*
X96271877Y-84435477D01*
X96589040Y-83960809D01*
X96700413Y-83400900D01*
X96589040Y-82840991D01*
X96271877Y-82366323D01*
X96151194Y-82285685D01*
X96285065Y-82259057D01*
X96495109Y-82118709D01*
X96635457Y-81908665D01*
X96684740Y-81660900D01*
X96684740Y-80060900D01*
X96635457Y-79813135D01*
X96495109Y-79603091D01*
X96285065Y-79462743D01*
X96037300Y-79413460D01*
X94437300Y-79413460D01*
X94189535Y-79462743D01*
X93979491Y-79603091D01*
X93964700Y-79625227D01*
X93964700Y-75366722D01*
X94267866Y-75701389D01*
X94773959Y-75940914D01*
X94996000Y-75819629D01*
X94996000Y-74676000D01*
X95250000Y-74676000D01*
X95250000Y-75819629D01*
X95472041Y-75940914D01*
X95978134Y-75701389D01*
X96354041Y-75286423D01*
X96514904Y-74898039D01*
X96392915Y-74676000D01*
X95250000Y-74676000D01*
X94996000Y-74676000D01*
X94976000Y-74676000D01*
X94976000Y-74422000D01*
X94996000Y-74422000D01*
X94996000Y-74402000D01*
X95250000Y-74402000D01*
X95250000Y-74422000D01*
X96392915Y-74422000D01*
X96514904Y-74199961D01*
X96354041Y-73811577D01*
X95978134Y-73396611D01*
X95472041Y-73157086D01*
X95452151Y-73167950D01*
X97004473Y-71615629D01*
X97067929Y-71573229D01*
X97124701Y-71488264D01*
X97124700Y-85518698D01*
G04 #@! TD*
M02*
