G04 #@! TF.FileFunction,Legend,Bot*
%FSLAX46Y46*%
G04 Gerber Fmt 4.6, Leading zero omitted, Abs format (unit mm)*
G04 Created by KiCad (PCBNEW 4.0.7) date *
%MOMM*%
%LPD*%
G01*
G04 APERTURE LIST*
%ADD10C,0.100000*%
%ADD11C,2.000000*%
%ADD12R,1.600000X1.600000*%
%ADD13C,1.600000*%
%ADD14R,2.000000X2.000000*%
%ADD15R,2.600000X2.600000*%
%ADD16O,2.600000X2.600000*%
%ADD17R,2.127200X2.127200*%
%ADD18O,2.127200X2.127200*%
%ADD19C,5.200600*%
%ADD20R,5.200600X5.200600*%
%ADD21O,2.000000X2.000000*%
%ADD22R,2.300000X2.300000*%
%ADD23C,2.300000*%
%ADD24C,2.400000*%
%ADD25C,1.900000*%
%ADD26C,3.600000*%
%ADD27R,2.200000X2.200000*%
%ADD28C,2.200000*%
G04 APERTURE END LIST*
D10*
%LPC*%
D11*
X129540000Y-104140000D03*
X132040000Y-104140000D03*
D12*
X87850000Y-102560000D03*
D13*
X87850000Y-100560000D03*
D11*
X105410000Y-86360000D03*
X102910000Y-86360000D03*
X153670000Y-107950000D03*
X151170000Y-107950000D03*
X105410000Y-107950000D03*
X102910000Y-107950000D03*
X73660000Y-87630000D03*
X73660000Y-90130000D03*
X73660000Y-96520000D03*
X73660000Y-94020000D03*
D14*
X73660000Y-121412000D03*
D11*
X76160000Y-121412000D03*
D15*
X84540000Y-113110000D03*
D16*
X94700000Y-113110000D03*
D17*
X91440000Y-69850000D03*
D18*
X91440000Y-67310000D03*
X93980000Y-69850000D03*
X93980000Y-67310000D03*
X96520000Y-69850000D03*
X96520000Y-67310000D03*
X99060000Y-69850000D03*
X99060000Y-67310000D03*
X101600000Y-69850000D03*
X101600000Y-67310000D03*
X104140000Y-69850000D03*
X104140000Y-67310000D03*
X106680000Y-69850000D03*
X106680000Y-67310000D03*
X109220000Y-69850000D03*
X109220000Y-67310000D03*
X111760000Y-69850000D03*
X111760000Y-67310000D03*
X114300000Y-69850000D03*
X114300000Y-67310000D03*
X116840000Y-69850000D03*
X116840000Y-67310000D03*
X119380000Y-69850000D03*
X119380000Y-67310000D03*
X121920000Y-69850000D03*
X121920000Y-67310000D03*
X124460000Y-69850000D03*
X124460000Y-67310000D03*
X127000000Y-69850000D03*
X127000000Y-67310000D03*
X129540000Y-69850000D03*
X129540000Y-67310000D03*
X132080000Y-69850000D03*
X132080000Y-67310000D03*
X134620000Y-69850000D03*
X134620000Y-67310000D03*
X137160000Y-69850000D03*
X137160000Y-67310000D03*
X139700000Y-69850000D03*
X139700000Y-67310000D03*
D19*
X86360000Y-124460000D03*
D20*
X86360000Y-118364000D03*
D19*
X91440000Y-122174000D03*
D11*
X86360000Y-82550000D03*
D21*
X93980000Y-82550000D03*
D11*
X87100000Y-109650000D03*
D21*
X94720000Y-109650000D03*
D11*
X93980000Y-88900000D03*
D21*
X86360000Y-88900000D03*
D11*
X93980000Y-93980000D03*
D21*
X86360000Y-93980000D03*
D14*
X116840000Y-92710000D03*
D21*
X116840000Y-95250000D03*
X116840000Y-97790000D03*
X116840000Y-100330000D03*
X116840000Y-102870000D03*
X116840000Y-105410000D03*
X116840000Y-107950000D03*
X116840000Y-110490000D03*
X116840000Y-113030000D03*
D22*
X71120000Y-114300000D03*
D23*
X73620000Y-114300000D03*
X76120000Y-114300000D03*
D24*
X72800000Y-105280000D03*
X72800000Y-100780000D03*
X79300000Y-105280000D03*
X79300000Y-100780000D03*
D21*
X123190000Y-78740000D03*
X123190000Y-81280000D03*
X123190000Y-83820000D03*
X123190000Y-86360000D03*
X123190000Y-88900000D03*
X123190000Y-91440000D03*
X123190000Y-93980000D03*
X123190000Y-96520000D03*
X123190000Y-99060000D03*
X123190000Y-101600000D03*
X123190000Y-104140000D03*
X123190000Y-106680000D03*
X123190000Y-109220000D03*
X123190000Y-111760000D03*
X123190000Y-114300000D03*
X123190000Y-116840000D03*
X123190000Y-119380000D03*
X123190000Y-121920000D03*
X123190000Y-124460000D03*
X123190000Y-127000000D03*
X138430000Y-127000000D03*
X138430000Y-124460000D03*
X138430000Y-121920000D03*
X138430000Y-119380000D03*
X138430000Y-116840000D03*
X138430000Y-114300000D03*
X138430000Y-111760000D03*
X138430000Y-109220000D03*
X138430000Y-106680000D03*
X138430000Y-104140000D03*
X138430000Y-101600000D03*
X138430000Y-99060000D03*
X138430000Y-96520000D03*
X138430000Y-93980000D03*
X138430000Y-91440000D03*
X138430000Y-88900000D03*
X138430000Y-86360000D03*
X138430000Y-83820000D03*
X138430000Y-81280000D03*
X138430000Y-78740000D03*
D14*
X100330000Y-110490000D03*
D21*
X107950000Y-125730000D03*
X100330000Y-113030000D03*
X107950000Y-123190000D03*
X100330000Y-115570000D03*
X107950000Y-120650000D03*
X100330000Y-118110000D03*
X107950000Y-118110000D03*
X100330000Y-120650000D03*
X107950000Y-115570000D03*
X100330000Y-123190000D03*
X107950000Y-113030000D03*
X100330000Y-125730000D03*
X107950000Y-110490000D03*
D14*
X100330000Y-88900000D03*
D21*
X107950000Y-104140000D03*
X100330000Y-91440000D03*
X107950000Y-101600000D03*
X100330000Y-93980000D03*
X107950000Y-99060000D03*
X100330000Y-96520000D03*
X107950000Y-96520000D03*
X100330000Y-99060000D03*
X107950000Y-93980000D03*
X100330000Y-101600000D03*
X107950000Y-91440000D03*
X100330000Y-104140000D03*
X107950000Y-88900000D03*
D14*
X146050000Y-111760000D03*
D21*
X153670000Y-127000000D03*
X146050000Y-114300000D03*
X153670000Y-124460000D03*
X146050000Y-116840000D03*
X153670000Y-121920000D03*
X146050000Y-119380000D03*
X153670000Y-119380000D03*
X146050000Y-121920000D03*
X153670000Y-116840000D03*
X146050000Y-124460000D03*
X153670000Y-114300000D03*
X146050000Y-127000000D03*
X153670000Y-111760000D03*
D25*
X81280000Y-88900000D03*
X81280000Y-93780000D03*
D26*
X69775000Y-61700000D03*
X158825000Y-61700000D03*
X69800000Y-127575000D03*
X158850000Y-127550000D03*
D27*
X76620000Y-76850000D03*
D28*
X74080000Y-76850000D03*
D11*
X78110000Y-82060000D03*
D21*
X70490000Y-82060000D03*
M02*
